<svg width="100" height="100" viewBox="0 0 100 100" fill="none" xmlns="http://www.w3.org/2000/svg">
  <path
    d="M50.1734 89.0176C57.5098 89.0192 63.6022 89.0858 63.7417 89.166C63.8663 89.2463 64.3863 90.4751 64.8951 91.8955C65.4039 93.316 66.0558 95.0763 66.3394 95.8184C66.6254 96.5573 66.7897 97.2277 66.7105 97.3076C66.5512 97.4672 35.6707 97.5796 33.9117 97.4307C33.7394 97.3771 33.605 97.3065 33.605 97.2656C33.6068 97.2176 33.8638 96.5316 34.1773 95.7393C34.4927 94.9441 35.1283 93.2187 35.5894 91.8965C36.0505 90.5742 36.5201 89.4005 36.6314 89.2627C36.7902 89.0685 39.734 89.0152 50.1734 89.0176ZM33.9117 97.4307C33.925 97.4348 33.938 97.4404 33.9517 97.4443L33.8482 97.4258C33.8611 97.4284 33.8826 97.4282 33.9117 97.4307ZM26.274 17.5742C26.5602 17.6294 26.854 18.4015 27.6675 21.2314C28.3857 23.7199 28.6456 24.9158 28.521 25.1543C28.4225 25.343 27.7418 25.9786 27.0054 26.5693C26.2687 27.1577 24.8188 28.5253 23.772 29.6172C17.0144 36.64 13.543 46.2597 14.232 55.959C14.7381 62.9819 17.173 69.3694 21.4927 74.9082C23.2789 77.2058 26.9522 80.6583 29.1783 82.1689C30.8078 83.2579 31.1103 83.5445 31.1158 83.9922C31.1228 84.5355 29.0455 90.4059 28.6851 90.8564C28.4451 91.1583 28.3483 91.1557 27.8423 90.8232L27.857 90.8193C27.6383 90.676 26.6878 90.0585 25.7417 89.4463C21.9786 87.0002 17.7113 83.0597 15.0347 79.5615C10.5295 73.6783 7.77426 67.2113 6.55521 59.791C6.06763 56.8228 6.06744 50.5689 6.55716 47.3623C7.97498 38.0868 12.3075 29.6855 18.9859 23.1396C21.9805 20.2245 25.6114 17.4417 26.274 17.5742ZM73.0171 18.333C73.2694 17.3154 73.4334 17.2356 74.2681 17.7285C76.0066 18.7541 79.3039 21.5707 81.8745 24.1943C94.4097 37.127 97.3772 56.2619 89.3208 72.4277C86.4322 78.2048 81.5561 83.9817 76.1236 88.0098C74.8701 88.9426 71.5651 91.0312 71.3531 91.0312C71.2733 91.0305 70.6611 89.5467 69.9908 87.7451L69.9937 87.7979C69.3259 85.9852 68.7769 84.273 68.7769 83.9814C68.7772 83.5683 68.9769 83.3248 69.6704 82.8877C76.7198 78.4355 82.3644 70.6967 84.564 62.5078C85.4995 59.0097 85.7271 56.8365 85.6158 52.4639C85.5039 48.0382 85.2637 46.607 83.9732 42.6055C81.9697 36.4043 77.56 30.2294 71.9419 25.8037C71.6638 25.5851 71.3721 25.2998 71.2925 25.1699C71.2135 25.0401 71.5414 23.564 72.021 21.8838C72.5005 20.2098 72.9479 18.6257 73.0171 18.333ZM49.1831 8.03906C49.3347 14.3461 49.3692 15.0884 49.9117 23.4893C50.5848 33.9572 51.4116 41.1656 53.0122 50.5205C53.8043 55.1563 55.2157 61.6458 55.4868 61.9424C55.5862 62.0425 56.2 62.1053 56.8492 62.082C58.214 62.0327 58.0952 61.8225 58.4742 64.9443C59.089 70.006 61.0151 79.5197 62.2368 83.5215C62.4539 84.2317 62.6324 84.9264 62.6324 85.0615C62.6325 85.2575 60.0408 85.3096 50.3355 85.3096C43.5828 85.3096 37.9945 85.2632 37.9331 85.2061L37.9273 85.1475C37.8704 85.0901 38.0789 84.1827 38.3931 83.1309C39.6546 78.8906 40.9193 71.3908 41.3618 65.5605C41.7037 61.0023 41.4924 50.8792 40.9693 46.7979C40.7449 45.0496 40.5615 43.4865 40.564 43.3262C40.5747 41.6354 42.9939 52.0979 44.6714 61.1084L44.8199 61.9033L46.1851 61.9629C47.5204 62.0209 47.5466 62.0127 47.438 61.5654C47.376 61.3142 47.1753 60.3035 46.9927 59.3203C46.8095 58.3368 46.1764 55.3453 45.5855 52.6689C41.9018 35.9996 36.2308 19.277 30.6656 8.94141C29.8337 7.39163 29.8018 7.26935 30.1089 6.92773C30.2899 6.72765 30.9758 6.32346 31.6304 6.0293C33.3106 5.27401 38.0172 3.89039 38.2027 4.0918C38.2947 4.18413 38.4968 4.96959 38.6558 5.83594C39.2865 9.33389 39.8083 11.9314 41.438 19.749C43.0626 27.5937 48.329 53.4058 49.4156 58.7061C49.6991 60.1264 49.98 61.4355 50.0357 61.6475C50.1208 61.9309 50.3721 61.9941 51.4185 61.9941C52.1196 61.9941 52.6939 61.9169 52.6958 61.8223C52.6958 61.7271 51.7552 56.9984 50.605 51.3271C49.4549 45.6559 47.7435 37.2546 46.816 32.6699C45.8884 28.0853 44.6772 22.0434 44.1392 19.2607C43.6013 16.4783 42.8321 12.7153 42.4478 10.9131C41.152 4.81819 40.9115 3.54574 41.0386 3.41309C41.2427 3.20903 44.4572 2.77955 46.8423 2.63379L49.0493 2.5L49.1831 8.03906ZM52.4077 2.57617C53.3885 2.58826 56.6744 2.91287 58.4234 3.16992L60.0826 3.41504L59.9966 4.2334C59.9494 4.68392 59.6308 6.61924 59.2915 8.52734C56.6494 23.368 56.0055 41.3891 57.5796 56.7598C57.9586 60.4962 57.8893 61.4235 57.3892 59.3193L57.3794 59.415C56.5526 55.9434 55.4313 49.8481 54.7847 45.3164C52.9164 32.2247 52.1449 22.631 51.9488 10.0693L51.8296 2.56934L52.4077 2.57617ZM62.316 4.80566C62.4708 4.06671 62.8415 4.09328 65.7349 5.03125C68.6765 5.98265 70.5845 6.91583 70.5845 7.39551C70.5843 7.58706 70.1761 8.68095 69.6753 9.82812C64.9316 20.6937 60.6649 36.0646 59.6314 45.8701C59.2233 49.7921 59.1283 49.9247 58.9507 46.8643L58.9478 46.7998C58.5927 40.6512 59.2181 25.7314 60.1509 18.1787C60.6067 14.4422 61.5982 8.05588 62.0249 6.14746C62.1222 5.71019 62.2526 5.10513 62.316 4.80566Z"
    fill="currentColor" />
</svg>
