<svg width="150" height="150" viewBox="0 0 150 150" fill="none" xmlns="http://www.w3.org/2000/svg">
<g clip-path="url(#clip0_5_1995)">
<rect width="150" height="15" transform="translate(0 15)" fill="#DEFCE5" style="fill:#DEFCE5;fill:color(display-p3 0.8706 0.9882 0.8980);fill-opacity:1;"/>
<circle cx="7.5" cy="22.5" r="2.5" fill="#156634" style="fill:#156634;fill:color(display-p3 0.0824 0.4000 0.2039);fill-opacity:1;"/>
<rect x="15" y="20" width="37.5" height="5" rx="2.5" fill="#156634" style="fill:#156634;fill:color(display-p3 0.0824 0.4000 0.2039);fill-opacity:1;"/>
<rect x="63.75" y="20" width="5" height="5" rx="2.5" fill="black" style="fill:black;fill-opacity:1;"/>
<rect x="73.75" y="20" width="5" height="5" rx="2.5" fill="black" style="fill:black;fill-opacity:1;"/>
<rect x="83.75" y="20" width="5" height="5" rx="2.5" fill="black" style="fill:black;fill-opacity:1;"/>
<rect x="93.75" y="20" width="5" height="5" rx="2.5" fill="black" style="fill:black;fill-opacity:1;"/>
<rect x="103.75" y="20" width="5" height="5" rx="2.5" fill="#17A34A" style="fill:#17A34A;fill:color(display-p3 0.0902 0.6392 0.2902);fill-opacity:1;"/>
<rect x="113.75" y="20" width="5" height="5" rx="2.5" fill="black" style="fill:black;fill-opacity:1;"/>
<circle cx="125" cy="22.5" r="1.25" fill="#17A34A" style="fill:#17A34A;fill:color(display-p3 0.0902 0.6392 0.2902);fill-opacity:1;"/>
<circle cx="128.75" cy="22.5" r="1.25" fill="#17A34A" style="fill:#17A34A;fill:color(display-p3 0.0902 0.6392 0.2902);fill-opacity:1;"/>
<circle cx="132.5" cy="22.5" r="1.25" fill="#9DA3AF" style="fill:#9DA3AF;fill:color(display-p3 0.6157 0.6392 0.6863);fill-opacity:1;"/>
<circle cx="136.25" cy="22.5" r="1.25" fill="#17A34A" style="fill:#17A34A;fill:color(display-p3 0.0902 0.6392 0.2902);fill-opacity:1;"/>
<circle cx="140" cy="22.5" r="1.25" fill="#17A34A" style="fill:#17A34A;fill:color(display-p3 0.0902 0.6392 0.2902);fill-opacity:1;"/>
<circle cx="143.75" cy="22.5" r="1.25" fill="#9DA3AF" style="fill:#9DA3AF;fill:color(display-p3 0.6157 0.6392 0.6863);fill-opacity:1;"/>
<rect width="150" height="15" transform="translate(0 30)" fill="#CCE2FD" style="fill:#CCE2FD;fill:color(display-p3 0.8000 0.8863 0.9922);fill-opacity:1;"/>
<circle cx="7.5" cy="37.5" r="2.5" fill="#1F40B0" style="fill:#1F40B0;fill:color(display-p3 0.1216 0.2510 0.6902);fill-opacity:1;"/>
<rect x="15" y="35" width="43.75" height="5" rx="2.5" fill="#1F40B0" style="fill:#1F40B0;fill:color(display-p3 0.1216 0.2510 0.6902);fill-opacity:1;"/>
<rect x="63.75" y="35" width="5" height="5" rx="2.5" fill="black" style="fill:black;fill-opacity:1;"/>
<rect x="73.75" y="35" width="5" height="5" rx="2.5" fill="black" style="fill:black;fill-opacity:1;"/>
<rect x="83.75" y="35" width="5" height="5" rx="2.5" fill="black" style="fill:black;fill-opacity:1;"/>
<rect x="93.75" y="35" width="5" height="5" rx="2.5" fill="black" style="fill:black;fill-opacity:1;"/>
<rect x="103.75" y="35" width="5" height="5" rx="2.5" fill="#17A34A" style="fill:#17A34A;fill:color(display-p3 0.0902 0.6392 0.2902);fill-opacity:1;"/>
<rect x="113.75" y="35" width="5" height="5" rx="2.5" fill="black" style="fill:black;fill-opacity:1;"/>
<circle cx="125" cy="37.5" r="1.25" fill="#17A34A" style="fill:#17A34A;fill:color(display-p3 0.0902 0.6392 0.2902);fill-opacity:1;"/>
<circle cx="128.75" cy="37.5" r="1.25" fill="#17A34A" style="fill:#17A34A;fill:color(display-p3 0.0902 0.6392 0.2902);fill-opacity:1;"/>
<circle cx="132.5" cy="37.5" r="1.25" fill="#17A34A" style="fill:#17A34A;fill:color(display-p3 0.0902 0.6392 0.2902);fill-opacity:1;"/>
<circle cx="136.25" cy="37.5" r="1.25" fill="#9DA3AF" style="fill:#9DA3AF;fill:color(display-p3 0.6157 0.6392 0.6863);fill-opacity:1;"/>
<circle cx="140" cy="37.5" r="1.25" fill="#DC2627" style="fill:#DC2627;fill:color(display-p3 0.8627 0.1490 0.1529);fill-opacity:1;"/>
<circle cx="143.75" cy="37.5" r="1.25" fill="#17A34A" style="fill:#17A34A;fill:color(display-p3 0.0902 0.6392 0.2902);fill-opacity:1;"/>
<rect width="150" height="15" transform="translate(0 45)" fill="#DEECFE" style="fill:#DEECFE;fill:color(display-p3 0.8706 0.9255 0.9961);fill-opacity:1;"/>
<circle cx="7.5" cy="52.5" r="2.5" fill="#1F40B0" style="fill:#1F40B0;fill:color(display-p3 0.1216 0.2510 0.6902);fill-opacity:1;"/>
<rect x="15" y="50" width="31.25" height="5" rx="2.5" fill="#1F40B0" style="fill:#1F40B0;fill:color(display-p3 0.1216 0.2510 0.6902);fill-opacity:1;"/>
<rect x="63.75" y="50" width="5" height="5" rx="2.5" fill="black" style="fill:black;fill-opacity:1;"/>
<rect x="73.75" y="50" width="5" height="5" rx="2.5" fill="black" style="fill:black;fill-opacity:1;"/>
<rect x="83.75" y="50" width="5" height="5" rx="2.5" fill="black" style="fill:black;fill-opacity:1;"/>
<rect x="93.75" y="50" width="5" height="5" rx="2.5" fill="black" style="fill:black;fill-opacity:1;"/>
<rect x="103.75" y="50" width="5" height="5" rx="2.5" fill="#17A34A" style="fill:#17A34A;fill:color(display-p3 0.0902 0.6392 0.2902);fill-opacity:1;"/>
<rect x="113.75" y="50" width="5" height="5" rx="2.5" fill="black" style="fill:black;fill-opacity:1;"/>
<circle cx="125" cy="52.5" r="1.25" fill="#17A34A" style="fill:#17A34A;fill:color(display-p3 0.0902 0.6392 0.2902);fill-opacity:1;"/>
<circle cx="128.75" cy="52.5" r="1.25" fill="#17A34A" style="fill:#17A34A;fill:color(display-p3 0.0902 0.6392 0.2902);fill-opacity:1;"/>
<circle cx="132.5" cy="52.5" r="1.25" fill="#9DA3AF" style="fill:#9DA3AF;fill:color(display-p3 0.6157 0.6392 0.6863);fill-opacity:1;"/>
<circle cx="136.25" cy="52.5" r="1.25" fill="#9DA3AF" style="fill:#9DA3AF;fill:color(display-p3 0.6157 0.6392 0.6863);fill-opacity:1;"/>
<circle cx="140" cy="52.5" r="1.25" fill="#17A34A" style="fill:#17A34A;fill:color(display-p3 0.0902 0.6392 0.2902);fill-opacity:1;"/>
<circle cx="143.75" cy="52.5" r="1.25" fill="#9DA3AF" style="fill:#9DA3AF;fill:color(display-p3 0.6157 0.6392 0.6863);fill-opacity:1;"/>
<rect width="150" height="15" transform="translate(0 60)" fill="#CCE2FD" style="fill:#CCE2FD;fill:color(display-p3 0.8000 0.8863 0.9922);fill-opacity:1;"/>
<circle cx="7.5" cy="67.5" r="2.5" fill="#1F40B0" style="fill:#1F40B0;fill:color(display-p3 0.1216 0.2510 0.6902);fill-opacity:1;"/>
<rect x="15" y="65" width="25" height="5" rx="2.5" fill="#1F40B0" style="fill:#1F40B0;fill:color(display-p3 0.1216 0.2510 0.6902);fill-opacity:1;"/>
<rect x="45" y="65" width="12.5" height="5" rx="2.5" fill="#1F40B0" style="fill:#1F40B0;fill:color(display-p3 0.1216 0.2510 0.6902);fill-opacity:1;"/>
<rect x="63.75" y="65" width="5" height="5" rx="2.5" fill="black" style="fill:black;fill-opacity:1;"/>
<rect x="73.75" y="65" width="5" height="5" rx="2.5" fill="black" style="fill:black;fill-opacity:1;"/>
<rect x="83.75" y="65" width="5" height="5" rx="2.5" fill="black" style="fill:black;fill-opacity:1;"/>
<rect x="93.75" y="65" width="5" height="5" rx="2.5" fill="black" style="fill:black;fill-opacity:1;"/>
<rect x="103.75" y="65" width="5" height="5" rx="2.5" fill="#17A34A" style="fill:#17A34A;fill:color(display-p3 0.0902 0.6392 0.2902);fill-opacity:1;"/>
<rect x="113.75" y="65" width="5" height="5" rx="2.5" fill="black" style="fill:black;fill-opacity:1;"/>
<circle cx="125" cy="67.5" r="1.25" fill="#17A34A" style="fill:#17A34A;fill:color(display-p3 0.0902 0.6392 0.2902);fill-opacity:1;"/>
<circle cx="128.75" cy="67.5" r="1.25" fill="#17A34A" style="fill:#17A34A;fill:color(display-p3 0.0902 0.6392 0.2902);fill-opacity:1;"/>
<circle cx="132.5" cy="67.5" r="1.25" fill="#9DA3AF" style="fill:#9DA3AF;fill:color(display-p3 0.6157 0.6392 0.6863);fill-opacity:1;"/>
<circle cx="136.25" cy="67.5" r="1.25" fill="#DC2627" style="fill:#DC2627;fill:color(display-p3 0.8627 0.1490 0.1529);fill-opacity:1;"/>
<circle cx="140" cy="67.5" r="1.25" fill="#DC2627" style="fill:#DC2627;fill:color(display-p3 0.8627 0.1490 0.1529);fill-opacity:1;"/>
<circle cx="143.75" cy="67.5" r="1.25" fill="#17A34A" style="fill:#17A34A;fill:color(display-p3 0.0902 0.6392 0.2902);fill-opacity:1;"/>
<rect width="150" height="15" transform="translate(0 75)" fill="#DEECFE" style="fill:#DEECFE;fill:color(display-p3 0.8706 0.9255 0.9961);fill-opacity:1;"/>
<circle cx="7.5" cy="82.5" r="2.5" fill="#1F40B0" style="fill:#1F40B0;fill:color(display-p3 0.1216 0.2510 0.6902);fill-opacity:1;"/>
<rect x="15" y="80" width="37.5" height="5" rx="2.5" fill="#1F40B0" style="fill:#1F40B0;fill:color(display-p3 0.1216 0.2510 0.6902);fill-opacity:1;"/>
<rect x="63.75" y="80" width="5" height="5" rx="2.5" fill="black" style="fill:black;fill-opacity:1;"/>
<rect x="73.75" y="80" width="5" height="5" rx="2.5" fill="black" style="fill:black;fill-opacity:1;"/>
<rect x="83.75" y="80" width="5" height="5" rx="2.5" fill="black" style="fill:black;fill-opacity:1;"/>
<rect x="93.75" y="80" width="5" height="5" rx="2.5" fill="black" style="fill:black;fill-opacity:1;"/>
<rect x="103.75" y="80" width="5" height="5" rx="2.5" fill="#17A34A" style="fill:#17A34A;fill:color(display-p3 0.0902 0.6392 0.2902);fill-opacity:1;"/>
<rect x="113.75" y="80" width="5" height="5" rx="2.5" fill="black" style="fill:black;fill-opacity:1;"/>
<circle cx="125" cy="82.5" r="1.25" fill="#9DA3AF" style="fill:#9DA3AF;fill:color(display-p3 0.6157 0.6392 0.6863);fill-opacity:1;"/>
<circle cx="128.75" cy="82.5" r="1.25" fill="#9DA3AF" style="fill:#9DA3AF;fill:color(display-p3 0.6157 0.6392 0.6863);fill-opacity:1;"/>
<circle cx="132.5" cy="82.5" r="1.25" fill="#17A34A" style="fill:#17A34A;fill:color(display-p3 0.0902 0.6392 0.2902);fill-opacity:1;"/>
<circle cx="136.25" cy="82.5" r="1.25" fill="#17A34A" style="fill:#17A34A;fill:color(display-p3 0.0902 0.6392 0.2902);fill-opacity:1;"/>
<circle cx="140" cy="82.5" r="1.25" fill="#9DA3AF" style="fill:#9DA3AF;fill:color(display-p3 0.6157 0.6392 0.6863);fill-opacity:1;"/>
<circle cx="143.75" cy="82.5" r="1.25" fill="#DC2627" style="fill:#DC2627;fill:color(display-p3 0.8627 0.1490 0.1529);fill-opacity:1;"/>
<rect width="150" height="15" transform="translate(0 90)" fill="#CCE2FD" style="fill:#CCE2FD;fill:color(display-p3 0.8000 0.8863 0.9922);fill-opacity:1;"/>
<circle cx="7.5" cy="97.5" r="2.5" fill="#1F40B0" style="fill:#1F40B0;fill:color(display-p3 0.1216 0.2510 0.6902);fill-opacity:1;"/>
<rect x="15" y="95" width="21.875" height="5" rx="2.5" fill="#1F40B0" style="fill:#1F40B0;fill:color(display-p3 0.1216 0.2510 0.6902);fill-opacity:1;"/>
<rect x="63.75" y="95" width="5" height="5" rx="2.5" fill="black" style="fill:black;fill-opacity:1;"/>
<rect x="73.75" y="95" width="5" height="5" rx="2.5" fill="black" style="fill:black;fill-opacity:1;"/>
<rect x="83.75" y="95" width="5" height="5" rx="2.5" fill="black" style="fill:black;fill-opacity:1;"/>
<rect x="93.75" y="95" width="5" height="5" rx="2.5" fill="black" style="fill:black;fill-opacity:1;"/>
<rect x="103.75" y="95" width="5" height="5" rx="2.5" fill="#17A34A" style="fill:#17A34A;fill:color(display-p3 0.0902 0.6392 0.2902);fill-opacity:1;"/>
<rect x="113.75" y="95" width="5" height="5" rx="2.5" fill="black" style="fill:black;fill-opacity:1;"/>
<circle cx="125" cy="97.5" r="1.25" fill="#17A34A" style="fill:#17A34A;fill:color(display-p3 0.0902 0.6392 0.2902);fill-opacity:1;"/>
<circle cx="128.75" cy="97.5" r="1.25" fill="#17A34A" style="fill:#17A34A;fill:color(display-p3 0.0902 0.6392 0.2902);fill-opacity:1;"/>
<circle cx="132.5" cy="97.5" r="1.25" fill="#17A34A" style="fill:#17A34A;fill:color(display-p3 0.0902 0.6392 0.2902);fill-opacity:1;"/>
<circle cx="136.25" cy="97.5" r="1.25" fill="#9DA3AF" style="fill:#9DA3AF;fill:color(display-p3 0.6157 0.6392 0.6863);fill-opacity:1;"/>
<circle cx="140" cy="97.5" r="1.25" fill="#DC2627" style="fill:#DC2627;fill:color(display-p3 0.8627 0.1490 0.1529);fill-opacity:1;"/>
<circle cx="143.75" cy="97.5" r="1.25" fill="#17A34A" style="fill:#17A34A;fill:color(display-p3 0.0902 0.6392 0.2902);fill-opacity:1;"/>
<rect width="150" height="15" transform="translate(0 105)" fill="white" style="fill:white;fill-opacity:1;"/>
<circle cx="7.5" cy="112.5" r="2.5" fill="#40444C" style="fill:#40444C;fill:color(display-p3 0.2522 0.2660 0.2984);fill-opacity:1;"/>
<rect x="15" y="110" width="43.75" height="5" rx="2.5" fill="#40444C" style="fill:#40444C;fill:color(display-p3 0.2522 0.2660 0.2984);fill-opacity:1;"/>
<rect x="63.75" y="110" width="5" height="5" rx="2.5" fill="black" style="fill:black;fill-opacity:1;"/>
<rect x="73.75" y="110" width="5" height="5" rx="2.5" fill="black" style="fill:black;fill-opacity:1;"/>
<rect x="83.75" y="110" width="5" height="5" rx="2.5" fill="black" style="fill:black;fill-opacity:1;"/>
<rect x="93.75" y="110" width="5" height="5" rx="2.5" fill="black" style="fill:black;fill-opacity:1;"/>
<rect x="103.75" y="110" width="5" height="5" rx="2.5" fill="#17A34A" style="fill:#17A34A;fill:color(display-p3 0.0902 0.6392 0.2902);fill-opacity:1;"/>
<rect x="113.75" y="110" width="5" height="5" rx="2.5" fill="black" style="fill:black;fill-opacity:1;"/>
<circle cx="125" cy="112.5" r="1.25" fill="#17A34A" style="fill:#17A34A;fill:color(display-p3 0.0902 0.6392 0.2902);fill-opacity:1;"/>
<circle cx="128.75" cy="112.5" r="1.25" fill="#DC2627" style="fill:#DC2627;fill:color(display-p3 0.8627 0.1490 0.1529);fill-opacity:1;"/>
<circle cx="132.5" cy="112.5" r="1.25" fill="#9DA3AF" style="fill:#9DA3AF;fill:color(display-p3 0.6157 0.6392 0.6863);fill-opacity:1;"/>
<circle cx="136.25" cy="112.5" r="1.25" fill="#DC2627" style="fill:#DC2627;fill:color(display-p3 0.8627 0.1490 0.1529);fill-opacity:1;"/>
<circle cx="140" cy="112.5" r="1.25" fill="#DC2627" style="fill:#DC2627;fill:color(display-p3 0.8627 0.1490 0.1529);fill-opacity:1;"/>
<circle cx="143.75" cy="112.5" r="1.25" fill="#17A34A" style="fill:#17A34A;fill:color(display-p3 0.0902 0.6392 0.2902);fill-opacity:1;"/>
<rect width="150" height="15" transform="translate(0 135)" fill="white" style="fill:white;fill-opacity:1;"/>
<circle cx="7.5" cy="142.5" r="2.5" fill="#40444C" style="fill:#40444C;fill:color(display-p3 0.2522 0.2660 0.2984);fill-opacity:1;"/>
<rect x="15" y="140" width="37.5" height="5" rx="2.5" fill="#40444C" style="fill:#40444C;fill:color(display-p3 0.2522 0.2660 0.2984);fill-opacity:1;"/>
<rect x="63.75" y="140" width="5" height="5" rx="2.5" fill="black" style="fill:black;fill-opacity:1;"/>
<rect x="73.75" y="140" width="5" height="5" rx="2.5" fill="black" style="fill:black;fill-opacity:1;"/>
<rect x="83.75" y="140" width="5" height="5" rx="2.5" fill="black" style="fill:black;fill-opacity:1;"/>
<rect x="93.75" y="140" width="5" height="5" rx="2.5" fill="black" style="fill:black;fill-opacity:1;"/>
<rect x="103.75" y="140" width="5" height="5" rx="2.5" fill="#17A34A" style="fill:#17A34A;fill:color(display-p3 0.0902 0.6392 0.2902);fill-opacity:1;"/>
<rect x="113.75" y="140" width="5" height="5" rx="2.5" fill="black" style="fill:black;fill-opacity:1;"/>
<circle cx="125" cy="142.5" r="1.25" fill="#17A34A" style="fill:#17A34A;fill:color(display-p3 0.0902 0.6392 0.2902);fill-opacity:1;"/>
<circle cx="128.75" cy="142.5" r="1.25" fill="#17A34A" style="fill:#17A34A;fill:color(display-p3 0.0902 0.6392 0.2902);fill-opacity:1;"/>
<circle cx="132.5" cy="142.5" r="1.25" fill="#17A34A" style="fill:#17A34A;fill:color(display-p3 0.0902 0.6392 0.2902);fill-opacity:1;"/>
<circle cx="136.25" cy="142.5" r="1.25" fill="#DC2627" style="fill:#DC2627;fill:color(display-p3 0.8627 0.1490 0.1529);fill-opacity:1;"/>
<circle cx="140" cy="142.5" r="1.25" fill="#9DA3AF" style="fill:#9DA3AF;fill:color(display-p3 0.6157 0.6392 0.6863);fill-opacity:1;"/>
<circle cx="143.75" cy="142.5" r="1.25" fill="#DC2627" style="fill:#DC2627;fill:color(display-p3 0.8627 0.1490 0.1529);fill-opacity:1;"/>
<rect width="150" height="15" transform="translate(0 120)" fill="#F3F4F6" style="fill:#F3F4F6;fill:color(display-p3 0.9529 0.9569 0.9647);fill-opacity:1;"/>
<circle cx="7.5" cy="127.5" r="2.5" fill="#40444C" style="fill:#40444C;fill:color(display-p3 0.2522 0.2660 0.2984);fill-opacity:1;"/>
<rect x="15" y="125" width="34.375" height="5" rx="2.5" fill="#40444C" style="fill:#40444C;fill:color(display-p3 0.2522 0.2660 0.2984);fill-opacity:1;"/>
<rect x="63.75" y="125" width="5" height="5" rx="2.5" fill="black" style="fill:black;fill-opacity:1;"/>
<rect x="73.75" y="125" width="5" height="5" rx="2.5" fill="black" style="fill:black;fill-opacity:1;"/>
<rect x="83.75" y="125" width="5" height="5" rx="2.5" fill="black" style="fill:black;fill-opacity:1;"/>
<rect x="93.75" y="125" width="5" height="5" rx="2.5" fill="black" style="fill:black;fill-opacity:1;"/>
<rect x="103.75" y="125" width="5" height="5" rx="2.5" fill="#17A34A" style="fill:#17A34A;fill:color(display-p3 0.0902 0.6392 0.2902);fill-opacity:1;"/>
<rect x="113.75" y="125" width="5" height="5" rx="2.5" fill="black" style="fill:black;fill-opacity:1;"/>
<circle cx="125" cy="127.5" r="1.25" fill="#17A34A" style="fill:#17A34A;fill:color(display-p3 0.0902 0.6392 0.2902);fill-opacity:1;"/>
<circle cx="128.75" cy="127.5" r="1.25" fill="#9DA3AF" style="fill:#9DA3AF;fill:color(display-p3 0.6157 0.6392 0.6863);fill-opacity:1;"/>
<circle cx="132.5" cy="127.5" r="1.25" fill="#9DA3AF" style="fill:#9DA3AF;fill:color(display-p3 0.6157 0.6392 0.6863);fill-opacity:1;"/>
<circle cx="136.25" cy="127.5" r="1.25" fill="#DC2627" style="fill:#DC2627;fill:color(display-p3 0.8627 0.1490 0.1529);fill-opacity:1;"/>
<circle cx="140" cy="127.5" r="1.25" fill="#17A34A" style="fill:#17A34A;fill:color(display-p3 0.0902 0.6392 0.2902);fill-opacity:1;"/>
<circle cx="143.75" cy="127.5" r="1.25" fill="#9DA3AF" style="fill:#9DA3AF;fill:color(display-p3 0.6157 0.6392 0.6863);fill-opacity:1;"/>
<rect width="150" height="15" fill="#C0C5CD" style="fill:#C0C5CD;fill:color(display-p3 0.7529 0.7725 0.8039);fill-opacity:1;"/>
<rect x="5" y="5" width="18.75" height="5" rx="2.5" fill="#6C7280" style="fill:#6C7280;fill:color(display-p3 0.4235 0.4471 0.5020);fill-opacity:1;"/>
<rect x="63.75" y="5" width="5" height="5" rx="2.5" fill="#6C7280" style="fill:#6C7280;fill:color(display-p3 0.4235 0.4471 0.5020);fill-opacity:1;"/>
<rect x="73.75" y="5" width="5" height="5" rx="2.5" fill="#6C7280" style="fill:#6C7280;fill:color(display-p3 0.4235 0.4471 0.5020);fill-opacity:1;"/>
<rect x="83.75" y="5" width="5" height="5" rx="2.5" fill="#6C7280" style="fill:#6C7280;fill:color(display-p3 0.4235 0.4471 0.5020);fill-opacity:1;"/>
<rect x="93.75" y="5" width="5" height="5" rx="2.5" fill="#6C7280" style="fill:#6C7280;fill:color(display-p3 0.4235 0.4471 0.5020);fill-opacity:1;"/>
<rect x="103.75" y="5" width="5" height="5" rx="2.5" fill="#6C7280" style="fill:#6C7280;fill:color(display-p3 0.4235 0.4471 0.5020);fill-opacity:1;"/>
<rect x="113.75" y="5" width="5" height="5" rx="2.5" fill="#6C7280" style="fill:#6C7280;fill:color(display-p3 0.4235 0.4471 0.5020);fill-opacity:1;"/>
<rect x="129.828" y="5.36328" width="10" height="5" rx="2.5" fill="#6C7280" style="fill:#6C7280;fill:color(display-p3 0.4235 0.4471 0.5020);fill-opacity:1;"/>
</g>
<defs>
<clipPath id="clip0_5_1995">
<rect width="150" height="150" rx="7.03125" fill="white" style="fill:white;fill-opacity:1;"/>
</clipPath>
</defs>
</svg>
