<svg xmlns="http://www.w3.org/2000/svg" width="719.571" height="1020.693" viewBox="0 0 719.571 1020.693"><clipPath id="a"><path d="M0 1080h1080V0H0z"/></clipPath><g clip-path="url(#a)" transform="matrix(1.33333 0 0 -1.33333 -365.486 1229.385)"><path fill="#fff" d="m333.993 887.234 5.169-9.337 20.675-37.347-30.511-25.868-6.857-5.813 8.713-2.213 65.484-16.633a171.7 171.7 0 0 1-16.813-38.41c-4.77-15.98-7.188-32.617-7.188-49.449 0-15.485 2.049-30.814 6.092-45.613l-35.634-30.659-2.936-2.525-1.483-5.94c-2.72-10.777-9.547-37.837-11.59-45.8-.892-3.48-.715-6.79.527-9.838.604-1.48 1.467-2.907 2.566-4.24 1.012-1.23 2.258-2.418 3.702-3.533 4.946-3.819 12.63-7.145 24.185-10.467 5.698-1.637 36.86-9.757 92.689-24.15a174 174 0 0 1-18.787-14.232 174 174 0 0 1-23.665-25.156 173 173 0 0 1-18.283-29.514 172 172 0 0 1-11.784-31.815l-39.362-38.529-2.8-2.733-1.378-5.788c-1.89-8.147-6.048-26.235-9.816-43.779-1.35-6.285-1.512-11.539-.496-16.062.504-2.239 1.31-4.315 2.4-6.17a20.4 20.4 0 0 1 3.9-4.776c1.402-1.27 2.983-2.383 4.836-3.402 1.574-.867 3.314-1.646 5.318-2.385 3.552-1.308 7.444-2.29 11.208-3.243l.466-.118c2.946-.745 19-4.83 49.06-12.484a173.6 173.6 0 0 1 26.08-30.66 173.2 173.2 0 0 1 34.09-24.75 171.7 171.7 0 0 1 39.686-15.899c14.236-3.727 28.984-5.616 43.836-5.616 14.558 0 29.024 1.816 42.996 5.398a171.7 171.7 0 0 1 37.432 14.444l108.16-27.553 10.645-2.712-5.486 9.517-21.012 36.45 37.813 29.672 7.433 5.833-9.163 2.307-58.304 14.673a171.8 171.8 0 0 1 15.488 37.062c4.398 15.388 6.629 31.382 6.629 47.536 0 17.78-2.687 35.275-7.99 52.061l27.404 20.664 1.347.964.412 1.293 14.254 44.065.03.092.026.094c.975 3.51 1.906 7.258 2.115 10.882.249 4.313-.541 7.984-2.413 11.221-.901 1.558-2.07 3.022-3.47 4.353-1.387 1.317-3.054 2.55-4.953 3.661-3.78 2.213-8.578 4.05-14.671 5.612-6.363 1.633-38.742 9.7-96.304 23.992a173 173 0 0 1 24.974 18.127 173.7 173.7 0 0 1 28.45 31.746 172.3 172.3 0 0 1 19.957 38.106 171.9 171.9 0 0 1 9.759 40.97l28.542 22.211.279 1.013c.416 1.486 10.227 36.548 13.12 48.848.85 3.608.919 7.16.207 10.557-.652 3.111-1.946 6.043-3.846 8.714-1.701 2.393-3.841 4.513-6.358 6.301a28.8 28.8 0 0 1-7.573 3.852c-1.208.402-7.97 2.247-52.19 13.484a173.6 173.6 0 0 1-26.078 30.686 173.3 173.3 0 0 1-34.101 24.773 171.7 171.7 0 0 1-39.703 15.914c-14.242 3.73-28.998 5.622-43.857 5.622-14.707 0-29.317-1.854-43.424-5.51a171.7 171.7 0 0 1-37.76-14.736c-66.258 16.663-119.232 29.956-119.764 30.09z"/><path fill="#fff" d="m347.593 572.194.001-.001m-1.072-254.832c.56-.306 1.3-.63 2.203-.962 2.426-.893 5.58-1.691 8.92-2.535l.471-.12c2.944-.743 19.004-4.83 49.096-12.492l8.46-2.154 4.844-7.261a151 151 0 0 1 22.661-26.641 150.5 150.5 0 0 1 29.612-21.5 149 149 0 0 1 34.426-13.792c12.356-3.234 25.167-4.874 38.076-4.874 12.655 0 25.221 1.576 37.35 4.686a149 149 0 0 1 32.47 12.53l7.74 4.082 75.05-19.118-9.422 16.344 24.274 19.048-51.376 12.93 14.613 25.946a149.2 149.2 0 0 1 13.437 32.152c3.818 13.355 5.754 27.245 5.754 41.285 0 15.438-2.333 30.648-6.934 45.209l-4.844 15.33 35.867 27.045 12.324 38.096c.284 1.03.773 2.853 1.042 4.354-1.44.756-3.963 1.795-8.274 2.9-6.296 1.616-38.639 9.674-96.132 23.949l-53.544 13.294 47.358 28.299a151 151 0 0 1 21.695 15.747 151 151 0 0 1 24.722 27.585 149.5 149.5 0 0 1 17.321 33.072 149.2 149.2 0 0 1 8.466 35.545l1.064 9.533 30.185 23.49c3.733 13.442 9.245 33.607 11.157 41.735.096.407.094.636.085.685 0 0-.027.067-.12.199-.22.309-.564.634-.994.939-.46.327-.947.585-1.45.768-1.85.538-11.093 2.992-50.745 13.069l-8.472 2.153-4.849 7.273a151 151 0 0 1-22.66 26.663 150.5 150.5 0 0 1-29.62 21.519 149 149 0 0 1-34.442 13.806c-12.363 3.238-25.179 4.879-38.096 4.879-12.783 0-25.474-1.608-37.718-4.781a149 149 0 0 1-32.756-12.784l-7.744-4.134-8.512 2.14c-30.515 7.674-58.233 14.639-79.304 19.93l9.503-17.164-17.937-15.207 60.9-15.468-15.492-26.15a149 149 0 0 1-14.586-33.324c-4.14-13.868-6.239-28.316-6.239-42.945 0-13.447 1.78-26.777 5.288-39.62l3.787-13.86-43.986-37.845a29387 29387 0 0 0-10.194-40.321c2.4-1.22 6.662-2.98 14.076-5.112 3.776-1.085 22.817-6.128 92.083-23.987l49.801-12.84-43.01-28.2a151 151 0 0 1-16.323-12.363 151 151 0 0 1-20.565-21.861 150.3 150.3 0 0 1-15.875-25.627 149 149 0 0 1-10.222-27.597l-1.594-6.095-41.965-41.076c-2.107-9.091-5.997-26.07-9.565-42.682-.665-3.097-.685-4.867-.62-5.717M791.15 156.519l-62.884 16.02-99.979 25.469a194.4 194.4 0 0 0-34.35-12.35c-15.816-4.055-32.183-6.112-48.645-6.112-16.794 0-33.48 2.139-49.594 6.358a194.5 194.5 0 0 0-44.945 18.005 196 196 0 0 0-38.57 28 196.6 196.6 0 0 0-24.355 27.344c-24.824 6.32-38.219 9.729-40.864 10.398l-.465.117c-4.132 1.045-8.817 2.229-13.492 3.95-3.086 1.137-5.84 2.38-8.423 3.8-3.423 1.884-6.416 4.005-9.148 6.482a43.1 43.1 0 0 0-8.235 10.107c-2.283 3.89-3.957 8.162-4.977 12.699-1.753 7.804-1.606 16.25.45 25.823 3.735 17.387 7.804 35.12 9.898 44.143l.03.13 2.904 12.19 7.507 7.33 34.993 34.254a195 195 0 0 0 11.602 29.79 195.8 195.8 0 0 0 32.99 47.892c-29.808 7.72-46.527 12.11-50.785 13.335-14.602 4.198-24.409 8.615-31.802 14.322-2.789 2.154-5.264 4.534-7.356 7.074-2.56 3.107-4.604 6.512-6.073 10.118-3.079 7.554-3.596 15.878-1.495 24.07 2.016 7.866 8.742 34.513 11.554 45.663l3.234 12.955 8.423 7.242 25.2 21.68a196.5 196.5 0 0 0-3.574 37.347c0 19.037 2.738 37.862 8.14 55.954a194 194 0 0 0 5.85 16.76l-89.799 22.809 56.798 48.156-42.18 76.196 61.146-15.344c2.12-.532 50.264-12.614 111.564-28.028a194.5 194.5 0 0 0 34.721 12.63c15.968 4.139 32.498 6.238 49.128 6.238 16.803 0 33.497-2.142 49.62-6.364a194.5 194.5 0 0 0 44.964-18.023 196 196 0 0 0 38.581-28.025 196.6 196.6 0 0 0 24.351-27.362c42.246-10.752 44.097-11.37 45.604-11.872a51.5 51.5 0 0 0 13.55-6.885c4.6-3.266 8.544-7.191 11.725-11.664 3.724-5.238 6.271-11.035 7.57-17.228 1.4-6.681 1.29-13.555-.327-20.43-2.984-12.681-12.744-47.575-13.345-49.72l-2.267-8.243-27.205-21.171a194.6 194.6 0 0 0-9.714-36.646 195 195 0 0 0-22.59-43.14 196.4 196.4 0 0 0-21.628-26c29.731-7.393 46.998-11.705 51.486-12.857 8.171-2.096 14.881-4.718 20.511-8.015 3.401-1.992 6.47-4.278 9.12-6.793 2.982-2.833 5.504-6.015 7.497-9.46 4.108-7.104 5.935-15.15 5.431-23.913-.333-5.777-1.657-11.16-2.907-15.662l-.155-.555-14.807-45.794-2.29-7.202-7.262-5.198-14.926-11.254a196 196 0 0 0 4.786-43.144c0-18.27-2.525-36.365-7.505-53.786a194 194 0 0 0-5.136-15.47l85.77-21.585-66.219-51.963z"/><path fill="#fff" d="M716.76 702.123C716.76 608.167 640.594 532 546.64 532c-93.957 0-170.124 76.166-170.124 170.122 0 93.954 76.167 170.122 170.124 170.122 93.955 0 170.12-76.168 170.12-170.122"/><path fill="#fff" d="M714.025 374.957c0-93.915-75.552-170.044-168.752-170.044s-168.757 76.129-168.757 170.044c0 93.91 75.556 170.042 168.757 170.042 93.2 0 168.752-76.132 168.752-170.042"/><g fill="#1e3d8e"><path d="M387.69 658.12s8.4-24.585 11.202-29.563c2.802-4.98 17.791-26.096 17.791-26.096l-72.373 18.337zM707.376 715.958l33.855-8.582-34.29-26.324zM682.06 465.452l52.65-13.987-35.656-26.889-8.819 21.514zM340.276 375.01l39.851-10.003-.4 21.783 3.032 29.802zM474.496 552.87l-4.428 29.029c-.775 1.622-4.552 9.473-6.699 12.909-1.527 2.444-5.993 7.246-9.254 10.752-1.843 1.983-3.299 3.548-4.029 4.46-.472.589-1.578 1.97-4.769 13.754-1.69 6.242-3.177 12.484-3.633 14.53-.656 2.948.166 10.01 1.397 19.664.534 4.186 1.04 8.14 1.04 9.684 0 1.85-1.733 4.788-3.125 7.148-1.527 2.59-2.846 4.827-2.846 6.783 0 2.355 2.172 4.406 4.922 7.002 1.213 1.144 2.467 2.328 3.371 3.424 1.102 1.336 1.158 1.912 1.158 2.014 0 .78-.94 2.41-3.59 4.429-2.359 1.797-5.464 3.435-8.305 4.382-4.768 1.59-9.499 6.517-13.673 10.863-1.622 1.689-3.154 3.284-4.534 4.526-2.486 2.236-5.477 3.915-8.425 4.728-3.503.967-6.89.752-10.067-.64-8.74-3.823-15.419-1.125-15.699-1.01l1.731 4.155-.015.006c.013-.005 1.337-.526 3.494-.662 2.872-.18 5.794.369 8.685 1.635a19 19 0 0 0 6.718 1.585c2.09.1 4.227-.145 6.35-.731 4.623-1.275 8.12-3.815 10.237-5.721 1.503-1.352 3.09-3.005 4.77-4.754 3.814-3.971 8.137-8.472 11.851-9.711 3.285-1.095 6.877-2.991 9.608-5.071 1.537-1.172 2.767-2.366 3.655-3.55 1.134-1.512 1.71-3.013 1.71-4.46 0-3.103-3.02-5.953-5.94-8.71-.95-.895-1.847-1.742-2.533-2.501-.699-.774-.91-1.167-.972-1.308.025-.16.126-.574.536-1.417.43-.88 1.036-1.91 1.68-3 1.756-2.98 3.746-6.356 3.746-9.434 0-1.83-.474-5.547-1.074-10.254-.798-6.255-2.004-15.708-1.468-18.117.441-1.981 1.887-8.053 3.541-14.173 2.772-10.261 3.802-12.027 3.986-12.283.63-.784 2.102-2.367 3.806-4.201 3.573-3.841 8.02-8.623 9.775-11.431 2.527-4.044 6.905-13.272 7.09-13.663l.141-.298 4.528-29.682zM482.859 761.313q-.486 0-1.004.032c-5.043.314-12.353 3.05-15.367 6.927-1.075 1.38-2.177 3.495-3.453 5.942-3.017 5.787-7.15 13.714-12.557 14.615-3.552.592-6.522-.23-9.08-2.51-2.385-2.124-4.346-5.46-5.831-9.914-.798-2.395-1.88-4.426-3.217-6.036-1.265-1.524-2.765-2.685-4.457-3.45-3.599-1.628-7.172-1.125-9.535-.416-4.373 1.31-7.561 1.365-11.883-2.09-2.545-2.038-5.783-2.8-9.361-2.204-2.534.422-4.353 1.375-4.553 1.482l2.134 3.962-.009.005c.014-.008 1.418-.74 3.288-1.03 2.262-.35 4.176.086 5.69 1.298 2.698 2.157 5.335 3.389 8.064 3.768 2.354.327 4.797.055 7.922-.881 7.366-2.21 10.46 3.446 11.648 7.014 1.736 5.21 4.127 9.198 7.106 11.853 1.724 1.536 3.651 2.626 5.728 3.238 2.199.649 4.583.766 7.086.349 7.62-1.27 12.352-10.346 15.807-16.973 1.126-2.16 2.189-4.2 3.014-5.26.901-1.158 2.763-2.4 5.108-3.406 2.35-1.008 4.898-1.662 6.988-1.792 1.873-.116 2.747.23 2.947.432 2.302 2.302 4.946 5.252 5.951 6.385.528 3.075 2.921 16.847 5.813 31.035 1.923 9.43 3.687 17.205 5.246 23.106 2.709 10.26 4.263 12.892 5.313 14.038 3.408 3.719 6.865 6.336 10.274 7.778 4.545 1.923 9.016 1.816 13.289-.32 3.354-1.676 4.601-2.804 5.591-3.814.14-.143.298-.304.354-.34.004-.002.098-.058.455-.13.733-.146 2.638.147 4.029.36 2.819.435 5.254.81 6.986-.056.556-.278 1.211-.706 2.04-1.248.994-.65 2.231-1.457 3.364-2.02 1.093-.543 1.669-.647 1.903-.663.278.397.546.943.85 1.564 1.31 2.672 3.289 6.71 10.845 8.044 3.816.673 7.939.856 11.577 1.017 2.093.093 4.071.18 5.616.352 1.851.205 2.424.468 2.549.537 1.267 1.307 3.432 5.176 4.511 7.334l4.024-2.013c-.322-.644-3.212-6.36-5.396-8.546-1.666-1.667-4.954-1.887-11.105-2.16-3.5-.154-7.467-.33-10.994-.952-5.304-.937-6.412-3.2-7.586-5.594-.425-.866-.864-1.762-1.496-2.552-.786-.983-1.959-1.528-3.304-1.534h-.024c-.882 0-1.847.22-2.949.67-1.711.7-3.449 1.837-4.846 2.749-.635.415-1.235.807-1.565.977-.074.022-.431.103-1.428.026-.858-.066-1.89-.225-2.888-.378-2.099-.323-4.082-.63-5.595-.326-1.666.333-2.353.928-3.142 1.733-.568.58-1.428 1.459-4.388 2.939-3.084 1.54-6.2 1.606-9.524.2-2.81-1.19-5.741-3.434-8.709-6.674-.354-.386-1.707-2.401-4.281-12.147-1.536-5.82-3.281-13.51-5.187-22.856-3.251-15.95-5.868-31.367-5.894-31.521l-.106-.628-.419-.478c-.145-.165-3.568-4.072-6.572-7.076-1.178-1.178-2.994-1.773-5.405-1.773M638.052 797.264c-.293.439-7.194 10.853-9.75 20.05-.757 2.726-2.631 5.75-5.57 8.994-2.627 2.899-5.606 5.452-8.001 7.504-1.323 1.134-2.465 2.113-3.268 2.915-1.75 1.75-3.146 4.904-4.15 9.37a53 53 0 0 0-.975 5.94l4.479.426v-.001c.006-.06.253-2.567.899-5.426 1.063-4.716 2.292-6.49 2.929-7.127.68-.68 1.762-1.607 3.014-2.68 5.112-4.38 12.836-11 14.979-18.71 2.365-8.512 9.09-18.658 9.158-18.76zM502.284 734.11a33 33 0 0 1-2.899-2.634c-2.522-2.608-2.765-4.006-2.646-4.324.421-1.12 1.694-2.085 3.322-2.515 1.595-.422 3.235-.233 4.08.47.211.177.662 1.417.24 3.852-.243 1.403-.726 2.853-1.325 3.976a6.6 6.6 0 0 1-.772 1.174m-.523-14.203c-.926 0-1.886.125-2.85.381-3.06.808-5.446 2.785-6.385 5.286-.579 1.546-.355 3.285.665 5.172.656 1.214 1.665 2.527 3.001 3.903a39 39 0 0 0 4.59 3.988l.735.532.9-.128c3.734-.533 5.504-5.789 5.957-7.387.52-1.83.75-3.639.663-5.229-.114-2.119-.812-3.77-2.016-4.774-1.375-1.145-3.234-1.744-5.26-1.744"/><path d="M521.804 739.008c-.171-1.842-1.262-4.534-2.783-8.135-.656-1.552-1.275-3.017-1.52-3.837-.235-.801-.516-2.51-.813-4.32-.592-3.607-1.33-8.098-2.544-10.932-.83-1.932-2.621-3.702-4.355-5.414-1.215-1.2-2.471-2.44-3.145-3.512-.37-.588-.453-.928-.441-1.14.3.154.805.47 1.572 1.12 1.07.906 2.255 2.11 3.509 3.387 3.283 3.34 6.384 6.494 9.514 6.67 2.383.136 5.347-.921 7.729-1.77.945-.337 2.11-.753 2.577-.827.187 0 .846.017 1.488.275.776.313 1.168.817 1.31 1.688.482 2.96-1.027 5.583-2.025 7.318q-.175.3-.318.558c-.157.282-3.81 6.92-3.938 11.905-.105 4.149.75 12.969 1.074 15.712.095.807.188 1.566.279 2.299.256 2.076.477 3.868.477 4.747 0 .366-.09.736-.182.955l-.01-.002c-1.108-.385-3.253-1.367-5.207-2.501-3.201-1.86-3.706-2.815-3.711-2.825-.56-1.118-.626-3.358.328-5.475 1.018-2.261 1.148-5.051 1.159-5.362v-.083q0-.232-.024-.5m-15.928-41.93q-.228 0-.462.028c-1.21.139-2.26.844-2.955 1.986-1.423 2.333-.582 4.638.375 6.16.95 1.515 2.396 2.942 3.794 4.32 1.425 1.409 2.899 2.864 3.38 3.986.999 2.33 1.716 6.699 2.24 9.889.348 2.12.623 3.795.94 4.867.315 1.063.95 2.568 1.688 4.312.927 2.194 2.329 5.51 2.448 6.8v.009l.005.049c-.034.662-.225 2.427-.763 3.62-1.075 2.387-1.785 6.264-.25 9.337.267.532 1.075 2.148 5.477 4.703 2.316 1.344 4.68 2.406 5.995 2.86 1.478.513 2.912.354 4.038-.448 1.566-1.115 2.124-3.187 2.124-4.755 0-1.155-.225-2.983-.51-5.297-.09-.728-.183-1.481-.277-2.276-.396-3.363-1.134-11.5-1.044-15.07.074-2.87 2.108-7.555 3.373-9.834q.127-.228.285-.5c1.155-2.008 3.306-5.745 2.566-10.285-.407-2.504-1.933-4.36-4.296-5.225a8.7 8.7 0 0 0-3.262-.506l-.09.008c-.954.1-2.157.529-3.68 1.072-1.894.675-4.488 1.6-5.962 1.517-.182-.011-.9-.147-2.508-1.464-1.28-1.048-2.69-2.482-4.052-3.87-1.454-1.478-2.827-2.875-4.16-3.956-1.188-.964-2.743-2.036-4.457-2.036M568.533 739.48q-1.289 0-2.424.323c-3.319.948-6.206 4.354-8.58 10.122-1.639 3.98-2.456 7.68-2.49 7.834l4.395.962c.008-.034.781-3.519 2.278-7.138 1.741-4.212 3.794-6.928 5.633-7.454 1.936-.552 5.1.397 8.908 2.673a45.4 45.4 0 0 1 5.725 4.096l2.952-3.397c-.113-.098-2.79-2.414-6.309-4.526-3.878-2.326-7.258-3.496-10.088-3.496M496.403 623.163v-.002zm18.242-47.852c-.423 1.269-1.71 4.9-2.574 6.447l-.477.854c-1.738 3.116-7.028 12.596-7.873 13.915-1.344 2.1-5.147 11.25-5.308 11.638-1.253 3.018-3.278 6.212-3.298 6.244l-.305.48-.18 2.49c-.707 1.002-2.04 2.986-2.496 4.36-.6 1.794.409 4.124 1.063 5.353.504.946 1.894 3.257 3.908 4.264.556.278 1.526.699 2.867 1.282 3.696 1.607 11.386 4.949 13.695 7.082.349.322 1.07 1.773 1.566 5.17.375 2.572.457 5.064.457 5.807 0 1.735-.18 6.404-.342 7.78-.135.51-.995 2.443-2.542 5.278-1.438 2.636-2.852 4.917-3.604 5.809-1.567 1.863-1.68 3.479-1.5 4.507.222 1.268.943 2.007 1.158 2.204l.28.255.35.15c.227.097 5.692 2.4 16.727 3.78 3.142.394 6.215 2.095 9.395 5.2 2.897 2.83 5.345 6.287 7.505 9.336 1.44 2.032 2.683 3.787 3.866 5.088 2.22 2.443 5.086 7.158 7.614 11.317 2.562 4.215 4.774 7.855 6.474 9.554 1.973 1.973 5.258 1.835 9.418 1.659 5.33-.224 11.965-.503 18.138 3.2 8.476 5.086 18.61 20.399 18.713 20.553l3.759-2.473c-.437-.665-10.81-16.33-20.157-21.94-7.33-4.396-15.024-4.072-20.643-3.835-1.768.074-3.295.139-4.472.04-1.262-.106-1.547-.358-1.575-.386-1.317-1.317-3.601-5.075-5.81-8.71-2.761-4.543-5.617-9.243-8.13-12.006-1-1.1-2.17-2.75-3.523-4.662-4.558-6.435-10.8-15.247-20.014-16.4-7.671-.958-12.482-2.387-14.47-3.067.076-.126.184-.281.34-.467 1.467-1.742 3.62-5.644 4.246-6.798 1.806-3.337 2.787-5.548 2.915-6.573.202-1.607.384-6.68.384-8.393 0-1.037-.105-3.721-.504-6.456-.585-4.012-1.528-6.5-2.967-7.827-2.647-2.445-8.838-5.245-14.953-7.902-1.181-.513-2.2-.957-2.648-1.18-.416-.208-1.13-.925-1.784-2.057-.618-1.07-.851-1.924-.882-2.244.336-.834 1.476-2.554 2.187-3.516l.388-.525.19-2.66c.662-1.083 2.245-3.774 3.352-6.44 1.866-4.496 4.225-9.817 4.942-10.936.813-1.271 4.709-8.23 8.013-14.15l.475-.852c1.227-2.195 2.746-6.711 2.915-7.22zM651.825 628.282l.012-.039zm-122.627-55.456-4.497.15c.003.076.068 1.903.521 4.203.634 3.214 1.692 5.75 3.146 7.538 2.01 2.472 5.665 5.194 8.603 7.38 1.584 1.18 3.081 2.294 3.74 2.946.52.63 1.763 3.684 2.764 6.141 2.532 6.214 5.683 13.948 9.436 16.885 2.224 1.741 5.68 4.084 9.517 5.363 4.123 1.374 7.755 1.236 10.796-.41 3.594-1.947 7.29-5.795 9.171-7.915 2.828-3.184 5.15-6.453 6.058-8.53.733-1.678 1.78-4.513 2.521-7.443 1.32-5.224.68-6.985.47-7.564-.224-.615-.52-1.336-.836-2.1-.364-.884-1.012-2.454-1.344-3.54.688.045 1.751.278 3.143.938 2.483 1.177 4.91 3.173 6.66 5.476 1.564 2.058 2.435 3.743 2.742 5.305.268 1.364.104 2.595-.103 4.153q-.073.538-.143 1.116c-.01.044-.142.534-1.31 1.677-.952.932-2.213 1.938-3.547 3.004-1.642 1.312-3.339 2.668-4.674 4.061-2.412 2.517-2.69 4.238-2.69 5.314 0 .317-.005.638-.008.95-.014 1.23-.026 2.39.157 3.494.26 1.567.882 2.732 1.903 3.56 1.712 1.39 4.223 1.62 8.142.748 8.008-1.779 16.967-5.963 19.562-9.134.897-1.096 1.94-2.792 3.042-4.586.796-1.295 1.62-2.634 2.373-3.72 1.032-1.485 1.471-1.818 1.55-1.869.475-.318 2.344-1.105 6.042-2.277 2.075-.658 3.883-1.17 4.93-1.443.886.99 2.627 3.097 5.011 6.206 3.316 4.322 4.903 6.697 5.125 7.178.913 2.06 4.18 11.083 4.545 12.826-.026.661.212 1.34.55 2.204.274.704.67 1.63 1.207 2.83.957 2.135 2.146 4.646 3.1 6.663.527 1.113.981 2.073 1.228 2.616.581 1.28 2.758 4.214 6.47 8.721a238 238 0 0 0 3.86 4.571c1.938 2.227 2.198 2.4 2.45 2.567.663.442 2.736 1.355 5.267 2.003 2.392.612 5.964 1.17 9.388.347 5.791-1.39 14.712-5.392 15.09-5.562l-1.848-4.103c-.088.04-8.914 4-14.292 5.29-4.505 1.081-9.94-1.122-11.03-1.68-.64-.652-3.03-3.39-5.673-6.61-3.929-4.789-5.36-6.908-5.585-7.406-.262-.575-.7-1.503-1.257-2.678-1.203-2.542-3.953-8.352-4.409-9.809-.004-.609-.209-1.388-.632-2.742a127 127 0 0 0-1.457-4.312c-1.087-3.065-2.37-6.457-2.86-7.562-.73-1.649-4.872-7.065-6.124-8.685a155 155 0 0 0-3.778-4.723c-1.809-2.152-2.494-2.847-3.683-2.847-.266 0-.568 0-2.609.56-1.2.33-2.62.75-3.998 1.182-3.92 1.23-6.452 2.216-7.524 2.93-1.534 1.022-3.01 3.318-5.26 6.978-.977 1.588-1.986 3.231-2.69 4.092-.594.724-2.542 2.16-6.083 3.825-3.456 1.624-7.353 2.962-10.974 3.767-3.445.766-4.25.215-4.33.15-.432-.35-.41-2.177-.397-3.51q.007-.487.008-1c0-.116.07-.77 1.44-2.2 1.128-1.178 2.707-2.439 4.234-3.659 3.325-2.656 6.196-4.95 6.516-7.664.042-.355.09-.71.135-1.055.231-1.732.47-3.524.06-5.615-.446-2.26-1.58-4.535-3.576-7.16-2.197-2.89-5.263-5.393-8.41-6.864-1.54-.72-3.002-1.155-4.34-1.29-1.659-.17-3.095.147-4.152.915-1.829 1.328-1.082 3.856-.8 4.807.371 1.257.971 2.712 1.5 3.995.296.72.576 1.397.766 1.922.004.012.367 1.086-.603 4.926-.555 2.195-1.45 4.841-2.28 6.741-.592 1.352-2.46 4.148-5.3 7.347-2.87 3.231-5.767 5.762-7.95 6.944-1.902 1.031-4.335 1.064-7.23.1-3.227-1.076-6.222-3.116-8.166-4.638-2.81-2.2-5.959-9.927-8.042-15.04-1.799-4.415-2.709-6.583-3.735-7.608-.88-.883-2.368-1.989-4.25-3.39-2.737-2.037-6.144-4.573-7.798-6.609-2.02-2.484-2.606-7.377-2.662-9.053M632.518 702.576a6.5 6.5 0 0 1-.767-1.772c-.36-1.406-.114-2.661.752-3.837.5-.677 1.632-.641 2.494-.492 1.598.278 3.554 1.19 5.232 2.44 1.862 1.389 2.77 2.7 3 3.466.21.7.097 1.902-1.64 3.639a14 14 0 0 1-1.64 1.389zm1.537-10.688c-2.207 0-4.008.828-5.173 2.408-1.721 2.335-2.216 5.049-1.43 7.848.558 1.986 1.586 3.324 1.7 3.47l.23.29 10.496 6.825 1.19-.674c.08-.046 1.98-1.131 3.703-2.853 3.307-3.308 3.33-6.238 2.768-8.114-.786-2.618-3.232-4.745-4.621-5.78-2.25-1.677-4.857-2.868-7.151-3.266a10 10 0 0 0-1.712-.154M623.993 578.333h-.004zm-.07-.015zm-39.993-22.46-2.856 3.478c6.361 5.223 13.42 11.275 14.413 12.52.875 1.694 2.032 2.767 3.44 3.188 2.211.662 4.182-.48 5.621-1.314.31-.18.603-.349.85-.472.876-.439 1.196-.515 1.483-.505.567.022 1.57.41 2.57.826 1.803.752 4.19 3.174 5.77 4.777.738.75 1.375 1.396 1.894 1.828 1.856 1.544 4.387 2.17 5.603 2.47l.185.045c.697.174 1.635.16 3.371.115.95-.024 2.686-.067 3.254.036.748.361 2.7 1.224 4.938 2.215 1.752.774 3.563 1.576 4.79 2.133 1.125.513 2.564.555 4.53.132 1.258-.27 2.758-.742 4.457-1.402a63 63 0 0 0 5.332-2.38l-2.055-4.004c-.022.011-2.209 1.13-4.718 2.117-4.27 1.68-5.588 1.457-5.71 1.43-1.247-.567-3.056-1.367-4.806-2.142-2.136-.945-4.345-1.922-4.878-2.188-.998-.498-2.365-.518-5.247-.445-.75.02-1.874.047-2.216.005l-.149-.037c-.89-.219-2.743-.676-3.802-1.558-.348-.29-.94-.89-1.568-1.528-1.943-1.97-4.604-4.672-7.246-5.772-1.69-.705-2.909-1.122-4.126-1.169-1.326-.05-2.387.335-3.668.975a21 21 0 0 0-1.094.605c-.56.325-1.728 1.001-2.076.897-.085-.026-.388-.257-.765-1.01-.282-.564-.668-1.333-8.3-7.827-3.615-3.076-7.186-6.01-7.22-6.039"/><path d="M545.314 861.992a161 161 0 0 1-32.212-3.247 159 159 0 0 1-29.993-9.31 160 160 0 0 1-27.145-14.734c-8.463-5.718-16.421-12.284-23.654-19.517s-13.8-15.192-19.518-23.655a160 160 0 0 1-14.734-27.145 159 159 0 0 1-9.31-29.993 161 161 0 0 1-3.247-32.212c0-10.845 1.092-21.683 3.247-32.212a159 159 0 0 1 9.31-29.992 160 160 0 0 1 14.734-27.145 161 161 0 0 1 19.518-23.655 161 161 0 0 1 23.654-19.516 160 160 0 0 1 27.145-14.734 159 159 0 0 1 29.993-9.31c10.529-2.155 21.366-3.247 32.212-3.247s21.684 1.092 32.212 3.246a159 159 0 0 1 29.994 9.311 160 160 0 0 1 27.144 14.734 161 161 0 0 1 23.655 19.516 161 161 0 0 1 19.517 23.655 159.8 159.8 0 0 1 14.734 27.145 159 159 0 0 1 9.31 29.992 161 161 0 0 1 3.247 32.212c0 10.846-1.092 21.684-3.247 32.212a159 159 0 0 1-9.31 29.993 159.8 159.8 0 0 1-14.734 27.145c-5.717 8.463-12.284 16.422-19.517 23.655s-15.191 13.8-23.655 19.517a159.8 159.8 0 0 1-27.145 14.734 159 159 0 0 1-29.993 9.31 161 161 0 0 1-32.212 3.247m0-327.806a169.3 169.3 0 0 0-33.852 3.413 167.2 167.2 0 0 0-31.54 9.791 168 168 0 0 0-28.537 15.49c-8.895 6.008-17.26 12.91-24.86 20.51s-14.502 15.965-20.512 24.86a168 168 0 0 0-15.49 28.538 167 167 0 0 0-9.79 31.54 169 169 0 0 0-3.413 33.851c0 11.396 1.148 22.785 3.413 33.852a167 167 0 0 0 9.79 31.54 168 168 0 0 0 15.49 28.538 169 169 0 0 0 20.512 24.86 169 169 0 0 0 24.86 20.511 168 168 0 0 0 28.537 15.49 167 167 0 0 0 31.54 9.79 169 169 0 0 0 33.852 3.413c11.396 0 22.785-1.148 33.853-3.413a167 167 0 0 0 31.54-9.79 168 168 0 0 0 28.537-15.49c8.895-6.009 17.259-12.91 24.86-20.51s14.502-15.966 20.51-24.86a168 168 0 0 0 15.49-28.539 167 167 0 0 0 9.791-31.54 169.3 169.3 0 0 0 3.414-33.852c0-11.395-1.15-22.785-3.413-33.852a167 167 0 0 0-9.791-31.539 168 168 0 0 0-15.49-28.538c-6.01-8.895-12.91-17.259-20.511-24.86s-15.965-14.502-24.86-20.51a168 168 0 0 0-28.538-15.49 167 167 0 0 0-31.54-9.79 169.3 169.3 0 0 0-33.853-3.414M599.924 427.829c-.065.08-6.72 8.312-18.475 19.026a239 239 0 0 1-21.602 17.51c-9.282 6.658-18.867 12.473-28.488 17.284-9.663 4.83-19.991 9.027-30.7 12.47a235 235 0 0 1-26.248 6.788c-15.007 2.964-24.86 3.346-24.958 3.349l.294 8.176c.425-.015 10.609-.41 26.249-3.498a243 243 0 0 0 27.17-7.026c11.102-3.571 21.818-7.925 31.85-12.942 10.043-5.021 20.035-11.085 29.699-18.024a248 248 0 0 0 22.385-18.168c12.178-11.117 18.923-19.474 19.204-19.824zM556.224 392.784c-.056.073-5.837 7.52-15.628 17.194-5.733 5.664-11.7 10.974-17.737 15.781-7.515 5.985-15.156 11.201-22.709 15.504-12.413 7.071-24.846 12.825-36.954 17.103-9.644 3.407-19.098 5.888-28.1 7.375-15.109 2.495-23.563 1.314-23.647 1.302l-1.182 8.096c.393.057 9.811 1.374 26.162-1.327 9.474-1.564 19.397-4.166 29.492-7.732 12.565-4.439 25.444-10.397 38.278-17.708 7.945-4.526 15.964-10 23.832-16.274 6.277-5.003 12.476-10.524 18.425-16.409 10.147-10.038 16.001-17.59 16.246-17.908zM565.881 209.934c-.322.363-8.004 9.035-17.654 22.459-5.668 7.884-10.829 15.768-15.34 23.43-5.663 9.62-10.316 18.929-13.83 27.665-3.104 7.71-5.773 17.298-7.935 28.497-1.713 8.876-3.118 18.797-4.176 29.487-1.465 14.813-1.848 26.795-1.943 31.032-3.262 3.345-13.839 13.778-28.483 24.114-10.307 7.275-20.584 13.08-30.546 17.254-12.292 5.15-24.118 7.809-35.15 7.903-7.476.06-23.149-1.265-23.307-1.278l-.695 8.15c.66.057 16.217 1.376 24.071 1.309 12.128-.103 25.026-2.99 38.336-8.577 10.528-4.42 21.346-10.537 32.154-18.18 5.286-3.737 13.438-9.893 22.252-17.994 5.298-4.87 8.308-8.115 8.433-8.25l1.07-1.157.017-1.576c.001-.14.174-14.195 1.94-32.02 1.034-10.428 2.402-20.087 4.068-28.707 2.061-10.668 4.58-19.736 7.483-26.953 3.356-8.343 7.818-17.264 13.26-26.514 4.376-7.44 9.39-15.101 14.902-22.775 9.413-13.103 17.112-21.798 17.188-21.884z"/><path d="M467.316 225.792c-.329.35-8.158 8.749-17.743 22.992-5.619 8.35-10.675 16.987-15.029 25.672-5.455 10.882-9.818 21.874-12.967 32.672-3.489 11.96-6.437 25.653-8.764 40.7-1.856 11.999-3.324 24.888-4.364 38.308-1.769 22.844-1.682 39.589-1.68 39.756l8.18-.054c0-.18-.084-16.643 1.663-39.153 1.025-13.202 2.47-25.871 4.293-37.655 2.272-14.677 5.14-28.004 8.526-39.611 3.001-10.292 7.166-20.787 12.376-31.196 4.183-8.356 9.046-16.674 14.453-24.722 9.233-13.742 16.95-22.033 17.026-22.115zM458.016 413.108l-4.082.265zm59.18-202.73c-.425.484-10.534 12.022-22.65 29.738-7.12 10.41-13.437 20.782-18.778 30.83-6.707 12.62-11.89 24.77-15.405 36.116-3.302 10.662-5.91 22.91-7.746 36.403-1.463 10.747-2.447 22.312-2.922 34.373-.81 20.527.117 35.186.157 35.8l8.164-.53c-.011-.175-.941-14.946-.143-35.05.468-11.786 1.43-23.073 2.858-33.547 1.777-13.025 4.282-24.81 7.447-35.027 3.357-10.84 8.33-22.492 14.782-34.636 5.189-9.768 11.336-19.867 18.272-30.016 11.844-17.33 22.006-28.934 22.107-29.05zM510.229 370.256l-2.328 7.843c.144.043 11.795 3.525 26.61 9.589 8.677 3.552 16.725 7.282 23.92 11.086 8.916 4.714 16.525 9.546 22.614 14.362 10.369 8.2 19.224 18.545 26.32 30.75 5.719 9.832 10.319 20.889 13.673 32.865a167 167 0 0 1 5.097 26.255c.726 6.59.74 10.69.74 10.732l8.18-.003c0-.178-.007-4.447-.763-11.392a175 175 0 0 0-5.308-27.556c-3.532-12.682-8.4-24.418-14.47-34.882-7.627-13.152-17.18-24.318-28.393-33.186-6.49-5.133-14.536-10.248-23.913-15.202-7.443-3.933-15.748-7.78-24.684-11.436-15.194-6.215-26.808-9.68-27.295-9.825M516.174 307.342l-2.153 7.893c.126.034 13.052 3.624 32.24 13.03 11.26 5.52 22.44 11.931 33.234 19.06a314 314 0 0 1 38.376 29.876c9.155 8.342 17.793 18.522 25.675 30.256 6.34 9.44 12.204 19.895 17.431 31.078 8.933 19.111 12.947 33.9 12.986 34.047l7.903-2.118c-.167-.624-4.196-15.5-13.4-35.23-5.408-11.59-11.487-22.439-18.068-32.249-8.264-12.316-17.353-23.026-27.016-31.83a322.4 322.4 0 0 0-39.524-30.753c-11.114-7.33-22.629-13.924-34.227-19.597-19.826-9.696-32.91-13.314-33.457-13.463M568.368 210.448l-2.303 7.85c.045.014 5.125 1.535 13.472 5.495 7.7 3.653 19.835 10.188 33.923 20.578 13.734 10.13 26.755 20.85 38.701 31.862 9.546 8.8 18.43 17.802 26.403 26.758 13.504 15.168 19.713 24.957 19.774 25.054l6.923-4.358c-.264-.42-6.635-10.466-20.587-26.136-8.15-9.156-17.225-18.353-26.968-27.334-12.165-11.213-25.418-22.124-39.39-32.43-8.123-5.99-20.877-14.584-35.508-21.497-8.858-4.186-14.216-5.776-14.44-5.842M603.833 288.245q-.16 0-.318.012l.627 8.157c-.703.054-1.155-.095-1.163-.098.09.031 2.3.823 9.519 6.68 8.55 6.935 20.46 17.95 35.404 32.737 9.29 9.194 17.864 18.987 25.48 29.106 6.085 8.085 11.575 16.393 16.317 24.692 8.02 14.037 11.1 23.161 11.13 23.252l7.76-2.587c-.132-.4-3.37-9.99-11.787-24.723-4.912-8.598-10.592-17.195-16.883-25.554-7.854-10.435-16.69-20.529-26.262-30-17.273-17.095-30.522-29.185-39.38-35.937-2.917-2.224-5.294-3.81-7.064-4.716-1.367-.699-2.426-1.02-3.38-1.02"/><path d="M545.314 534.744a161 161 0 0 1-32.212-3.247 159 159 0 0 1-29.993-9.31 160 160 0 0 1-27.144-14.735c-8.464-5.717-16.422-12.284-23.655-19.517s-13.8-15.192-19.519-23.655a160 160 0 0 1-14.734-27.145 159 159 0 0 1-9.31-29.993 161 161 0 0 1-3.247-32.212c0-10.846 1.092-21.683 3.247-32.212a159 159 0 0 1 9.31-29.993 160 160 0 0 1 14.734-27.144 161 161 0 0 1 19.518-23.655 161 161 0 0 1 23.654-19.517 160 160 0 0 1 27.145-14.733 159 159 0 0 1 29.993-9.311c10.53-2.154 21.366-3.247 32.212-3.247s21.684 1.093 32.212 3.247a159 159 0 0 1 29.994 9.31 160 160 0 0 1 27.144 14.734 161 161 0 0 1 23.655 19.517 161 161 0 0 1 19.517 23.655 160 160 0 0 1 14.734 27.144 159 159 0 0 1 9.31 29.993 161 161 0 0 1 3.247 32.212c0 10.845-1.092 21.683-3.247 32.212a159 159 0 0 1-9.31 29.993 159.8 159.8 0 0 1-14.733 27.145c-5.717 8.463-12.284 16.422-19.517 23.655s-15.191 13.8-23.655 19.517a160 160 0 0 1-27.145 14.735 159 159 0 0 1-29.993 9.31 161 161 0 0 1-32.212 3.247m0-327.807a169.3 169.3 0 0 0-33.852 3.413 167.2 167.2 0 0 0-31.54 9.79 168 168 0 0 0-28.538 15.49c-8.895 6.009-17.259 12.91-24.86 20.51s-14.503 15.966-20.512 24.86a168 168 0 0 0-15.49 28.538 167 167 0 0 0-9.79 31.54 169 169 0 0 0-3.413 33.852 169 169 0 0 0 3.413 33.852 167 167 0 0 0 9.79 31.54 168 168 0 0 0 15.49 28.538 169 169 0 0 0 20.512 24.86 169 169 0 0 0 24.86 20.51 168 168 0 0 0 28.537 15.49 167 167 0 0 0 31.54 9.792 169 169 0 0 0 33.852 3.413c11.396 0 22.785-1.148 33.853-3.413a167 167 0 0 0 31.54-9.791 168 168 0 0 0 28.537-15.49c8.895-6.01 17.26-12.91 24.86-20.511s14.502-15.965 20.511-24.86a168 168 0 0 0 15.49-28.538 167.2 167.2 0 0 0 9.791-31.54 169.3 169.3 0 0 0 3.413-33.852c0-11.396-1.149-22.785-3.413-33.852a167.2 167.2 0 0 0-9.79-31.54A168 168 0 0 0 684.614 281c-6.01-8.895-12.91-17.26-20.512-24.86s-15.965-14.502-24.86-20.511a168 168 0 0 0-28.538-15.49 167 167 0 0 0-31.539-9.79 169.3 169.3 0 0 0-33.853-3.413M343.236 880.157s387.825-97.32 396.54-100.224 17.429-11.62 14.525-23.966c-2.905-12.347-13.073-48.66-13.073-48.66L332.342 811.163l33.408 28.324z"/><path d="M344.363 620.852s361.316-89.494 384.519-95.45c25.004-6.414 23.71-16.926 20.079-30l-14.255-44.063s-354.574 90.718-375.311 96.679c-20.737 5.962-30.364 12.363-27.771 22.472s12.739 50.362 12.739 50.362M340.292 375.034l412.707-103.87-40.973-32.152 23.018-39.93s-366.178 93.287-381.348 97.123c-15.17 3.837-29.293 7.15-24.237 30.69 5.057 23.542 10.833 48.139 10.833 48.139"/></g><g fill="#fff"><path d="m391.649 835.953 2.095-.535c2.645-.674 4.123.55 4.714 2.876.432 1.687-.016 3.743-2.796 4.45l-2.144.547zm-3.545-13.904 2.325-.592c3.1-.79 4.648.903 5.229 3.182.813 3.19-.48 4.976-2.85 5.58l-2.461.628zm-.803 28.847 11.898-3.033c5.56-1.417 8.59-4.956 7.209-10.381-.965-3.783-3.726-6.235-6.977-6.038l-.022-.091c2.323-.981 5.657-2.947 3.96-9.602-.976-3.83-3.988-8.596-13.058-6.283l-11.305 2.88zM411.847 844.632l7.658-1.953-8.297-32.546-7.658 1.952zM428.451 825.786l2.37-.604c3.101-.79 4.513 1.326 5.002 3.24.627 2.46.134 4.335-2.92 5.114l-2.325.592zm-4.16 15.674 12.854-3.277c6.518-1.662 7.73-6.243 6.592-10.71-1.209-4.741-3.715-6.578-7.493-6.538l-.024-.091c4.705-1.927 4.2-5.051 3.174-9.45-1.502-6.461-1.435-7.158-.457-7.892l-.106-.411-8.249 2.103c-.315 1.245-.078 3.126.863 6.819 1.442 5.653.968 7.035-1.449 7.65l-2.915.744-3.428-13.447-7.66 1.952zM449.453 835.046l11.213-2.859-1.438-22.402.09-.024 9.325 20.392 11.076-2.823-8.295-32.548-7.11 1.813 6.46 25.344-.093.025-11.429-24.078-5.926 1.51 1.218 26.68-.09.025-6.46-25.346-6.838 1.744zM484.277 826.168l7.66-1.952-8.297-32.547-7.658 1.952zM496.267 823.112l8.797-2.243.9-22.754.09-.023 5.391 21.151 7.113-1.813-8.297-32.547-8.66 2.208-.985 24.135-.093.024-5.716-22.427-6.837 1.742zM534.45 802.844c.536 2.097 1.155 5.482-1.67 6.204-3.146.801-4.322-2.298-6.531-10.958-2.265-8.889-2.541-11.877.513-12.655 2.599-.662 4.114 1.474 5.253 5.943l.266 1.048-3.602.918 1.302 5.106 10.713-2.73-4.451-17.46-5.241 1.336.608 3.146-.092.023c-1.927-2.615-5.01-2.703-7.972-1.948-8.162 2.08-7.982 8.492-5.391 18.656 2.719 10.667 5.215 17.41 16.063 14.645 9.892-2.522 8.559-9.464 7.618-13.156zM548.687 809.75l7.66-1.952-3.105-12.171 6.111-1.557 3.101 12.17 7.658-1.951-8.297-32.547-7.658 1.952 3.544 13.904-6.108 1.556-3.544-13.903-7.657 1.952zM584.374 794.343l-.092.023-6.383-13.81 5.56-1.418zm-3.14 7.111 9.574-2.44-.185-34.615-7.931 2.021.395 6.502-7.793 1.987-2.721-5.91-7.932 2.023zM601.519 796.284l11.214-2.86-1.44-22.4.092-.024 9.324 20.39 11.076-2.822-8.295-32.547-7.11 1.812 6.459 25.345-.092.024-11.43-24.078-5.925 1.51 1.218 26.68-.088.024-6.463-25.344-6.836 1.743zM659.17 769.548c1.209 4.741 1.197 6.977-1.355 7.628-3.054.778-4.07-2.07-6.243-10.593-2.464-9.665-2.785-12.253.406-13.066 2.826-.721 3.972 2.435 5.305 7.483l7.385-1.882-.29-1.14c-1.79-7.02-5.084-11.763-14.566-9.346-9.801 2.499-8.705 10.036-6.208 19.835 2.127 8.342 4.709 16.569 15.557 13.802 6.747-1.719 9.696-5.577 7.744-13.235l-.35-1.369zM672.947 778.076l7.658-1.952-8.295-32.547-7.66 1.951zM688.553 767.497l-6.84 1.743 1.582 6.199L704.627 770l-1.58-6.2-6.836 1.744-6.717-26.35-7.66 1.953zM709.416 747.8l-3.22 21.842 8.479-2.161.567-13.01.091-.023 6.817 11.127 8.206-2.092-13.282-17.634-3.266-12.81-7.658 1.953zM399.438 589.23l18.622-4.747-1.562-6.132-11.048 2.815-1.644-6.447 10.37-2.644-1.561-6.131-10.37 2.643-3.438-13.481-7.574 1.93zM424.507 553.26c3.066-.781 4.24 1.944 6.493 10.782 2.252 8.837 2.525 11.793-.541 12.574-2.976.759-4.15-1.966-6.403-10.804-2.253-8.837-2.525-11.793.45-12.551m-1.241-5.061c-9.965 2.54-9.664 9.377-7.055 19.612s5.616 16.384 15.58 13.843c10.733-2.735 9.33-10.685 7.054-19.612-2.275-8.928-4.85-16.58-15.58-13.843M450.297 546.687c3.066-.781 4.24 1.944 6.493 10.782 2.25 8.837 2.525 11.792-.541 12.574-2.976.758-4.151-1.968-6.404-10.805-2.252-8.837-2.524-11.793.452-12.551m-1.242-5.061c-9.965 2.54-9.664 9.377-7.055 19.612s5.616 16.383 15.58 13.843c10.733-2.735 9.33-10.685 7.054-19.613s-4.85-16.577-15.58-13.842M475.742 563.249l-6.764 1.724 1.563 6.132 21.102-5.38-1.564-6.13-6.763 1.723-6.643-26.062-7.574 1.932zM498.465 550.302l2.076-.528c2.614-.667 4.076.545 4.661 2.844.426 1.669-.015 3.702-2.766 4.404l-2.12.54zm-3.506-13.75 2.302-.588c3.066-.781 4.596.893 5.171 3.147.805 3.157-.473 4.923-2.819 5.52l-2.434.622zm-.792 28.532 11.768-3.001c5.501-1.401 8.497-4.902 7.13-10.267-.954-3.743-3.684-6.17-6.9-5.973l-.025-.09c2.3-.97 5.597-2.915 3.92-9.498-.967-3.787-3.945-8.502-12.917-6.215l-11.182 2.85zM529.013 549.958l-.09.023-6.315-13.66 5.5-1.403zm-3.104 7.034 9.467-2.415-.179-34.237-7.846 2 .392 6.43-7.71 1.964-2.691-5.844-7.846 2.002zM545.747 551.934l7.574-1.93-6.641-26.06 10.956-2.794-1.564-6.13-18.53 4.723zM566.53 546.636l7.578-1.93-6.644-26.062 10.957-2.792-1.562-6.132-18.532 4.724zM609.581 523.756c1.196 4.687 1.184 6.9-1.342 7.544-3.02.769-4.027-2.047-6.176-10.479-2.438-9.559-2.752-12.118.403-12.922 2.796-.713 3.927 2.406 5.25 7.4l7.304-1.862-.288-1.126c-1.77-6.944-5.03-11.635-14.409-9.243-9.696 2.47-8.612 9.923-6.14 19.619 2.103 8.25 4.658 16.387 15.39 13.65 6.67-1.7 9.59-5.517 7.658-13.091l-.346-1.354zM623.074 532.224l7.574-1.93-6.644-26.06 10.958-2.795-1.564-6.133-18.531 4.724zM659.15 500.077c-1.608-6.314-4.675-10.814-13.468-8.573-8.793 2.242-9.332 7.661-7.724 13.973l5.494 21.552 7.575-1.93-6.057-23.762c-.643-2.524-.031-4.266 1.999-4.782 2.029-.517 3.4.717 4.044 3.242l6.056 23.76 7.576-1.928zM673.135 505.777l2.075-.528c2.615-.666 4.077.546 4.661 2.844.427 1.67-.015 3.703-2.765 4.403l-2.119.541zm-3.505-13.75 2.301-.587c3.066-.78 4.596.893 5.171 3.147.805 3.156-.473 4.923-2.819 5.52l-2.435.621zm-.793 28.532 11.768-3c5.501-1.402 8.497-4.903 7.13-10.268-.954-3.743-3.684-6.168-6.9-5.972l-.024-.09c2.3-.97 5.597-2.917 3.92-9.498-.967-3.789-3.947-8.503-12.918-6.216l-11.184 2.85zM466.18 303.423l10.798-2.653-1.194-4.862-10.798 2.65zM584.624 274.332l10.797-2.651-1.193-4.863-10.798 2.65zM496.265 304.515l-6.21 1.527 1.187 4.841.958-.235c5.803-1.425 7.914 1.254 8.785 3.22l5.391-1.325-7.944-32.344-7.676 1.887zM523.555 298.88c.55 2.236.359 4.221-1.696 4.727-2.055.503-3.143-1.166-3.692-3.405-.776-3.153-.108-4.38 1.673-4.819 1.782-.437 2.943.342 3.715 3.496m-9.211-12.658c-.706-2.877-.674-5.308 1.793-5.913s3.62 1.532 4.328 4.41c.707 2.88.65 5.216-1.815 5.821-2.467.608-3.6-1.439-4.306-4.318m16.473 11.456c-.886-3.61-3.113-5.774-6.238-5.684l-.025-.093c3.292-1.39 4.676-4.635 3.609-8.976-1.346-5.48-4.398-9.623-13.215-7.458s-9.681 6.93-8.256 12.731c.887 3.61 3.248 6.712 7.218 6.318l.023.091c-2.561 1.403-3.68 4.15-2.76 7.894 1.2 4.887 4.703 7.71 11.875 5.95 7.172-1.763 9.014-5.702 7.769-10.773M533.495 298.326l1.594 6.488 20.602-5.06-1.402-5.71c-6.831-6.316-13.075-16.746-15.156-23.841l-7.947 1.954c2.285 7.334 9.405 17.984 15.556 22.916zM559.466 275.286l-.291-1.188c-.527-2.147-.508-4.235 1.73-4.786 2.469-.606 3.586 1.784 4.676 6.217.93 3.79.556 5.82-1.452 6.312-1.371.338-2.773-.045-3.462-1.86l-7.127 1.748 5.304 17.25 18.135-4.454-1.458-5.938-12.244 3.005-1.857-5.985.068-.115c1.225 1.445 3.919 1.752 5.974 1.247 5.892-1.448 7.656-5.513 5.736-13.324-2.02-8.224-6.218-10.728-13.436-8.956-6.853 1.683-9.38 5.791-7.987 11.457l.29 1.188z"/></g></g></svg>