<svg xmlns="http://www.w3.org/2000/svg" width="896.676" height="929.943" viewBox="0 0 896.676 929.943"><clipPath id="a"><path d="M201.883 190h676.233v700H201.883z"/></clipPath><clipPath id="b"><path d="M201.883 190h676.233v700H201.883z"/></clipPath><path fill="#fff100" d="M892.355 780.951v125.967H4.322V780.951l427.33-296.356z"/><g clip-path="url(#a)" transform="matrix(1.33333 0 0 -1.33333 -271.985 1184.521)"><path fill="none" stroke="#000" stroke-linecap="round" stroke-miterlimit="3.864" stroke-width="6.481" d="M873.255 302.678v-94.475H207.23v94.475l320.498 222.267z"/></g><path fill="#ec1c24" d="M30.721 783.16H170.2l-56.08-56.075z"/><path fill="none" stroke="#000" stroke-linecap="round" stroke-miterlimit="3.864" stroke-width="4.32132253" d="M30.721 783.16H170.2l-56.08-56.075z"/><path fill="#ec1c24" d="M866.013 783.16H726.535l56.079-56.075z"/><path fill="none" stroke="#000" stroke-linecap="round" stroke-miterlimit="3.864" stroke-width="4.32132253" d="M866.013 783.16H726.535l56.079-56.075z"/><g clip-path="url(#b)" transform="matrix(1.33333 0 0 -1.33333 -271.985 1184.521)"><path fill="#fff100" d="M212.204 557.113c0 181.173 146.866 328.037 328.038 328.037s328.04-146.864 328.04-328.037-146.868-328.039-328.04-328.039-328.038 146.864-328.038 328.038"/><path d="M0 0c0 181.174 146.866 328.038 328.038 328.038S656.079 181.174 656.079 0 509.21-328.038 328.038-328.038 0-181.174 0 0" style="fill:none;stroke:#000;stroke-width:6.481;stroke-linecap:round;stroke-linejoin:round;stroke-miterlimit:3.864" transform="translate(212.204 557.112)"/><path fill="#00adee" d="M223.956 557.113c0 174.681 141.604 316.288 316.286 316.288 174.685 0 316.289-141.606 316.289-316.288 0-174.686-141.604-316.29-316.29-316.29-174.681 0-316.285 141.604-316.285 316.29"/><path d="M0 0c0 174.682 141.604 316.289 316.286 316.289 174.685 0 316.289-141.607 316.289-316.289 0-174.685-141.604-316.289-316.289-316.289C141.604-316.289 0-174.685 0 0" style="fill:none;stroke:#000;stroke-width:2.16;stroke-linecap:round;stroke-linejoin:round;stroke-miterlimit:3.864" transform="translate(223.956 557.112)"/><path fill="#fff100" d="M299.156 557.113c0 133.147 107.936 241.088 241.086 241.088 133.149 0 241.087-107.94 241.087-241.089 0-133.153-107.938-241.086-241.087-241.086-133.15 0-241.086 107.932-241.086 241.086"/><path d="M0 0c0 133.148 107.936 241.089 241.086 241.089 133.149 0 241.087-107.941 241.087-241.089 0-133.154-107.938-241.087-241.087-241.087C107.936-241.087 0-133.154 0 0" style="fill:none;stroke:#000;stroke-width:2.16;stroke-linecap:round;stroke-linejoin:round;stroke-miterlimit:3.864" transform="translate(299.156 557.112)"/><path fill="#fff" d="M311.07 557.113c0 126.567 102.604 229.168 229.172 229.168s229.172-102.6 229.172-229.169S666.81 327.941 540.242 327.941 311.07 430.541 311.07 557.112"/><path d="M0 0c0 126.568 102.604 229.169 229.172 229.169S458.344 126.568 458.344 0c0-126.57-102.604-229.172-229.172-229.172S0-126.57 0 0" style="fill:none;stroke:#000;stroke-width:8.642;stroke-linecap:round;stroke-linejoin:round;stroke-miterlimit:3.864" transform="translate(311.07 557.112)"/><g fill="#fff100"><path fill-rule="evenodd" d="M258.844 453.444c1.472 2.54 3.728 4.486 6.753 5.835q4.686 2.086 8.581.993 2.182-.607 4.646-2.587-.324 4.552 1.882 7.906 2.194 3.387 6.6 5.349 4.542 2.021 9.17 1.34a15.5 15.5 0 0 0 5.648-1.851c1.977-1.086 3.701-2.65 5.163-4.684 1.45-2.014 2.757-4.332 3.923-6.943l10.317-23.175-51.14-22.772-11.06 24.846q-4.044 9.46-.483 15.743m35.622-17.644 13.64 6.072-5.594 12.557c-1 2.247-2.076 3.856-3.234 4.838q-3.181 2.658-7.897.56c-2.66-1.186-3.999-3.096-4.016-5.738-.007-1.474.468-3.325 1.434-5.555zm-19.737-8.79 11.275 5.02-5.59 12.56q-1.5 3.364-3.676 4.894c-1.484 1.028-3.299 1.064-5.454.107q-3.57-1.592-3.48-4.878c.177-1.831.82-3.984 1.92-6.458z"/><path d="m245.58 476.034-2.628 11.395 44.735 10.33-6.233 27.011 9.802 2.265 8.87-38.41z"/><path fill-rule="evenodd" d="m234.847 557.812.693 13.197 56.939 16.868-.664-12.67-11.68-2.996-1.08-20.599 11.293-4.468-.642-12.212zm34.74-2.546.746 14.183-22.36-5.826z"/><path d="M245.673 613.69q-5.05 8.301-2.498 18.548 3.42 13.708 13.99 17.805 5.924 2.235 11.072 1.23l-2.829-11.346c-2.788-.09-4.99-.55-6.605-1.367q-4.309-2.218-5.825-8.297-1.543-6.19 2.574-11.016c2.726-3.208 7.13-5.571 13.224-7.094q9.14-2.275 14.648.343 5.475 2.667 6.928 8.489c.993 3.98.444 7.339-1.637 10.076q-1.667 2.255-5.583 4.445l2.8 11.238c5.677-2.461 9.862-6.175 12.562-11.154q4.054-7.431 1.697-16.901-2.924-11.72-12.11-16.552c-6.153-3.215-13.61-3.728-22.386-1.544-9.478 2.367-16.155 6.732-20.022 13.097M259.06 676.466l5.044 10.345 20.718-10.107-11.246 29.53 6.626 13.586 10.663-30.725 40.168 7.24-6.595-13.513-29.557-4.812 2.71-7.53 16.826-8.209-5.046-10.344z"/><path fill-rule="evenodd" d="M327.31 768.364c2.922-.264 5.641-1.481 8.141-3.658 2.582-2.244 4.088-4.694 4.53-7.355.248-1.492.116-3.256-.387-5.303q3.994 2.214 7.964 1.635c2.666-.372 5.207-1.611 7.635-3.721q3.755-3.261 5.09-7.746a15.4 15.4 0 0 0 .71-5.902q-.221-3.377-2.062-6.658c-1.213-2.164-2.759-4.33-4.636-6.487l-16.643-19.147-42.25 36.727 17.84 20.52q6.869 7.669 14.068 7.095m-.935-39.745 11.265-9.793 9.02 10.38q2.414 2.772 3.017 4.972c.707 2.67-.235 5.135-2.836 7.393-2.194 1.913-4.493 2.316-6.892 1.218q-2.011-.924-4.43-3.653zm-16.309 14.177 9.316-8.095 9.018 10.376q2.417 2.779 2.882 5.393c.305 1.779-.434 3.443-2.208 4.989q-2.951 2.563-5.89 1.096c-1.585-.935-3.27-2.43-5.044-4.471z"/><path d="m343.305 790.872 9.496 7.154 20.705-27.479q3.473-4.612 6.167-5.909c3.02-1.659 6.43-1.05 10.234 1.817q5.671 4.272 4.536 9.311-.508 2.947-3.985 7.557l-20.706 27.478 9.496 7.154 20.708-27.479c3.58-4.75 5.632-9.009 6.15-12.768q1.357-10.388-10.256-19.14c-7.746-5.835-14.83-7.375-21.258-4.606q-5.205 2.303-10.58 9.432z"/><path fill-rule="evenodd" d="M442.349 844.623a14.14 14.14 0 0 0 6.406-1.831 17.6 17.6 0 0 0 4.325-3.438c1.253-1.379 2.255-3.1 3.01-5.171q1.363-3.747.799-8.077c-.386-2.86-1.851-5.319-4.387-7.372q4.17-.138 6.658-2.308 2.51-2.116 4.52-7.648l1.286-3.534q1.313-3.605 2.066-4.785c.78-1.251 1.808-2.009 3.093-2.268l.477-1.323-12.097-4.404a41 41 0 0 0-1.738 2.561 27 27 0 0 0-2.115 4.365l-1.851 4.86q-1.902 5.005-4.298 6.036c-1.57.693-3.977.451-7.211-.727l-11.35-4.133 7.507-20.621-10.74-3.913-19.145 52.603 25.802 9.392c3.709 1.271 6.706 1.849 8.983 1.736m-20.72-16.354 5.145-14.13 12.454 4.533q3.711 1.35 5.255 2.879c1.827 1.798 2.2 4.171 1.129 7.123q-1.745 4.779-5.517 5.267-2.12.275-5.69-1.021z"/><path d="m474.39 856.497 12.175 1.494 26.888-36.073-4.763 38.79 10.82 1.324 6.822-55.558-11.61-1.426-27.536 36.68 4.843-39.466-10.817-1.33z"/><path fill-rule="evenodd" d="M603.41 854.417a14.14 14.14 0 0 0 4.713-4.708 17.4 17.4 0 0 0 2.112-5.1c.431-1.812.474-3.81.13-5.983-.415-2.626-1.491-5.107-3.215-7.451q-2.59-3.47-7.415-4.325 3.58-2.14 4.709-5.243 1.161-3.07.242-8.882l-.587-3.711q-.602-3.792-.515-5.188.112-2.208 1.604-3.484l-.22-1.388-12.715 2.014q-.24 1.92-.282 3.083a27.4 27.4 0 0 0 .266 4.84l.736 5.152q.765 5.3-.83 7.36c-1.042 1.372-3.26 2.323-6.664 2.863l-11.924 1.888-3.438-21.68-11.287 1.788 8.758 55.289 27.12-4.296q5.793-1.032 8.702-2.838m-26.052-4.255-2.351-14.857 13.089-2.071q3.9-.616 5.993-.026 3.699 1.028 4.438 5.679.793 5.024-2.268 7.28c-1.151.85-2.973 1.468-5.473 1.866zM659.12 781.683q-8.565-3.092-19.347 2.17-10.79 5.26-13.627 13.912-4.133 10.93 2.477 24.481c4.494 9.221 10.416 14.892 17.766 17.026q8.565 3.091 19.354-2.17 10.783-5.262 13.621-13.91c2.822-7.098 1.983-15.253-2.509-24.466q-6.61-13.555-17.736-17.043m-2.857 10.86q5.933 2.812 10.08 11.306 4.129 8.465 2.69 14.873-1.388 6.422-7.635 9.47c-4.167 2.032-8.238 2.12-12.215.254-3.977-1.86-7.35-5.627-10.114-11.292q-4.147-8.498-2.673-14.92c.98-4.285 3.557-7.44 7.72-9.47q6.244-3.049 12.147-.22"/><path d="m734.583 792.836 9.577-7.482-49.52-32.35-8.704 6.804 19.56 55.755 9.844-7.693-16.587-40.968zM776.774 735.443l-19.821 22.013-8.832-7.952 18.193-20.21-7.221-6.506-18.195 20.207-10.7-9.63 20.737-23.029-7.48-6.734-28.384 31.525 41.6 37.456 27.473-30.509z"/><path fill-rule="evenodd" d="M816.397 684.13a14.1 14.1 0 0 0-1.151-6.558 17.4 17.4 0 0 0-2.968-4.663q-1.857-2.086-4.823-3.534-3.585-1.748-7.95-1.635-4.328.124-7.793 3.59c.199-2.777-.336-5.064-1.597-6.865q-1.847-2.714-7.137-5.295l-3.375-1.65q-3.45-1.68-4.546-2.55-1.743-1.36-1.935-3.311l-1.263-.616-5.643 11.57q1.439 1.29 2.363 1.999a27.5 27.5 0 0 0 4.119 2.558l4.64 2.347q4.784 2.417 5.554 4.907.787 2.452-1.475 7.096l-5.293 10.856-19.73-9.624-5.013 10.273 50.316 24.539 12.039-24.675c1.649-3.56 2.539-6.483 2.66-8.758m-18.427 18.9-13.517-6.595 5.809-11.912c1.153-2.366 2.292-4.01 3.417-4.924q2.965-2.44 7.196-.38 4.574 2.231 4.663 6.035.055 2.144-1.61 5.557z"/><path d="M794.751 636.824c-2.4-.96-4.083-2.1-5.06-3.414-1.775-2.397-2.106-5.835-.99-10.306.665-2.678 1.502-4.776 2.51-6.302 1.917-2.887 4.415-3.946 7.483-3.18q2.692.668 3.577 3.395c.564 1.81.797 4.493.695 8.04l-.143 6.07q-.198 8.953 1.244 12.76 2.387 6.425 10.383 8.417 7.297 1.822 13.45-2.283c4.096-2.735 7.004-7.53 8.711-14.381q2.14-8.585-.92-15.77c-2.012-4.804-5.88-8.03-11.604-9.664l-2.72 10.906q4.828 1.518 5.902 6.012.697 2.994-.28 6.936c-.73 2.922-1.905 5.113-3.518 6.559q-2.423 2.18-5.588 1.386-2.916-.724-3.707-3.666-.545-1.894-.484-7.633l.084-9.92c.041-4.35-.5-7.77-1.625-10.268q-2.622-5.82-9.88-7.631-7.444-1.856-13.806 2.623-6.312 4.458-8.906 14.847c-1.762 7.074-1.544 13.039.666 17.896q3.347 7.291 11.822 9.407zM845.587 546.588l-2.767-39.59-9.814.689 1.958 27.993-12.842.9-1.717-24.512-9.695.679 1.712 24.513-23.412 1.64.81 11.59zM797.002 512.052l-1.999-11.332-11.143 1.966 2 11.332zM826.178 466.035q3.847-8.924-.106-18.716-5.294-13.098-16.33-15.684c-4.117-.927-7.83-.824-11.138.322l4.384 10.843c2.772-.3 5.016-.151 6.73.436 3.049 1.057 5.356 3.527 6.923 7.401q2.39 5.918-1.021 11.267c-2.246 3.561-6.283 6.511-12.106 8.865-5.821 2.355-10.671 2.918-14.55 1.698q-5.796-1.873-8.043-7.439-2.307-5.702.22-10.203 1.334-2.467 4.908-5.181l-4.337-10.74c-5.279 3.224-8.906 7.49-10.889 12.797q-2.982 7.92.674 16.971 4.528 11.199 14.295 14.703 9.811 3.493 22.379-1.587 13.592-5.49 18.007-15.753M769.71 433.098l-5.93-9.865-9.697 5.833 5.926 9.865zM332.29 329.408h8.13v46.629h-5.726c-.74-5.36-5.054-8.315-12.627-8.501v-5.483h10.222zM361.738 363.656c0 4.186.863 6.161 3.634 6.161 3.018 0 3.944-1.85 3.944-6.16 0-4.25-.986-6.162-3.819-6.162-2.896 0-3.759 1.911-3.759 6.161m3.76-12.26c3.384 0 4.25-2.646 4.25-8.127 0-5.732-.739-8.074-4.25-8.074-3.39 0-4.192 2.22-4.192 7.396 0 6.16.617 8.805 4.191 8.805m-5.854 3.083c-4.865-1.172-6.775-4.99-6.775-12.135 0-9.427 3.941-13.737 12.567-13.737 8.807 0 12.75 4.493 12.75 14.353 0 6.96-1.972 10.534-6.96 11.52 4.125 1.291 6.096 4.492 6.096 9.79 0 7.64-4.126 11.706-11.764 11.706-7.7 0-11.766-4.003-11.766-11.457 0-5.483 1.973-8.872 5.852-10.04M706.666 329.353h8.87c1.048 14.29 4.807 27.47 11.088 39.115v6.653h-25.625v-7.638h17.37c-7.021-14.046-10.84-26.92-11.703-38.13M731.68 344.197v-1.172c0-9.916 3.94-14.595 12.441-14.595 9.364 0 13.243 5.418 13.243 17.246 0 10.225-3.94 15.336-11.766 15.336-2.647 0-4.557-.738-6.343-2.584l.494 9.3h15.522v7.393h-21.93l-1.23-24.274h7.513c.185 2.28 1.91 3.762 4.25 3.762 3.637 0 5.052-3.081 5.052-9.49 0-7.02-1.233-10.348-4.558-10.348-3.083 0-4.684 2.71-4.684 8.194v1.232z"/><path stroke="#000" stroke-linecap="round" stroke-miterlimit="3.864" stroke-width="6.481" d="M207.229 288.648h666.025v-94.474H207.229z"/></g><path d="M219.514 276.177h641.457V206.64H219.514z" style="fill:#fff;stroke:#000;stroke-width:3.241;stroke-linecap:round;stroke-linejoin:round;stroke-miterlimit:3.864"/><path d="m253.74 239.453 8.297 17.747 8.151-17.747zm-15.274-16.738h7.415l5.658 12.036h20.778l5.581-12.036h7.782l-19.678 40.248h-7.93zM298.125 258.262h12.263c8.004 0 12.116-1.12 12.116-6.55 0-5.427-3.891-7.11-12.116-7.11h-12.263zm-7.048 4.7v-40.248h7.12v17.242h11.605c9.103 0 11.234-.448 11.747-6.44l.442-5.261c.218-2.407.367-4.253 1.395-5.541h8.297v1.12c-1.69.67-2.201 2.184-2.424 4.7l-.587 6.606c-.367 4.313-1.395 6.497-6.02 7.504 4.773 1.735 7.267 4.813 7.267 9.18 0 4.532-2.422 7.893-6.828 9.742-3.301 1.345-6.974 1.397-11.527 1.397zM351.528 222.714h7.197v35.38h16.668v4.87h-40.532v-4.87h16.667zM381.75 222.714h38.253v5.04h-31.132v13.49h28.198v4.7h-28.198v12.04h30.547v4.98H381.75zM448.776 222.714h38.26v5.04H455.9v13.49h28.195v4.7h-28.195v12.04h30.545v4.98h-37.67zM507.358 222.714h7.195v35.38h16.67v4.87H490.69v-4.87h16.669zM557.702 222.714h33.56v5.097h-26.289v35.152h-7.27z"/><path d="m606.368 239.453 8.295 17.747 8.153-17.747zm-15.274-16.738h7.418l5.653 12.036h20.78l5.581-12.036h7.781l-19.677 40.248h-7.93zM643.704 222.714H666.1c11.234 0 17.843 4.812 17.843 12.037 0 5.205-3.744 8.79-10.059 9.683 4.991 1.567 7.561 4.535 7.561 8.736 0 6.547-5.504 9.793-16.448 9.793h-21.293zm7.194 23.343v12.315h13.147c6.9 0 10.206-1.9 10.206-5.99 0-4.422-3.524-6.325-10.796-6.325zm0-18.474v13.996h13.732c8.08 0 11.968-2.014 11.968-6.773 0-4.7-3.819-7.223-11.157-7.223zM698.471 242.809c0 10.472 6.751 16.462 17.621 16.462s17.553-5.99 17.553-16.462c0-10.467-6.684-16.456-17.553-16.456s-17.62 5.989-17.62 16.456m-7.418 0c0-13.433 9.543-21.217 25.038-21.217s24.968 7.784 24.968 21.217c0 13.439-9.472 21.22-24.968 21.22-15.495 0-25.038-7.781-25.038-21.22M757.144 258.262h12.26c8.003 0 12.119-1.12 12.119-6.55 0-5.427-3.891-7.11-12.12-7.11h-12.26zm-7.05 4.7v-40.248h7.12v17.242h11.603c9.105 0 11.236-.448 11.749-6.44l.44-5.261c.222-2.407.368-4.253 1.397-5.541h8.297v1.12c-1.688.67-2.201 2.184-2.424 4.7l-.587 6.606c-.367 4.313-1.396 6.497-6.02 7.504 4.773 1.735 7.266 4.813 7.266 9.18 0 4.532-2.421 7.893-6.827 9.742-3.304 1.345-6.974 1.397-11.53 1.397zM798.87 222.714h38.26v5.04h-31.135v13.49h28.197v4.7h-28.197v12.04h30.547v4.98H798.87z"/><path fill="#00a551" d="M565.486 509.68c11.291-25.497 19.34-53.131 34.565-76.695 3.21 19.536-6.473 38.986-7.56 58.33-3.418 60.77 46.126 55.165 66.976 97.76 22.547-18.513 42.512 4.865 56.172 4.865 5.514 0 9.613-4.72 15.122-4.864.012-20.701-3.239-29.746-10.802-48.608h8.642c29.296-17.3-11.967-39.885-25.927-49.153 2.572-6.374 16.204-2.517 16.204-9.182 0-7.233-6.593-11.763-11.342-16.203-53.387-49.91-77.362-.703-93.44-24.305-3.537-5.19-2.684-11.962-5.94-17.282 2.14-23.81 3.973-48.215 2.798-72.143-12.298 0-24.686-9.71-36.73-12.965 3.11 6.648.178 37.406-1.078 45.369 5.111-.352 10.66-.127 15.664 1.084 3.315 14.466.635 26.313-3.78 40.503-7.248-5.641-9.367-13.022-17.828-18.36 2.594-10.21-1.462-28.004-9.18-35.65-.996 7.607-8.078 12.673-8.102 20.524-3.128-21.701-9.544-33.074-30.787-44.828-4.964 2.997-9.205 8.262-12.423 12.963V363c-6.446-.026-25.268-9.954-30.276-14.717-12.087 18.617-10.313 29.29-12.425 50.23-.472 4.685-15.079 2.835-18.36 3.779 11.314 9.153 10.614 14.583 27.002 21.605-6.693 3.608-9.424 10.77-13.502 16.745 57.791 0 47.276 38.888 109.104 19.985-6.178 9.292-14.95 12.667-24.305 17.822 6.423 6.115 15.852 5.806 9.722 17.284z"/><path d="M0 0c11.291-25.498 19.34-53.132 34.565-76.696 3.21 19.536-6.473 38.986-7.561 58.33-3.417 60.77 46.127 55.165 66.977 97.761 22.547-18.514 42.512 4.864 56.172 4.864 5.514 0 9.613-4.72 15.122-4.864.012-20.701-3.239-29.746-10.802-48.608h8.642c29.296-17.299-11.967-39.885-25.927-49.153 2.572-6.374 16.204-2.517 16.204-9.182 0-7.233-6.593-11.763-11.342-16.203-53.387-49.91-77.362-.703-93.441-24.305-3.536-5.19-2.683-11.962-5.939-17.282 2.139-23.81 3.973-48.215 2.798-72.143-12.298 0-24.686-9.71-36.73-12.965 3.11 6.648.178 37.406-1.078 45.369 5.111-.352 10.66-.127 15.664 1.084 3.315 14.466.635 26.313-3.781 40.503-7.247-5.641-9.366-13.022-17.827-18.359C4.31-112.059.254-129.854-7.465-137.5c-.995 7.607-8.077 12.673-8.101 20.524-3.128-21.701-9.544-33.074-30.787-44.828-4.964 2.997-9.205 8.262-12.423 12.963v2.16c-6.446-.026-25.268-9.954-30.276-14.717-12.087 18.617-10.313 29.29-12.425 50.231-.472 4.684-15.079 2.834-18.361 3.778 11.315 9.153 10.615 14.583 27.003 21.605-6.693 3.608-9.424 10.771-13.502 16.745 57.791 0 47.276 38.888 109.104 19.985-6.178 9.292-14.95 12.667-24.305 17.822 6.423 6.115 15.852 5.806 9.722 17.284z" style="fill:none;stroke:#000;stroke-width:3.241;stroke-linecap:round;stroke-linejoin:round;stroke-miterlimit:3.864" transform="translate(565.486 509.68)"/><path fill="#00a551" d="M535.949 493.906c-2.153 6.482-16.007 11.761-21.425 9.772-14.024-5.15-67.02 43.21-70.218 43.212-19.72-30.636-51.793-21.19-65.961-30.636 9.248-12.329 20.422-28.128 9.785-40.122 8.84-4.423 28.366-5.348 25.927-31.328 18.484 0 87.333 8.508 97.764 25.927 5.696 9.515 24.13 9.661 24.127 23.175"/><path d="M0 0c-2.153 6.482-16.007 11.761-21.425 9.772-14.024-5.15-67.02 43.209-70.218 43.212-19.719-30.636-51.793-21.19-65.961-30.636 9.249-12.329 20.423-28.128 9.786-40.122 8.839-4.423 28.366-5.348 25.927-31.328 18.484 0 87.333 8.508 97.764 25.927C-18.431-13.66.002-13.514 0 0" style="fill:none;stroke:#000;stroke-width:3.241;stroke-linecap:round;stroke-linejoin:round;stroke-miterlimit:3.864" transform="translate(535.948 493.906)"/><path fill="#00a551" d="M579.98 577.722c7.497-10.589 64.818-32.946 79.398-32.946-39.165-17.1-81.315-10.376-85.338-10.264-1.621.046.882-35.538-45.911-56.172 0 0 5.09 31.398-5.4 45.37-23.141-37.293-83.18-37.806-83.18-37.806 45.69 26.524 44.07 45.602 45.69 52.082 48.43 28.251 94.742 39.736 94.742 39.736"/><path fill="none" stroke="#000" stroke-miterlimit="3.864" stroke-width="3.241" d="M579.98 577.722c7.497-10.589 64.818-32.946 79.398-32.946-39.165-17.1-81.315-10.376-85.338-10.264-1.621.046.882-35.538-45.911-56.172 0 0 5.09 31.398-5.4 45.37-23.141-37.293-83.18-37.806-83.18-37.806 45.69 26.524 44.07 45.602 45.69 52.082 48.43 28.251 94.742 39.736 94.742 39.736z"/><path fill="#ec1c24" d="M614.047 660.541c4.323-.537 4.373-8.82 4.373-13.142 0-16.204-7.432-23.046-13.912-38.168-2.7-7.02-5.401-11.34-9.182-17.28-4.322-7.025-8.101-12.965-16.743-14.586-27.548-5.401-41.05-17.824-65.356-29.708-6.48-3.241-10.263-6.48-16.743-9.181h-30.79c-7.559 0-12.423 1.081-19.984 2.162-5.398.539-9.721 4.32-9.721 9.721 0 6.121.053 10.5 2.433 15.901-12.125-.009-45.182 10.712-51.31 20.522-13.986 22.396-19.581 53.662-18.903 79.4 5.888.928 25.117-7.101 31.897-7.983-.693 4.799-.926 9.688-.926 15.993 0 5.942-2.701 14.583 3.242 14.583 8.1 0 13.398-2.539 20.967-5.239-1.043 3.27-2.412 5.689-3.776 8.875-.137.276-.287.544-.441.808-2.702 5.404-7.732 6.583-7.732 11.985 0 4.461 2.302 8.666 5.852 10.855l-.72 21.379c8.022 2.349 24.233-19.445 35.11-19.445.423 0 25.205 23.942 30.246 27.548 5.107 3.651 12.968-20.334 20.527-30.245 1.48 1.688-2.63 15.739-3.24 18.364 0 0 16.508-10.17 22.686-17.285 10.183 10.361 7.819 25.273 24.256 36.034 6.33 4.141 8.641 12.143 17.826 5.944-.269-16.36 1.754-33.103 5.398-49.156 4.23.854 4.217 3.386 9.721 2.7.008-17.165.991-39.837 17.113-50.023z"/><g fill="none" stroke="#000" stroke-miterlimit="3.864"><path stroke-width="3.241" d="M614.047 660.541c4.323-.537 4.373-8.82 4.373-13.142 0-16.204-7.432-23.046-13.912-38.168-2.7-7.02-5.401-11.34-9.182-17.28-4.322-7.025-8.101-12.965-16.743-14.586-27.548-5.401-41.05-17.824-65.356-29.708-6.48-3.241-10.263-6.48-16.743-9.181h-30.79c-7.559 0-12.423 1.081-19.984 2.162-5.398.539-9.721 4.32-9.721 9.721 0 6.121.053 10.5 2.433 15.901-12.125-.009-45.182 10.712-51.31 20.522-13.986 22.396-19.581 53.662-18.903 79.4 5.888.928 25.117-7.101 31.897-7.983-.693 4.799-.926 9.688-.926 15.993 0 5.942-2.701 14.583 3.242 14.583 8.1 0 13.398-2.539 20.967-5.239-1.043 3.27-2.412 5.689-3.776 8.875-.137.276-.287.544-.441.808-2.702 5.404-7.732 6.583-7.732 11.985 0 4.461 2.302 8.666 5.852 10.855l-.72 21.379c8.022 2.349 24.233-19.445 35.11-19.445.423 0 25.205 23.942 30.246 27.548 5.107 3.651 12.968-20.334 20.527-30.245 1.48 1.688-2.63 15.739-3.24 18.364 0 0 16.508-10.17 22.686-17.285 10.183 10.361 7.819 25.273 24.256 36.034 6.33 4.141 8.641 12.143 17.826 5.944-.269-16.36 1.754-33.103 5.398-49.156 4.23.854 4.217 3.386 9.721 2.7.008-17.165.991-39.837 17.113-50.023z"/><path stroke-width="4.321" d="M529.31 653.5c-1.081 11.886-4.322 18.366-8.64 29.168-2.164 4.863-5.943 6.483-7.564 11.342-3.241 8.643-5.94 13.505-10.263 21.068M453.403 576.55c54.132-6.103 81.934 25.735 84.8 45.372 0 0 3.535 14.718-1.72 23.51"/><path stroke-width="4.321" d="M450.39 576.826c59.96-7.45 90.056 22.71 94.49 36.046 1.93 5.809 6.481 10.793 9.213 16.345 2.585 5.258 7.442 8.76 11.342 12.965 17.688 19.057 22.655 21.03 48.611 18.359"/><path stroke-width="4.321" d="M449.493 576.826c-5.401 0-7.561-5.401-9.724-10.263-2.699-5.943-3.78-9.724-3.78-16.204 0-5.401 4.322-9.181 9.721-9.721 7.561-1.081 12.426-2.162 19.984-2.162h30.789c6.48 2.702 10.263 5.94 16.744 9.182 24.306 11.883 37.808 24.306 65.356 29.707 8.642 1.62 12.421 7.562 16.743 14.586 3.781 5.94 6.482 10.26 9.182 17.28 6.48 15.122 13.912 21.964 13.912 38.168 0 4.322-.051 12.605-4.374 13.142"/><path stroke-width="4.321" d="M448.146 602.386c3.783 4.86 4.323 8.642 4.323 14.581 0 13.504-4.86 21.062-4.86 34.567 0 5.94-1.081 10.805 2.699 14.583 3.242 3.243 8.103 3.243 12.96 3.243 15.667 0 24.309-1.62 39.974-5.94 8.1-2.163 11.883-6.483 19.444-9.185 5.94-2.159 16.202 1.621 16.202-4.859 0-2.702-3.781-3.783-5.941-4.322-4.32-1.08-7.022-2.16-11.883-2.16-18.903 0-28.083 12.962-46.991 12.962-5.938 0-5.401-9.182-5.401-15.122l1.62-21.063c0-11.884-.54-19.989-7.023-29.71-3.78-5.94-5.94-10.8-12.961-12.96l-2.162.536v1.623"/><path stroke-width="4.321" d="M447.7 576.826c2.699 5.4 1.618 8.643 1.618 14.044 0 10.802-2.697 18.36-7.561 27.543-2.7 5.403-7.561 7.02-9.722 12.964-2.699 7.562-2.162 12.965-4.322 21.066-2.699 11.339 0 17.824-3.781 29.168-1.081 4.32-2.699 7.017-4.319 10.8-.137.276-.288.544-.442.808-2.701 5.404-7.731 6.584-7.731 11.985 0 6.482 4.86 12.422 11.342 12.422 8.101 0 11.884-4.32 19.445-7.021 5.94-2.163 9.721-3.783 16.203-4.862 9.18-2.162 14.039-6.482 22.145-9.721 4.32-1.621 8.1-2.16 10.802-5.402 7.564-8.102 5.401-15.664 10.803-27.005"/><path stroke-width="4.321" d="m417.654 715.833-1.081 21.605c8.02 2.35 24.232-19.445 35.109-19.445.424 0 25.206 23.942 30.247 27.548 5.107 3.651 12.968-20.334 20.526-30.245 1.48 1.688-2.63 15.74-3.241 18.364 0 0 16.509-10.17 22.686-17.285 6.483-12.965 11.577-16.746 18.6-28.088 1.619-3.24 5.4-4.86 7.023-8.102 6.48-11.884 2.699-21.066 8.098-34.568v-12.423"/><path stroke-width="4.321" d="M487.16 666.959c-3.78 12.42-13.504 15.12-24.307 20.52-4.32 2.16-8.1 4.862-13.504 4.862-5.938 0-7.56-7.024-8.64-12.962v-9.184c2.16-7.022 1.623-12.42 6.483-17.283M423.487 681.753c-8.643 2.704-12.424 7.022-21.066 7.022-5.943 0-3.242-8.64-3.242-14.583 0-13.502 1.082-20.524 5.401-34.026 2.7-9.181 7.02-12.964 11.343-20.526"/><path stroke-width="4.321" d="M400.618 657.537c-4.706-.95-25.927 9.668-32.41 8.645-.678-25.738 4.917-57.004 18.903-79.4 6.128-9.81 39.185-20.53 51.311-20.522M597.47 661.128c-17.327 9.784-18.36 33.17-18.367 50.768-5.505.686-5.492-1.845-9.72-2.699-3.645 16.053-5.669 32.796-5.4 49.155-9.185 6.2-11.496-1.802-17.827-5.943-16.525-10.816-13.933-25.819-24.304-36.188"/></g><path fill="#fff100" d="M515.262 633.473c-8.101 3.24-14.041 4.859-22.684 4.859-9.723 0-14.043-9.18-15.666-18.903v-10.802c8.105 10.265 8.105 25.388 21.065 25.388 6.485 0 10.805-2.16 17.285-.542"/><path fill="none" stroke="#fff100" stroke-linecap="round" stroke-miterlimit="3.864" stroke-width="6.481" d="m560.631 600.528 14.046-15.127M551.303 593.451l10.805-12.965M541.187 585.401l4.323-7.561M591.962 646.974l19.44-1.079M589.8 638.332l16.201-2.157M549.143 529.716l-7.957-32.891"/><path fill="#fff100" d="M577.844 438.868c-1.079 1.08-1.079 3.781-3.239 3.781-12.423 0-18.366-8.103-30.789-8.103-11.88 0-17.282 8.642-29.166 10.262 5.943-2.7 9.184-4.86 14.046-7.56 3.24-1.62 7.561-2.702 7.561-6.483 0-7.022-8.103-10.263-15.122-10.263-11.886 0-18.906 1.081-30.792 4.32 5.404-3.239 9.724-4.859 16.206-4.859 5.943 0 14.586 1.62 14.586-4.32 0-4.862-4.864-7.025-7.564-10.803-8.642-12.423-16.206-18.906-23.228-32.407 3.242 5.398 6.483 8.1 10.808 11.881 10.8 9.721 14.58 18.364 25.383 28.087 0-2.702-1.082-4.322-1.082-7.024 0-4.86 1.624-7.019 1.624-11.879 0-3.783-.542-5.943-.542-9.723 1.081 1.62 2.7 3.78 3.241 5.401v19.984c1.62 9.721 7.561 12.962 17.282 18.364l-1.618-27.548c3.24 10.805.54 18.905 6.482 27.548 5.944 8.642 17.283 5.94 25.923 11.344"/><path d="M0 0c-1.079 1.079-1.079 3.781-3.239 3.781-12.423 0-18.366-8.103-30.789-8.103-11.881 0-17.282 8.642-29.166 10.262 5.943-2.701 9.184-4.861 14.046-7.561 3.239-1.62 7.561-2.701 7.561-6.482 0-7.022-8.103-10.263-15.122-10.263-11.886 0-18.906 1.081-30.792 4.32 5.404-3.239 9.724-4.859 16.206-4.859 5.943 0 14.586 1.62 14.586-4.321 0-4.861-4.864-7.024-7.564-10.802-8.642-12.423-16.206-18.906-23.228-32.407 3.242 5.398 6.483 8.1 10.808 11.881 10.8 9.721 14.58 18.364 25.383 28.087 0-2.702-1.082-4.322-1.082-7.024 0-4.86 1.624-7.019 1.624-11.879 0-3.783-.542-5.943-.542-9.723 1.081 1.62 2.699 3.78 3.241 5.401v19.984c1.62 9.721 7.561 12.962 17.282 18.364l-1.618-27.548c3.239 10.805.54 18.905 6.482 27.548C-19.979-2.702-8.64-5.404 0 0" style="fill:none;stroke:#000;stroke-width:1.08;stroke-linecap:round;stroke-linejoin:round;stroke-miterlimit:3.864" transform="translate(577.844 438.868)"/><path fill="#fff100" fill-rule="evenodd" d="M624.274 496.8c0 10.802.537 16.204-1.618 27.006l3.778-15.122v-19.446c1.08 0 1.619-1.081 2.7-1.081 6.482 0 6.482 8.106 10.263 12.966 5.4 7.021 10.262 10.8 14.583 18.363 3.78 6.482 1.08 12.423 2.7 19.984v-12.421c8.642 2.697 10.265 10.261 17.284 15.123 11.884 8.098 19.445 12.96 28.627 24.844-5.941-7.022-8.101-12.96-14.583-19.985-8.643-9.721-17.825-12.42-24.844-24.846 4.317-.539 7.019 0 11.342 0 14.583 0 22.686 5.941 37.269 5.941h-6.483c-3.78 0-5.942-2.158-9.184-3.781-10.802-5.401-18.363-8.642-30.786-6.482-6.483 1.081-11.186-6.904-13.35-12.845-3.238-8.103-5.554-11.999-12.575-16.321 2.16-.54 2.699-1.076 4.86-1.076 10.262 0 15.666 1.617 25.926 5.398h21.605c-16.743-5.398-25.383-4.322-42.13-8.642-12.963-3.241-24.302-5.943-27.002-18.906-1.084-6.477-2.704-10.26-6.485-15.122-1.62-2.158-5.94-4.859-8.101-3.239-2.7 1.619.537 7.02 2.16 10.261 8.643 14.044 14.044 23.225 14.044 39.429"/><path d="M0 0c0 10.802.537 16.204-1.618 27.006L2.16 11.884V-7.562c1.081 0 1.619-1.081 2.7-1.081 6.482 0 6.482 8.106 10.263 12.966 5.401 7.021 10.262 10.8 14.583 18.363 3.78 6.482 1.081 12.423 2.701 19.984V30.249c8.641 2.697 10.264 10.261 17.283 15.123 11.884 8.098 19.445 12.96 28.627 24.844-5.941-7.022-8.101-12.96-14.583-19.985-8.643-9.721-17.825-12.42-24.844-24.846 4.317-.539 7.019 0 11.342 0 14.583 0 22.686 5.941 37.269 5.941h-6.483c-3.78 0-5.942-2.158-9.184-3.781-10.802-5.401-18.363-8.642-30.786-6.482-6.483 1.081-11.186-6.904-13.349-12.845C24.46.115 22.144-3.781 15.123-8.103c2.16-.54 2.699-1.076 4.861-1.076 10.261 0 15.665 1.617 25.925 5.398h21.605c-16.743-5.398-25.383-4.322-42.129-8.642-12.964-3.241-24.303-5.943-27.003-18.906-1.084-6.477-2.704-10.26-6.485-15.122-1.62-2.158-5.94-4.859-8.101-3.239-2.699 1.619.537 7.02 2.161 10.261C-5.401-25.385 0-16.204 0 0" style="fill:none;stroke:#000;stroke-width:1.08;stroke-linecap:round;stroke-linejoin:round;stroke-miterlimit:3.864" transform="translate(624.274 496.8)"/><path d="M444.29 474.241c1.619-1.082 3.78-1.618 5.942-1.618 11.88 0 18.903 2.7 30.784 3.241 14.585 1.08 26.469 3.78 32.947 16.743 1.08 2.16 3.24 4.86 2.162 7.02-2.162 3.782-7.022-2.698-10.802-4.323-7.561-3.778-11.881-5.397-19.445-9.719-14.583-8.103-24.846-11.344-41.587-11.344"/><path d="M0 0c1.618-1.082 3.779-1.618 5.941-1.618 11.881 0 18.903 2.699 30.784 3.241 14.585 1.079 26.469 3.78 32.947 16.743 1.081 2.16 3.241 4.859 2.162 7.019-2.162 3.783-7.022-2.697-10.802-4.322-7.561-3.778-11.881-5.397-19.445-9.719C27.004 3.241 16.741 0 0 0" style="fill:none;stroke:#000;stroke-width:1.08;stroke-linecap:round;stroke-linejoin:round;stroke-miterlimit:3.864" transform="translate(444.29 474.241)"/></g></svg>