<svg xmlns="http://www.w3.org/2000/svg" width="933.333" height="933.333" viewBox="0 0 933.333 933.333"><clipPath id="a"><path d="M0 1080h1080V0H0z"/></clipPath><g fill-rule="evenodd" clip-path="url(#a)" transform="matrix(1.33333 0 0 -1.33333 -253.333 1186.667)"><path d="M540 190c192.773 0 350 157.227 350 350S732.773 890 540 890 190 732.773 190 540s157.227-350 350-350"/><path fill="#fff" d="M540 205.03c184.495 0 334.97 150.475 334.97 334.97S724.495 874.97 540 874.97 205.03 724.494 205.03 540 355.505 205.03 540 205.03"/><path fill="#e1061b" d="M540 219.345c176.61 0 320.655 144.045 320.655 320.655S716.61 860.655 540 860.655c-176.611 0-320.655-144.044-320.655-320.655S363.389 219.345 540 219.345"/><path fill="#fff" d="M540 319.547c121.421 0 220.453 99.032 220.453 220.453S661.421 760.453 540 760.453 319.547 661.422 319.547 540 418.579 319.547 540 319.547"/><path d="M465.242 347.468a205 205 0 0 1 18.204-6.12 62 62 0 0 0-.312 6.208c0 17.557 7.384 33.39 19.212 44.569l-11.742 13.513c-15.597-14.468-25.363-35.135-25.363-58.082zm-68.07 62.874c7.898 10.202 15.035 21.387 21.53 32.44 8.776 14.936 16.745 30.469 23.818 46.282 10.309 23.045 20.459 46.11 29.535 69.676 8.387 21.778 15.88 44.018 22.249 66.47 3.528 12.442 6.39 24.815 11.643 36.697 6.295 14.243 15.74 26.939 29.35 34.956 9.29 5.473 18.416 8.02 29.06 8.863 24.678 1.957 48.665-9.573 63.606-29.117l2.3-3.008c9.825-1.225 20.166-3.542 29.658-5.222-16.352-8.232-26.715-14.951-33.506-28.474-5.161-10.28-3.044-19.42 1.72-29.376 4.514-9.43 8.76-18.99 11.535-29.094 5.657-20.603 4.21-44.01-5.744-63.102-23.424-44.92-75.38-65.204-122.578-75.78l13.624-18.2a79.3 79.3 0 0 0 19.483 2.417c42.54 0 77.254-33.552 79.129-75.63a205 205 0 0 0-17.902-6.96 62 62 0 0 1 .094 3.376c0 33.86-27.46 61.32-61.321 61.32a61 61 0 0 1-25.945-5.75l-36.977 49.403 9.188 4.91c25.78 13.778 49.96 32.106 66.769 56.317 11.484 16.545 17.339 34.188 12.886 54.189-1.571 7.053-4.476 13.593-7.445 20.144-5.01 11.049-9.323 20.96-10.654 33.218-2.283 21.025 12.065 38.982 30.595 47.086 7.213 3.155 15.054 4.942 23.058 5.704-10.954 9.6-25.396 14.963-40.158 13.792-7.93-.63-14.454-2.356-21.393-6.443-10.293-6.063-17.317-16.028-22.067-26.773-4.85-10.975-7.53-22.836-10.794-34.344-6.516-22.977-14.182-45.734-22.765-68.02-9.191-23.862-19.461-47.218-29.9-70.553-7.341-16.413-15.614-32.534-24.724-48.038-4.621-7.863-9.542-15.764-14.81-23.376z"/><path fill="#e1061b" d="M615.696 656.648c-8.916.02-17.894-1.256-25.654-4.649-11.2-4.899-21.395-15.697-19.977-28.76 1.095-10.083 5.035-18.658 9.163-27.765 3.513-7.75 6.753-15.287 8.613-23.64 5.544-24.9-1.31-47.62-15.653-68.283-8.988-12.947-19.818-24.369-31.837-34.428 31.796 10.81 62.424 28.171 77.71 57.483 7.855 15.066 8.81 33.865 4.354 50.09-2.48 9.035-6.385 17.677-10.419 26.108-7.213 15.072-9.319 29.703-1.57 45.131a63 63 0 0 0 5.27 8.713"/><g fill="#fff"><path d="m461.224 827.696 13.453 3.198 13.43-56.503-13.452-3.198zM503.993 300.788l13.702-1.86-7.812-57.549-13.702 1.86zM629.999 825.695l-2.67-12.23-16.64 3.629-9.702-44.496-13.509 2.948 9.702 44.494-16.406 3.578 2.667 12.23zM591.874 301.73l1.457-12.432-16.916-1.984 5.307-45.232-13.736-1.61-5.304 45.232-16.676-1.957-1.459 12.43zM700.823 720.91l25.08-25.393 8.91 8.79-15.355 15.564 32.29 31.86-9.712 9.844zM355.805 751.764c-1.894 2.078-4.715 2.49-8.102-.595l-5.206-4.744 6.838-7.505 5.937 5.41c2.69 2.45 2.427 5.355.533 7.434m15.56-14.953c-1.866 2.05-5.568 2.945-8.604.18l-6.375-5.81 8.291-9.099 6.228 5.675c4.094 3.73 2.326 7.007.46 9.054m-47.532 9.567 17.677 16.055c4.488 4.077 7.795 5.504 12.276 5.343 3.486-.125 7.455-1.497 10.197-5.253 3.285-4.502 4.243-8.817 2.3-13.43 5.601 1.774 11.874.671 15.908-3.41 4.202-4.252 5.564-9.16 5.196-13.33-.487-5.534-4.037-10.158-8.198-13.98l-16.24-14.925zM421.35 793.042c-1.164 2.332-4.4 4.363-8.385 2.373l-7.158-3.575 5.35-10.716 6.982 3.486c4.622 2.307 4.376 6.1 3.212 8.432m-33.595 3.997 20.303 10.137c3.624 1.696 8.406 3.274 13.137 2.441 4.445-.782 9.587-4.107 12.007-9.816 2.664-6.285 2.377-13.112-2.837-18.848l24.84-15.15-14.612-7.296-20.84 13.519-3.245-1.62 9.562-19.151-12.371-6.177zM680.645 790.632c-7.845 4.535-18.147 1.396-23.006-7.009-4.857-8.405-2.435-18.898 5.409-23.433 7.845-4.536 18.148-1.397 23.006 7.008s2.437 18.9-5.41 23.434m6.327 10.945c14.45-8.353 19.394-26.843 11.041-41.293-8.351-14.448-26.843-19.393-41.291-11.04-14.45 8.352-19.393 26.843-11.041 41.292s26.843 19.393 41.292 11.041M542.827 821.573c-3.539 2.903-7.868 5.39-12.367 4.766-2.546-.354-4.793-1.286-5.683-3.635-.807-2.131.215-4.23 2.314-5.335 1.79-.942 3.685-1.402 5.666-1.765 4.393-.805 8.592-1.833 12.535-3.984 1.694-.924 3.274-2.038 4.547-3.432 3.062-3.355 4.304-7.893 3.557-13.511-.7-5.268-3.923-9.525-8.013-12.231-3.964-2.623-9.266-3.983-13.99-3.896-8.38.152-14.85 3.864-20.9 9.222l8.57 10.476c3.901-3.29 8.544-6.435 13.67-6.41 2.111.01 3.947.44 5.412 1.604 1.35 1.072 1.744 2.603 1.474 3.873-.829 3.899-6.17 4.337-9.315 4.913-3.577.833-7.044 1.902-10.29 3.612-5.275 2.779-8.999 7-9.21 13.113-.372 10.716 7.477 18.698 17.811 20.139 8.68 1.21 16.968-1.964 22.76-7.815zM455.42 314.809c10.166-3.665 17.235-11.486 19.064-22.166l-12.577-2.628c-.815 6.014-4.873 10.584-10.668 12.673-8.524 3.073-18.276-1.78-21.569-10.913s1.241-18.756 9.765-21.828c6.82-2.46 14.118.174 18.195 5.08l8.88-8.491c-7.97-8.948-19.692-13.072-31.653-8.76-5.887 2.123-11 5.61-14.434 10.31-5.72 7.837-7.285 18.56-3.748 28.373 5.661 15.7 23.044 24.01 38.744 18.35M658.253 289.515l9.819-22.376-12.662-5.557-9.743 22.202-33.21 22.567 14.875 6.527 18.773-13.017 3.17 22.648 14.85 6.517z"/></g><path fill="#e1061b" d="M383.84 603.591c-1.136 0-2.229-.569-2.229-1.822 0-1.226 1.121-1.823 2.23-1.823s2.228.597 2.228 1.823c0 1.253-1.094 1.822-2.229 1.822m0-9.305c-1.455 0-2.822-.739-2.822-2.327 0-1.45 1.5-2.328 2.822-2.328 1.321 0 2.821.877 2.821 2.328 0 1.588-1.367 2.327-2.82 2.327m-5.72 3.422c-1.287 1.212-2.029 2.84-2.029 4.657 0 4.506 3.507 6.786 7.748 6.786s7.747-2.28 7.747-6.786c0-1.817-.742-3.444-2.028-4.656 1.934-1.327 2.862-3.4 2.862-5.807 0-4.74-4.205-7.327-8.58-7.327-4.376 0-8.58 2.587-8.58 7.327 0 2.405.927 4.48 2.86 5.806m-15.466 5.233h-2.426v5.432h8.457V585.2h-6.03zm46.224-10.036c2.738-.084 5.554 1.79 5.554 4.71 0 3.386-2.134 5.24-5.446 5.24-2.807 0-5.292-1.956-5.292-4.886 0-2.875 2.394-4.977 5.184-5.064m5.535-4.068c-2.294-1.983-5.262-2.67-8.369-2.249-5.827.792-9.685 5.13-9.685 11.023 0 7.087 5.667 12.221 12.627 12.221 9.371 0 14.22-7.635 13.538-16.374-.936-12.017-7.594-18.134-19.728-18.863l-.567-.034-.027 6.228.495.041c5.73.477 10.455 2.45 11.716 8.007m18.838-.015h7.771v10.588zm7.771-6.642H425.76l-.03 5.92 15.557 21.446h6.737v-20.724h5.672v-6.642h-5.672v-7.685h-7zm-80.597-1.654h31.692v-5.277h-31.692z"/></g></svg>