<svg xmlns="http://www.w3.org/2000/svg" viewBox="0 0 300 300"><path fill="#dba111" d="M299.995 149.963c0 82.778-67.167 149.945-149.945 149.945S.105 232.741.105 149.963C-.038 67.186 67.129.018 150.05.018c82.778 0 149.945 67.168 149.945 149.945"/><path fill="#034694" d="M294.983 149.963c0 80.057-64.876 144.933-144.933 144.933S5.117 230.02 5.117 149.963 69.85 5.031 150.05 5.031c80.057 0 144.933 64.876 144.933 144.932"/><path fill="#dba111" d="M253.307 149.963c0 57-46.258 103.258-103.4 103.258-57 0-103.4-46.258-103.4-103.258.142-56.999 46.4-103.257 103.543-103.257 57 0 103.257 46.258 103.257 103.257"/><path fill="#fff" d="M250.157 149.963c0 55.281-44.826 100.25-100.25 100.25-55.28 0-100.25-44.826-100.25-100.25s44.826-100.25 100.25-100.25c55.424.144 100.25 44.97 100.25 100.25"/><g fill="#dba111"><path d="M64.122 236.465c1.145 1.002 3.866 3.723 3.866 3.723l2.578-2.72-7.733-7.448-1.003 1.002-10.454 11.028 4.01 3.724s3.293-3.58 4.582-4.87c1.003 1.003 3.437 3.294 3.437 3.294l2.578-2.72s-2.434-2.292-3.437-3.295c.573-.716 1.003-1.002 1.576-1.718M82.883 248.924c-.287-2.148-1.576-4.01-3.294-5.299s-3.867-1.718-6.015-1.432c-2.292.43-4.297 1.719-5.729 3.724s-2.005 4.44-1.575 6.588c.286 2.148 1.575 4.01 3.294 5.155 1.718 1.29 3.866 1.719 6.015 1.432 2.291-.43 4.296-1.718 5.728-3.723a9 9 0 0 0 1.719-5.299c0-.143 0-.573-.143-1.146m-11.171 5.872c-1.862-1.289-.287-4.01.716-5.442s3.15-3.867 4.87-2.578c1.861 1.289.142 4.296-.717 5.442-.716 1.29-2.864 4.01-4.87 2.578M95.199 253.077c-4.153-2.148-9.022-.43-11.314 4.01-1.146 2.149-1.289 4.583-.573 6.875.716 2.005 2.148 3.723 4.01 4.726 2.005 1.002 4.153 1.145 6.158.43 2.149-.717 4.01-2.292 5.156-4.583 2.292-4.297.716-9.31-3.437-11.458m-4.583 12.317c-.43.143-1.002.143-1.432-.143-.86-.43-1.146-1.146-1.146-2.005 0-1.146.573-2.578 1.003-3.437.86-1.576 2.578-4.154 4.44-3.151.572.286.859.573 1.002 1.146.286 1.002 0 2.72-.86 4.44-.859 1.575-2.004 2.863-3.007 3.15M103.935 259.236l-.716 2.148s2.005.716 2.578.86c-.716 2.147-4.297 12.172-4.297 12.172l5.156 1.862s3.437-9.882 4.297-12.03c.572.143 2.577.86 2.577.86l1.29-3.58-10.312-3.581zM125.417 263.962l-7.017-1.432-.287 1.432-3.15 14.894 7.16 1.575c2.292.43 3.724-.143 4.583-.573 1.146-.716 1.862-1.861 2.148-3.293.144-.43.144-.717.144-1.146 0-1.003-.287-1.862-.86-2.721.86-.573 1.432-1.576 1.576-2.721 0-.287.143-.573.143-1.003-.143-1.862-1.146-4.296-4.44-5.012m-2.005 11.457c-.143.286-.143.86-.43 1.002s-.716.144-1.288 0c0 0-.287 0-.573-.143.286-1.002.43-1.718.573-2.864.286.143.716.143.716.143.859.143 1.145.86 1.145 1.432 0 .143-.143.287-.143.43m-.43-8.02c.573.143 1.003.43 1.29.573.143.143.143.286.143.43v.429c-.144.43-.287 1.002-1.432.86 0 0-.144 0-.287-.144 0-.716 0-1.289.287-2.148M138.306 266.396l-7.59 15.61 4.296.287s1.146-2.435 1.576-3.437c.86.143 1.862.143 2.72.143.287 1.003 1.147 3.724 1.147 3.724l5.728.43-6.444-20.05zM155.349 278.856c-.143-2.291-.573-12.603-.573-12.603l-5.442.287.716 16.612 11.027-.43-.143-4.01c0-.142-4.01.144-5.585.144M170.386 277.28c-.286-2.29-2.005-12.459-2.005-12.459l-1.432.286-4.01.573 2.578 16.47 10.884-1.719-.573-4.01s-3.866.573-5.442.86M201.893 266.253c0 1.432-.859 2.721-2.148 3.15a2.8 2.8 0 0 1-2.148 0c-1.002-.429-2.005-1.575-2.578-3.15-.716-1.718-.86-3.294-.43-4.296.287-.716.86-1.29 1.862-1.719s2.005 0 3.294.716l1.29.716 2.004-3.15-1.146-.86c-2.148-1.432-4.869-1.718-7.303-.859-2.149.86-3.867 2.578-4.727 4.583-.859 2.148-.859 4.583 0 6.874 1.719 4.297 6.732 6.445 11.028 4.726q4.726-1.933 5.156-6.874l.143-1.432-4.01-.287zM214.64 261.67c-1.146-2.005-6.159-11.027-6.159-11.027l-1.289.716-3.58 2.005 8.163 14.464 9.596-5.298-2.005-3.438c.143-.143-3.294 1.862-4.727 2.578M225.38 239.329l-1.145.86-2.005 1.575 6.73 9.165c.287.43.287.716.287.86 0 .43-.573 1.002-1.002 1.288-.143.144-.716.287-1.146.287-.286 0-.573-.287-.86-.573l-6.587-9.022-4.44 3.293 6.588 9.023c1.003 1.289 2.148 2.148 3.58 2.291 1.576.287 3.438-.286 5.156-1.575 3.437-2.578 3.437-5.872 1.862-8.02zM245.574 236.035c-1.003-1.003-2.292-1.575-3.58-1.432-.144-1.003-.43-2.005-1.29-2.864-1.432-1.433-4.44-2.578-7.303.286l-5.156 5.012 11.6 11.887 5.156-5.012c1.718-1.576 2.005-3.151 2.005-4.153 0-1.433-.43-2.722-1.432-3.724m-8.736-.43c.143.144.43.43.43.716s-.144.573-.574.86l-.286.286c-.716-.716-1.002-1.002-1.575-1.718 1.145-1.003 1.575-.573 2.005-.144m2.72 4.01c1.003-.859 1.862-.143 2.149.144s.573.572.573.859-.287.716-.716 1.146l-.43.43c-.716-.717-1.289-1.29-2.005-2.149z"/></g><g fill="#fff"><path d="M64.122 234.89c.43.429 3.866 3.723 3.866 3.723l1.146-1.146-6.158-5.872-.287.287-9.738 10.168 2.435 2.291s4.153-4.296 4.582-4.869c.43.43 3.437 3.294 3.437 3.294l1.146-1.146s-3.007-2.864-3.437-3.294c.286-.572 2.578-3.007 3.008-3.437M79.016 244.628c-1.576-1.146-3.437-1.576-5.156-1.29-2.005.287-3.723 1.576-5.012 3.295s-1.719 3.867-1.433 5.872c.287 1.861 1.29 3.437 2.865 4.582s3.437 1.576 5.155 1.29c2.005-.287 3.724-1.433 5.013-3.295 1.002-1.432 1.575-3.007 1.575-4.582 0-.43 0-.86-.143-1.146-.286-2.005-1.289-3.58-2.864-4.726m-1.432 8.306c-1.003 1.432-3.724 4.726-6.445 2.721-2.721-1.861-.573-5.585.43-7.017s3.723-4.726 6.444-2.721.573 5.585-.43 7.017M94.77 254.08c-3.581-1.862-7.877-.286-9.882 3.58-1.003 2.005-1.146 4.01-.573 6.015.573 1.719 1.862 3.151 3.58 4.01s3.58 1.003 5.299.43c1.862-.573 3.437-2.005 4.44-4.01 2.005-3.867.716-8.163-2.865-10.025m-6.158 12.173c-3.007-1.432-1.432-5.442-.573-7.017s3.008-5.156 6.015-3.724c.716.43 1.29 1.003 1.576 1.719.572 1.718-.43 4.01-1.003 5.299-.573 1.145-1.862 3.293-3.723 3.866-.716.287-1.576.287-2.292-.143M104.938 259.522l-.43 1.146s2.005.716 2.578.86c-.287.715-4.297 12.03-4.297 12.03l3.151 1.145s4.01-11.457 4.296-12.03c.573.143 2.578.86 2.578.86l.573-1.576-8.306-2.865zM125.13 265.107l-5.871-1.288-.143.43-2.865 13.748 6.015 1.289q2.364.43 3.867-.43 1.29-.86 1.719-2.578c0-.286.143-.573.143-.86 0-1.145-.573-2.29-1.719-3.007 1.29-.286 2.149-1.289 2.435-2.578 0-.143.143-.43.143-.716-.143-1.432-.859-3.437-3.723-4.01m-2.005 1.146c1.002.143 1.718.573 2.005 1.146.143.286.286.716.286 1.146 0 .143 0 .43-.143.716-.43 1.861-1.862 1.861-2.721 1.575 0 0-.86-.143-1.432-.286.143-.573.859-3.867.859-4.44a5.4 5.4 0 0 0 1.146.143m-.573 6.158c1.718.287 2.005 1.719 2.005 2.435v.573c-.143.86-.43 1.289-1.003 1.575-.43.287-1.145.43-2.148.143 0 0-1.146-.286-1.718-.286.143-.573 1.002-4.44 1.002-5.013.716.287 1.862.573 1.862.573M139.309 266.97l-6.874 14.177 2.005.144s1.432-3.008 1.718-3.438c.43 0 3.867.287 4.153.287.144.43 1.146 3.723 1.146 3.723l3.437.287-5.155-15.897zm-.86 5.585c.287 1.002 1.003 3.15 1.146 3.723-.716 0-2.291-.143-2.864-.286.286-.43 1.289-2.435 1.719-3.437M154.346 280.002c0-.716-.572-12.603-.572-12.603h-.287l-3.007.143.572 14.465 8.88-.43-.143-1.862s-4.87.287-5.443.287M169.527 278.57c-.143-.717-2.005-12.46-2.005-12.46h-.286l-2.865.43 2.292 14.321 8.736-1.432-.287-1.719c-.143 0-5.012.716-5.585.86M202.896 266.253c0 1.862-1.146 3.437-2.864 4.153q-1.504.645-3.008 0c-1.289-.573-2.578-1.861-3.294-3.723q-1.289-3.008-.43-5.156c.43-1.002 1.29-1.718 2.435-2.291 1.576-.573 3.008.143 4.297.859l.286.143.86-1.432-.287-.143c-1.862-1.29-4.296-1.576-6.301-.716-1.862.716-3.438 2.148-4.154 4.01-.859 1.862-.859 4.01 0 6.015 1.576 3.866 5.872 5.728 9.596 4.153 2.72-1.146 4.153-3.008 4.44-5.872v-.43l-1.72-.143zM214.21 263.102c-.287-.572-6.158-11.027-6.158-11.027l-.287.143-2.578 1.432 7.018 12.603 7.733-4.296-.859-1.576c0 .144-4.296 2.435-4.87 2.721M225.094 240.761l-.286.286-1.146.86 6.158 8.306q.645.86.43 1.719c-.143 1.002-1.003 1.718-1.432 2.005s-1.29.573-2.005.43c-.573-.144-1.146-.43-1.576-1.003l-6.015-8.163-2.72 2.005 6.014 8.163c.86 1.146 1.719 1.718 2.865 1.862 1.718.286 3.437-.716 4.296-1.29 2.864-2.147 2.864-4.725 1.719-6.444zM244.714 236.751c-1.145-1.146-2.577-1.432-4.01-.86.144-.286.144-.715.144-1.002 0-.859-.287-1.718-1.003-2.434-.86-1.003-3.294-2.149-5.728.286l-4.297 4.153 10.025 10.312 4.44-4.297q1.718-1.718 1.718-3.437c0-1.002-.43-1.862-1.289-2.72m-6.444-.43c0 .715-.43 1.288-.86 1.718l-1.002 1.002c-.43-.43-2.721-2.864-3.15-3.293l.715-.717c1.29-1.288 2.578-1.432 3.58-.286.574.573.717 1.003.717 1.575m2.72 7.447c-.429-.43-3.15-3.294-3.58-3.724l1.29-1.289c1.718-1.719 3.58.143 3.58.143q.86.86.86 1.719c0 .859-.287 1.289-1.003 1.862.143.143-.717 1.002-1.146 1.289"/></g><path fill="#dba111" d="m83.312 51.146-6.015 1.718.716 2.148c.86 2.578.144 5.443-2.005 7.161-1.145 1.003-2.434 1.432-3.866 1.432-2.149-.143-4.727-1.575-6.732-3.866-2.29-2.722-3.437-5.156-3.293-7.304.143-1.576.859-3.008 2.291-4.297 1.575-1.432 3.724-1.432 6.445-.86l2.005.43 1.289-5.871-1.862-.43c-4.44-1.146-9.166 0-12.46 2.864C53.237 50 52.808 59.31 58.536 66.04c5.442 6.158 14.894 6.874 20.91 1.575 4.44-3.866 6.014-8.736 4.44-14.321zM99.782 20.784l-6.158 2.865s3.437 7.304 4.582 9.881c-1.718.86-3.437 1.576-5.298 2.435-1.146-2.578-4.583-9.882-4.583-9.882l-8.163 3.867 12.46 26.351 8.162-3.866s-3.866-8.164-5.155-10.741c1.718-.86 3.437-1.576 5.299-2.435C102.216 41.837 106.083 50 106.083 50l8.163-3.867-12.46-26.351zM127.422 37.11c-.43-2.004-.86-4.01-1.146-5.871 2.578-.573 9.166-1.862 9.166-1.862l-1.146-5.872s-6.73 1.29-9.165 1.862a65 65 0 0 1-1.003-5.156c2.578-.572 9.739-2.005 9.739-2.005l-1.146-5.871-2.148.43-16.47 3.293 5.729 28.5 18.76-3.58-1.145-5.872c-.143 0-7.447 1.432-10.025 2.005M154.06 11.762l-9.023-.143v2.148l-.572 26.924 18.904.43.143-6.302s-7.304-.143-9.882-.143c0-3.723.43-22.914.43-22.914M183.276 26.37c-2.292-1.719-3.008-2.435-2.721-3.294.143-.43.716-2.005 2.291-1.576 1.002.287 2.005.86 2.435 3.008l.43 2.435 6.014-2.005-.43-1.862c-.715-3.724-3.866-6.875-7.733-7.734-2.864-.716-5.585-.286-7.877 1.003a9.02 9.02 0 0 0-4.153 5.585c-1.432 6.015 2.578 8.88 5.156 10.741 2.72 2.005 3.437 2.721 3.007 4.297-.143.572-.43.859-.859 1.145-.573.287-1.289.43-1.719.287-1.432-.287-2.005-1.003-2.72-2.865l-.717-2.291-6.015 2.435.573 1.861c1.146 3.724 3.867 6.015 8.163 7.161 4.87 1.289 10.885-1.002 12.317-6.874 1.575-6.158-2.578-9.31-5.442-11.457M204.9 41.98c2.292 1.146 8.45 4.296 8.45 4.296l2.578-5.442s-6.158-3.15-8.45-4.296a68 68 0 0 0 2.292-4.583c2.435 1.146 8.88 4.44 8.88 4.44l2.72-5.3-16.899-8.592-1.002 2.005-12.03 24.06 17.042 8.593 2.721-5.3s-6.588-3.293-9.022-4.582c.86-1.719 1.718-3.58 2.72-5.299M238.556 44.701l-27.21 14.035 5.155 4.583s4.44-2.435 6.158-3.294c1.146 1.002 3.008 2.578 4.154 3.58-.573 1.719-2.292 6.588-2.292 6.588l7.16 6.158 11.601-34.228z"/><path fill="#fff" d="m82.31 53.007-3.151.86.286.716c1.003 3.15.144 6.588-2.434 8.736-1.432 1.289-3.15 1.862-5.013 1.718-2.578-.143-5.442-1.718-7.733-4.296-2.578-3.007-3.867-5.872-3.724-8.45.143-2.005 1.146-3.723 2.864-5.298 2.292-2.005 5.156-1.576 7.734-1.146l.716.143.716-3.007-.716-.144c-4.01-1.002-8.163 0-11.17 2.578-5.872 5.156-6.445 13.605-1.146 19.764 4.869 5.585 13.319 6.158 18.904 1.432 4.01-3.58 5.299-7.877 4.01-12.746zM100.498 22.073l-4.87 2.292s4.154 8.736 4.583 9.881c-1.002.43-6.874 3.294-7.876 3.724-.573-1.146-4.583-9.882-4.583-9.882l-5.585 2.578 11.17 23.774 5.586-2.578s-4.583-9.596-5.156-10.741c1.002-.43 6.874-3.151 7.877-3.724.572 1.146 5.155 10.741 5.155 10.741l5.586-2.578-11.171-23.773zM126.276 38.83c-.286-1.146-1.575-7.591-1.718-8.737 1.146-.286 9.166-1.862 9.166-1.862l-.573-3.007s-8.02 1.575-9.166 1.862c-.286-1.146-1.432-6.875-1.575-7.877 1.289-.286 9.738-2.005 9.738-2.005l-.716-3.008-15.753 3.151 5.155 25.636 16.04-3.151-.716-3.008s-8.593 1.719-9.882 2.005M152.628 13.194l-6.158-.143v.716l-.573 25.492 16.04.286.143-3.437s-8.736-.143-9.882-.143c0-1.289.43-22.771.43-22.771M183.276 20.068c2.005.43 3.007 1.719 3.58 4.153l.143.86 3.15-1.146-.142-.573c-.573-3.15-3.294-5.872-6.731-6.73-2.435-.574-4.87-.287-6.875.858-1.718 1.003-3.007 2.721-3.58 4.726-1.289 5.013 2.005 7.304 4.583 9.166s4.296 3.15 3.58 5.872c-.286 1.146-1.002 1.719-1.575 2.148-.86.573-2.005.716-2.864.43-1.862-.43-2.865-1.576-3.724-3.867l-.286-.716-3.294 1.289.143.573c1.002 3.15 3.294 5.155 7.16 6.158 4.297 1.002 9.31-.86 10.598-5.872 1.29-5.299-2.148-7.877-5.012-9.882-2.435-1.718-3.867-2.864-3.294-4.869.716-1.718 2.148-3.15 4.44-2.578M209.197 30.093l8.88 4.44 1.432-2.721-14.322-7.304-.286.716-11.457 22.771 14.464 7.304 1.433-2.721s-7.877-4.01-9.023-4.583c.573-1.002 3.437-6.874 4.01-8.02 1.146.573 8.45 4.296 8.45 4.296l1.432-2.72s-7.304-3.724-8.45-4.297c.287-1.003 3.008-6.158 3.437-7.16M239.272 45.99l-25.205 13.032 2.864 2.435s5.299-2.864 6.158-3.294c.573.573 5.013 4.44 5.729 5.013-.287.859-2.292 6.588-2.292 6.588l4.726 4.153 9.739-28.786zm-13.319 10.741c1.146-.573 4.297-2.148 6.159-3.15-.716 2.004-1.862 5.298-2.292 6.444-1.002-.716-3.007-2.435-3.867-3.294"/><path fill="#d1d3d4" d="M221.657 146.097c-2.005-5.443-9.166-7.877-15.897-5.3-2.864 1.003-5.155 2.865-6.73 4.87 4.439-12.746 22.627-15.467 22.627-27.21 0-19.764-28.07-14.322-24.06 0 0-6.445 10.311-7.591 10.311 0s-17.901 12.745-17.901 25.635c0 14.321 14.321 15.61 12.889 28.642-.287 2.292-2.721 5.156-6.158 5.156-21.912 0-14.035-26.924-21.626-35.087l.43-5.586c4.44 2.721 16.183-3.58 8.45-13.319 0 4.726-9.882 4.44-9.882-4.44 0-12.172 11.314-5.871 11.887-3.15-.573-4.44-.716-7.304 0-9.738-6.159 2.005-6.731-1.576-5.872-3.008.86-1.575 2.005-3.437 4.44-3.437 1.288 0 2.005.143 2.577.43.716.572 1.29-.717 1.146.43.716-1.003.43.286 1.003-.717s1.575-2.148 3.007-3.58v-2.292l1.719.716 1.718-2.72c-1.862-3.867-4.296-2.006-6.158-6.732-1.575-.43-25.635 2.148-24.92-7.447-2.004 0-6.587 1.146-3.723 5.013-2.291.286-3.867-2.292-7.16 4.582 4.153-.859 2.005 3.867 2.005 5.3 0 8.735-11.6 8.592-11.6 4.439-2.722 2.721-1.147 8.593 3.007 10.168 0 0-1.576 6.302-5.586 10.312-5.871-.287-15.324-1.29-20.766-6.445-2.291-2.148-4.153-3.437-5.728-4.01v-2.864c2.291-1.146 4.869-3.151 7.447-6.445 2.005-2.578 3.15-5.728 2.864-9.166 0-.43-.143-.859-.143-1.145 0-.144 0-.287-.143-.43 0-.286-.143-.573-.143-.86 0-.142-.144-.286-.144-.429-.43-.143-.573-.43-.573-.716 0-.143-.143-.286-.143-.286-.143-.287-.286-.716-.43-1.003-.143-.143-.143-.286-.286-.43s-.286-.43-.43-.572-.143-.287-.286-.43-.286-.286-.286-.43l-.43-.43-.286-.286c-.287-.43-.716-.716-1.146-1.002 0 0-.143 0-.143-.143-.287-.144-.43-.43-.716-.573l-.144-.143c-.286-.144-.43-.287-.716-.43-2.434-1.575-5.442-2.292-8.593-2.005-7.59.573-13.318 7.017-12.602 14.178.43 5.585 4.582 10.168 10.025 11.6-1.862 1.003-3.438 1.719-3.867 1.719 0 0 .143.143.286.143h.143c.144 0 .144.143.287.143s.286.144.43.144.286.143.43.143h.142c.287.143.716.286 1.146.43h.143c.144 0 .287.143.573.143h.143c.287 0 .43.143.716.143v1.575h-.286c-2.435.43-4.01 1.146-4.87 3.437-.715 2.149 0 3.008 1.146 4.583-1.002 1.719-3.58 2.435-.143 6.302-.286 1.432 0 3.723 2.148 4.44.717.286 1.29.429 1.862.429v28.93c-2.148 1.145-3.15 2.577-3.723 3.866 0 0-1.719-3.724-1.576 3.723 1.862-1.432 1.146 1.72 1.146 1.72-2.578 3.436.716 3.293.716 3.293 2.292-2.291 1.862 1.002 1.862 1.002 0 4.01 1.575 5.586 1.575 5.586v22.055h-1.862v6.158h3.294a4.71 4.71 0 0 0-3.007 4.726c.286 2.578 2.578 4.583 5.299 4.296s4.726-2.434 4.583-5.155c-.144-1.862-1.29-3.294-3.008-4.01h3.15v-6.158h-1.86v-19.62l1.288.429h.859c-.43-2.578 1.003-4.297 1.003-4.297.86-1.145 1.862-2.148 3.294-2.72 3.867-2.006 9.165-1.433 10.74 1.718 10.026-2.578 18.619-12.746 18.619-12.746l5.012 8.45c-10.598 3.58-33.369 23.487-17.615 30.36 0 2.006-.287 16.9-9.739 15.611-13.748-1.718-17.185 4.01-14.464 10.312-1.29 5.442 2.864 7.304 2.864 7.304-.573-3.151.86-5.729 6.588-5.586 0 5.729 3.58 6.731 3.58 6.731 0-4.869 3.437-6.588 6.445-6.588 0 4.01 4.583 5.586 4.583 5.586s-1.146-4.583 4.01-5.586c13.318-2.291.859-16.04 21.052-19.763 0 0-10.025-1.575-10.025-7.018 0-5.012 9.166-8.45 12.316-8.45 6.445 12.317 13.463 12.46 15.324 12.46 2.865 3.151 1.862 13.892-2.148 13.749-15.037-.86-14.464 8.306-12.89 10.168-.142 3.58 2.579 5.585 2.579 5.585 0-3.866 3.58-4.869 8.306-4.582-.286 4.726 2.721 5.299 2.721 5.299.143-4.727 3.58-5.443 6.015-5.3-.143 3.295 3.008 4.297 3.008 4.297s-.287-4.153 4.01-4.153c8.306 0-3.724-17.902 12.46-35.517-14.322 6.588-21.912-9.882-21.912-13.033 7.303 8.593 31.077 10.312 31.077-4.296 0-14.035-15.324-19.19-8.163-24.633 4.153-3.15 12.46 3.15 7.733 9.739 6.731-2.721 10.455-9.31 8.45-14.751m-91.227.43c-5.442 3.15-9.023 7.16-13.892 8.879-.716.286-1.289.286-1.862.286v-27.354c1.289.143 4.726.573 8.593 2.148 3.867 2.148 3.867 6.588-1.003 7.59 3.151 6.016 13.892 3.008 16.184-1.861 1.145-.143 2.148 2.005 3.15 3.867-1.432 1.002-4.583 2.577-11.17 6.444m60.293-45.4c-.573.86-1.146 1.576-1.719 2.292 1.432 2.291 3.867 3.723 6.731 3.437 3.867-.43 6.731-3.867 6.445-7.734v-.43c-.43 2.006-2.721 3.724-5.872 4.01-2.291.287-4.44-.429-5.585-1.575"/><path fill="#034694" d="M103.792 84.801c0-.143.143-.286.143-.43-.143.144-.143.287-.143.43m.143 114.571s.143 0 0 0m-2.148-.716h3.294c-.43.143-.716.43-1.146.716.286-.143.716-.143 1.003-.143 1.718 0 3.007 1.432 3.007 3.007 0 1.72-1.432 3.008-3.007 3.008-1.433 0-2.578-.86-2.865-2.148v.286c.287 2.578 2.578 4.583 5.3 4.297 2.72-.144 4.725-2.435 4.582-5.156-.143-1.719-1.289-3.294-3.007-3.867h3.15v-6.158h-1.862V173.02c-1.861-1.003-2.864-3.008-2.434-5.156 1.146 0 2.148.287 2.864.716-1.002 2.292 1.575 4.87 1.575 4.87-.43-2.578 1.003-4.297 1.003-4.297.86-1.146 2.005-2.148 3.294-2.721 3.867-2.005 9.166-1.432 10.74 1.719 10.026-2.578 18.619-12.746 18.619-12.746l5.012 8.45c11.6 0 7.59-8.737 6.731-9.453 2.721 0 6.445 2.005 6.445 6.301 0 10.741-31.078 12.174-31.078 25.206 0 5.442 5.443 7.447 5.443 7.447 0 11.744-8.164 18.904-13.606 18.904-8.879 0-15.61-1.861-15.61 7.877h3.15c-3.007 3.008-.143 7.304-.143 7.304-.572-3.15.86-5.728 6.588-5.585h3.58c-2.29 2.291-1.002 5.585.144 6.73 0-4.868 3.437-6.587 6.445-6.587h2.577c-.716.716.43 3.867 2.005 5.585 0 0-1.145-4.582 4.01-5.585 13.32-2.291.86-16.04 21.053-19.764 0 0-10.025-1.575-10.025-7.017 0-5.012 9.166-8.45 12.173-8.45 2.435-.286 4.87-.286 6.874.144.86 7.876 9.882 7.59 11.887 7.59 7.734 7.733-2.005 20.193-2.005 20.193-11.887 0-16.613 1.575-16.613 8.593h2.292c-1.29 1.289-.573 4.726.286 5.585 0-3.866 3.58-4.869 8.306-4.583h2.435c-1.146 1.146-1.002 4.154.287 5.3 0-4.727 3.58-5.443 6.015-5.3h2.005c-.717.717 0 3.151 1.002 4.297 0 0-.286-4.153 4.01-4.153 8.306 0-3.724-17.902 12.46-35.517-14.322 6.587-21.912-9.882-21.912-13.033 7.304 8.593 31.077 10.312 31.077-4.296 0-11.887-11.027-17.33-10.025-22.055.287-3.58 3.294-6.445 7.018-6.445 3.867 0 7.017 3.15 7.017 7.018 0 3.007-1.861 5.442-4.44 6.444 6.732-2.434 10.455-9.022 8.45-14.464-2.148-5.443-9.165-7.877-15.896-5.3-2.865 1.003-5.156 2.865-6.731 4.87 4.44-12.746 22.627-15.467 22.627-27.21 0-19.764-28.07-14.322-24.06 0v-.574c.716-8.02 15.181-9.738 15.181.86 0 9.022-18.475 13.891-18.475 26.065 0 12.46 13.606 15.467 13.606 28.642 0 1.576-.86 8.307-9.882 8.307-8.736 0-12.89-4.87-15.324-11.314-4.44-8.593-2.864-22.055-7.877-27.354l.43-5.585c4.44 2.72 16.183-3.58 8.45-13.32 0 4.727-9.882 4.44-9.882-4.439 0-12.173 11.314-5.872 11.887-3.15-.573-4.44-.716-7.304 0-9.739-6.159 2.005-6.731-1.575-5.872-3.008.86-1.575 2.148-3.437 4.44-3.437 3.437 0 3.293 1.29 3.007 3.008 1.289-2.005 1.719-3.437 4.726-6.445v-2.291l1.719.716 1.718-2.721c-1.862-3.867-4.296-2.005-6.158-6.731-1.575-.43-21.769-2.292-21.052-11.887-1.72 0-6.732 6.158-3.438 9.452h-4.153c-2.291.287-7.447-1.289-10.884 5.585 8.306-8.306 13.605 11.458-1.575 11.458-2.292 0-4.154-1.003-4.297-2.578-1.575 6.73 8.163 8.736 8.163 8.736 0 2.005-4.869 12.746-7.16 15.037 1.575 1.576 2.005 11.17-5.156 11.17 2.578-7.16-5.156-13.175-12.603-17.185-1.289-.573-2.721-1.145-3.867-1.862-4.583-2.148-8.306-3.293-8.306-3.293v-5.586c2.291-1.146 4.87-3.15 7.447-6.444 2.005-2.578 3.15-5.729 2.864-9.166 0-.43-.143-.86-.143-1.146 0-.143 0-.286-.143-.43 0-.286-.143-.572-.143-.859 0-.143-.144-.286-.144-.43-.143-.286-.143-.572-.286-.859 0-.143-.143-.286-.143-.286-.143-.287-.287-.716-.43-1.003 0-.143-.143-.286-.286-.43s-.287-.429-.43-.572c-.143-.716-.286-.86-.286-1.003-.144-.143-.287-.286-.287-.43l-.43-.429c-.143-.143-.286-.286-.429-.286-.286-.43-.716-.716-1.146-1.003l-.143-.143c-.286-.143-.43-.43-.716-.573l-.143-.143c-.287-.143-.43-.287-.716-.43-2.435-1.575-5.442-2.291-8.593-2.005-.716 0-1.29.143-2.005.287-4.44 1.718-7.59 6.73-7.59 12.889 0 5.728 2.864 10.598 6.874 12.603h.143c-1.862 1.002-3.437 1.718-3.867 1.718 0 0 .143.144.287.144s.143.143.286.143h.143c.143 0 .287.143.43.143s.286.143.43.143h.143c.286.143.716.287 1.145.43h.144c.143 0 .286.143.43.143h.143c.286 0 .43.143.716.143 1.432.143 3.15-.286 3.15-.286v3.294c-.286 0-2.578-.716-3.15-1.29h-.287c-2.434.43-4.01 1.147-4.87 3.438-.715 2.148 0 3.007 1.147 4.583-1.003 1.718-3.58 2.434-.144 6.301-.286 1.432 0 3.724 2.149 4.44.716.286 1.289.286 1.861.43 1.29 0 3.151 1.002 3.151 3.723v24.92c1.146 0 2.435.286 3.58.286v-27.497c1.29.143 4.727.572 8.593 2.148 0 0 .144 0 .144.143.43 0 .716.143 1.145.286 2.578.86 4.297 3.151 3.58 5.156-.572 2.005-3.293 3.008-5.871 2.148 3.15 6.015 13.892 3.008 16.183-1.861 1.146-.144 2.148 2.005 3.15 3.866 0 0 2.722 1.003 9.453 1.003 0 0-27.068 17.329-34.944 17.329-3.294 0-10.741 0-10.741 2.578-2.005 0-5.013 3.437-5.013 5.442 1.862-1.576 3.437-1.576 3.437-1.576 1.576 0 2.578.43 2.578.43-.573.573-3.294 3.58-3.294 6.015 2.292-2.291 3.294-2.291 3.294-2.291s2.435-.287 3.15.572c-.572.573-1.575 2.578-1.575 5.013 0 0 1.433-2.721 3.151-2.721v26.065c0 .86-3.58 1.575-5.012 1.575m1.289-75.33c-.717 0-1.003-.86-1.003-1.146s.286-1.146.86-1.289c1.575 0 4.725.716 4.725 1.003s-3.007 1.288-4.582 1.432m-1.146-4.297c-.86 0-1.29-1.289-1.146-1.718 0-.43.573-1.576 1.432-1.576 2.148.144 6.445 1.719 6.445 2.149s-4.44 1.288-6.731 1.145m-.287-5.585c-1.002-.287-1.002-1.719-1.002-2.148.143-.43.86-1.576 1.862-1.432 2.291.572 6.588 3.15 6.444 3.58 0 .573-5.012.716-7.304 0m7.161-15.467c.43-1.003.287-2.292 0-3.58h-.143c-2.864 0-5.013-2.292-5.013-5.013 0-.43 0-1.003.144-1.432.572-2.148 2.577-3.724 4.869-3.724 2.721 0 5.012 2.292 5.012 5.013.144 3.437-2.148 6.444-4.869 8.736"/><path fill="#ed1c24" d="M184.565 99.122c1.288 2.292 3.866 3.724 6.73 3.438 3.867-.43 6.732-3.867 6.445-7.734v-.43c-.43 2.005-2.864 3.724-5.872 4.01-2.291.287-4.296-.43-5.585-1.575-.573.86-1.146 1.575-1.718 2.291"/><path fill="#fff" d="m175.112 85.947 2.435.143-1.289 1.718c.143 0-1.432.573-1.146-1.861m-5.728 0h3.58s-.143 2.864 2.435 3.15l-.573.86s-7.018-1.719-5.442-4.01"/><path fill="#6a7ab5" d="M108.804 110.293c.144-.43-4.153-3.007-6.444-3.58-1.003-.287-1.719.859-1.862 1.432-.143.43 0 1.862 1.002 2.148 2.292.573 7.304.43 7.304 0m-.286 4.297c0-.43-4.153-2.005-6.445-2.149-.859 0-1.432 1.146-1.432 1.576s.287 1.718 1.146 1.718c2.291.143 6.73-.716 6.73-1.145m-4.87-12.89v1.576c.573.572 2.865 1.289 3.151 1.289v-3.294c0 .143-1.718.572-3.15.43m-.859 15.897c-.716 0-.859.86-.859 1.289 0 .286.286 1.146 1.003 1.146 1.575 0 4.726-1.003 4.726-1.432-.144-.287-3.294-1.003-4.87-1.003m-3.294 43.107c-2.577 3.438-.716 6.445-.716 6.445 0-2.435 2.721-5.442 3.294-6.015 0 .143-.859-.43-2.578-.43m8.45 7.304c-.43 2.149.573 4.154 2.435 5.156l1.289.43c.143 0 .43 0 .572.143h.287s-2.721-2.435-1.575-4.87q-1.29-.858-3.008-.859m-4.87-69.602c-4.01-2.005-6.874-6.874-6.874-12.603 0-6.014 3.151-11.17 7.59-12.889-6.587 1.432-11.17 7.304-10.597 13.892.573 5.729 4.583 10.168 9.882 11.6m42.249-13.891c4.296-.86 5.728 3.007 5.728 4.296 0 5.156-4.01 7.16-7.303 7.16 15.323 0 9.881-19.763 1.575-11.456m-10.168 43.823c7.304 0 6.874-9.595 5.299-11.17 2.291-2.292 7.16-13.033 7.16-15.038 0 0-9.595-2.005-8.163-8.736h-.143c-2.578 2.72-1.003 8.593 3.15 10.025 0 0-1.575 6.301-5.585 10.311-4.01-.143-9.452-.716-14.321-2.578 7.59 4.01 15.324 10.025 12.603 17.186m-28.5-45.685c1.862-.143 3.58 1.146 3.724 3.007s-1.29 3.437-3.151 3.58-3.58-1.145-3.724-3.007c0 2.721 2.292 5.013 5.013 5.013h.143c.287 1.289.287 2.577 0 3.58 2.721-2.435 5.013-5.299 5.013-8.593 0-2.864-2.292-5.012-5.013-5.012-2.291 0-4.296 1.575-4.87 3.723.43-1.289 1.576-2.291 2.865-2.291m53.849-3.724c-3.294-3.294 1.575-9.452 3.437-9.452-2.005 0-10.455 5.585-7.59 9.452zM117.97 133.78c2.578.86 5.299-.143 5.872-2.148s-1.003-4.296-3.58-5.156c-.43-.143-.717-.143-1.146-.286 3.723 2.291 3.723 6.588-1.146 7.59m-7.59-27.783s3.723 1.145 8.306 3.294c-.86-.573-1.718-1.146-2.578-2.005-2.291-2.149-4.153-3.438-5.728-4.01zm1.432 48.263c7.877 0 34.944-17.33 34.944-17.33-6.731 0-9.452-1.002-9.452-1.002-1.575.86-4.583 2.292-11.17 6.302-5.443 3.15-9.023 7.16-13.893 8.88-.716.286-1.288.286-1.861.286-1.146-.144-2.435-.287-3.58-.287v-24.92c0-2.577-1.862-3.723-3.151-3.723v28.93c-2.149 1.145-3.151 2.577-3.724 3.866 0 0-4.01-.573-3.867 6.875 0-2.005 3.008-5.443 5.013-5.443-.143-2.434 7.304-2.434 10.74-2.434m67.597 40.1c-2.005 0-11.028.43-11.887-7.59a18.2 18.2 0 0 0-6.874-.144c6.444 12.317 13.462 12.46 15.324 12.46 2.864 3.15 1.861 13.892-2.292 13.748-15.037-.859-14.464 8.307-12.889 10.169 0-6.875 4.726-8.593 16.613-8.593 0 0 9.738-12.317 2.005-20.05m3.15 29.645h-2.004c-.144 3.294 3.15 4.296 3.15 4.296-1.145-1.145-2.005-3.58-1.145-4.296m-19.19 4.583c-.86-.86-1.575-4.297-.287-5.585h-2.291c-.143 3.58 2.578 5.585 2.578 5.585m44.97-114.285c0-10.455-14.466-8.88-15.182-.86.573-5.871 10.312-6.73 10.312.574 0 7.59-17.902 12.746-17.902 25.635 0 14.321 14.321 15.61 12.89 28.643-.287 2.291-2.722 5.155-6.159 5.155-7.447 0-11.6-3.15-13.892-7.733 2.435 6.445 6.588 11.314 15.324 11.314 9.023 0 9.882-6.731 9.882-8.307 0-13.032-13.605-16.183-13.605-28.642-.144-11.887 18.331-16.9 18.331-25.779m-106.266 50.698c0 4.01 1.576 5.585 1.576 5.585 0-2.434 1.002-4.44 1.575-5.012-.86-.86-3.15-.573-3.15-.573m104.117-22.342c-3.724 0-6.588 2.865-7.018 6.445.144-.86.716-1.718 1.862-2.578 4.153-3.15 12.46 3.15 7.734 9.596 2.578-1.003 4.44-3.58 4.44-6.445 0-3.867-3.151-7.018-7.018-7.018m-32.08 81.346h-2.435c-.286 4.583 2.721 5.299 2.721 5.299-1.145-1.289-1.432-4.153-.286-5.299m-69.03-24.776c-.429 0-.715.143-1.002.143a4.75 4.75 0 0 0-1.862 3.724c.43 1.289 1.576 2.148 2.865 2.148 1.718 0 3.007-1.432 3.007-3.008 0-1.718-1.289-3.007-3.007-3.007m17.186 22.485h-3.58c0 5.728 3.58 6.73 3.58 6.73-1.002-1.002-2.291-4.439 0-6.73m10.885-35.804c0-12.89 31.077-14.465 31.077-25.206 0-4.296-3.723-6.301-6.444-6.301.716.716 4.726 9.452-6.732 9.452-10.454 3.58-33.368 23.344-17.472 30.218 0 2.005-.286 16.9-9.738 15.61-13.749-1.718-17.186 4.01-14.465 10.312 0-9.739 6.731-7.877 15.61-7.877 5.586 0 13.606-7.017 13.606-18.904 0 .286-5.442-1.862-5.442-7.304m-26.352 8.02v-26.065c-1.718 0-3.15 2.721-3.15 2.721v22.198-.143h-1.862v2.864c1.432 0 5.012-.859 5.012-1.575m5.442 33.512s-2.72-4.296.144-7.304h-3.151c-1.146 5.442 3.007 7.304 3.007 7.304m19.048-5.585h-2.578c0 4.01 4.583 5.442 4.583 5.442-1.575-1.575-2.721-4.726-2.005-5.442"/><path fill="#fff" d="m45.074 178.606-.143-.573-.143-.573c-.287-1.861-.716-5.298-3.437-6.015-.717-.143-1.433-.143-2.292.287.287-.86.143-1.575 0-2.292-1.002-2.577-4.44-2.577-6.445-2.577h-.572l-.573-.144c-1.862-.286-5.3-1.002-6.731 1.433-.43.572-.573 1.432-.43 2.148-.716-.43-1.432-.716-2.148-.573-2.721.143-3.867 3.437-4.44 5.299l-.143.573-.286.43c-.86 1.718-2.578 4.725-.716 6.874.43.572 1.145 1.002 2.005 1.145-.717.573-1.146 1.146-1.29 1.862-.715 2.721 2.149 4.726 3.724 5.729l.43.286.43.43c1.288 1.432 3.723 3.866 6.3 2.864.717-.286 1.29-.86 1.72-1.575.286.859.715 1.432 1.432 1.718 2.291 1.432 5.155-.573 6.587-1.718l.43-.287.43-.286c1.718-.86 4.869-2.292 4.583-5.013 0-.716-.43-1.432-.86-2.005.86 0 1.576-.286 2.148-.716 2.149-1.575 1.003-4.869.43-6.73"/><path fill="#ed1c24" d="M32.9 180.898c15.468 9.165 10.742-.86 10.312-2.435-.286-1.432-.43-12.603-10.311 2.435M31.898 183.189c-3.866 17.472 4.154 9.882 5.443 9.166 1.432-.86 11.886-4.44-5.443-9.166M29.464 182.903c-17.902 1.718-8.163 7.017-7.018 8.02s7.877 9.881 7.018-8.02M28.89 180.468c-7.16-16.47-9.165-5.585-9.738-4.153s-7.017 10.454 9.739 4.153"/><path fill="#fff" d="m284.098 176.172-.286-.43-.143-.573c-.573-1.862-1.576-5.156-4.44-5.299-.716 0-1.432.143-2.148.573q0-1.29-.43-2.148c-1.432-2.435-4.87-1.719-6.73-1.432l-.574.143h-.573c-1.861 0-5.442 0-6.444 2.578-.287.716-.287 1.432-.143 2.291-.717-.286-1.576-.43-2.292-.286-2.721.573-3.15 4.153-3.437 6.015l-.143.573-.143.572c-.573 1.719-1.719 5.156.43 6.875.572.43 1.288.716 2.147.716-.572.716-.859 1.289-.859 2.005-.286 2.72 2.864 4.296 4.583 5.012l.43.287.43.286c1.575 1.146 4.296 3.15 6.587 1.719.573-.43 1.146-1.003 1.432-1.862.43.716 1.003 1.289 1.719 1.575 2.578 1.146 5.012-1.432 6.301-2.864l.43-.43.43-.286c1.575-1.146 4.44-3.15 3.723-5.729-.143-.716-.573-1.289-1.289-1.861.86-.144 1.432-.573 2.005-1.146 2.005-2.148.287-5.156-.573-6.874"/><path fill="#ed1c24" d="M270.493 179.179c-13.462-11.887-2.435-10.455-.86-10.598 1.433-.143 12.03-3.437.86 10.598M268.631 180.898c-15.467 9.165-10.74-.86-10.311-2.435.286-1.432.43-12.603 10.311 2.435M269.49 183.189c3.867 17.472-4.153 9.882-5.442 9.166-1.289-.86-11.743-4.44 5.442-9.166M272.068 182.903c17.902 1.718 8.163 7.017 7.018 8.02-1.29 1.002-7.877 9.881-7.018-8.02M272.641 180.468c7.16-16.47 9.166-5.585 9.739-4.153s7.017 10.454-9.739 4.153"/><path fill="#fff" d="M276.078 181.04c0-.142 0-.286-.143-.429a239 239 0 0 0 3.008-2.148l-.144-.286s-1.861.286-3.58.572c-.86-1.432-2.291-2.434-4.01-2.577-.573-1.576-1.146-3.294-1.146-3.294h-.43s-.286 1.718-.429 3.437c-1.002.286-2.005.859-2.721 1.718-.43.43-.716 1.003-.86 1.576h-3.58l-.143.43s1.719.859 3.294 1.575v.43c.143 1.431.716 2.72 1.862 3.58-.573 1.718-1.146 3.723-1.146 3.723l.287.143s1.432-1.432 2.72-2.864c.717.287 1.433.287 2.149.287s1.432-.287 2.005-.573c1.432 1.145 3.15 2.291 3.15 2.291l.287-.286s-1.003-1.862-1.862-3.437c1.146-1.146 1.575-2.435 1.432-3.867"/><path fill="#ed1c24" d="M270.493 178.32c-.86 0-1.575.43-2.148 1.145s-.86 1.433-.716 2.292c.143 1.718 1.718 3.007 3.437 2.864.86-.143 1.575-.43 2.148-1.146s.86-1.432.716-2.291c-.143-1.719-1.718-3.007-3.437-2.864M31.04 179.179c13.461-11.887 2.434-10.455.858-10.598-1.432-.143-12.03-3.437-.859 10.598"/><path fill="#fff" d="M36.195 181.47a115 115 0 0 0 3.294-1.575l-.143-.43h-3.58c-.144-.572-.43-1.002-.86-1.575-.716-.86-1.719-1.432-2.721-1.718-.287-1.719-.43-3.438-.43-3.438h-.43s-.572 1.719-1.002 3.294c-1.719.144-3.15 1.146-4.01 2.578-1.719-.286-3.58-.573-3.58-.573l-.144.287s1.576 1.145 3.008 2.148c0 .143 0 .286-.143.43-.143 1.432.286 2.72 1.145 3.866-.859 1.576-1.861 3.438-1.861 3.438l.286.286s1.719-1.289 3.15-2.291c.574.286 1.29.572 2.006.572s1.432 0 2.148-.286c1.289 1.289 2.721 2.864 2.721 2.864l.287-.143s-.573-2.005-1.146-3.724a5.48 5.48 0 0 0 1.862-3.58c.143-.143.143-.286.143-.43"/><path fill="#ed1c24" d="M33.187 179.465c-.573-.716-1.289-1.002-2.148-1.145-1.718-.143-3.294 1.145-3.437 2.864-.143.86.143 1.719.716 2.291.573.717 1.289 1.003 2.148 1.146 1.719.143 3.294-1.146 3.437-2.864a2.64 2.64 0 0 0-.716-2.292"/><path fill="#fff" d="M33.044 104.565c-7.59-1.29-14.75 3.723-16.04 11.17-1.289 7.59 3.724 14.751 11.17 16.04 7.591 1.29 14.752-3.723 16.04-11.314 1.433-7.447-3.723-14.608-11.17-15.896"/><path fill="#ed1c24" d="M36.195 115.02c-.143-.144-.287-.144-.573-.43-1.146-.717-3.294-2.292-3.437-2.292-.287-.143-.573-.43-.86-.573-1.002-.716-1.861-1.289-2.72-1.718-.287-.144-.573-.287-1.003-.573-1.289-.716-2.578-1.003-4.153-1.146a15 15 0 0 0-3.008 3.008c3.437 1.289 6.875 3.294 13.749 7.59.573-.86 1.862-3.724 2.005-3.867M32.9 122.466c.144-.286.717-1.861 1.003-2.578-7.16-4.44-10.454-6.444-14.035-7.59-.572 1.003-1.002 2.005-1.145 3.15 2.005 2.722 7.304 5.3 14.178 7.018M32.185 111.152c2.72-1.575 5.728-1.145 8.163-.286-.86-1.146-2.005-2.148-3.15-2.864-2.292-.43-5.3-.573-7.734 1.432.716.43 1.718 1.002 2.72 1.718"/><path fill="#ed1c24" d="M21.444 124.042c.43.286.716.43 1.146.716.859.43 1.718.859 2.577 1.145.43.144.716.287 1.146.43 1.289.43 4.44 1.289 4.726 1.289 0-.143 1.146-3.008 1.575-4.01-5.298-1.289-11.17-3.724-14.034-6.731-.144 1.432-.144 2.721.143 4.153.573 1.146 1.575 2.148 2.72 3.008M31.04 128.624l-1.147-.286a107 107 0 0 0-3.294-.86 7.9 7.9 0 0 0 2.435 2.865 16.2 16.2 0 0 0 3.724 0c-1.003-.86-1.719-1.719-1.719-1.719M42.21 114.733a17.5 17.5 0 0 0-1.003-2.435c-2.148-1.002-5.299-1.862-8.163-.43l3.867 2.578c.86-.143 1.575-.143 2.291-.143h1.003c.86.143 1.432.287 2.005.43M40.205 115.306c-.143 6.301-3.15 11.313-5.729 14.321 4.01-1.432 7.304-4.87 8.02-9.452.287-1.575.287-3.008 0-4.44a23 23 0 0 0-2.291-.43M28.318 108.718a9.05 9.05 0 0 1 5.872-2.148c-.43-.144-1.003-.287-1.576-.43-2.864-.43-5.585 0-7.876 1.289 1.289.286 2.434.716 3.58 1.289"/><path fill="#ed1c24" d="M37.197 115.449c-.859 1.862-1.432 3.15-1.861 4.153a7 7 0 0 0-.43 1.003c-.287.572-.86 2.148-.86 2.148l-.429 1.002-1.719 4.297a8.2 8.2 0 0 0 1.576 1.575c2.578-2.864 5.728-7.734 5.728-14.178-.573-.143-1.289-.143-2.005 0M25.31 127.05c-.859-.287-1.718-.574-2.577-1.003.286.859.716 1.718 1.145 2.434.86.573 1.862 1.003 3.008 1.432-.573-.859-1.146-1.718-1.575-2.864M21.587 125.33a6.4 6.4 0 0 1-1.575-1.145c.573 1.002 1.289 1.862 2.148 2.72a7 7 0 0 1-.573-1.574"/><path fill="#fff" d="M255.742 120.605c1.289 7.59 8.593 12.602 16.04 11.313 7.59-1.289 12.603-8.592 11.314-16.04-1.29-7.59-8.593-12.602-16.04-11.313-7.59 1.288-12.603 8.45-11.314 16.04"/><path fill="#ed1c24" d="M263.905 115.02c.143-.144.287-.144.573-.43 1.146-.717 3.294-2.292 3.437-2.292.287-.143.573-.43.86-.573 1.002-.716 1.861-1.289 2.72-1.718.287-.144.573-.287 1.003-.573 1.289-.716 2.578-1.003 4.153-1.146a15 15 0 0 1 3.008 3.008c-3.438 1.289-6.731 3.294-13.749 7.59-.573-.86-2.005-3.724-2.005-3.867M267.056 122.466c-.143-.286-.716-1.861-1.003-2.578 7.161-4.44 10.455-6.444 13.892-7.59.573 1.003 1.003 2.005 1.146 3.15-1.862 2.722-7.16 5.3-14.035 7.018M267.915 111.152c-2.721-1.575-5.728-1.145-8.163-.286.86-1.146 2.005-2.148 3.15-2.864 2.292-.43 5.3-.573 7.734 1.432-.86.43-1.718 1.002-2.72 1.718"/><path fill="#ed1c24" d="M278.513 124.042c-.287.286-.716.43-1.146.716-.86.43-1.575.859-2.578 1.145-.43.144-.716.287-1.145.43-1.29.43-4.44 1.289-4.726 1.289 0-.143-1.146-3.008-1.576-4.01 5.3-1.289 11.17-3.724 14.035-6.731.143 1.432.143 2.721-.143 4.153-.573 1.146-1.432 2.148-2.721 3.008M268.918 128.624l1.145-.286a107 107 0 0 1 3.294-.86 7.9 7.9 0 0 1-2.434 2.865 16.2 16.2 0 0 1-3.724 0c1.003-.86 1.719-1.719 1.719-1.719M257.747 114.733a17.5 17.5 0 0 1 1.002-2.435c2.149-1.002 5.3-1.862 8.164-.43l-3.867 2.578c-.86-.143-1.576-.143-2.292-.143h-1.002c-.716.143-1.432.287-2.005.43M259.752 115.306c.143 6.301 3.15 11.313 5.728 14.321-4.01-1.432-7.303-4.87-8.02-9.452a10.85 10.85 0 0 1 0-4.297c.573-.286 1.433-.43 2.292-.572M271.639 108.718a9.05 9.05 0 0 0-5.872-2.148c.43-.144 1.002-.287 1.575-.43 2.865-.43 5.586 0 7.877 1.289a15.2 15.2 0 0 0-3.58 1.289"/><path fill="#ed1c24" d="M262.903 115.449c.859 1.862 1.432 3.15 1.861 4.153.144.286.287.573.43 1.003.286.572.86 2.148.86 2.148l.429 1.002 1.719 4.297a8.2 8.2 0 0 1-1.576 1.575c-2.578-2.864-5.728-7.734-5.728-14.178.572-.143 1.145-.143 2.005 0M274.646 127.05c.86-.287 1.719-.574 2.578-1.003-.286.859-.716 1.718-1.146 2.434-.859.573-1.862 1.003-3.007 1.432.573-.859 1.289-1.718 1.575-2.864M278.37 125.33a6.4 6.4 0 0 0 1.575-1.145c-.573 1.002-1.289 1.862-2.148 2.72.286-.572.43-1.002.573-1.574"/></svg>