<svg xmlns="http://www.w3.org/2000/svg" width="753.942" height="937.979" viewBox="0 0 753.942 937.979"><clipPath id="a"><path d="M0 1080h1080V0H0z"/></clipPath><g clip-path="url(#a)" transform="matrix(1.33333 0 0 -1.33333 -342.585 1189.978)"><path fill="#ffde1b" d="M812.337 677.912c-.707 47.563-7.484 80.298-11.462 95.58l-.4 1.535-.856 1.337c-7.131 11.135-35.3 36.635-83.676 61.242-26.223 13.34-53.586 23.958-81.331 31.561-32.243 8.836-64.187 13.317-94.945 13.317-30.76 0-62.704-4.48-94.947-13.317-27.743-7.603-55.106-18.22-81.33-31.56-48.384-24.612-76.55-50.11-83.676-61.244l-.856-1.337-.4-1.535c-3.977-15.282-10.755-48.018-11.462-95.579a536.1 536.1 0 0 1 18.959-149.53c16.763-61.249 44.308-118.476 81.87-170.09 42.624-58.572 98.619-110.4 166.429-154.046l5.413-3.483 5.412 3.483c67.81 43.645 123.805 95.474 166.429 154.045 37.563 51.618 65.108 108.845 81.87 170.09a536.1 536.1 0 0 1 18.959 149.531"/><path fill="#0060a8" d="M783.732 531.02c-16.44-60.077-43.463-116.212-80.31-166.846-41.922-57.606-96.977-108.538-163.756-151.519-66.779 42.981-121.833 93.913-163.755 151.52-36.848 50.633-63.869 106.768-80.31 166.845a526 526 0 0 0-18.606 146.743c.703 47.33 7.616 79.669 11.141 93.208 5.054 7.896 29.84 32.316 79.787 57.722 25.622 13.033 52.35 23.405 79.44 30.83 31.381 8.6 62.436 12.96 92.303 12.96s60.921-4.36 92.303-12.96c27.091-7.425 53.82-17.797 79.44-30.83 49.944-25.404 74.731-49.824 79.788-57.722 3.524-13.54 10.437-45.879 11.14-93.208a526 526 0 0 0-18.605-146.742m26.176 247.402c-14.092 29.51-134.312 114.06-270.242 114.06s-256.15-84.55-270.242-114.06c-23.339-85.424-48.38-391.92 270.242-589.423C858.29 386.503 833.248 692.999 809.908 778.423"/><path fill="#0060a8" d="M739.991 646.87s-.838 61.69-7.257 78.77c-9.248 24.606-92.405 77.77-193.068 77.77-100.662 0-183.82-53.164-193.068-77.77-6.419-17.08-7.256-78.77-7.256-78.77z"/><g fill-rule="evenodd"><path fill="#fff" d="m498.021 320.535 14.486-13.542a558 558 0 0 1 27.487-18.359 541 541 0 0 1 27.905 18.656l14.188 13.245v297.04h-84.066z"/><g fill="#0060a8"><path d="m619.262 617.623 101.334-111.96a364 364 0 0 1 12.242 43.922l-61.583 68.038zM710.665 617.623l28.067-31.006a366 366 0 0 1 1.97 31.006zM609.886 382.468v-39.235c6.698 5.972 13.102 12 19.149 18.083zM609.886 483.45v-57.443l39.112-43.189a401 401 0 0 1 24.117 30.775zM609.886 584.43v-57.434l79.677-88.015a371 371 0 0 1 18.985 36.462zM460.835 617.623l-101.333-111.96a364 364 0 0 0-12.243 43.922l61.583 68.038zM369.436 617.623l-28.07-31.006a360 360 0 0 0-1.965 31.006zM470.212 382.468v-39.235c-6.695 5.972-13.097 12-19.15 18.083zM470.212 483.45v-57.443l-39.1-43.189a400 400 0 0 0-24.13 30.775zM470.212 584.43v-57.434l-79.661-88.015a367 367 0 0 0-18.994 36.462z"/></g><path fill="#fff" d="M540.041 721.404h-.011v.021l.024-.007zm68.338 22.266-16.239.075c-2.085 10.91-7.583 20.466-16.398 26.871-8.81 6.406-19.593 8.664-30.61 7.28l-5.109 15.064-5.116-15.092c-11.024 1.388-21.803-.88-30.626-7.284-8.815-6.404-14.296-15.96-16.386-26.867l-16.353-.03 13.22-9.707c-4.725-10.054-5.906-21.01-2.539-31.376 3.371-10.363 10.765-18.533 20.487-23.885l-5.264-15.892 13.569 9.897c8.104-7.597 18.153-12.104 29.057-12.104 10.894 0 20.942 4.508 29.038 12.108l13.395-9.736-5.126 15.778c9.728 5.351 17.116 13.52 20.487 23.883 3.362 10.364 2.187 21.317-2.539 31.371z"/><path fill="#fff" d="M564.344 729.34s.958-2.518 3.618-1.983c4.166.836.205 3.191 13.756 7.598 4.354 1.414 9.43.977 11.527-3.593 2.366-5.176.1-9.536-2.312-11.64-3.365-2.947-6.232-12.793-6.232-12.793v-.013s-3.457-9.623-2.472-13.983c.707-3.117-.011-7.982-4.98-10.78-4.371-2.459-8.741.165-11.428 3.872-8.382 11.528-3.8 11.111-6.664 14.236-1.842 2-4.065.484-4.065.484s-2.096-1.679-.771-4.043c2.078-3.705 3.099.788 11.472-10.742 2.697-3.704 3.843-8.676.155-12.07-4.193-3.859-9.047-3.045-11.79-1.407-3.851 2.295-14.086 1.97-14.086 1.97h-.018s-10.22.323-14.07-1.97c-2.743-1.633-7.586-2.454-11.787 1.406-3.7 3.395-2.54 8.367.156 12.071 8.37 11.53 9.39 7.037 11.472 10.742 1.332 2.364-.8 4.012-.8 4.012s-2.243 1.48-4.077-.518c-2.882-3.122 1.703-2.706-6.67-14.233-2.697-3.707-7.06-6.336-11.44-3.875-4.96 2.801-5.68 7.664-4.977 10.78.992 4.362-2.473 14.01-2.473 14.01l-.008.013s-2.856 9.818-6.222 12.767c-2.414 2.103-4.68 6.466-2.302 11.647 2.092 4.562 7.162 5.002 11.519 3.587 13.555-4.4 9.606-6.76 13.766-7.595 2.659-.537 3.569 1.988 3.569 1.988s.718 2.597-1.755 3.73c-3.86 1.774-2.043-2.46-15.6 1.947-4.355 1.412-8.205 4.752-7.213 9.674 1.127 5.59 5.528 7.774 8.71 8.067 4.458.406 12.562 6.684 12.562 6.684l.01.011s8.46 5.748 10.22 9.861c1.258 2.94 4.706 6.446 10.363 5.794 4.985-.577 6.969-5.272 6.969-9.853 0-14.249-3.455-11.217-2.968-15.44.308-2.693 3.005-2.776 3.005-2.776s2.687.125 2.999 2.82c.5 4.22-2.981 1.183-2.971 15.432 0 4.587 1.99 9.28 6.98 9.855 5.66.66 9.099-2.85 10.355-5.788 1.762-4.11 10.246-9.879 10.246-9.879l.007-.009s8.089-6.27 12.54-6.673c3.178-.285 7.577-2.48 8.705-8.064.994-4.924-2.857-8.262-7.218-9.679-13.542-4.406-11.733-.174-15.593-1.94-2.462-1.133-1.72-3.72-1.72-3.72"/><path fill="#ffde1b" d="m540.054 729.72 7.872-5.406-3.019-10.27h-10.549l-2.509 10.27zM533.327 740.614l6.728-1.848 6.966 1.94.187 2.547s-4.827 1.605-7.377 1.532c-1.698-.045-6.637-1.134-6.637-1.134zM556.398 733.01l-.196-7.135 3.851-6.134 3.026.73s.18 5.566-.483 7.14c-.67 1.575-3.116 6.502-3.116 6.502zM556.702 710.002l-6.602-2.708-4.12-5.546 1.587-2.52s5.516 2.195 6.692 3.438c1.246 1.336 4.792 4.95 4.792 4.95zM533.825 701.897l-4.6 5.371-6.142 3.031-2.255-2.472s3.801-4.703 5.325-5.491c1.505-.789 6.117-2.919 6.117-2.919zM519.516 722.264l4.516 5.534.684 7.207-2.311 1.086s-3.386-4.451-3.918-6.075c-.632-1.98-1.73-6.794-1.73-6.794z"/></g><g fill="#0060a8"><path d="m562.645 720.824-2.385-.575-3.61 5.749.183 6.697 2.424.866c.572-1.157 2.376-4.823 2.93-6.122.478-1.136.496-4.884.457-6.615m-18.07-6.336h-9.867l-2.352 9.628 7.693 5.068 7.36-5.053zm-10.92 28.808c1.168.25 4.815 1.009 6.19 1.045 2.087.043 5.776-1.051 6.895-1.404l-.139-1.886-6.547-1.823-6.297 1.729zm22.94-33.818 1.833-1.862c-.888-.908-3.473-3.551-4.492-4.644-.847-.895-4.479-2.493-6.19-3.193l-1.227 1.949 3.865 5.202zm-24.492-9.493c-1.11.515-4.508 2.098-5.746 2.747-1.1.568-3.742 3.622-4.94 5.079l1.77 1.942 5.761-2.843 4.327-5.054zm-12.735 22.8-2.087.727c.274 1.182 1.114 4.755 1.628 6.365.428 1.305 2.886 4.656 3.634 5.658l1.701-.8-.64-6.761zm43.008 4.878c-.668 1.569-2.795 6.248-2.895 6.45l-.43.318-3.087-1.105-.191-6.932-7.39-2.101.062.206-7.945 5.454v8.475l6.942 1.934.193 2.625-.426.267c-.201.066-4.752 1.173-7.364 1.087-1.72-.045-6.448-.862-6.65-.907l-.424-.251.127-2.911 6.712-1.844v-8.47l-7.802-5.138-7.303 3.254.683 7.2-2.397 1.302-.218-.286c-.14-.184-3.437-4.53-3.988-6.21-.629-1.974-1.693-6.632-1.738-6.83l.111-.464 2.706-1.044 4.498 5.512 7.308-3.257 2.358-9.652-4.67-6.543.193-.14-6.37 3.184-2.219-2.432.181-.402c.158-.195 3.828-4.46 5.414-5.28 1.5-.785 5.726-3.228 5.914-3.315h.525l1.58 2.52-4.712 5.503.217-.155 4.506 6.314h9.66l5.457-6.346.035.029-4.096-5.512 1.6-2.542.366.252c.574.229 5.556 2.34 6.767 3.619 1.228 1.317 4.507 4.629 4.542 4.665l.333.486-2.24 2.277-6.692-2.745.06.05-4.959 5.767 2.866 9.685 7.822 2.224 3.94-6.274 3.254.786-.022.452c.007.23-.01 5.545-.704 7.19"/><path d="M540.054 743.734c-12.325 0-22.352-10.021-22.352-22.34s10.027-22.341 22.352-22.341c12.308 0 22.322 10.023 22.322 22.342s-10.014 22.339-22.322 22.339m0-46.373c-13.258 0-24.044 10.782-24.044 24.034 0 13.25 10.786 24.03 24.044 24.03 13.242 0 24.015-10.78 24.015-24.03 0-13.252-10.773-24.034-24.015-24.034"/><path fill-rule="evenodd" d="M590.237 720.515c-3.557-3.113-6.429-12.876-6.55-13.29l-.008-.03c-.358-1.014-3.483-10.055-2.48-14.495.66-2.909-.114-7.175-4.468-9.628-2.196-1.235-4.376-.954-6.27.092a6 6 0 0 1-.644.392c-1.212.804-2.286 1.907-3.143 3.09-5.09 7-5.22 9.328-5.308 10.87-.059 1.04-.114 2.021-1.433 3.46-1.944 2.11-4.404 1.342-5.502.593-.965-.775-2.425-2.896-1.032-5.384.958-1.706 1.877-2.065 2.85-2.444 1.437-.56 3.611-1.408 8.69-8.402.88-1.207 1.608-2.604 1.993-4.038q.036-.176.085-.362c.502-2.216.152-4.49-1.785-6.273-3.68-3.388-7.973-2.804-10.533-1.276-3.224 1.92-10.264 2.136-13.245 2.136-.784 0-1.287-.015-1.367-.017-.43.011-10.576.304-14.642-2.119-2.56-1.525-6.855-2.104-10.535 1.277-1.835 1.684-2.249 3.812-1.86 5.915.103.321.168.616.211.893.397 1.372 1.101 2.706 1.945 3.865 5.078 6.994 7.251 7.841 8.69 8.402.971.378 1.89.737 2.848 2.442 1.408 2.498-.087 4.602-1.138 5.412-1.036.682-3.505 1.418-5.434-.684-1.328-1.438-1.386-2.423-1.446-3.466-.09-1.542-.225-3.873-5.302-10.862-.892-1.227-2.019-2.364-3.289-3.176l-.126-.076c-1.983-1.225-4.308-1.642-6.652-.325-4.346 2.455-5.122 6.721-4.468 9.627 1.05 4.61-2.362 14.194-2.508 14.6l-.01.028c-.298 1.004-3.085 10.182-6.52 13.192-2.245 1.956-4.126 5.856-2.036 10.412 1.054 2.298 2.992 3.35 5.151 3.612.27.004.514.026.744.06 1.447.058 2.956-.2 4.34-.649 8.224-2.67 9.703-4.477 10.682-5.673.661-.807 1.285-1.57 3.2-1.954 2.806-.563 4.348 1.495 4.795 2.742.331 1.198.27 3.78-2.332 4.97-1.778.817-2.73.566-3.74.303-1.495-.392-3.75-.984-11.974 1.69-1.36.44-2.71 1.104-3.836 1.98a6 6 0 0 1-.665.565c-1.569 1.477-2.5 3.455-2.004 5.916.987 4.894 4.804 6.951 7.771 7.224 4.711.43 12.772 6.636 13.113 6.901l.008.006c.787.54 8.74 6.064 10.545 10.285 1.173 2.738 4.311 5.728 9.272 5.161 4.45-.515 6.035-4.886 6.035-8.804 0-8.646-1.258-10.61-2.09-11.91-.564-.879-1.095-1.709-.872-3.65.327-2.849 2.774-3.674 4.104-3.71 1.24.056 3.67.915 3.997 3.75.232 1.944-.3 2.775-.867 3.654-.834 1.3-2.096 3.263-2.096 11.902 0 1.422.213 2.902.693 4.237.128.252.25.533.352.855.923 1.94 2.515 3.427 5.001 3.714 4.961.578 8.092-2.416 9.264-5.156 1.796-4.19 9.685-9.692 10.556-10.29l.02-.016c.34-.264 8.387-6.464 13.093-6.89 2.963-.266 6.773-2.318 7.765-7.222.886-4.394-2.782-7.255-6.51-8.466-8.217-2.673-10.475-2.08-11.967-1.688-1.01.265-1.965.517-3.74-.298-2.6-1.195-2.638-3.773-2.294-4.969l.028-.084c.442-1.16 2.015-3.207 4.813-2.642 1.92.385 2.543 1.15 3.203 1.957.976 1.194 2.452 3 10.671 5.673 1.37.444 2.863.701 4.3.648.257-.04.536-.067.845-.068 2.136-.276 4.051-1.329 5.096-3.608 2.08-4.55.196-8.45-2.048-10.409m.765 14.883c4.76 1.878 13.465 6.974 13.465 6.974s-10.11-1.01-15.04-2.288a8.05 8.05 0 0 1 .481 4.803c-1.22 6.044-5.958 8.575-9.644 8.907-3.343.302-9.608 4.627-11.884 6.375l-.164.128c-2.29 1.557-8.526 6.286-9.87 9.421-1.457 3.407-5.322 7.136-11.447 6.422a8.06 8.06 0 0 1-4.414-1.934c-.316 5.101-2.462 14.943-2.462 14.943s-2.163-9.915-2.468-15a8.03 8.03 0 0 1-4.428 1.952c-6.124.71-9.996-3.02-11.454-6.427-1.343-3.138-7.56-7.85-9.842-9.403l-.116-.09c-2.235-1.723-8.58-6.119-11.96-6.427-3.69-.34-8.432-2.878-9.648-8.909a8.05 8.05 0 0 1 .481-4.802c-4.95 1.274-14.977 2.267-14.977 2.267s8.651-5.057 13.412-6.946c-1.274-.784-2.364-1.954-3.127-3.619-2.575-5.613-.226-10.448 2.566-12.88 2.568-2.25 5.132-9.619 5.903-12.268l.067-.18c.955-2.694 3.146-10.03 2.398-13.317-.814-3.613.135-8.907 5.49-11.932 1.613-.906 3.198-1.208 4.703-1.083-2.739-4.33-6.766-13.503-6.766-13.503s7.548 6.722 10.797 10.662a8.04 8.04 0 0 1 2.428-4.132c4.532-4.164 9.86-3.43 13.042-1.536 2.937 1.751 10.74 1.91 13.581 1.822 2.76.092 10.574-.07 13.513-1.82a10.96 10.96 0 0 1 5.554-1.52c2.423 0 5.07.828 7.49 3.055a8.06 8.06 0 0 1 2.433 4.173c3.25-3.938 10.806-10.663 10.806-10.663s-4.08 9.284-6.814 13.581a8.07 8.07 0 0 1 4.68 1.03c5.366 3.021 6.311 8.317 5.491 11.931-.75 3.328 1.503 10.797 2.436 13.394l.063.187v.032c.821 2.77 3.348 9.94 5.87 12.148 2.79 2.435 5.14 7.268 2.577 12.876a8.07 8.07 0 0 1-3.202 3.596"/><path fill-rule="evenodd" d="m592.44 704.275-6.233-11.936 1.71 13.4 6.465 11.854zM487.305 704.611l-1.97 13.318 6.494-11.842 1.73-13.395zM539.749 666.255l-13.273 2.235 13.273 2.516 13.265-2.49zM507.585 766.34l12.058 5.994-9.263-9.835-12.198-5.789zM572.556 766.132l9.422-9.615-12.198 5.77-9.286 9.817zM560.85 475.443c.779.242 1.467.048 1.658-.437.205-.493 2.239-4.937-.017-9.314-1.882-3.664-6.172-5.78-11.726-5.036-4.11.548-9.961 5.276-10.064 10.766-1.86-2.749-8.144-11.364-20.571-9.665-13.82 1.917-6.72 18.364-4.841 21.228 5.559 8.49 16.023 27.05 17.124 29.341 1.105 2.284 3.26 7.846-.131 9.278-3.401 1.435-8.336-1.18-10.987-5.553-.806-1.34-.973-.597-1.427-.268-.463.332-.718.861-.99 1.315-.254.458.756 1.437 1.085 1.895.326.454 6.146 7.771 15.097 5.586 7.027-1.71 7.889-5.652 7.55-9.118-.33-3.457-17.845-31.9-20.195-38.099-2.347-6.216-.918-9.882 2.413-10.14 3.335-.258 11.5.727 16.863 12.422 5.367 11.707 13.857 29.674 15.692 33.4 1.829 3.725 4.569 8.892 5.088 9.672.539.79.465 1.111 2.043.913 1.56-.197 5.416-.718 6.196-.718.788 0 .297-1.593-.294-2.38-.582-.789-18.53-36.373-20.877-43.699-2.355-7.327 2.042-9.099 2.938-9.352 1.515-.419 6.269-.725 7.004 2.941.375 1.908-.27 3.44-.412 3.832-.136.394.26.555.26.555s.732.386 1.52.635M574.85 448.558c-.296.6-1.066.654-1.551-.198-.474-.858-1.801-2.945-4.414-3.457-7.97-1.594-14.214-.814-23.098-.287-8.898.52-20.527-.195-23.861-4.414-3.335-4.208-1.952-7.227-1.271-8.428.972-1.765 3.036-3.342 5.876-4.12 2.846-.79 4.996-.1 5.982.582.98.687-.69 1.478-1.276 1.87-.59.386-4.395 1.272-4.483 3.037-.044.779.386 3.036 2.74 4.11 2.347 1.085 7.927 1.667 12.628 1.085-.201-4.612-2.941-16.765-4.997-21.181-3.045 0-12.727-.531-14.902-6.271-1.084-2.846-.192-5.293.777-6.072.983-.787 1.672-.697 1.672.29 0 .974.093 2.927 1.078 4.01.975 1.074 4.802 2.75 9.999 1.772-1.67-5.882-6.668-20.687-11.96-23.427-5.292-2.752-8.667-.69-9.108-.092-.978 1.326-1.282 2.545-1.282 3.234s-1.861 2.839-2.46-.205c-.585-3.036 2.25-7.623 6.74-8.742 7.99-2.006 12.585 2.66 14.064 3.842 1.469 1.172 9.287 9.037 13.407 24.45 3.34-.4 8.14-.294 10.004.484 4.362 1.863 5.947 4.695 6.244 6.458.286 1.765.152 3.215-.244 4.094-.393.886-1.763 2.157-1.96 1.084-.206-1.084 0-2.948-1.864-4.32-.554-.41-3.43-2.65-10.497-1.466 1.372 4.314 4.71 21.567 4.71 21.567 3.727-.298 11.95.293 14.405.984 2.455.679 6.877 2.687 8.329 5.59 1.082 2.147.877 3.535.573 4.137M564.566 365.39c3.547 5.632-.16 12.735-3.625 13.97-1.344.495-9.487 3.127-20.535-3.905-10.787-6.868-22.736-18.334-25.34-36.363-2.603-18.028 9.915-24.44 11.321-24.834 1.401-.403 13.487-5.06 21.835 5.508 4.907 6.205 4.907 7.908 5.311 8.912.403 1.003-1.405 2.202-2.205 1.003-.807-1.2-5.409-8.018-8.814-9.826-3.409-1.792-10.517-2.697-13.522 1.612-3.224 4.63-3.807 11.31-2.205 17.93 1.607 6.61 6.715 22.033 16.33 30.257 9.62 8.203 15.628 7.71 17.626 6.303 2.007-1.407 3.162-6.377 1.573-9.378-.599-1.127 1.373-2.586 2.25-1.19M516.534 544.685c-1.084 0-5.979 1.273-2.838 5.688 3.134 4.412 9.214 4.017 13.321 1.08-4.5-7.748-9.407-6.768-10.483-6.768m39.112 55.2c1.477 1.762 5.588 4.903 8.931 1.762 3.322-3.13-.754-8.739-1.677-9.506-5.184-4.414-12.143-5.592-12.143-5.592 1.073 3.336 3.428 11.571 4.89 13.336m18.54-43.63c0 .781-1.085.391-1.468 0-.406-.39-8.142-7.746-13.446-7.94-5.282-.198-13.238 0-23.13 5.095 3.23 5.397 9.892 17.26 12.938 28.633 9.512 1.666 17.06 6.676 19.998 10.488 3.333 4.318 4.615 10.2 2.061 12.746-4.995 5.002-17.939 4.415-25.292-9.705-1.54-2.96-2.972-6.117-4.313-9.332-3.106.377-6.363 1.952-6.972 2.467-.676.592-1.172.886-1.07.1.104-.787-.102-1.669-.102-1.669s-.486-1.078.293-1.37c2.204-1.252 4.525-1.938 6.772-2.217-4.512-11.306-7.97-22.85-11.276-28.673-3.43 1.475-8.728 1.865-12.646.69-3.923-1.178-11.08-4.607-10.388-10.784.68-6.18 12.05-5.784 13.03-5.688.982.091 8.043 1.076 13.144 8.631 7.648-5.1 14.02-7.947 19.708-7.84 5.688.088 15.978 1.665 22.06 13.232.297.587.098 2.35.098 3.135"/></g></g></svg>