<svg xmlns="http://www.w3.org/2000/svg" width="933.32" height="933.333" viewBox="0 0 933.32 933.333"><clipPath id="a"><path d="M0 1080h1080V0H0z"/></clipPath><g clip-path="url(#a)" transform="matrix(1.33333 0 0 -1.33333 -253.34 1186.667)"><path fill="#fff" d="M540 190c193.292 0 349.995 156.716 349.995 350.005C889.995 733.302 733.292 890 540 890c-193.295 0-349.995-156.698-349.995-349.995C190.005 346.716 346.705 190 540 190"/><path fill="#003090" d="M540 202.514c186.374 0 337.483 151.098 337.483 337.49 0 186.38-151.109 337.479-337.483 337.479-186.393 0-337.486-151.098-337.486-337.478 0-186.392 151.093-337.491 337.486-337.491M539.998 198.12v-.007z"/><path fill="#fff" d="M540 224.243c174.385 0 315.744 141.38 315.744 315.762 0 174.383-141.359 315.754-315.744 315.754-174.384 0-315.746-141.371-315.746-315.754 0-174.381 141.362-315.762 315.746-315.762"/><path fill="#003090" d="M231.641 540.006c.004 170.302 138.055 308.36 308.357 308.365 170.303-.004 308.353-138.063 308.353-308.365 0-170.3-138.047-308.371-308.353-308.371v3.69c84.137 0 160.293 34.1 215.43 89.243 55.136 55.145 89.233 131.3 89.233 215.438S810.564 700.3 755.428 755.44s-131.293 89.24-215.43 89.24-160.294-34.101-215.43-89.24c-55.139-55.14-89.233-131.296-89.233-215.434s34.094-160.293 89.233-215.438c55.136-55.143 131.293-89.242 215.43-89.242v-3.691c-170.302 0-308.353 138.072-308.357 308.37m308.357-308.37v-.005z"/><path fill="#fff" d="M540 320.994c120.955 0 219.01 98.053 219.01 219.01 0 120.946-98.055 218.988-219.01 218.988-120.957 0-218.983-98.042-218.983-218.987 0-120.958 98.026-219.011 218.983-219.011"/><g fill="#003090"><path d="M534.246 742.927c-4.583-24.82-34.332-24.756-50.9-37.928-9.481-7.672-14.394-16.846-16.827-27.29-15.66 7.969-30.821 19.706-47.071 26.136 32.183 24.827 72.653 39.242 114.798 39.082M656.79 706.76l-39.488-25.978c-4.575 28.202-35.85 36.478-57.3 45.357-4.288 4.602-10.75 10.342-8.292 16.788 38.942-2.143 73.747-14.027 105.08-36.167"/><path d="M554.19 719.723c20.223-10.74 52.092-14.724 56.39-43.55-.927-3.061-4.595-4.284-6.452-5.812-1.818 38.005-46.588 30.657-60.995 59.47-15.01-29.124-63.146-23.62-62.514-63.761-3.394 1.53-9.53 5.195-6.132 11.022 8.26 32.2 46.587 30.057 64.979 52.123l2.773 11.658c1.515-7.362 4.9-15.346 11.95-21.15"/><path d="M543.754 707.149c-.305-.938.588-2.462-.598-3.068-1.247-.314-1.539 1.212-2.466 1.542 0 2.138 2.466 4.581 3.064 1.526M551.71 699.793c.634-1.22-.613-2.157-1.21-3.074h-.925v4.59c1.23.314 1.522-.91 2.135-1.516M536.375 699.793c-.293-.943.635-2.466-.59-3.074h-1.54v3.68c.614 0 1.837.308 2.13-.606M398.156 650.43c-19.327-11.028-24.678-41.536-49.188-39.08 10.41 29.423 29.093 56.709 54.215 78.777-7.034-11.041-5.968-26.207-5.027-39.697M545.904 666.674h-8.894l6.122 22.077c-1.223-8.28 1.844-14.714 2.772-22.077M728.296 615.789c-21.15 1.528-28.2 27.286-46.898 36.796 2.728 9.49 4.431 20.839 2.89 30.962 20.543-20.25 35.418-42.61 44.007-67.758"/><path d="m731.359 609.365.613-.914c-29.434-19.947 1.218-64.687-30.656-83.08-8.895-6.148-20.248-6.148-31.898-5.84 1.862 7.061 13.19 4.306 19.325 7.99 36.179 11.035 17.475 54.85 35.884 78.157-17.802 4.906-31.9 20.552-46.287 32.193l.91 5.204c16.87-11.96 29.429-35.884 52.109-33.71M403.974 638.783c-13.808-15.626-27.898-32.793-47.806-36.789 2.13-5.826 7.336-10.41 9.489-16.239 6.435-24.841 7.05-59.162 38.914-66.224 4.607-1.843 10.748.928 14.112-3.669-15.638-3.072-30.341.616-41.078 11.04-22.07 21.451-.62 62.521-32.501 77.86 26.685-5.822 37.104 26.042 55.8 37.701z"/><path d="M687.215 607.82c-.294-.92.61-2.442-.622-3.058h-.917v4.577c.917.317 1.845-.603 1.54-1.518M400.318 604.762c.294-.633-.331-.918-.632-1.232-1.53-.606-2.141.599-3.046 1.232-.938 3.357 4.57 3.357 3.678 0M680.47 598.316c-.613-.607-.917-1.836-2.137-1.527-1.835.92-1.835 3.682 0 4.276 1.834.331 1.524-1.807 2.137-2.749M695.193 601.065c0-1.213.615-2.758-.622-3.656-.928-.312-1.524 1.216-2.15 1.531.626 1.531.626 2.747 2.772 2.125M408.26 597.409c-.598-.33-.894-1.535-2.151-1.241l-1.539 1.24 2.468 3.064c.906-.941.906-1.847 1.222-3.063M684.289 396.399l-13.933-12.955c-3.985 30.039 30.96 49.038 22.69 81.525-4.302 17.162-23.01 30.959-38.311 36.786-.324 21.146 22.975 5.826 34.009 10.433 13.187 2.442 27.59 10.713 33.108 24.208 11.655 19.935-4.747 46.665 12.409 64.445 22.987-72.333 3.366-152.028-49.972-204.442M392.937 597.409c.61-1.241-.612-1.866-1.538-2.772h-.599v4.304c.892.318 1.525-.942 2.137-1.532M365.032 530.589c7.355-13.513 20.857-20.55 34.653-23.611 9.493-.621 18.998.914 26.98 1.505l2.43-5.804c-15.934-5.805-33.09-19.01-37.696-36.156-7.649-31.87 21.165-52.435 26.661-80.947l-2.293-7.203c-63.513 50.499-91.106 124.075-75.489 205.248l4.057 13.168c26.362-11.034 7.524-46.294 20.697-66.2M692.421 561.54c-4.287 1.54-5.206-3.68-6.745-5.832-.919 1.837-.919 4.305-2.763 5.831l-4.58-.943 8.882 28.23c-.294-10.134 3.362-18.389 5.206-27.287M407.038 560.014c-3.993.9-5.509-2.47-6.72-5.223v-1.524c-.954 3.064-3.397 9.493-7.993 6.13 2.455 9.197 6.416 18.09 7.992 27.888-.33-10.107 3.05-18.691 6.721-27.271"/><path d="M432.787 490.719v-2.76c-12.247-5.821-26.678-16.536-26.678-31.594-1.834-27.863 24.832-43.49 22.079-71.387 4.288-3.381 8.27 2.757 13.184 2.149 16.107 1.224 62.253-3.683 72.945 9.507 2.754.585 4.607-.947 6.757-2.16-4.003-8.898-14.413-15.326-24.52-16.238-25.135-2.474-53.955 18.692-74.195-4.312 15.327 35.885-37.388 59.154-19.928 97.173 4.935 11.359 17.18 20.846 28.804 24.21zM685.055 460.7c3.678-31.6-33.093-48.755-22.973-80.316-30.962 17.776-71.43-24.83-97.8 11.938 0 2.455 2.77 4.312 4.597 5.204 5.525-1.513 7.368-6.719 12.273-9.792 23.905-17.177 49.337 5.208 75.087-1.249 1.544 3.07 0 9.202 1.544 13.202 9.82 22.363 34.017 50.877 11.039 75.102-6.121 5.206-13.182 9.192-20.534 11.651-2.15 3.366 1.229 5.8 2.128 8.867 14.11-5.19 33.11-17.764 34.639-34.608"/><path d="M626.809 454.874c-1.834-.923-1.834 1.21-2.737 2.136.903.92.903 3.061 2.737 2.147zM462.831 457.01c-.32-.926.605-2.474-.626-3.059-1.22-.3-1.516 1.214-2.445 1.505-1.537 2.77 3.071 4.315 3.071 1.554M635.098 448.125c-.908.308-1.22-.307-1.534-.624-.917.932-1.834 4.274.626 4.274 1.512-.598.614-2.445.908-3.65M470.796 449.044c.293-.92-.303-1.227-.613-1.543h-1.525v3.675c2.138.925 1.525-1.534 2.138-2.132M455.474 449.044c-.317-1.227.6-2.46-.612-3.072-1.222-.31-1.54.907-2.467 1.53-.6 1.542 3.079 4.6 3.079 1.542M619.465 446.585h-2.163v3.686h2.163zM468.045 411.343c-3.066 2.14-6.437-3.074-6.756-5.23 0 3.99-4.911 6.133-7.345 5.23 4.572 8.273 6.123 18.078 8.26 27.263.92-9.506 3.36-18.381 5.84-27.263M632.647 410.732c-.306 1.213-1.827.3-2.772.611l-3.658-5.842c-.62 2.169-.924 4.307-3.063 5.842l-3.689-.611 7.343 27.874c.937-9.797 4.012-18.682 5.84-27.874M598.315 368.719c20.232-1.22 38.313 13.117 57.939 3.925-56.48-41.089-142.688-47.845-203.695-17.5L428.95 369.11c3.985 5.821 13.034 8.198 20.698 8.486 25.132-3.967 61.913-16.835 79.392 11.052 8.287-4.004 19.624-2.458 27.274 1.521 9.203-14.094 24.837-21.758 42-21.45"/></g><path fill="#fff" d="M716.027 487.045c-12.876 0-27.59 1.536-36.777 10.42-.623 3.985 3.36 5.512 6.426 5.83 11.34-2.144 22.996-7.059 30.351-16.25M398.742 495.927c.622-7.642-8.272-8.567-13.174-11.034-6.122-1.839-13.779-2.438-19.912-2.136 8.586 8.564 19.315 16.854 31.56 15.323zM549.575 380.384c-.295-9.518-1.836-18.714-5.233-26.977-2.433 9.189-10.703 23.58-1.186 32.156 3.057 0 5.509-2.12 6.419-5.18"/><g fill="#003090"><path d="M294.512 468.89c.59-2.515 1.563-4.656 3.208-6.83l-8.618 2.817c-2.25.705-3.88 2.408-4.427 4.745l-4.833 20.662-12.577-2.942c-4.582-1.073-7.574-3.668-8.049-6.906l-5.233 22.369c2.083-2.83 5.363-3.483 10.213-2.349l35.127 8.22c4.851 1.133 7.411 3.154 8.112 6.634l11.96-51.117c-.956.44-1.738.54-2.367.394-1.078-.253-4.426-2.552-10.812-6.036 2.275 6.882 1.703 13.38.001 20.657l-3.826 16.35-13.386-3.13zM317.146 408.108c10.199 5.185 13.07 13.787 8.138 23.491-5.435 10.691-14.82 13.476-26.004 7.79-10.035-5.1-12.908-13.7-7.974-23.406 5.393-10.61 14.819-13.478 25.84-7.875m-34.552 2.618c-9.323 18.34-4.804 33.68 10.493 41.455 15.544 7.901 31.756 2.48 40.827-15.368 9.324-18.34 5.092-33.635-11.03-41.829-14.802-7.526-31.218-2.106-40.29 15.742M360.11 354.128c8.482 7.678 8.997 16.732 1.69 24.802-8.049 8.893-17.835 9.118-27.138.697-8.344-7.554-8.859-16.61-1.553-24.68 7.988-8.822 17.837-9.116 27.001-.82m-34.029-6.538c-13.808 15.253-13.47 31.239-.749 42.756 12.927 11.703 29.993 10.725 43.428-4.118 13.808-15.252 13.737-31.121.332-43.257-12.31-11.147-29.575-10.222-43.01 4.619M378.96 311.253l1.69 2.532 19.92 29.852-2.225 1.484c-6.292 4.199-12.1 6.965-19.34 7.249 5.375 4.732 8.779 7.008 9.445 8.004.358.538.46 1.357.46 2.354l45.123-30.11c-.998-.331-1.64-.792-1.996-1.33-.615-.921-1.487-4.885-3.768-11.792-3.04 6.577-7.824 10.877-14.116 15.076l-2.38 1.588-19.918-29.852c-2.511-3.76-3.101-8.135-1.183-10.745l-19.03 12.699c2.968-.54 5.936.919 7.319 2.99M458.522 299.919c7.077-2.401 11.049-1.607 12.59 2.937 1.66 4.892-1.158 6.92-7.361 9.025l-13.98 4.744-4.18-12.32zm-3.774-23.467c7.252-2.462 11.723-1.347 13.294 3.284 1.542 4.542-1.533 7.826-8.96 10.347l-16.425 5.573-4.596-13.542zm-29.324 10.339 11.472 33.813c1.6 4.718 1.473 8.074-1.285 10.569l29.007-9.842c16.339-5.544 24.186-11.13 20.717-21.352-1.778-5.243-6.522-8.31-12.82-7.926 8.7-4.22 11.646-9.604 9.157-16.943-3.766-11.096-14.073-12.763-31.896-6.714l-31.805 10.79c3.62.333 5.822 2.8 7.453 7.605M527.145 275.242l-9.567 26.608-13.315-24.559zm23.289-22.323-20.503.531c1.51 1.346 1.9 2.752 2.048 4.407.124 1.378-.13 2.697-.347 3.365l-1.242 3.725-31.518 2.823-1.433-2.559c-.442-.794-.841-2.147-.964-3.526-.197-2.206.723-4.619 1.994-5.938l-21.21 4.773c3.003 2.51 4.97 3.46 7.146 7.062l23 38.606c.65 1.053 1.01 1.947 1.059 2.498.034.368-.102.935-.47 1.988l22.697-2.034c-.45-.885-.875-1.495-.916-1.955s.16-1.312.605-2.555l14.399-41.954c1.4-4.016 3.32-6.36 5.655-9.257M547.108 307.317l22.752 3.204c-3.005-1.821-4.2-5.251-3.531-10.001l5.03-35.728 15.443 2.175c8.68 1.223 15.197 3.911 20.376 9.485-1.922-8.191-3.51-12.794-3.317-14.164.103-.731.662-1.398 1.43-2.222l-50.528-7.114c2.993 1.912 3.938 5.12 3.256 9.962l-5.031 35.727c-.694 4.934-2.476 7.664-5.88 8.676M594 313.331l21.634 7.736c-2.575-2.39-3.051-5.99-1.436-10.509l12.147-33.97 14.683 5.25c8.254 2.95 14.093 6.9 18.039 13.407-.228-8.41-.852-13.24-.386-14.544.248-.694.93-1.234 1.85-1.886l-48.046-17.179c2.544 2.477 2.822 5.811 1.175 10.416l-12.147 33.97c-1.678 4.692-3.976 7.006-7.513 7.31M725.186 320.546c-3.304-2.36-7.637-7.724-14.619-12.713-15.918-11.37-31.032-9.58-41.331 4.836-10.405 14.565-6.727 31.482 10.016 43.443 7.658 5.472 14.276 7.479 17.205 9.57.75.536 1.341 1.298 2.156 2.22l3.959-13.955c-6.447-.183-11.917-2.05-17.023-5.696-9.835-7.028-11.359-17.755-4.975-26.69 7.027-9.835 16.037-11.337 26.023-4.202 5.631 4.022 9.803 9.61 13.74 16.96l8.636-12.088c-1.598-.462-2.81-.987-3.787-1.685M698.26 368.313l15.14 17.278c-1.088-3.341.247-6.72 3.855-9.881l27.13-23.773 10.277 11.728c5.777 6.59 8.957 12.882 9.24 20.484 3.892-7.458 5.694-11.98 6.736-12.892.554-.488 1.413-.626 2.533-.75l-33.623-38.373c1.016 3.402-.361 6.45-4.038 9.673l-27.132 23.773c-3.748 3.283-6.88 4.188-10.118 2.733M793.553 401.86c-8.842-15.985-19.426-20.253-32.262-13.153l-21.638 11.967c-4.44 2.456-7.9 2.683-10.674.526l11.029 19.943c-.279-3.747 1.643-6.18 6.163-8.682l21.234-11.744c6.944-3.84 13.017-1.821 17.348 6.01 4.33 7.833 2.85 13.924-4.175 17.808l-21.233 11.745c-4.199 2.32-7.14 3.104-10.63.606l11.074 20.023c-.387-3.37 1.716-6.432 6.075-8.843l21.638-11.966c12.837-7.1 14.892-18.252 6.051-34.24M812.782 482.775c1.715 7.465.154 11.8-4.612 12.894-4.677 1.074-7.633-2.317-9.39-9.96l-3.883-16.907 13.94-3.202zm-23.73 1.38c1.673 7.285.479 11.157-4.196 12.231-5.036 1.156-6.77-1.854-8.236-8.238l-3.305-14.389 12.68-2.913zm16.408-31.603-34.802 7.996c-4.856 1.115-8.18.648-10.384-2.349l6.858 29.856c3.863 16.816 8.627 25.19 19.148 22.772 5.395-1.239 8.928-5.648 9.182-11.955 3.318 9.084 8.377 12.561 15.93 10.825 11.42-2.623 14.122-12.71 9.908-31.056l-7.52-32.733c-.696 3.568-3.373 5.51-8.32 6.644M256.926 577.536l4.956 22.432c.654-3.452 3.448-5.768 8.133-6.804l35.226-7.78 3.362 15.225c1.892 8.557 1.65 15.604-1.76 22.404 7.002-4.665 10.759-7.763 12.109-8.061.722-.16 1.542.132 2.582.564l-11.004-49.821c-.745 3.47-3.42 5.48-8.194 6.535l-35.227 7.78c-4.864 1.075-8.047.362-10.183-2.474M315.809 627.778l-32.104 16.453c-4.433 2.272-7.691 2.387-10.478.187l26.258 51.236c.445-.953.975-1.536 1.55-1.832.985-.504 5.025-.916 12.148-2.39-6.185-3.777-9.951-9.103-13.36-15.754l-9.973-19.46 11.413-5.85 11.025 21.514c1.473 2.874 1.868 5.263 2.05 7.243l4.796-7.642c1.258-1.992 1.319-4.305.182-6.521l-9.678-18.884 12.316-6.314 10.519 20.529c4.168 8.127 5.439 15.666 3.934 22.037 5.59-6.288 8.483-10.153 9.713-10.786.657-.335 1.483-.344 2.598-.19L322.08 619.38c.242 3.504-1.836 6.125-6.271 8.398M328.098 716.744l28.113-22.018c3.996-3.13 7.247-3.918 10.457-2.214l-14.053-17.943c.885 3.526-.715 6.421-4.711 9.55l-28.114 22.019c-3.995 3.129-7.19 3.99-10.4 2.286l14.055 17.942c-.887-3.525.657-6.493 4.653-9.622M401.986 727.296c-3-2.737-6.662-8.578-13-14.362-14.45-13.184-29.668-13.206-41.607-.12-12.065 13.222-10.428 30.453 4.77 44.324 6.953 6.343 13.284 9.122 15.942 11.546.682.623 1.176 1.45 1.877 2.463l5.591-13.384c-6.378-.95-11.588-3.453-16.223-7.682-8.927-8.147-9.162-18.977-1.76-27.087 8.146-8.93 17.27-9.347 26.334-1.076 5.111 4.664 8.59 10.709 11.622 18.473l10.013-10.973c-1.532-.649-2.672-1.315-3.559-2.122M406.028 741.55l-16.894 31.876c-2.332 4.4-4.939 6.363-8.482 6.154l50.868 26.96c-.182-1.035-.08-1.817.221-2.388.518-.978 3.595-3.63 8.59-8.917-7.234.447-13.372-1.762-19.975-5.262l-19.32-10.24 6.006-11.33 21.357 11.32c2.855 1.512 4.545 3.245 5.831 4.76l-.447-9.008c-.11-2.355-1.384-4.285-3.585-5.45l-18.749-9.937 6.481-12.23 20.38 10.804c8.07 4.277 13.43 9.729 15.844 15.812.983-8.356 1.138-13.181 1.786-14.404.346-.652 1.018-1.131 2.021-1.644l-51.6-27.35c2.203 2.735 2 6.073-.333 10.475M482.362 773.616q13.447 3.276 11.744 10.27c-1.375 5.648-7.739 4.477-18.668 3.335-13.526-1.397-21.138 1.784-23.169 10.12-2.338 9.595 4.881 18.95 20.122 22.663 9.773 2.38 17.449 2.448 21.574 3.45.717.175 1.412.44 2.131.996l-.019-14.346c-6.008 2.05-13.459 2.229-21.797.198-6.545-1.594-9.493-4.307-8.641-7.804 1.266-5.2 7.321-3.154 19.12-2.465 13.3.77 20.735-2.072 22.984-11.307 2.796-11.475-5.159-20.536-22.91-24.861-8.07-1.965-14.383-2.173-17.701-2.981a7.4 7.4 0 0 1-2.558-1.193l-6.986 14.253c9.052-2.07 17.153-2.184 24.774-.328"/><path d="M524.657 778.266c-.013.276-.058 1.38-.127 3.04l-1.498 35.859-2.672-.113c-7.56-.315-13.881-1.502-19.9-5.538 1.555 6.989 2.965 10.834 2.915 12.033-.027.645-.426 1.366-1.014 2.172l54.2 2.264c-.61-.857-.856-1.606-.828-2.251.045-1.106 1.678-4.824 3.906-11.75-6.333 3.523-12.732 4.179-20.291 3.863l-2.856-.12 1.496-35.856c.188-4.517 2.29-8.4 5.379-9.38l-22.862-.954c2.715 1.315 4.256 4.24 4.152 6.73M559.287 782.374l6.506 35.49c.9 4.902.07 8.057-2.84 10.092l56.64-10.386c-.785-.7-1.192-1.376-1.307-2.012-.201-1.09.569-5.077 1.21-12.324-5.398 4.835-11.585 6.909-18.938 8.257l-21.512 3.943-2.313-12.616 23.78-4.36c3.177-.582 5.58-.273 7.529.12l-5.937-6.792c-1.546-1.78-3.743-2.504-6.193-2.054l-20.878 3.828-2.495-13.615 22.692-4.161c8.985-1.647 16.572-.693 22.24 2.584-4.411-7.166-7.28-11.051-7.53-12.412-.133-.727.097-1.52.566-2.542l-57.456 10.534c3.426.78 5.337 3.525 6.236 8.426M656.384 775.872c7.89-3.821 11.976-3.853 14.551 1.462s-.025 8.42-7.914 12.24l-13.206 6.396-6.636-13.703zm-22.162-22.896-20.512 9.935c3.632-.12 6.123 2.059 8.336 6.625l15.646 32.305c2.172 4.485 2.212 7.747-.051 10.484l29.15-14.118c6.394-3.097 11.462-5.552 14.551-8.484 4.846-4.602 6.047-11.44 2.87-17.998-3.38-6.976-10.647-9.914-20.172-7.354 3.311-3.961 4.102-7.83 4.655-12.404.781-6.223.689-12.124 3.813-17.533L651.33 744.69c1.479.514 2.38 1.103 2.902 2.183 1.207 2.492 1.279 6.66-.115 12.462-1.308 5.555-4.327 9.272-9.309 11.686l-5.731 2.774-4.907-10.13c-2.211-4.57-2.251-8.035.052-10.69M719.342 690.884c-2.892 2.848-8.92 6.195-15.033 12.214-13.937 13.725-14.771 28.92-2.34 41.54 12.556 12.755 29.852 12.039 44.51-2.396 6.706-6.605 9.819-12.78 12.383-15.303.658-.647 1.509-1.098 2.558-1.742l-13.064-6.298c-1.29 6.32-4.067 11.386-8.538 15.788-8.612 8.48-19.439 8.137-27.142.313-8.481-8.612-8.411-17.745.332-26.354 4.931-4.855 11.153-8.005 19.067-10.62l-10.423-10.582c-.729 1.495-1.455 2.599-2.31 3.44M771.663 693.962l-29.26-20.456c-4.16-2.907-5.861-5.785-5.167-9.354l-13.056 18.675c3.112-1.875 6.347-1.19 10.505 1.718L763.945 705c4.159 2.906 5.912 5.71 5.219 9.277l13.057-18.674c-3.113 1.876-6.4 1.266-10.558-1.642M752.766 649.71l2.749 1.31 32.406 15.437-1.15 2.414c-3.254 6.833-6.825 12.183-12.9 16.138 7.041 1.31 11.131 1.522 12.215 2.037.584.277 1.091.928 1.603 1.786l23.331-48.985c-1.026.225-1.812.158-2.396-.12-.999-.476-3.78-3.437-9.278-8.2.757 7.207-1.147 13.352-4.4 20.183l-1.23 2.582-32.407-15.435c-4.082-1.945-6.831-5.402-6.521-8.625l-9.841 20.66c2.272-1.983 5.57-2.253 7.819-1.183M820.743 584.585c1.446.3 2.235 1.031 2.948 2.593l4.457-21.409c-5.13 3.361-9.56 5.173-12.683 6.595l-29.044 13.652-8.4-1.749c-4.969-1.034-7.792-3.319-8.417-6.652l-4.664 22.402c2.36-3.184 5.457-3.576 10.335-2.56l8.13 1.691 23.385 24.85c3.553 3.755 6.136 6.744 7.03 10.605l4.925-23.668c-1.133 1.367-2.149 1.722-3.594 1.42-2.078-.432-3.154-1.6-4.626-3.13l-14.72-15.317 20.264-8.6q2.642-1.146 4.674-.723"/></g><path fill="#f6a800" d="m662.696 630.078.718.714.044 1.31c.18 4.837 1.51 18.74 5.458 24.91 5.377 8.4 2.723 17.046 1.299 21.691a37 37 0 0 0-.54 1.85c-1.087 4.353-3.206 8.267-3.305 8.432l-1.32 2.422-2.632-.846c-1.713-.55-42.143-13.87-62.915-44.068a671 671 0 0 0-7.773-6.027 9 9 0 0 1-.238 1.382c-.514 2.024-2.022 4.784-6.242 6.44-5.102 2.004-23.295 7.2-45.956 7.2-18.172 0-34.735-3.294-49.226-9.798l-3.31-1.484.993-1.798c-19.932 17.067-57.546 47.991-68.33 47.991-.133 0-.265-.007-.396-.009l-1.49-.083-.935-1.168c-.284-.36-1.771-2.35-3.218-6.679-.083-.257-.287-.479-.793-1-3.547-3.63-4.551-7.738-.184-20.106 6.107-17.294 6.52-23.943 6.797-28.343.346-5.546 4.73-18.332 6.49-21.905.863-3.55 6.823-27.92 9.718-34.694 2.56-5.959-.251-9.363-3.054-11.162l-.726-.457c-3.533-2.229-10.896-6.857-11.9-14.607-.652-5.016 1.497-10.275 6.378-15.62 1.19-2.228 2.265-4.808 2.44-5.865a.2.2 0 0 0-.024-.04c-1.728-2.834.099-4.64 1.87-6.394l1.073-1.06c1.836-1.84 3.799-3.152 5.534-4.308 2.028-1.355 3.787-2.526 5.127-4.308.687-.925 1.19-1.797 1.682-2.648 1.175-2.05 2.388-4.152 5.584-5.986l-.586-3.816c-.821-5.327.872-16.954 13.163-22.79 3.613-1.719 6.324-2.894 8.3-3.753 5.2-2.256 5.2-2.256 6.84-5.174 3.283-5.834 9.687-12.536 16.304-17.067 5.356-3.662 10.302-10.752 10.905-12.51l5.3-1.57.53.065c.057.068.374.454.81 1.101q.242-.174.494-.34c-1.65-4.172-3.202-8.966-3.202-12.236 0-4.919 2.019-16.202 19.96-19.166l.096-.136 4.813-3.334 5.992-5.147.79-.476h4.294l.372.087 4.32.997 1.13.26.73.906 2.656 3.32 2.296 2.875c6.744.52 10.862 3.617 13.162 5.35l.223.163c3.494 2.623 7.643 12.53 7.643 14.634 0 1.078-.643 5.753-1.028 8.444l-.052.35-.121.328-1.91 5.213c1.258-2.098 1.555-2.969 1.56-2.982l1.938-5.878 3.843 4.704 8.868 10.838c.802.8 5.45 5.418 8.399 8.071 2.787 2.512 4.337 5.795 5.466 8.19.4.86.785 1.66 1.033 2.045 1.184 1.582 11.434 10.067 20.05 14.54 10.92 5.66 13.183 16.764 12.048 22.85l-.281 1.476-1.071.641a47 47 0 0 1 2.474 7.121c5.94 3.695 12.548 8.606 17.716 14.538l1.325 1.612-.777 1.903c-.093.233-2.243 5.758 4.16 13.496 5.556 6.71 6.902 9.514 5.73 11.987a3.68 3.68 0 0 1-2.468 2.025c-6.731 4.811-12.804 10.612-13.188 12.655-.115.617-.25 1.254-.384 1.913-1.008 4.83-2.145 10.303 1.707 17.495 3.733 6.965 3.978 10.382 3.906 13.543-.02.756-.022 1.196.069 1.596 1.165 5.266 5.52 22.413 6.955 25.164"/><path fill="#fff" d="m559.712 464.66 2.94-9.15 1.351-12.417-8.084-6.11-29.217.871-11.18 9.977 4.917 4.214 2.813 12.65c-36.543 27.407-52.705 30.22-52.705 30.22-7.272 3.353-14.988 5.042-21.64 5.853l-.099-.627c-.822-5.327.87-16.954 13.16-22.79 3.612-1.719 6.326-2.894 8.3-3.753 5.2-2.256 5.2-2.256 6.844-5.174 3.281-5.834 9.685-12.536 16.303-17.067 5.353-3.662 10.302-10.752 10.905-12.51l5.3-1.57.53.065c.053.068.371.454.81 1.101q.241-.174.49-.34c-1.65-4.172-3.199-8.966-3.199-12.236 0-4.919 2.02-16.202 19.961-19.165l.096-.136 4.813-3.335 5.992-5.147.79-.476h4.294l.371.087 4.322.997 1.127.26.73.906 2.651 3.32 2.302 2.875c6.74.52 10.862 3.617 13.163 5.35l.218.163c3.498 2.623 7.645 12.53 7.645 14.634 0 1.078-.64 5.753-1.025 8.444l-.053.35-.12.328-1.91 5.213c1.257-2.097 1.555-2.969 1.555-2.982l1.942-5.878 3.843 4.704 8.868 10.838c.803.8 5.446 5.418 8.4 8.071 2.786 2.512 4.336 5.795 5.46 8.19.401.86.788 1.66 1.038 2.045 1.181 1.582 11.434 10.067 20.048 14.54 10.918 5.66 13.186 16.764 12.048 22.85l-1.125 4.33.177.9-10.14-5.573c-66.348-25.493-66.02-37.91-66.02-37.91"/><path fill="#003090" d="M473.156 537.95s1.995 2.66 6.98-1.33c4.984-3.988 16.26-12.972 27.557-11.643 0 0 2.33-3.654-5.645-3.32-7.977.33-7.647.664-10.3.995-2.662.332-13.935 10.978-14.936 12.637-.998 1.664-3.656 2.661-3.656 2.661M547.479 614.946l-3.66 2.99s-1.996 5.98-.998 8.638c.998 2.66 14.952 11.3 17.616 12.628 0 0-3.989-7.306-7.643-9.638-3.66-2.324-5.649-5.978-5.649-5.978s-.997-5.314.334-8.64M535.846 615.94s4.317 7.315 1.995 9.304c-2.327 1.997-16.62 12.962-16.62 12.962s.337-6.976 3.657-9.306c3.323-2.326 6.312-2.323 6.648-3.987l.329-1.658s-.665-1.665.667-3.323c1.33-1.665 3.324-3.992 3.324-3.992M572.385 574.482s17.2 9.053 23.085 10.411c5.884 1.361 0 2.72-1.358 3.171-1.36.454-5.432.454-5.432.454l-5.434-2.264-2.713-1.36-4.072-3.17-3.173-1.358-1.81-.903s-1.811-6.338.907-4.98M485.915 586.707c-.501 2.25 2.267-.906 4.076-1.813 1.812-.906 10.412-3.624 10.412-3.624l2.722-1.806 4.524-3.624-.907-2.267s-2.717 0-4.075 1.363c-1.357 1.358-5.742 4.338-6.042 3.53-.298-.815-3.011.088-5.272 1.445-2.265 1.358-4.531 2.716-5.438 6.795"/><path fill="#fff" d="M468.187 622.05c-.65 1.352-1.506 3.314-1.721 4.197-.112.442-.241.862-.393 1.346-.447 1.399-1.052 3.323-1.702 9.223-.765 6.973-4.686 11.108-6.788 13.334-.339.357-.797.84-.95 1.047-.997 1.932-2.591 2.282-3.456 2.468-.832.182-2.571.557-6.717 4.517-7.504 7.166-16.354 12.972-16.724 13.22l-7.696 5.028 2.929-8.794c1.219-3.648 2.576-8.237 2.652-9.172 0-.93.205-2.857.57-6.18.322-2.958.73-6.635.73-7.903 0-2.758 1.841-14.835 2.211-17.222l.072-.504.225-.45c.602-1.22 3.671-7.394 5.079-9.295l.322-.437c.949-1.275 1.162-1.562 1.756-3.35a8 8 0 0 0-.157-.484c-.814-2.424-1.505-5.581.62-12.373 1.769-5.621 4.864-6.802 7.151-6.802 4.008 0 7.204 3.902 7.948 4.88.614.75 2.275 2.723 3.235 3.696.262.267.624.653 1.076 1.128 1.695 1.803 4.864 5.164 8.206 7.872 2.732 2.218 3.347 4.547 3.379 6.11.053 2.325-1.125 4.05-1.857 4.9"/><path fill="#003090" d="M604.376 542.59s-1.886-.33-1.886-2.969-10.704-11.526-14.166-13.176c-3.461-1.652-7.552-1.019-11.326-1.019-3.778 0-5.038-4.947-5.038-4.947.023-.006.04-.006.065-.006-1.243-2.13-2.65-5.99-2.65-5.99s-1.291-9.441-4.285-18.888c-3.003-9.44 1.712-21.582 2.143-23.379.423-1.8 3.853-7.644 5.14-9.44 1.29-1.8 1.466-9.172 1.466-9.172l2.395 8.717s-.428 3.15-.854 4.95c-.434 1.797-3.007 4.046-3.864 7.195-.858 3.146-3.001 11.69-3.001 13.94 0 2.248 2.143 14.838 2.57 17.082.43 2.247 2.548 6.746 2.796 13.097.026.72.02 1.289-.012 1.753 19.768-1.04 28.979 11.42 30.507 13.34 1.576 1.98 3.463 8.913 3.463 8.913z"/><path fill="#fff" d="M650.807 672.458c-3.501-3.76-8.281-6.58-13.35-9.567-9.277-5.478-19.802-11.683-20.676-24.826l-.077-1.117.65-.93c2.133-3.092.953-5.385-1.506-9.508-1.257-2.107-2.555-4.294-3.151-6.784l-.488-2.048 1.676-1.275c2.473-1.885 4.658-4.333 6.768-6.71 4.374-4.907 8.893-9.978 16.348-10.85l1.906-.22 1.13 1.529c3.89 5.265 4.943 11.303 5.968 17.144.932 5.335 1.814 10.383 4.802 14.42l.814 1.1-.222 1.339c-.973 5.916.756 13.379 2.424 20.598 1.185 5.156 2.416 10.49 2.676 15.335l.476 8.999z"/><path fill="#003090" d="M509.939 515.798c1.189-14.224 13.963-24.976 5.516-39.023 1.048-7.99-6.571-11.963-8.68-18.55-3.412 0-1.832 5.442-1.31 7.715 7.355 12.818 9.724 30.782 1.853 44.453-.28 2.28.249 4.842 2.62 5.405M648.426 634.611c-6.99-9.56-3.96-22.879-10.948-32.446-9.728 1.151-13.966 11.298-21.855 17.376 1.5 6.366 9.391 11.867 4.236 19.405 1.2 18.254 22.795 21.442 33.715 33.311-.605-11.596-6.982-26.356-5.148-37.646m7.876 46.63c-12.13-10.43-27.329-14.19-38.562-26.938-11.223-9.853 1.82-26.369-13.669-34.177 10.931-10.145 20.64-21.146 34.018-28.379 9.408 5.78 9.713 16.503 10.323 26.343 9.72 17.088 4.851 37.357 12.445 55.62-1.516 2.59.302 8.67-4.555 7.531M465.091 612.824c-4.52-3.623-8.593-8.151-9.95-9.508-1.36-1.358-3.626-4.074-3.626-4.074s-6.79-9.053-9.96.904c-3.168 9.96.454 10.412-.452 13.13-.906 2.715-1.358 3.172-2.716 4.977-1.359 1.813-4.98 9.056-4.98 9.056s-2.26 14.485-2.26 17.202c0 2.716-1.362 12.677-1.362 14.486 0 1.812-2.937 10.51-2.937 10.51s9.276-5.981 16.97-13.228c7.697-7.241 9.054-4.524 9.962-6.333.904-1.812 6.79-5.434 7.695-13.581.904-8.153 1.813-9.51 2.262-11.321.454-1.808 2.267-5.431 2.267-5.431s3.62-3.165-.913-6.79m4.985 11.77c-.905 2.262-3.168.45-2.3 6.712 2.02 14.55.482 7.821-7.206 20.45 0 0-4.98 5.884-5.254 7.481-.266 1.591-1.536.667-3.8 2.025-2.262 1.357-3.622 1.812-6.79 3.625-3.172 1.805-4.073 3.162-8.15 7.242-4.075 4.071-10.413 6.338-12.673 7.693-2.263 1.361-3.622 0-3.622 0-2.265 0 .904-9.506.904-11.318s.903-10.864 3.165-23.085c2.265-12.224 4.983-23.09 6.796-27.165 1.812-4.07 2.26-7.24 3.62-17.65 1.358-10.41 8.415-13.665 8.415-13.665s12.408 11.853 17.39 14.568c4.978 2.715 6.337 5.884 9.052 9.506s2.715 3.621 4.98 7.241c2.261 3.624-3.62 4.075-4.527 6.34M506.953 535.236a7.636 7.636 0 1 0-15.272.004 7.636 7.636 0 0 0 15.272-.004"/><path fill="#fff" d="M497.71 538.048a1.605 1.605 0 1 0-3.21.004 1.605 1.605 0 0 0 3.21-.004"/><path fill="#003090" d="M591.512 535.236a7.635 7.635 0 0 0-15.27 0 7.637 7.637 0 0 0 7.635 7.638 7.64 7.64 0 0 0 7.635-7.638M482.52 548.417c-7.264-.246-15.76-1.511-22.746-.72 3.683-1.725 11.016-3.524 22.436-3.926 4.62 1.013 8.736 1.705 13.896 1.007 12.322-1.503 17.985-14.4 27.61-19.21l1.505 4.81c-7.52 15.034-26.165 24.357-42.7 18.039"/><path fill="#003090" d="M657.8 545.824c-7.976-9.633-4.654-16.945-4.654-16.945-11.298-12.963-29.908-20.934-31.233-21.267-1.33-.33-3.66-2.994-4.99-4.322-1.326-1.328-8.303-9.302-8.303-9.302l3.32-.33-1.218-4.235s4.875 5.56 6.536 7.888c1.662 2.327 5.98.998 5.98.998l4.651 2.326s1.997 1.327 2.998 1.994c.992.668 2.654-.335 2.654-.335.997-5.315-1.328-14.622-10.303-19.272-8.97-4.65-19.936-13.624-21.264-15.618-1.33-1.995-2.662-6.646-5.985-9.636-3.32-2.99-8.638-8.308-8.638-8.308l-8.973-10.967s-.33 1.334-2.656 4.987c-2.329 3.654-.997 3.323-1.33 5.318-.335 1.996-.999 3.655-2.662 6.647-1.657 2.987-3.655 1.322-4.983 2.323-1.327.996-2.326 3.987-2.326 7.31 0 3.324-7.974 41.205-8.64 44.527l-.662 3.325s3.985 9.302 13.956 20.934c2.214 2.588 4.476 4.51 6.66 5.943q-.019-.064-.03-.127c3.706 2.462 10.022 5.283 17.477 2.945-.02.036-.038.074-.065.107 4.18-1.175 7.871-1.724 11.14-1.844 12.204 1.165 17.232 5.796 19.171 8.64-5.106-1.133-15.15-2.227-15.15-2.227-48.517 4.32-36.548-2.137-36.548-2.137-10.63-3.657-15.617-17.947-15.617-17.947s-3.319-4.318-4.647-6.31c-1.332-1.995-1.332-9.972-1-11.967.33-1.99 1-7.308 1-7.308-3.657-16.286 6.642-41.539 6.97-42.533.34-.999 3.537-15.584 3.537-15.584l1.812-.45 2.632 2.741h1.658l.67-1.664 3.654-9.967s.994-6.98.994-7.978c0-.994-3.653-9.964-6.312-11.965-2.66-1.99-7.644-5.978-16.947-4.646-.265.036-.53.066-.799.1-1.82.424-3.663.788-3.663.788l-1.805.45-1.359 1.356-.456 1.812v3.255c3.323.55 5.757 2.204 5.757 2.204 8.647 3.957 9.996 11.682 9.996 16.743 0 2.494-4.013 4.527-4.013 4.527-10.97 3.321-20.606 1.662-26.258.331-5.645-1.325-3.65-9.3-3.65-9.3-.13-4.75 9.302-12.3 9.302-12.3 2.192-1.729 4.491-2.332 6.604-2.37v-1.734s-.453-1.81-1.357-3.62c-.602-1.203-3.288-1.79-5.038-2.057-.979-.103-1.54-.185-1.54-.185-16.946 1.661-20.268 10.3-20.268 16.281 0 5.985 6.645 19.275 6.645 19.275l1.995-1.662s3.657 0 4.65.662c1 .666.665 2.328 0 3.323-.664.996-1.657 2.992-1.657 2.992 7.64 7.975 12.294 60.81 12.626 62.142.33 1.328-.332 3.653-.332 3.653l-1 2.326-1.992 1.996s-4.322 3.323-6.313 2.325c-1.996-.997 1.991-6.315 1.991-6.315l2.33-2.99c-2.33-3.324-4.32-21.6-4.32-21.6l-3.657-22.928s-2.99-6.644-4.32-12.96-7.31-1.658-7.31-1.658c1.992-8.642-3.32-14.955-3.32-14.955-.335 1.991-5.987 10.303-12.296 14.62-6.316 4.32-12.299 10.634-15.289 15.95-2.989 5.314-3.319 3.986-16.616 10.302-13.295 6.316-11.297 19.273-11.297 19.273s9.305-3.655 10.634-3.986c1.325-.335 7.645-2.325 9.972-3.325 2.324-.998 12.292-7.31 2.324 3.656-9.97 10.967-14.956 7.307-21.268 9.636-6.316 2.326-5.982 4.982-8.973 8.97-2.988 3.99-7.309 5.317-10.966 8.972-3.654 3.656-2.655 2.331-1.992 4.324.665 1.99-2.993 8.637-2.993 8.637-13.959 14.951.667 22.931 5.315 25.918 4.655 2.992 7.316 8.312 4.321 15.29-2.989 6.978-9.636 34.555-9.636 34.555-1.33 2.33-5.979 15.62-6.313 20.933-.335 5.323-.996 12.3-6.979 29.247-5.979 16.945-.333 14.951 1 18.941 1.328 3.987 2.66 5.65 2.66 5.65 12.292.662 77.09-56.493 77.09-56.493-1.057 4.19-2.727 8.214-4.866 12.084 39.195 17.586 83.628 6.06 92.592 2.542 9.307-3.66.998-13.63.998-13.63 1.325.337 16.95 12.625 16.95 12.625 20.271 29.912 61.471 43.204 61.471 43.204s1.994-3.657 2.992-7.646 4.985-12.627-.327-20.93c-5.32-8.312-5.984-26.586-5.984-26.586-1.666-1.663-6.98-23.592-7.645-26.586-.67-2.99 1.331-4.983-3.654-14.288-4.987-9.307-2.66-16.284-1.664-21.599.994-5.318 15.288-15.287 15.288-15.287s3.327.997-4.652-8.642m-109.66-143.88-4.32-.997h-2.988l-6.649 3.985s2.327.67 6.978.67c4.653 0 8.311-.338 9.304-.338h.33zM661.788 566.1c-14.29 10.631-5.65 19.274-2.66 25.253 2.987 5.984 4.318 17.282 4.318 20.272s.663 14.617 4.32 17.94 4.322 21.265 5.982 25.59c1.662 4.318 2.328 11.3 2.328 12.961s.332 4.98.665 7.973c.328 2.99-10.962 24.59-10.962 24.59-15.955-1.659-56.498-36.555-60.482-40.873-3.987-4.32-8.31-6.98-8.31-6.98-22.598 6.65-34.89 4.99-57.158 6.317-18.699 1.115-45.834-5.738-54.04-7.963-22.262 28.87-68.243 46.513-68.243 46.513-16.947-16.95-4.985-57.49-3.32-61.145 1.66-3.66 5.646-10.306 5.315-17.614s4.982-24.257 5.977-30.573c1.001-6.315 6.652-15.617 6.652-15.617s-3.657-3.987-9.975-10.303c-6.31-6.309-3.984-3.323-7.638-4.98-3.655-1.663-4.324-6.317-4.324-6.317s4.985-8.972 9.308-13.625c4.317-4.653-1.33-8.639-1.33-8.639s7.64-6.315 12.298-9.967c4.65-3.657 1.992-3.324 5.315-6.313 3.318-2.994.997-5.318.997-5.318l2.656-2.326c1.997-23.592 22.595-32.233 30.24-36.553 7.643-4.319 12.958-11.298 12.958-11.298l6.316-4.986c15.948-11.3 15.948-21.6 15.948-21.6-2.99-17.943 9.642-21.267 9.642-21.267 16.944-5.648 15.948-6.976 15.948-6.976 12.957-10.304 16.615-4.985 21.264-3.657 4.654 1.331 10.303 5.315 10.303 5.315 24.254 9.97 20.273 30.575 20.273 30.575s3.981 5.648 6.977 8.638c2.988 2.99 5.65 8.972 5.65 8.972s16.944 15.286 27.25 20.938c10.295 5.647 19.273 12.954 23.921 32.895 4.654 19.938 19.944 23.928 19.944 23.928-1.334 2.322-2.996 7.64.661 12.958 3.642 5.301 9.598 13.57 9.636 13.62-.054-.059-.917-.556-14.62 9.642"/><path fill="#fff" d="M582.225 538.048a1.606 1.606 0 1 0-3.21.005 1.606 1.606 0 0 0 3.21-.005"/></g></svg>