<svg xmlns="http://www.w3.org/2000/svg" viewBox="0 0 300 300"><path fill="#00285e" d="M150.027-.02C67.357-.02.063 67.275.063 149.945s67.294 149.963 149.964 149.963S299.99 232.614 299.99 149.944C299.895 67.274 232.696-.02 150.027-.02"/><path fill="#fff" d="M284.33 150.039c0-74.223-60.176-134.398-134.398-134.398S15.534 75.816 15.534 149.944c0 74.222 60.175 134.492 134.398 134.492 74.222-.095 134.397-60.27 134.397-134.397"/><path fill="#6caddf" d="M235.544 150.039c0-47.267-38.345-85.517-85.517-85.517-47.267 0-85.517 38.345-85.517 85.517 0 47.267 38.345 85.517 85.517 85.517s85.517-38.345 85.517-85.517"/><path fill="#00285e" d="M150.027 242.295c-50.874 0-92.256-41.477-92.256-92.351s41.382-92.256 92.256-92.256 92.35 41.382 92.35 92.256c-.094 50.968-41.477 92.35-92.35 92.35m0-179.482c-48.026 0-87.13 39.105-87.13 87.13s39.104 87.132 87.13 87.132 87.13-39.105 87.13-87.131-39.104-87.13-87.13-87.13"/><g fill="#6caddf"><path d="M150.027 293.833c-79.348 0-143.89-64.541-143.89-143.89S70.68 6.056 150.028 6.056s143.889 64.541 143.889 143.889c-.095 79.348-64.636 143.889-143.89 143.889m0-284.646C72.389 9.187 9.366 72.305 9.366 149.944c0 77.544 63.117 140.662 140.662 140.662s140.662-63.118 140.662-140.662S227.57 9.187 150.027 9.187"/><path d="m29.961 146.717-2.373.57-.664-2.468 3.986-1.14h2.088v14.048h-3.037zM36.51 153.835c0-1.803.76-2.752 2.278-3.322-1.139-.664-1.803-1.518-1.803-3.037v-.095c0-2.088 1.993-3.796 4.935-3.796s4.936 1.708 4.936 3.796v.095c0 1.424-.665 2.373-1.804 3.037 1.424.76 2.278 1.614 2.278 3.322v.095c0 2.563-2.278 4.082-5.315 4.082-3.132-.095-5.505-1.804-5.505-4.177m7.688-.284c0-1.14-1.044-1.804-2.373-1.804-1.423 0-2.372.665-2.372 1.709 0 .949.854 1.803 2.372 1.803s2.373-.76 2.373-1.708m-.285-5.79c0-.854-.759-1.709-1.993-1.709s-1.993.76-1.993 1.614v.095c0 .949.76 1.708 1.993 1.708 1.14-.095 1.993-.759 1.993-1.708M257.564 151.937c-.76.57-1.614.95-2.848.95-3.037 0-4.935-1.71-4.935-4.462v-.095c0-2.752 2.183-4.935 5.315-4.935 1.898 0 2.942.474 3.986 1.518s1.614 2.468 1.614 5.316v.095c0 4.555-2.088 7.593-6.075 7.593-2.088 0-3.322-.665-4.65-1.709l1.613-2.373c1.044.76 1.898 1.14 3.037 1.14 2.278.094 2.848-1.899 2.943-3.038m.095-3.702c0-1.233-.855-2.183-2.373-2.183s-2.373.855-2.373 2.089v.094c0 1.234.95 2.089 2.373 2.089 1.518 0 2.373-.95 2.373-2.089M270.567 154.595h-6.834l-.474-2.183 7.593-8.827h2.562v8.542h1.899v2.468h-1.899v3.037h-2.942zm0-2.468v-4.366l-3.702 4.366z"/></g><path fill="#fff" d="M150.027 237.17c-48.026 0-87.13-39.105-87.13-87.131s39.104-87.13 87.13-87.13 87.13 39.104 87.13 87.13-39.104 87.13-87.13 87.13m0-171.129c-46.318 0-83.904 37.681-83.904 83.904 0 46.318 37.68 83.903 83.904 83.903 46.318 0 83.903-37.68 83.903-83.903S196.25 66.04 150.027 66.04"/><path fill="#00285e" fill-rule="evenodd" d="M148.413 74.962c-42.996 0-67.863 5.6-67.863 5.6s-9.87 37.68-4.271 85.992c2.373 20.311 18.793 63.877 73.463 78.778 54.67-14.901 71.09-58.562 73.463-78.778 5.6-48.311-4.271-85.992-4.271-85.992s-24.867-5.6-67.863-5.6z" clip-rule="evenodd"/><path fill="#97c1e7" fill-rule="evenodd" d="M215.707 155.354c-.475 14.617-2.753 58.467-65.965 82.575-62.738-23.444-65.965-68.813-65.965-82.575z" clip-rule="evenodd"/><path fill="#fff" fill-rule="evenodd" d="M213.809 152.886c1.708-36.352-4.461-65.775-4.461-65.775s-23.539-4.556-59.511-4.556c-36.067 0-59.985 4.936-59.985 4.936s-6.55 29.613-4.746 65.3z" clip-rule="evenodd"/><path fill="#6caddf" d="m151.64 236.6-66.724-80.677c-2.373 16.61 11.105 65.68 66.724 80.677M104.848 155.449l61.789 74.507c6.264-3.037 10.82-5.885 15.28-9.491l-53.91-65.016zM147.749 155.449l45.653 55.05c4.461-5.03 8.258-9.681 11.01-14.522l-33.6-40.528zM214.568 155.449l-22.78-.095 19.078 23.064c3.322-7.024 3.702-18.983 3.702-22.97"/><path fill="#00285e" d="M176.697 185.631c-.19-.474-.569-.949-1.139-1.139l-3.796-1.328c-.38-.19-.664-.095-1.044 0-.285-1.33-1.044-2.468-2.088-3.322-.19-.095-.285-.19-.475-.285-.19-.19-.474-.285-.76-.475-.474-.19-1.043-.38-1.423-.474-1.139-.38-2.183-.76-3.606-1.709-1.33-.949-1.899-1.803-2.468-2.657-.19-.19-.285-.38-.475-.57-.38-.57-.854-1.139-1.424-1.518a5.75 5.75 0 0 0-3.321-1.044c-.285 0-.475.095-.76.095v-.095c.095-.475-.095-.95-.285-1.33l-2.372-3.131c-.38-.475-.855-.76-1.424-.76s-1.139.19-1.424.665l-2.468 3.132c-.284.38-.474.854-.38 1.424-.189 0-.379-.095-.569-.095a6 6 0 0 0-3.322 1.044c-.19.095-.284.19-.38.285-.19.19-.474.38-.664.664-.38.474-.664.76-.949 1.234-.76.949-1.329 1.803-2.752 2.847-1.33.95-2.373 1.234-3.322 1.519-.19.095-.475.19-.665.19a6.9 6.9 0 0 0-1.898.854c-1.139.76-1.898 2.088-2.183 3.417-.38-.19-.76-.19-1.234-.095l-3.701 1.234c-.475.19-.95.57-1.14 1.139-.19.474-.094 1.139.19 1.518l2.278 3.322c.285.38.665.57 1.14.76-.57 1.233-.76 2.752-.285 4.08.094.19.19.286.19.475.094.285.19.57.474.855.285.474.57.854.854 1.233.76.95 1.424 1.804 1.898 3.512.475 1.519.475 2.563.475 3.607v.76c-.095.759 0 1.423.285 2.087.474 1.33 1.423 2.373 2.467 3.038-.19.284-.284.57-.19.854v3.986c0 .57.285 1.14.76 1.424s1.044.475 1.519.285l3.701-1.044c.38-.095.57-.38.76-.57 1.138 1.14 2.752 1.614 4.366 1.519.284 0 .569-.095.949-.19.474-.19 1.044-.285 1.423-.475 1.14-.38 2.183-.759 3.987-.759 1.613 0 2.562.38 3.606.664.19.095.475.19.665.19.664.285 1.424.38 2.088.38 1.424 0 2.752-.57 3.796-1.519.19.285.475.475.76.57l3.796 1.139c.475.19 1.14.095 1.614-.19s.76-.76.76-1.424l.094-3.986c0-.285-.095-.57-.19-.854 1.14-.665 2.088-1.804 2.468-3.038.095-.19.095-.284.19-.474.095-.285.19-.57.19-.95.095-.474.095-1.043.095-1.518 0-1.139 0-2.278.474-3.986.475-1.519 1.14-2.373 1.804-3.132.19-.19.284-.38.474-.57.475-.474.76-1.139 1.044-1.803.475-1.424.285-2.943-.38-4.271.38-.19.665-.285.855-.57l2.373-3.227c.094-.285.284-.76.094-1.424"/><path fill="#ffc758" d="M147.654 194.269c0-1.234 1.044-2.183 2.278-2.183s2.278 1.044 2.278 2.183c0 1.233-1.044 2.183-2.278 2.183s-2.278-1.045-2.278-2.183"/><path fill="#ee3124" d="M149.837 175.38c-.38-1.423-1.234-2.562-2.373-3.226l2.373-3.038 2.183 3.038c-1.044.664-1.803 1.803-2.183 3.227m-17.939 13.003c-1.139-.76-1.993-1.803-2.373-3.037l-3.511 1.139 2.088 3.037c1.044-.665 2.373-1.14 3.796-1.14m6.929 20.692c-1.139.854-2.373 1.329-3.702 1.329v3.701l3.702-1.139c-.475-1.044-.475-2.467 0-3.891m22.02.095a6.1 6.1 0 0 1 .095 3.891l3.607 1.14.094-3.702c-1.328 0-2.657-.475-3.796-1.33m6.834-20.69c1.423-.095 2.752.285 3.701 1.139l2.183-3.037-3.606-1.234c-.285 1.139-1.14 2.278-2.278 3.132m-22.4 20.786a3 3 0 0 1-3.037-3.037c0-.19-.19-.285-.38-.19-1.139 1.329-1.898 2.468-1.993 3.891-.095 2.088 1.708 3.702 3.797 3.702h.38c.189 0 .379 0 .664-.095 1.423-.38 2.752-1.139 5.315-1.139 2.088 0 3.227.57 4.366.854q.712.285 1.423.285c2.089 0 3.797-1.708 3.797-3.702 0-1.423-.854-2.562-1.993-3.891-.095-.19-.285 0-.285.19 0 1.613-1.424 3.037-3.037 3.037-1.234 0-2.848-1.139-4.461-1.139-1.329.095-3.322 1.234-4.556 1.234m-1.993-4.081a2.45 2.45 0 0 0 2.468 2.467c.19 0 .284 0 .474-.095.095 0 .19 0 .19-.095h.095c.854-.284 1.708-.664 3.227-.664s2.278.475 3.132.664c.285.095.57.19.854.19a2.45 2.45 0 0 0 2.468-2.467c0-.38-.095-.76-.19-1.044-.095-.19-.19-.285-.19-.38 0 0-4.27-5.79-4.366-5.885-.19-.285-.474-.19-.664-.095s-.76.19-1.139.19-.76-.095-1.044-.19c-.285-.19-.475-.19-.664.095-.19.19-3.227 4.366-4.177 5.695-.19.38-.474.95-.474 1.614m19.647-1.899c-.475 1.614-2.183 2.373-3.797 1.899-.19-.095-.38.094-.19.284.95 1.424 1.804 2.563 3.133 3.038 1.993.664 4.176-.475 4.745-2.373.095-.19.095-.19.095-.38.095-.19.095-.38.19-.57.19-1.518-.19-2.942.57-5.315.664-1.993 1.518-2.847 2.183-3.796.284-.38.57-.76.759-1.234.664-1.993-.475-4.176-2.373-4.746-1.424-.474-2.752.095-4.366.665-.19.095-.19.19.095.284 1.614.475 2.468 2.183 1.993 3.797-.38 1.139-1.898 2.373-2.373 3.891-.664 1.14-.284 3.228-.664 4.556m-4.556.57c1.329.474 2.753-.285 3.227-1.614.095-.19.095-.284.095-.474v-.285c0-.854-.19-1.803.285-3.227s1.139-2.088 1.613-2.753c.19-.19.285-.474.475-.759a2.413 2.413 0 0 0-1.614-3.132c-.38-.095-.759-.19-1.044-.095-.19 0-.284 0-.474.095 0 0-6.929 2.183-7.119 2.278-.284.19-.284.474-.284.57 0 .19-.095.759-.19 1.138-.095.285-.285.76-.475.95s-.38.474-.19.664 3.132 4.366 4.177 5.695c.38.38.949.664 1.518.949m4.081-19.173a2.856 2.856 0 0 1 .665 4.176c-.19.19 0 .38.19.285 1.708-.474 3.037-.854 3.891-2.088 1.234-1.708.854-3.986-.76-5.315-.094-.095-.189-.19-.379-.19-.19-.19-.285-.19-.57-.285-1.423-.57-2.847-.759-4.935-2.183-1.708-1.234-2.278-2.372-3.037-3.322-.19-.38-.57-.759-1.044-1.139-1.709-1.233-4.081-.854-5.315.76-.76 1.139-.76 2.657-.76 4.366 0 .19.19.19.285 0 .95-1.329 2.848-1.614 4.271-.665 1.044.76 1.709 2.563 3.037 3.417 1.234 1.234 3.417 1.424 4.461 2.183m-.854 4.461c.76-1.139.57-2.752-.57-3.512-.094-.095-.19-.19-.474-.284-.095 0-.19-.095-.19-.095-.854-.285-1.803-.475-3.037-1.33s-1.613-1.707-2.088-2.372c-.19-.19-.38-.474-.57-.664-1.138-.76-2.752-.57-3.511.57-.19.284-.38.569-.475.948 0 .19-.095.285-.095.475v7.403c0 .38.285.38.475.475s.76.284.949.474c.285.19.57.475.76.76.19.19.284.474.569.284s5.22-1.708 6.739-2.183c.664-.095 1.233-.474 1.518-.949m-16.99-9.776c1.33-.949 3.228-.664 4.272.664.19.19.38.19.38-.094.094-1.709.094-3.133-.76-4.366-1.139-1.709-3.607-2.089-5.315-.76-.19.095-.19.19-.285.19-.19.095-.285.19-.474.475-1.044 1.139-1.614 2.467-3.702 3.986-1.708 1.234-2.942 1.424-3.986 1.803-.475.19-.95.285-1.33.57a3.7 3.7 0 0 0-.758 5.315c.854 1.139 2.278 1.614 3.891 2.088.19.095.19-.19.19-.285-.95-1.328-.665-3.227.664-4.176 1.044-.76 2.943-.76 4.271-1.803.95-.854 1.899-2.848 2.943-3.607m4.082 2.183c-.76-1.139-2.373-1.424-3.512-.57-.19.096-.19.19-.38.285l-.19.19c-.474.76-.948 1.519-2.182 2.373s-2.088.95-2.943 1.329c-.284.095-.57.19-.759.38-1.139.759-1.424 2.372-.57 3.511.19.285.475.475.76.665.19.095.19.19.38.19 0 0 6.928 2.183 7.118 2.277.38.095.475-.19.57-.284.19-.19.474-.57.759-.76s.664-.38.949-.474.475-.19.475-.475v-7.023c0-.475-.095-1.044-.475-1.614m-14.712 13.098c-.474-1.613.38-3.322 1.899-3.796.19-.095.19-.285.095-.38-1.614-.57-3.038-1.139-4.366-.664-1.994.57-3.038 2.752-2.373 4.745 0 .19.095.19.19.38l.284.57c.76 1.328 1.899 2.277 2.753 4.65.664 1.993.474 3.227.474 4.366-.095.475 0 .95.19 1.424a3.715 3.715 0 0 0 4.746 2.373c1.424-.475 2.183-1.614 3.132-3.038.095-.19-.095-.284-.19-.19-1.613.475-3.322-.379-3.796-1.898-.38-1.139.19-3.037-.38-4.555-.57-1.234-2.278-2.753-2.658-3.987m3.322-3.132c-1.328.475-2.088 1.803-1.613 3.132 0 .19.095.285.19.475.095.095.095.19.19.19 0 0 0 .094.094.094.475.76 1.14 1.424 1.709 2.753.474 1.424.285 2.278.38 3.132 0 .285 0 .57.19.854.474 1.33 1.803 2.088 3.131 1.614.38-.095.665-.285.855-.475l.284-.284s4.272-5.79 4.366-5.98c.19-.285 0-.475-.19-.664s-.474-.57-.474-.95c-.095-.284-.19-.759-.19-1.044s0-.474-.285-.569-5.22-1.708-6.738-2.183c-.665-.19-1.234-.285-1.899-.095"/><path fill="#ffc758" d="m170.908 116.724 15.47-5.315s-1.328 6.454-.949 11.39c.475 6.454 4.177 11.39 4.177 11.39l-19.078 6.548z"/><path fill="#d4a11e" d="M189.606 134.188s-3.417-4.84-3.987-10.44c-.474-4.271 0-7.878.76-12.339-.665 2.942-3.133 11.2-10.061 18.888-2.753 3.037-3.987 5.79-4.556 7.688l-.285-36.447s-3.701 1.329-3.986 1.424c-.475.19-.665.474-.665.474 0 .19-.19.38-.474.475s-2.373.854-3.892 1.329c-.284.095-.19.38 0 .38 1.804-.096 4.272-.285 4.461-.285.38-.095.475-.19.475-.475v-.095c.095-.285.285-.474.57-.474.19 0 1.518-.19 2.372-.285l-.38 39.2h1.804v-2.753z"/><path fill="#ffc758" d="M121.173 141.781s-2.847-2.088-3.702-6.169c-.759-4.081 1.234-6.454 1.234-6.454l18.793-6.454s-1.139 3.701-.095 7.972c1.424 5.316 4.271 8.922 4.271 8.922s-6.928-1.234-13.572-.38c-6.265.855-6.929 2.563-6.929 2.563M99.628 137.13s2.373-6.359 9.111-13.287c5.22-5.315 8.543-6.834 8.543-6.834s-3.038 4.366-4.272 11.39c-.759 4.366.095 9.965.095 9.965s-3.511-.759-7.498-1.138c-3.322-.38-5.98-.095-5.98-.095"/><path fill="#d4a11e" d="M117.377 117.009s-2.943 4.366-4.177 11.39c-.759 4.366.095 9.965.095 9.965s-.854-.19-2.942-.664c-8.352-1.898 7.024-20.691 7.024-20.691M128.292 122.134l-.19-16.8c-.38.19-3.702 1.234-3.987 1.424-.474.19-.664.475-.664.57 0 .19-.19.38-.475.474s-2.372.76-3.891 1.33c-.285.094-.19.379 0 .379 1.708-.095 4.271-.285 4.46-.285.38-.095.475-.19.57-.475v-.094c.095-.285.285-.475.57-.475.19 0 1.424-.19 2.373-.19l-.095 14.142zM150.122 106.853h1.328V90.718s-3.701 1.329-3.986 1.424c-.474.19-.664.474-.664.474 0 .19-.19.38-.475.475s-2.373.759-3.891 1.329c-.285.094-.19.38 0 .38 1.803-.096 4.27-.286 4.46-.286.38-.094.475-.19.57-.474s.285-.475.57-.475c.19 0 1.423-.19 2.277-.19z"/><path fill="#ffc758" d="M146.895 94.514c.474-.094.57-.19.57-.474 0-.19.189-.38.379-.475l-.475-1.423c-.474.19-.57.474-.57.474 0 .19-.19.285-.379.38zM123.546 108.941c.474-.095.57-.19.57-.474.094-.19.19-.38.379-.475l-.475-1.424c-.474.19-.569.475-.569.475 0 .19-.19.285-.38.38zM166.732 105.335c.474-.095.569-.19.569-.475.095-.19.19-.38.38-.475l-.475-1.423c-.474.19-.57.474-.57.474 0 .19-.19.285-.379.38z"/><path fill="#d4a11e" d="M141.674 139.693s-3.037-4.366-4.176-9.111c-1.044-3.987 0-7.878 0-7.878s-1.993 6.928-6.739 10.63c-3.322 2.658-11.39 5.03-9.491 8.447.285-.474 1.139-1.328 4.366-2.088.38-.095.76-.19 1.234-.19v5.6h1.803v-5.884c5.98-.665 13.003.474 13.003.474"/><path fill="#ffc758" d="M119.18 128.019s-2.183-1.329-1.898-5.6c.284-4.366 2.467-6.264 2.467-6.454l14.617-4.936s-1.139 2.183-.285 5.505c.855 3.987 3.417 6.265 3.417 6.265s-7.308.095-13.952 2.372c-3.227 1.045-4.366 2.848-4.366 2.848"/><path fill="#d4a11e" d="M127.817 118.907c4.176-3.417 6.454-7.878 6.454-7.878s-.57 2.753-.19 5.316c.76 4.27 3.322 6.454 3.322 6.454s-5.98.095-12.339 1.898c-4.27 1.139-5.6 2.847-5.98 3.417-1.328-3.227 4.462-5.695 8.733-9.207"/><path fill="#ffc758" d="M144.427 142.92s-3.987-3.037-4.936-8.637c-.759-4.46 2.183-7.688 2.183-7.688l22.78-7.878s-1.234 5.03-.095 9.871c1.328 5.41 6.264 12.15 6.264 12.15s-9.491-2.753-17.654-1.71c-7.783 1.045-8.542 3.892-8.542 3.892M139.776 106.758c-.19-3.417 2.278-6.264 2.373-6.359l16.325-5.695s-1.139 2.563-.76 4.746c.475 4.176 2.848 6.36 2.848 6.36s-6.454-.38-13.952 2.277c-4.176 1.424-4.65 3.417-4.65 3.417s-1.994-.475-2.184-4.746"/><path fill="#d4a11e" d="M152.684 102.392c2.943-2.562 5.79-7.593 5.79-7.593s-1.139 2.563-.76 4.746c.475 4.176 2.848 6.36 2.848 6.36s-6.929-.096-13.667 2.277c-2.848 1.044-4.651 2.563-4.936 3.417-.854-3.227 6.739-5.695 10.725-9.207"/><path fill="#ffc758" d="M142.149 125.646s-2.373-2.752-2.753-6.929c-.474-4.366 2.089-6.169 2.373-6.264l18.888-6.549s-.475 1.424-.095 5.22c.475 3.227 3.607 7.593 3.607 7.593s-10.061.285-16.325 2.753c-3.987 1.424-5.695 4.176-5.695 4.176"/><path fill="#d4a11e" d="M154.678 114.731c4.08-3.512 5.98-8.827 5.98-8.827s-.476 3.037 0 5.315c.948 4.081 3.89 7.498 3.89 7.498s-8.826.19-15.186 2.278c-4.176 1.424-6.739 3.892-7.118 4.651-.95-3.512 8.352-7.403 12.434-10.915M171.003 141.117s-5.126-6.644-6.644-12.529c-.95-3.891-.19-8.257.095-9.776-.57 2.088-2.658 8.732-7.688 13.383-4.841 4.461-14.332 6.55-12.34 10.725.38-.664 1.425-2.278 5.316-3.227l-.095 5.315h1.803v-5.694c8.543-1.234 19.553 1.803 19.553 1.803"/><path fill="#ffc758" fill-rule="evenodd" d="M179.83 153.646c1.139-.19 2.372-.475 4.08-.95-.094-.095-.189-.19-.284-.19-1.898-2.088-1.613-4.365-.474-5.504 4.27-3.987 4.176-6.93 4.176-6.93s-10.346 2.089-23.918 2.848c-.855.095-3.987 1.424-4.936 1.424-1.898.095-3.796.19-5.79.19-25.721.19-32.84-1.614-41.287-3.132-8.542-1.614-12.339-3.322-12.339-3.322l-.285.854s6.74 2.658 11.58 4.935c1.044.475 5.03 6.55 6.36 8.543H86.15c-1.708-34.834 5.03-63.497 5.03-63.497s23.35-4.936 58.562-4.936v-3.702c-37.301 0-62.073 5.316-62.073 5.316s-10.82 38.25-5.126 83.808c2.373 18.983 18.129 54.48 67.104 70.995l2.088-3.037-2.088-3.037c-46.128-15.47-59.606-46.697-61.978-64.541a269 269 0 0 1-1.14-11.675h63.403v-5.315h-32.555c.759-2.373 3.037-2.942 5.884-2.278 2.942.76 5.885 1.424 8.637 1.33 6.929-.38 5.98-2.184 6.55-2.184 7.213.475 9.87 2.183 16.135 2.088 5.694-.095 7.688-1.613 8.162-1.613 6.929-.095 9.586 3.132 16.515 3.701h.57z" clip-rule="evenodd"/><path fill="#d4a11e" fill-rule="evenodd" d="M211.72 85.498s-24.772-5.316-62.073-5.316v3.702c35.118 0 58.467 4.936 58.467 4.936s6.834 28.663 5.03 63.687h-30.562c-2.373-2.373-1.044-5.41-.19-6.17 3.607-3.227 3.607-5.41 3.607-5.41s-8.258 2.088-21.925 2.658c-.854 0-4.65 1.803-5.6 1.803-1.898.095-4.556.19-6.549.19-17.749 0-26.48-.38-41.857-3.702.285.38.475.475.76.95.094.19 6.738 1.803 6.833 1.993 1.044 1.423 2.373 2.372 3.987 3.227 2.467 1.328 6.169 2.372 9.111 2.657 6.929.475 5.6-2.183 6.265-2.183 7.118-.19 11.674 2.373 17.938 2.373 5.695-.095 5.885-1.898 6.454-1.898 5.6-.285 11.39 2.088 16.23 3.701h-27.904v5.316h63.117a243 243 0 0 1-1.138 11.674c-2.373 17.844-15.851 49.07-61.979 64.541v5.98c48.975-16.515 64.731-51.918 67.104-70.996 5.695-45.463-5.125-83.713-5.125-83.713" clip-rule="evenodd"/><g fill="#00285e"><path d="m35.276 101.918 2.563-4.936 11.58-.76-5.885-10.06 2.562-4.84 20.597 10.82-2.373 4.46-13.478-7.023 5.79 10.44-.095.095-11.674 1.14 13.287 7.023-2.372 4.46zM58.815 65.376l3.227-3.417 23.918 8.827-3.701 3.892-5.316-2.089-6.739 7.214 2.373 5.125-3.606 3.797zm13.667 5.41-7.593-2.942 3.417 7.403zM77.228 48.386l3.986-2.372 16.8 6.549-7.403-12.244 4.366-2.658 12.054 19.932-3.702 2.278-17.274-6.834 7.688 12.624-4.366 2.657zM108.55 44.4c-1.804-6.454 1.423-13.003 8.257-14.996 4.176-1.234 7.213-.475 9.776.854l-2.088 4.556c-2.183-1.14-4.176-1.519-6.454-.854-3.702 1.139-5.6 4.935-4.461 8.827v.094c1.139 3.797 4.65 6.265 8.542 5.126 2.563-.76 3.797-2.183 5.126-4.366l3.986 2.278c-1.614 3.132-3.702 5.41-7.973 6.644-6.549 1.898-12.908-1.709-14.711-8.163M136.454 25.702l5.03-.19.285 9.207 9.397-.19-.19-9.207 5.125-.19.57 23.254-5.126.19-.19-9.396-9.49.285.284 9.301-5.125.19zM186.189 51.614l4.27-2.089c1.14 2.373 2.753 4.366 5.126 5.505 1.898.855 3.322.665 3.987-.57.57-1.138.095-2.087-3.038-4.65-3.701-3.037-5.98-5.505-3.986-9.681v-.095c1.803-3.796 5.98-4.935 10.346-2.942 3.037 1.423 5.315 3.606 6.549 6.264l-3.987 2.373c-1.234-2.183-2.752-3.797-4.556-4.65s-3.037-.475-3.606.569v.095c-.665 1.423.095 2.277 3.322 4.935 3.701 3.037 5.505 5.79 3.701 9.491v.095c-1.898 4.176-6.264 5.03-10.725 3.038-3.132-1.614-5.885-4.177-7.403-7.688M220.168 53.037l-5.6-4.366 2.847-3.701 15.281 11.674-2.847 3.796-5.6-4.366-11.295 14.712-4.08-3.037zM256.9 86.067l4.745 9.491c1.329 2.658 1.614 5.03.95 7.119-.57 1.803-1.9 3.132-3.892 4.176h-.095c-3.322 1.709-6.36.95-8.732-1.234l-4.936 8.827-2.752-5.315 4.556-7.878-1.804-3.606-6.644 3.416-2.278-4.555zm-5.506 14.237c1.14 2.183 2.943 2.942 4.651 2.088h.095c1.993-.949 2.278-2.847 1.139-5.03l-2.278-4.556-5.98 3.037zM170.623 41.268l8.542 1.803 2.373-4.081-9.966-2.183.95-4.65 12.148 2.657 1.044-4.366-17.18-3.702-4.84 22.685 17.37 3.796.949-4.46-12.34-2.753zM239.72 63.573l-17.844 14.901 11.39 13.573 3.417-2.943-8.068-9.68 3.702-3.133 5.695 6.834 4.65-1.519-6.833-8.162 3.606-3.038 7.973 9.492 3.512-2.943zM110.543 261.942c0-6.834 5.03-12.339 12.338-12.339 4.461 0 7.119 1.424 9.397 3.702l-3.322 3.796c-1.803-1.708-3.702-2.657-6.075-2.657-3.986 0-6.928 3.322-6.928 7.403v.095c0 3.986 2.752 7.498 6.928 7.498 2.753 0 4.367-1.139 6.265-2.752l3.322 3.321c-2.373 2.658-5.126 4.272-9.776 4.272-6.929-.19-12.15-5.6-12.15-12.34M137.498 249.983h5.22v23.633h-5.22zM154.867 254.823h-7.213v-4.84H167.3v4.84h-7.213v18.888h-5.22zM178.5 264.315l-9.11-14.332h6.074l5.6 9.491 5.694-9.491h5.885l-9.112 14.237v9.491h-5.22v-9.396z"/></g></svg>