<svg xmlns="http://www.w3.org/2000/svg" width="933.291" height="933.333" viewBox="0 0 933.291 933.333"><clipPath id="a"><path d="M0 1080h1080V0H0z"/></clipPath><g clip-path="url(#a)" transform="matrix(1.33333 0 0 -1.33333 -253.355 1186.667)"><path fill="#00367a" d="M882.492 540.078c.147 187.846-151.424 340.288-338.227 342.513-190.72 2.271-344.684-150.847-346.847-338.317-2.203-190.853 151.139-344.793 338.69-346.784 191.556-2.033 346.664 153.002 346.384 342.588m-692.476 19.037c1.305 2.5.807 5.272 1.007 7.892 3.519 46.004 15.508 89.678 36.49 130.747 34.273 67.09 84.897 118.156 151.625 153.16 34.515 18.103 71.189 29.67 109.706 35.414a319 319 0 0 0 30.883 3.1c.61.03 1.41-.337 1.76.572h1.76c3.129-1.188 6.258-.714 9.387 0H547.3c3.129-.714 6.258-1.188 9.387 0h1.173c.258-.783.933-.534 1.468-.566 85.047-5.17 158.882-36.797 220.916-95.05 51.165-48.05 84.592-106.712 100.659-175.082 8.21-34.94 10.844-70.38 7.937-106.186-6.657-82.003-38.07-153.238-94.322-213.117-49.062-52.225-108.982-86.018-178.991-101.707-28.644-6.419-57.682-9.205-86.981-8.029-88.013 3.532-164.616 35.115-228.822 95.423-52.627 49.432-86.37 109.938-101.926 180.486-3.853 17.474-6.143 35.187-7.205 53.054-.036.613.336 1.412-.578 1.756v2.346c1.187 3.13.714 6.258 0 9.387v14.667c.714 3.13 1.187 6.258 0 9.387z"/><path fill="#5b7da9" d="M190.016 556.769c1.187-3.13.714-6.258 0-9.387zM190.016 532.715c.714-3.129 1.187-6.258 0-9.387z"/><path fill="#fdfdfd" d="m476.897 256.236-8.205-40.066 8.918-1.834 8.199 40.05zM259.319 613.412l-39.76 9.6-2.447-9.949 39.769-9.603zm465.257 160.052 20.983 25.887-7.94 6.455c-8.68-10.696-17.186-21.18-25.778-31.77l24.21-19.644 4.762 5.832zm-354.982 10.658-18.8 27.516-8.39-5.817 22.98-33.718 25.671 17.506c-1.43 2.26-2.623 4.316-4.342 6.137zm383.856-36.794 24.126 22.895-7.007 7.44-29.654-28.107c7.185-7.579 14.27-15.049 21.426-22.599l5.46 5.157zm85.453-64.553-37.592-16.08 12.287-28.665 6.864 3.023c-2.779 6.548-5.435 12.805-8.15 19.206l30.589 13.107zm-563.78-23.715 14.162 27.862c-2.418 1.055-4.377 2.48-6.865 3.122l-9.402-18.4-29.752 15.098-4.587-9.144zm122.097 133.79 27.818 14.045c-1.134 2.431-2.027 4.678-3.487 6.698l-18.557-9.354-15.079 29.804-9.12-4.633zm-173.98-155.905 38.567-13.578 10.352 29.385-7.087 2.523-7.02-19.722-31.41 11.043zM608.7 257.273l-20.808-4.248 4.672-22.796c3.084 1.032 5.786 1.894 8.69 1.566 2.891-.326 4.843-2.074 5.237-4.697.365-2.425-1.214-4.902-3.778-5.97-1.674-.699-3.429-.566-5.183-.657-1.73-.09-3.335.976-5.199.55.348-1.884.711-3.599.968-5.329.19-1.277.92-1.846 2.124-1.989 5.388-.64 10.562-.023 15.17 3.031 4.563 3.023 6.186 7.452 5.192 12.73-.966 5.131-3.997 8.53-9.126 10.011-2.524.73-4.989.193-7.583-.148l-1.457 7.187 12.484 2.625c0 2.755-.843 5.231-1.402 8.134m23.962 601.1-38.825 8.78c-.43-2.57-1.387-4.813-1.368-7.395l14.105-3.274-7.3-32.418c3.482-.86 6.616-1.769 9.986-2.107l7.358 32.265 14.385-3.176zm-169.022 4.094-27.137-7.736 11.201-39.37 9.8 2.833-4.486 16.058 17.192 4.99-2.028 7.198-17.269-4.83-2.418 8.652 17.19 4.95zm105.462-631.075c4.903 5.641 4.804 12.166-.25 16.45-5.058 4.286-14.697 3.508-18.949-1.53-4.11-4.867-3.023-11.492 2.634-16.052-6.01-5.783-6.693-12.938-1.71-17.959 5.18-5.22 15.768-5.092 21.092.255 5.278 5.301 4.258 12.124-2.817 18.836m-58.314-.026c-.358-.326-.542-.572-.787-.703-4.615-2.469-5.855-6.624-5.392-11.399.446-4.583 3.154-7.729 7.33-9.453 3.894-1.609 7.944-1.844 12.013-.5 4.91 1.622 7.806 5.565 8.118 10.685.265 4.36-1.655 7.607-4.972 10.197 3.398 2.656 4.538 4.381 4.928 7.278.736 5.45-2.019 10.131-7.11 12.082-6.22 2.384-13.11.795-16.193-3.734-3.036-4.46-2.338-9.624 2.065-14.453m310.675 459.497c2.08 1.267 3.68 2.381 5.401 3.252 1.83.924 2.464 2.157 2.083 4.208-1.668 8.968-5.918 16.398-13.702 21.22-7.392 4.577-15.202 4.836-22.574-.288-7.242-5.034-9.852-12.274-8.203-20.739 1.725-8.86 6.995-15.512 14.47-20.467.797-.529 1.472-.777 2.383-.182 2.092 1.365 4.243 2.64 6.423 3.984-2.583 1.905-5.035 3.521-7.263 5.401-3.37 2.842-5.694 6.453-6.533 10.814-.911 4.737.188 8.965 4.115 12.064 4.088 3.227 8.497 3.548 13.116 1.085 3.135-1.672 5.3-4.249 6.969-7.296 2.145-3.917 2.889-8.219 3.316-13.056m-114.277 87.298c1.67 14.226 3.238 27.885 4.92 41.53.26 2.118-.17 3.433-2.201 4.37a34 34 0 0 0-5.792 3.402c-1.509 1.101-2.525.732-3.826-.285-6.15-4.808-12.359-9.543-18.55-14.298-4.767-3.66-9.54-7.313-14.495-11.11 1.847-1.099 3.35-2 4.861-2.887 1.494-.876 2.997-1.738 4.477-2.594l6.708 5.321c3.25-1.91 6.134-3.999 9.325-5.389 4.915-2.143 7.433-5.128 5.44-10.658-.318-.879-.484-1.803.743-2.468 2.717-1.47 5.336-3.122 8.39-4.934M326.08 737.3c1.14 1.031 2.066 1.846 2.967 2.69 4.891 4.586 4.951 4.613 2.518 10.666-.622 1.547-.386 2.402.863 3.455 2.458 2.073 5.05 4.11 7.028 6.604 3.18 4.008 6.476 4.5 10.587 1.64.74-.515 1.735-1.388 2.88-.293 2.344 2.242 4.763 4.404 7.342 6.776-13.43 5.775-26.418 11.325-39.36 16.977-1.446.631-2.273.371-3.295-.653-1.86-1.862-3.766-3.7-5.814-5.348-1.26-1.014-1.22-1.922-.689-3.253 1.588-3.982 3.057-8.012 4.584-12.019 3.423-8.988 6.853-17.973 10.39-27.242m537.142-125.31c-7.655-1.936-15.008-3.83-22.38-5.645-6.01-1.478-10.463 1.352-12.03 7.536-1.54 6.075.918 10.526 6.825 12.136 4.607 1.256 9.254 2.362 13.88 3.554 2.878.742 5.75 1.52 8.667 2.293-.9 3.468-1.706 6.564-2.584 9.942-8.514-2.24-16.958-4.175-25.212-6.727-6.587-2.036-10.21-7.007-10.788-13.903-.519-6.196.988-12.029 4.058-17.403 3.437-6.017 8.764-9.086 15.612-8.082 8.954 1.312 17.572 4.218 26.475 6.4-.857 3.358-1.645 6.451-2.523 9.898M645.86 854.132c-5.05-12.84-9.99-25.397-15.007-38.147 7.594-2.822 14.633-6.213 22.124-8.359 5.631-1.613 10.686.514 13.396 5.168 2.824 4.85 2.13 9.273-2.147 13.798-.242.256-.384.606-.6.957 7.073 1.621 9.977 7.163 7.04 13.152-1.304 2.66-3.383 4.641-6.015 5.778-6.14 2.652-12.384 5.062-18.79 7.653m-86.094 16.684c-.792-.049-2.26-.08-3.713-.242-8.51-.949-16.142-7.56-18.152-15.69-2.079-8.41 1.148-17.06 8.693-21.918 8.225-5.296 17.12-5.937 25.928-1.73 11.523 5.503 15.233 19.318 8.276 29.478-4.9 7.16-11.95 9.994-21.032 10.102m-57.587-43.592a27.1 27.1 0 0 1 10.311 1.81c8.29 3.166 14.087 11.1 14.192 19.378.102 8.041-4.943 15.905-12.763 19.05-8.97 3.606-17.7 2.548-25.598-2.966-4.809-3.358-7.824-8.199-8.45-14.165-1.374-13.065 8.406-23.135 22.308-23.107m366.154-241.729-40.91-3.608c.383-4.713.615-9.092 1.125-13.439.553-4.708.175-9.606 2.582-13.98 2.503-4.55 6.456-6.338 11.472-5.88 4.543.415 7.48 2.986 9.056 7.211.178.476-.038 1.252.906 1.322 1.805-2.07 3.86-3.767 6.852-3.88 5.58-.21 10.16 4.24 10.431 10.73.298 7.12-1.04 14.152-1.514 21.524m-615.402-2.477 1.06 10.34-40.799 4.361c-.179-1.716-.143-3.21-.52-4.592-.836-3.07.045-5.292 2.348-7.512 3.746-3.61 7.13-7.599 10.722-11.489-3.323-2.315-6.18-4.797-9.45-6.476-5.526-2.838-8.317-6.94-7.709-13.196.016-.169.128-.329.284-.709 13.346-1.425 26.793-2.86 40.427-4.317l1.126 10.313-25.027 2.748c4.52 3.133 8.228 5.792 12.034 8.304 1.95 1.286 2.198 2.377.476 4.126-3.264 3.313-6.359 6.792-10.018 10.733zm41.263 181.44c-2.222-3.118-5.379-5.714-5.84-8.723-.448-2.913 2.937-5.665 4.46-8.589.718-1.382 1.578-2.692 2.371-4.036 1.553-2.633 3.104-5.267 5.004-8.492-7.576 1.542-14.454 2.871-21.292 4.375-2.168.477-3.384-.056-4.896-1.794-2.619-3.01-3.122-5.622-.572-8.854 1.191-1.51 1.92-3.385 2.85-5.099 2.07-3.807 4.135-7.617 6.257-11.528-1.373-.348-2.283.024-3.224.25-5.974 1.43-11.947 2.864-17.938 4.218-.94.213-2.039.925-2.929-.319-1.84-2.57-3.736-5.103-5.788-7.896 14.433-3.323 28.393-6.512 42.335-9.779 1.585-.37 2.24.364 3.062 1.454.833 1.105 1.28 1.946.5 3.36-3.909 7.086-7.714 14.23-11.524 21.37-.417.781-1.25 1.488-.77 2.716.977-.149 1.937-.264 2.884-.444 7.857-1.495 15.726-2.933 23.555-4.56 1.691-.352 2.268.498 3.02 1.546.683.957 1.334 1.69.515 3.08-7.33 12.427-14.565 24.912-22.04 37.744m245.81 52.715C386.78 816.84 263.02 693.525 262.922 540.218c-.098-153.16 123.393-277.175 277.016-277.205C693.205 262.984 816.9 386.59 817.01 539.865c.11 153.363-123.62 276.924-277.005 277.308m342.487-277.095c.281-189.586-154.827-344.622-346.383-342.588-187.55 1.99-340.893 155.931-338.69 346.784 2.163 187.47 156.127 340.588 346.846 338.316 186.804-2.224 338.374-154.667 338.227-342.512"/><g fill="#00367a"><path d="m442.372 532.603-.556-.552c-6.502-4.654-12.993-9.323-19.509-13.955-5.713-4.062-11.006-8.708-17.082-12.264l-.6-.532-.032-.021c-.83-.011-1.536-.208-1.725-1.168l-.03-.022c-3.16-.706-5.338-3.103-8.009-4.651-.75-.435-1.337-1.151-2.28-1.257-6.228-.701-12.47-1.266-18.655.205-3.494.831-6.727 2.314-8.486 5.716-2.416 4.674-3.25 9.711-1.939 14.795 2.92 11.311 10.34 19.086 20.38 24.492 15.726 8.469 32.904 12.137 50.378 14.516 9.688 1.318 17.45 5.381 22.773 13.679.85 1.325 1.771 1.85 3.336 1.722 2.71-.223 5.226.531 7.49 2.039 4.925 3.284 6.465 8.041 4.204 13.481-1.417 3.411-2.805 6.903-1.062 10.433 2.763 5.593.972 10.392-2.46 14.644-2.032 2.516-4.04 4.863-4.619 8.337-1.165-1.372-1.552-3.04-3.4-3.568-1.147 4.711 1.748 8.811 1.62 13.689-1.407-1.146-2.585-1.982-3.618-2.971-4.008-3.835-7.14-8.015-6.105-14.114.49-2.883-.448-5.636-1.912-8.134-2.223-3.792-4.586-7.502-6.797-11.302-3.909-6.717-2.823-12.144 3.302-16.947 2.38-1.867 2.507-3.271.453-5.457-1.365-1.453-3.109-2.356-4.885-3.176-5.185-2.391-10.709-3.627-16.279-4.683-9.39-1.781-19.018-2.127-28.276-4.739-17.423-4.915-33.25-12.545-45.36-26.517-11.424-13.182-12.039-29.115-1.639-42.935 4.531-6.021 10.295-10.668 16.81-14.391 2.68-1.533 5.45-2.914 8.218-4.385-2.93-8.137-6.265-15.799-12.422-21.882-1.075-1.063-1.605-2.682-3.419-2.935-3.556-.495-5.39-3.045-6.538-6.049-1.334-3.49-2.92-6.836-4.95-9.947-5.796-8.891-10.23-18.728-18.082-26.196-3.233-3.076-4.619-6.995-4.956-11.273-.268-3.403-.289-6.845-.145-10.258.246-5.847 4.847-9.645 10.526-8.459 2.803.586 5.418.141 8.112.133 5.225-.015 10.515-.081 15.736.32 2.55.196 4.881 1.008 7.483-.146 1.88-.833 3.85.117 5.462 1.332 5.291 3.987 4.81 12.008-.936 15.228-1.467.823-3.026 1.553-3.879 3.023-1.57 2.705-3.712 4.74-6.426 6.237-2.205 1.216-2.432 2.912-1.003 4.863a262 262 0 0 0 5.128 6.776c6.287 8.021 13.277 15.131 23.308 18.471 6.657 2.217 12.6 5.724 17.876 10.382 1.826 1.612 4.027 2.813 5.786 4.486 4.538 4.316 10.076 5.249 15.97 5.021 5.687-.22 11.306-.029 16.867 1.392 3.028.775 5.142-.573 6.086-3.524.434-1.358.602-2.777.354-4.347 3.012.194 5.192-.51 5.455-3.715.162-1.982-1.01-2.702-2.775-2.523-.346-2.24.625-3.767 2.18-4.686 2.545-1.506 1.862-2.719.017-4.131-.947-.724-1.747-1.591-1.517-3.178 1.195-.464 2.94-.988 1.524-2.881-3.05-4.078-6.078-8.237-11.503-9.42-2.5-.546-3.615-2.223-3.698-4.61-.198-5.697 2.074-10.191 7.236-12.702 6.856-3.335 12.937-7.641 18.2-13.128 4.981-5.193 10.474-9.633 17.153-12.547 4.655-2.03 9.092-1.886 13.51.467.86.457 1.612 1.041 2.68 1.025 4.243-.065 7.313 3.275 11.364 3.992 1.232.218 2.426 1.287 3.947 1.424 1.212.109 2.453.544 3.03 1.96 1.824 4.469-1.087 10.078-5.788 11.373-3.419.941-7.072.512-10.378 1.674-8.668 3.047-16.312 7.918-23.356 13.771-1.703 1.415-1.906 3.024-.919 4.939 1.465 2.842 3.565 5.124 6.085 7.038 2.102 1.597 4.314 3.091 5.946 5.194 8.061 10.388 13.694 21.811 14.667 35.155.546 7.501 3.515 13.769 9.41 18.496 2.51 2.013 5.132 3.926 7.881 5.593 16.407 9.945 34.35 16.349 52.413 22.429 8.79 2.959 18.24 3.959 26.68 7.797 12.962 5.894 24.476 13.651 28.66 28.561.332 1.184.741 2.787 2.406 2.372 1.596-.398.951-1.84.757-2.97-.04-.238.125-.513.2-.783 3.697.181 6.566 1.937 9.137 4.298 1.591 1.462 3.247 2.794 5.255 3.674 3.962 1.734 4.373 1.57 5.67-2.833.972.792 1.843 1.532 2.745 2.231 4.322 3.347 8.942 5.392 14.351 2.714 1.425-.705 1.922.198 2.685.884 4.125 3.708 8.666 6.959 14.156 7.91 4.504.781 8.53 2.142 12.38 4.595 5.553 3.537 12.145 4.059 18.325 5.813 5.113 1.452 9.543.945 13.917-1.983 3.2-2.141 6.835-3.321 10.666-3.833.76-.102 1.717-.5 2.193.251 1.256 1.983 2.803 1.225 4.38.683 4.198-1.443 8.425-2.494 12.915-1.4 1.437.35 2.354-.386 2.195-1.89-.158-1.508.725-1.798 1.851-2.081 2.02-.506 4.01-.65 6.084-.225 1.991.407 4.037.079 6.033.075 3.564-.008 6.91-.04 9.944-2.146.198-.137.617-.111.861-.002 2.235 1.004 2.988.074 2.561-2.107 6.14-.063 10.38 3.198 11.841 9.158 1.122 4.577 1.548 9.268 1.08 13.965-.288 2.892-.406 6-2.428 8.317-4.175 4.783-8.507 9.429-12.833 14.077-1.264 1.358-2.688 2.735-4.6 2.992-5.875.79-11.758 2.375-17.707.949-3.406-.817-6.687-2.153-10.028-3.245-3.7-1.211-7.263-1.195-10.7.949-3.068 1.913-6.467 2.544-10.082 2.548-5.899.007-11.616-1.891-17.458-1.798-11.604.183-22.9-2.329-34.358-3.352-6.492-.58-13.094-1.516-19.496.324-7.713 2.216-14.778 6.043-22.022 9.531 4.72 5.244 4.836 5.936 3.34 13.013-.502 2.375-.872 4.834-.845 7.25.025 2.346-.083 4.848 1.24 6.872 2.14.334 2.538-1.674 3.871-2.547 1.126 2.839.863 5.372-.385 7.824-.792 1.558-1.432 3.452-.499 4.764 2.087 2.937 1.18 5.764.52 8.721-.167.749-.228 1.585-.08 2.329.675 3.418-.154 6.64-1.444 9.701-.71 1.685-.823 2.929.174 4.548 2.22 3.603 2.233 7.374.241 11.153-.573 1.088-1.092 1.754-2.472 1.097-1.759-.837-3.473-.639-4.754.961-1.39 1.738-2.54 3.758-1.363 5.919 1.12 2.057.525 3.268-.932 4.783-4.43 4.604-8.504 9.461-9.51 16.125-.274 1.808-1.466 3.22-2.677 4.476-5.879 6.093-12.567 10.89-21.16 12.269-4.244.681-8.542.98-12.852.796-2.974-.127-5.873.278-8.604 1.426-1.87.786-3.418 1.453-5.234-.375-1.06-1.067-2.824-.957-4.464-.662-5.136.924-10.296.27-14.1-3.228-3.336-3.067-6.762-3.794-10.91-3.57-3.65.197-7.179-.429-10.29-2.54 2.132-5.231 1.734-6.09-3.298-8.039-1.423-.552-3.088-.438-4.48-1.627.991-3.197-.41-5.083-3.396-6.337-1.386-.583-2.559-1.775-3.692-2.836-4.335-4.06-7.406-9.294-12.302-12.889 1.68-2.409 1.193-4.121-1.033-5.608-1.812-1.209-2.886-3.156-4.156-4.885-.337-.458-.977-1.027-.579-1.527 1.56-1.956-.079-2.99-1.08-4.216-1.06-1.296-1.952-2.677-2.49-4.57 2.23-.628 1.98-2.434 1.927-4.222-.128-4.392-1.809-8.31-4.452-11.583-6-7.434-8.322-15.962-8.693-25.284-.135-3.391-.394-6.828-3.505-9.24-1.136-.881-1.664-2.367-1.498-4.028.998-.078 1.985-.04 2.916-.25 2.092-.472 3.105-2.448 1.955-4.151-2.285-3.383-1.354-6.659.19-10.992.36.916.414 1.376.67 1.652.976 1.055 1.994 2.548 3.608 1.131 1.681-1.477 1.324-3.093-.245-4.515-1.158-1.05-2.288-2.134-3.5-3.119-5.612-4.56-11.275-9.06-16.494-14.08-9.31-8.956-16.437-19.591-23.195-30.482-3.383-5.451-7.086-10.714-9.977-16.465l-.009-.005c-.394 0-.56-.211-.547-.589zm97.633 284.57c153.385-.384 277.113-123.945 277.004-277.308-.108-153.275-123.803-276.88-277.07-276.851-153.623.029-277.115 124.044-277.017 277.204.098 153.307 123.858 276.622 277.083 276.955"/><path d="M294.194 764.459c7.475-12.832 14.711-25.317 22.041-37.745.819-1.39.168-2.123-.517-3.08-.75-1.048-1.328-1.898-3.019-1.547-7.829 1.628-15.698 3.066-23.555 4.561-.947.18-1.907.295-2.884.444-.479-1.229.353-1.935.77-2.716 3.811-7.14 7.615-14.284 11.524-21.37.779-1.413.334-2.254-.5-3.36-.822-1.09-1.476-1.826-3.061-1.454-13.942 3.267-27.902 6.456-42.336 9.78 2.053 2.793 3.948 5.325 5.788 7.896.89 1.243 1.989.531 2.93.318 5.991-1.354 11.964-2.789 17.937-4.219.941-.225 1.851-.598 3.225-.249-2.123 3.911-4.188 7.721-6.257 11.528-.932 1.714-1.66 3.59-2.851 5.1-2.55 3.23-2.046 5.842.572 8.853 1.512 1.738 2.729 2.271 4.896 1.794 6.839-1.504 13.716-2.833 21.292-4.375-1.9 3.224-3.45 5.858-5.003 8.491-.793 1.345-1.653 2.654-2.373 4.037-1.521 2.924-4.906 5.676-4.459 8.59.461 3.009 3.618 5.605 5.84 8.723M252.931 583.019l-25.046 2.634c3.66-3.941 6.755-7.42 10.02-10.734 1.721-1.748 1.472-2.84-.478-4.126-3.805-2.511-7.514-5.171-12.034-8.303l25.027-2.748-1.125-10.314-40.428 4.318c-.156.379-.268.539-.284.708-.608 6.255 2.183 10.359 7.71 13.197 3.268 1.679 6.126 4.16 9.45 6.476-3.594 3.89-6.977 7.878-10.723 11.488-2.303 2.22-3.184 4.443-2.348 7.513.377 1.382.341 2.876.521 4.592l40.798-4.362zM852.987 573.64c.573-2.525.13-4.918 1.036-7.126.79-1.925 2.274-2.942 4.346-2.665 2.048.273 3.388 1.549 3.49 3.664.113 2.269.222 4.579-.602 6.91zm-17.133-1.45c.435-3.234.703-6.13 1.243-8.975.478-2.523 2.083-3.864 4.79-3.623 2.777.247 3.862 2.104 4.04 4.524.22 2.981-.182 5.941-.816 8.856zm32.479 13.305c.474-7.372 1.813-14.404 1.514-21.523-.272-6.49-4.852-10.94-10.43-10.73-2.993.113-5.048 1.81-6.852 3.88-.944-.07-.728-.846-.906-1.322-1.578-4.225-4.513-6.797-9.056-7.21-5.016-.459-8.97 1.33-11.472 5.878-2.407 4.375-2.03 9.273-2.582 13.981-.511 4.347-.742 8.726-1.125 13.44zM515.82 848.035c-.039 7.633-4.996 12.717-12.313 12.632-7.658-.09-13.149-5.09-13.175-11.996-.028-7.53 5.001-12.736 12.292-12.725 7.967.013 13.233 4.837 13.196 12.089m-13.64-20.81c-13.902-.028-23.683 10.04-22.31 23.106.627 5.967 3.643 10.808 8.451 14.165 7.898 5.514 16.627 6.573 25.6 2.966 7.82-3.144 12.863-11.01 12.761-19.05-.105-8.277-5.9-16.212-14.192-19.38a27.1 27.1 0 0 0-10.31-1.807M560.667 862.039c-7.543.073-12.582-4.787-12.733-12.281-.142-7.12 5.298-12.273 13.094-12.402 7.264-.12 12.494 5.124 12.522 12.554.027 7.204-5.124 12.053-12.883 12.129m-.9 8.778c9.08-.11 16.13-2.944 21.032-10.102 6.957-10.161 3.247-23.976-8.276-29.48-8.81-4.206-17.703-3.565-25.928 1.73-7.545 4.858-10.772 13.508-8.693 21.919 2.009 8.129 9.64 14.742 18.152 15.69 1.453.163 2.92.193 3.713.243M649.459 835.244c2.274-.84 4.208-1.997 6.434-2.296 2.375-.319 4.265.45 4.984 2.934.675 2.333-.402 3.988-2.438 4.985-1.809.885-3.717 1.567-5.8 2.43zm-6.321-16.037c2.97-1.06 5.654-2.155 8.421-2.966 2.53-.74 4.597-.032 5.686 2.628.948 2.32.264 4.478-2.328 5.827-2.562 1.334-5.31 2.311-8.2 3.54zm2.722 34.925c6.407-2.59 12.651-5 18.791-7.653 2.632-1.137 4.711-3.118 6.015-5.778 2.937-5.989.033-11.53-7.04-13.152.216-.35.358-.7.6-.957 4.277-4.525 4.971-8.949 2.147-13.798-2.71-4.654-7.764-6.78-13.395-5.168-7.491 2.146-14.53 5.537-22.124 8.36zM863.224 611.989l2.523-9.898c-8.903-2.181-17.52-5.088-26.474-6.4-6.849-1.003-12.176 2.065-15.613 8.082-3.07 5.375-4.577 11.208-4.058 17.403.577 6.896 4.202 11.867 10.788 13.903 8.254 2.552 16.698 4.487 25.212 6.728l2.584-9.943c-2.918-.773-5.789-1.551-8.668-2.293-4.625-1.191-9.272-2.298-13.879-3.553-5.907-1.61-8.365-6.061-6.826-12.137 1.568-6.184 6.02-9.013 12.031-7.535 7.372 1.813 14.725 3.709 22.38 5.643M337.056 768.235l-15.47 7.092 6.393-15.553zm-10.974-30.933c-3.536 9.269-6.966 18.254-10.39 27.242-1.526 4.007-2.995 8.037-4.583 12.019-.531 1.33-.571 2.239.689 3.253 2.048 1.648 3.953 3.486 5.814 5.348 1.022 1.023 1.849 1.284 3.294.653 12.943-5.652 25.93-11.202 39.36-16.977-2.578-2.372-4.997-4.535-7.341-6.776-1.145-1.095-2.14-.222-2.88.293-4.111 2.86-7.408 2.367-10.587-1.641-1.978-2.494-4.57-4.53-7.028-6.603-1.25-1.054-1.485-1.908-.863-3.455 2.433-6.053 2.373-6.081-2.52-10.667-.9-.844-1.826-1.658-2.965-2.69M699.98 800.137l2.35 16.808-13.036-10.495zm7.206-21.975c-3.053 1.812-5.672 3.463-8.388 4.934-1.227.665-1.062 1.59-.744 2.47 1.994 5.53-.525 8.513-5.44 10.656-3.19 1.39-6.076 3.48-9.324 5.39l-6.708-5.322c-1.48.856-2.983 1.718-4.477 2.594-1.512.887-3.014 1.788-4.862 2.886 4.956 3.798 9.728 7.45 14.494 11.111 6.193 4.755 12.4 9.49 18.552 14.298 1.3 1.017 2.317 1.386 3.825.285a34 34 0 0 1 5.792-3.403c2.03-.936 2.462-2.25 2.2-4.369-1.682-13.645-3.248-27.304-4.92-41.53M821.464 690.865c-.427 4.836-1.171 9.138-3.316 13.055-1.67 3.048-3.834 5.625-6.97 7.296-4.618 2.463-9.027 2.142-13.115-1.084-3.927-3.1-5.026-7.327-4.115-12.065.839-4.361 3.164-7.971 6.533-10.814 2.228-1.88 4.679-3.495 7.263-5.401-2.18-1.344-4.331-2.62-6.424-3.984-.91-.594-1.585-.346-2.383.182-7.473 4.956-12.743 11.607-14.47 20.468-1.647 8.465.963 15.705 8.205 20.739 7.37 5.124 15.182 4.864 22.574.287 7.784-4.821 12.033-12.252 13.7-21.22.383-2.05-.252-3.284-2.081-4.208-1.722-.87-3.321-1.984-5.401-3.251M523.248 239.476c.023 3.031-1.207 4.734-3.455 4.782-2.401.05-3.974-2.189-4.02-5.72-.037-2.99 1.409-5.12 3.526-5.186 2.35-.073 3.92 2.361 3.949 6.124m-.5-17.736c-.038.32-.02 1.322-.306 2.228-.556 1.76-1.588 3.14-3.645 3.266-2.145.133-3.488-1.019-4.236-2.892a10.2 10.2 0 0 1-.67-2.818c-.347-3.866 1.49-6.726 4.276-6.785 2.628-.056 4.52 2.572 4.582 7.001m-11.96 9.627c-4.403 4.83-5.101 9.992-2.065 14.453 3.082 4.53 9.973 6.118 16.193 3.734 5.09-1.95 7.845-6.632 7.11-12.082-.391-2.897-1.53-4.62-4.928-7.278 3.317-2.59 5.237-5.838 4.972-10.197-.312-5.12-3.208-9.063-8.118-10.685-4.07-1.344-8.12-1.109-12.014.5-4.175 1.724-6.884 4.87-7.33 9.453-.462 4.775.778 8.93 5.393 11.4.245.13.429.376.787.702M563.787 237.709c.044 1.958-.075 3.094-.498 4.208-.58 1.531-1.6 2.345-3.27 2.352-1.735.008-2.748-1.014-3.174-2.487-.635-2.193-.52-4.422.551-6.495.672-1.299 1.75-2.045 3.29-1.927 1.455.11 2.276 1.021 2.682 2.3.288.907.385 1.874.42 2.049m2.12-17.364c-.076.552-.147 1.424-.32 2.275-.5 2.438-1.478 4.513-4.385 4.608-2.399.078-4.024-1.808-4.289-4.944-.08-.95.062-1.94.245-2.883.592-3.054 2.414-4.825 4.694-4.658 2.267.165 3.842 2.229 4.054 5.602m3.195 11.049c7.075-6.712 8.096-13.535 2.817-18.837-5.323-5.346-15.913-5.474-21.092-.255-4.982 5.02-4.3 12.177 1.71 17.96-5.656 4.56-6.743 11.185-2.634 16.052 4.253 5.038 13.891 5.816 18.948 1.53 5.055-4.284 5.155-10.81.251-16.45M463.64 862.469l2.046-7.257-17.19-4.949c.81-2.903 1.579-5.65 2.418-8.652l17.268 4.83 2.029-7.198-17.192-4.99 4.485-16.058-9.8-2.834-11.2 39.372zM632.662 858.374l-1.657-7.325c-4.795 1.06-9.43 2.082-14.386 3.176l-7.358-32.265c-3.369.338-6.503 1.247-9.985 2.107l7.3 32.418-14.106 3.274c-.02 2.582.94 4.824 1.367 7.395zM608.7 257.275c.56-2.904 1.402-5.38 1.404-8.134l-12.484-2.626 1.457-7.187c2.594.342 5.058.878 7.582.149 5.13-1.481 8.16-4.881 9.127-10.012.994-5.277-.63-9.706-5.193-12.73-4.608-3.053-9.782-3.67-15.17-3.03-1.203.142-1.934.71-2.123 1.988-.258 1.73-.62 3.446-.968 5.33 1.864.426 3.47-.64 5.198-.551 1.755.09 3.51-.041 5.184.657 2.564 1.069 4.142 3.546 3.778 5.97-.394 2.624-2.346 4.372-5.239 4.698-2.902.327-5.605-.535-8.689-1.566l-4.672 22.796zM223.239 636.946l3.401 9.652 31.41-11.044 7.02 19.722 7.087-2.523-10.352-29.385zM397.218 792.85l-18.424 36.562 9.12 4.633 15.078-29.805 18.557 9.355c1.46-2.021 2.353-4.267 3.488-6.7zM275.121 659.061 238.68 677.6l4.586 9.144 29.752-15.098 9.402 18.4c2.488-.642 4.447-2.067 6.865-3.122zM838.902 682.775l3.998-9.408-30.59-13.108 8.152-19.206-6.864-3.023-12.287 28.664zM753.448 747.329l14.351-15.214-5.459-5.157-21.426 22.599 29.654 28.107 7.006-7.44zM369.593 784.122l17.12 11.624c1.72-1.82 2.911-3.877 4.342-6.136l-25.67-17.507-22.98 33.718 8.388 5.818c6.257-9.16 12.447-18.22 18.8-27.517M724.576 773.464l16.237-13.24c-1.622-1.987-3.137-3.84-4.762-5.832l-24.21 19.644 25.778 31.77 7.939-6.455zM259.318 613.412l-2.438-9.952c-13.329 3.22-26.455 6.388-39.769 9.603l2.448 9.95c13.313-3.215 26.372-6.369 39.76-9.6M476.897 256.236l8.912-1.85-8.2-40.05-8.918 1.834z"/></g><path fill="#91a4a4" d="m511.746 482.433.13.166-.21.029zm104.633 145.593-.161.085-.017-.124zm-159.116-32.662-.078-.154.12-.013zm127.385 111.858-.196.122-.027-.181zM430.42 472.545l-.144.087-.017-.137zm304.286 123.808c-.072.067-.144.184-.196.176-.161-.027-.315-.101-.471-.156.063-.06.134-.176.188-.168.16.023.316.094.479.148M587.389 653.6c1.025 2.362 1.025 2.362-.338 3.418-.702-1.121-.501-2.113.338-3.418m2.385 3.845c-.206-1.655-.354-2.734.717-3.8.604 1.253 1.535 2.364-.717 3.8m-4.991-4.11c-.395 1.667.803 3.5-2.166 3.873.447-1.62.365-2.804 2.166-3.873m15.022.23c1.323.597 1.82 1.649 1.687 2.938-.06.57-.746.709-1.143.485-1.477-.834-.273-2.251-.544-3.422m-19.042-32.142c4.45.713 2.139 3.524 2.163 5.564-1.335-1.541-2.06-3.31-2.163-5.564m24.059-.935c-.294 2.225-.046 4.439-2.19 6.496-.154-2.801-1.933-5.445 2.19-6.496m.498 28.388c1.178 1.552 1.99 3.158 1.52 5.013-.233.926-1.14 1.55-2.29 1.066-.62-2.79-.493-3.915.77-6.08m-25.481.18c1.284 1.174.788 2.692 1.242 3.932.25.683.42 1.563-.504 2.028-.634.318-1.301.34-1.938-.021-.915-.517-1.061-1.366-.775-2.25.408-1.262.755-2.581 1.975-3.688m-59.46 2.497c3.639 4.517.55 9.8 4.399 13.938-4.14-1.155-5.48-2.72-4.916-5.531.513-2.557.69-5.104.518-8.407m12.13-134.898c-1.393 3.324-2.964 6.446-5.966 8.495-1.108.756-2.474 1.06-3.465-.065-1.104-1.254-.201-2.377.745-3.284 2.468-2.367 5.386-4.015 8.687-5.146m112.947 142.8c.11 3.947-.303 5.434-2.844 10.842 2.747 2.57 3.438 3.909 3.482 7.043-1.941-3.668-5.368-4.724-9.34-5.654 4.33-3.57 7.075-7.514 8.702-12.231m129.005-90.56c.329-4.442 1.984-6.018 6.677-7.044 4.24-.928 6.355-.33 7.854 2.397-5.054.549-10.033 1.176-14.531 4.647m-246.697-68.932c-2.706 3.178-4.842 6.029-8.186 7.65-1.754.85-3.3.61-4.222-1.194-.926-1.814.519-2.743 1.764-3.46 3.072-1.766 6.488-2.434 10.644-2.996m36.53 46.598c.05 4.11.553 7.537-.7 10.82-.705 1.85-2.082 2.947-4.114 2.174-1.841-.7-1.881-2.304-1.317-3.927 1.162-3.34 3.098-6.163 6.132-9.067m-15.01-9.843c-.865 3.874-1.787 7.022-3.795 9.727-1.193 1.606-2.715 2.717-4.696 1.183-1.934-1.498-1.071-3.157.102-4.576 2.129-2.575 4.723-4.594 8.389-6.334m-5.24 51.59c-.335-1.87-.561-3.492-.927-5.081-.61-2.637-1.633-5.195-1.701-7.933-.026-1.055-.624-2.647.959-2.956 1.343-.263 2.427.754 2.777 2.085.772 2.94 2.2 5.535 4.146 8.07-1.908 1.787-2.872 4.22-5.253 5.815m48.648 21.414c.485 3.165 1.68 4.905 4.55 4.808.77-.026 1.537-.242 2.306-.246.97-.005 2.124.014 2.239 1.296.1 1.13-.998 1.322-1.807 1.542-4.655 1.263-9.245.637-13.763-.695-1.181-.348-2.157-1.177-2.608-2.688 2.86-1.593 6.072-2.068 9.083-4.017m-97.603-137.142c3.956-.492 3.956-.492 4.608-4.613.046-.288.056-.585.129-.866.22-.856.74-1.35 1.674-1.28.88.067 1.07.67 1.125 1.418.374 5.182 3.17 9.077 6.676 12.609.61.615 1.51 1.107 1.595 2.729-5.536-3.347-11.486-5.134-15.807-9.997m18.356 185.282c.855.832 4.858 9.896 4.464 10.339l-2.756.188 3.72 3.09c-7.547-.065-9.802-4.157-8.736-15.622 1.323.726 1.508 2.192 2.248 3.249.666-.161.283-1.19 1.06-1.244m271.06-82.681c1.838-.191 2.377.529 1.677 2.38-1.687 4.46-5.96 6.695-11.972 6.087-.948-.096-2.12-.077-2.568-1.042-.528-1.136.389-2.008 1.08-2.803 3.103-3.562 7.129-4.864 11.783-4.622M593.043 629.03c-.645.473-1.167.893-1.724 1.26-1.338.88-2.827 1.783-4.204.352-1.57-1.631-1.495-3.843-.9-5.793.572-1.874 2.42-1.401 3.763-1.028 2.18.605 4.198.498 6.23-.457.902-.422 1.852-.58 2.723.193 1.499 1.329 2.317 5.82 1.27 7.087-1.193 1.44-4.375.905-6.437-1.08-.138-.132-.31-.231-.721-.534m37.992 64.47c-.056-3.402 1.152-6.284-.766-8.994-.382-.54-.217-1.138.06-1.664.899-1.707 1.83-3.398 2.952-5.473 2.86 6.854 2.39 13.149-.273 19.386-1.763 4.129-3.643 4.783-7.75 2.772 1.533-1.095 1.299-2.97 2.014-4.422.663-1.348.967-3.4 3.763-1.605M736.08 587.315c2.519-.741 4.456-2.207 6.399-3.683 1.875-1.423 3.697-3.082 6.51-2.611-.593 2.105-.432 3.919.49 5.62 1.017 1.88 3.145 1.996 5.646 3.052-7.505 4.73-13.258 1.569-19.045-2.378m-196.675 88.38c.643 2.626.639 5.318 2.218 7.582.666.955.014 1.65-.463 2.37-.49.737-1.077 1.419-.307 2.344.645.775 1.464.946 2.368.776.955-.18 1.888-.47 2.836-.685 2.334-.532 3.61.395 3.614 2.73.004 2.38-1.14 4.087-3.34 5.026-4.53 1.932-9.878-1.4-10.194-6.424-.307-4.878 1.279-9.347 3.268-13.72m46.844-130.583c1.176 3.526 2.048 6.953.097 10.487-.788 1.427.229 2.7 1.138 3.912 1.07-.661 1.026-2.3 2.72-2.265-1.02 2.343-.671 4.39.462 6.516 2.098 3.932 1.493 7.525-2.05 10.452-2.456 2.03-3.55 3.976-1.277 7.114-2.896-.615-3.862-2.05-3.735-4.45.08-1.53.726-2.844 1.366-4.13 1.999-4.014 2.149-7.755-.89-11.41-1.674-2.013-2.113-4.435-.747-6.826 1.676-2.935 2.453-6.105 2.916-9.4m-31.01 10.367c-.844 3.763.109 6.379 3.424 7.487 4.526 1.512 6.349-1.872 8.105-5.27 2.335 4.34.356 8.845-4.523 9.916-6.066 1.33-11.86-.123-17.994-3.124 4.519-2.253 5.369-7.753 10.989-9.01m61.863 101.662c1.11 7.339-2.61 14.425-7.947 16.164-.437-.761.212-1.294.458-1.863.648-1.502.538-2.785-.597-4.04-1.21-1.336-2.056-.573-3.192.157-.637.41-1.75.35-2.568.159-2.617-.614-5.197-1.388-7.75-2.09.369-3.875 1.642-5.128 5.035-5.148 2.639-.015 5.328-.024 7.83.754 3.888 1.207 6.645.12 8.73-4.093m-49.02.029c3.71 4.953 3.697 4.87 10.335 3.787 2.482-.405 5.042-.404 7.569-.447 2.677-.045 3.519 2.182 3.81 4.089.302 1.966-1.916 1.349-3.052 1.794-1.082.423-2.211.729-3.327 1.059-1.524.45-3.28.827-4.527-.05-1.005-.706-1.58-.857-2.446-.182-.985.766-1.616 1.694-1.168 3.022.352 1.046.713 2.088 1.14 3.334-6.433-2.72-9.332-8.605-8.333-16.406M538.983 539.3c-1.924 3.529-4.223 7.032-1.12 10.46 3.22 3.555 6.666 1.053 9.9-.827.097 5.6-1.74 7.622-6.935 7.852-1.365.06-2.734.028-4.101 0-5.636-.111-5.635-.116-6.517-5.538-.047-.288-.14-.57-.194-.856-1.34-7.02 1.368-10.502 8.967-11.091m-18.856-42.243c-3.463 1.725-6.002 3.27-7.597 5.948-1.22 2.046-1.43 4.034.159 5.97 1.62 1.977 3.58 2.418 6.026 1.55 1.766-.626 3.05-2.035 4.93-2.882.39 2.828.115 5.29-2.402 6.523-3.44 1.686-7.331 2.507-10.178 6.506-.984-4.203-3.048-6.96-4.532-9.995-2.67-5.463-.031-12.144 5.043-13.46 2.533-.655 5.11-.5 8.55-.16m242.884 86.827c-2.87-.023-6.29-2.102-7.638-4.643-1.48-2.79-.907-6.531 1.706-8.433 2.934-2.138 6.328-3.286 10.008-3.633 2.908-.274 2.865 2.473 4.207 3.78 2.83 2.759 2.458 4.322-1.387 5.742-1.52.562-2.468 1.262-2.52 3.078-.1 3.498-.877 4.138-4.376 4.109M432.566 471.808c5.118 5.887 9.81 11.634 14.882 17.022 5.07 5.385 7.715 12.664 14.02 16.995-6.23 1.57-8.662-3.666-12.32-6.86-.563 1.577.94 2.702-.594 4.02-4.884-3.906-9.821-8.101-11.24-14.356-1.254-5.53-2.803-10.681-6.28-15.091.496-.725 1.379-.741 1.532-1.73M642.87 600.39c2.107-3.243 4.913-5.652 5.769-9.11.623-2.518 1.93-2.821 4.1-2.906 8.803-.347 17.54.406 26.26 1.375 4.735.526 9.475.965 14.32 1.764-17.027 1.813-33.994 3.697-50.45 8.877m-112.076-74.715c2.33 2.39 2.445 4.845.4 7.064-2.377 2.579-5.425 3.47-8.798 2.937-2.458-.39-3.683.7-4.353 2.835-.263.838-.441 1.705-.742 2.529-1.018 2.783-3.671 3.338-5.352.958-1.87-2.65-3.116-5.643-3.35-8.944-.1-1.41.095-3.243 1.466-3.537 2.825-.605 2.99-2.681 3.445-4.758.889-4.055 2.718-5.22 7.366-4.546-1.178 2.96-2.496 6.139 1.056 8.282 3.724 2.247 6.163-.667 8.862-2.82m92.727 54.32c-3.291-2.23-3.724-5.374-3.484-8.64.158-2.146-.83-2.775-2.681-2.795-1.712-.018-3.267.383-4.608 1.518-1.361 1.152-1.991 2.702-2.481 5.224-1.344-4.311-.401-7.51 1.586-10.192 3.093-4.173 1.894-7.821-.604-11.548-1.654-2.467-3.89-4.428-6.25-6.815 4.975.217 8.163 2.887 11.338 6.007 1.759-2.851-.97-4.773-1.213-7.09 7.11.716 8.845 7.18 4.438 16.143 2.776 2.208 2.64 7.612 8.249 6.726-.972 4.339-5.535 6.79-4.29 11.462m109.46 15.844c-5.047 0-9.734 1.649-14.506 2.755-6.817 1.579-13.61 2.1-20.578 1.128-6.165-.86-12.353-1.574-18.572-2.077-5.04-.407-10.101-.091-15.134-.794 4.078-1.04 8.223-1.251 12.39-1.444 8.652-.401 17.3-.82 25.894-2.103 6.114-.914 12.156-2.842 18.502-1.385 4.117.946 8.318 1.516 12.005 3.92m-110.874 10.717c.11-.335.114-.572.234-.68 5.88-5.25 8.16-11.173 5.112-19.1-1.82-4.734-.348-9.531 3.939-13.797-.838 3.55-1.683 6.463-.738 9.5 1.074 3.455 4.165 3.94 7.243 4.769-6.026 8.638-5.102 17.062-.225 25.499a14.7 14.7 0 0 1 1.437 3.509c.97 3.614-1.028 8.083-4.388 9.823.068-.747.107-1.423.195-2.093.693-5.285-.964-7.461-6.111-7.94-1.098-.102-2.116-.406-3.053-.941-2.18-1.245-2.171-2.324-.012-3.69 3.028-1.916 4.3-4.49 3.899-8.056-2.215 1.787-4.402 3.547-7.532 3.197m177.028-31.966c3.229 5.972 2.557 10.326-1.807 14.69-1.653 1.653-3.337 3.35-4.62 5.285-5.423 8.19-13.312 9.458-22.167 8.166-7.891-1.151-15.334-4.333-23.936-5.044 2.332-1.524 4.317-2.032 6.465-2.155 4.896-.278 9.732.175 14.58.84 3.005.413 6.114.91 9.64-.598-10.812-.7-12.25-1.444-12.023-6.181 9.81 4.124 16.852 1.202 21.026-9.281 1.174 3.703 5.03 4.117 5.42 7.378 5.327-1.748 7.157-4.953 7.422-13.1m-279.675-8.496c.424 1.578 0 2.919.01 4.256.038 5.407.336 10.8 4.385 15.022 3.719 3.876 6.578 3.866 10.208.123 2.729 1.532 4.128 4.618 2.547 5.915-1.1.902-1.808 2.028-2.66 3.077-1.432 1.768-3.12 2.852-5.523 2.725-2.267-.121-4.634.139-6.522 1.328-3.094 1.949-4.8.61-6.31-1.963-.494-.841-1.088-1.624-1.566-2.473-1.923-3.41-3.373-7.037-4.861-10.65-.83-2.015-1.853-2.044-3.04-.19-.631.987-.747 2.362-2.131 3.126.437-7.08 1.734-13.773 3.029-20.461 1.312-6.774 1.699-13.618 1.488-20.742 4.63 3.594 6.926 10.32 5.297 15.315-1.702 5.22-2.145 10.494-1.104 15.878.355 1.84.778 3.693 2.613 5.01 1.372-13.848 1.372-13.848 4.14-15.296m-17.957-65.018c-6.627-2.327-12.431-5.983-17.454-10.874-1.555-1.515-3.182-3.333-5.254-3.536-2.584-.252-3.307-1.694-3.656-3.67-.588-3.333-2.558-5.594-5.241-7.415-.512-.348-1.331-.463-1.378-1.534.776 0 1.523.009 2.27-.002 3.795-.06 5.065-1.596 4.444-5.321-.094-.568-.05-1.158-.07-1.738l-.281-.202c.053.009.13-.001.154.03.045.059.06.14.088.213 6.508 3.523 12.966 7.144 19.534 10.55 18.39 9.542 37.614 17.198 56.886 24.712 11.812 4.606 23.612 9.339 35.898 12.534 10.393 2.702 19.802 7.154 28.094 13.925 3.643 2.975 6.916 6.345 8.807 10.77.596 1.395.906 3.048-.921 3.744-1.881.717-2.793-.634-3.535-2.173-.714-1.483-.128-3.222-.86-4.848-3.01 1.449-2.354 4.27-2.7 6.51-4.557-3.358-3.115-10.404-8.785-13.332-.534 2.546-.984 4.61-2.74 6.77-.02-3.798.407-7.246-2.288-9.912-1.057.918-1.461 2.67-3.014 2.187-2.084-.65-1.402-2.92-2.106-4.582-2.082.94-1.962 3.114-2.91 4.59-3.381.05-3.88-2.448-4.23-5.413-4.298 4.576-3.208 10.945-6.651 15.572-1.475-2.803-.84-5.593-1.327-8.411-2.788 1.22-3.787 3.62-3.696 5.784.247 5.904-3.362 10.49-4.747 15.804-.351 1.347-1.432 2.146-2.746 2.368-1.257.212-1.38-1.165-2.033-1.81-2.012-1.982-2.727-4.37-2.427-7.166.11-1.027.187-2.182-.906-3.076-2.157.184-3.407 1.937-4.955 3.194-1.666 1.353-5.376 1.333-6.292-.211-1.693-2.853-4.017-5.656-1.716-9.286.199-.314.254-.74.307-1.122.263-1.9-.463-2.87-2.461-2.398-1.886.446-3.746 1.004-5.591 1.505-1.19-1.26-2.137-2.753-3.49-3.604-4.003-2.521-2.752-8.006-6.275-10.748-.172-.134.155-.895.233-1.367.564-3.442.288-3.721-3.158-4.425-1.03-.21-2.861.453-2.987-1.11-.292-3.642-2.93-7.281.536-11.007 2.279-2.451 1.21-4.416-2.154-5.095-1.234-.25-2.554.037-3.728-.607-5.55-3.042-11.125-3.343-16.733.002-6.537-5.762-16.268-6.96-20.775-15.415.203 4.905 2.352 8.598 5.958 11.679 3.227 2.758 6.877 5.123 9.147 8.882l.27.33zm108.016 225.275c-.088.186-.096.556-.428.188l.34-.275c.042-.878.128-1.755.114-2.632-.02-1.284-.985-2.052-1.897-1.365-3.234 2.433-7.843.847-10.882 4.559.446-3.74 2.405-6.151 5.269-6.324 3.375-.204 5.314-1.525 5.234-5.212 1.495 1.466 1.495 1.466 1.954 3.778 3.192-1.403 5.629-4.78 5.455-7.562-.178-2.846-3.872-6.817-7.203-7.326-1.976-.302-3.77-.784-5.311-2.164-3.05 2.75-6.446 3.823-9.99 1.713-1.453-.866-2.354-.702-3.676-.175-2.376.946-4.641 2.396-7.334 2.168-.297-.85 1.02-1.35.35-2.094-1.52.198-2.68 1.63-4.186.747-.321-.867.555-1.575-.017-2.478-4.47.196-8.72-2.594-13.483-.857.868-4.184.176-5.073-3.807-5.246-2.12-.092-4.236-.118-6.535-.788 1.83-2.054 3.656-3.986 3.664-6.97-1.247.29-2.352 1.302-3.564.315-.651-.53-.594-1.233-.315-1.872 1.627-3.721 1.304-7.55.35-12.268 3.232 4.554 5.497 9.322 11.733 7.012.477 2.909-1.095 5.03-2.055 7.42 2.143.359 3.79-.405 5.407-1.38 4.336-2.613 8.856-4.514 14.117-3.944 1.506.163 3.127.039 4.243-1.462-1.102-3.607-5.131-2.71-7.304-4.71 7.614.073 15.16-1.003 23.452.527-5.026 2.979-9.686.428-13.4 1.207-1.225 5.639-.448 10.838-.572 16.668 1.794-2.5 2.506-4.757 2.63-7.215.083-1.655.06-3.293.457-4.942.52-2.162 1.817-2.502 3.72-2.13 2.477.482 2.986 2.412 3.29 4.868 2.773-1.648 4.546-.214 6.442 1.384 3.102 2.616 6.703 4.252 10.906 4.6-2.124-1.298-4.015-2.643-2.66-5.723 2.942 1.449 5.168-.515 7.662-1.692l.33 3.808c1.974-3.063 2.164-5.881 2.049-8.67-.364-8.85-1.534-17.738 2.838-26.108.853-1.634.593-3.516-1.992-3.924 2.075-3.031-.325-7.114 3.184-9.467-3.307-3.043-4.422.068-6.15 1.798-2.265-2.463-1.652-4.977-.646-7.4 1.768-4.255 2.17-8.545.858-13.33-1.138 2.689-1.487 5.645-5.342 6.384 2.236-3.184 1.526-5.978.258-8.84-.958-2.161-.448-4.075 1.564-5.594.88 2.424.88 2.424 4.296 3.885.513 3.993 1.532 5.457 3.91 4.873 2.31-.567 3.08.729 3.683 2.308 1.035 2.719.42 5.387-.7 7.946-.637 1.459-1.291 2.867-.43 4.455.93 1.714 1.38 3.524.603 6.17 4.203-3.088 3.382-7.063 3.606-11.25 1.625 2.385 2.176 4.39 2.279 6.555.275 5.773-1.48 10.964-4.505 15.796-.724 1.156-1.663 2.263-1.067 4.472 3.059-5.092 9.688-2.825 12.619-8.014 1.192 3.452-.675 5.448-2.772 6.275-5.38 2.123-6.792 7.907-10.966 11.054-.514.387-.628 1.198-.148 1.94.79.347 1.632-.735 2.74.228-2.497 3.71-3.362 8.088-4.255 12.463-.133.649-.45 1.346-.89 1.83-1.432 1.578-1.112 3.546-.085 4.687 1.546 1.717.56 2.676-.28 3.934-1.452 2.172-3.492 3.654-5.698 4.958-1.007.595-2.06 1.146-2.965 1.875-2.14 1.722-2.22 3.165-.412 5.17.523.58 1.128 1.094 1.603 1.71 5.31 6.894 1.179 15.739-4.32 16.426-.551-.608.248-1.696-.758-2.158-1.318 1.884-1.872 4.34-4.21 5.407M736.805 592.55c-3.441-.181-6.533-1.767-9.88-2.403-15.883-3.016-31.987-3.31-48.05-3.83-10.825-.35-21.59-1.877-32.447-1.518-1.296.043-2.61-.407-3.924-.63 2.129-8.193 6.997-12.186 15.216-12.681.773-.046 1.56-.143 2.304-.354 1.642-.466 3.225-1.145 3.494-3.091.263-1.895-.933-3.042-2.368-4.047-1.656-1.16-3.743-1.275-5.696-2.314 4.252-2.333 8.193-1.216 12.084.159 5.932 2.097 10.996 5.913 16.603 8.6 15.948 7.646 32.869 10.636 50.668 9.54-3.377 2.96-7.756 2.798-12.196 4.014 1.805.834 3.225 1.42 4.58 2.13 3.432 1.795 7.155 3.167 9.602 6.434.136.1.636.048.17.403zm-281.14 30.03c-1.931-3.075-1.681-6.55-1.658-9.928.025-3.775-1-7.044-3.361-10.032-2.596-3.285-5.448-6.408-7.294-10.238-2.007-4.163-.985-7.416 3.03-9.565 5.295-2.833 5.734-8.632.93-12.292-3.021-2.303-6.534-3.59-10.17-4.313-10.513-2.091-21.105-3.79-31.597-5.977-15.738-3.281-30.693-8.503-43.044-19.338-10.417-9.138-16.196-20.213-13.46-34.484.903-4.704 2.225-9.335 5.573-13.026 1.163-1.283 2.642-2.245 4.417-1.512 1.756.726 1.263 2.482 1.215 3.88-.141 4.088-2.06 7.707-3.276 11.498-2.715 8.457-1.564 16.198 3.879 23.215 4.584 5.909 9.925 11.048 16.368 14.907 14.49 8.678 30.57 12.604 46.978 15.475 7.309 1.279 14.654 2.383 21.288 6.007 2.809 1.534 5.552 3.474 5.973 6.793.426 3.359 2.089 4.056 4.94 3.689 1.064-.137 2.143-.158 3.207-.294 4.298-.552 7.134 2.555 5.644 6.649-1.467 4.029-3.395 7.873-2.16 12.468-4.743-3.7-2.817-8.804-2.99-13.421-1.966-.334-2.788.58-3.09 2.303-.684 3.92-1.68 4.31-4.71 1.923-2.136-1.685-5.014-1.081-5.718 1.41-.667 2.358-.642 4.78 1.535 7.263.01-2.781.22-5.04 2.304-6.846v4.414c-.002 3.005.595 5.83 2.63 8.165.812.932 1.853 1.502 3.128.925 1.133-.513 1.404-1.546 1.41-2.682.007-1.085.002-2.17.002-3.255 2.175 2.393 4.389 4.792 3.652 7.99-.517 2.244-.227 4.193.309 6.272.309 1.198 1.138 2.319.665 3.662q.179.098.356.197c-.064.006-.157.042-.187.013-.064-.063-.096-.16-.141-.243-4.36-1.154-6.64.657-6.494 5.177.03.959.148 1.917.222 2.878.294.254.548.712.222.888-.465.25-.405-.344-.527-.614m92.895-2.542c2.534.917 5.235.663 8.383.867-2.643 2.792-3.89 5.73-4.19 8.987-.223 2.43-1.44 3.69-3.85 4.148-1.29-3.036-3.833-3.323-6.572-3.295-.646 2.38 1.486 2.655 2.398 3.746-2.087 1.648-3.747.785-5.376-.515-1.801-1.437-3.63-2.82-6.531-1.827 2.836 1.506 2.659 4.789 5.377 6.36-3.792 1.708-5.57-.483-7.445-2.472-.785-.833-1.694-2.06-2.865-.79-.994 1.08.072 1.962.896 2.642 1.358 1.122 2.526 2.304 2.375 4.443-3.935-1.598-8.243-2.116-10.272-6.352l-.228-.362.29.304c1.288-.493 3.177 1.863 3.8-.274.52-1.787-1.627-2.343-3.06-2.881-1.785-.67-3.278-1.646-3.99-3.757-1.002 1.479-.875 2.7-.658 3.984.692 4.099 3.23 6.716 6.634 8.807 3.173 1.95 3.833 4.638 2.142 7.984-1.877-3.691-4.48-6.204-9.357-6.235 1.219 2.327 2.337 4.2.748 7.17-1.507-5.908-8.701-4.341-10.082-10.22-1.506 3.374-.204 5.263 1.674 7.079 1.892 1.829 4.302 3.45 3.666 7.197-1.652-2.568-3.965-3.61-6.202-4.761l-.115.117c-.028 2.41 3.069 4.342.906 7.387-1.101-3.722-3.9-5.89-6.265-8.42-4.992-5.337-6.212-11.734-5.474-19.237 1.608 1.584 2.203 4.365 4.148 3.367 2.07-1.062 1.54-3.696 1.03-5.825 1.918-.001 1.929 2.023 3.246 2.757.185-5.626-5.825-9.043-4.802-15.646 1.898 5.729 7.085 7.737 9.297 12.35 1.54-2 .635-3.905.397-6.163 3.307 2.689 4.006 6.022 4.185 9.942 3.286-3.288-.417-7.231 1.672-10.524.674 1.25 1.138 2.325 1.789 3.27 1.37 1.995 3.015 3.852 5.73 3.166 1.983-.5 3.457-.55 4.779 1.326.617.876 1.912.788 3.264.288-2.306-2.382-3.758-4.948-2.106-8.423 1.854 2.823 2.299 3.056 5.322 3.28.963.072 1.906.382 2.869.475.939.09 2.063 1.388 2.798-.15.599-1.255-.56-1.907-1.286-2.661-.311-.321-.92-.4-.872-1.087 2.998-.36 5.886-.225 8.122 2.128 1.87 1.967 4.053 2.282 7.046 1.682-1.802-.825-3.337-1.364-3.6-3.161-.225-.134-.422-.283-.103-.508.025-.017.208.19.318.293m-35.192 52.205c2.632 1.994 5.54 3.11 9.163 2.95-1.43-2.212-.781-4.687-1.943-6.66 2.142-1.624 4.074-.247 6.066.04.258-1.44.057-3.12 1.458-3.75 2.744-1.235 3.553-3.48 3.492-6.633 2.026 2.006 2.919 3.99 3.442 6.208 1.069 4.537-1.133 8.982-.043 13.496-1.356.087-1.348-1.277-2.107-1.434-1.15 2.016-.494 4.149-.384 6.349l-1.72-.69c0 1.088-.003 2.034 0 2.98.044 12.458 5.845 17.406 18.213 15.542 2.615-.394 5.234-.758 7.38-1.067-.691.84-1.618 1.837-2.397 2.938-1.675 2.366-1.188 3.676 1.6 4.375 2.292.575 4.574.743 6.96.298 1.47-.275 2.936-1.03 4.466-.741.863 1.9-.763 2.996-1.181 4.638 6.267.337 11.969-1.841 18.08-3.675-.747 2.03-2.016 3.403-.701 5.147 1.342 1.779 3.042 1.26 4.698.816 1.867 6.88.272 10.002-5.82 11.86-1.627.497-3.258.585-4.922.542-2.393-.062-4.758-.847-7.4-.26 5.037-2.32 2.637-8.044 6.22-11.523-3.665-.063-4.87 1.926-5.775 4.25-.771 1.98-1.36 4.076-3.95 5.105.499-3.658-1.647-3.176-3.805-2.743-4.707.947-9.387.774-14.063-.278 2.704-1.007 5.485-1.635 7.77-3.422 1.008-.788 2.262-1.694 1.985-3.021-.315-1.507-1.992-1.328-3.19-1.47-1.45-.17-2.933-.038-4.392-.16-3.836-.321-7.624-.884-11.448-2.624 2.449-1.05 5.237-1.048 5.979-4.307-6.718-.904-11.658-4.418-15.354-9.848-1.907-2.802-3.772-5.65-6.467-7.887 1.02-1.368 2.593-.808 3.869-1.368-1.847-2.71-4.377-4.147-7.26-5.043.578-1.098 1.766-.85 2.57-1.626-3.934-1.576-8.12-2.388-9.398-6.992-.216-.198-.418-.412-.07-.646.037-.024.249.216.379.334m-6.565-66.76c1.847 2.045 3.982 3.465 6.896 2.834 1.998-.432 3.4-1.897 4.785-3.242 2.256-2.19 4.874-3.822 7.956-3.982 4.408-.23 8.458-.894 11.305-5.456.21 7.718-6.41 7.358-10.228 10.044 3.742-1.747 8.69-.47 10.864-4.585 1.54-.05 1.12 1.739 2.394 1.762 1.589-1.308 2.18-2.842 1.466-4.907-.587-1.698-.306-3.464 1.238-4.48 2.694-1.773 5.04-3.88 7.346-6.995v4.322l-.004-.005c1.077-.395 1.8-1.256 2.249-2.196.796-1.663 1.273-3.478 2.06-5.146.98-2.08 1.497-4.596 4.548-5.605-.731 2.413-2.234 4.509-.354 6.599 1.455 1.617 3.916 2.192 4.458 4.564 5-1.07 6.564-2.86 6.995-7.782.357-4.093 3.144-7.018 7.174-7.087-4.343 2.822-4.665 6.547-3.692 10.963 1.056 4.79.149 6.406-4.134 8.808-2.911 1.633-5.71 3.249-6.223 7.105-1.305-2.802-1.158-5.306.643-7.686-1.483-.315-2.52.269-3.585.722-1.25.53-1.161 1.96-1.675 2.99-1.508-1.033-.465-2.536-1.1-3.601-3.91 2.13-5.113 4.878-3.815 8.922.814 2.536 1.815 5.02.776 7.818.062-2.433-1.288-4.026-2.977-5.43-1.981-1.648-3.09-3.731-3.12-6.341l.02.022c-2.55 1.48-2.87 2.624-1.415 5.41 1.029 1.972 2.324 3.885.7 6.17-.818-.42-.65-1.221-.877-1.813-.59-1.533-1.697-2.412-3.26-2.546-1.115-.096-2.156.453-2.625 1.512-.63 1.424.046 2.644.942 3.747.665.817 1.577 1.522 1.223 2.785l.172.21-.132-.253c-3.281-1.218-7.184-.931-9.565-4.18-2.706 2.42-.422 4.407.467 6.477-3.187.369-5.334-.99-6.995-3.351-1.043 1.793.153 3.093.746 4.617-3.53-.118-5.036-2.35-6.248-4.72-2.7.52-2.948 2.833-3.916 4.625-2.83-1.811-5.596-3.451-8.215-5.301-2.136-1.51-3.801-3.416-3.23-6.374-.447-.14-.593-.368-.192-.81zM371.905 388.416l.186-.27c-.006.052.005.124-.024.148-.054.044-.132.059-.2.086-.142.345-.185.844-.443 1.013-3.063 1.997-5.587 4.522-7.827 7.409-1.173 1.512-2.98 2.105-4.93 2.21-2.306.127-4.417-.571-6.555-1.284-3.534-1.18-7.111-2.084-10.883-1.14-2.305.577-3.523 2.018-3.513 4.386.012 2.81 3.859 4.65 7.112 2.919 2.18-1.16 3.447-.477 4.83.828 3.194 3.013 6.74 5.904 6.403 10.928-.35 5.194-.435 5.189 2.74 8.445-1.036.878-2.16.783-3.303.372-2.611-.936-4.443-2.756-5.755-5.15-2.638-4.813-3.02-4.953-7.893-2.783-2.18-3.62-3.972-7.586-7.747-10.021.583-.775 1.83-.571 1.913-1.84-.423-1.666-2.452-1.561-3.606-2.868 1.51-3.655 2.694-7.461-.736-10.822 2.147-1.312 3.499 1.608 5.275.752 1.96-.946 1.65-3.326 2.387-4.957 2.939-.17 3.205 2.109 3.74 3.9 2.814.004 3.053-2.653 4.414-3.807 2.664.107 2.97 2.3 3.7 3.933 2.09.159 3.315-.81 4.246-2.334.466-.761.48-2.033 1.902-1.794 1.257.212 2.13.97 2.684 2.054.388.762.609 1.608.892 2.382 2.537-.07 2.975-2.434 4.482-3.713 1.978 1.624 4.3.9 6.509 1.018m118.452 122.63c-2.193.195-3.92-1.12-5.743-1.94-6.502-2.93-12.958-5.964-17.63-11.701-1.226-1.505-2.6-2.938-4.108-4.153-1.742-1.403-3.835 0-6.006-.135 2.432-5.127 2.254-10.177.649-15.646 3.88 1.168 4.018-2.063 5.22-4.035 1.156.543 1.88 1.269 1.834 2.303-.191 4.15 3.056 6.898 4.589 10.252 1.005 2.2 2.023 4.29 2.422 6.679.244 1.457.824 2.895 2.366 2.957 3.909.157 5.83 2.712 7.589 5.64.698 1.164 1.32 2.869 2.658 2.964 4.362.309 5 3.737 6.214 6.763.158.097.593.073.185.419zm47.662 133.623c2.328.467 2.64 2.567 3.539 4.249.98 1.838 1.163 4.328 4.3 5.394-2.521-5.256 1.428-8.94 1.839-13.34 1.658.624 1.742 2.182 2.189 3.494 1.344-.968.586-2.467 1.097-3.417 1.725.119 1.19 2.026 2.422 2.468 2.727-2.588 4-5.643 3.999-9.413-.002-4.582 1.012-8.922 4.297-12.43-.804 3.95-1.883 7.816.15 11.725a17.7 17.7 0 0 1 1.568 4.4c.493 2.283.85 4.63-.588 7.209-.114-1.817-.1-3.195-.313-4.537-.227-1.427-1.152-2.34-2.665-2.096-1.586.255-1.982 1.543-1.703 2.888.436 2.097 1.076 4.152 1.639 6.22.52 1.913.846 3.804-.46 5.729-.493-1.814.036-4.262-2.248-4.685-2.06-.381-1.182 1.935-1.79 2.956-1.612-.4-2.011-2.042-3.115-2.903-2.514 2.718-2.663 4.212-.85 7.306 1.432 2.443 2.665 4.945 1.73 8.338-1.783-2.835-4.361-3.884-6.992-4.93-4.484-1.782-7.272-4.852-7.03-9.997.076-1.623-.771-3.002-1.145-4.506-.16-.116-.548-.16-.143-.443.01-.007.179.209.273.32m-44.103-250.405q-.149.144-.296.289c.01-.07-.006-.17.033-.2.069-.053.17-.064.259-.093.42-1.252.572-2.38-.601-3.435-1.195-1.078-2.337-.721-3.523-.203-1.698.74-3.358 1.567-5.057 2.304-4.592 1.992-8.31 6.2-13.982 5.497-.512-.063-1.106.343-1.628.6-1.437.712-2.857 1.46-4.684 2.4 4.333-6.608 17.63-16.385 23.725-17.64 1.956 3.375 5.107 2.865 8.422 2.29.588 3.777 3.924 3.825 7.137 4.952-3.51 1.543-6.432 3.023-9.805 3.239M610.683 583.78l.21-.171-.253.13c-.877 3.64 1.089 5.67 4.71 4.749 2.842-.725 2.957-3.122 2.827-5.392-.105-1.827-.608-3.631-1.018-5.907 9.934 11.857 8.568 21.64-2.973 29.452-.08.18-.055.583-.406.192l.394-.205c-.042-1.187.828-1.936 1.385-2.826 1.358-2.171 2.479-4.432 2.762-7.017.223-2.03-.453-3.676-2.283-4.688-1.735-.96-3.18-.536-4.287 1.102-.69 1.02-1.533.589-2.318.176-2.103-1.11-4.207-1.208-6.288.044-1.21-3.594-.824-5.29 1.557-6.897.052 1.754-.165 3.642 2.355 4.323.254-1.425.333-2.792.763-4.038.473-1.368.608-3.264 2.863-3.027M505.45 534.087c-2.564-1.251-3.682-3.595-4.588-6.091-.232-.642-.55-1.453.144-1.88 1.896-1.165 2.634-3.251 4.076-5.09 1.57 2.979 3.083 5.649.953 8.8-.826 1.22-.404 2.642-.308 3.99.105.117.319.307.298.339-.213.314-.401.133-.575-.068m118.144 169.32c2.265.568 4.57.772 7.354.414-.644.802-.867 1.368-1.241 1.499-2.632.919-2.686 2.946-2.643 5.269.039 2.154-.503 4.253-2.844 5.239l-.317.236.21-.342c.166-4.095.16-8.182-.598-12.234l-.26-.325zM795.48 566.175c.064-2.756-2.69-3.608-4.143-5.591 1.96-.526 3.383.139 4.806.683 1.439.55 2.684 1.45 2.496 3.149-.208 1.875-1.911 1.532-3.191 1.728 1.483 1.214 3.759 1.935 2.916 4.61-.67 2.132-2.457 1.825-4.09 1.84-.171 1.067.885 1.409 1.27 2.149.714 1.37.95 2.864.112 4.147-.802 1.23-2.16.983-3.57.52-.082-2.556-.927-4.674-3.647-5.575-.301-.1-.398-.813-.59-1.242-4.41.93-8.711.842-13.52-1.254 3.46-2.57 6.723-3.9 10.247-4.686 1.61-.36 3.386-1.074 4.586.579 1.232 1.698.276 3.319-.755 4.804 2.013-.268 3.934.384 5.9.59.429-2.723-1.45-4.07-3.516-5.352 1.439-1.76 3.233-.673 4.689-1.1M567.843 682.3c-.192-.21-.582-.468-.546-.625.779-3.32-1.237-5.611-2.89-8.042-.025-.038.073-.161.183-.388 3.424 2.85 7.462 3.832 11.804 3.926.019.826-2.656-.343-1.151 1.578-6.73-.404-6.872-.334-7.43 3.583.072.019.152.025.212.062.036.022.043.092.063.14q-.123-.115-.245-.234m50.462-8.761c.097-.113-.053-.614.359-.227l-.4.183c-.028 2.19-1.895 2.976-3.222 4.142 1.137 2.54 1.137 2.54-.016 4.334-.521-3.576-.637-3.628-7.26-3.233.15-.586.25-1.163-.39-1.617 4.114.089 7.633-1.411 10.929-3.582M463.417 401.907c.046-.082.079-.178.144-.241.035-.034.124-.013.189-.017l-.37.217q-.114.163-.232.327c.008-.06-.005-.144.028-.171.067-.055.159-.08.24-.115M442.953 533.23c2.89 5.75 6.594 11.014 9.977 16.466 6.758 10.89 13.883 21.526 23.195 30.482 5.218 5.019 10.88 9.52 16.494 14.08 1.21.984 2.34 2.069 3.499 3.118 1.57 1.422 1.926 3.039.245 4.515-1.613 1.418-2.631-.076-3.608-1.131-.255-.275-.311-.735-.67-1.652-1.544 4.333-2.474 7.61-.19 10.993 1.15 1.702.138 3.678-1.954 4.15-.931.21-1.92.173-2.916.25-.167 1.66.36 3.148 1.497 4.029 3.11 2.412 3.37 5.848 3.506 9.239.37 9.322 2.692 17.85 8.693 25.284 2.642 3.274 4.323 7.192 4.452 11.584.052 1.787.302 3.593-1.927 4.222.538 1.892 1.429 3.274 2.488 4.569 1.003 1.226 2.642 2.26 1.082 4.216-.4.5.242 1.069.579 1.528 1.27 1.729 2.344 3.675 4.155 4.885 2.226 1.486 2.714 3.199 1.033 5.607 4.896 3.595 7.968 8.83 12.302 12.889 1.134 1.06 2.307 2.254 3.693 2.836 2.984 1.255 4.387 3.14 3.394 6.337 1.393 1.19 3.059 1.076 4.482 1.627 5.03 1.95 5.43 2.809 3.297 8.039 3.11 2.112 6.64 2.738 10.289 2.54 4.149-.224 7.576.504 10.91 3.57 3.805 3.498 8.966 4.152 14.1 3.229 1.642-.295 3.406-.406 4.466.66 1.816 1.829 3.364 1.162 5.233.377 2.732-1.148 5.63-1.554 8.604-1.427 4.31.185 8.609-.114 12.853-.795 8.593-1.38 15.28-6.177 21.159-12.27 1.212-1.255 2.403-2.667 2.676-4.476 1.007-6.664 5.08-11.521 9.51-16.125 1.458-1.514 2.054-2.726.934-4.782-1.178-2.162-.03-4.182 1.363-5.92 1.28-1.6 2.995-1.798 4.753-.961 1.38.657 1.899-.01 2.473-1.096 1.992-3.78 1.978-7.551-.241-11.154-.997-1.62-.885-2.863-.175-4.548 1.29-3.061 2.12-6.283 1.444-9.7-.148-.745-.086-1.581.08-2.33.66-2.957 1.568-5.783-.52-8.721-.932-1.312-.293-3.206.5-4.763 1.248-2.453 1.51-4.986.384-7.825-1.332.873-1.732 2.88-3.872 2.547-1.322-2.024-1.213-4.526-1.24-6.872-.025-2.416.344-4.874.847-7.25 1.496-7.077 1.38-7.768-3.34-13.013 7.243-3.488 14.309-7.315 22.022-9.531 6.402-1.84 13.003-.904 19.495-.324 11.458 1.024 22.754 3.535 34.358 3.352 5.842-.092 11.559 1.805 17.458 1.799 3.615-.004 7.015-.636 10.08-2.548 3.44-2.145 7.003-2.16 10.703-.95 3.34 1.093 6.622 2.428 10.028 3.245 5.949 1.427 11.832-.16 17.707-.95 1.91-.255 3.336-1.632 4.599-2.991 4.326-4.648 8.659-9.294 12.834-14.077 2.022-2.317 2.14-5.425 2.428-8.316.468-4.698.04-9.388-1.081-13.966-1.46-5.96-5.7-9.221-11.841-9.158.428 2.18-.325 3.11-2.561 2.108-.244-.11-.662-.136-.86.002-3.034 2.106-6.381 2.137-9.945 2.145-1.995.004-4.041.332-6.032-.075-2.074-.424-4.065-.28-6.084.226-1.126.282-2.01.572-1.851 2.08.158 1.505-.76 2.24-2.195 1.89-4.49-1.094-8.717-.043-12.915 1.4-1.577.542-3.124 1.3-4.38-.682-.476-.751-1.434-.353-2.194-.252-3.831.512-7.466 1.692-10.665 3.833-4.375 2.929-8.804 3.436-13.917 1.984-6.18-1.755-12.772-2.277-18.326-5.814-3.851-2.452-7.875-3.814-12.38-4.595-5.49-.951-10.031-4.201-14.156-7.91-.762-.686-1.26-1.59-2.684-.884-5.41 2.678-10.03.633-14.351-2.714-.903-.7-1.773-1.438-2.746-2.231-1.296 4.403-1.707 4.568-5.67 2.833-2.007-.88-3.663-2.212-5.255-3.674-2.57-2.361-5.44-4.117-9.138-4.298-.074.27-.24.545-.2.784.195 1.13.84 2.57-.756 2.969-1.664.415-2.073-1.188-2.406-2.372-4.184-14.91-15.698-22.666-28.66-28.561-8.44-3.838-17.89-4.838-26.68-7.797-18.064-6.08-36.005-12.484-52.412-22.43-2.75-1.665-5.372-3.58-7.882-5.592-5.894-4.726-8.863-10.995-9.41-18.496-.972-13.343-6.605-24.767-14.667-35.155-1.632-2.103-3.844-3.596-5.946-5.194-2.52-1.914-4.62-4.195-6.084-7.038-.987-1.915-.785-3.524.919-4.94 7.043-5.852 14.687-10.723 23.355-13.77 3.307-1.162 6.96-.732 10.378-1.674 4.7-1.294 7.613-6.904 5.789-11.373-.578-1.415-1.818-1.851-3.031-1.96-1.521-.136-2.715-1.205-3.947-1.423-4.051-.717-7.121-4.058-11.364-3.993-1.067.016-1.82-.567-2.68-1.025-4.418-2.353-8.855-2.497-13.51-.467-6.68 2.914-12.172 7.355-17.152 12.547-5.263 5.487-11.345 9.793-18.201 13.128-5.161 2.51-7.434 7.005-7.235 12.702.083 2.388 1.196 4.065 3.698 4.61 5.424 1.183 8.452 5.342 11.502 9.42 1.417 1.893-.33 2.417-1.524 2.88-.23 1.588.57 2.455 1.518 3.18 1.844 1.41 2.528 2.625-.018 4.13-1.554.919-2.525 2.447-2.18 4.687 1.765-.18 2.938.54 2.775 2.522-.263 3.205-2.442 3.91-5.454 3.715.247 1.57.08 2.99-.355 4.348-.944 2.95-3.058 4.298-6.086 3.524-5.561-1.422-11.18-1.613-16.867-1.393-5.893.228-11.431-.704-15.97-5.021-1.758-1.673-3.96-2.874-5.785-4.486-5.278-4.657-11.22-8.165-17.876-10.382-10.031-3.34-17.021-10.45-23.308-18.471a259 259 0 0 1-5.128-6.776c-1.43-1.951-1.202-3.647 1.003-4.863 2.714-1.497 4.855-3.532 6.426-6.237.853-1.47 2.412-2.2 3.879-3.022 5.745-3.221 6.226-11.241.935-15.23-1.612-1.214-3.583-2.164-5.462-1.331-2.602 1.154-4.933.342-7.482.146-5.221-.401-10.511-.334-15.737-.32-2.693.008-5.308.453-8.111-.132-5.68-1.187-10.281 2.612-10.527 8.459-.144 3.413-.123 6.854.146 10.257.337 4.278 1.722 8.198 4.956 11.273 7.85 7.468 12.285 17.306 18.082 26.196 2.028 3.112 3.615 6.457 4.949 9.947 1.149 3.005 2.982 5.555 6.538 6.05 1.815.252 2.344 1.87 3.42 2.934 6.156 6.084 9.49 13.745 12.42 21.882-2.768 1.47-5.536 2.852-8.218 4.385-6.513 3.723-12.278 8.37-16.81 14.39-10.4 13.82-9.784 29.755 1.64 42.937 12.11 13.97 27.938 21.602 45.36 26.517 9.258 2.61 18.886 2.957 28.276 4.738 5.57 1.056 11.094 2.292 16.279 4.684 1.777.819 3.52 1.723 4.885 3.175 2.054 2.187 1.926 3.59-.453 5.457-6.124 4.803-7.21 10.23-3.301 16.948 2.21 3.799 4.573 7.51 6.796 11.302 1.465 2.497 2.4 5.25 1.912 8.134-1.034 6.099 2.097 10.278 6.105 14.113 1.033.989 2.212 1.825 3.618 2.97.129-4.877-2.766-8.977-1.621-13.688 1.849.528 2.236 2.196 3.4 3.569.58-3.475 2.588-5.822 4.62-8.338 3.432-4.252 5.223-9.051 2.46-14.643-1.743-3.531-.354-7.023 1.063-10.434 2.26-5.44.72-10.197-4.205-13.48-2.264-1.51-4.78-2.263-7.49-2.04-1.564.128-2.486-.397-3.335-1.721-5.323-8.3-13.086-12.361-22.774-13.68-17.473-2.38-34.651-6.046-50.38-14.515-10.038-5.406-17.457-13.182-20.378-24.493-1.312-5.083-.477-10.12 1.939-14.794 1.759-3.403 4.992-4.886 8.486-5.717 6.185-1.471 12.427-.906 18.656-.205.943.106 1.529.823 2.28 1.258 2.67 1.547 4.848 3.944 8.008 4.65-1.735-2.672-4.673-3.952-6.963-5.985-3.695-3.28-8.307-5.674-10.286-10.59-2.626-6.523-5.845-12.772-8.715-19.174-3.278-7.313-6.388-14.668-10.731-21.441-.938-1.462-1.631-3.123-2.194-4.775-.883-2.592-1.337-5.242.388-8.042 2.527 3.96 4.368 8.22 8.537 10.792 2.07-4.151.062-7.016-2.776-9.816 2.894-.761 4.72.266 6.227 2.14 1.123 1.395 1.725 3.062 2.288 4.722 2.223 6.55 6.048 11.518 12.415 14.803s11.97 7.806 15.938 13.953c2.274 3.524 5.196 6.302 8.616 8.652.983.676 2.346 1.086 2.545 2.779-2.321.346-4.483-.997-7.11-.532 2.457 1.9 4.736 3.49 6.807 5.315 2.195 1.935 4.013 4.327 6.317 6.104 4.662 3.598 8.155 8.074 11.08 13.112 2.212 3.809 4.733 7.413 8.106 10.33 2.742 2.373 5.083 2.426 7.822.046 1.325-1.152 2.552-2.422 3.78-3.68 2.014-2.06 4.383-2.854 7.202-2.13 2.548.655 5.06 1.505 7.64 1.97 9.39 1.69 17.882 5.934 26.946 8.986-1.754 3.319-1.371 6.286.304 9.157.935 1.602 1.797 3.269 2.917 4.735 3.994 5.228 5.35 11.198 5.154 17.618-.184 5.972-1.514 11.783-2.562 17.636-1.425 7.958-6.447 15.196-4.294 24.354-1.19-.834-1.861-1.204-2.411-1.705-8.312-7.575-16.124-15.616-23.138-24.431-6.934-8.716-12.181-18.67-19.808-26.87-3.038-3.268-5.87-6.765-9.927-8.892"/><path fill="#fdfdfd" d="M442.951 533.23c4.06 2.127 6.89 5.625 9.927 8.892 7.627 8.2 12.874 18.154 19.81 26.87 7.012 8.815 14.825 16.856 23.136 24.43.551.502 1.221.872 2.412 1.706-2.153-9.158 2.87-16.396 4.293-24.354 1.048-5.853 2.378-11.664 2.562-17.636.197-6.42-1.16-12.39-5.153-17.618-1.12-1.466-1.983-3.133-2.918-4.735-1.674-2.871-2.058-5.838-.304-9.157-9.063-3.052-17.554-7.295-26.944-8.986-2.582-.465-5.094-1.315-7.642-1.97-2.819-.724-5.188.07-7.2 2.13-1.23 1.258-2.456 2.528-3.782 3.68-2.738 2.38-5.079 2.327-7.82-.045-3.374-2.918-5.896-6.522-8.107-10.331-2.926-5.038-6.419-9.514-11.08-13.112-2.304-1.777-4.122-4.17-6.318-6.104-2.07-1.824-4.349-3.413-6.806-5.315 2.627-.465 4.788.878 7.11.532-.199-1.693-1.563-2.103-2.546-2.78-3.42-2.35-6.34-5.127-8.615-8.651-3.969-6.147-9.573-10.668-15.938-13.952-6.368-3.286-10.193-8.253-12.415-14.804-.564-1.66-1.166-3.327-2.288-4.722-1.507-1.874-3.333-2.901-6.227-2.14 2.838 2.8 4.846 5.665 2.775 9.816-4.169-2.571-6.009-6.832-8.537-10.792-1.725 2.8-1.27 5.45-.387 8.042.562 1.652 1.255 3.313 2.193 4.775 4.344 6.774 7.453 14.128 10.732 21.44 2.87 6.403 6.09 12.652 8.714 19.175 1.98 4.916 6.591 7.31 10.287 10.59 2.29 2.033 5.227 3.313 6.962 5.985l.031.022c.978-.206 1.507.25 1.725 1.168l.032.02c.422-.072.626.1.6.533 6.076 3.556 11.37 8.203 17.082 12.264 6.516 4.633 13.007 9.302 19.51 13.955l.555.552.023.034c.35.04.574.197.547.588z"/><path fill="#91a4a4" d="M404.593 505.279c-.218-.917-.747-1.374-1.725-1.168.189.96.894 1.157 1.725 1.168M442.942 533.225c.027-.391-.197-.548-.546-.588-.014.378.152.588.546.588M442.372 532.603l-.556-.552zM405.226 505.832c.026-.432-.18-.605-.6-.532z"/><g fill="#fdfdfd"><path d="M835.854 572.19c3.27.276 6.173.52 9.257.782.634-2.915 1.037-5.875.817-8.856-.178-2.42-1.264-4.277-4.04-4.524-2.708-.241-4.314 1.1-4.792 3.623-.539 2.845-.808 5.74-1.243 8.975M852.987 573.64l8.27.784c.824-2.332.715-4.642.603-6.911-.103-2.115-1.443-3.391-3.491-3.664-2.072-.277-3.556.74-4.346 2.665-.906 2.208-.463 4.6-1.036 7.126M515.82 848.035c.037-7.252-5.229-12.076-13.196-12.09-7.29-.01-12.32 5.196-12.292 12.726.026 6.907 5.517 11.907 13.175 11.996 7.317.085 12.274-5 12.313-12.632M560.667 862.039c7.759-.076 12.91-4.925 12.883-12.13-.028-7.43-5.258-12.673-12.522-12.553-7.796.129-13.236 5.282-13.094 12.402.15 7.494 5.19 12.354 12.733 12.28M643.138 819.207l3.58 9.028c2.889-1.228 5.638-2.205 8.2-3.538 2.592-1.35 3.276-3.509 2.328-5.827-1.09-2.66-3.156-3.37-5.686-2.629-2.767.811-5.451 1.906-8.422 2.966M649.459 835.244l3.18 8.053c2.083-.863 3.991-1.545 5.8-2.43 2.036-.997 3.113-2.652 2.438-4.985-.719-2.485-2.609-3.253-4.985-2.934-2.226.3-4.16 1.455-6.434 2.296M337.056 768.235l-9.077-8.461-6.392 15.553zM699.98 800.137l-10.686 6.313 13.037 10.495c-.82-5.855-1.547-11.06-2.351-16.808M522.749 221.74c-.062-4.43-1.954-7.056-4.583-7.001-2.785.059-4.622 2.919-4.275 6.785.086.954.315 1.929.67 2.818.747 1.873 2.09 3.025 4.235 2.893 2.057-.127 3.09-1.507 3.645-3.266.286-.907.268-1.91.308-2.23M523.248 239.476c-.03-3.763-1.6-6.197-3.95-6.124-2.116.066-3.562 2.195-3.524 5.186.045 3.531 1.618 5.77 4.019 5.72 2.248-.048 3.478-1.75 3.455-4.782M565.908 220.345c-.212-3.374-1.787-5.437-4.054-5.603-2.28-.167-4.102 1.604-4.695 4.659-.183.943-.325 1.934-.244 2.882.265 3.137 1.89 5.022 4.289 4.944 2.907-.094 3.884-2.17 4.384-4.607.174-.851.245-1.723.32-2.275M563.787 237.709c-.034-.176-.13-1.143-.419-2.05-.406-1.278-1.227-2.189-2.682-2.299-1.54-.118-2.618.628-3.29 1.927-1.072 2.073-1.186 4.302-.55 6.495.425 1.473 1.438 2.495 3.172 2.487 1.67-.007 2.69-.82 3.271-2.352.423-1.114.542-2.25.498-4.209M475.164 466.986c.02.58-.025 1.171.07 1.738.621 3.725-.65 5.263-4.444 5.321-.747.012-1.494.002-2.27.002.046 1.072.865 1.187 1.377 1.534 2.683 1.821 4.653 4.082 5.241 7.415.35 1.976 1.072 3.418 3.656 3.671 2.072.202 3.7 2.02 5.255 3.535 5.022 4.892 10.826 8.548 17.453 10.875l.087-.088c-2.272-3.757-5.922-6.122-9.149-8.879-3.606-3.082-5.754-6.774-5.958-11.679 4.507 8.455 14.238 9.652 20.775 15.415 5.608-3.345 11.184-3.044 16.733-.002 1.175.644 2.494.358 3.728.606 3.364.68 4.433 2.644 2.154 5.095-3.466 3.727-.827 7.365-.535 11.008.125 1.562 1.956.9 2.986 1.11 3.446.703 3.722.982 3.158 4.424-.077.472-.405 1.234-.232 1.368 3.522 2.742 2.272 8.226 6.275 10.747 1.352.852 2.3 2.345 3.49 3.604 1.844-.5 3.704-1.058 5.591-1.505 1.997-.472 2.723.5 2.461 2.398-.053.383-.109.81-.308 1.123-2.3 3.63.024 6.432 1.716 9.286.916 1.543 4.627 1.564 6.293.21 1.547-1.257 2.798-3.01 4.954-3.193 1.093.893 1.016 2.048.906 3.076-.3 2.795.415 5.183 2.428 7.166.653.644.775 2.022 2.033 1.81 1.313-.223 2.394-1.022 2.745-2.369 1.385-5.313 4.994-9.9 4.747-15.803-.09-2.165.908-4.564 3.696-5.784.487 2.817-.148 5.607 1.327 8.41 3.443-4.627 2.354-10.996 6.652-15.57.35 2.963.85 5.463 4.23 5.413.947-1.478.827-3.652 2.91-4.592.703 1.662.021 3.933 2.105 4.582 1.554.484 1.957-1.268 3.014-2.187 2.695 2.666 2.27 6.115 2.29 9.913 1.754-2.16 2.204-4.225 2.74-6.77 5.668 2.927 4.226 9.974 8.783 13.333.346-2.242-.309-5.063 2.701-6.512.731 1.627.145 3.366.86 4.85.741 1.537 1.653 2.89 3.534 2.172 1.828-.697 1.517-2.35.921-3.744-1.89-4.426-5.164-7.795-8.807-10.77-8.292-6.772-17.7-11.223-28.093-13.926-12.287-3.195-24.087-7.928-35.899-12.533-19.272-7.515-38.494-15.17-56.886-24.712-6.568-3.407-13.026-7.027-19.533-10.55zM609.519 726.352c2.337-1.067 2.891-3.524 4.209-5.408 1.005.462.206 1.55.756 2.16 5.501-.688 9.631-9.534 4.321-16.427-.474-.616-1.079-1.13-1.602-1.71-1.808-2.005-1.727-3.448.412-5.17.905-.73 1.958-1.28 2.965-1.876 2.205-1.304 4.246-2.785 5.698-4.958.841-1.257 1.826-2.216.28-3.934-1.027-1.14-1.347-3.108.084-4.685.441-.486.758-1.183.89-1.832.893-4.375 1.758-8.752 4.256-12.462-1.108-.963-1.949.12-2.741-.229-.48-.74-.366-1.552.148-1.94 4.174-3.147 5.587-8.93 10.966-11.054 2.097-.827 3.965-2.823 2.773-6.275-2.931 5.19-9.56 2.922-12.62 8.014-.595-2.208.344-3.316 1.068-4.472 3.026-4.83 4.779-10.023 4.504-15.796-.103-2.163-.654-4.169-2.278-6.554-.224 4.186.596 8.162-3.607 11.25.778-2.647.327-4.457-.602-6.17-.861-1.589-.208-2.997.431-4.456 1.12-2.558 1.734-5.227.698-7.945-.601-1.579-1.372-2.876-3.681-2.309-2.379.584-3.398-.88-3.911-4.873-3.415-1.46-3.415-1.46-4.296-3.885-2.012 1.52-2.523 3.433-1.564 5.596 1.267 2.86 1.978 5.654-.259 8.838 3.855-.739 4.204-3.695 5.343-6.383 1.312 4.785.909 9.074-.858 13.33-1.006 2.422-1.619 4.936.646 7.4 1.728-1.73 2.843-4.842 6.15-1.798-3.51 2.352-1.11 6.435-3.184 9.466 2.585.408 2.845 2.291 1.991 3.924-4.372 8.37-3.202 17.26-2.837 26.108.115 2.79-.076 5.607-2.049 8.671l-.33-3.808c-2.495 1.177-4.721 3.141-7.663 1.692-1.354 3.08.537 4.424 2.661 5.723-4.204-.349-7.804-1.984-10.906-4.6-1.896-1.599-3.669-3.032-6.441-1.384-.305-2.457-.815-4.386-3.291-4.869-1.904-.37-3.201-.03-3.72 2.131-.397 1.648-.374 3.287-.458 4.942-.123 2.458-.835 4.715-2.629 7.215.123-5.83-.653-11.03.572-16.669 3.714-.778 8.374 1.772 13.4-1.206-8.291-1.53-15.839-.455-23.452-.528 2.172 2.001 6.202 1.103 7.303 4.71-1.115 1.502-2.736 1.625-4.243 1.462-5.26-.57-9.78 1.331-14.117 3.945-1.617.975-3.263 1.738-5.406 1.38.959-2.389 2.531-4.512 2.054-7.42-6.235 2.31-8.5-2.458-11.731-7.013.953 4.718 1.276 8.547-.351 12.268-.28.64-.336 1.343.314 1.873 1.212.986 2.318-.024 3.565-.315-.008 2.983-1.835 4.916-3.664 6.97 2.298.67 4.416.695 6.534.787 3.983.173 4.676 1.062 3.808 5.246 4.764-1.737 9.012 1.053 13.483.858.571.902-.304 1.61.017 2.478 1.505.882 2.666-.55 4.186-.748.67.745-.648 1.244-.35 2.095 2.693.227 4.958-1.223 7.333-2.169 1.322-.526 2.224-.69 3.677.175 3.544 2.111 6.939 1.037 9.989-1.712 1.543 1.38 3.336 1.861 5.311 2.163 3.332.51 7.026 4.48 7.204 7.326.173 2.782-2.263 6.16-5.456 7.562-.458-2.312-.458-2.312-1.953-3.777.08 3.686-1.86 5.008-5.235 5.212-2.863.173-4.822 2.585-5.268 6.323 3.038-3.71 7.647-2.125 10.881-4.559.913-.687 1.878.081 1.898 1.366.013.876-.072 1.754-.114 2.631zM736.793 592.559c-2.447-3.267-6.17-4.64-9.6-6.434-1.357-.71-2.777-1.296-4.582-2.13 4.44-1.216 8.82-1.054 12.197-4.013-17.799 1.095-34.72-1.895-50.669-9.54-5.607-2.688-10.67-6.504-16.602-8.601-3.892-1.375-7.833-2.493-12.084-.16 1.952 1.04 4.04 1.156 5.696 2.315 1.435 1.005 2.63 2.152 2.368 4.047-.27 1.946-1.852 2.625-3.495 3.09-.742.212-1.53.309-2.304.355-8.218.495-13.086 4.487-15.215 12.68 1.315.224 2.627.674 3.924.63 10.856-.358 21.621 1.169 32.447 1.52 16.063.519 32.166.813 48.05 3.829 3.346.636 6.44 2.222 9.88 2.403zM462.212 614.286c.473-1.344-.356-2.465-.665-3.663-.535-2.08-.826-4.029-.309-6.272.737-3.199-1.477-5.598-3.652-7.99 0 1.085.005 2.17 0 3.255-.008 1.136-.279 2.169-1.412 2.682-1.275.577-2.315.007-3.128-.925-2.034-2.334-2.63-5.16-2.63-8.165v-4.414c-2.084 1.807-2.292 4.065-2.304 6.846-2.177-2.482-2.202-4.905-1.535-7.263.704-2.491 3.582-3.095 5.72-1.41 3.03 2.388 4.025 1.997 4.71-1.923.3-1.722 1.123-2.637 3.09-2.303.171 4.618-1.755 9.722 2.99 13.42-1.236-4.594.692-8.437 2.16-12.467 1.49-4.094-1.347-7.201-5.645-6.65-1.064.137-2.143.158-3.207.295-2.852.367-4.515-.33-4.94-3.69-.422-3.318-3.165-5.258-5.974-6.792-6.633-3.623-13.978-4.728-21.288-6.007-16.407-2.871-32.488-6.797-46.977-15.475-6.444-3.858-11.785-8.997-16.369-14.907-5.443-7.017-6.593-14.758-3.878-23.215 1.217-3.791 3.135-7.41 3.275-11.498.048-1.397.541-3.154-1.214-3.88-1.775-.733-3.254.229-4.418 1.512-3.347 3.69-4.669 8.322-5.572 13.027-2.737 14.27 3.042 25.345 13.46 34.483 12.351 10.835 27.305 16.057 43.043 19.338 10.492 2.187 21.085 3.886 31.598 5.977 3.635.723 7.148 2.01 10.171 4.314 4.803 3.659 4.363 9.458-.93 12.29-4.017 2.15-5.039 5.403-3.032 9.566 1.847 3.83 4.698 6.953 7.295 10.238 2.362 2.988 3.385 6.257 3.36 10.032-.023 3.379-.273 6.853 1.658 9.93l.31-.278c-.078-.958-.196-1.915-.227-2.875-.146-4.52 2.136-6.331 6.495-5.176zM520.887 635.981c2.029 4.235 6.337 4.754 10.272 6.352.15-2.139-1.017-3.322-2.375-4.443-.824-.681-1.89-1.563-.896-2.641 1.17-1.271 2.08-.044 2.865.789 1.876 1.989 3.653 4.18 7.445 2.472-2.718-1.571-2.541-4.854-5.377-6.36 2.902-.994 4.73.39 6.53 1.827 1.63 1.299 3.29 2.163 5.377.515-.912-1.091-3.044-1.366-2.398-3.746 2.739-.028 5.283.259 6.572 3.295 2.41-.457 3.627-1.718 3.85-4.148.299-3.256 1.547-6.196 4.19-8.988-3.148-.204-5.85.051-8.383-.866a7 7 0 0 1-.217.217c.265 1.794 1.8 2.334 3.602 3.159-2.993.6-5.176.285-7.046-1.683-2.236-2.352-5.124-2.486-8.122-2.127-.048.688.56.766.872 1.087.727.754 1.885 1.406 1.286 2.66-.735 1.539-1.86.242-2.798.151-.963-.093-1.906-.403-2.87-.474-3.022-.225-3.467-.458-5.321-3.281-1.652 3.474-.2 6.041 2.106 8.423-1.352.5-2.647.587-3.264-.289-1.322-1.875-2.796-1.825-4.78-1.325-2.714.685-4.36-1.171-5.73-3.166-.65-.946-1.114-2.02-1.788-3.27-2.09 3.293 1.614 7.236-1.672 10.523-.18-3.92-.878-7.252-4.185-9.941.238 2.257 1.144 4.164-.397 6.163-2.212-4.614-7.4-6.621-9.297-12.351-1.023 6.604 4.987 10.02 4.802 15.647-1.317-.734-1.328-2.758-3.246-2.757.51 2.129 1.04 4.763-1.03 5.825-1.945.997-2.54-1.783-4.148-3.367-.74 7.503.482 13.9 5.474 19.238 2.366 2.529 5.164 4.697 6.265 8.419 2.163-3.045-.934-4.976-.904-7.389-.294-.08-.445-.208-.167-.485l.28.37c2.237 1.151 4.55 2.193 6.202 4.761.636-3.748-1.774-5.368-3.666-7.197-1.878-1.816-3.18-3.706-1.674-7.078 1.38 5.878 8.575 4.311 10.082 10.22 1.589-2.97.47-4.845-.748-7.171 4.877.031 7.48 2.544 9.357 6.234 1.69-3.345 1.03-6.033-2.142-7.983-3.404-2.092-5.942-4.708-6.634-8.807-.217-1.284-.344-2.506.659-3.984.71 2.111 2.204 3.087 3.989 3.757 1.433.538 3.58 1.094 3.06 2.881-.623 2.137-2.512-.219-3.8.274z"/><path d="M513.054 672.559c1.283 4.601 5.468 5.413 9.403 6.989-.805.776-1.993.528-2.571 1.626 2.882.895 5.413 2.333 7.259 5.043-1.276.559-2.847 0-3.868 1.368 2.695 2.237 4.559 5.084 6.467 7.887 3.696 5.43 8.636 8.944 15.354 9.848-.742 3.259-3.53 3.257-5.98 4.307 3.825 1.739 7.613 2.303 11.449 2.624 1.459.122 2.942-.009 4.392.161 1.198.141 2.875-.038 3.19 1.468.277 1.328-.978 2.234-1.986 3.022-2.284 1.786-5.065 2.414-7.77 3.422 4.677 1.052 9.357 1.224 14.064.278 2.158-.434 4.303-.916 3.805 2.742 2.59-1.028 3.179-3.123 3.95-5.103.905-2.325 2.109-4.314 5.774-4.251-3.583 3.479-1.182 9.203-6.22 11.523 2.643-.587 5.008.198 7.4.26 1.665.043 3.296-.046 4.923-.542 6.092-1.858 7.687-4.98 5.82-11.86-1.656.445-3.356.963-4.698-.817-1.315-1.743-.046-3.116.7-5.146-6.11 1.833-11.812 4.012-18.08 3.675.418-1.642 2.045-2.737 1.182-4.638-1.53-.289-2.995.466-4.466.741-2.386.445-4.668.276-6.96-.298-2.788-.699-3.275-2.009-1.6-4.375.779-1.101 1.705-2.098 2.398-2.939-2.147.31-4.767.674-7.382 1.068-12.367 1.864-18.17-3.084-18.212-15.542-.003-.946 0-1.892 0-2.98l1.719.69c-.11-2.201-.764-4.333.385-6.35.758.158.75 1.522 2.107 1.435-1.091-4.514 1.112-8.959.042-13.496-.522-2.217-1.415-4.203-3.441-6.208.06 3.153-.748 5.397-3.492 6.633-1.402.631-1.201 2.31-1.458 3.75-1.992-.288-3.924-1.664-6.066-.039 1.16 1.972.513 4.447 1.943 6.658-3.623.162-6.532-.955-9.163-2.949a12 12 0 0 1-.313.315M549.048 598.41c.03 2.61 1.139 4.693 3.12 6.341 1.689 1.404 3.039 2.997 2.977 5.43 1.039-2.797.038-5.28-.776-7.818-1.298-4.044-.095-6.792 3.816-8.92.634 1.063-.41 2.567 1.099 3.6.514-1.029.425-2.46 1.675-2.99 1.066-.453 2.102-1.038 3.586-.723-1.802 2.38-1.95 4.884-.644 7.687.515-3.857 3.312-5.473 6.223-7.105 4.283-2.403 5.19-4.019 4.134-8.809-.972-4.415-.65-8.14 3.692-10.963-4.03.07-6.817 2.994-7.174 7.088-.431 4.922-1.994 6.712-6.994 7.782-.543-2.373-3.004-2.947-4.46-4.565-1.88-2.09-.376-4.186.355-6.599-3.051 1.01-3.567 3.525-4.548 5.605-.787 1.668-1.264 3.483-2.06 5.146-.45.94-1.172 1.801-2.25 2.197-.032.088-.05.19-.106.258-.03.036-.131.014-.2.02l.31-.274v-4.322c-2.304 3.116-4.651 5.222-7.345 6.996-1.544 1.016-1.825 2.781-1.238 4.48.715 2.064.123 3.598-1.466 4.906-1.273-.023-.854-1.81-2.394-1.762-2.173 4.116-7.122 2.838-10.864 4.586 3.819-2.687 10.439-2.327 10.228-10.045-2.847 4.564-6.897 5.229-11.304 5.457-3.083.16-5.7 1.794-7.956 3.983-1.386 1.344-2.788 2.809-4.786 3.242-2.914.63-5.05-.79-6.896-2.835l.04-.036c-.573 2.957 1.092 4.864 3.228 6.373 2.619 1.851 5.386 3.49 8.215 5.301.968-1.791 1.217-4.104 3.916-4.624 1.212 2.37 2.719 4.603 6.248 4.72-.593-1.524-1.79-2.824-.746-4.617 1.66 2.363 3.808 3.72 6.995 3.35-.89-2.068-3.173-4.056-.466-6.476 2.38 3.249 6.283 2.962 9.564 4.18l-.04.043c.354-1.263-.558-1.967-1.223-2.785-.896-1.102-1.572-2.323-.941-3.747.469-1.06 1.509-1.607 2.625-1.512 1.563.134 2.669 1.013 3.259 2.546.228.593.059 1.393.877 1.814 1.624-2.286.329-4.2-.7-6.17-1.455-2.787-1.134-3.93 1.416-5.411.03-.073.046-.157.095-.213.026-.03.108-.013.165-.017z"/><path d="M519.46 566.095c-2.769 1.448-2.769 1.448-4.14 15.296-1.836-1.317-2.258-3.171-2.614-5.01-1.04-5.384-.598-10.658 1.104-15.878 1.63-4.995-.667-11.721-5.297-15.315.212 7.124-.176 13.967-1.488 20.742-1.295 6.688-2.592 13.382-3.028 20.46 1.384-.763 1.5-2.138 2.131-3.125 1.186-1.854 2.21-1.826 3.04.19 1.487 3.613 2.937 7.24 4.86 10.65.478.849 1.073 1.632 1.566 2.473 1.511 2.574 3.217 3.912 6.31 1.963 1.888-1.19 4.255-1.45 6.522-1.33 2.404.129 4.091-.955 5.525-2.723.85-1.05 1.56-2.175 2.658-3.077 1.582-1.297.182-4.384-2.547-5.915-3.63 3.743-6.488 3.753-10.208-.124-4.049-4.22-4.346-9.614-4.384-15.021-.01-1.337.413-2.678-.01-4.256M371.905 388.416c-2.209-.118-4.53.606-6.51-1.018-1.506 1.279-1.944 3.644-4.482 3.713-.283-.774-.504-1.621-.892-2.382-.552-1.084-1.426-1.842-2.683-2.054-1.423-.24-1.437 1.032-1.902 1.794-.932 1.524-2.157 2.493-4.246 2.334-.73-1.634-1.036-3.826-3.7-3.933-1.362 1.154-1.6 3.81-4.414 3.807-.536-1.792-.802-4.07-3.74-3.9-.737 1.63-.427 4.01-2.388 4.956-1.775.857-3.127-2.063-5.274-.751 3.43 3.36 2.246 7.167.736 10.822 1.153 1.307 3.183 1.202 3.605 2.869-.082 1.268-1.329 1.064-1.912 1.839 3.775 2.435 5.567 6.4 7.746 10.02 4.875-2.17 5.256-2.03 7.893 2.783 1.313 2.395 3.145 4.214 5.756 5.15 1.144.412 2.266.507 3.303-.371-3.176-3.256-3.09-3.251-2.74-8.445.337-5.025-3.21-7.915-6.403-10.928-1.384-1.306-2.649-1.988-4.83-.828-3.254 1.73-7.1-.108-7.113-2.92-.01-2.367 1.21-3.808 3.514-4.385 3.772-.944 7.35-.04 10.883 1.14 2.138.713 4.248 1.41 6.555 1.285 1.951-.106 3.756-.7 4.93-2.211 2.24-2.887 4.764-5.412 7.826-7.41.258-.168.301-.667.444-1.012zM799.135 574.59c-.266 8.148-2.096 11.353-7.422 13.1-.39-3.26-4.246-3.674-5.42-7.377-4.174 10.483-11.216 13.406-21.027 9.28-.227 4.738 1.212 5.482 12.025 6.182-3.527 1.509-6.636 1.01-9.64.598-4.849-.665-9.686-1.118-14.582-.84-2.147.123-4.133.63-6.465 2.155 8.602.71 16.046 3.893 23.937 5.044 8.855 1.292 16.743.025 22.168-8.165 1.281-1.935 2.966-3.633 4.62-5.286 4.363-4.364 5.035-8.717 1.806-14.69M490.41 510.993c-1.214-3.025-1.851-6.453-6.214-6.762-1.337-.095-1.96-1.8-2.657-2.964-1.76-2.929-3.68-5.483-7.59-5.64-1.541-.062-2.121-1.5-2.365-2.957-.4-2.388-1.417-4.48-2.422-6.679-1.533-3.355-4.78-6.1-4.59-10.252.048-1.035-.677-1.76-1.834-2.303-1.201 1.972-1.34 5.203-5.22 4.034 1.606 5.47 1.784 10.52-.648 15.647 2.17.136 4.264-1.269 6.006.135 1.508 1.215 2.88 2.647 4.107 4.152 4.673 5.737 11.129 8.772 17.63 11.701 1.825.822 3.55 2.136 5.744 1.941zM622.107 606.557c3.13.35 5.317-1.41 7.531-3.197.401 3.566-.87 6.14-3.898 8.056-2.159 1.366-2.168 2.445.011 3.69.937.535 1.955.839 3.053.94 5.148.48 6.804 2.656 6.111 7.94-.087.67-.126 1.347-.194 2.094 3.36-1.74 5.358-6.21 4.388-9.823a14.7 14.7 0 0 0-1.438-3.51c-4.876-8.436-5.8-16.86.226-25.498-3.079-.828-6.169-1.314-7.243-4.768-.945-3.038-.1-5.95.737-9.501-4.286 4.266-5.759 9.063-3.938 13.798 3.048 7.926.768 13.85-5.112 19.099-.12.108-.124.345-.234.68M732.98 595.84c-3.686-2.404-7.887-2.975-12.004-3.92-6.346-1.458-12.388.471-18.502 1.384-8.594 1.284-17.242 1.702-25.894 2.104-4.167.193-8.312.404-12.39 1.444 5.033.703 10.095.387 15.134.794 6.219.503 12.407 1.216 18.572 2.076 6.968.973 13.76.452 20.578-1.128 4.772-1.105 9.459-2.755 14.507-2.755M537.888 644.791c.374 1.503 1.221 2.883 1.145 4.505-.24 5.146 2.546 8.216 7.03 9.998 2.632 1.045 5.21 2.094 6.992 4.93.935-3.394-.298-5.896-1.729-8.339-1.814-3.094-1.664-4.587.85-7.305 1.103.86 1.502 2.502 3.115 2.903.607-1.02-.27-3.337 1.79-2.956 2.284.422 1.755 2.87 2.248 4.684 1.305-1.924.98-3.816.46-5.727-.564-2.07-1.204-4.125-1.639-6.22-.28-1.346.116-2.635 1.702-2.89 1.513-.243 2.44.67 2.665 2.096.213 1.342.2 2.721.313 4.538 1.44-2.579 1.081-4.927.588-7.209a17.8 17.8 0 0 0-1.567-4.4c-2.034-3.91-.955-7.775-.15-11.725-3.286 3.507-4.3 7.847-4.298 12.43.001 3.77-1.272 6.824-3.999 9.412-1.23-.442-.697-2.349-2.422-2.467-.51.95.247 2.45-1.096 3.416-.448-1.312-.532-2.87-2.189-3.494-.412 4.401-4.36 8.084-1.84 13.34-3.136-1.065-3.319-3.555-4.3-5.394-.898-1.682-1.21-3.782-3.539-4.249zM623.52 579.996c-1.245-4.671 3.318-7.123 4.29-11.462-5.61.886-5.473-4.518-8.25-6.726 4.408-8.963 2.673-15.427-4.437-16.144.243 2.318 2.972 4.24 1.213 7.09-3.175-3.12-6.363-5.79-11.338-6.006 2.36 2.387 4.596 4.347 6.25 6.815 2.498 3.726 3.697 7.375.604 11.548-1.987 2.682-2.93 5.88-1.586 10.192.49-2.522 1.12-4.072 2.48-5.224 1.342-1.135 2.897-1.536 4.609-1.518 1.852.02 2.839.649 2.682 2.795-.241 3.266.192 6.41 3.483 8.64M530.792 525.676c-2.698 2.153-5.138 5.067-8.86 2.82-3.554-2.143-2.236-5.321-1.057-8.281-4.649-.674-6.478.49-7.366 4.545-.455 2.077-.62 4.153-3.446 4.758-1.37.294-1.565 2.127-1.465 3.537.233 3.3 1.48 6.295 3.35 8.944 1.681 2.38 4.333 1.826 5.352-.958.301-.823.478-1.691.741-2.53.67-2.133 1.895-3.223 4.353-2.834 3.373.533 6.422-.358 8.798-2.936 2.046-2.22 1.931-4.675-.4-7.065M642.87 600.39c16.455-5.178 33.422-7.063 50.449-8.876-4.845-.8-9.585-1.238-14.32-1.764-8.72-.97-17.457-1.722-26.26-1.375-2.17.085-3.477.388-4.1 2.906-.856 3.458-3.662 5.867-5.77 9.11M432.566 471.808c-.154.989-1.037 1.005-1.532 1.73 3.476 4.41 5.025 9.562 6.28 15.09 1.419 6.256 6.356 10.45 11.24 14.358 1.535-1.32.031-2.444.593-4.021 3.659 3.194 6.091 8.43 12.322 6.86-6.307-4.331-8.951-11.61-14.021-16.995-5.073-5.388-9.765-11.135-14.882-17.022M763.01 583.885c3.498.029 4.276-.611 4.376-4.11.052-1.816 1-2.515 2.52-3.077 3.844-1.42 4.217-2.983 1.386-5.742-1.342-1.307-1.298-4.055-4.207-3.78-3.68.346-7.073 1.495-10.008 3.632-2.612 1.903-3.186 5.645-1.706 8.433 1.35 2.542 4.77 4.62 7.64 4.644M493.916 394.263c3.373-.217 6.295-1.696 9.805-3.24-3.213-1.126-6.55-1.174-7.137-4.95-3.315.574-6.466 1.084-8.422-2.29-6.095 1.253-19.393 11.03-23.725 17.639 1.827-.94 3.247-1.688 4.684-2.4.522-.257 1.116-.663 1.628-.6 5.673.703 9.39-3.505 13.982-5.497 1.699-.737 3.359-1.564 5.057-2.304 1.186-.518 2.328-.875 3.523.203 1.173 1.056 1.022 2.183.6 3.435zM520.126 497.058c-3.44-.341-6.018-.496-8.55.161-5.075 1.315-7.714 7.996-5.044 13.458 1.484 3.036 3.548 5.792 4.532 9.996 2.848-3.999 6.738-4.82 10.18-6.506 2.515-1.234 2.79-3.696 2.401-6.524-1.88.847-3.165 2.257-4.93 2.884-2.446.867-4.406.426-6.027-1.55-1.588-1.937-1.378-3.925-.159-5.971 1.596-2.678 4.134-4.224 7.597-5.948"/><path d="M614.186 606.641c11.541-7.81 12.907-17.595 2.972-29.452.41 2.277.914 4.081 1.02 5.908.13 2.27.013 4.667-2.828 5.391-3.62.923-5.587-1.108-4.71-4.747l.043.04c-2.256-.237-2.39 1.658-2.863 3.027-.43 1.245-.51 2.613-.764 4.038-2.519-.682-2.302-2.57-2.355-4.323-2.38 1.607-2.767 3.302-1.557 6.896 2.082-1.252 4.185-1.153 6.29-.044.784.414 1.626.845 2.317-.176 1.107-1.638 2.551-2.062 4.287-1.102 1.83 1.012 2.505 2.66 2.283 4.688-.284 2.585-1.405 4.846-2.763 7.017-.557.891-1.426 1.64-1.384 2.827zM538.983 539.301c-7.6.588-10.307 4.072-8.968 11.091.055.287.148.568.194.856.882 5.421.88 5.427 6.518 5.538 1.367.027 2.736.06 4.1 0 5.196-.23 7.033-2.25 6.936-7.852-3.234 1.88-6.68 4.382-9.9.827-3.103-3.428-.804-6.932 1.12-10.46M568.084 657.168c-1 7.8 1.9 13.686 8.333 16.406-.427-1.246-.789-2.288-1.14-3.334-.448-1.328.183-2.256 1.167-3.022.867-.675 1.442-.524 2.446.182 1.248.877 3.003.5 4.527.05 1.116-.33 2.246-.636 3.327-1.06 1.136-.445 3.354.172 3.053-1.794-.292-1.907-1.134-4.134-3.81-4.089-2.527.043-5.086.042-7.568.447-6.64 1.084-6.625 1.166-10.335-3.787M617.104 657.139c-2.086 4.213-4.843 5.3-8.73 4.093-2.503-.778-5.192-.77-7.831-.754-3.393.02-4.666 1.273-5.034 5.149 2.552.7 5.132 1.475 7.749 2.089.818.192 1.93.25 2.568-.16 1.136-.73 1.982-1.492 3.192-.155 1.135 1.254 1.245 2.537.597 4.039-.246.569-.895 1.102-.458 1.863 5.338-1.74 9.058-8.825 7.947-16.164M555.24 555.478c-5.62 1.256-6.469 6.756-10.989 9.01 6.134 3 11.928 4.453 17.994 3.122 4.88-1.07 6.86-5.576 4.523-9.915-1.756 3.397-3.578 6.782-8.104 5.27-3.316-1.108-4.269-3.724-3.424-7.487M586.25 545.11c-.463 3.296-1.24 6.467-2.917 9.4-1.365 2.392-.926 4.814.748 6.827 3.039 3.655 2.889 7.396.89 11.41-.64 1.286-1.285 2.6-1.366 4.13-.127 2.4.839 3.835 3.735 4.45-2.273-3.138-1.18-5.084 1.278-7.114 3.542-2.927 4.146-6.52 2.049-10.452-1.133-2.126-1.483-4.172-.461-6.516-1.696-.034-1.65 1.604-2.721 2.265-.91-1.211-1.926-2.485-1.138-3.912 1.95-3.534 1.079-6.961-.097-10.487M539.406 675.694c-1.989 4.372-3.575 8.842-3.268 13.72.316 5.024 5.665 8.355 10.194 6.423 2.201-.939 3.344-2.645 3.34-5.026-.004-2.334-1.28-3.26-3.614-2.73-.949.216-1.882.506-2.836.685-.905.171-1.724 0-2.369-.775-.769-.925-.18-1.607.307-2.344.477-.72 1.13-1.415.463-2.37-1.579-2.265-1.574-4.956-2.217-7.583M736.081 587.314c5.786 3.947 11.54 7.11 19.045 2.378-2.502-1.055-4.63-1.17-5.647-3.05-.921-1.703-1.082-3.517-.49-5.622-2.812-.47-4.634 1.188-6.509 2.612-1.944 1.476-3.88 2.941-6.399 3.682M631.035 693.5c-2.796-1.794-3.1.256-3.763 1.604-.716 1.454-.481 3.328-2.013 4.423 4.106 2.011 5.985 1.357 7.748-2.773 2.663-6.236 3.134-12.53.273-19.385-1.122 2.074-2.052 3.765-2.951 5.473-.277.526-.442 1.124-.06 1.664 1.918 2.71.71 5.592.766 8.994M593.042 629.03c.412.302.583.401.722.534 2.061 1.984 5.243 2.52 6.436 1.08 1.047-1.266.23-5.758-1.27-7.088-.87-.772-1.82-.615-2.72-.192-2.035.954-4.052 1.061-6.233.456-1.342-.372-3.19-.846-3.763 1.028-.594 1.95-.669 4.163.9 5.793 1.378 1.431 2.866.53 4.204-.352.557-.367 1.08-.786 1.724-1.26M784.509 575.183c-4.653-.243-8.68 1.06-11.781 4.622-.693.795-1.61 1.666-1.082 2.802.449.966 1.62.946 2.569 1.042 6.01.61 10.284-1.627 11.97-6.085.702-1.853.163-2.573-1.676-2.38M513.446 657.862c-.774.056-.39 1.085-1.058 1.246-.74-1.057-.925-2.523-2.248-3.25-1.065 11.466 1.19 15.558 8.736 15.624l-3.719-3.091 2.755-.188c.394-.443-3.608-9.507-4.466-10.341M495.093 472.582c4.32 4.863 10.271 6.65 15.807 9.997-.085-1.622-.984-2.114-1.595-2.73-3.506-3.531-6.303-7.426-6.677-12.608-.054-.747-.244-1.351-1.124-1.418-.933-.07-1.453.424-1.675 1.28-.072.281-.082.578-.128.866-.653 4.12-.653 4.12-4.608 4.613M592.695 609.723c-3.01 1.95-6.22 2.424-9.083 4.017.451 1.511 1.428 2.34 2.61 2.688 4.517 1.332 9.106 1.958 13.762.695.808-.22 1.908-.41 1.806-1.542-.114-1.282-1.267-1.3-2.239-1.296-.769.005-1.535.22-2.306.246-2.868.097-4.064-1.642-4.55-4.808M788.406 572.035c1.031-1.485 1.988-3.106.755-4.803-1.2-1.654-2.976-.94-4.585-.58-3.525.788-6.788 2.117-10.247 4.686 4.808 2.096 9.11 2.185 13.52 1.254l-.029.034c-.003-.417.243-.585.621-.622zM544.048 588.31c2.38-1.595 3.344-4.028 5.253-5.815-1.945-2.536-3.374-5.129-4.146-8.07-.35-1.33-1.434-2.348-2.777-2.086-1.583.31-.985 1.902-.96 2.957.069 2.738 1.093 5.295 1.702 7.933.366 1.59.592 3.21.928 5.081"/><path d="M549.287 536.72c-3.666 1.74-6.261 3.759-8.39 6.333-1.172 1.419-2.036 3.079-.101 4.577 1.98 1.533 3.503.423 4.696-1.183 2.007-2.705 2.93-5.854 3.795-9.727M564.297 546.563c-3.034 2.904-4.97 5.728-6.132 9.067-.564 1.623-.524 3.227 1.317 3.927 2.032.773 3.409-.324 4.115-2.174 1.252-3.283.749-6.71.7-10.82M527.766 499.965c-4.156.562-7.572 1.23-10.644 2.997-1.245.716-2.69 1.644-1.764 3.459.922 1.804 2.468 2.044 4.222 1.194 3.344-1.622 5.48-4.472 8.186-7.65M505.729 533.815c-.097-1.347-.518-2.769.307-3.989 2.13-3.152.618-5.822-.953-8.8-1.442 1.838-2.18 3.924-4.076 5.09-.694.427-.376 1.237-.143 1.88.905 2.496 2.023 4.84 4.587 6.09q.136-.138.278-.27M774.463 568.896c4.498-3.47 9.477-4.097 14.53-4.647-1.498-2.727-3.613-3.324-7.853-2.397-4.693 1.026-6.348 2.603-6.677 7.044M645.458 659.456c-1.627 4.717-4.37 8.661-8.702 12.232 3.971.93 7.4 1.985 9.34 5.653-.044-3.133-.735-4.472-3.482-7.042 2.541-5.408 2.953-6.895 2.844-10.843M532.51 516.657c-3.3 1.13-6.218 2.779-8.686 5.146-.946.907-1.85 2.029-.745 3.284.99 1.125 2.357.82 3.465.065 3.002-2.05 4.573-5.171 5.967-8.495M624.223 715.83c2.34-.989 2.881-3.088 2.841-5.242-.042-2.323.011-4.35 2.643-5.269.375-.13.597-.697 1.241-1.498-2.783.357-5.089.153-7.354-.414l-.08.083c.76 4.05.765 8.136.6 12.231zM794.307 572.627c-1.966-.207-3.887-.86-5.9-.591l.034-.032c.013.427-.218.61-.621.623l.029-.034c.192.429.289 1.143.59 1.242 2.72.9 3.565 3.02 3.647 5.576 1.41.462 2.768.71 3.57-.521.837-1.283.602-2.776-.112-4.147-.385-.74-1.441-1.082-1.27-2.15z"/><path d="M794.274 572.594c1.633-.015 3.419.292 4.09-1.84.843-2.675-1.433-3.395-2.916-4.61l.032.03c-1.456.428-3.25-.66-4.69 1.1 2.067 1.283 3.945 2.63 3.517 5.353zM520.38 651.555c.173 3.303-.005 5.85-.518 8.407-.563 2.81.776 4.376 4.916 5.53-3.848-4.137-.76-9.42-4.398-13.937M567.814 682.332c.557-3.918.7-3.987 7.429-3.583-1.506-1.922 1.17-.752 1.15-1.578-4.342-.094-8.38-1.075-11.804-3.926-.109.227-.208.35-.182.388 1.652 2.43 3.668 4.723 2.89 8.042-.037.157.353.414.545.625zM618.305 673.539c-3.297 2.17-6.816 3.67-10.929 3.582.641.453.54 1.03.392 1.617 6.62-.395 6.737-.343 7.257 3.233 1.153-1.793 1.153-1.793.016-4.334 1.327-1.166 3.194-1.951 3.222-4.142z"/><path d="M795.448 566.144c1.28-.196 2.983.147 3.19-1.729.188-1.698-1.057-2.598-2.496-3.148-1.423-.545-2.845-1.209-4.806-.684 1.453 1.984 4.208 2.835 4.143 5.592zM579.839 649.058c-1.22 1.107-1.567 2.426-1.975 3.688-.286.884-.14 1.732.775 2.25.637.36 1.304.34 1.938.02.925-.465.754-1.344.504-2.027-.454-1.24.042-2.758-1.242-3.93M605.32 648.877c-1.263 2.164-1.39 3.29-.771 6.08 1.151.483 2.058-.14 2.292-1.066.469-1.855-.344-3.462-1.521-5.014M604.822 620.49c-4.123 1.05-2.344 3.695-2.19 6.496 2.144-2.056 1.896-4.271 2.19-6.496M580.762 621.425c.104 2.254.828 4.023 2.164 5.565-.025-2.041 2.287-4.852-2.164-5.565M599.805 653.567c.27 1.171-.933 2.588.544 3.422.397.223 1.084.085 1.143-.486.133-1.289-.364-2.34-1.687-2.936M584.783 653.336c-1.801 1.068-1.72 2.253-2.166 3.873 2.969-.372 1.77-2.206 2.166-3.873M589.774 657.446c2.252-1.436 1.321-2.547.716-3.8-1.07 1.066-.922 2.145-.716 3.8M587.388 653.6c-.839 1.306-1.039 2.298-.338 3.419 1.363-1.056 1.363-1.056.338-3.418M455.664 622.581c.122.27.062.865.527.614.326-.176.072-.634-.22-.89zM506.801 605.483l-.153-.845c-.402.442-.256.671.193.81zM734.705 596.353c-.163-.054-.317-.125-.479-.148-.053-.009-.125.107-.188.167.157.056.31.13.471.156.052.008.124-.108.196-.176M430.42 472.545l-.162-.05.017.136zM475.125 467.028c-.028-.072-.043-.155-.089-.213-.024-.031-.1-.021-.153-.03l.281.202zM623.595 703.408l-.34-.245.26.327c-.002 0 .08-.082.08-.082M463.417 401.907c-.082.036-.174.06-.241.115-.033.027-.02.112-.028.17l.232-.326zM463.381 401.866l.369-.217c-.065.004-.155-.017-.19.017-.064.063-.097.159-.143.24zM493.912 394.259c-.088.029-.19.04-.26.093-.038.03-.023.13-.032.2l.296-.29zM584.648 707.222l-.223-.059.027.18zM371.867 388.38c.068-.027.145-.043.2-.086.028-.024.017-.097.024-.147l-.186.269zM624.113 715.721l-.21.342q.159-.119.32-.234zM609.431 726.264l-.34.275c.332.368.34 0 .427-.187zM614.174 606.629l-.395.205c.351.391.326-.013.407-.193zM548.558 620.039c-.11-.103-.293-.31-.318-.293-.318.225-.122.374.103.509a7 7 0 0 0 .215-.216M543.796 613.655l.131.254-.172-.211zM462.241 614.252c.045.083.077.18.141.242.029.03.123-.006.187-.013l-.356-.196zM610.64 583.741l.254-.132-.211.172zM513.367 672.244c-.13-.118-.343-.358-.378-.334-.35.234-.147.448.067.648q.157-.153.31-.314M736.803 592.55l.161.412c.465-.356-.035-.303-.17-.404zM618.263 673.495l.401-.184c-.413-.386-.263.115-.359.228zM457.263 595.363l.042-.167-.12.014zM505.45 534.086c.175.201.363.382.575.068.02-.03-.192-.222-.297-.339a12 12 0 0 0-.277.271M538.019 644.669c-.094-.112-.262-.328-.272-.321-.406.284-.018.327.142.444zM490.357 511.046l.239.367c.408-.347-.027-.322-.185-.42zM520.95 635.923l-.292-.304.23.362zM616.379 628.026l-.18-.04.018.125zM567.843 682.3l.245.235c-.02-.049-.027-.119-.063-.141-.06-.037-.14-.043-.211-.062zM501.502 501.077l.356.246-.27-.333zM511.746 482.433l-.08.195.21-.03z"/></g><path fill="#91a4a4" d="m506.264 650.016-.28-.37c-.278.278-.127.406.166.486zM550.824 590.799l-.311.272c.069-.004.17.018.2-.018.057-.068.074-.17.107-.258zM549.048 598.41l.28-.208c-.057.004-.139-.013-.165.017-.049.056-.065.14-.095.213zM787.82 572.626c.402-.013.633-.196.621-.622-.378.037-.624.205-.62.622"/></g></svg>