<svg xmlns="http://www.w3.org/2000/svg" width="825.191" height="933.333" viewBox="0 0 825.191 933.333"><clipPath id="a"><path d="M0 1080h1080V0H0z"/></clipPath><g clip-path="url(#a)" transform="matrix(1.33333 0 0 -1.33333 -307.404 1186.667)"><path fill="#038c40" d="M849.414 649.04V890H230.587V649.04S220.746 290.068 540 190c319.255 100.068 309.413 459.04 309.413 459.04"/><g fill="#fff200"><path d="M344.675 696.475c-8.52 0-13.783-6.796-17.03-12.8-2.11-3.905-5.168-8.828-10.271-11.402l-19.881-10.024a4.78 4.78 0 0 0-3.572-.3c-5.853 1.814-13.746 9.15-16.813 2.564-3.963.338-7.514-2.143-6.821-6.854 2.154 2.107 6.124 2.553 12.47 1.048l-2.94.014c-5.993 0-7.763-4.437-6.303-7.116 1.344 1.545 3.955 2.15 8.999 2.15l14.893.012 49.125 16.314c6.504 2.17 10.094 8.504 10.094 14.593 0 6.148-3.74 11.801-11.95 11.801"/><path d="M332.292 748.604c3.934 2.636 9.513 4.099 14.683 4.158-3.459-11.722-12.37-7.961-14.684-4.158m30.74-.028c3.391 0 11.522-.045 11.522-.045-6.694 8.097-14.04 12.568-24.519 12.224l2.025 5.332c-26.967.612-20.035-20.222-33.389-20.215l-4.842.004c-1.744-6.043.623-11.776 6.931-13.444.4 4.543 4.863 6.906 9.166 6.906 4.842 0 8.46-1.936 8.46-5.854 0-4.777-4.94-7.406-9.943-7.406-2.268 0-4.543.563-6.363 1.743-1.968-3.646-.493-10.001 2.733-12.585 3.387 7.819 26.671-.78 31.241 22.758.957-1.804 1.508-3.813 1.508-5.588 0-13.331-25.983-21.005-29.889-36.649 4.84 5.145 10.534 7.676 17.012 7.676 12.246 0 20.664-9.319 18.59-22.833 4.25 4.893 6.761 15.547 5.148 20.987l10.694-16.611c3.73 12.197-1.944 32.961-7.227 41.298h9.257c-3.264 10.047-11.576 19.37-18.115 22.302M462.902 714.475h15.217c8.431 0 13.14 5.634 13.14 12.584s-4.339 12.584-13.14 12.584l-75.05-.017c-4.69 0-7.823 3.502-7.823 7.82 0 4.32 3.132 7.684 7.823 7.684h12.623c21.977 0 33.052-4.11 53.145-4.11 16.283 0 19.687 4.849 22.508 9.708h-88.692c-8.803 0-13.674-5.96-13.674-13.281s4.871-13.395 13.674-13.395l75.327.009c4.978 0 7.28-3.135 7.28-7.002s-2.302-7.001-7.28-7.001l-95.17-.01c3.207-9.19 5.266-21.328 4.136-31.185l36.22 9.35c-3.845 4.968-5.894 9.21-6.463 13.695l14.995-15.208c7.163-7.264 17.574-14.364 26.927-14.364 8.562 0 12.853 3.378 17.78 8.565l4.528-19.775c1.454-6.347-1.467-9.58-9.039-9.58-5.309 0-12.374 4.906-17.284 4.906-1.54 0-2.847-.68-3.755-2.7-4.298.269-7.56-2.46-6.769-6.456 2.153 1.985 6.123 2.41 12.471.994h-2.94c-5.994 0-7.765-4.171-6.304-6.693 1.593 1.726 5.217 2.024 8.998 2.024l31.47.012c4.85 14.167 4.943 36.016-1.104 48.47-9.562 0-22.31 5.785-23.775 12.372"/><path d="m426.64 691.942-20.733-5.353 9.263-17.821c2.449-4.711-.492-7.221-5.793-7.221-5.805 0-12.412 4.905-16.68 4.905-1.541 0-2.847-.68-3.755-2.7-4.298.269-7.561-2.46-6.77-6.456 2.155 1.985 6.124 2.41 12.472.994h-2.94c-5.994 0-7.765-4.171-6.304-6.692 1.593 1.725 5.217 2.023 8.999 2.023l31.469.012c2.02 3.12 3.756 6.703 4.157 10.552-11.277 8.63-9.87 16.977-3.384 27.757M288.25 725.645l3.67-12.285c.263-.884.926-1.624 1.81-1.888.45-.134 1.017-.223 1.736-.223l32.964-.204c-4.214-4.132-7.33-10.007-8.184-15.725l-32.07 9.502a4.06 4.06 0 0 0-2.044 1.385c-9.067 11.577-17.212 3.729-17.212 3.729.011 3.74 3.797 7.877 12.675 7.224-4.322 3.476-9.52 5.782-13.219 4.708 3.225 3.225 7.308 5.502 15.704-.231-2.065 10.637-7.435 10.116-7.435 10.116s8.672 3.613 11.605-6.108M467.343 800.978h-8.516v23.69a4.26 4.26 0 0 0 8.517 0zm-32.611 0h-8.515l-.001 23.69a4.26 4.26 0 0 0 8.517 0zm-98.54 0h-8.516l-.001 23.69a4.258 4.258 0 1 0 8.517 0zm-32.611 0h-8.516l-.001 23.69a4.259 4.259 0 1 0 8.518 0zm174.889 51.669v-6.024H465.5v6.024h-12.968v-6.024h-12.97v6.024h-12.967v-6.024h-12.97v6.024h-12.968v-6.024h-12.97v6.024H374.72v-6.024h-12.97v6.024h-12.968v-6.024h-12.97v6.024h-12.968v-6.024h-12.97v6.024h-12.967v-6.024h-12.968v6.024h-12.97v-69.491h89.25v11.099c0 11.588 9.395 20.984 20.985 20.984s20.985-9.396 20.985-20.984v-11.1h89.249v69.492zM801.654 798.902c-5.88 4.46-14.965 10.571-26.282 14.748-7.56-5.558-13.375-14.284-18.052-26.935 13.227 5.07 29.427 9.535 44.333 12.187M638.397 693.432h-59.433l-71.376-71.375h5.787c56.816 0 96.76 22.73 125.022 71.375"/><path d="M707.09 695.362c-7.246-1.68-15.574-1.93-26.142-1.93h-30.212c-30.495-56.033-74.919-82.151-137.362-82.151h-16.56l-51.407-51.406h54.072c86.832 0 164.924 34.003 207.61 135.487M434.631 549.099 324.965 439.433l27.32-.267c30.697 0 43.786 6.823 68.47 31.506l78.718 78.427z"/><path d="M576.333 411.997c12.2-6.563 18.23-12.959 17.46-25.379-4.662 5.435-10.327 9.74-16.366 12.988l-31.988 17.206-5.251 14.627zm136.43 329.754c-21.155 0-36.508 15.851-36.508 37.69 0 23.451 19.978 45.475 46.739 45.475 9.89 0 16.417-2.449 21.162-6.918-4.757-14.85-20.401-18.268-30.588-5.108-8.933-2.406-26.537-12.708-26.537-33.449 0-15.847 10.582-26.914 25.732-26.914 18.372 0 26.292 12.937 32.53 32.363 3.438 10.708 8.963 24.304 19.754 34.156-9.915 18.263-26.681 23.535-42.28 23.535-28.158 0-51.474-15.109-67.596-53.363-10.195-24.192-20.575-40.156-38.266-57.845l-27.165-27.166h94.226c20.393 0 29.849 3.467 40.64 9.556-45.282-137.77-145.255-161.205-209.517-164.288l-48.67-48.669a518 518 0 0 1 37.809-.422l45.098-125.828c4.472-12.424 4.776-18.13 2.66-22.747-4.362 2.142-7.77 5.776-12.423 18.757l-15.635 43.623-25.82-26.18c-6.232-6.34-10.417-12.678-12.82-18.048-4.944 6.642-1.478 18.36 7.579 27.536l27.17 27.547-9.488 26.473c-45.036-12.805-78.02-54.244-78.02-103.386 0-59.355 48.117-107.472 107.472-107.472s107.472 48.117 107.472 107.472c0 47.99-31.458 88.627-74.875 102.432l-15.66 43.624a387 387 0 0 0-10.684-1.474l13.985-39.02a108 108 0 0 1-20.238 1.91c-2.817 0-5.603-.129-8.365-.343l-16.355 45.577c185.347 9.187 257.875 129.947 258.559 273.207-6.438 1.187-12.627 2.965-18.923 5.613-6.368-19.064-16.59-37.906-42.154-37.906"/></g></g></svg>