<svg xmlns="http://www.w3.org/2000/svg" width="1152.271" height="960.425" viewBox="0 0 1152.271 960.425"><clipPath id="a"><path d="M0 1080h1080V0H0z"/></clipPath><g clip-path="url(#a)" transform="matrix(1.33333 0 0 -1.33333 -143.775 1198.707)"><path fill="#fff" d="M537.113 237.137c-247.982 0-242.552 279.985-242.552 279.985v285.994h490.742V517.122s5.43-279.985-242.552-279.985z"/><path fill="none" stroke="#0a1941" stroke-miterlimit="10" stroke-width="11.288" d="M537.113 237.137c-247.982 0-242.552 279.985-242.552 279.985v285.994h490.742V517.122s5.43-279.985-242.552-279.985z"/><path fill="#0a6f9c" d="M521.466 597.919c14.842 14.84 24.022 35.344 24.022 57.99s-9.18 43.148-24.019 57.988c-14.84 14.842-35.345 24.022-57.988 24.022-22.646 0-43.149-9.18-57.992-24.022-14.84-14.84-24.017-35.342-24.017-57.988s9.176-43.15 24.017-57.99c14.843-14.841 35.346-24.023 57.992-24.023 22.643 0 43.148 9.182 57.985 24.023m27.085 57.99c0-23.493-9.519-44.764-24.915-60.16-15.396-15.394-36.66-24.918-60.155-24.918-23.49 0-44.762 9.524-60.158 24.92-15.395 15.394-24.917 36.665-24.917 60.158s9.522 44.76 24.917 60.16c15.396 15.39 36.668 24.914 60.158 24.914 23.495 0 44.76-9.523 60.155-24.914 15.396-15.398 24.915-36.666 24.915-60.16"/><path fill="#fff" fill-rule="evenodd" d="M772.927 586.177c-1.821 7.364-4.313 14.87-10.177 20.12-7.214 6.467-16.185 10.185-24.452 15-8.424 6.29-17.026 16.71-23.104 20.59-6.07 3.883-16.371 6.247-27.347 4.893.172 3.546 5.403 17.221-11.061 22.761-1.37 1.591-12.475 14.471-17.203 19.957 6.286 4.773 25.706 19.533 27.924 21.214 9.517.267 17.197 8.052 17.197 17.638.002 9.755-7.937 17.685-17.692 17.685-9.444.002-17.116-7.464-17.592-16.798l-26.463-20.452-16.144 18.72c.046.486.095.966.095 1.443 0 9.753-7.932 17.69-17.69 17.69-9.752 0-17.688-7.937-17.688-17.69 0-9.114 6.96-16.55 15.829-17.498 1.99-2.387 11.008-13.164 15.33-18.334-6.856-5.3-80.88-62.51-98.088-75.812l-1.992 3.067c-2.1 4.5-5.062 8.448-8.283 11.13-3.13 4.798-6.194 8.88-8.194 13.558-.603 1.41-.867 3.054-.486 4.42.333 1.178 1.643 1.966 2.787 1.741 5.293-1.037 10.734-1.11 15.764.127 1.34.33 1.677 2.42 1.3 3.707a13.24 13.24 0 0 1-5.887 7.612c-4.221 2.542-9.278 2.963-13.784 5.49-2.28.078-4.8.551-7.37 1.211-9.504 7.85-21.108 12.588-33.234 14.492l-24.061-1.605c-2.4 1.92-5.158 3.81-8.198 4.837-.696.235-4.04-1.326-4.184-1.925-1.086-4.534-1.12-6.192-.594-11.867.079-.852 2.215-5.11.898-6.49-8.245-8.647-18.232-15.489-26.054-24.632-7.671-8.956-6.892-22.08 1.152-30.222 5.33-1.848 10.735-2.446 15.827-1.858 5.75-1.322 11.092-3.098 16.238-5.115.112-5.02-.061-9.617-.995-14.082-1.051-5.046-1.277-10.258-.071-15.758-.752-2.652-1.82-5.62-3.155-8.667.22-2.286-.075-4.743-.36-7.173-.235-2.034-1.011-4.03-2.625-5.313-3.527-2.803-7.891-.774-10.671 1.885-4.004 3.833-9.562 4.4-14.737 4.341-9.963-.112-19-4.85-27.082-10.386-8.631-5.914-15.641-14.235-26.042-18.18-1.446-1.746-2.492-4.299-2.762-7.44-4.401-6.107-10.932-10.569-13.796-18.58-16.331-10.408-19.2-18.086.445-22.756 6.082-6.925 11.853 4.477 20.487 9.097 6.673 3.568 6.612 5.89 14.36 10.772 6.082 3.832 9.919 4.862 14.599 6.867l-59.917-48.112-.306-1.96c-.137-.863-.643-5.429 2.837-10.346 2.943-4.153 7.145-5.625 9.852-5.62l1.74.003 78.183 60.084c1.028-5.744 3.06-10.678 6.883-12.729 1.548-.828 2.27-3.938.303-4.396-10.612-2.469-21.534-6.692-31.46-13.255-4.4-10.08-2.28-22.15 5.882-30.116 5.055-1.304 9.83-3.624 14.425-5.323 5.777-.112 11.126-.379 16.449-.935 13.233-1.38 26.288-4.018 39.478-5.698 8.356-1.06 16.76-1.707 25.842-2.003 9.52 2.357 19.05 7.385 28.734 9.638l10.715-2.322 7.029-3.392c2.384.182 2.85-2.572 4.952-1.669.689.296 2.29 12.714 2.636 13.862.48 1.606 1.48 3.986 2.815 3.817 3.32-.426 6.838-.453 10.325-.449 2.365.002 4.624-1.019 6.073-2.96a24.8 24.8 0 0 1 2.073-5.625c3.47-2.698 7.019-5.382 9.852-8.657.697-.8 1.99-.869 3-1.205.874-.289 1.815-.16 2.536.418 2.422 1.943 4.83 3.993 7.762 4.702.394.096 1.25-1.26 1.515-1.256 3.837.124 7.7-.187 11.752-.977 2.56 2.443 6.393 3.386 9.578 1.544 4.985-2.877 10.723-4.748 16.47-3.585l4.578 5.446c.809 2.444 3.163 5.171 6.537 5.323 1.59.07 3.167-.435 4.726-.539 7.684-.524 15.32-1.61 22.81-3.308 6.065-2.888 12.777-3.444 18.9-3.095 9.323-4.114 18.979-4.789 28.452-4.995 3.155-.068 6.294.748 9.099 1.602l6.5 6.203c2.209 1.848 3.833 4.323 3.835 7.625 2.624 7.664 6.813 15.223 7.612 23.694.665 7.065.369 14.19-.563 21.233.866 11.245-2.238 22.366-8.355 31.82l-8.572 14.158c-6.323 11.763-14.728 22.505-26.544 29.122-9.558 8.596-21.376 14.161-33.713 17.521-18.976 5.172-38.658 6.224-58.228 6.944-.69.023-2.772-.658-3.471-.68l-23.97-.456-17.02-1.743c-3.748-.304-7.544-.16-11.29.206-6.293.613-12.012 4.035-15.218 9.58l-.154.232c5.259 3.997 23.472 17.765 45.079 34.182l12.427-12.418c11.73-4.14 12.097-5.272 23.573-18.048l5.8-2.558c13.059-4.003 26.833-4.16 40.27-6.16 4.039-.602 7.922-1.899 11.56-3.735 8.11-4.093 15.006-10.105 23.093-14.184 2.624-1.32 5.36-2.833 6.927-5.956 3.937-2.32 8.876-3.033 13.37-4.842 11.353-4.572 21.057-12.16 31.198-19.29.42-.294 1.024.2 1.058.766.39 5.755.33 11.364-.165 16.934-.325 3.637-1.446 7.177-3.264 10.393-4.493 7.97-12.488 12.486-19.255 18.107L711.93 600.92l-3.768 3.327c-.191.185-.152 1.503 0 1.8.28.534.818 1.152 1.348 1.317 1.126.35 2.437-.017 3.46-.597 5.763-3.298 11.518-6.742 17.943-8.577 5.468-3.023 11.373-5.433 16.276-9.374 5.85-4.696 10.43-10.74 15.233-17.452 3.146-1.886 6.447-4.776 10.32-7.23.316-.202 1.372-.277 1.372.321l.012 6.911c.473 4.976 0 9.966-1.2 14.812"/><path fill="#0a6f9c" fill-rule="evenodd" d="M687.015 740.906c-6.932 0-12.553-5.619-12.553-12.555 0-.544.05-1.08.116-1.612l-32.33-24.988-20.857 24.188c.243.965.384 1.971.384 3.011 0 6.932-5.626 12.555-12.556 12.555-6.932 0-12.553-5.623-12.553-12.555 0-6.93 5.62-12.552 12.553-12.552.223.003.447.023.665.037l20.167-24.116-102.812-79.464c4.784-11.968 7.435-11.803 7.435-11.803l104.992 79.767 19.504-23.322a12.5 12.5 0 0 1-.86-4.546c0-6.933 5.618-12.553 12.55-12.553 6.932.001 12.553 5.62 12.553 12.553 0 5.918-4.097 10.863-9.61 12.193l-21.676 25.143 33.669 25.573c.399-.036.806-.063 1.219-.063 6.934 0 12.56 5.621 12.56 12.554 0 6.936-5.626 12.555-12.56 12.555M328.689 458.74s-.496-3.119 1.958-6.577c2.449-3.457 5.654-3.45 5.654-3.45l79.339 60.968s-.282 13.063 1.992 20.482zm185.23 82.271c.457.447 1.087-.186.626-.636-.462-.444-1.095.188-.625.636m175.595 64.48c.437-.672-.486-1.572-1.015-.847-.242.326.398.916 1.015.846m33.39-17.724h2.6c.027-1.067-.767-1.916-1.444-1.753-.881.21-1.253.937-1.155 1.753m-42.687-19.5v1.86c.55 0 2.262.171 2.636 0 .713-.325.713-1.535 0-1.86-.374-.168-2.085 0-2.636 0m29.068 53.778v3.018l3.14-2.532c-.844-.704-2.041-.9-3.14-.486m-250.393 53.507 3.996.197c-.167-1.013-.723-1.774-1.702-2.038-.284-.076-1.796 0-2.294 0zm146.102-184.309c.927.537 2.238.427 2.73-.296.466-.707.32-1.707-.182-2.085-.818-.62-1.922-.14-2.58.616-.463.542-.57 1.424.032 1.765m-25.63-40.255c.314.517 1.79-.116 1.48-.806-.675-1.493-2.2-2.585-3.496-3.926-.505-.528-1.233.458-.636.953 1.219 1 1.869 2.481 2.653 3.78M469.54 588.202a4.84 4.84 0 0 0 4.283.33c.666-.278.74-1.374.02-1.523-.504-.107-1.337-.18-1.422-.83-.074-.538-.238-1.259-.801-1.499-.943.781-1.61 1.811-2.08 3.522m-8.33-127.74 5.239.11c.76-.025.943-1.579.144-1.96-.713-.342-1.638-.58-2.036-.95-1.498.561-2.925.518-3.653 1.05-.553.404-.182 1.715.306 1.75m149.49 95.521c.48.84 1.725.568 1.779-.257 1.473-.216 2.04-1.705 1.306-2.779-.535-.779-1.428-1.728-2.185-1.506-.774.232-1.408 1.098-1.8 1.775-.16.277-.057 1.43.053 1.738.08.237.72.801.847 1.03m-148.452 14.014c1.02.537 2.483.176 3.726.114v-2.745c-.618-.224-1.118-.716-1.315-1.272-1.375-.227-2.723-.094-4.135.455.402.817 1.166 3.157 1.724 3.448m21.598 63.384c.896.354 1.86-.146 2.107-1.178.713.483 1.585.125 1.703-.617.187-1.119.127-2.264-.103-3.336-.86 0-2.994-.287-3.431 0-.758.51-.774 1.773-.628 2.73.076.5.29 1.992.352 2.4zm72.507-117.049c1.565.15 3.082.541 4.483.121.572-.167.157-1.456-.592-1.599v-2.477c-.77 0-3.103-.09-3.833.09-.767.19-1.367 1.077-1.104 1.446.623.88 1.068 1.572 1.046 2.42m47.953 14.533c1.309.408 2.97.393 3.5-.595.564-1.058.309-2.613-.02-3.832-.215-.806-1.334-.658-2.128-.395-.944.324-1.995.93-1.944 1.976.044.744.059 1.496-.104 2.2.2.186.682.643.696.646m142.769 73.462c1.275.33 2.697.225 3.143-.39 1.02-1.417.18-3.194-1.218-3.559-.844-.226-3.604-.187-4.913-.216.97 1.197 1.418 2.308 1.777 2.886.413.666 1.083 1.245 1.21 1.275zM576.96 554.35c.978.537 2.38.258 3.284.037 1.145-.278 1.74-1.3 1.582-1.764-.617-1.844-1.493-3.083-2.694-4.333-.105 1.794-1.486 2.773-2.267 3.802-.5.654-.464 1.947.095 2.257m65.958-2.884c-.085-.666-.748-1.129-1.075-1.655-.243-.367 0-1.94 0-2.412-.476 0-2.056-.245-2.415 0-.787.548-1.588 1.293-2.54 1.322.472 1.63 1.307 3.086 2.695 3.713 1.078.481 2.39-.13 3.335-.968m-57.536-23.834c1.19-.52 1.837-1.742 2.842-2.567a4.16 4.16 0 0 1-1.578-2.626c-.772 0-2.497-.062-3.038.057-.976.217-1.743 1.4-.874 3.227-.248-.504-.656.55-.884 1.054.777-.085 2.003-.349 2.352-.258.243.072.808.762 1.18 1.113m143.477 84.541c.314.47.97.683 1.496.351.582-.37 1.262-.96 1.65-1.636.163-.274.163-1.527 0-1.757-.767-1.09-1.874-1.927-2.94-2.964l-2.361 1.612.973 1.587c-1.026.455-.728 1.714-.225 1.83.9.216 1.184.64 1.407.977m-85.941-60.707.039 4.133a4.2 4.2 0 0 1 3.303 1.35c1.056-1.177 2.034-2.022 3.12-2.76-1.086-.897-1.85-2.092-2.904-2.689-.558-.313-2.82 0-3.558-.034m-145.11 41.138c.259.102 1.044-.576 1.33-1.552.052-.169.034-1.317-.032-1.448-.785-1.576-2.248-2.398-3.833-2.57-1.482-.168-2.786 1.386-1.955 2.565.983 1.386 2.482 2.208 4.49 3.005m60.457-62.274c.13.533.76.901 1.265.552 1.107-.748 2.068-1.736 2.582-2.763.41-.823.289-1.857-.213-2.107-.87-.425-1.806-.716-2.335-1.499-.767 1.014-1.685 1.551-2.614 1.691.257 1.48-.226 3.012 1 3.888.07.051.279.117.315.236zm-53.875 91.543c-.474 1.128-1.314 1.98-2.488 2.595 1.367.745 1.802 2.124 2.635 3.393.367.556 1.798.702 2.685 1.18a12 12 0 0 1 1.357-3.342c-1.317-1.565-2.665-2.809-4.19-3.826m-54.026-60.497c1.204.595 2.677.988 3.884.211.72-.469.95-2.022.47-3.213-.255-.613-1.008-1.219-1.645-1.5-.836-.367-1.771-.175-2.555.313-.932.581-2.601 1.667-1.433 2.24 1.017.49 1.648 1.027 1.279 1.95m-19.288-39.06c2.184.715 3.86-.869 4.946-2.433.356-.52.04-1.172-.51-1.478-1.227-.678-2.655-1.552-3.905-1.213-.738.206-1.407 1.063-1.775 1.744-.185.346-.072 1.74.07 2.107.133.331.993 1.212 1.173 1.273zm191.906 97.271c1.478-.742 3.612-.545 5.299.305.342-1.41.813-2.543 1.558-3.794-3.12-1.49-6.301-.118-8.53 2.125.234.561 1.052 1.68 1.673 1.364m33.614-56.984c.998.497 2.24.83 3.323.38.628-.262 1.306-.967 1.67-1.652.189-.344 0-1.71 0-2.16a2.2 2.2 0 0 1-1.335-1.34c-.527 0-2.185-.198-2.435 0-.937.75-1.854 1.634-2.371 2.556-.412.762.3 1.79 1.148 2.214zM610.527 540.4c.529.473 1.325.963 2.07.6.477-.228 1.137-.736 1.302-1.28.259-.857 0-3.699 0-4.614h-3.855c-.344.652-.954 1.16-1.175 1.55-.655 1.166.037 2.306.82 2.932.297.241.554.557.838.812m-153.458 90.045c1.344.663 2.444.31 2.728-.71.232-.833-.122-1.73-.903-1.984v-3.6h-4.1c0 .925-.235 3.757-.001 4.473.385 1.155 1.729 1.552 2.276 1.821m128.764-113.968c.694.117 2.988.256 3.59 0 .718-.304 1.396-1.033 1.748-1.72.196-.389 0-1.908 0-2.324-1.418-.104-2.653-.995-3.277-2.484l-3.107 3.09c.35.834.418 1.784.182 2.64.216.2.677.767.864.798m51.668-24.836 4.342-2.428c.267-.164.075-1.908-.075-2.22-.36-.747-1.037-1.289-1.741-1.663-.966-.508-2.022.08-2.41.59-.927 1.22-1.842 1.884-2.82 2.701.602 1.118 1.449 2.094 2.704 3.02M484.867 596.682c1.264.305 3.118.424 4.91.224.2-1.355.213-2.958-.155-3.249-1.975-1.554-3.486-2.325-5.314-2.679-.516 1.215-1.191 2.523-1.2 3.861-.001.274.917 1.643 1.759 1.843m122.04-115.964c-.564.517-.084 1.554.13 1.437 2.415-1.36 4.168-2.797 6.442-3.872-.96-1.069-1.546-2.099-1.88-3.165-.831 0-2.916-.266-3.41 0-.994.538-1.885 1.506-2.49 2.461-.198.317 0 1.714 0 2.154.442.17.833.468 1.209.985m128.519 14.774c.675.223 1.503.16 2.49.088.059-1.077.612-2.164 1.772-2.768.248-.128.704-.622.428-.929-.69-.767-1.306-1.619-1.452-2.607h-6.068c-.606 0-.815 1.43-.505 2.238h1.675c.296 1.201.792 2.318 1.277 3.435.048.113.213.491.383.543m-270.68 54.093c1.177.552 2.526-.292 2.277-1.916 1.637.215 3.237-.409 4.164-1.936.087-.144 0-1.686 0-2.189-.653-.344-1.113-1.05-1.711-1.358-.471-.243-2.416-.223-2.876 0-.71.335-1.321 1.083-1.565 1.711-.465 1.21.152 2.49.997 3.432-.821-.286-1.738.062-2.014.848-.207.585.168 1.14.728 1.408m19.849 10.041c.005-.404-.164-1.887.005-2.304.172-.423.73-.677 1.176-.986-.817-.928-1.527-2.016-2.557-2.602-.401-.228-2.172 0-2.716 0l.002 1.633c-.44.168-1.01.428-1.12.861-.18.742-.241 3.254 0 3.95.26.75 1.183 1.617 1.643 1.535 1.414-.247 2.453-1.332 3.567-2.087m134.528 82.093-.007-.938c-1.69-.916-2.917-2.513-3.35-4.333h-4.85v2.773c.848.278 1.08 1.41 1.33 1.691 1.428 1.612 3.259 2.186 5.27 1.62.343-.099.896-.735 1.607-.813m-49.446-110.073c1.726-.172 3.854-1.115 3.852-2.385-.003-1.24-1.223-2.752-2.255-3.473-.505-.35-2.697-.039-2.951.043-1.527.525-2.891.702-3.653 1.242-.665.484-.26 1.397.344 1.527 1.345.276 2.194 1.358 2.966 2.438.67-.165 1.403.135 1.697.608m-31.767-46.37 8.415-.835c.74-.046.784-2.55.024-3.005-1.424-.846-2.992-.178-3.847 1-.52-.46-1.23-1.296-1.506-1.358-.767-.162-3.24-.199-3.98 0-.366.098-1.246 1.192-1.616 1.548.68.935 1.627 2.774 2.508 2.65zm160.95 53.92c.219 1.122 1.4 1.47 2.384 1.887 1.124.474 1.889 1.867 2.906 2.94-.55.682.369 1.607 1.102 1.022.932.983 1.628 2.068 3.199 2.675-.568-1.435-1.564-2.11-2.352-2.879-.491-.477.124-1.625.944-2.07v-5.828a1.46 1.46 0 0 0-1.316 1.141c-.47 0-1.783-.124-2.16 0-.291.1-.956 1.051-1.238 1.12-.662.155-2.786 0-3.468-.008m-228.448-8.286c1.803-1.003 2.837-2.823 3.684-5.262.204-.587-.647-2.006-1.286-3.21-.357 0-1.492-.148-1.721 0-1.068.681-1.912 1.674-2.91 2.631.337.556-.025 1.35-.578 1.64-.563.3-.638.922-.413 1.392.497 1.04 1.5 1.655 2.658 1.835.078.007.323.55.566.974m32.133 41.33c1.323.252 2.942.618 4.177.111 1.146-.47 2.08-1.784 2.602-2.816.583-1.15.529-2.789-.131-3.318-.85-.68-1.944-.944-2.166-.892-1.661.365-2.713.892-3.846 1.118.16 1.097-.296 1.972-1.065 2.352 0 .66-.061 2.385 0 2.95.014.096.279.465.428.495zm-27.456 79.876c1.682.788 3.573 1 5.466.62-.338-.684-.053-1.57.647-2.013.438-.275.693-.936.32-1.454-.594-.829-1.443-1.729-2.146-2.176-.82-.508-2.797-1.172-3.43-1.445-.708.91-1.68 1.404-2.428 1.433-.643 2.028-.246 4.188 1.57 5.035m49.012-54.528c.11.267 0 1.277 0 1.603.474 0 1.895.021 2.329-.117 1.718-.54 2.657-2.433 2.063-3.79 1.216-1.734 1.002-3.709-.34-4.938.226-.623-.073-1.328-.677-1.578l-4.493 4.655c-.352.34 0 2.638 0 3.306.439.165.937.418 1.118.86m-50.603-38.059c1.372.572 2.927.224 3.514-.853.82-1.52.654-3.372-.74-4.88l-9.183-.054v1.974c.776-.429 1.792-.149 1.972.68.1.461.077 1.183.55 1.434.298.163 1.69-.077 2.035.08.473.218 1.587 1.511 1.852 1.62m-76.3-20.412c.683.303 1.494.045 1.705-.562.129-.354-.126-1.77.129-2.069.726-.85 1.573-1.786 1.845-3.052-.953-.594-2.047-.76-3.253-.456.238-.976 1.36-1.225 1.128-2.032a8.98 8.98 0 0 0-5.494.913c-.38.191-1.307 1.082-1.73 1.485.76.613 1.138 1.556 1.014 2.566.905-.25 1.82.152 2.3 1.1-.5.613.42 1.538 1.106.985.35.312 1.066 1.043 1.25 1.122m71.967-29.37c.33.405.862.46 1.357.29 1.9-.664 3.443-1.984 4.672-3.688.32-.446-.191-1.837.372-2.398.424-.422 1.33-.189 2.055-.124-.388-.859-1.05-1.886-2.075-1.886l-4.832.078c-1.432.112-2.056 2.131-1.173 3.614-.855 1.125-1.966 2.665-.621 3.781.067.06.192.271.245.332m-35.733 172.158c.855.238 3.677 0 4.713 0-.454-1.365.006-2.836.979-3.563-.841-1.243-1.863-2.238-2.185-3.517-.264-1.027-1.364-1.837-2.322-1.035-.864.714-1.89 1.195-2.923 1.475 0 1.13-.236 4.024 0 4.902.112.413 1.33 1.625 1.738 1.738m39.636-76.754c.263.114.655-1.072.243-1.862h1.976c0-.325.152-1.39 0-1.612-.661-.954-1.54-2.26-2.368-2.396l-5.072-.846c-1.463-.272-2.66 1.075-3.661 1.928l1.09 2.811c2.724.273 5.224.841 7.792 1.977m254.29-93.81c.988-.19 1.879-.69 2.418-1.668.078-.158 0-1.47 0-2.008.684-.157.976-.925.684-1.594-.7-1.66-.917-3.466-.52-5.742-1.152 1.3-2.424 1.587-3.562 1.754-.694.101-.908 1.032-.588 1.836-.808-.312-1.67-.11-1.842.494-.255.904-.631 1.777-1.196 2.165l2.356 3.596c.966-.144 1.833.317 2.25 1.166zM486.62 467.553c2.71-1.127 5.549-1.156 8.06-2.139.818-.32.512-2.298.085-2.512-5.037-2.54-10.197-2.76-14.874-2.058-.816.121-.591 1.408.084 1.747.334-.71 1.105-.913 1.969-.297 1.652-.77 3.792-.689 5.668.361.282.157.17 1.375.39 2.188-.831.558-1.334 1.466-1.382 2.71m206.277 175.024h7.323c.483 0 1.129-1.392 2.04-1.927.455.611 1.468-.028 1.098-.742-.432-.834-.832-1.69-1.106-2.548-.568 0-1.881.13-2.255 0-.296-.094-.991-.919-1.28-1.043-.987-.435-2.147.051-2.591 1.15-.685-.415-1.476-.036-1.741.343-.988 1.391-2.201 2.227-3.311 3.27.716.461 1.309 1.497 1.823 1.497m42.83-68.35c.229.167 1.772 0 2.18 0 .37-1.034-.94-1.805-1.791-1.092.335-.872 2.022-3.105 2.104-3.597.255-1.379-.075-2.5-.294-3.507h-1.975c.563-.93.029-2.195-.962-2.187-.98.008-1.975.264-2.985.316 0 .703.175 2.834 0 3.47-.112.442-.672.697-1.116.864 0 .443-.267 2.105 0 2.283zM458.34 588.758c.644.365 3.278.117 3.905-.116.982-.362 1.595-1.265 2.015-2.282-1.503-.924-2.48-2.35-2.738-3.684-1.76-.578-3.076-1.338-4.532-2.118-.201-.103-1.667-.166-1.866 0a18.2 18.2 0 0 0-2.364 2.438c-.463.583-.14 1.46.514 1.56.499.08 1.324.167 1.406.823.06.48.193 1.183.779 1.382 1.138.397 1.94 1.454 2.88 1.997m254.908-71.1c.262.62 1.01.948 1.66.547a26.4 26.4 0 0 1 4.752-2.307c-.296-.71-.196-1.435.294-1.659.274-.123 1.303 0 1.568 0 .21-1.4.08-2.827-.354-4.098h-5.31c-.465 0-1.841 1.948-2.431 2.112-.628.173-1.526.047-1.742.351-1.22 1.677-.563 3.694.978 4.57.187.114.468.21.585.484m-51.675 25.115c3.255.55 6.542.605 9.857.5.444-.01 1.808-1.762 2.456-2.39a8.06 8.06 0 0 1-2.28-3.917h-5.921c-1.03 0-2.034 1.54-3 2.734.417.894-.02 2.197-1.112 3.073m-88.597-78.216c.68-.406 1.47-.884 1.799-1.623.168-.384 0-1.877 0-2.46-.995.438-2.1-.037-2.493-1.117-.696.421-1.543.088-1.844-.933-.884.524-1.884-.095-1.811-1.103.786.102 1.036-.977.505-.93-2.083.2-4.248.162-6.541.072-.726 1.278-.724 2.988.255 3.974.669.673 1.344 1.244 1.735 2.013.878 0 3.522-.168 4.359 0 .279.056.947 1.008 1.24 1.117.306.117 1.432-.109 1.738 0 .233.08.79.743 1.058.99m-87.016 70.481 6.028.062c1.197-.016 2.216-1.658 1.977-2.67-.144-.613-.93-.998-1.497-1.527-1.05.501-2.351.061-2.904-1.016h-2.52c-.087.477-.475.922-.663.856-1.33-.448-2.215-1.308-3.365-1.972-.317-.183-2.471-.24-3.002 0-.713.32-1.35 1.041-1.741 1.716-.163.273-.012 1.416.06 1.751.243 1.09 1.413 1.596 3.389.697.368-.17 1.954-.33 3.426.144.539.18.772 1.081.812 1.96m-112.721-5.579c.527.335 1.21.522 1.549 0 1.172-1.81 3.177-3.204 5.463-3.057-1.335-1.167-2.995-1.38-4.748-1.778-.218-.049-.77-1.769-.946-2.187h-2.06c.878-.66.398-1.792-.386-1.525-2.408.821-4.806 2.033-6.428 4.536.927.983 2.272 1.881 3.767 2.44 1.28.477 2.642.826 3.789 1.571m318.499-19.438 7.777.101c.48-1.019.774-2.325.228-3.478-.408-.857-1.092-1.787-1.32-2.835h-3.743c.265-.694.102-1.647-.566-1.867-.565-.193-2.57 0-3.247 0-.352.97-1.454 1.442-3.122.718 1.399 1.843 1.585 3.514 2.066 4.854.279.778 1.204 2.471 1.927 2.507m-207.142 49.604c.104.822-.396 1.528-1.114 1.68 0 .924-.25 3.397 0 4.13.172.485 1.747 1.62 2.426 2.233-.968 1.065-1.446 2.568-1.24 4.33 1.167.17 2.384.735 3.89.867 1.138.101 2.695-.399 4.278-.49a3.08 3.08 0 0 0-1.02-2.108c.437-.954.088-1.915-.861-2.373.264-.57.595-1.025 1.308-1.65-1.493-.052-2.584-.279-3.59-.68.125-1.489-.144-2.916-1.6-4.55-.214-.237-1.4-.72-2.477-1.389m-85.413-33.194c.968.293 4.56.885 5.115-.217-.767-.896-16.942-13.366-16.942-13.836h-2.982c0 .693-.347 3.12 0 3.471l6.267 6.324c1.118 1.12 2.598 1.662 3.586 2.498.294.25 1.828-.07 2.004.067.957.731 1.884 1.37 2.952 1.693m113.37 90.917c.135.402 0 1.861 0 2.443.876-.32 1.926-.693 2.234-1.444.297-.7 0-3.21 0-4.162l-2.31-1.008c.233-.694-.011-1.354-.676-1.752-.652.524-1.574-.398-.91-1.222l-2.532-1.137c.293-.66-.067-1.22-.576-1.582-1.806-1.28-3.963-1.96-6.336-1.994-.158 1.124-.526 2.357-.15 3.49.26.756.89 1.906 1.237 2.054 3.34 1.443 6.25 3.121 8.41 5.716.609-.204 1.408-.01 1.61.598m176.96-11.859a1.345 1.345 0 0 0 1.338-1.123c.92.138 1.799.054 2.636-.24.148-.864.55-1.899.122-2.555-.435-.67-1.253-1.414-1.054-2.38h-5.954c-.221 1.401.066 2.83.84 4.098h-4.82l-1.435 3.828c.767.274 1.265.77 1.529 1.497.692-.415 1.348.051 1.777.704.165.257 1.515.49 2.039.67-.575.672.126 1.658.823 1.082.992-.807 1.95-1.986 3.276-2.997a2.96 2.96 0 0 1-1.116-2.584m-169.92-37.267c1.04.407 2.35.067 3.552-.5a1.326 1.326 0 0 1 .473-1.889c.528-.285.56-.862.749-.64-2.222-2.637-3.418-5.242-5.992-6.283-.277-.11-.896.784-1.37.784l-7.94.073c-1.092.05-.501 1.711.235 1.002 1.978.69 2.83 2.808 1.83 4.755 1.252.287 2.165.758 3.069 1.552.4-.825 1.349-1.258 2.096-.844 1.093.608 2.08 1.506 3.296 1.99zm129.769 4.621c3.037-.503 6.209-.649 9.56-.406.152-1.063.695-1.983 1.63-2.687-.245-1.47-1.141-3.018-2.753-3.72-.388-.166-2.505.212-2.927 0-.563-.285-1.59-1.97-2.075-2.236-.29-.163-1.544-.116-1.777.12-1.08 1.113-2.376 2.21-3.966 2.517v5.433c.71.345 1.549 1.1 2.308.98m71.442-92.914c1.005.124 2.214.024 3.454.313.06-.784-.056-1.473-.29-1.995a15.8 15.8 0 0 1 5.865-4.39c-.073-1.005-1.141-1.442-2.38-.383.77-1.61 1.545-2.375 1.977-2.877.719-.847.32-1.755-.531-2.006.177-.797-.192-1.612-.901-1.964-.886-.434-1.925-.93-2.694-.649-.988.36-2.048.844-3.04.497l-1.717 1.653c.922.863 1.609 2.568.852 3.175-1.457 1.171-1.993 3.307-.544 5.235.449.597 1.053 2.015.04 2.594-.377.215-.547.744-.091.797m-177.283 88.335c.485.176 2.895.32 3.456 0 1.036-.6 1.794-1.767 2.876-2.57-.272-.678.003-1.522.668-1.954a6.3 6.3 0 0 0 1.823-1.857c.55.24 1.208-.037 1.456-.619.247-.583.036-1.257-.663-1.62-.631.515-1.558-.408-.912-1.206-1.527-.953-2.512-2.378-2.794-3.85-1.447-.288-2.682-.14-3.724.355 0 .581.129 1.888 0 2.267-.094.29-1.038.952-1.113 1.242-.146.535.065 2.314-.12 2.818-.594 1.637-1.4 3.307-2.78 4.44-.456.378.64 2.117 1.827 2.554m-70.325 11.644c2.534.732 5.18.87 7.784.481 1.832-.273 3.4-2.04 2.63-3.912-.344-.847-.681-1.95-1.482-2.252-.771-.29-3.488 0-4.355 0-.483-.922-1.475-1.348-2.477-1.552-2.034-.412-4.132-.429-6.377-.126.54 1.838.51 3.55-.058 5.281 1.524.584 2.844 1.651 4.335 2.078zm199.34-21.938c.188.302.598.715 1.043.488 1.274-.655 2.793-.582 3.888-.854 1.075-.258 1.54-1.457 1.723-2.742a11.7 11.7 0 0 1-4.743-3.365c-.218-.267-1.956 0-2.575 0a2.92 2.92 0 0 0 .037-3.407c-.474-.668-.92-1.44-1.634-1.807-.272-.138-1.43-.117-1.733 0-.291.107-.951 1.017-1.243 1.113-.381.128-1.776-.17-2.106 0-.551.278-1.84 1.788-2.447 2.384a6.4 6.4 0 0 1 1.345 3.952c1.072 0 3.325.244 3.968 0 .493-.187.847-.812 1.473-1.225.277 1.225.345 2.412.195 3.776 1.092.224 2.194.695 2.81 1.687M496.807 501.09c1.683-.478 3.345-1.466 5.172-2.009.148-1.139.64-2.555.13-3.184-.834-1.026-1.746-2.123-2.171-2.573-1.236-1.302-2.396-1.668-3.558-1.905-.156.718-.69 1.186-1.34 1.236 0-.349-.18-1.456 0-1.695.415-.546 1.027-1.06 1.187-1.88-1.34-.854-2.267-2.19-2.707-4.232-2.507 1.6-4.366 3.657-5.594 6.107.718 1.055 1.496 2.181 2.526 2.794.508.303 2.776 0 3.469 0 0 .698-.17 2.825 0 3.465.12.44.678.694 1.226.903-.415.683-.028 1.444.608 1.838.303.193.678 1.244 1.052 1.135m-40.543 78.45c.566-.25 2.555-.907 3.407-1.44.57-.355.303-1.598-.028-2.55-.733-2.09-2.957-3.31-3.702-5.108-.38-.903-1.964-2.175-2.675-2.175h-6.413c-.852 0-1.688 1.633-2.631 2.607.512 1.308 1.342 2.7 2.714 3.354.453.218 2.605-.146 2.99.147 1.04.796 1.232 2.307.933 3.75 1.212.222 2.66.062 4.027.172.3.022 1.023.922 1.378 1.243m251.94 55.281c-.1.256 0 1.266 0 1.588h7.122c-.158-.708-.161-1.633.412-1.934 1.14-.61 2.774-.776 2.976-1.235 1.369-3.035 3.733-4.367 5.62-5.478.785-.464.92-2.11 1.792-2.656.937-.589 1.61-1.519 1.879-2.776a7.46 7.46 0 0 0-3.917-.394 2.93 2.93 0 0 0-1.896-1.238 16.5 16.5 0 0 0-3.041 5.291c-.811-.213-1.971-.085-2.573.74-1.976 2.74-4.313 5.15-6.787 7.488-.584-.199-1.35.001-1.587.6zm-77.708-82.537c.587.388 1.427-.073 1.648-.788.388-1.24.888-2.987.238-3.529-3.26-2.709-4.775-6.732-5.595-10.848l-6.646-.132.782 1.608c-.728 1.485-1.112 2.885-.563 4.313.058.182 1.84.665 1.934.942.362.984-.092 2.004-.08 2.867.012.448.553.747 1.073.941-.296.723-.107 1.695.702 1.9 1.354.33 2.71 1.037 3.91 1.942.288.222 1.737-.057 2.126.056.12.04.318.62.47.728m-161.48-30.409a9.22 9.22 0 0 1 5.634-1.264c.816.083 1.867-1.837 3.027-2.767-.788-.21-1.183-.909-.977-1.655.96.498 2.008.356 2.74-.332-.207-.617.01-1.412.659-1.51.505-.08 1.306-.147 1.523-.752.126-.353-.132-1.767 0-1.943.805-1.066 1.84-1.827 2.907-2.792-.537-1.053-1.282-2.268-2.463-2.819-.49-.225-2.837-.318-3.171 0l-3.606 3.586v5.867c-.867-.21-1.19-1.426-1.627-1.072-1.081.88-2.034 1.21-2.892.867-.326.291-1.028 1.101-1.321 1.19-.425.127-1.885 0-2.358 0 0 .694-.21 2.846 0 3.475.137.417 1.393 1.391 1.926 1.921m35.796 142.4c1.235.387 2.755.33 4.157.106.258-.042.932-1.005 1.225-1.104.38-.128 1.773.1 2.006-.098.65-.566 1.163-1.408 2.012-1.764.277-.117 1.464.048 1.789-.095 1.866-.83 3.672-1.964 4.749-3.869.238-.426.047-2.596-.012-2.7-1.608-2.753-4.553-2.698-6.778-1.09-.72.514-1.588 2.137-3.091 2.93-.914.484-1.994 1.496-3.29 1.99-1.537.584-3.207.664-4.678.72-.713.028-1.063.958-.76 1.393.359.521 1.792 1.665 2.258 2.1-.182.497-.131 1.31.413 1.481m77.815-161.299c1.937.76 3.993 1.091 6.38.688.319-1.573.416-3.39.24-5.409-.931-.13-1.698-.85-2.49-1.528-.205-.173-1.684.098-1.992-.096-.922-.584-1.993-1.092-2.378-1.486-1.122-1.173-1.461-2.429-1.755-3.63h-1.801c.16-.709.252-1.763-.296-2.1-.723-.446-1.801-.72-2.357-.694-1.061.056-1.813.71-2.597 1.108.233.682.017 1.477-.643 1.58-.5.077-1.292.164-1.437.827-.187.81 1.009 1.186 1.607 1.645 1.514 1.158 2.912 2.481 4.072 3.965.15.194 1.369 0 1.81 0-.431.78-.06 1.623.467 2.081 1.155 1.01 1.884 2.543 3.17 3.05m101.024-24.22c1.017.7 2.665.55 4.609.391l.14-10.052c-.016-.784-1.52-1.952-2.405-2.547-.485-.328-2.645 0-3.478 0-.08-1.21-.696-2.51-1.924-2.98-.498-.19-2.66 0-3.352 0v2.502c-1.098.415-1.403 1.885-.435 2.828.719-.578 1.64.34 1.14.968.515.837 1.918 2.91 2.273 3.733.11.274-.078 1.671.08 1.844 1.075 1.131 2.046 2.396 3.352 3.313m-20.675 57.12c.789.788 3.52-.1 4.813-1.109.4-.312.177-1.27.119-1.897l1.876.002c0-.475-.136-1.932 0-2.362.095-.29 1.059-1.005 1.037-1.322-.071-1.315.257-2.775 1.84-3.917-2.083-.624-3.748-1.01-5.316-.538-.36.114-.738.72-1.311.958-.461-.82-1.347-1.198-2.237-.958.116-.857.04-1.906-.607-2.295-.406-.243-2.396-.23-2.816 0-1.1.6-1.915 1.674-2.912 2.626.13.502.577 1.022 1.148 1.255 0 .885-.335 3.431 0 4.124.247.527.456 1.517.71 1.775zm-170.14 36.5c-.266 1.574.218 3.197 1.189 4.19-.324.865-.94 1.23-1.36.848-.39-.359-1.001-.805-1.683-.612-.746.207-1.138 1.027-.736 1.854.55-.617 1.393-.29 1.642.36.234.61.125 1.383-.6 1.461-.706.081-1.893-.205-2.436.36-.443.462-.404 1.52-.13 2.096.328.694 1.014 1.402 1.699 1.73.488.224 2.325.037 2.599-.043 1.093-.325 1.755-1.126 1.67-1.318-.761-1.759-.985-3.068-.597-4.298.253-.796 1.302-.92 1.845-.279.678.8 1.5 1.462 2.167 2.437-.573.871.569 1.73 1.227 1.492.807-.287 1.03.607.533.84-.45.212-.75.667-.726 1.168.547 0 2.289-.185 2.619 0 .556.312 1.59 1.968 2.075 2.232.285.163 1.53.164 1.754 0 1.094-.77 2.227-1.717 2.865-2.836.292-.5.187-2.764-.06-3.057-1.767-2.066-4.408-2.86-6.056-4.967-1.67-.683-3.106-1.824-4.314-3.527.013.021 0-.935 0-1.26-.695 0-2.938-.308-3.53 0-.527.274-.985.985-1.656 1.13m69.553 2.738c1.583.75 3.59.277 5.019-1.404.216-.25.83-.775 1.48-.496.43.19.758.562.887 1.012h2.762v-1.863c-.371 0-1.602.121-1.721 0-.662-.646.377-1.587.995-1.028.709-.65 1.476-1.125 1.845-1.805.187-.344 0-1.715 0-2.18.476-.09.864-.457 1-1.059a12 12 0 0 0-3.748-.23c-.232-.648-.728-1.146-1.444-1.4.362-.719.07-1.542-.614-1.867-.548-.255-.267-1.066.573-.935l.12-5.652c-.03-.864-1.455-2.01-2.448-2.474-.725-.343-3.575-.252-4.364 0-.563.182-1.131.801-1.366 1.344-.197.438-.107 2.103.102 2.347.9 1.03 1.937 1.91 2.859 3.055.8 1.01 1.495 3.126-.597 3.074-.141 1.348-1.267 2.176-1.61 3.043-.587 1.501-.021 3.375.12 5.121-.716.371-1.231 1.324-.84 2.055.238.45.5 1.106.99 1.342m-223.72-69.69c1.926 1.106 4.314.73 6.142-1.04-.13-.502-.188-1.989.58-2.442.67-.393 3.399.273 4.077 0 .717-.287 1.378-1.036 1.746-1.716.187-.342.139-1.917-.045-2.038-1.587-1.08-3.112-2.566-3.454-3.823-.364-1.336-2.234-1.505-3.35-1.924-.361-.137-.703-.919-.383-1.38.302-.433.867-.87.897-.803-.734-1.904-1.402-3.197-2.504-3.792-.794-.427-1.741.18-2.121.945-.665.001-2.404-.083-2.682 0-1.087.33-1.691 1.141-1.667 1.196.747 2.032 1.29 3.304 2.59 5.178.264.383 1.334 1.37 2.156 2.536.649.93 1.38 2.078 1.235 2.674-.313 1.303-1.137 2.048-1.744 2.83-.788-.89-1.182-1.696-1.786-2.117-.255-.18-1.35 0-1.673 0 0-.547.127-2.256 0-2.489-.628-1.18-1.838-1.66-2.978-1.612v4.193c.668-.337 1.435-.059 1.714.594.748 1.746 1.62 3.478 3.097 4.744.044.037.1.258.153.285m228.934 10.826c.798.501 2.189.584 3.233.188.669-.253 1.7-1.099 1.7-1.682v-6.427c-1.652-.383-3.123-1.456-4.098-3.095-.102-.174-.097-1.46.102-.983-.928-2.186-1.467-3.69-2.751-4.542-.33-.222-2.594.288-3.065 0-1.192-.722-1.876-2.312-3.085-2.983-.541-.3-2.798 0-3.371 0-.47 1.408-.015 2.877 1.009 3.902.816.815 1 2.053.62 3.215a8.55 8.55 0 0 0-3.986.376l.002 5.397c0 .928 2.818.685 3.707-.644.594.361 1.327-.07 1.798-.66.42-.522 1.466-.694 2.095-.159 1.087.93 2.456 1.953 2.988 2.35 1.874 1.39 2.228 3.011 1.927 4.38.527.418.68 1.053 1.175 1.367m18.893-22.629c1.167.617 2.374.672 3.553.412.432-.089 1.806.255 2.238.17 1.056-.198 2.04-.573 2.98-.92v-5.314c0-.465 1.287-.748 2.41-.798l-4.324-4.473c.21-.619.012-1.444-.595-1.62-.571-.165-2.633.148-3.18-.146-.558-.302-1.138-.878-1.94-1.035-.577.966-1.385 1.741-2.458 2.323-.262-1.002-1.165-1.425-1.942-1.05-.208-.536-.456-1.075-.895-1.21-.517-.155-2.32-.145-2.85 0-.286.077-.951 1.022-1.235 1.118-.386.125-1.692 0-2.146 0-.218.621-.873 1.021-1.111 1.41-.593.955.172 2.107 1.2 2.555 1.47.643 2.839 1.467 4.295 2.32.053-.622.883-1.179 1.223-.86.566.537 1.007 1.032 1.253 1.52.179.343-.151 1.843 0 2.003 1.026 1.082 2.085 2.051 3.135 3.01.127.108.369.572.389.585m-84.088 54.698c.994-.554 2.323-.763 2.756-1.255.938-1.066 1.04-2.324 1.383-3.53 1.508-.246 3.2-.32 4.944-.199-.255.66-.082 1.65.575 1.83.847.23 3.668 0 4.523 0 .245-1.392-.072-2.81-1.098-4.273 1.886.345 2.87 1.541 3.902 2.41.404.338 2.404.027 2.933-.148 2.197-.733 3.303-3.167 2.075-5.812-.09-.183-1.123-.583-1.936-1.345l-1.232.907c-.983-1.028-2.244-1.306-3.453-1.509-2.257-.372-4.553-.304-6.847-.145-.675.05-1.21.994-1.688 1.867-.501-.477-1.168-1.087-1.455-.965-.96.396-1.574 1.053-2.42 1.332.325.923-.192 1.777-1.06 1.9.146.938.056 1.82-.236 2.66l-3.597.126c-.16-.427-.413-.999-.856-1.106-.741-.179-3.203-.093-3.901.19-1.473.587-3.26 1.16-3.746 3.102l6.43 3.042c.616.324 2.823-.125 3.47 0 .11.026.344.6.534.921m150.782-29.466c2.908-.49 5.62-1.296 8.192-3.366.065-.049-.836-.585-1.488.182-.398-1.24-.566-2.265-.578-3.416-.828.28-1.59.08-1.82-.52-.1-.26 0-1.27 0-1.592h7.184c-.432-.996.039-2.098 1.005-2.454v-1.766c-.774.435-1.607.062-2.138-.575-.425-.513-1.03-.96-1.413-1.579a5.4 5.4 0 0 1-2.638-.239c-.146-1.369-.68-2.892-.127-4.042.343-.71 1.442-1.602.884-2.465-.25-.396-.821-.96-1.037-1.05-2.371-1.035-4.83-.006-5.825 2.815.088-.24.177 1.095 0 1.413-.386.702-1.031 1.377-1.716 1.744-.34.19-1.745-.063-1.993.065-.715.365-.72 1.455.022 1.662.663.192 1.593.122 2.593.472-.445 1.532.097 3.076 1.182 4.275-1.702.116-3.187.866-4.153 2.121-.631.813-1.546 1.425-2.092 2.235-.423.622-.311 2.076.106 2.185 2.452.628 4.483 2.12 5.85 3.895M517.109 459.35c1.064.371 2.392.164 3.673.102-.15-.693-.167-1.697.289-1.897 2.114-.92 4.326-1.416 6.425-1.103.419.058.765-.64.932-1.08.442 0 1.803.177 2.134 0 .63-.345 2.134-2.085 2.767-2.702-.55-.533.072-1.404.782-1.112 1.044.437 2.23-.166 2.546-1.37 1.492.281 2.662-.923 2.4-2.276-.246-1.278-1.354-2.215-2.847-2.199.383-.876.099-1.528-.486-1.77-.78-.32-1.657.17-1.727.995h-2.268c-.241.562-.856.91-1.563.813.09-.673-.575-.372-1.29-.208-1.54.355-3.392.66-5.443.443-.38-1.082-1.935-1.325-2.76-.367-.446.524-1.167-.007-1.274-.495-.16-.653-.726-.976-.998-1.085-2.028 1.646-4.337 2.595-5.847 4.555v6.201a16.7 16.7 0 0 0 4.202 2.914c-.244.655-.2 1.45.352 1.641zm159.144 46.996c2.66-1.842 4.662-3.734 6.91-5.602a4.5 4.5 0 0 1-.918-2.554l-4.211-1.877c.714-.747 1.74-.97 2.597-.63l1.872-1.838c-.318-.898.014-2.27-.415-2.772l-3.986-4.146c-.716-3.24-2.628-5.844-5.466-7.536-1.051-.634-2.48-1.353-3.012-1.699-2.51-1.606-4.44-2.674-7.114-3.692.238.091-1.061-.099-1.388.101-.568.355-1.1.911-1.775 1.198.77.756 1.8 1.382 2.24 2.284.282.58 0 2.8 0 3.548 1.409-.206 3.006-.206 3.185.046l7.163 10.316c.277.405.344 2.07-.124 3.54-.175.541-1.082.773-1.99.811.585 1.052 1.318 1.773 2.204 2.247v2.852c.78-.428 1.57.006 2.204.59.516.461 1.055 1.23.694 1.991.94.46 1.45 1.363 1.33 2.822m-57.13 135.374c.302.726 0 1.646-.962 2.09.519.758.74 1.613 1.029 2.546.099.326.607.59 1.044.754v1.637h2.757c.22-.623.718-1.116 1.56-1.415-.951-2.186.134-4.67 2.949-5.662-.325.114.607 0 .928 0 0 .916-.194 3.72 0 4.521.218.862 1.424.901 1.98.265.544-.603 1.078-1.225 1.165-1.273 2.105-1.159 3.462-2.268 4.758-3.753.339.941-.212 1.625-.84 2.174-.796.693-.762 2.027-.932 2.458-.592 1.502-2.112 4.088-2.571 4.99-.927-.24-1.771.24-2.055 1.053-.391 1.111-.76 2.455-.071 3.518.488.755 2.139 1.004 3.209.22.779-.572.738-2.17.536-3.373 1.447-1.102 2.505-2.45 3.63-3.723.14-.166 1.298 0 1.744 0-.432-.779.032-1.519.583-2.027.99-.916 1.713-2.082 2.737-2.893.639-.507.932-1.368.517-2.233.852.19 1.585.09 2.396-.348a7.9 7.9 0 0 0-2.345-1.203c.248-.73.049-1.56-.558-1.73-.62-.173-2.757 0-3.505 0 .207-1.403.432-3.242-.264-3.832-1.165-.99-2.96-.879-3.177-1.304-1.442-2.765-3.5-4.469-5.48-5.237-.83-2.83-3.39-3.55-5.285-4.482-.675-.334-2.42 1.028-3.964 1.797-.638.322-1.59.961-2.64 1.191v7.35c1.543.401 2.91 1.404 3.95 2.776.999-.519 1.894.656 1.195 1.431-.64.705-1.022 1.612-1.094 2.447a6.6 6.6 0 0 0-2.923 1.27M495.77 456.591c.678-.444 1.468-.946 1.606-.898 2.397.843 4.36.803 6.3.497 1.169-.177 2.35-1.71 3.123-3.227-1.248-.619-2.548-1.216-3.544-.927-1.296.377-2.245 1.456-3.595 2.104-.245.117-.817-.434-1.112-1.16-1.172.552-2.475.11-3.015-.953l-6.214.234c-.545.06-.7-.684-.218-.958.557-.324 1.2-.498 1.84-.374v-2.483c.825-.444 1.279-1.42 1.077-2.39.96 0 3.85.275 4.418 0 1.178-.569 2.04-1.69 3.227-1.752 1.035-.059 2.063.98 3.13 1.751.183.126 1.24 0 1.48 0l.399 4.924c.608.247 1.712.042 1.95-.786.167-.568-.554-2.884-.387-3.376.445-1.285 1.602-2.224 1.973-3.633.24-.896.48-2.362 1.66-3.272-.861-.376-1.276.126-1.54.488-.98 1.348-2.14 2.62-3.46 3.42-.48.293-2.686.215-3.24 0-.565-.219-1.114-.804-1.372-1.344-.175-.363-.158-1.785 0-2.132.215-.47 1.674-1.517 1.86-1.99.19-.47 0-2.186 0-2.73h-6.456c-.25 0-.951-1.007-1.241-1.119-.305-.114-1.36.104-.885-.034-2.63.765-4.234 1.91-5.353 3.386-.324.43-3.29-.052-4.044.124-1.165.273-1.775 1.59-1.28 2.72q-1.139 1.52-1.687 3.12c-.743 0-2.494-.148-3.027 0-.287.072-.96 1.045-1.245 1.116-.604.155-2.581 0-3.255 0-.356.968-1.461 1.446-2.688.907.546.99.24 1.91-.695 2.343l1.335 3 5.418.902c.589.096.733 1.357.57 1.802 2.792 1.396 5.95 1.463 8.394.363h7.322c.475 0 1.893 1.785 2.47 2.337m230.308 130.092c.573.488 1.18-.036 1.592-.536.476-.58 2.976-1.243 3.63-1.658 2.84-1.813 5.593-3.83 7.596-6.233.565-.67.956-3.014 1.548-3.442 1.619-1.163 1.927-3.676 3.794-5.37.23-.215-.265-1.273-.743-2.004 2.16-2.04 3.767-4.854 3.67-7.128-.034-1.098 1.762-2.738 1.112-3.91.415-.568.806-.867 1.243-1.035v-1.633l-6.801.113c-1.908.33-3.214 1.941-4.462 3.314-.543.606-1.354.947-2.388.46.549.992.253 1.91-.67 2.334.02 1.516-1.272 2.667-2.87 3.066-1.178.296-2.53.484-3.8.776-.543.128-1.801 1.957-2.36 2.234-.334.167-1.683 0-2.101 0-.546 1.075-1.844 1.512-2.886 1.024-.352.315-1.063 1.15-1.347 1.211-.762.162-3.194-.069-3.65.073-1.532.488-2.214 1.991-1.525 3.412.102.201.554.788.34 1.21-.444.862-.131 1.725.643 2.143.559.3.81 1.08 1.284 1.36.355.206 1.743 0 2.182 0 .175-.443.42-.997.865-1.118.592-.166 2.594.068 2.963-.07 1.376-.53 2.415-1.306 3.607-2.314a8.7 8.7 0 0 0 3.233 1.674v3.69l-5.318.084c-2.044.525-3.711 2.065-5.13 4.521 1.739-.907 3.072-.48 3.642.641a5.3 5.3 0 0 1 2.56.252c.154.858.1 1.66.129 2.437.005.1.326.343.418.422m44.742-14.204c.847.32.263 1.74.394 2.491l-1.277 13.227c-.675 2.341-7.388 15.202-14.34 19.983-6.95 4.775-21.888 9.64-21.888 9.64.2-.087-1.027 0-1.493 0-.09.476-.49 1.038-.915.966-.267-.04-.818-.843-1.044-.895-.546-.135-2.364.14-2.844-.072-.563-.24-1.796-1.993-2.36-2.235-.48-.207-2.32-.146-2.861 0-.282.082-.983.893-1.388 1.258a11.9 11.9 0 0 0-3.294-1.353c-.138-2.348.257-4.76.529-6.859.15-1.1 1.672-1.999 1.73-3.117l7.768-.05c.385-.73.492-1.466.332-2.173 0 0 15.786-5.972 20.019-10.642 4.238-4.666 13.36-11.839 15.967-16.83 2.6-4.999 5.9-3.752 6.965-3.342zm-338.945-24.698c1.003.837 2.386.988 3.757.623-.031-.583.804-1.116 1.182-.653.344.426.715.812 1.27.761a2.07 2.07 0 0 1 .384-1.986c1.329-1.537 3.437-2.534 5.6-1.403.2-.94.247-2.378.613-2.558 1.959-.974 3.587-1.66 5.206-3.039-1.22-1.195-1.701-2.838-1.286-4.624-.913.53-1.844.218-2.141-.56-.426-1.116-.324-2.375-.25-2.439 1.865-1.585 3.42-1.546 4.638-2.022 1.066-.42 1.822-1.794 2.835-2.608a1.93 1.93 0 0 0-1.124-.954v-1.699a8.74 8.74 0 0 1-4.1-.359v-3.803c.783.428 1.579-.005 2.217-.599.368-.336.917-.866.726-1.52-.505 0-2.321.231-2.626 0-.822-.619-1.564-1.392-2.515-1.538l-.862-2.329c.983-.342 1.875-1.216 1.594-1.954-.387-1.009-1.594-1.468-2.635-1.689v-3.71c.973.2 1.947-.25 2.398-1.079h4.964c1.352 0 1.949-1.945 2.327-2.68.69-1.34 1.272-2.936.389-3.52-.873-.579-2.328-.176-3.537-.118l-.77 2.18a5.53 5.53 0 0 1-2.698-.253c.06-1.058-.418-1.98-1.356-2.578.642-1.147 1.69-1.949 2.384-2.918.248-.345 0-1.935 0-2.405h-5.082l-6.386-3.353c-.126-.065-1.961-.145-2.406.145-.795.506-1.671 1.142-2.846 1.18.362.876.017 1.718-.69 1.947-.427.145-1.861.081-2.453.081.428.778.016 1.585-.643 2.217-.483.467-.381 1.44-.11 2.183-.56.585-.992 1.463-1.648 1.61-.742.166-1.781-.146-2.468.382-.842.646-1.484 1.544-2.002 2.35 1.284 1.478 1.327 3.42.223 4.77-.412.498.223 1.138.784.797.638-.386 1.58-.196 1.88.491.115.251 0 1.271 0 1.593h-2.976v7.916c0 .563 1.535 1.294 2.103 2.234-1.342 2.06-1.676 4.732-.45 7.475.245.534.347 2.194 1.545 2.797.672.335 1.496.538 1.679.874.834 1.508-.78 3.075-.78 4.046v5.574c1.237-.046 2.45.635 2.979 1.967.073.176-.087 1.543.09 1.752.676.794 1.306 1.637 1.477 2.754.674-.286 1.19-.087 1.596.251m-36.753 7.878c1.52.175 3.144-.779 4.583-.887.52-.04 1.585.826 1.932.826h7.796c2.452-2.196 5.238-3.27 7.687-4.33l2.736-4.733c.718-1.103.884-2.506-.054-3.446-.69-.7-1.441-1.862-2.104-1.845-1.835.051-3.585-.792-4.888-2.04h-8.494c-.703 0-.451 2.625.928 3.746-1.796.147-2.615 1.663-3.68 2.214-.784.406-3.451 0-4.358 0 .02.644-.634 1.053-1.233.817-1.263-.503-2.512-1.18-3.275-2.27-.885-1.265-1.494-2.753-2.684-4.212-.151-.186-.983-.388-1.595-.905.216-.63-.01-1.418-.66-1.522-.5-.078-1.182-.19-1.585-.855.53-.654-.396-1.578-1.3-.847-.528-1.535-.654-2.96-.438-4.409.632.245 1.58.077 1.8-.588.193-.572.304-2.765 0-3.245-.737-1.148-2.021-2.006-2.856-3.165-.717-.993-1.15-2.163-1.308-3.434-.621.243-1.527.043-1.68-.655-.16-.76-.1-1.676-.381-2.47-1.82-.137-3.252-1.269-3.905-2.838-.236-.564.122-1.17.726-1.323 1.303-.334 1.82-1.892.958-3.08-.53.29-1.307-.198-2-.715-.838-.629-2.226-.514-3.555-.383.036.657-.666.945-1.87.64-.716-.179-1.81.848-2.514 1.961-.905 1.435-1.26 3.134-1.354 4.675-1.666.372-3.084-.109-4.174-1.035-.262-.22-1.017-1.012-1.296-1.067-.89-.167-3.677 0-4.597 0 0-.32-.181-1.428 0-1.666.413-.55 1.025-1.062 1.193-1.925-.478-.212-2.058-.725-2.197-.944-.44-.693-.03-1.87.653-1.87.733-.004 3.174 1.792 4.017 2.17 1.313.59 2.959-.112 3.35-1.496.17-.623.375-2.885.065-3.328-.525-.749-3.757-1.903-4.102-2.59-.425-.858 0-3.826 0-4.706-.707-.154-1.442-.052-2.25.377.775 1.01.378 2.381-.73 2.783 0 .527.2 2.254 0 2.422l-3.925 3.687c-.555.575-3.987.315-4.761.751-1.142.646-2.095 1.8-2.62 2.834-.583 1.143-.271 2.465.264 3.591.73-.247 1.556-.05 1.726.555.163.571-.146 2.676.153 3.06.644.842 1.796 1.56 1.88 2.398.098.977-.348 1.871-.018 2.493.759 1.42 2.273 2.273 3.835 2.751-.13.583-.561 1.744-.47 2.042.089.301.93 1.072 1.206 1.143.606.15 2.587-.013 2.625.005 3.85 1.98 7.124 3.9 10.204 6.087 1.374.98 2.85 1.883 4.063 3.073.862.84 2.124 1.175 3.35 1.33v1.917c.78-.428 1.435.317 2.303.845 2.003 1.208 4.54 2.523 5.633 5.015 1.25 2.871 4.166 4.225 7.224 4.577.37.046 1.68 1.813 2.227 2.114.269.146 1.428-.069 1.705.073.468.233 1.582 1.791 2.089 1.852m316.456-24.764c.546.212 1.313.311 1.937.093.393-.135.772-.593.854-.938.308-1.297-.308-2.689-.116-3.822.11-.657.985-1.355 1.59-1.556.854-.276 3.7 0 4.616 0 0-.322.114-1.332 0-1.612-.117-.294-.893-.997-1.167-1.305a5.53 5.53 0 0 0 .157-3.707c.578-.597 1.09-1.57 1.614-1.57h6.47c.198-1.729 1.307-3.245 3.234-4.099.16-.079 2.083.264 2.5 0 1.05-.662 1.83-1.805 2.869-2.632l-2.556-2.636a1.046 1.046 0 0 1-1.422-.628 3.6 3.6 0 0 1 .153-2.542l4.466-.113c.364-1.084 1.048-2.085 1.38-2.952.4-1.035.2-2.008-.094-2.923-1.112.007-2.058-.507-2.495-1.18-3.121 2.036-6.52 3.897-9.102 3.606-1.636-.188-2.478.336-2.934-.26-.398-.51-1.248-.525-1.96-.369v-2.52c-.742-.148-1.113-1.265-.472-1.468.794-.246 1.95.11 2.558-.428.376-.323.2-1.08.126-1.688.702.343 1.442.053 1.794-.576.376-.668.075-1.518-.79-1.74.246-1.494 1.664-2.08 3.198-2.325l-1.415-3.337c1.264-.335 2.286-.833 3.245-1.562-.537-1.422-1.403-2.733-2.18-4.133.823-1.175 1.782-2.169 2.723-2.89 1.28.732 3.127 1.224 3.55 2.307.552 1.415-.047 3.29.445 4.881.35-1.318.845-2.585 1.692-3.704-.245-.366-.784-.728-1.056-1.215-.155-.275.107-1.443 0-1.75-.11-.287-.897-.996-1.28-1.418.688-1.806.664-4.158-1.443-5.623 1.488-.523 1.8-1.717 1.767-2.53-.058-1.407 1.468-1.81 1.81-1.827 2.549-.12 4.093-1.336 4.496-3.086-.69-.579-1.425-.863-1.935-.883-.614-1.707-1.53-3.179-3.038-3.885-.43-.204-2.464 0-3.151 0a1.25 1.25 0 0 0-.961-.977c-.723.96-2.036 1.413-3 .767-.837-.55-1.842-1.052-2.454-1.478-.874-.596-1.347-1.204-2.21-1.646 1.778-2.408 4.159-4.142 6.555-6.469-1.733-.703-4.022.006-4.787-.57l-5.174-3.665a25.8 25.8 0 0 1 3.16-4.768c.595.643 1.573-.048 1.048-.64-.68-.77-1.78-1.198-2.92-1.509.26-.774.064-1.558-.543-1.772-.357-.125-1.75-.14-1.97 0-.55.357-1.705 1.77-1.571 1.695-2.491 1.352-4.656 1.632-7.153 1.07l-.032-2.666c-1.298-.198-2.182-.109-3.17.234.44 1.131-.536 2.041-1.218 2.093-1.437.098-2.241 1.115-3.253 1.671-.563.313-3.34 0-4.301 0-.446-.82-1.432-1.276-2.51-1.05.37-1.13.146-2.27-.931-3.569l-.063 10.328c0 .473-1.845 1.87-2 2.18-.617 1.218-.025 2.305.728 2.91.458.37.78.816 1.269.973 0 .677-.25 2.716 0 3.25.313.712 1.024 1.42 1.71 1.747.487.227 2.307 0 2.953 0 .034-.64.757-1.196 1.315-.748.549.438 1.357.926 1.51.883a111 111 0 0 0 8.002 8.424c.114 2.766 1.299 5.675 3.648 6.852 1.22.608.733 2.677-.558 3.082-.536.17-1.514.017-1.823.524-.701 1.143-.43 2.587.078 3.71.6 0 1.92-.149 2.287 0 .37.15 1.31 1.165 1.419 1.455.347.907.15 1.854-.281 2.646h-1.743c.386.785.102 1.668-.578 2.138-.687.485-.572 1.684.33 1.832.432.071 1.15.202 1.323.795.348 1.153.197 2.41-.364 3.517-.721-.243-1.386-.004-1.847.774.719.858 1.189 2.02 1.29 3.284 1.356-.2 2.958-.255 3.717.49.736.72.039 1.753-.78 1.874 0 .946.312 3.675 0 4.473-.283.711-1.57.88-2.445.355-.772-.47-1.724-1.102-2.896-1.357.33-1.134.216-2.253-.45-2.743-.48-.352-1.162 0-1.205.553-.073.792-.43 1.673-1.204 2.054v6.18c0 .788-1.24 1.895-1.723 2.526-.712.925-1.44 1.546-1.753 2.527l2.357 1.036v6.313c0 .602-1.17.84-1.612.664-.745 1.812-1.64 3.48-3.126 5.708l2.449-1.644c.42.738 1.085 1.257 1.58.998.969-.505 1.903-1.192 2.952-1.42v-2.608c1.364.15 2.837.394 3.774 1.324.638.628.063 1.821-.85 2.251.18.874-.31 1.644-1.07 1.805.005.784-.063 2.728 0 3.371.015.091.265.438.437.508M417.584 620.72c-1.045-1.292-2.528-2.329-2.731-4.06-1.067.154-1.935-.306-2.32-1.076-.585 0-2.131-.136-2.478 0-.83.336-2.843 1.883-3.67 2.235-.277.12-1.67-.159-2.01 0-.561.27-1.112.808-1.37 1.345-.176.36.127 1.752 0 2.136-.098.291-1.123.992-1.123 1.24v5.081c0 .393.682.691 1.123.861v2.536c1.02.411 1.759 1.343 1.92 2.37-.696.313-1.217-.49-.825-.843-.533-.66-1.3-.056-.885.517l6.273 8.754c.817-.424 1.62-.109 1.977.554.789 1.445 2.246 2.393 3.955 2.69-.276.825-.057 1.621.59 1.72.506.078 1.19.187 1.588.852-.53.657.396 1.577 1.238.902.983 2.863 3.168 4.774 5.44 6.29 1.402.94 2.815 1.94 3.724 3.085 2.922.734 5.489 2.388 6.309 5.364 1.088-.427 2.127.541 1.73 1.823 2.502.59 4.21 2.587 4.926 4.944.396 1.32 1.382 2.35 2.837 2.61.287.05 1.182 1.134 1.63 1.567-.901.507-1.297 1.518-.97 2.538.68-.375 1.46.143 2.12.552 1.215.752 2.355 1.958 3.504 2.74.722.493 3.97.27 4.833 0 .559-.182 1.888-2.239 2.36-2.239h5.09c.473 0 1.853 1.887 2.314 2.057 1.214.455 2.488.204 3.687-.363-.468-.78.01-1.477.6-2.047 1.058-1.025 1.36-3.032 2.864-3.745.513-.24 2.56 0 3.226 0 .17.441.418.984.86 1.116.513.158 2.315.148 2.848 0 .285-.076.99-.893 1.334-1.199 1.3.442 2.62-.342 3.646-1.467.81-.882 2.467-.325 3.522-.626 1.078-.306 1.749-1.693 2.752-2.727a27 27 0 0 1-2.145-4.075c-.205-.492-.023-1.456.38-1.456h8.45c.585 0 .928-1.587.444-2.484-.256-.486-1.958-2.01-2.575-2.638-.861.913-2.243 1.426-3.361.77-.364-.212-.767-.86-1.352-1.067a5.5 5.5 0 0 1 .238-2.635l2.475-.124a2.25 2.25 0 0 1 1.384-1.366c-.137-.89-.176-2.049.176-2.207 2.232-.99 3.939-2.356 6.016-3.226.238-.095.147-.91.09-1.4-2.722-.06-5.474-.114-8.253.284-1.191.171-2.5-.323-3.975-.3.023-1.174-.183-2.338-.681-3.619-.571.883-1.606 1.473-1.606 1.99v5.225c0 .53 1.934.696 2.978.435v1.987a8.8 8.8 0 0 0-4.152.37c.159 1.087-.301 1.956-1.234 2.417.996 2.535-.618 4.905-1.068 7.541-.98-.383-2.02.585-1.57 2.032-2.653.048-4.891 1.237-7.19 2.594.05.231.13 1.192-.405 1.624-.454.365-1.27.177-1.898.118v1.608c-2.427 1.233-4.961-.19-6.181-2.287-.32-.546-.037-1.155.5-1.485 1.31-.807 2.85-.93 4.28-1.143.569-.088 1.23-.838 1.4-1.376.258-.812 0-3.5 0-4.36 1.079-.548 1.51-1.846 1.018-2.944a1.58 1.58 0 0 0-1.017-.884v-1.645h-8.692c-.395 0-1.52 1.648-1.988 1.861-.348.16-1.961-.237-2.17 0l-3.543 3.538c-.24.208-.002 1.753-.002 2.267-.767.382-1.425 1.332-1.092 2.167.213.532.86 1.343 1.322 1.343h7.444c.56 0 .772 1.786.342 2.647-.722 1.45-2.32 2.456-3.758 2.12-.734-.174-1.465-.12-1.834.661-.366-.78-1.132-.563-1.954-.547-1.443.023-3.155.392-4.818.83.137.785.014 1.435-.385 1.574-1.268.441-2.661.192-3.833-.264 0-.534-.216-1.864 0-2.025 1.472-1.116 2.763-2.679 3.29-4.534l.297-6.415c.049-1.61-2.25-2.43-3.752-2.633.364-1.027.313-1.874-.058-2.59h-4.418c-.09.477-.461.861-1.024.99-.171-.668-.981-1.065-1.316-.62-.352.457-.903 1.023-1.414.694-.53-.338-1.01-.967-1.736-1.344.313-.73-.03-1.505-.67-1.964-.54-.39-.993-.91-1.585-1.382.37-.692.047-1.489-.61-1.86-.97-.545-1.527-1.608-1.596-2.827-.807.274-1.61.05-1.692-.607-.058-.48-.243-1.076-.808-1.375-1.457-.778-2.811-1.747-4.318-2.409-1.003-.444-1.77-1.388-2.668-1.829-.757-.367-3.696 0-4.74 0 .453-.773.148-1.735-.646-1.969-1.068-.314-2.206-.34-3.162-.253-.468-1.614-1.658-2.793-2.874-4.182-.527-.604-1.087-1.643-1.498-2.395-.616-1.127-.291-2.46.199-3.497.807 0 2.77-.059 2.918 0l5.355 2.404a1.395 1.395 0 0 0 .366 1.877c1.526 1.061 3.177 1.384 4.818 1.691.529.097 1.795 1.945 2.346 2.224.34.172 1.768-.105 1.964.036 1.512 1.063 3.1 1.817 4.857 2.405-.381.695-.124 1.21.347 1.516l4.165 2.495c1.233 2.555 3.42 4.401 6.526 5.47.198.07.467-1.138.062-1.879.653-.705 1.122-1.517 1.81-1.842.485-.23 2.413-.222 2.874 0 .712.34 1.473 1.102 1.522 1.6.2 2.012.959 3.763 1.905 5.305.692 1.12 1.544 2.4 2.646 2.341.74-.032 1.126-.749.836-1.23-.25-.427-.761-.803-1.118-1.35 1.704-.412 2.88-1.714 4.129-3.042-.29-.478.129-1.214.73-1.67.513-.398.522-1.246.333-2.114.856.471 1.62-.04 2.358-.564.795-.555 2.323-.597 2.83-1.992a17.3 17.3 0 0 0-4.57-.228c-.267-.682-.978-1.068-1.743-.908.084.761-.79.846-.975.231-.414-1.396.429-3.839 2.01-3.476l4.753.596c2.017-.089 3.894-1.045 5.702-2.288.3-.212-.013-1.182-.222-1.29-2.763-1.467-5.665-1.368-7.977.09-.916.581-1.784 1.266-2.77 1.788-.284.157-1.712-.108-2.023.114-.838.614-1.631 1.568-2.358 1.602-1.436.046-2.721-.515-2.982-1.308-.516-1.592-1.7-2.764-3.295-2.673-.315-.71-.961-1.255-1.63-1.757-.651-.493-1.576-.107-1.456.823.669-.159 1.008.53.624.951-.591.646-.977 1.453-1.206 2.248-.72 0-2.492.165-2.906 0-.836-.312-2.887-1.789-3.632-2.107-1.336-.575-2.901-.158-3.857 1.001l-1.5-1.092c-.131.84-.91 1.358-1.595.9-.786-.519-1.735-1.133-2.92-1.33 1.168-.846 2.1-2.584 2.925-2.584h7.398c.168-.444.473-1.128.853-1.118 2.436.075 4.849-.61 6.902-1.939.748-.483 1.41-1.09 1.903-1.792-1.027-.722-1.682-1.717-2.556-2.236-.456-.266-2.435.221-2.896 0-.713-.337-1.307-1.079-1.587-1.715-.37-.838-.415-2.115.068-2.459 1.189-.855 2.904-.813 3.587-1.636.604-.714.304-1.779.008-2.613-.867-.149-2.085.188-2.37-.133-1.317-1.497-3.562-1.72-4.735-3.305-.88-1.192-3.121-1.313-4.745-.693-.206.083-.596 1.687-.75 2.127h-1.653v1.877a29 29 0 0 1-6.514-.814c-.221-.052-.954-.82-1.224-1.036-.626-.49-1.624-.036-1.516.14.9 1.545 1.33 2.717 1.393 3.638 1.407.613 2.188 1.53 3.056 2.152.304.222 1.563.024 1.507 0l6.448 3.467c-.364.848-.856 1.552-1.682 1.751-.684.163-3.381.13-4.017-.126-1.305-.52-2.66-.415-3.836-.552-.593-.07-1.872-2.026-2.431-2.299-.341-.17-1.691 0-2.167 0-.117-.625-.671-1.085-1.264-1.202m256.12 14.067c9.189 1.838 11.112 5.761 11.112 5.761.277.276 1.816 0 2.33 0-.044.702.806 1.256 1.13.915.55-.58 1.008-1.035 1.256-1.519.179-.347-.095-1.842.034-1.933 2.162-1.497 1.823-4.299.684-6.416 1.022-.363 1.515-.859 1.75-1.514.889.132 1.908.145 2.17-.233 1.049-1.496 1.884-2.879 3.136-3.827.223-.172 1.677-.15 2.039 0 .366.15 1.364 1.164 1.437 1.52.17.802.456 1.657 1.672 2.455-1.223-.085-1.711.572-1.434.862 1.116 1.173 2.395 1.91 3.733 2.451.694.278 1.483.21 2.28-.257-.39-1.238.069-2.578 1.205-3.35l-2.226-1.933c.69-.549 1.226-1.443.88-2.246-.253-.596-1.134-.815-1.965-.852l.316-3.87c.612 0 2.04.227 2.354 0 .777-.567 1.583-1.288 2.573-1.322.073-1.13.532-2.024 1.197-2.56-.187-.664-.425-1.246-.857-1.335-.893-.187-3.787-.078-4.655.167-1.578.44-2.728 2.853-4.923 3.206-1.958.314-4.847.9-7.791.663-.196.505-.447 1.081-.891 1.18-.813.19-3.507-.185-4.323 0-.432.1-.69.68-.854 1.122-.441 0-1.755.124-2.136 0-.286-.096-.95-1.03-1.238-1.122-.434-.13-1.888 0-2.364 0v-2.76a2.23 2.23 0 0 0 1.34-1.339s11.505-3.325 12.68-4.098c.306-.199 9.398-7.285 9.774-8.096.22-.463 8.806-8.843 10.184-10.885.423-.62 1.323-1.388.833-2.14-.537-.846-.867-2.01-.981-3.039-.092-.825-1.432-1.178-2.4-.532-.624.418-1.52 1.02-2.663 1.051.296.897-.034 1.848-.87 1.872-1.122.03-2.635-1.423-2.271-2.56.287-.876 1.622-1.367 2.423-2.11-.72-.466-1.194-1.162-1.83-1.502-.372-.206-1.898 0-2.445 0a1.604 1.604 0 0 1-.973 2.071c-1.398.482-2.541 1.477-3.257 2.822.626.337 1.359.44 2.616.16-1.543 1.35-3.155 1.657-4.643 1.138v2.006h-4.097c0-.696-.257-2.894 0-3.472.299-.713 1.027-1.394 1.71-1.749.392-.199 1.914 0 2.387 0 0-.467-.216-2.023 0-2.353.716-1.114 1.876-1.933 2.94-2.96.694.565 1.623-.358 1.116-.983.515-.838 2.235-2.926 2.3-3.773.093-1.129-1.446-2.38-2.681-2.296-.347.024-15.11 8.8-14.342 22.696.024.508-1.265-.342-1.952-.639-1.641-.717-6.073-1.797-6.245-2.237-.74 0-18.958 1.692-19.502 1.834-.886.24-2.867 1.994-3.72 2.264-.627.202-3.202-.294-3.9 0-.594.252-1.06 1.02-1.71 1.361 0 .651.32 2.794 0 3.3-.495.772-1.665 1.431-1.617 1.898.127 1.154.81 3.53 1.005 3.568 2.068.42 3.39 1.95 3.97 3.62.137.398-.683.844-1.123 1.013v1.633h5.093c.822 0 1.148.871.95 1.458-.26.79-1.191 1.134-1.938.634v2.258c2.196-1.274 4.334.306 5.616 1.968.667 2.185 2.735 3.352 4.022 3.94 1.442.66 1.755 2.014 2.566 2.41.349.17 1.85 0 2.27 0a8.85 8.85 0 0 1-.36 4.101h-7.828c.155-.71.14-1.56-.328-1.894-.927-.659-2.318-.487-2.607.123-.791 1.64-1.82 2.9-3.35 3.29-1.336.344-2.73.47-4.106.302 0-.877.35-4.16 0-4.38-3.204-2.084-5.563-5.105-8.995-6.759-.21.438-.677 1.067-.961.961-.97-.372-1.823-1.049-2.143-1.478-.821-1.092-.435-2.436.48-2.638 1.146-.253 1.889-1.515 1.097-2.498-.548-.678-1.45-.963-2.548-.432.034-.014-.702.704-.932.77-.89.257-2.073.394-2.617-.178-.441-.462-.388-1.495-.133-2.099.235-.539 1.832-1.84 2.087-2.398.59-1.27-.157-2.687-1.245-3.35-1.148-.71-1.602-1.983-2.772-2.667.364-.589-.068-1.296-.534-1.608-.874-.586-1.373-1.397-1.995-2.19-.607.365-1.35-.078-1.738-.445-1.208-1.153-2.806-1.59-4.432-1.819-.873 1.355-2.335 2.078-3.587 2.826-.61.366-.071 1.396.689 1.611.944.26 1.772.823 2.296 1.501-.662 1.058-1.771 1.646-2.942 1.612.217 1.358 1.192 2.433 1.862 3.57.316.53 0 2.805 0 3.498-.323 0-1.391.15-1.61 0-.95-.659-1.812-1.563-2.327-2.573-.92-1.794-2.422-3.129-3.842-4.262-.5-.389-1.413.953-1.214 1.844.67.113 1.088.848.583 1.48-.216.274-.684.681-.86 1.272.879.488 1.248 1.382.99 2.341.778-.299 1.68-.1 1.834.61.099.496.179 1.322.83 1.421.497.077 1.522.185 1.522.75v5.305c-1.908.598-3.792 1.454-5.94 2.685-.594-2.893-2.007-5.065-4.395-6.616-.656-.428-2.423-.405-3.573-.547-1.437-.172-3 .882-3.374 2.338-.281 1.13-.531 2.57-1.485 3.665-.534.623-.957 1.378-1.076 1.402-2.983.715-5.097 1.95-7.594 2.406-.981.182-1.816 1.776-2.864 2.85 1.075 1.42 1.522 3.226 1.19 5.234l38.596 29.424c9.048-16.818 20.96-24.063 25.616-26.908 5.17-5.177 10.61-6.468 18.369-4.918M504.39 621.872c-.037-.648.26-2.9-.037-3.424-.634-1.14-1.722-2.193-2.833-2.864-.44-.258-2.32.036-2.405 0l-5.286-2.364c.25-.736.005-1.732-.554-1.732h-5.177c-.28 1.38-.69 2.923-1.706 3.983-.393.411-1.64.442-2.301.098-.978-.51-1.961-1.464-2.47-2.447-.295-.565 0-2.803 0-3.409l7.322.145c.5.014 1.21-1.274 1.505-1.35.526-.148 2.305.056 2.623-.063 1.247-.462 1.917-1.524 2.022-2.684-1.022-.374-1.495-1.478-.957-2.704-.993.544-2.074.267-2.155-.289-.202-1.329.026-2.48.2-3.655 1.45.24 2.8.105 4.082-.395-.263-.762-.024-1.83.66-1.836.738 0 3.19 1.76 4.01 2.214.553.304 1.663-.585 1.225-.925-1.358-1.028-1.691-3.775.163-4.935 1.493-.928 2.949.844 4.088 1.103 1.83.424 3.633.82 5.57.616.704-.074.89-1.433.122-1.996-.311-.224-.905-.147-1.488-.077.27-.713.07-1.622-.632-1.776-.502-.104-1.332-.178-1.434-.86-.148-.99.606-2.204 1.779-2.608.59-.2 3.095-.177 3.827 0 .44.111.693.682.86 1.12.896 0 3.585.253 4.362 0 .563-.182 1.375-.888 1.375-1.344v-6.856c-.698 0-2.886-.229-3.41 0-1.08.49-2.896 1.406-3.318.611-.71-1.313-2.006-2.63-3.394-4.125.584-1.136 1.93-1.768 3.112-2.494.538-.328 1.208.15 1.22.898l8.026-1.204 9.799-.017c.664 0 .285-1.397-.318-1.277-.476-.795-.143-1.644.783-1.917-.123-1.612.074-4.244 1.12-4.409 1.684-.276 3.322-.686 5.01-.564v5.667c0 .607-1.173.842-1.98.524.314.804.112 1.708-.595 1.864-.496.104-1.338.152-1.523.761-.152.498-.217 2.351 0 2.841.209.491.806.847 1.22 1.476-1.22.276-2.425.214-3.473.362-.674.087-1.022 1.002-.48 1.585.838.898 1.797 2.086 1.942 3.262 1.646.563 2.59 1.624 3.564 2.492.235.214 1.516.068 1.726-.069 1.424-.916 2.717-2.563 2.409-3.562-.593-1.945-1.383-3.529-2.648-4.412-.551-.386-.397-1.967.158-2.257 1.065-.554 2.53-.175 3.844-.115-.266.678-.1 1.607.564 1.846.47.174 2.174 0 2.844 0-.437-.78-.058-1.605.622-2.179.466-.383.49-1.21.388-1.674 1.898-.949 4.32-.29 5.23 1.636.316.675 2.326.206 2.845.457 3.26 1.584 5.66 3.602 7.636 5.856.357.41 2.782.081 3.367-.11 2.869-.955 5.946-1.028 8.868-.11 2.445.761 4.998 1.147 7.464 1.426.619.067 1.444-1.184 1.529-1.554.777-3.448.379-6.708-1.262-9.709h-1.781v2.802c-.746.091-1.331.838-.986 1.653.172.415.022 1.004-.44 1.39-2.014 1.684-4.655.647-6.718-.89-.165-.125-.221-.846-.038-1.37.089-.269.944-.972.953-1.09.185-2.006 1.008-3.687 1.913-5.285.66-1.15 1.065-2.536 1.774-3.202.71-.675 1.66-.863 2.31-1.418.639.9 1.457 1.394 2.346 1.514v3.657c.917 0 4.13-.469 4.623 0 1.4 1.347 2.34 3.13 2.702 5.333.83-.563 1.65-.897 1.99-1.549.236-.454-.155-2.55 0-3.158.073-.288 1.044-.957 1.117-1.245.155-.607-.093-2.624 0-2.838.594-1.309 1.402-2.15 1.864-3.276.174-.42 0-2.43 0-3.349 1.196.2 2.199.912 2.769 1.975.74-.267 1.342.1 1.682.622.49.734 1.22 1.24 2.092 1.85-.713 1.494-1.776 2.77-3.211 3.827-.636-.517-1.56.405-.913 1.211-.757.304-1.32.885-1.182 1.138.7 1.306.99 2.641 1.362 3.351.643 1.246 1.362 2.074 2.058 2.447.546.297 2.607-.084 2.374.024 3.22-1.47 5.338-3.218 7.168-5.654.247 1.224 1.109 1.735 2.036 1.444.063-.706.866-1.23 1.83-.917-.818.588-1.408 1.478-1.2 2.247.246.911 1.295 1.323 1.766 2.004.293.422 0 2.567 0 3.363 1.155.4 1.432 2 .395 2.74-.62.44.1 1.347.874.58 2.316 1.05 4.825-.32 6.182-2.854.122-.229-1.752-2.829-2.092-3.946-.156-.506-.68-1.314-.99-1.857-.64-1.13-.3-2.469.19-3.513.579 0 1.829.044 1.737 0 2.194.908 3.733 2.023 5.276 3.803 1.554-.075 3.275.408 4.986 1.571-.131-.925.67-1.353.883-.835.202.476.804.755 1.202.327.592-.643 1.42-1.004 2.233-1.235-.08-1.127.483-2.057 1.41-2.359a3.58 3.58 0 0 1 2.54.147l.113 4.49c1.075.232 2.277 1.63 3.012 1.458 3.117-.724 7.007-.01 8.908 3.254.388-.772.898-1.26 1.602-1.57-.352-.7 0-1.442.602-1.875 1.636-1.143 3.393-2.094 5.648-3.074-.022.01 1.393 0 1.859 0v-1.863c.476 0 2.005.191 2.337 0 1.083-.637 2.112-1.534 2.879-2.608.2-.278 0-2.062 0-2.606-.37 0-1.602.116-1.721 0-.663-.649.37-1.592 1.337-.725.403-2.239.384-4.17.22-6.203-.04-.462-1.118-.718-1.95-.757l.306-3.867c.624 0 2.029-.203 2.31 0 1.289.93 2.129 2.522 3.459 3.355.42.264 2.31-.034 2.845.11 1.427.386 2.922 1.105 3.63 2.391.23.422.268 2.442 0 2.841-.871 1.315-2.385 2.215-3.174 3.478-.418.664-.291 1.641.189 2 .92.68 2.4.524 2.733-.274.42-1.01.986-2.107 2.199-2.239.294.866 1.25 1.125 2.629.287.318-.189 1.252-.832 1.723-1.793-.643-.735-1.092-1.498-1.405-1.66-1.563-.8-2.777-1.464-3.791-2.619.759-.683 1.208-1.902.558-3.134 1.379-.534 2.748-.568 3.272-.683 2.167-.477 3.636-1.369 4.383-2.732.219-.399.073-2.267-.082-2.649-.462-1.137-1.583-1.715-2.69-1.722-.148-1.062.835-1.68 1.82-1.039-.363-.942-.164-1.852.544-2 .49-.105 1.32-.15 1.522-.765.136-.404 0-1.86 0-2.396.694.262 1.515.051 1.64-.355.479-1.49 1.275-2.593 2.46-3.169v-2.852a1.63 1.63 0 0 0 2.12-.594c.273-.439.875-.614 1.472-.313.158.077.835.906 1.126 1.012.306.114 1.46-.097 1.716.1.517.383 1.06.89 1.777 1.012-.376-.918.796-1.714 1.449-1.008.534-.388.83-.78 1-1.222h1.636c0-.47-.131-1.928 0-2.358.087-.292 1.2-1.067 1.13-1.342-.51-2.067-.091-4.376.967-6.217-.374-.646-1.058-.315-1.223.024-.624 1.27-1.88 1.898-3.204 2.101.187.966.772 1.553.978 2.04.556 1.296.264 2.713-.197 3.892-.983 0-3.61.343-4.102 0-1.25-.856-.803-2.954.297-3.767-.952-1.714-2.372-2.706-4.097-2.973.266-1.054.662-1.815 1.395-2.69-.757.024-2.43.355-2.61.106-1.111-1.492-2.761-2.605-4.613-3.1-1.29 1.635-2.813 3.138-4.702 4.58.81 1.096 1.355 2.303 1.663 3.72.949-.642 1.43-1.66 2.223-2.21.403-.278 2.867-.269 3.15.09 1.149 1.443 2.83 2.478 5.273 3.356-1.86.734-3.265.854-4.687.55a3.16 3.16 0 0 1-.326 2.294c-.801-.228-1.65.07-2.077.76-.655 1.073-1.282 2.175-2.107 3.104-.626.716-.927 1.705-.568 2.56-.306.325-1.094 1.03-1.19 1.321-.133.38 0 1.687 0 2.142-.965.351-1.441 1.458-.912 2.682-.988-.54-1.908-.24-2.354.717-1.112-.837-2.486-1.148-3.995-.842.492-.884-.008-1.662-.505-2.362-.554-.772-.901-1.968-1.954-2.958.726 0 1.735.09 1.934 0 .799-.376 2.884-1.71 3.452-2.268.62-.596 1.415-.98 2.478-.87-.63-1.129-1.36-1.844-2.245-2.328 0-.496.024-2.003 0-2.056a28.5 28.5 0 0 0-2.437-3.724c-.665.224-1.456.003-1.553-.645-.086-.502-.175-1.319-.821-1.419-.502-.08-1.332-.169-1.408-.827-.1-.915-.208-2.003-.941-2.887a1.186 1.186 0 0 0 0-2.097c.733-.888.56-2.073.786-2.912.272-.98 1.456-1.562 2.296-2.165a2 2 0 0 0-1.131-.988c0-.448-.196-1.836 0-2.132.612-.976 1.466-2.027 2.454-2.489.735-.343 3.505-.04 4.357.09 1.798.256 3.548.826 5.092 1.79.587.366.279 1.126-.226 1.337-.638.26.173 1.121.653.37.206-.314.876-.792 1.49-.457 1.394.772 3.204 2.114 4.258 1.614 2.15-1.016 4.633-.853 6.723.01.485.205 1.233-.06 1.23-.486l-.048-7.966c-.007-.738 1.26-.982 1.828-.757.439-.799.133-1.715-.767-2.136-.034-.692-.26-1.603-.823-1.782-1.107-.346-2.148-.949-2.44-2.172 1.175.374 2.486.211 3.07-.637.365-.535-.087-1.488-.841-1.488h-7.39v-5.746c-.962-.355-1.44-1.46-1.006-2.449h-1.973v-4.778l-4.1-1.799v-3.66c2.398-.982 4.76.467 5.93 2.59.62 1.15 2.983 1.258 4.344 1.902-.223 1.05-.424 2.043-.036 2.842.452.917 1.136 1.847 1.359 2.86 1.059.052 1.86.452 2.457 1.17.832-1.336.024-2.539-.64-3.514-.448-.663-.17-3.61 0-4.443.06-.283 1.055-.959 1.115-1.248.165-.68.253-2.983 0-3.582-.31-.759-1.172-1.248-1.973-1.902a8.3 8.3 0 0 0-.204 3.275c-.832-.463-1.67-.09-2.18.53-.458.546-1.363.06-1.388-.513l-5.87-1.347c.438-1.043 1.71-1.489 2.696-.948 1.128-1.117 2.012-2.337 3.186-3.08.314-.2 1.765.083 2.687.106-1.456-1.387-1.78-3.09-1.145-4.452-.772-.88-1.238-1.796-1.47-2.74-.817 0-2.83.197-3.341 0-.505-.19-.563-.948-.35-1.43.33-.706 1.16-1.038 1.77-.78.446-.804.143-1.724-.765-2.139-.026-.695-.315-1.43-.876-2.09-.915.534-1.818-.655-1.235-1.229l-2.214-3.58c.473-.589-.456-1.512-1.415-.74-.255-1.529-1.11-2.532-2.075-3.78-.457-.596-1.22-1.605-1.362-2.166-.764-3.063-.424-5.997 1.13-8.538-1.331-.487-1.807-1.596-1.278-2.825-.988.552-1.908.25-2.267-.529-1.667.25-3.471 1.056-3.874 2.762-.223.931 1.299 1.49 2.318.79.544 1.016 1.529 1.468 2.35 1.3.558.773-.367 1.6-.966 1.062-.767.576-1.224 1.27-1.77 1.873-1.18 1.304-3.01 1.68-5.123.702-.396-.182-1.493-.374-2.45-.38-.482-.006-.778-.567-.948-1.01h-5.525c-.886 0-2.25 1.324-3.548 1.58-1.876.375-3.796.17-5.665.014-1.396-.116-3.313-.773-4.435.705-.36.468-1.17.964-1.95.592-.2.528-.455 1.084-.894 1.208-.588.165-2.61-.152-3.214 0-.291.072-.954 1.031-1.238 1.114-.463.138-2.06.114-2.434-.108-.925-.557-1.862-1.202-3.051-1.463.33-.769.034-1.396-.525-1.699-1.135-.614-2.373.275-2.448 1.5-.022.426-.547.714-1.095.925.417.685-.141 1.285-.651 1.75-.553.496-1.281 2.922-1.648 3.757.81.044 1.355.748.935 1.31-.262.352-.971-.148-.923-.797-2.762.152-5.412-.172-7.315-.406-1.636-.21-2.665-1.579-2.935-2.356-.351-1.049.24-2.379.33-3.277 1.622-.556 2.496-1.799 3.537-2.487.614-.402 3.289.11 4.007-.107.67-.195.874-1.064.556-1.867.806.311 1.748.106 1.854-.639.236-1.618-1.633-3.017-3.451-2.522-.32.084-.583.594-.796 1.162-1.29-.383-3.03-.463-3.796-1.424-.67-.833-.408-3.062.289-3.65 1.162-.99 2.893-.85 3.502-1.605.587-.727.29-1.784-.002-2.623-1.491-.144-2.94-.377-4.326-.122-.412.077-.672.658-.842 1.102-.662 0-2.985-.294-3.206 0-1.738 2.26-4.668 2.69-6.84 4.37-.646.51-.862 1.535-1.466 1.963-.255.183-1.342 0-1.668 0v2.82c-.606-.046-1.11.658-.728.974.658.562 1.034 1.393.568 2.246.867-.192 1.753-.179 2.042.311.672 1.156.415 2.588-.14 3.808-.746-.257-1.511-.05-1.742.55-.101.257 0 1.264 0 1.531a8.9 8.9 0 0 1-4.213-.39c.267-.792.07-1.604-.527-1.787-.507-.156-2.315-.105-2.75.102-.912.434-1.437 1.524-2.19 1.858-1.385.605-3.1.287-4.766.003.053-1.38.937-2.38 1.806-3.149.63-.552 1.424-.989 2.325-.49-.34-1.164.148-2.176 1.078-2.546.548.726 1.383-.329.47-.602-.376-.113-.116-.679.049-1.436.362-1.56.665-3.474.46-5.473-.09-.86-1.494-1.815-2.47-2.22-1.308-.545-2.35.804-2.757 2.22-.18.622-.956 1.427-1.65 1.67-.86.307-3.884.274-4.74 0-.557-.175-1.804-1.956-2.357-2.236-.34-.17-1.806.187-2.112 0-.796-.483-2.723-2.695-3.413-3.354-.83-.8-2.048-1.02-3.174-.639v3.996c.376 0 1.344.087 1.286-.003 2.063 3.406 4.786 6.017 8.869 7.782-1.653.337-2.354 1.31-1.874 2.115.529.881 1.554 1.595 2.437 2.453.566-.248 1.199.045 1.498.616.354.68-.476 1.35-.63 1.806-.844 2.638-.28 5.323 1.467 7.732.34.476 2.192.248 3.449.69-.26.772-.063 1.56.539 1.772.359.123 1.747-.112 2.048.11 1.046.782 2.31 1.261 3.63 1.457 3.878.585 7.844.343 11.89-.636.048-.012.869-1.01 1.14-.945 2.07.51 4.372.09 6.503-1.134-.11.798.687 1.227.912.715.205-.482.879-.819 1.134-.294.34.688 1.362.55 1.46-.869.542 1.3 1.474 1.47 2.203.691.83.704 2.067 1.182 3.276.852.36-.1.617-.627.787-1.066h5.502c.168-.44.466-1.117.862-1.117h8.437c.247 0 .987-.897 1.308-1.18.87.32 1.9-.683 2.502-.683h10.605c.825 0 1.354 1.151 1.587 2.16l-7.07 3.838c-1.37-.595-3.43-.093-4.457 1.436-.68 1.013-2.373.597-3.446.711-.88.094-2.913 1.808-3.558 2.316-.423.333-1.937 1.06-2 1.217-.513 1.233-.952 2.323-2.015 2.853-.352.173-2.45-.136-2.956.136-.918.492-1.993.714-2.947.721-.483.001-.78.565-.951 1.004-.44 0-1.792-.167-2.131 0-.56.282-1.86 2.013-2.447 2.076-1.092.125-2.068 1.016-3.335 1.616l-4.86 2.494c-2.16 1.256-4.018 2.964-5.688 4.994.524.66-.401 1.58-1.277.87-.55 1.426-.542 2.784-.631 4.014-.034.48-.571.76-1.068.951.223 1.233.124 2.514-.452 3.596-.607 1.137-.864 2.452-.517 3.727-.687.471-1.342 1.146-1.252 1.818.044.33 1.07 1 1.162 1.294.122.378 0 1.69 0 2.205-.597.156-.878.816-.645 1.418a10.9 10.9 0 0 1 .556 5.613c.856.43 1.315 1.301 1.172 2.272-.607-.023-1.01.626-.74 1.211a9.25 9.25 0 0 1 .64 5.755c-.181.888-1.031 1.528-1.878 1.274-1.206-.37-3.206-1.139-3.206-2.147v-9.448a1.25 1.25 0 0 1-.976-.964c.549-.337.913-.867 1.03-1.567-.741.29-1.683.118-1.911-.543-.18-.494.216-2.38 0-2.837-.342-.71-1.097-1.28-1.63-1.529-1.193-.554-2.421-.11-3.237.845-1.087-.67-1.558-1.823-2.424-2.563-.554-.476-.161-1.44-.255-1.379 2.247-1.495 4.252-1.462 5.86-.287a7.2 7.2 0 0 0 1.336-1.412c.758-1.05 1.09-2.352.755-3.642-.306.6-.944.954-1.49.687-1.073-.525-2.238-.883-3.136-1.006-.587-1.767-1.345-3.085-2.12-4.539-.108-.205-.137-1.67.047-1.838 1.44-1.329 1.913-3.31 3.325-4.61.724-.665 1.102-1.695.547-2.773-.168-.33-1.787-1.663-1.872-2.194-.197-1.17-1.512-1.929-2.291-1.14-1.388-.87-2.18-2.088-2.403-3.764-.99.797-1.915-.122-1.364-.807-.646-.697-1.107-1.563-1.806-1.84-.704-.279-3.306.27-3.99 0-.646-.25-2.301-2.03-2.515-2.667-.254-.743-.502-1.629-1.373-2.208 1.276-.513 1.91-1.819.99-2.836-.6-.66-2.141-.735-3.51-.324-.544.163-.752 1.011-.441 1.797-1.156-.29-2.38-.2-2.714.34-.93 1.495-.08 3.06 1.269 3.584 1.216.474 2.233 1.326 3.037 2.353a5.5 5.5 0 0 1 2.669.255c-.266.807.066 1.778.884 1.767.898-.012 1.777 1.133.786 2.02-.703-.304-1.808.174-2.16 1.141-.454 0-1.767.123-2.136 0-.298-.098-1.002-1.123-1.247-1.123h-6.578c.435-.778-.408-1.385-.842-2.146l-2.784-4.047c-.677-.84-2.301-1.004-2.847-2.004-.862 0-3.556-.249-4.296 0-.76.258-1.253 1.11-1.627 1.82-.512.96.14 1.96.799 2.497.815.663 1.248 1.468 1.939 2.052.476-.179 1.032-.04 1.43.394-.206.488-.068 1.13.092 1.2.96.431 2.893 1.135 3.752 1.555.214.108 1.369 1.291 1.879 1.765.976-.539 2.253-.092 2.8 1.196-1.171-.505-2.276-.03-2.67 1.043-.695-.415-1.431.001-1.885.6-.4.515-1.245.527-1.958.37v1.8a5.3 5.3 0 0 0-3.534 2.412c-.685-.232-1.454-.004-1.542.54-.206 1.313-1.177 2.405-2.59 2.398-.138.523-1.072.825-1.242.328-.604-1.8-.95-3.68-.828-6.068 3.029-.089 4.913-3.299 3.723-5.07-.944-1.412-1.463-3.197-2.407-1.928-.318.425-.84.476-1.316.26-3.628-1.597-6.541-4.379-8.995-7.4-.672-.83-1.973-.845-3.031-1.232-.602-.219-.064-1.48.786-1.56l4.922-.089c.852 0 1.525-1.122 1.367-1.843-.066-.284-.966-.915-1.29-1.212-1.14.346-2.431-.038-3.305-1.072-.716 1.053-1.922 1.565-2.898.84-.696-.519-1.442-2.222-2.33-2.12-1.826.214-3.58.962-4.806 2.537-.695-.417-1.347.05-1.762.636-.331.483-.927.926-1.43 1.117-.548.21-2.536-.163-2.967.162-1.261.942-2.474 2.151-3.99 2.861.477.87.453 1.641-.127 1.974-.426.25-.832.773-.585 1.335.86 0 3.706.262 4.485 0 .859-.286 1.363-1.25 1.694-1.937 2.948.998 5.593 2.656 7.784 5.295 1.272-1.219 2.859-2.122 4.318-1.656.728.238 1.05 1.344 1.299 2.27 1.284.245 2.199 1.198 2.403 2.48.805-.275 1.643-.078 1.8.532.175.622 0 2.754 0 3.505 1.032-.336 1.246 1.06 1.408 1.565.644 2.031.818 4.057.59 5.961-.066.531.857 1.426.947 2.296.053.565-.617.897-1.078.388.002.64.2 2.175 0 2.52-.582.98-1.466 1.832-2.316 2.57-.432.371-.856-.624-.08-.797.408-.093.503-.87-.12-1.033-.666-.172-2.528-1.074-3.3-1.396-.235 1.3.1 2.572-.133 3.44-.362 1.37-1.391 2.35-2.253 3.628v1.3c-.543 0-2.264.19-2.723 0-.565-.242-1.13-.863-1.212-1.409-.212-1.44-.501-2.97-1.714-4.316 1.26-.186 1.93-1.172 1.259-1.95-.59-.684-2.071-.876-3.22-.27-.396.218-1.173.966-1.562.66-.6-.482-1.255-1.125-1.255-1.52v-5.194c0-.727-2.377-.82-2.785.135-.318.747-.547 1.714-1.315 2.091v5.175c0 .397.676.694 1.225.903-.416.683.014 1.421.504 1.847.826.714 1.66 1.461 2.37 2.285.18.208-.18 1.733 0 2.05.382.702 1.034 1.376 1.714 1.742.346.19 1.797-.095 2.03.102.653.561 1.205 1.546 2.14 1.572 1.01.027 2.812.516 2.603 1.64-.146.768-1.063 1.428-1.594 1.696-.872.432-1.87.874-2.053.79-2.614-1.245-5.31-.604-7.028 1.401.894.962 1.693 2.003 2.704 3.637-1.3-.71-2.614-.415-2.614.451 0 .745.936 1.492 1.667 2.24l3.663-1.6c-.02-.846 1.297-.676.783 1.14 1.79-2.057 3.37-2.78 5.278-3.705.672-.32 2-.06 3.497.272l-2.488 2.304c.627 1.597.144 3.503-1.655 5.013 1.718.364 2.592 1.11 3.515 1.68.349.213 1.898 0 2.368 0v1.76c-1.47.272-2.611 1.323-3.463 1.901-1.371.927-2.4 1.871-3.408 2.674-.354.28-2.188.203-2.542 0-1.091-.628-1.91-1.678-2.9-2.629.237-.586.083-1.596-.61-1.844-.564-.2-2.894.323-3.222 0l-4.545-4.479c-.71-.707.499-3.38-.062-4.994-.245-.703-1.505-.78-2.434-.459-1.447.504-2.196 2.112-1.558 3.636-1.105.341-1.44 1.652-.65 1.993 1.012.436 2.184.921 2.669 2.078.12.288 0 1.753 0 2.225h-2.456c-.377.767-1.287 1.346-2.17 1.093-.253-.076-.966-1.093-1.21-1.093h-10.095l-1.028 2.348c-1.28-.383-2.57 0-3.514 1.117-.37-1.164-1.386-1.574-2.26-1.107v-3.998c1.72-.647 3.439-1.199 5.14-2.279.702-.442 2.787-.22 3.995-1.297.975-.855 2.457-.497 3.574-.673.767-.118 1.55-1.097 1.825-1.79.28-.707 0-3.199 0-4.344 1.57.207 3.308-.354 4.097-1.938.229-.456.046-3.184-.046-3.854-.096-.675-.71-.969-1.16-.74-.733.357-2.815 1.73-3.568 2.023-1.282.491-2.408 2.02-3.176 2.058-3.018.126-5.615 2-6.977 4.511-.976-.187-1.466-.91-2.03-1.216-.545-.29-2.644 0-3.611 0-.697 2.034-2.152 3.776-4.022 5.07-.876.612-2.32.173-3.354-.317 0-.803-.272-2.943 0-3.308.709-.95 1.818-1.584 2.576-2.582.778.114 1.666.04 1.68.03 1.934-1.857 2.4-3.803 1.78-5.529a15.6 15.6 0 0 0 2.565-2.835c1.707 1.634 4.083 2.35 6.65 1.881.268-.788.453-1.81.497-3.046.854.512 1.558.034 2.082-.47.515-.502.993-1.28 1.044-1.523.423-1.92 1.36-3.29 2.733-4.028.517-.27 1.199.332 1.308 1.01.56 0 2.122.15 2.445 0 .71-.343.696-1.465 0-1.864-.166-.093-1.24.045-1.33-.045-.64-.67.33-1.54.965-.973.897-.874 1.898-1.415 2.843-1.624.285-1.417.133-2.654-.358-3.689h-3.403c-.172.438-.424.991-.864 1.114-.587.162-2.572 0-3.305 0 .043.605-.703 1.12-.98.695-.48-.74-1.654-.677-1.628.32-.652-.15-1.02-.536-1.111-1.015-.461 0-1.9.226-2.206 0-.783-.566-1.588-1.287-2.455-1.317-.381-1.51-1.17-2.652-2.341-3.465.526-.364 1.066-.619 1.246-1.039.159-.369-.124-1.745 0-2.123.098-.297.967-.98 1.016-1.226.257-1.214.057-2.449-.354-3.727l2.399-1.06c-.24-.694-.043-1.485.564-1.692.404-.133 1.866 0 2.238 0 .294-1.203.704-2.366 1.302-3.425.31-.554 1.7-1.936 2.246-2.516-.388-.86-.94-1.902-1.871-2.256-.661-.249-3.181.165-3.937 0-.285-.059-.956-1.045-1.242-1.117-.612-.15-2.581 0-3.304 0-.122-.823-1.048-1.445-1.744-.935-.677.5-.353 1.762-.628 2.505-.39 1.06-1.544 1.924-2.497 2.53-.32.2-1.76.127-2.141 0-.284-.096-.952-1.055-1.241-1.12-.678-.156-2.88 0-3.755 0-.171.403-.761 1.876-.766 1.881-2.06.943-4.012.337-5.23-1.662-.046-.076-.841-.559-1.435.113-.655.725-.655 2.197-.406 3.682-2.042.981-4.475.59-6.242-1.104a7.25 7.25 0 0 1 3.197-5.3l-3.682-3.649c-1.161.35-2.454-.034-3.131-.835-1.745.954-3.6 1.502-5.267 1.127-.714-.158-2.14 1.58-3.47 1.613l-7.096.037c-.27-1.47-1.136-2.739-2.343-3.49.06-1.09-.453-2.14-1.528-2.47-.436-.137-2.416 0-3.135 0-.031-.643-.665-1.085-1.428-.85.13.85-1.316.85-1.085-.733-1.233 1.468-2.54 1.658-3.58 1.726-.595.038-.703.868-.372 1.31.41.534.857 1.033 1.43 1.703 1.609-.817 3.555-.134 4.413 1.6.293.588.59 1.38 1.313 1.927l-2.204 1.952c.199.474.104 1.266-.396 1.421-.592.19-2.735.27-3.228 0-1-.54-1.956-1.55-2.277-2.603-.302-.998-.188-2.318-.683-3.355-.724 0-2.588.25-3.002 0-1.13-.684-2.141-1.79-2.656-2.93-.363-.814-.68-1.904-1.741-2.286-.226-.082-1.562.126-1.942 0-.292-.099-.98-.944-1.167-.993-1.267-.352-2.516-.153-3.554.341v2.84c1.435-1.003 3.236-1.27 4.51-.36.672.48 1.45 1.065 1.823 1.698.284.48.22 2.464 0 2.923-.338.711-1.034 1.376-1.716 1.746-.342.185-1.813.125-2.108-.12-1-.83-2.266-1.585-3.618-1.323-1.514.298-3.087.556-4.634.17-.584-.146-.798-1.017-.497-1.77-1.058.223-2.042-.233-2.488-1.055-.885 0-3.374-.269-4.094 0-.437.164-.81.867-1.04.811-1.366-.345-2.203-1.276-3.16-1.928-.281-.195-1.808.132-2.094-.136-1-.936-2.318-1.686-3.28-2.298-.67-.42-.226-1.276.338-1.576 1.416-.748 3.003-2.078 4.376-1.73 1.588.402 3.204.901 4.847 2.017.56-1.645.692-3.075.464-4.633.857.471 1.64-.428 2.25-.566 2.12-.479 4.415-.475 6.723.502.55.233 1.8-1.363 2.988-2.01.432-.242 2.57.125 3.017-.13 1.295-.732 2.818-.279 3.932-.165 3.515.37 6.977.316 10.469-.563.153-.032.877-1.007 1.126-1.007h6.21c.246 0 .994 1.114 1.24 1.114h6.945c.396 0 .692-.674.9-1.216.684.407 1.588.091 1.777-.76.06-.244.163-1.465 0-1.744-.34-.608-.968-1.188-1.606-1.359-.767-.205-1.744-.072-1.976-.285-1.488-1.388-.898-3.016-1.19-5.076-.014-.087.46-.889 1.116-1.109.715-.234 3.212-.162 3.975 0 .28.063.956 1.056 1.237 1.12.758.16 3.215.16 3.974 0 .286-.064.96-1.057 1.244-1.12.762-.162 3.197.063 3.685-.063 1.103-.285 1.689-1.068 1.935-2.243-1.12.58-2.095.17-2.355-.672-.682 0-2.655-.15-3.265 0-.288.07-1.002 1.095-1.283 1.085-6.753-.21-13.561.113-20.408.85-.182.018-.915.821-1.264 1.138-1.25-.493-2.607.226-3.338 1.292-.73 1.072-2.138 1.026-3.158.402-1.172-.72-2.41-1.317-3.548-1.945-.635.604-1.961 2.157-2.52 2.392-.86.364-3.895.417-4.706.941-.607.394-1.395 1.154-2.28.897-.256-.074-.965-1.093-1.212-1.093h-9.935c-.25 0-1.002 1.138-1.26 1.133l-7.411.094c-.768.04-1.084 1.278-1.343 1.923.754.13 1.24.75 1.184 1.642-1.17.45-2.563.362-3.772.601-.751.147-.917 1.25-.526 2.266-.943-.516-1.691.324-2.342.528-2.04.644-4.396 1.207-6.302.657-1.364-.396-2.26 2.517-1.61 4.13.59 1.447 1.266 2.847 2.126 4.16-.79.661-1.523.945-2.325.982.298 1.874.404 3.648.137 5.345-.056.342.825.528 1.3.35 1.178 1.168 2.18 3.014 3.365 3.264 1.806.394 3.527.976 4.6 2.35.654.84 2.018.996 3.283 1.164-.354.81-.085 1.51.505 1.678a5.3 5.3 0 0 1 2.942 2.14c1.347-.528 2.579 1.126 3.546 1.363 1.672.41 3.233 1.502 4.823 2.65 2.507-.288 5.2.466 7.422 2.196.406.31 3.138-.187 3.76.176a12 12 0 0 0 3.65 1.404c1.88.372 3.84.645 5.639.493.972-.083 2.104 2.022 3.425 2.022l6.012.001c.803 0 1.869 1.48 3.15 1.786.233-.49.973-.233 1.959-.179 2.848.162 6.11.23 9.36.03 1.155-.07 2.095-1.097 3.179-1.638.484-.238 2.54 0 3.218 0a2.19 2.19 0 0 0 1.335 1.335v1.756c.995-.433 2.1.041 2.499 1.12.689-.42 1.367.027 1.735.575.628.937 1.417 1.895 2.328 2.294.749.325 3.502 0 4.392 0 .168.44.462 1.116.857 1.116h6.199c.978 0 1.932 1.881 2.962 2.944-.365.89-1.026 1.692-1.907 2.146-1.06.55-2.368.085-2.925-.989h-5.477c-.174-.444-.422-.994-.86-1.119-.591-.162-2.62.097-3.046-.097-1.29-.579-2.602-.893-3.99-.54-.18-.796-.982-1.158-1.606-.78-1.092.657-2.753.67-3.712 1.603l-3.747 3.713c-.362.361-.022 1.171.237 1.722-.6.501-1.125 1.122-1.107 1.65.04.938.146 1.74-.092 2.488-.49 1.564-1.337 3.145-2.828 3.871-.475.232-1.305-.008-1.973.34 1.016.441 2.63 2.28.624 1.943-.69-.117-1.104.273-.971.844.202.891 1.122 1.447 1.977 1.017 0 .808.157 2.933 0 3.59-.067.285-1.008.948-1.117 1.242-.116.303 0 1.393 0 1.962 1.799.978 3.52 2.277 5.177 3.82.434.401-.578 1.144-1.271.397-.585 1.492-1.195 2.863-2.31 3.633-.31.21-1.871 0-2.24 0a12 12 0 0 1-1.364 3.33c.815.831 3.055 2.73 3.835 3.905.355.528.808 1.545 1.527 2.448.143.182.187 1.688 0 1.984-.62.974-1.553 1.961-2.621 2.29-1.057.322-2.345-.41-3.496-.984-1.482-.745-3.74-1.46-4.755-.384-1.867 1.973-4.848 2.94-7.867 2.823.203 1.354.125 2.242-.164 3.061a19.4 19.4 0 0 1-4.842.007c.166.985.735 1.761 1.565 1.873 1.323.174 2.106 1.725 1.199 2.77a18.7 18.7 0 0 0-2.85 4.46c.645.194 1.02.591 1.146 1.104h-2.854c-.371 1.148-1.22 2.241-1.233 3.197-.017 1.335 1.808 2.46 1.808 3.657v7.06c0 .466 2.233 1.886 2.233 2.358v5.08c0 .395-.676.694-1.221.901.413.684.083 1.534-.884 1.818.562.81.782 1.67 1.063 2.596.097.332.602.593 1.042.761v17.802c0 .62 1.127 1.52 1.15 2.236 1.576.53 2.71 1.38 3.549 2.55 1.23-.346 2.379.953 3.503 1.118 1.58.223 2.792 1.92 4.094 3.534-.031-.043 0 .9 0 1.332.993-.437 2.102.04 2.454 1.006h5.515c.17-.438.425-1.008.859-1.117.74-.18 3.334-.217 3.924.218 1.132.84 2.309 1.983 3.912 2.328-.25.608-.151 1.415.345 1.551.744.213 3.352-.219 3.938.228 1.183.9 3.144 1.79 3.438 2.45 1.077 2.437 2.357 4.33 3.493 6.278.293.493 1.594-.04 2.344-.597-.066.86-.536 1.396-1.16 1.53.003.47-.161 1.81 0 2.158.215.475 1.71 1.586 1.722 2.075.034 1.321.449 2.752 1.673 3.53.434.275.743.821 1.193.98.457.161 2 0 2.654 0-.588-1.217.092-2.363.963-3.263.253-.265 0-2.153 0-2.66.714-.156 1.805-.12 1.876.27.383 1.986 1.646 3.535 2.794 5.792-.034-.064 1.239 1.178 1.719 1.622-.252.577.017 1.27.616 1.446 1.147.346 2.4.192 3.689-.458-.743-.67-.19-1.794.386-1.392.585.404.584 1.286.408 2.08.677-.198 1.097-.76 1.022-1.376-.227-1.835-.398-3.696-.311-5.497.027-.614-1.075-.866-1.485-.703a12.5 12.5 0 0 0-3.705-4.605c.16-.82 1.187-1.473 1.187-1.883v-6.19c0-.815 1.382-.842 2.058-.34 1.204.897 2.797 1.017 4.31.716m128.6 47.194c.013.005 6.423 5.422 6.423 5.422l14.833-17.203s-2.97-8.307.594-12.462c3.559-4.152-22.371 17.994-21.85 24.241zm139.937-82.886c-1.82 7.362-4.313 14.87-10.177 20.121-7.213 6.467-16.184 10.183-24.451 14.997-8.425 6.292-17.027 16.71-23.105 20.591-6.07 3.884-16.371 6.248-27.347 4.895.173 3.545 5.403 17.22-11.06 22.758-1.37 1.592-12.476 14.472-17.204 19.96 6.286 4.771 25.706 19.532 27.925 21.211 9.517.268 17.196 8.055 17.196 17.64.003 9.754-7.937 17.685-17.691 17.685-9.445.001-17.117-7.465-17.593-16.799-3.097-2.394-20.91-16.159-26.463-20.452l-16.143 18.721c.046.485.094.966.094 1.443 0 9.754-7.932 17.688-17.69 17.688-9.751 0-17.688-7.934-17.688-17.688 0-9.115 6.96-16.55 15.83-17.499 1.99-2.386 11.007-13.164 15.33-18.333-6.857-5.299-80.88-62.51-98.088-75.812l-1.993 3.067c-2.098 4.5-5.062 8.447-8.283 11.13-3.128 4.798-6.194 8.878-8.194 13.558-.603 1.41-.866 3.053-.485 4.42.332 1.177 1.643 1.965 2.786 1.742 5.294-1.04 10.734-1.11 15.765.127 1.34.328 1.677 2.417 1.3 3.706a13.25 13.25 0 0 1-5.888 7.613c-4.221 2.542-9.278 2.962-13.784 5.49-2.28.076-4.798.548-7.37 1.21-9.503 7.851-21.108 12.587-33.234 14.492l-24.061-1.604c-2.4 1.918-5.157 3.807-8.198 4.835-.696.236-4.038-1.326-4.184-1.925-1.086-4.534-1.12-6.19-.593-11.866.079-.853 2.215-5.112.898-6.49-8.245-8.647-18.233-15.489-26.055-24.634-7.671-8.955-6.892-22.08 1.152-30.222 5.33-1.848 10.735-2.443 15.827-1.857 5.75-1.32 11.093-3.098 16.238-5.115.112-5.019-.06-9.616-.995-14.082-1.051-5.045-1.276-10.258-.07-15.757-.753-2.653-1.82-5.622-3.156-8.668.22-2.284-.075-4.744-.36-7.172-.234-2.034-1.011-4.032-2.625-5.313-3.527-2.804-7.891-.776-10.671 1.883-4.004 3.835-9.562 4.402-14.737 4.342-9.963-.11-18.998-4.849-27.082-10.386-8.631-5.913-15.641-14.235-26.041-18.179-1.447-1.746-2.493-4.3-2.762-7.44-4.402-6.108-10.932-10.57-13.796-18.582-16.332-10.408-19.2-18.084.444-22.755 6.082-6.924 11.853 4.477 20.488 9.097 6.672 3.568 6.61 5.89 14.36 10.772 6.08 3.833 9.919 4.862 14.598 6.868L323.924 461.5l-.306-1.96c-.137-.863-.643-5.428 2.837-10.345 2.943-4.153 7.145-5.625 9.852-5.622l1.74.005 78.184 60.083c1.028-5.743 3.06-10.678 6.882-12.729 1.548-.829 2.272-3.939.303-4.395-10.611-2.469-21.534-6.693-31.458-13.255-4.401-10.08-2.282-22.15 5.88-30.115 5.055-1.305 9.83-3.627 14.425-5.324 5.777-.112 11.127-.379 16.449-.935 13.233-1.38 26.288-4.018 39.478-5.7 8.356-1.06 16.76-1.705 25.842-2 9.52 2.355 19.05 7.382 28.735 9.637l10.714-2.322 7.029-3.393c2.384.182 2.85-2.57 4.952-1.669.689.296 2.29 12.714 2.636 13.862.48 1.607 1.48 3.987 2.815 3.818 3.32-.426 6.838-.454 10.326-.45 2.364.003 4.623-1.018 6.072-2.96a24.7 24.7 0 0 1 2.073-5.624c3.47-2.699 7.02-5.382 9.852-8.659.697-.8 1.99-.868 3-1.204.874-.289 1.816-.16 2.536.42 2.423 1.943 4.83 3.992 7.763 4.7.393.096 1.25-1.26 1.514-1.256 3.838.124 7.702-.186 11.753-.977 2.56 2.445 6.393 3.386 9.577 1.544 4.986-2.876 10.723-4.749 16.47-3.585l4.579 5.445c.808 2.446 3.162 5.173 6.536 5.325 1.59.07 3.167-.435 4.726-.539 7.684-.525 15.32-1.612 22.81-3.309 6.066-2.889 12.777-3.444 18.9-3.093 9.324-4.115 18.979-4.79 28.452-4.998 3.155-.066 6.294.75 9.1 1.604l6.5 6.202c2.208 1.85 3.832 4.322 3.835 7.625 2.623 7.663 6.813 15.224 7.61 23.694.666 7.066.37 14.19-.562 21.233.867 11.245-2.238 22.367-8.354 31.818l-8.573 14.16c-6.323 11.764-14.728 22.505-26.544 29.123-9.558 8.595-21.376 14.161-33.713 17.52-18.976 5.173-38.658 6.225-58.228 6.944-.69.022-2.772-.656-3.471-.68l-23.968-.455-17.022-1.743c-3.748-.305-7.544-.16-11.29.206-6.293.612-12.012 4.034-15.217 9.578l-.154.233c5.258 3.997 23.472 17.765 45.078 34.184l12.427-12.42c11.73-4.14 12.098-5.27 23.573-18.047l5.8-2.558c13.059-4.004 26.834-4.162 40.27-6.162 4.039-.6 7.923-1.898 11.56-3.734 8.11-4.092 15.006-10.104 23.093-14.183 2.624-1.32 5.362-2.835 6.927-5.956 3.937-2.32 8.877-3.033 13.372-4.843 11.352-4.57 21.056-12.158 31.196-19.29.42-.294 1.025.201 1.058.766.39 5.755.33 11.364-.165 16.935-.325 3.637-1.446 7.177-3.264 10.393-4.493 7.968-12.488 12.484-19.255 18.108l-17.541 10.746-3.767 3.328c-.192.183-.153 1.502 0 1.798.279.536.818 1.153 1.347 1.318 1.126.35 2.437-.017 3.46-.598 5.763-3.296 11.518-6.74 17.943-8.575 5.468-3.023 11.373-5.433 16.276-9.374 5.85-4.695 10.43-10.742 15.233-17.453 3.146-1.885 6.447-4.775 10.32-7.23.316-.202 1.372-.276 1.372.321l.012 6.912c.474 4.976 0 9.966-1.2 14.812"/><path fill="#0b193f" d="M283.812 321.51v-16.992s-19.115 3.186-24.424 5.31zM796.188 321.51v-16.992s19.115 3.186 24.424 5.31z"/><path fill="#0b193f" d="M241.848 275.935c-40.126 16.46-80.858 20.804-81.265 20.846l-26.054 2.686 24.846 8.282c10.394 3.478 22.32 10.343 22.717 14.322.372 3.718-10.019 13.824-21.8 21.2l-14.259 8.929 16.755 1.479c6.895.609 13.747.917 20.363.917 59.887 0 87.884-24.663 89.046-25.713l6.635-5.992-29.198-12.058V272.74z"/><path fill="#fff" d="M183.15 360.24c-6.78 0-13.799-.316-20.858-.939l-33.56-2.96 28.57-17.856c7.812-4.9 16.04-11.993 18.564-15.826-2.925-2.82-11.113-7.168-18.276-9.556l-49.759-16.586 52.177-5.352c.394-.04 40.386-4.325 79.697-20.453l15.573-6.388v42.733l17.444 7.204 16.53 6.826-13.272 11.985c-1.229 1.11-30.797 27.168-92.83 27.168m0-11.288c58.404 0 85.264-24.257 85.264-24.257l-24.424-10.087v-33.452c-41.415 16.991-82.83 21.238-82.83 21.238s25.486 8.496 26.548 19.115-24.424 26.548-24.424 26.548c6.99.617 13.606.895 19.866.895"/><path fill="#0b193f" d="m830.366 312.189-29.637 10.305 7.074 6.388c1.163 1.05 29.16 25.713 89.045 25.713 6.617 0 13.468-.308 20.364-.917l16.78-1.48-14.285-8.928c-11.78-7.376-22.17-17.48-21.799-21.2.33-3.296 10.114-10.12 22.717-14.32l24.847-8.284-26.055-2.686c-.406-.042-41.14-4.385-81.265-20.846l-7.786-3.194z"/><path fill="#fff" d="M896.855 360.24v-11.288l-.002 11.288c-62.037-.002-91.605-26.058-92.833-27.168l-14.149-12.777 18.007-6.262 16.844-5.858v-43.851l15.572 6.388c39.311 16.128 79.304 20.412 79.703 20.454l52.037 5.393-49.625 16.544c-7.305 2.455-15.378 6.737-18.279 9.554 2.521 3.848 10.753 10.943 18.568 15.828l28.57 17.855-33.56 2.961a238 238 0 0 1-20.853.94m-.006-11.289c6.26 0 12.876-.278 19.866-.895 0 0-25.486-15.929-24.424-26.548s26.548-19.115 26.548-19.115-41.415-4.247-82.829-21.238v35.045l-24.425 8.494s26.861 24.255 85.264 24.257"/><path fill="none" stroke="#fff" stroke-miterlimit="10" stroke-width="11.288" d="M795.657 320.98v-26.017"/><path fill="#0b193f" d="m250.432 853.56 3.244.951c1.364.4 138.208 40.004 296.316 40.004 158.19 0 273.604-37.86 274.751-38.243l3.088-1.029v-81.732l-5.817 1.75c-1.164.35-118.07 34.996-270.212 34.996-150.934 0-294.298-36.487-295.728-36.855l-5.642-1.454z"/><path fill="#fff" d="M549.992 899.03c-82.967 0-159.393-10.909-208.897-20.06-53.688-9.927-87.286-19.715-88.69-20.127l-6.488-1.903v-90.816l11.283 2.906c.357.092 36.305 9.294 90.398 18.375 49.836 8.365 125.718 18.338 204.204 18.338 79.219 0 148.213-9.49 192.142-17.45 47.494-8.607 76.48-17.269 76.768-17.356l11.634-3.503v91.062l-6.175 2.06c-1.186.394-29.614 9.794-78.045 19.3C703.555 888.602 633 899.03 549.992 899.03m0-9.03c159.288 0 273.324-38.012 273.324-38.012v-72.404s-116.86 35.188-271.514 35.188c-153.302 0-296.855-36.998-296.855-36.998v72.404S390.704 890 549.992 890"/><path fill="#0b193f" d="M184.743 726.533c-6.583 0-13.4.307-20.263.913l-13.41 1.183 11.413 7.142c13.822 8.65 22.702 18.5 22.325 22.27-.323 3.233-8.664 10.342-23.483 15.28l-19.884 6.629 20.85 2.147c.41.042 41.29 4.396 81.578 20.924l6.23 2.556v-35.745l27.936-13.361-5.002-4.517c-1.149-1.038-28.832-25.421-88.29-25.421"/><path fill="#fff" d="m254.613 812.31-12.458-5.111c-39.747-16.307-79.922-20.57-80.324-20.61l-41.742-4.281 39.808-13.27c10.51-3.524 18.636-8.856 20.272-11.383-.479-1.116-2.389-4.482-9.535-10.381-5.297-4.372-10.497-7.643-10.549-7.676L137.3 725.315l26.784-2.367c6.994-.617 13.945-.93 20.66-.93 61.175 0 90.114 25.5 91.316 26.586l10.003 9.033-12.159 5.815-19.29 9.226v26.166zm-9.03-13.466v-31.857l24.424-11.681s-26.86-24.258-85.264-24.258c-6.26 0-12.876.279-19.866.895 0 0 25.486 15.929 24.424 26.548-1.062 10.62-26.548 19.115-26.548 19.115s41.415 4.248 82.83 21.238"/><path fill="#0b193f" d="M283.812 758.491v16.991s-19.115-3.186-24.424-5.31z"/><path fill="none" stroke="#fff" stroke-miterlimit="10" stroke-width="11.288" d="M281.688 757.96v22.831"/><path fill="#0b193f" d="M895.257 726.533c-59.458 0-87.141 24.383-88.29 25.42l-5.001 4.518 27.936 13.36v35.746l6.229-2.556c40.289-16.528 81.17-20.882 81.578-20.924l20.85-2.147-19.884-6.628c-9.522-3.184-22.981-10.266-23.482-15.28-.378-3.771 8.502-13.62 22.325-22.271l11.41-7.142-13.408-1.183a231 231 0 0 0-20.258-.913z"/><path fill="#fff" d="M825.387 812.31v-39.632l-19.29-9.226-12.16-5.815 10.004-9.033c1.202-1.086 30.14-26.586 91.316-26.586 6.715 0 13.666.313 20.66.93l26.848 2.369L919.91 739.6c-.047.03-5.247 3.3-10.544 7.673-7.114 5.872-9.04 9.235-9.53 10.366.782 1.13 3.46 3.742 9.93 7.016 5.28 2.672 10.288 4.367 10.337 4.383l39.808 13.269-41.742 4.28c-.4.042-40.687 4.35-80.324 20.61zm9.03-13.466c41.415-16.99 82.83-21.238 82.83-21.238s-25.486-8.495-26.548-19.115 24.424-26.548 24.424-26.548a226 226 0 0 0-19.866-.895c-58.404 0-85.264 24.258-85.264 24.258l24.425 11.68z"/><path fill="#0b193f" d="M796.188 758.491v19.115s19.115-5.31 24.424-7.434zM530.008 184.356c-158.372 0-273.959 37.919-275.108 38.302l-3.86 1.286v84.063l7.271-2.187c1.162-.35 117.93-34.947 269.887-34.947 150.78 0 294.017 36.45 295.446 36.819l7.052 1.816.001-83.912-4.056-1.19c-1.365-.4-138.366-40.05-296.633-40.05"/><g fill="#fff"><path d="m836.341 316.792-14.105-3.635c-.43-.111-36.307-9.288-90.262-18.343-49.738-8.348-125.466-18.298-203.776-18.298-78.872 0-147.58 9.429-191.332 17.339-47.477 8.584-76.64 17.283-76.929 17.37l-14.538 4.369-.002-15.178v-80.53999999999999l7.718-2.573c1.192-.397 29.753-9.841 78.325-19.374 44.67-8.767 115.378-19.217 198.568-19.217 83.14 0 159.711 10.93 209.308 20.099 53.801 9.947 87.506 19.766 88.914 20.179l8.111 2.38v80.856zm-11.288-14.566v-72.404S689.296 190 530.008 190s-273.323 38.012-273.323 38.012v72.404s116.86-35.188 271.513-35.188c153.303 0 296.855 36.998 296.855 36.998M283.058 819.171c.637-.019 1.396.083 2.427.289 3.796.756 5.757 3.143 5.113 6.377-.579 2.905-2.939 4.238-6.501 3.528-1.453-.289-2.409-.626-2.896-.869zm-9.931 12.93c2.127.813 5.164 1.711 9.522 2.579 4.404.877 7.712.659 10.157-.608 2.332-1.192 4.214-3.545 4.83-6.639.616-3.092.108-5.922-1.412-8.076-1.979-2.781-5.382-4.531-9.6-5.371-.937-.187-1.79-.308-2.465-.345l2.25-11.293-7.076-1.41zM310.754 825.343l2.818.528c3.568.669 5.347 2.849 4.828 5.62-.546 2.912-2.79 3.997-6.087 3.429-1.736-.326-2.696-.652-3.195-.843zm-9.642 12.29c2.23.806 5.605 1.73 9.409 2.443 4.696.88 8.115.79 10.703-.571 2.16-1.151 3.607-3.164 4.152-6.075.757-4.04-1.588-7.346-4.127-8.842l.027-.141c2.373-.48 3.99-2.363 5.334-5.125 1.655-3.384 3.416-7.332 4.255-8.438l-7.326-1.373c-.684.796-1.92 3.238-3.59 6.959-1.583 3.786-3.147 4.612-6.067 4.113l-2.16-.405 2.33-12.444-7.09-1.328zM351.8 828.379l-11.677-2.044 1.318-7.533 13.041 2.283 1.031-5.885-20.245-3.543-5.553 31.731 19.585 3.428 1.03-5.885-12.382-2.166 1.154-6.592 11.675 2.044zM359.844 823.541c2.095-.676 5.229-1.182 8.296-.684 3.302.54 4.825 2.191 4.487 4.266-.323 1.982-2.017 2.868-6.061 3.614-5.583.98-9.503 3.344-10.256 7.967-.883 5.426 2.97 10.315 10.47 11.536 3.586.584 6.35.26 8.377-.283l-.66-6.064a15.3 15.3 0 0 1-6.897.427c-3.114-.507-4.394-2.168-4.125-3.82.33-2.028 2.269-2.632 6.627-3.52 5.952-1.163 9.07-3.658 9.8-8.139.868-5.33-2.5-10.529-11.227-11.949-3.632-.592-7.372-.232-9.326.467zM388.995 846.988l-8.556-1.272-.899 6.051 24.487 3.639.9-6.051-8.699-1.293 3.835-25.811-7.233-1.075zM415.69 840.64c.817-6.252 4.33-10.273 9.163-9.641 4.88.639 7.067 5.647 6.255 11.852-.75 5.733-4.143 10.3-9.117 9.649-4.879-.64-7.114-5.653-6.302-11.86m23.014 3.446c1.37-10.47-4.148-17.647-13.479-18.868-9.475-1.24-15.953 5.188-17.143 14.284-1.252 9.569 3.923 17.52 13.35 18.754 9.806 1.283 16.12-5.36 17.272-14.17M445.942 828.388l-3.391 32.026 8.458.896 7.895-11.032a93.5 93.5 0 0 0 6.389-10.423l.143.015c-.923 4.178-1.524 8.487-2.031 13.287l-.992 9.36 6.653.705 3.39-32.027-7.602-.804-8.151 11.629c-2.262 3.22-4.791 7.133-6.756 10.72l-.138-.062c.638-4.21 1.21-8.713 1.764-13.94l1.02-9.645zM489.096 832.663l-2.032 32.141 8.488.536 7.421-11.357a93 93 0 0 0 5.942-10.683l.143.008c-.745 4.214-1.162 8.545-1.467 13.362l-.593 9.394 6.676.422 2.031-32.141-7.63-.483-7.65 11.965c-2.125 3.313-4.485 7.329-6.297 10.997l-.14-.057c.46-4.232.841-8.756 1.172-14.002l.612-9.68zM528.243 850.778c.096-6.307 3.127-10.706 8-10.63 4.922.073 7.67 4.8 7.575 11.06-.089 5.781-2.936 10.708-7.954 10.631-4.92-.074-7.717-4.8-7.62-11.06m23.264.785c.162-10.56-6.145-17.062-15.559-17.206-9.556-.145-15.257 6.985-15.397 16.16-.147 9.652 5.907 16.961 15.416 17.107 9.891.15 15.404-7.174 15.54-16.06M564.492 852.643l2.865-.077c3.63-.098 5.827 1.66 5.904 4.477.08 2.961-1.886 4.495-5.229 4.633-1.767.048-2.773-.068-3.3-.15zm-6.838 14.045c2.35.32 5.844.511 9.713.407 4.775-.129 8.1-.935 10.342-2.812 1.87-1.58 2.861-3.853 2.78-6.814-.11-4.107-3.1-6.847-5.897-7.775l-.003-.143c2.22-.968 3.404-3.15 4.135-6.134.905-3.657 1.795-7.887 2.383-9.145l-7.45.201c-.502.921-1.196 3.57-2.044 7.56-.75 4.034-2.106 5.17-5.066 5.297l-2.197.06-.342-12.657-7.21.195zM593.148 859.733l-8.636.488.345 6.108 24.714-1.398-.345-6.107-8.779.496-1.473-26.05-7.299.412zM622 863.944l-1.065-12.332 11.951-1.031 1.064 12.332 7.238-.624-2.769-32.093-7.238.625 1.16 13.427-11.952 1.03-1.159-13.427-7.285.628 2.77 32.092zM675.791 839.573l-11.766 1.44-.93-7.591 13.142-1.608-.726-5.931-20.4 2.498 3.914 31.977 19.737-2.416-.726-5.931-12.477 1.528-.814-6.643 11.766-1.44zM680.822 825.196l4.701 31.863 8.415-1.242 4.896-12.653a94 94 0 0 0 3.588-11.687l.142-.021c.148 4.276.641 8.599 1.345 13.374l1.376 9.313 6.617-.977-4.701-31.863-7.565 1.117-4.993 13.295c-1.389 3.683-2.862 8.103-3.87 12.067l-.149-.025c-.433-4.236-1.001-8.741-1.768-13.941l-1.417-9.597zM721.909 824.402c.586-.248 1.576-.42 2.47-.576 6.488-1.182 11.35 1.657 12.673 9.237 1.196 6.583-2.056 10.741-8.222 11.817-1.601.28-2.662.318-3.298.284zm-2.685 27.151c2.71-.037 6.188-.4 9.813-1.033 6.026-1.052 9.745-2.817 12.402-5.658 2.868-3.023 4.259-7.292 3.28-12.895-1.06-6.072-4.003-9.877-7.514-11.932-3.828-2.194-9.142-2.625-15.357-1.54-3.72.648-6.315 1.343-8.064 1.891zM763.297 843.952l19.287-3.976-1.207-5.85-12.124 2.498-1.485-7.209 11.327-2.335-1.196-5.805-11.328 2.335-2.614-12.686-7.164 1.476zM805.065 802.818c-1.453-.355-4.547-.384-8.367.486-10.858 2.475-14.909 10.506-12.869 19.451 2.443 10.717 11.444 14.94 20.948 12.772 3.682-.839 6.308-2.22 7.417-3.16l-2.73-5.309c-1.307.935-3.183 1.951-5.698 2.525-5.639 1.285-10.794-1.119-12.387-8.107-1.434-6.29 1.391-11.1 7.728-12.546 2.144-.488 4.626-.563 6.151-.323z"/></g><path fill="#0b193f" d="M488.403 353.706c1.736-.4 3.872-.534 6.81-.534 10.814 0 17.49 5.474 17.49 14.686 0 8.277-5.742 13.218-15.888 13.218-4.14 0-6.943-.4-8.412-.801zm-20.16 40.855c6.275 1.067 15.087 1.868 27.503 1.868 12.55 0 21.495-2.403 27.504-7.208 5.74-4.541 9.612-12.017 9.612-20.83 0-8.81-2.938-16.287-8.278-21.36-6.942-6.542-17.222-9.48-29.238-9.48-2.67 0-5.073.134-6.943.402v-32.176h-20.16zM570.493 353.706c1.736-.4 3.872-.534 6.81-.534 10.814 0 17.49 5.474 17.49 14.686 0 8.277-5.742 13.218-15.889 13.218-4.138 0-6.943-.4-8.41-.801zm-20.16 40.855c6.275 1.067 15.087 1.868 27.504 1.868 12.55 0 21.494-2.403 27.502-7.208 5.741-4.541 9.613-12.017 9.613-20.83 0-8.81-2.937-16.287-8.277-21.36-6.942-6.542-17.223-9.48-29.24-9.48-2.669 0-5.072.134-6.942.402v-32.176h-20.16z"/><path fill="none" stroke="#fff" stroke-miterlimit="10" stroke-width="11.288" d="M283.812 320.98v-26.017M796.719 756.898v25.486"/><g fill="#fff" fill-rule="evenodd"><path d="m359.426 229.774-.95-5.428-21.085 2.92q1.355 7.44 2.658 16.828c.832 6.013 1.433 11.162 1.808 15.43l20.12-2.787-1.02-5.384c-4.92.948-9.401 1.707-13.427 2.264-.158-2.323-.448-5.04-.88-8.162 3.45-.478 7.16-.896 11.117-1.263l-.716-5.176a269 269 0 0 1-11.046 1.78 205 205 0 0 1-1.1-9.443 261 261 0 0 1 14.52-1.579M386.557 229.719c-.792-6.475-5.839-9.135-15.137-8-3.16.387-6.056 1.12-8.675 2.214l1.89 5.395c2.572-1.261 5.042-2.027 7.431-2.32 2.645-.322 4.583-.301 5.798.066 1.224.375 1.913 1.16 2.062 2.372q.23 1.894-1.256 3.379c-.847.878-2.642 2.104-5.373 3.685-2.474 1.437-4.273 2.905-5.382 4.382-1.407 1.867-1.95 4.032-1.65 6.482.347 2.847 1.67 4.939 3.976 6.292 2.307 1.343 5.44 1.778 9.397 1.294 3.246-.397 5.933-1.001 8.07-1.821l-1.589-5.397c-2.138 1.087-4.505 1.78-7.107 2.099-3.907.477-5.983-.327-6.238-2.411-.136-1.111.204-2.064 1.034-2.871q1.085-1.038 4.88-3.143c2.691-1.49 4.656-3.003 5.895-4.548 1.648-2.068 2.303-4.454 1.974-7.15M417.046 250.459l-.679-5.33q-4.937.836-9.35 1.252c-.328-3.143-.672-6.635-1.033-10.486a513 513 0 0 1-1.315-16.986l-6.97.653a424 424 0 0 1 1.91 16.929c.354 3.784.647 7.289.88 10.5-2.339.219-5.565.384-9.679.503l.707 5.354zM435.134 230.46q-3.218 13.214-3.132 14.26l-.4.033q-.079-.97-5.55-13.556zm10.369-15.022-7.974.648c.089 1.1-.415 4.266-1.514 9.513l-11.523.936q-2.952-7.364-3.098-9.137l-7.507.611q.08.97 7.119 15.483c7.039 14.513 7.08 15.016 7.163 16.028l9.429-.766c-.077-.945 1.235-6.509 3.945-16.692 2.719-10.184 4.033-15.73 3.96-16.624M467.394 238.046c.13 2.977-1.665 4.551-5.4 4.714-1.716.074-3.248.021-4.59-.177.115-1.688.074-4.584-.104-8.679a37 37 0 0 1 2.002-.138c5.264-.229 7.958 1.201 8.092 4.28m1.217-14.078c.144 3.32-2.684 5.1-8.502 5.353q-1.724.073-2.982.01-.228-5.234-.189-9.632c.557-.16 1.407-.266 2.533-.316 3.088-.134 5.356.143 6.822.823 1.465.671 2.238 1.928 2.318 3.762m6.76-.02c-.29-6.628-5.85-9.71-16.7-9.239-1.887.082-4.81.261-8.789.536.432 5.024.79 10.692 1.064 17.004.264 6.066.378 11.25.352 15.531l4.043-.176q1.152-.05 3.868-.09c1.81-.029 3.227-.064 4.242-.109q11.071-.48 10.76-7.68c-.16-3.695-2.162-6.06-5.993-7.099l-.016-.375c2-.404 3.722-1.265 5.168-2.593 1.44-1.319 2.108-3.228 2-5.71M501.71 218.696l-.38-5.447-20.772.665c.341 4.51.625 10.181.844 17.016.201 6.273.264 11.448.2 15.533l7.022-.225c-.317-3.774-.586-8.942-.796-15.514-.16-5.017-.4-8.999-.707-11.937 4.6-.147 9.46-.183 14.588-.09M512.898 212.996l-7.077.11c.294 5.163.495 10.847.592 17.028.095 6.087.065 11.263-.08 15.535l7.077-.112c-.28-4.197-.472-9.368-.569-15.524-.099-6.283-.077-11.962.057-17.037M541.76 221.82c0-6.523-4.688-9.777-14.055-9.777-3.184 0-6.147.376-8.88 1.145l1.22 5.584c2.708-.94 5.253-1.401 7.66-1.401 2.664 0 4.586.257 5.747.769 1.17.521 1.759 1.383 1.759 2.604q-.002 1.908-1.657 3.202c-.947.768-2.877 1.767-5.78 3.006-2.63 1.127-4.594 2.365-5.875 3.697-1.622 1.682-2.425 3.765-2.425 6.233 0 2.869 1.059 5.106 3.185 6.728q3.19 2.423 9.17 2.425c3.27 0 6.012-.273 8.232-.829l-.922-5.549c-2.254.819-4.688 1.221-7.31 1.221-3.936 0-5.9-1.051-5.9-3.151 0-1.119.453-2.024 1.376-2.724.802-.597 2.544-1.443 5.225-2.527 2.852-1.153 4.986-2.416 6.404-3.8 1.887-1.853 2.826-4.141 2.826-6.856M573.73 213.638l-7.075-.197q.014 8.279-.154 14.363l-12.598-.352c.102-3.636.312-8.422.649-14.35l-7.076-.197q.092 8.267-.151 17.036c-.166 5.915-.421 11.093-.758 15.516l7.075.198c-.065-4.682-.046-9.02.065-13.007l12.7.355c-.098 3.516-.322 7.85-.662 12.99l7.076.198c-.112-4.24-.088-9.416.083-15.535q.27-9.576.826-17.018M602.446 220.404l.054-5.51-21.265-.966c-.015 5.042-.161 10.719-.448 17.03-.275 6.066-.622 11.239-1.029 15.502l20.292.92-.025-5.478c-5.01.037-9.554-.033-13.614-.217.267-2.313.477-5.038.619-8.186q5.223.238 11.162.78l.237-5.22a270 270 0 0 1-11.185-.26c.153-3.377.366-6.547.636-9.484 4.563.208 9.419.565 14.566 1.089M627.885 233.064c-.23 3.194-1.358 5.818-3.372 7.874-2.022 2.055-4.945 2.94-8.77 2.667-.714-.052-1.697-.2-2.93-.433.4-3.318.735-6.787.995-10.415q.428-5.966 1.104-11.811a16.7 16.7 0 0 1 3.26-.092c3.576.257 6.145 1.562 7.715 3.9q2.34 3.519 1.998 8.31m6.736 1.562q.509-7.089-3.66-12.701-4.156-5.614-12.345-6.201c-2.461-.176-5.858-.317-10.2-.431q-.217 7.559-.893 17.014c-.434 6.055-.915 11.216-1.434 15.468l4.369.313q1.073.077 3.188.306c1.41.152 2.328.244 2.763.275 6.004.43 10.463-.757 13.377-3.553q4.385-4.205 4.835-10.49M659.513 219.764l-6.651-.589c-.201 4.303-.413 7.764-.646 10.392-.236 2.67-.55 5.523-.93 8.558l-3.833-2.105-1.514 2.283 8.156 7.502 3.087.274c.428-6.863.805-12.187 1.14-15.97.226-2.544.625-5.989 1.19-10.345M677.066 247.942c-.153 1.306-.674 2.302-1.568 2.971-.897.678-1.977.947-3.257.797-1.238-.145-2.217-.595-2.93-1.34-.712-.745-1-1.656-.875-2.733q.433-3.7 5.886-5.56 3.183 2.112 2.744 5.865m2.77-16.98c-.377 3.213-2.75 5.506-7.133 6.876q-1.874-.954-2.893-3.047c-.669-1.402-.922-2.84-.748-4.334.204-1.739.875-3.07 2.031-3.983q1.72-1.372 4.125-1.09c1.51.176 2.703.78 3.57 1.818.868 1.03 1.22 2.283 1.047 3.76m6.152 1.2q.508-4.325-2.426-7.479c-1.955-2.094-4.62-3.343-7.996-3.738q-5-.585-8.419 1.645c-3.419 2.23-3.577 3.605-3.899 6.353-.233 1.993.108 3.855 1.032 5.588q1.488 2.815 4.651 4.55l-.046.4c-3.496 1.515-5.439 3.867-5.81 7.047-.273 2.324.454 4.335 2.163 6.048q2.556 2.49 6.802 2.988c2.774.324 5.1-.092 6.997-1.236 1.896-1.145 2.973-2.782 3.221-4.902a7.84 7.84 0 0 0-.762-4.439c-.762-1.567-1.926-2.787-3.509-3.66l.047-.398c4.836-1.807 7.482-4.73 7.954-8.767M701.987 251.228c-.188 1.301-.735 2.283-1.648 2.928-.914.654-2 .893-3.277.71-1.234-.179-2.2-.655-2.892-1.419s-.957-1.682-.8-2.755c.353-2.459 2.364-4.257 6.031-5.402q3.126 2.199 2.586 5.938m3.224-16.9c-.463 3.202-2.897 5.43-7.314 6.682q-1.848-1.004-2.81-3.123c-.632-1.42-.847-2.865-.632-4.352.25-1.733.957-3.046 2.137-3.928q1.757-1.325 4.153-.98c1.504.218 2.68.853 3.52 1.915q1.262 1.58.946 3.785m6.117 1.366q.623-4.31-2.224-7.542c-1.899-2.146-4.529-3.466-7.893-3.95q-4.981-.72-8.46 1.418c-3.48 2.138-3.673 3.508-4.068 6.246-.286 1.986.004 3.856.881 5.613.941 1.905 2.451 3.46 4.528 4.674l-.058.397c-3.535 1.422-5.54 3.721-5.998 6.89-.333 2.315.34 4.346 2.001 6.103 1.661 1.706 3.898 2.763 6.72 3.17 2.764.398 5.101.046 7.027-1.048s3.047-2.7 3.352-4.813a7.84 7.84 0 0 0-.642-4.458c-.72-1.588-1.85-2.838-3.41-3.753l.057-.397c4.883-1.677 7.607-4.527 8.187-8.55M729.956 240.85q-.63 4.543-2.301 7.285c-1.108 1.838-2.63 2.618-4.567 2.35q-4.908-.68-3.746-9.052.689-4.988 2.298-7.198c1.076-1.48 2.556-2.086 4.459-1.822 3.28.454 4.573 3.27 3.857 8.438m5.898 2.41c.655-4.726.154-8.391-1.501-11.007-1.665-2.61-4.37-4.174-8.142-4.696-3.645-.505-6.544.137-8.691 1.943-2.137 1.799-3.52 4.935-4.138 9.409-.64 4.609-.142 8.367 1.508 11.268 1.64 2.908 4.343 4.618 8.115 5.14 3.612.5 6.514-.288 8.68-2.366 2.177-2.087 3.564-5.317 4.169-9.69"/></g></g></svg>