<svg xmlns="http://www.w3.org/2000/svg" width="933.333" height="933.333" viewBox="0 0 933.333 933.333"><clipPath id="a"><path d="M0 1080h1080V0H0z"/></clipPath><g clip-path="url(#a)" transform="matrix(1.33333 0 0 -1.33333 -253.333 1186.666)"><path fill="#fff" d="M883.144 540c0-189.513-153.631-343.144-343.144-343.144S196.856 350.487 196.856 540 350.486 883.144 540 883.144 883.144 729.513 883.144 540"/><g fill="#205ca2"><path d="M562.48 531.958c.047.878.117 1.549.117 2.22-.004 31.716.046 63.432-.063 95.148-.03 8.824-2.297 17.13-7.135 24.632-.328.508-1.016.999-.539 1.66h33.765v-10.54c9.082 4.874 18.147 8.346 27.66 11.124-2.428 5.424-5.467 9.956-8.883 14.22-30.947 38.618-85.942 34.053-115.278 6.527-1.13-1.061-1.423-2.188-1.415-3.626.034-6.731.071-13.463-.036-20.192-.03-1.94.561-2.973 2.336-3.957 40.895-22.678 59.118-57.793 56.79-104.064-.233-4.614-.9-9.206-1.38-13.97 4.69-.303 9.212-.14 14.06.818M686.18 333.216c-87.373-63.805-224.984-67.047-320.489 24.235-93.699 89.557-103.639 235.9-22.856 338.573 80.121 101.83 224.585 125.885 334.52 55.443 38.193-24.473 67.594-57.206 88.26-97.611 20.614-40.304 29.54-83.17 27.13-128.361-2.418-45.32-16.237-86.945-41.335-125.458 9.95-1.987 18.848-1.442 26.975 6.008-1.378-8.993-5.865-15.024-13.289-18.744-10.417-5.22-21.525-5.633-32.764-3.714-17.272 2.95-32.198 11.273-46.318 21.107-15.44 10.754-30.282 22.37-46.495 32.009-14.656 8.712-29.845 16.229-46.335 20.845-1.386.388-2.749 1.169-4.565.7 0-10.904.015-21.846-.019-32.79-.004-1.274.633-1.812 1.701-2.193 26.158-9.33 49.012-24.644 72.027-39.688 11.84-7.741 23.924-15.081 36.647-21.33 2.043-1.002 3.39-1.021 5.035.708 4.403 4.627 9.042 9.028 13.461 13.639 1.402 1.464 2.531 2.09 4.683 1.393 3.32-1.076 6.821-1.587 10.617-2.418-5.67-6.877-11.687-13.044-18.223-19.348 6.09-2.332 12.03-3.574 18.082-4.137 16.688-1.553 32.628.432 46.524 10.823 6.257 4.678 11.204 10.577 13.393 18.163 2.918 10.113 2.85 19.857-6.017 27.64 6.17 1.365 11.624-1.046 15.12-6.851 5.251-8.721 4.52-18.041 1.614-27.146-4.917-15.406-15.986-25.477-30.068-32.481-17.455-8.681-36.066-10.024-55.109-8.075-23.982 2.456-45.052 12.509-65.242 24.949-16.41 10.11-31.99 21.53-48.909 30.827-4.248 2.334-8.428 4.828-13.36 6.699.755-4.98 3.21-8.746 6.034-12.712h-42.17c4.196 6.129 6.857 12.484 7.746 19.473.33 2.593.48 5.227.482 7.842.032 30.589.02 61.178.02 91.767v4.008c8.75 1.177 17.236 2.719 25.982 5.758v-15.872c0-10.11-.038-10.187 9.05-14.671 22.473-11.088 46.032-15.373 70.367-8.186 28.564 8.436 45.826 28.689 53.564 56.833 7.182 26.12 5.18 51.78-9.003 75.349-14.809 24.608-37.104 36.442-65.93 36.113-21.034-.24-39.485-7.266-55.885-20.182-1.312-1.033-2.212-1.968-2.206-3.872.078-24.767.056-49.535.072-74.303.001-.523-.23-1.14.345-1.548 20.792 11.63 41.277 43.299 35.512 87.69 4.264 2.448 20.41 4.452 28.372 3.456 1.88-9.381 2.065-18.922 1.132-28.46-5.093-52.061-47.008-88.395-98.16-90.638-21.435-.94-42.027 2.592-61.819 10.87-1.015.424-1.968 1.21-3.329.936v-47.67c10.26 9.16 17.318 19.792 22.72 31.986 8.665-1.941 17.397-3.377 26.774-3.944-5.059-11.11-11.81-20.387-19.994-28.7-8.23-8.361-17.77-14.937-28.104-20.492.902-5.033 2.91-9.43 5.444-13.957h-40.615c.014.26-.08.63.061.842 5.67 8.449 7.701 17.814 7.682 27.903-.099 52.96-.053 105.92-.057 158.88v3.517c5.9-2.064 10.986-4.97 15.776-8.394 10.32-7.381 10.304-7.413 10.308-20.053.007-16.778.048-33.556-.052-50.334-.014-2.305.712-3.754 2.503-5.154 7.428-5.806 15.481-10.47 24.286-13.828.93-.355 1.84-.953 3.355-.591 3.646 34.413-2.09 66.15-28.659 90.828-34.818 32.338-91.078 25.94-119.379-12.988-13.604-18.711-19.192-39.913-18.698-62.796.534-24.756 7.9-47.084 24.482-65.928 1.097-1.246 2.103-2.634 3.906-3.58-1.74 9.465-.042 17.92 6.228 24.902 8.858 9.865 20.16 12.403 32.76 9.484 13.303-3.082 20.81-12.063 23.994-24.92 2.63-10.615 2.21-21.253-.79-32.033 3.818-.61 7.272.779 11.275 1.04-1.043-6.195-3.71-11.323-8.11-15.438-1.54-1.442-3.965-.774-5.958-.7-2.463.09-3.816-.731-5.033-2.977-6.289-11.603-14.402-21.847-23.794-31.492 45.001 21.495 92.102 29.458 142.085 22.528v-21.967c-28.172 7.629-56.325 8.286-84.649 3.518-28.365-4.775-54.463-15.621-79.296-30.153-5.113 4.662-9.635 9.582-14.124 14.819 12.264 7.926 23.187 17.012 32.456 27.97 10.115 11.96 17.668 25.224 19.856 41.004.944 6.81 1.15 13.676-1.17 20.32-3.323 9.517-12.34 14.352-21.083 11.396-8.518-2.88-12.863-12.54-9.827-21.956 2.415-7.491 8.09-11.627 15.065-14.314 2.221-.856 4.547-1.44 7.14-2.245-.9-4.677-3.028-8.792-5.148-12.904-.569-1.103-1.502-.663-2.4-.45-42.362 10.095-79.05 41.724-85.05 90.04-3.354 26.992.553 52.694 15.587 75.808 17.532 26.957 43.117 41.974 74.275 48.062 15.901 3.107 31.774 2.458 47.91-1.27-.428 11.975.89 23.725-.899 35.398-.905 5.91-3.282 11.312-7.294 16.406h34.042v-10.162c5.593 2.53 10.718 4.943 16.091 6.71 31.485 10.364 62.606 10.29 92.985-3.91 19.2-8.973 33.856-22.996 43.703-41.84 1.096-2.096 2.322-2.567 4.508-2.546 23.43.228 45.266-5.403 64.641-18.837 25.597-17.75 39.464-42.515 41.952-73.452 2.495-31.023-6.264-58.526-27.754-81.334-19.28-20.464-43.51-30.666-71.386-32.592-1.414-.097-2.83-.158-4.304-.76 3.254-1.144 6.57-2.14 9.75-3.462 13.646-5.678 26.142-13.447 38.55-21.374 11.726-7.493 23.573-14.79 35.898-21.275 1.401-.737 2.851-1.383 4.51-2.183 5.228 7.38 9.73 15.019 13.85 22.878 20.216 38.565 29.974 79.705 27.23 123.102-5.313 83.974-44.115 148.753-115.088 193.814-33.256 21.114-70.058 32.117-109.4 34.742-91.652 6.115-179.424-41.268-224.726-121.398-22.764-40.266-33.775-83.586-30.933-129.666 5.187-84.131 44.092-148.997 115.217-194.091 33.267-21.092 70.062-32.227 109.418-34.641 52.094-3.195 100.204 9.23 144.317 37.083 2.413 1.523 4.344 2.21 7.084.668 2.843-1.601 6.05-2.554 9.528-3.964"/><path d="M250.086 537.248c3.339-.091 6.61.272 9.763 1.418 4.869 1.77 8.132 5.015 8.978 10.259.909 5.633-.538 10.613-5.397 13.841-8.552 5.682-17.878 6.648-27.405 2.89-5.142-2.028-8.084-6.167-8.452-11.86-.373-5.764 2.39-9.81 7.112-12.701 4.719-2.89 9.97-3.757 15.4-3.847m22.584 23.707c2.434 4.795 3.49 9.71 5.322 14.707 1.316-3.144 2.51-6.008 3.712-8.869.44-1.048-.362-1.712-.783-2.469-1.273-2.289-2.623-4.535-3.89-6.827-2.093-3.782-3.706-7.606-4.401-12.048-1.998-12.767-11.655-20.224-24.634-19.727-13.12.502-23.165 9.853-24.39 22.778-.422 4.453-.175 8.881 1.045 13.218 2.844 10.112 10.22 16.473 20.1 17.334 11.822 1.031 21.05-3.864 25.968-13.794.64-1.295 1.197-2.633 1.95-4.303M829.778 598.162c.319-4.099 1.556-7.44 5.355-8.682 4.344-1.418 8.815-.777 12.229 2.298 2.809 2.53 1.509 6.051.964 9.606zm-19.987-29.768c-.753 4.031-1.317 7.505-2.08 10.935-.361 1.628.67 2.272 1.612 3.064 4.885 4.113 9.792 8.2 14.657 12.335.83.705 1.995 1.151 2.326 2.694-7.077-.993-13.877-2.69-21.044-4.259l-2.117 11.133c15.716 2.353 31.268 5.097 47.044 8.741.946-7.79 3.643-15.127 3.944-22.888.197-5.094-2.784-9.27-7.334-10.83-5.41-1.857-10.832-.419-14.206 3.83-.905 1.138-1.66 2.396-2.576 3.736-7.086-5.646-13.206-12.099-20.226-18.49M537.42 834.358c3.938-.308 7.438.21 9.316 3.845 2.1 4.064 2.334 8.488-.2 12.388-2.075 3.198-5.645 2.621-9.116 2.354zm25.433-25.068c-1.607 0-2.556.17-3.422-.027-7.221-1.627-11.205 1.794-13.982 8.145-2.033 4.65-4.948 8.913-7.966 14.22v-22.112h-11.217a500 500 0 0 1-.067 47.616c8.185-.558 16.22 1.072 24.199-.51 4.805-.955 7.82-4.415 8.392-9.188.614-5.138-.875-9.504-5.421-12.4-1.508-.96-3.212-1.616-4.984-2.488 4.128-7.979 9.549-15.13 14.468-23.256M672.335 824.249l-8.224-16.65c5.71-3.743 10.41-2.63 13.579 3.043 3.82 6.845 2.657 9.978-5.356 13.607m-18.754-39.533-10.2 4.858c7.533 14.159 14.358 28.505 20.77 43.259 5.674-3.554 11.87-5.334 17.454-8.43 6.723-3.728 9.344-8.302 7.794-13.87-1.86-6.687-6.439-9.768-14.2-9.559-.447.012-.894.001-1.773.001.054-9.03 2.045-17.795 2.878-27.177-3.774 1.8-7.138 3.407-10.505 5.009-1.365.649-.968 1.928-1.045 3.003-.527 7.354-1.023 14.71-1.846 22.145-3.812-6.032-6.17-12.718-9.327-19.239M319.608 746.763a572 572 0 0 1 23.11-23.687l-4.583-4.398c-10.219 11.807-20.523 23.806-32.13 34.52 2.307 4.009 5.539 4.998 9.97 4.602 12.042-1.077 24.125-1.688 36.192-2.474.67-.044 1.346-.006 2.718-.006-3.417 3.582-6.398 6.809-9.491 9.924-4.043 4.07-8.174 8.053-12.268 12.073-.87.854-1.05 1.725-.08 2.634 1.063.993 2.124 1.987 3.333 3.119 10.403-12.164 21.243-23.723 32.267-35.018-2.146-3.696-5.141-4.192-9.042-3.842-12.156 1.089-24.351 1.739-36.531 2.545-.87.058-1.746.008-3.465.008M728.005 734.435l-4.38 4.585c12.236 10.218 24.466 20.356 35.445 31.737 3.845-2.554 4.818-5.716 4.32-10.17-1.33-11.892-2.06-23.85-3.016-35.783-.059-.74-.008-1.489-.008-2.964l23.728 22.35 4.163-4.398c-12.218-10.117-24.03-20.717-35.52-31.532-3.95 2.16-4.144 5.325-3.737 9.137 1.245 11.672 2.171 23.378 3.188 35.074.115 1.33.015 2.68.015 4.697a616 616 0 0 1-24.198-22.733M599.228 831.43c4.121-10.45 8.543-20.416 13.272-30.851-4.089.705-7.817 1.34-11.542 1.996-1.424.25-1.527 1.59-1.934 2.583-2.795 6.82-5.533 13.662-8.619 21.316-1.728-7.409-2.8-14.042-3.718-21.048l-11.143 2.031c3.575 15.571 6.54 31.063 8.855 46.916l10.96-2.01-4.192-20.597.61-.415q7.1 5.977 14.196 11.958c.522.441 1.112.841 1.517 1.377 3.256 4.306 7.37 5.002 12.421 2.718zM796.388 679.012l5.397-8.945c-5.413-3.115-11.063-5.983-16.603-9.81-8.208 7.966-15.56 16.454-17.032 28.348-2.374 19.171 16.826 28.125 29.115 25.861 12.685-2.336 25.128-18.638 24.022-31.8l-6.505-1.69c-.71.561-.627 1.002-.452 1.432 4.666 11.46-5.383 25.12-20.057 22.03-6.591-1.388-12.23-4.525-16.257-9.972-6.273-8.484-3.137-16.748 2.906-23.123 1.199-1.265 2.285-.512 3.35.144 3.973 2.446 7.927 4.92 12.116 7.525M566.219 258.235c0 2.286-.225 4.532-1.248 6.62-.932 1.904-2.401 2.983-4.596 2.83-2.27-.158-3.832-1.27-4.496-3.497-.624-2.094-.722-4.233-.485-6.396.512-4.681 2.895-7.653 5.948-7.412 2.968.234 4.856 3.273 4.877 7.855m-9.96-19.515c.056-4.09.224-7.4 2.014-10.321 2.358-3.85 6.394-3.828 8.704-.015 2.26 3.733 1.725 13.287-.936 16.698-2.747 3.522-7.141 2.969-8.97-1.118-.865-1.934-.768-3.985-.811-5.244m12.552 11.144c10.173-4.243 13.145-14.67 6.537-22.061-5.18-5.793-18.613-6.946-24.717-2.121-7.617 6.02-5.984 17.63 3.265 22.949-.257.237-.465.569-.755.674-4.703 1.704-7.285 4.984-7.275 10.038.01 4.628 2.888 8.267 7.895 10.066 3.707 1.332 7.549 1.747 11.454 1.083 5.988-1.018 9.466-3.94 10.292-8.563.9-5.04-1.127-8.768-6.696-12.065M513.814 262.195c-.181.916-.274 2.427-.786 3.778-1.341 3.533-6.156 4.24-8.227 1.083-2.323-3.542-3.041-7.565-1.762-11.71.596-1.933 1.957-3.368 4.103-3.596 2.17-.23 3.63 1.016 4.736 2.726 1.405 2.176 1.623 4.675 1.936 7.719m-14.543-26.948c.063-.595.087-1.972.374-3.291.506-2.328 1.586-4.36 4.162-4.853 2.798-.536 4.64 1.175 5.73 3.378 2.119 4.28 2.738 8.898 1.724 13.587-.565 2.617-2.166 4.627-5.088 4.713-2.748.082-4.271-1.762-5.27-4.111-1.174-2.766-1.43-5.703-1.632-9.423m.71 16.205c-3.524 1.939-5.838 4.188-6.523 7.682-1.116 5.69 2.287 10.826 8.168 12.367 4.456 1.167 8.843.672 13.12-.774 5.327-1.802 8.269-5.485 8.29-10.082.026-5.415-2.471-8.592-8.338-10.61-.024-.516.27-.764.692-1.023 5.816-3.572 7.698-8.013 6.149-14.43-1.462-6.061-6.138-9.99-12.43-10.366-2.966-.177-5.913-.073-8.83.659-7.124 1.786-11.083 6.046-11.333 12.303-.282 7.068 3.244 11.832 11.036 14.274M229.43 602.314l2.975 10.989c7.61-2.845 15.34-5.102 23.126-7.168 4.08-1.084 8.187-2.044 12.469-1.768 5.238.339 7.89 2.596 9.839 8.42 1.84 5.499 1.062 8.98-2.86 12.318-2.644 2.25-5.764 3.622-9.03 4.722-8.85 2.978-17.972 4.937-27.165 7.113l1.779 6.644c6.517-1.978 13.012-3.943 19.504-5.921 4.135-1.26 8.392-2.133 12.34-3.98 8.53-3.992 12.07-10.772 10.426-20.036-.763-4.3-2.03-8.434-4.354-12.155-3.588-5.745-8.937-9.08-15.55-7.71-11.22 2.328-22.241 5.61-33.498 8.532M445.416 817.757c7.282 2.556 9.177 7.298 6.193 14.23-2.4 5.574-6.165 6.873-12.025 3.89zm1.218-3.834 6.858-19.297-10.686-3.54c-4.488 15.319-9.344 30.32-15.117 45.427 7.332 1.728 13.855 5.424 21.173 6.697 5.371.935 10.091-1.286 12.478-5.68 2.996-5.513 2.594-11.891-1.006-16.023a17.7 17.7 0 0 0-6.283-4.618c-2.283-1.003-4.63-1.86-7.417-2.966M483.562 821.815l12.307 2.089-8.884 15.203c-1.382-6.206-2.716-11.424-3.423-17.292m-10.067-19.985 11.195 50.246c5.378 1.218 5.356 1.205 8.065-3.393 7.58-12.867 15.025-25.82 23.482-38.148.244-.355.396-.773.739-1.458-3.645-.665-7.094-1.278-10.535-1.931-1.201-.228-1.584.587-2.02 1.404-1.285 2.414-2.804 4.734-3.813 7.257-1.362 3.407-3.423 4.81-7.02 3.547-.638-.224-1.34-.268-2.014-.386-9.612-1.68-9.613-1.68-10.988-11.137-.799-5.496-.799-5.496-7.092-6.001M712.296 770.946c1.684 5.615 3.352 10.796 4.561 16.937l-14.784-9.502zm12.387 27.663c4.556-1.621 4.407-4.364 3.273-8.312-4.115-14.326-7.956-28.737-10.905-43.364-.086-.43-.262-.84-.476-1.512l-9.598 6.868c1.227 4.088 2.336 8.136 3.685 12.103.542 1.592.242 2.502-1.082 3.422-3.273 2.273-6.516 4.593-9.688 7.005-1.34 1.019-2.387.852-3.65-.07-3.313-2.411-6.683-4.743-10.26-7.27l-5.199 3.816c14.79 9.2 29.352 18.262 43.9 27.314M789.4 645.215c15.167 5.08 30.021 10.5 44.951 16.742 2.817-8.473 5.772-16.806 9.295-25.141l-5.569-2.24-4.715 14.856c-4.94-1.24-9.488-3.093-14.366-4.927l5.844-14.36-5.407-2.146-4.998 14.752c-5.617-1.833-10.99-3.755-16.348-6.167 1.523-5.14 3.911-9.653 6.042-14.487l-5.43-2.038zM305.257 721.38l4.73-3.316-9.377-12.545 14.31-9.928c3.556 4.129 5.78 8.88 8.741 13.315l4.665-3.314-15.399-21.976c-12.743 9.65-25.769 18.654-39.377 27.488 5.476 7.157 10.625 14.36 15.422 21.956 1.638-1.12 3.126-2.135 4.985-3.403l-9.494-12.202c3.652-3.502 7.914-5.922 11.933-9.03 3.49 4.057 5.712 8.82 8.861 12.956M279.332 681.73l5.287-2.545-7.199-13.747c5.298-2.81 10.371-5.331 15.78-7.525 2.604 4.487 4.203 9.364 6.258 14.346l5.246-2.401-11.568-23.936-43.223 20.88c4.13 7.724 8.037 15.55 11.538 23.848l5.476-2.562-7.397-13.555c4.28-2.84 8.685-4.686 13.492-7.036zM382.765 802.937c-4.52 2.745-8.162 3.27-11.746.64-2.396-1.758-3.726-4.081-3.052-7.084.685-3.046 2.856-4.462 5.906-4.79 3.34-.358 6.602.246 9.873.654 8.173 1.02 13.606-1.472 16.62-7.764 3.02-6.306 1.447-13.267-4.324-18.567-3.497-3.211-7.53-5.473-12.23-6.523-1.826-.407-2.846.046-3.21 1.893-.461 2.336-2.154 4.37-1.978 7.527 4.468-3.567 8.745-4.105 13.161-1.068 3.217 2.212 4.463 5.019 3.595 8.15-.862 3.11-3.429 5.12-7.266 5.082-4.09-.04-8.178-.708-12.269-.738-7.564-.054-12.937 4.719-14.122 12.213-1.429 9.037 7.893 19.052 17.246 18.56.987-.052 1.791-.15 2.062-1.306.458-1.95.974-3.885 1.733-6.88M855.938 529.077l-6.859 2.21c.274 1.617 1.646 1.71 2.493 2.356 3.211 2.445 4.368 7.169 2.554 10.749-2.064 4.07-7.115 4.75-10.264 1.293-2.497-2.741-3.715-6.24-5.336-9.497-2.079-4.18-4.696-7.882-9.493-9.244-7.163-2.033-14.589 1.353-17.637 8.17-2.673 5.98-2.655 12.15-.744 18.365.596 1.938 1.573 2.847 3.762 2.13 2.111-.692 4.323-1.073 6.378-1.564.17-1.27-.607-1.36-1.194-1.647-5.03-2.457-7.008-6.713-5.635-12.12.643-2.53 2.227-4.268 4.721-4.92 2.566-.67 4.977-.254 6.897 1.825 2.61 2.827 3.852 6.416 5.533 9.767 3.527 7.03 8.365 9.903 15.245 9.075 6.183-.744 10.205-4.173 12.128-10.043 1.832-5.591.87-12.11-2.549-16.905M601.45 262.413c-2.137.99-3.949 1.853-5.782 2.67-.9.402-1.136 1.097-.902 1.946.302 1.093.6 2.21 1.088 3.225 3.797 7.88 18.463 11.42 25.507 6.188 3.8-2.823 5.306-8.286 3.824-13.993-1.484-5.714-4.549-10.661-7.65-15.581-1.39-2.201-2.849-4.358-4.595-7.02 6.633 1.27 12.51 3.275 18.646 4.996.927-2.888 1.091-5.747 2.447-8.461l-29.667-7.612c-1.368 1.882-.668 3.296.315 4.835 3.87 6.058 7.496 12.246 9.636 19.182 1.485 4.81 1.627 9.634.274 14.492-.527 1.893-1.38 3.648-2.693 5.096-1.646 1.816-3.75 2.52-6.192 1.984-2.4-.53-3.52-2.22-4.22-4.441-.742-2.361-.047-4.712-.036-7.506M471.976 279.47c-4.967-15.457-9.197-30.448-13.132-45.742l-10.517 3.117c4.408 12.096 7.918 24.178 11.307 36.756l-8.588-1.366-2.202 4.548c7.869.757 15.459 1.616 23.132 2.686"/><path d="M540 876.41c-45.418 0-89.474-8.893-130.944-26.433-40.059-16.943-76.037-41.201-106.934-72.098-30.898-30.898-55.155-66.876-72.099-106.934-17.54-41.47-26.434-85.526-26.434-130.945 0-45.417 8.894-89.473 26.434-130.944 16.944-40.058 41.201-76.036 72.099-106.934 30.897-30.897 66.875-55.155 106.934-72.098 41.47-17.541 85.526-26.435 130.944-26.435s89.474 8.894 130.944 26.435c40.059 16.943 76.036 41.2 106.935 72.098 30.897 30.898 55.154 66.876 72.098 106.934 17.541 41.47 26.434 85.527 26.434 130.944 0 45.419-8.893 89.475-26.434 130.945-16.944 40.058-41.201 76.036-72.098 106.934-30.899 30.897-66.876 55.155-106.935 72.098-41.47 17.54-85.526 26.434-130.944 26.434M540 190c-47.247 0-93.084 9.255-136.238 27.508-41.678 17.629-79.108 42.864-111.249 75.005-32.142 32.142-57.377 69.57-75.005 111.25C199.255 446.916 190 492.753 190 540s9.255 93.084 27.508 136.238c17.628 41.679 42.863 79.109 75.005 111.25 32.141 32.14 69.571 57.376 111.249 75.005C446.916 880.746 492.753 890 540 890s93.084-9.254 136.238-27.507c41.678-17.63 79.108-42.864 111.249-75.005 32.142-32.141 57.377-69.571 75.006-111.25C880.745 633.084 890 587.247 890 540s-9.255-93.083-27.507-136.237c-17.629-41.68-42.864-79.108-75.006-111.25-32.141-32.141-69.571-57.376-111.249-75.005C633.083 199.255 587.247 190 540 190"/></g></g></svg>