<svg xmlns="http://www.w3.org/2000/svg" width="639" height="933.333" viewBox="0 0 639 933.333"><clipPath id="a"><path d="M0 1080h1080V0H0z"/></clipPath><g clip-path="url(#a)" transform="matrix(1.33333 0 0 -1.33333 -400.5 1186.666)"><path fill="#353833" fill-rule="evenodd" d="M317.882 872.493h444.236v-225.4c0-163.033-75.499-284.486-222.118-355.607-147.714 67.838-222.118 195.857-222.118 355.607zM300.375 890h479.25V645.999c0-226.495-145.525-331.536-239.625-374.21C391.192 339.63 300.375 468.743 300.375 646z"/><path fill="#f1bf26" fill-rule="evenodd" d="M313.506 875.776h452.989V647.093c0-165.221-78.781-288.863-226.495-359.985-147.714 67.838-226.494 198.046-226.494 359.984zm-9.848 9.848h472.685V645.998c0-168.503-83.158-299.804-236.343-369.832-156.467 71.121-236.342 204.611-236.342 369.832z"/><path fill="#353833" d="M312.411 877.964h1.095v-1.094h-1.095zm0-1.094h2.189V647.093h-2.189zm118.172-518.641c-77.687 72.217-118.172 172.881-118.172 288.863h2.189c0-115.982 39.39-215.553 117.077-287.768zm50.332-39.389c-18.601 12.035-35.014 25.165-50.332 39.389l1.094 1.095c15.318-14.224 31.731-27.354 50.332-39.391zm57.991-32.826c-20.789 9.848-40.485 20.789-57.991 32.826l1.094 1.093c17.507-12.035 37.202-22.977 57.991-31.73zm0 0 1.094 2.189zm1.094 0h-1.094l1.094 1.094zm149.902 117.077C652.701 356.041 602.368 316.65 540 286.014l-1.094 2.189c62.369 29.542 112.7 68.933 148.808 115.982zm19.696 28.448c-6.566-9.847-13.13-18.601-19.696-28.448l-2.188 1.094c7.659 9.848 14.225 18.602 19.696 28.449zm56.897 215.553c0-82.063-18.601-154.279-56.897-215.553l-2.188 1.095c38.296 60.179 56.897 132.395 56.897 214.458zm0 0h-2.188zm0 0h-2.188v229.777h2.188zm-1.094 230.872h1.093v-1.094h-1.093zm-451.895 0h451.895v-2.188H313.506z"/><g fill-rule="evenodd"><path fill="#4580c2" d="M317.882 872.493h444.236v-225.4c0-163.033-75.499-284.486-222.118-355.607-147.714 67.838-222.118 195.857-222.118 355.607z"/><path fill="#f1bf26" d="M717.257 335.252v10.942c-1.093-1.095-2.188-1.095-2.188-1.095-4.376 0-9.847 3.283-9.847 6.566 1.093 5.471 6.564 8.752 10.942 8.752 4.376 1.095 10.94-2.188 10.94-6.564 1.095-7.659 1.095-14.225-9.847-18.6m-352.325 9.846h-2.188v-9.847c-12.036 4.376-12.036 10.942-10.942 17.506 1.094 4.378 6.565 7.66 10.942 7.66s9.847-4.377 10.942-8.753c1.094-3.283-4.377-6.566-8.754-6.566m403.75-50.333c-3.28 6.566-6.563 14.225-10.941 21.884-5.471 13.131-5.471 25.166-7.66 37.203-1.092 14.224-15.317 28.448-32.824 27.354-13.13 0-28.448-14.224-28.448-28.449 1.094-12.035 10.942-21.883 12.035-33.919 2.188-17.507-1.093-17.507 1.095-26.26C658.172 264.13 595.804 249.905 540 249.905s-112.701 13.13-161.94 43.767c1.096 8.754 0 19.695 2.19 28.448 2.188 9.848 8.753 18.602 10.942 28.45 0 13.13-7.66 29.542-29.544 30.636-13.13 2.188-31.73-12.036-32.825-29.542 0-10.942-3.282-20.79-6.565-30.638-2.188-7.659-6.565-14.224-8.753-21.883-7.66-14.225 9.847-28.449 15.318-36.108C363.838 221.457 468.879 190.82 540 191.914c70.026 0 173.973 28.45 210.08 70.027 10.943 9.848 19.697 22.978 18.602 32.825"/><path fill="#353833" d="M690.997 284.92c4.376 2.188 7.659 3.283 12.035 5.47v1.096c2.19 0 3.283 1.093 5.471 2.188q14.772 9.847 29.544 22.977c5.471 6.565 9.847 13.13 13.13 20.79 0-4.378 1.093-7.66 2.188-10.942 3.283-10.942 8.754-21.884 13.13-31.732 1.094-3.281 0-6.564-1.094-9.847-6.565-13.13-20.79-26.26-28.449-32.825-41.579-35.014-122.547-54.71-172.88-57.992-18.601-1.093-42.672-1.093-61.274 1.095-50.332 5.47-121.453 25.166-159.75 56.897-7.659 6.565-21.883 19.695-28.448 32.825-1.094 3.283-2.189 6.566-1.094 9.847 4.376 9.848 9.847 20.79 13.13 31.732 1.094 3.283 2.188 6.564 2.188 10.942 3.283-7.66 7.659-14.225 13.13-20.79q14.772-13.13 29.543-22.977c2.189-1.095 3.283-2.188 5.471-3.283l3.283-1.095c3.282-2.188 7.659-4.376 10.941-6.564 17.507-7.66 37.202-17.507 56.897-22.978 33.92-8.754 74.405-13.13 91.911-12.036 17.508-1.094 57.992 3.282 91.911 12.036 13.131 4.377 27.354 9.848 39.391 15.319q11.489 4.921 19.695 9.847m-310.746 45.955c-9.848-2.188-21.884 1.095-28.449 8.754l-3.283-24.072c7.659-6.565 16.413-13.13 25.167-18.601l3.282-2.19c0 10.943-1.094 20.79 1.094 29.545 1.094 2.188 2.189 4.376 2.189 6.564m319.5 0c9.847-2.188 20.789 1.095 28.448 8.754l3.282-24.072c-7.659-7.66-16.412-13.13-25.166-18.601l-3.283-2.19c0 10.943 1.095 20.79-1.093 29.545-1.095 2.188-2.188 4.376-2.188 6.564m19.694 6.566v9.847c-4.376-1.094-10.942 0-10.942 4.377 0 5.47 4.378 6.565 8.754 6.565 4.377 0 8.753-3.283 8.753-7.66 1.095-4.376 0-6.565-2.188-8.753-1.094-2.188-3.282-3.283-4.377-4.376m-347.948-3.283V345.1c-1.094-1.095-3.282-1.095-4.377-2.188h-3.282v-7.66c2.188 0 5.471-1.094 7.659-1.094m0 17.507c0 5.47-4.377 6.565-8.753 6.565s-8.754-3.283-9.848-7.66c0-4.376 1.094-6.565 3.282-8.753 1.095-2.188 3.283-3.283 4.377-4.376v9.847c3.283-1.094 10.942 0 10.942 4.377m337.006-6.565v-10.942c2.189 0 4.378 1.095 6.566 2.188v6.566h-2.188c-1.095 1.093-3.283 1.093-4.378 2.188m-322.782-5.471c-3.282-1.095-6.565-1.095-9.847-1.095v-4.376h5.471l1.094 1.095c1.094 1.093 2.188 3.28 3.282 4.376m3.283 15.318c-4.377-5.471-7.659-7.66-13.13-8.753v-4.377c4.377 0 8.753 1.095 12.036 3.283 0 2.188 1.094 4.376 1.094 6.565zm-5.471 13.13c-1.094-6.565-3.282-12.035-7.659-15.318v-3.284c5.471 2.19 8.753 5.472 12.036 9.849-1.095 3.283-3.283 6.565-4.377 8.754m-9.847 7.659c3.282-5.471 2.188-12.036 0-17.507 0-1.094 0-1.094 1.094-2.188 4.376 4.376 5.471 10.94 4.376 16.412-1.094 1.095-3.282 3.283-5.47 3.283m-15.319 3.283c5.471-4.378 8.753-10.942 9.848-17.508 1.094 0 1.094-1.094 2.188-1.094 2.188 7.66 2.188 13.13-2.188 18.602h-6.566zm-18.601-7.66c8.753 0 15.318-3.282 20.789-8.753h3.283c-1.094 7.659-5.471 12.035-10.942 15.318q-8.207-1.642-13.13-6.565m-7.659-14.224c7.659 3.282 14.224 4.376 21.883 2.188 1.094 0 2.188 1.094 3.283 1.094-5.471 5.47-13.131 7.66-20.79 6.565l-3.282-6.565c0-1.094-1.094-2.188-1.094-3.282m-1.094-14.224c5.47 6.564 12.035 8.753 18.6 8.753 1.094 2.188 1.094 3.282 2.189 4.377-7.66 1.094-15.319 0-20.789-4.377v-1.094zm4.376-12.037c3.283 6.566 7.659 9.849 13.13 12.037l1.094 5.47c-6.565-1.094-13.13-3.282-17.506-9.848 1.094-2.188 2.188-4.376 3.282-7.66m13.13 7.66c-5.471-2.188-7.659-5.471-9.847-10.942 2.188-3.281 4.376-5.47 6.565-8.752zm382.962 0c5.471-2.188 7.659-5.471 9.847-10.942-2.188-3.281-4.376-6.564-6.564-8.752zm-1.094 9.849c6.565-1.095 12.036-3.283 16.412-9.85 0-3.28-1.093-5.47-3.281-7.658-2.19 6.566-6.566 9.849-12.037 12.037zm-2.188 7.659c7.659 1.094 15.319 0 20.79-4.377v-8.753c-6.566 6.564-12.037 8.753-18.602 8.753-1.094 2.188-1.094 3.282-2.188 4.377m-5.471 4.376c5.471 5.47 13.13 7.66 20.79 6.565 2.188-3.282 3.281-6.565 4.376-9.847-7.659 3.282-14.225 4.376-21.884 2.188-1.094 0-2.188 1.094-3.282 1.094m-7.659 2.189c2.188 7.659 5.471 12.035 12.036 15.318q8.206-1.642 13.13-6.565c-8.754 0-15.319-3.282-21.884-8.753h-1.094zm-5.471-2.19c-3.283 6.566-2.188 12.037 1.094 17.508 3.282 1.095 5.471 2.188 7.659 1.095h3.283c-6.565-4.378-8.753-10.942-9.848-17.508-1.094 0-1.094-1.094-2.188-1.094m-4.376-4.376c-4.378 4.376-5.471 10.94-4.378 16.412 1.095 1.095 3.283 2.188 4.378 3.283-2.19-6.566-1.095-12.036 1.093-17.507 0-1.094-1.093-1.094-1.093-2.188m-1.095-6.566c-5.471 1.095-8.754 4.377-12.037 9.848 1.095 3.283 2.19 5.47 4.378 8.754 0-7.66 3.283-12.036 7.659-16.413zm-9.847-9.847c3.281-1.095 6.564-2.188 9.847-1.095v-4.376h-5.471l-1.095 1.095c-1.093 1.093-2.188 3.28-3.281 4.376m9.847 2.188c-4.376 0-8.754 1.095-12.037 3.283 0 2.188-1.093 4.376-1.093 6.565v2.188c4.376-4.377 7.659-6.565 13.13-8.753zm-323.876-49.238c0 8.754 0 17.507 1.094 26.26 2.188 15.319 9.847 16.414 10.941 32.826 1.094 16.413-15.318 31.73-30.637 31.73-15.318-1.094-28.448-7.658-33.919-27.353-1.094-7.66-1.094-15.318-2.188-20.79-2.189-10.941-6.565-19.695-16.413-39.39-3.283-15.318 28.449-54.71 82.063-75.498 36.108-15.32 77.687-26.261 121.454-29.544 15.318-1.093 31.731-1.093 47.05 0 47.05 2.19 90.817 14.225 129.113 29.544 53.614 20.789 85.345 60.18 82.063 75.498-9.848 19.695-14.224 28.449-16.412 39.39-1.095 5.472-1.095 13.13-2.19 20.79-1.093 3.282-2.188 6.565-3.281 8.753-6.566 13.13-18.602 18.6-30.638 18.6-15.319 0-31.731-15.317-30.637-31.73 1.095-16.412 8.754-17.507 10.942-32.825 1.095-8.754 1.095-17.507 1.095-26.261-7.661-3.283-14.225-6.564-20.79-9.847l-1.094-1.095h-1.095l-1.094-1.093c-1.094 0-3.282-1.095-5.471-2.19-10.942-5.47-22.977-9.847-35.014-13.13-32.825-9.847-65.65-13.13-91.91-14.224H540c-32.825 1.095-63.462 4.377-95.193 14.225-22.978 6.565-43.767 17.507-64.556 27.354"/><path fill="#353833" d="m351.802 273.978 4.376-3.283c-2.188-2.188-4.376-4.376-6.565-5.471-2.188-1.093-4.377 0-7.659 1.095-3.282 2.188-5.47 4.376-5.47 7.659-1.095 2.188 0 6.566 2.188 10.942s4.376 6.565 6.564 8.753c3.283 1.094 7.66 1.094 10.942 0 3.283-2.188 5.471-5.47 5.471-8.753 0-2.188 0-4.376-1.094-6.566l-5.47 3.283c1.093 2.188 1.093 3.283 1.093 4.377s-1.094 1.094-2.188 2.189q-1.64 1.64-3.283 0-3.282 0-6.565-6.566c-1.094-3.283-2.188-5.471-2.188-7.659 1.094-1.095 1.094-2.188 3.282-2.188 1.095-1.095 2.19-1.095 2.19-1.095 1.093 0 2.187 1.095 4.376 3.283M367.12 255.377c2.19-1.095 3.283-1.095 4.377 0 2.19 0 3.283 2.188 5.471 5.471 2.188 4.376 2.188 6.564 2.188 8.754 0 1.093-1.094 2.188-2.188 3.281h-4.377c-2.188-1.093-3.282-3.28-5.47-6.564-2.189-3.283-2.189-5.47-2.189-7.659 0-1.095 1.094-2.19 2.188-3.283m-2.188-5.47c-3.283 2.187-4.377 4.375-5.47 6.563-1.095 2.19-1.095 4.378 0 7.661 0 1.093 0 1.093 1.093 2.188 0 1.093 0 2.188 1.094 3.283 1.095 1.093 2.19 3.281 3.283 4.376 2.188 2.188 3.283 3.283 5.471 4.376 3.283 1.095 5.471 0 8.753-1.093 3.283-2.189 5.471-5.47 6.565-8.754q0-4.925-3.282-9.847c-2.189-4.378-4.377-6.566-6.565-8.754-3.283-1.095-6.565-1.095-10.942 0M393.38 255.377l-7.659-15.319-5.47 2.19 12.035 26.26 5.471-3.284 1.094-18.6 7.66 15.317 5.47-2.188-13.13-26.26-5.47 2.19zM410.887 237.87l6.566-1.093c-1.095-2.19-1.095-3.283 0-4.378 0-1.093 1.094-1.093 2.188-2.188h2.188c1.094 0 2.19 1.095 2.19 2.188 1.093 1.095 0 2.188-1.096 4.378l-2.188 1.093c-3.282 2.188-4.377 3.283-5.47 5.47v5.472c1.093 2.188 2.188 4.377 4.376 5.47 1.094 1.095 4.377 1.095 7.66 0s5.47-3.282 6.564-5.47v-5.471l-5.47 1.095c0 1.093 0 2.188-1.095 3.282 0 0-1.094 1.094-2.188 1.094h-2.189s-1.094 0-1.094-1.094v-2.19c0-1.092 1.094-2.187 2.19-3.281 3.281-1.094 5.47-3.282 6.563-5.47v-5.471c-1.094-2.19-2.188-4.378-4.376-5.471-2.188-1.095-4.377-2.19-8.753 0-3.283 1.093-4.377 2.188-5.47 3.28-2.19 2.19-2.19 5.472-1.096 8.755M443.713 247.718l5.47-1.095-7.659-27.354-6.565 1.095zM468.879 218.175l-1.094-5.472-16.413 3.283 5.47 28.45 6.566-1.096-5.471-22.977zM480.915 238.965l5.47-1.095-4.376-28.448-5.471 1.094zM503.892 211.61c1.095 0 2.19 0 3.283 1.093 1.094 1.095 2.188 4.378 2.188 7.661 1.095 4.376 0 6.564-1.094 8.752-1.094 1.095-2.188 1.095-3.282 2.19-1.095 0-3.283-1.095-3.283-2.19-2.188-1.093-2.188-3.28-3.283-7.659 0-3.283 0-6.564 1.095-7.659s2.188-2.188 4.376-2.188m-1.094-5.47c-3.282 0-5.47 1.093-7.659 3.282-1.094 2.188-2.189 4.376-2.189 6.564-1.094 1.095-1.094 2.188-1.094 3.283v3.283c1.094 2.188 1.094 3.283 2.19 5.471 0 2.188 1.093 4.376 3.281 5.471 2.19 2.188 4.377 3.282 7.66 3.282q6.565-1.64 9.847-6.565c1.094-2.188 1.094-5.47 1.094-9.847q0-6.566-3.282-9.849c-2.188-3.282-5.47-4.376-9.848-4.376M548.754 222.552l10.942 1.093v-5.47l-10.942-1.094v-6.565l13.13 1.094v-5.471l-18.601-1.094-1.095 28.449 18.601 1.093v-5.471h-12.035zM573.92 230.211l-7.66-1.095v5.471l19.695 2.19v-5.471l-6.564-1.095 2.188-22.978h-5.47zM623.158 224.74l5.471 1.095-5.47 9.847zm-4.377 17.507 5.47 1.094 15.32-26.26-6.566-1.095-2.188 5.471-7.659-2.188-1.095-5.47-5.47-1.095zM647.23 237.87l4.376-16.413-5.471-1.093-8.753 27.354 6.565 1.094 12.037-13.13h1.093l-5.471 16.413 5.47 1.094 8.755-27.354-5.471-2.19zM663.643 255.377l5.47 2.188 10.943-26.26-5.471-2.189zM698.656 240.058l-13.13 14.225 8.754-17.507-5.471-2.189-13.131 25.166 7.66 4.378 13.13-14.225-4.378 18.601 7.661 3.283 13.13-25.166-5.471-2.189-8.754 16.413 4.376-19.695zM706.315 277.26l5.471 3.284 15.319-24.073-4.377-3.282z"/><path fill="#fff" d="M451.654 853.163c-1.467-13.206 2.935-23.478 22.01-27.88-20.542-33.75-20.542-66.03-1.467-92.443l66.032-24.945c22.01 10.272 44.02 20.543 64.563 29.348 10.27 26.412 16.14 54.29 0 90.975 8.805 4.403 16.14 11.739 17.608 22.01-11.74 2.935-23.477 4.403-33.75-4.402-14.673 11.739-32.281 19.076-51.357 19.076-17.608 0-35.216-7.337-49.89-20.543-5.87 1.467-8.803 10.272-14.673 11.739-5.87 2.935-14.674-1.467-19.076-2.935"/><path fill="#fff" d="M451.654 853.163c-1.467-13.206 2.935-23.478 22.01-27.88-20.542-33.75-20.542-66.03-1.467-92.443l66.032-24.945c22.01 10.272 44.02 20.543 64.563 29.348 10.27 26.412 16.14 54.29 0 90.975 8.805 4.403 16.14 11.739 17.608 22.01-11.74 2.935-23.477 4.403-33.75-4.402-14.673 11.739-32.281 19.076-51.357 19.076-17.608 0-35.216-7.337-49.89-20.543-5.87 1.467-8.803 10.272-14.673 11.739-5.87 2.935-14.674-1.467-19.076-2.935"/><path fill="#353833" d="m729.293 269.602 4.376 3.282c1.095-1.094 3.283-1.094 4.378-1.094 0 0 1.093 0 2.188 1.094 1.093 1.094 1.093 1.094 1.093 2.189 1.095 1.093 0 1.093 0 2.188-1.093 1.093-3.28 2.188-4.376 1.093l-3.283-1.093c-2.188-1.095-4.376-2.188-6.564-2.188-1.095 0-3.283 1.093-5.47 3.28-1.096 2.19-2.19 3.284-2.19 5.472 0 2.19 1.094 4.378 4.377 7.66 2.188 2.189 5.471 3.282 7.66 2.189 2.187 0 3.282-1.095 4.375-3.283l-4.376-3.283c0 1.095-1.095 1.095-2.188 1.095-1.095 0-1.095-1.095-2.188-1.095-1.095-1.093-1.095-1.093-1.095-2.188s0-1.095 1.095-2.188c0-1.095 1.093-1.095 1.093-1.095 1.095 0 2.188 0 4.378 1.095 2.188 2.188 5.471 3.283 6.564 2.188 2.188 0 4.378-1.095 5.471-2.188q3.283-3.283 3.283-6.566c0-3.283-1.095-4.376-4.376-7.66q-3.284-3.28-6.566-3.281c-3.282-.001-5.47 1.094-7.659 4.377"/><path fill="#f1bf26" d="M569.042 829.685c8.805 0 14.674-24.945 14.674-44.02 0-16.14-8.804-36.685-16.14-36.685-8.805-1.467-16.142 22.011-16.142 39.62 0 19.075 8.805 41.085 17.608 41.085"/><path fill="#353833" d="M567.576 856.098c-17.61 2.934-26.413-7.337-30.815-22.01-1.468 0-1.468-1.468-2.934-1.468-1.468 0-1.468 1.468-2.935 1.468-4.402 13.206-16.141 24.944-30.815 19.075-5.87-2.935-10.271-7.337-13.206-11.74q-2.202-2.199-4.402 0c-4.402 5.87-11.74 17.609-29.347 10.273 1.467-16.141 8.804-22.011 20.542-20.544 1.468 0 4.403-2.934 2.936-5.868-26.413-39.62-16.141-77.77-1.468-92.444l61.629-20.543 63.096 27.88c16.14 27.88 10.272 66.03 0 88.04-1.468 1.468-1.468 2.935 0 2.935 8.804 1.468 14.674 8.805 17.608 17.609-5.868 0-10.271 1.467-16.141 1.467-4.401 0-7.337-1.467-11.738-5.87q-2.202-2.199-4.402 0c-5.87 4.403-11.74 8.805-17.608 11.74m-52.825 2.934c7.336-1.467 14.673-7.336 19.076-16.14 5.868 10.27 11.739 16.14 20.542 17.608-5.87 1.468-11.74 1.468-17.608 2.935-7.337 0-16.142-1.467-22.01-4.403m86.573-4.401c4.402 1.467 8.805 0 13.207 0h8.803c-2.934-13.207-4.401-22.011-17.608-26.413v-1.467c11.739-30.814 13.207-61.63-2.934-89.51l-66.031-30.814-64.564 23.479-2.934 2.934-2.935 4.402c-16.141 27.879-13.206 61.629 4.402 88.042-17.608 1.467-22.01 16.14-22.01 29.347 14.673 5.869 24.944 7.337 36.683-7.337l1.468 1.467c13.206 13.207 30.814 19.075 49.89 19.075s33.749-4.401 49.889-19.075c4.403 4.402 10.273 5.87 14.674 5.87"/><path fill="#353833" d="M569.042 826.75c7.337 0 13.207-23.477 13.207-41.085-1.468-14.674-7.337-35.217-14.673-35.217s-14.674 22.01-14.674 38.152c0 17.608 8.803 38.15 16.14 38.15m1.468 5.87 8.803 2.935s1.468 0 1.468-1.467c1.468 0 0-1.467 0-2.935l-5.869-1.468 4.401-4.401 4.403 2.934c1.468 0 2.934 0 2.934-1.467v-2.935l-5.869-1.467c0-1.468 1.468-2.935 1.468-4.402l5.87 1.467c1.467 1.467 2.933 0 2.933 0 0-1.467 0-2.935-1.466-2.935l-5.87-2.934v-2.935l7.336 1.467c1.468 0 2.935 0 2.935-1.467 0 0 0-1.468-1.467-2.935l-7.336-1.467v-2.935h8.803s1.468 0 1.468-1.467c0 0 0-1.468-1.468-1.468l-7.337-1.467V793h8.805s1.468 0 1.468-1.467-1.468-1.467-1.468-1.467l-8.805-1.467v-5.87h7.337c1.468 0 1.468 0 1.468-1.467s0-1.468-1.468-1.468h-7.337c-1.466-2.934-1.466-4.401-1.466-7.337h8.803s1.468 0 1.468-1.467-1.468-1.467-1.468-1.467h-10.27v-4.402l8.803-1.468c1.467 0 1.467 0 1.467-1.467s0-1.467-1.467-1.467h-10.27c-1.469-2.935-2.937-5.87-4.403-7.337-1.468-4.402-5.87-7.337-10.27-8.804-13.209 0-19.077 32.282-19.077 46.955 1.466 14.674 7.336 41.087 20.542 41.087z"/><path fill="#f1bf26" d="M501.544 829.685c-8.804 0-13.206-26.412-11.738-45.488 1.467-16.14 10.271-36.684 17.608-36.684 8.804 0 14.673 23.478 14.673 41.087-1.468 19.075-10.271 41.085-20.543 41.085"/><path fill="#353833" d="M501.544 826.75c-7.337 0-11.738-24.944-10.271-42.552 1.467-14.674 8.804-33.75 16.141-33.75s13.205 22.01 11.739 38.152c0 17.608-8.805 38.15-17.609 38.15m-1.467 4.403-7.337 2.935c-1.467 1.467-2.934 0-2.934 0 0-1.467 0-2.935 1.467-2.935l4.401-1.468c-1.467-1.467-1.467-2.934-2.934-4.401l-5.87 1.467s-1.467 0-1.467-1.467c-1.467 0 0-1.468 0-1.468l5.87-2.935c-1.467-1.467-1.467-2.934-1.467-2.934l-7.337 1.467s-1.468 0-1.468-1.467 0-2.935 1.468-2.935l5.869-1.467v-4.403l-7.337 1.468c-1.467 0-1.467 0-2.935-1.468l1.468-1.467 7.336-2.934v-2.935h-7.336c-1.468 0-1.468 0-1.468-1.468-1.467 0 0-1.467 1.468-1.467l7.336-1.467v-5.87h-8.804c-1.467 0-1.467 0-1.467-1.467s0-1.467 1.467-1.467h8.804v-5.87l-7.336-1.467c-1.468 0-1.468 0-1.468-1.468s1.468-1.467 1.468-1.467h8.804v-5.87l-7.337-1.467c-1.467 0-1.467 0-1.467-1.467s0-1.467 1.467-1.467h8.805c0-1.467 1.467-2.935 1.467-4.403l-8.804-1.467c-1.468 0-1.468 0-1.468-1.467s0-1.467 1.468-1.467h10.271c1.467-1.468 2.934-4.403 2.934-5.87 4.403-4.402 7.337-8.804 11.74-8.804 14.673 1.467 19.076 32.282 17.608 48.422-1.467 14.674-8.804 39.62-22.011 38.152z"/><path fill="#fff" d="M338.55 548.55c4.342-26.835 30.398-47.144 58.626-63.826-14.114-10.88-6.514-22.484 2.172-31.913 1.085 13.78 9.771 25.386 28.227 24.66 7.6 0 13.028-2.175 16.285-8.703s0-11.605-4.343-17.407c-2.17-3.627-2.17-6.53-5.428-10.155-1.086-2.901-6.514-2.901-9.77-2.901-7.6-.726-14.115-5.077-18.458-10.154-5.428-5.803-3.257-20.31-7.599-26.111 8.685.725 17.371 2.9 20.627 5.077 4.343 3.626 6.515 6.528 8.686 9.429 1.085 1.45 2.171.725 3.257 0 1.086-2.901 1.086-6.528 2.171-10.88 0-2.901 3.257-6.527 4.343-7.978 5.428-5.077 16.285-4.352 20.628-10.154 4.342 5.077 7.6 10.154 5.428 15.23-3.257 6.529-13.028 7.979-16.285 14.507-1.086 2.176-3.257 2.9-1.086 2.9 7.6-2.175 15.2-1.45 21.713.727 15.2 4.35 11.943 15.23 23.886 18.133-3.258 3.626-9.772 6.527-16.285 6.527-6.514 0-15.2-4.352-22.799-8.703-3.258-2.177-4.343-2.902-7.6-3.627-2.172-.726-3.257-.726-4.343.725-1.086 5.078 3.257 8.704 7.6 13.78 9.771 11.605 27.142 21.035 41.255 22.485 17.371 2.176 43.427-5.077 41.256-23.934h19.542c3.257 12.33 29.313 26.11 55.37 28.286 8.684 1.45 16.284-.725 15.2-7.253 0-7.98-3.259-14.506-2.172-23.21 0-2.176-2.173-2.176-5.429-1.45-3.257 0-10.856 1.45-16.285 0-7.6-1.451-14.114-7.98-23.886-9.43 6.515-4.351 17.372-11.604 24.971-10.88 4.344 0 6.515 1.452 10.857 2.178 4.343.724 4.343 0 4.343-2.177 0-7.253-6.514-9.43-5.428-17.407 0-5.802 7.6-10.154 11.942-17.407 2.171 5.802 15.2 10.154 15.2 18.132 1.085 7.979-6.515 11.605-5.429 17.407 0 2.902 0 4.352 3.256 5.078 3.258.725 6.515 1.45 8.686.725 5.428 0 9.772-2.176 18.456-2.176 7.601.725 18.458 8.704 23.886 13.055-8.686 2.902-15.2 8.704-28.228 8.704-8.686 0-14.114-4.351-22.8-6.528-4.342-1.45-4.342-.725-4.342 1.45 0 3.627-1.086 7.98 0 11.606 0 4.35 2.171 7.978 4.342 13.056 2.173 2.175 4.344 5.802 6.515 7.253 5.428 6.527 11.943 8.703 19.542 9.428 11.942 0 29.313-2.175 39.084 2.902 7.6 3.626 11.943 12.33 9.771 19.583 31.484-3.627 36.913 17.407 26.056 30.462-4.342-5.076-9.77-12.33-18.456-15.956-6.515-2.901-13.028-4.352-19.542-2.901-7.6.725-14.114 2.9-18.457 7.253-8.685 7.253-8.685 15.23-1.086 21.759 1.086 1.45 3.258 3.626 7.601 3.626 8.684 0 17.37 0 26.056 2.902 9.77 3.626 19.542 11.604 23.884 18.132-9.77-.725-20.627 2.176-28.227.725-7.6-.725-11.942-3.626-15.2-3.626l1.086.725c-1.086 4.352 8.686 7.979 8.686 15.232 0 5.802-8.686 13.78-14.114 16.682-4.343-7.253-9.772-7.98-11.943-11.605-5.428-5.803-6.513-11.605-3.257-20.31 1.086-2.175 0-1.45-1.085-.724-2.17 1.45-2.17 2.9-3.257 5.077s-3.258 5.802-4.342 7.979c-5.429 5.802-16.286 9.428-22.8 10.154 2.171-5.077-2.17-15.957 2.171-24.661 3.257-6.527 9.772-9.43 22.8-11.604 2.171-.726 2.171-2.902 1.085-3.627-13.028-15.232-3.256-23.935 9.771-35.54 4.343-4.352 3.258-5.077-9.77-5.077-17.37-.725-17.37 0-33.657-.725-22.799 0-22.799-25.386-53.198-26.837-18.456-.725-30.398 9.429-44.512 20.309l-26.056-2.176c-13.029-8.704-19.543-17.407-33.656-14.506-10.857 2.9-9.77 13.055 6.514 24.66l-15.2 4.352c-10.856-15.231-19.542-17.407-29.313-15.957-7.6 1.45-15.199 5.078-18.456 10.155-8.685 10.879-10.857 29.012-4.343 42.067 2.172 3.627 4.343 3.627 6.514 3.627 5.43-1.451 7.6-1.451 13.028-.725 6.514 1.45 13.028 7.253 19.543 8.703-4.343 4.352-11.943 7.253-19.543 6.528-4.343-.725-1.085 2.176 0 3.626 3.257 5.803 11.943 7.254 16.285 14.507 2.171 6.527-1.085 13.055-1.085 19.583-7.6-4.352-15.2-3.627-21.714-6.528-4.342-1.451-8.685-5.802-9.77-7.978-2.172-7.253-1.086-13.781-2.172-17.408-2.172-2.901-4.343-2.176-6.514-.725-6.514 9.429-16.286 18.133-28.228 21.759 2.172-6.528-6.514-10.154-3.256-20.308 3.256-10.155 14.113-13.056 24.97-16.682 2.171-.726 4.342-2.176 3.257-3.627-6.514-17.407-2.172-30.462 1.085-42.068 1.086-3.626 0-5.077-5.428-3.626-23.884 9.429-34.74 26.11-41.256 50.77-6.514-5.802-14.113-10.154-20.627-14.506"/><path fill="#353833" d="M339.636 547.825c2.171-7.978 4.343-13.78 8.685-20.308 5.428-7.979 11.943-14.506 19.542-21.034 7.6-7.253 20.628-14.507 31.485-21.034-13.028-9.429-9.771-20.309 0-29.738 0 13.781 10.857 23.935 28.227 23.211 7.6 0 14.114-2.177 17.371-8.705 4.343-6.527 2.172-12.33-2.171-18.132-2.172-3.627-5.429-8.704-7.6-12.33-2.171-2.9-4.342-2.9-7.6-2.9-7.599 0-14.114-2.903-19.542-7.98-5.428-5.803-2.171-18.857-6.514-24.66 9.771.725 14.114 2.901 17.371 5.077 4.342 3.627 6.514 6.527 8.685 8.704 1.086 1.45 2.171 1.45 3.258.725 3.256-2.176 2.171-6.528 3.256-10.155 0-3.626 2.172-6.527 3.257-8.703 6.514-7.253 16.286-4.35 20.628-10.154 4.343 5.077 5.429 10.88 1.086 15.231-3.257 4.352-11.942 7.253-16.285 14.506-1.086 2.176 1.085 2.902 3.256 2.176 7.601-2.176 13.029-1.45 20.628 0 15.2 4.352 10.857 14.506 22.799 17.408-3.256 3.626-6.514 5.077-13.027 5.077-7.6 0-14.114-4.352-21.714-7.979-4.343-2.176-6.514-3.626-10.857-4.35-1.085 0-4.342 0-4.342 2.174-1.086 5.803 3.257 10.155 7.6 15.957 9.77 10.88 28.227 20.308 42.34 21.76 17.372 2.175 44.513-5.078 42.342-23.936h16.285c4.343 12.33 31.484 26.111 57.54 28.287 8.686.725 18.457-1.45 17.371-7.978 0-7.253-4.342-16.682-2.171-25.386 0-2.176-2.171-2.176-5.428-2.176-4.344.725-10.857 2.901-16.285 1.451-7.6-2.176-14.114-7.979-22.8-9.429 6.515-4.352 14.114-8.704 21.714-8.704 4.343 0 6.514 1.451 10.856 2.901 4.344 0 6.515-1.45 6.515-3.627 0-6.527-6.515-8.703-5.429-16.68 0-5.803 5.429-9.43 9.771-15.958 2.171 5.078 14.114 8.704 14.114 16.682 0 7.253-7.6 10.88-6.515 16.682 0 2.901 2.173 5.803 5.429 6.528 3.257 0 6.514.725 8.685 0 5.429 0 9.772-2.176 18.457-1.45 7.6 0 15.2 5.802 20.628 10.154-8.685 2.901-11.943 8.703-24.971 8.703-8.685 0-15.198-5.077-23.884-7.253-4.344-1.45-5.429 2.176-5.429 3.627v11.604c1.085 4.352 3.258 9.43 5.429 13.781 1.085 2.177 3.257 5.077 5.428 6.528 5.429 6.528 13.028 9.43 21.714 10.155 11.941 0 27.141-2.902 36.912 2.175 7.599 3.626 11.943 13.055 9.772 20.31 31.484-4.353 35.826 15.23 28.227 26.11-4.343-5.803-9.771-10.88-18.457-14.506-6.514-2.902-14.114-4.352-20.627-2.902-7.601.726-13.029 2.902-18.457 7.253-8.685 7.254-9.771 17.408-3.256 23.21 2.171 1.451 5.428 5.077 9.77 5.077 8.686 0 16.285-.725 24.971 2.176 8.686 3.627 18.456 10.154 22.798 16.682-9.77-1.45-17.37 1.451-24.969.725-7.601-.725-11.943-4.35-15.2-4.35-2.171-.727-2.171.724-2.171.724 0 4.352 9.77 8.703 9.77 15.231 1.086 5.803-6.513 13.056-11.942 15.957-4.343-6.528-9.771-7.253-11.942-10.879-5.429-5.803-4.343-10.88-1.085-19.584 1.085-2.176-2.173-2.176-3.258-1.45-2.171 1.45-3.257 2.901-4.343 5.077s-2.171 5.802-3.256 7.978c-5.428 5.803-14.114 9.43-20.629 10.154 2.172-5.077-3.257-14.506 1.087-22.484 4.342-6.528 9.77-9.429 22.798-11.605 3.257 0 4.343-3.626 2.172-5.077-14.114-15.232-4.343-23.21 8.685-34.089 4.343-4.352 2.172-7.253-10.857-7.253-16.285-.726-16.285 0-33.655-.726-21.714 0-21.714-24.66-52.113-26.11-19.542-1.45-32.57 9.43-46.684 19.583l-23.884-1.45c-13.028-8.704-20.628-18.134-35.828-14.507-10.856 2.176-11.942 13.78 4.343 24.66l-10.857 2.901c-10.856-14.506-22.799-16.68-32.57-14.506-6.514.725-15.199 5.803-18.456 10.155-7.6 11.604-9.771 30.462-3.257 43.518 1.085 3.626 3.257 5.077 5.428 4.352 4.343-1.45 8.686-2.176 15.2-.726 5.428.726 10.856 6.528 16.285 7.253-3.258 4.352-8.686 5.803-16.285 5.077-4.343 0-4.343 2.902-3.258 4.352 4.343 5.803 14.114 7.98 17.372 15.232 3.256 5.802-1.087 11.605-1.087 17.407-7.599-3.626-13.027-3.626-19.541-5.802-4.343-2.176-8.686-5.803-8.686-7.979-3.257-7.253 0-13.78-2.171-17.407-1.086-2.9-6.514-2.9-8.686-.725-6.513 8.703-13.027 18.132-24.97 21.034 2.171-6.528-6.514-10.155-2.171-19.584 3.257-7.978 14.114-11.605 24.97-14.506 2.171-.725 3.257-2.9 2.171-5.077-6.513-16.682-3.256-31.188 1.086-42.793 0-2.9-2.171-4.352-7.599-2.9-23.885 9.428-37.999 26.11-41.256 50.77-6.514-5.802-13.028-9.429-19.542-14.506m89.025-132.006c1.085-1.45 1.085-2.175 1.085-3.626 1.087-5.802 1.087-11.604 7.6-15.957 7.6-5.802 16.286-3.626 20.628-10.154 6.514 5.803 10.857 13.056 4.343 20.31-3.257 4.35-10.857 7.252-15.199 12.33h1.085c11.942-2.177 21.714.724 29.313 5.802 4.343 3.626 5.428 7.253 8.686 10.154 1.085 1.45 4.343 2.901 8.685 3.626-5.429 5.803-9.771 8.704-18.456 8.704-8.686 0-17.371-5.077-23.885-8.704-3.257-1.45-5.428-2.9-8.686-3.626h-1.085v1.45c1.085 6.528 7.599 13.056 13.028 18.133 6.514 5.077 14.114 9.43 21.713 12.33 5.428 2.176 11.942 2.901 18.457 2.901 20.627-.725 34.741-10.154 32.57-24.66h22.798c3.258 11.605 19.543 20.308 35.828 25.385 8.685 2.902 22.799 5.803 30.399 2.176l1.086-1.45 1.085-.726c0-4.35-2.171-9.428-2.171-13.78-1.086-4.352-1.086-8.704-1.086-13.78-5.429 1.45-9.771 2.9-16.285 2.175-7.6-1.45-11.942-5.077-17.37-7.978-3.258-1.45-7.6-2.902-13.028-3.627 7.599-5.077 15.199-10.155 24.969-11.605 5.429-.725 9.772.726 15.2 2.176 2.172 0 2.172-1.45 1.085-2.176-2.171-5.803-5.428-9.429-5.428-15.23 1.086-7.254 8.686-13.057 13.029-21.76 5.428 8.703 18.456 12.33 18.456 21.76 1.085 7.977-6.514 12.33-6.514 17.406 0 1.451 1.086 2.901 2.171 3.627 2.172.725 4.343.725 6.514.725 7.6 0 13.028-2.9 20.628-2.176 11.943 1.451 19.542 7.978 27.141 13.781-10.856 3.626-17.37 10.154-31.484 10.154-9.77 0-15.198-5.077-24.97-7.253-1.085 0-1.085.725-1.085 1.451 0 4.351 0 7.978 1.085 11.604q0 4.353 3.257 8.704c1.086 2.901 2.171 5.802 4.342 8.704 5.429 5.803 11.943 10.88 22.8 10.88 6.514-.726 13.028-.726 19.542-.726 5.428 0 10.857.725 14.114 1.45 10.857 3.627 14.113 12.331 15.199 21.035 34.741-1.45 35.827 21.033 24.971 34.09-7.6-8.705-18.456-20.31-34.742-20.31-7.6 0-15.2 2.176-20.628 6.528-2.171 1.451-4.342 4.352-5.428 6.528-3.258 6.528-1.085 12.33 5.428 16.682 2.171 1.45 3.257 1.45 6.514 1.45 6.514-.725 13.028-.725 18.457.726 14.114 3.626 24.97 13.055 32.57 22.484-4.342 0-9.771-.725-14.114 0-6.513.725-13.028 1.451-18.456.725q-4.887 0-9.771-2.176c-1.086-.725-1.086-.725-1.086 0h1.086c6.513 5.803 8.684 10.88 6.513 15.957-2.171 5.803-6.513 10.88-16.285 15.957-5.428-7.978-8.685-8.704-13.027-13.056-3.258-2.9-5.429-7.253-5.429-11.605-5.428 7.98-17.371 13.781-30.399 15.232 4.344-6.528 0-13.78 1.086-21.759 1.085-5.803 5.429-10.155 9.771-13.056 4.343-2.176 10.857-3.626 17.371-5.077l1.085-.725h-1.085v-.725c-4.343-4.352-7.599-10.155-7.599-15.957 1.085-7.979 7.599-13.056 14.112-18.858 1.087-1.45 3.258-2.9 4.344-4.352-3.257-1.45-6.515-1.45-9.772-1.45-10.857 0-21.713.725-33.655 0-9.772-.726-15.2-4.352-20.629-9.429-9.77-8.704-17.37-18.133-34.741-17.407-17.37.724-30.399 11.604-42.341 19.583l-26.056-1.45c-8.685-5.078-18.457-15.958-29.313-15.233-5.429.726-7.6 2.177-8.685 3.627-3.258 5.803 5.428 15.231 14.113 20.31l-18.456 5.801c-6.514-7.978-14.114-18.133-29.313-15.957-5.428.726-10.857 3.627-15.2 7.253-4.342 3.627-6.514 10.155-7.6 16.682-2.171 10.154-2.171 18.858 2.172 26.837 1.086 2.901 1.086 2.901 4.343 2.175 5.428-1.45 10.857-1.45 14.113 0 7.6 1.451 13.029 7.253 20.628 8.704-5.428 5.802-8.686 8.704-19.542 8.704-1.086 0-1.086-.726-2.171-.726-1.086.726 0 1.451 1.085 2.902 6.514 4.351 13.029 7.253 16.285 13.055 4.343 7.98-2.171 16.682 0 23.935-8.685-5.802-18.456-5.802-28.227-10.154-2.171-1.45-4.343-2.9-6.514-5.802-4.343-4.353-2.172-12.33-3.257-18.133 0-2.9-2.171-2.176-3.257 0-8.685 10.88-14.114 18.858-32.57 21.76 2.171-2.177 2.171-4.353 2.171-6.529-3.257-5.077-5.428-9.429-3.257-15.23 1.086-6.529 6.514-10.88 15.199-14.507 4.343-1.45 8.686-2.9 11.943-3.627h1.086v-2.175c-6.515-15.232-4.343-28.288 0-43.519 0-1.45 0-1.45-2.172-.725-30.398 13.055-36.913 32.64-39.084 54.398l-26.056-19.584c5.428-28.286 28.227-47.145 57.541-63.827-13.029-13.78-4.343-24.66 7.599-35.539 1.086 12.33 4.343 27.561 26.056 27.561 16.285-.725 18.456-13.055 14.114-21.034l-9.771-15.23c-1.085-.726-1.085-.726-3.257-1.45-10.857 0-20.628-3.628-24.97-10.156-5.429-8.703 0-18.857-7.6-28.286 16.285 1.45 26.056 5.077 32.57 15.23"/></g><path fill="none" stroke="#231f20" stroke-miterlimit="10" stroke-width="1.443" d="M339.636 547.825c2.171-7.978 4.343-13.78 8.685-20.308 5.428-7.979 11.943-14.506 19.542-21.034 7.6-7.253 20.628-14.507 31.485-21.034-13.028-9.429-9.771-20.309 0-29.738 0 13.781 10.857 23.935 28.227 23.211 7.6 0 14.114-2.177 17.371-8.705 4.343-6.527 2.172-12.33-2.171-18.132-2.172-3.627-5.429-8.704-7.6-12.33-2.171-2.9-4.342-2.9-7.6-2.9-7.599 0-14.114-2.903-19.542-7.98-5.428-5.803-2.171-18.857-6.514-24.66 9.771.725 14.114 2.901 17.371 5.077 4.342 3.627 6.514 6.527 8.685 8.704 1.086 1.45 2.171 1.45 3.258.725 3.256-2.176 2.171-6.528 3.256-10.155 0-3.626 2.172-6.527 3.257-8.703 6.514-7.253 16.286-4.35 20.628-10.154 4.343 5.077 5.429 10.88 1.086 15.231-3.257 4.352-11.942 7.253-16.285 14.506-1.086 2.176 1.085 2.902 3.256 2.176 7.601-2.176 13.029-1.45 20.628 0 15.2 4.352 10.857 14.506 22.799 17.408-3.256 3.626-6.514 5.077-13.027 5.077-7.6 0-14.114-4.352-21.714-7.979-4.343-2.176-6.514-3.626-10.857-4.35-1.085 0-4.342 0-4.342 2.174-1.086 5.803 3.257 10.155 7.6 15.957 9.77 10.88 28.227 20.308 42.34 21.76 17.372 2.175 44.513-5.078 42.342-23.936h16.285c4.343 12.33 31.484 26.111 57.54 28.287 8.686.725 18.457-1.45 17.371-7.978 0-7.253-4.342-16.682-2.171-25.386 0-2.176-2.171-2.176-5.428-2.176-4.344.725-10.857 2.901-16.285 1.451-7.6-2.176-14.114-7.979-22.8-9.429 6.515-4.352 14.114-8.704 21.714-8.704 4.343 0 6.514 1.451 10.856 2.901 4.344 0 6.515-1.45 6.515-3.627 0-6.527-6.515-8.703-5.429-16.68 0-5.803 5.429-9.43 9.771-15.958 2.171 5.078 14.114 8.704 14.114 16.682 0 7.253-7.6 10.88-6.515 16.682 0 2.901 2.173 5.803 5.429 6.528 3.257 0 6.514.725 8.685 0 5.429 0 9.772-2.176 18.457-1.45 7.6 0 15.2 5.802 20.628 10.154-8.685 2.901-11.943 8.703-24.971 8.703-8.685 0-15.198-5.077-23.884-7.253-4.344-1.45-5.429 2.176-5.429 3.627v11.604c1.085 4.352 3.258 9.43 5.429 13.781 1.085 2.177 3.257 5.077 5.428 6.528 5.429 6.528 13.028 9.43 21.714 10.155 11.941 0 27.141-2.902 36.912 2.175 7.599 3.626 11.943 13.055 9.772 20.31 31.484-4.353 35.826 15.23 28.227 26.11-4.343-5.803-9.771-10.88-18.457-14.506-6.514-2.902-14.114-4.352-20.627-2.902-7.601.726-13.029 2.902-18.457 7.253-8.685 7.254-9.771 17.408-3.256 23.21 2.171 1.451 5.428 5.077 9.77 5.077 8.686 0 16.285-.725 24.971 2.176 8.686 3.627 18.456 10.154 22.798 16.682-9.77-1.45-17.37 1.451-24.969.725-7.601-.725-11.943-4.35-15.2-4.35-2.171-.727-2.171.724-2.171.724 0 4.352 9.77 8.703 9.77 15.231 1.086 5.803-6.513 13.056-11.942 15.957-4.343-6.528-9.771-7.253-11.942-10.879-5.429-5.803-4.343-10.88-1.085-19.584 1.085-2.176-2.173-2.176-3.258-1.45-2.171 1.45-3.257 2.901-4.343 5.077s-2.171 5.802-3.256 7.978c-5.428 5.803-14.114 9.43-20.629 10.154 2.172-5.077-3.257-14.506 1.087-22.484 4.342-6.528 9.77-9.429 22.798-11.605 3.257 0 4.343-3.626 2.172-5.077-14.114-15.232-4.343-23.21 8.685-34.089 4.343-4.352 2.172-7.253-10.857-7.253-16.285-.726-16.285 0-33.655-.726-21.714 0-21.714-24.66-52.113-26.11-19.542-1.45-32.57 9.43-46.684 19.583l-23.884-1.45c-13.028-8.704-20.628-18.134-35.828-14.507-10.856 2.176-11.942 13.78 4.343 24.66l-10.857 2.901c-10.856-14.506-22.799-16.68-32.57-14.506-6.514.725-15.199 5.803-18.456 10.155-7.6 11.604-9.771 30.462-3.257 43.518 1.085 3.626 3.257 5.077 5.428 4.352 4.343-1.45 8.686-2.176 15.2-.726 5.428.726 10.856 6.528 16.285 7.253-3.258 4.352-8.686 5.803-16.285 5.077-4.343 0-4.343 2.902-3.258 4.352 4.343 5.803 14.114 7.98 17.372 15.232 3.256 5.802-1.087 11.605-1.087 17.407-7.599-3.626-13.027-3.626-19.541-5.802-4.343-2.176-8.686-5.803-8.686-7.979-3.257-7.253 0-13.78-2.171-17.407-1.086-2.9-6.514-2.9-8.686-.725-6.513 8.703-13.027 18.132-24.97 21.034 2.171-6.528-6.514-10.155-2.171-19.584 3.257-7.978 14.114-11.605 24.97-14.506 2.171-.725 3.257-2.9 2.171-5.077-6.513-16.682-3.256-31.188 1.086-42.793 0-2.9-2.171-4.352-7.599-2.9-23.885 9.428-37.999 26.11-41.256 50.77-6.514-5.802-13.028-9.429-19.542-14.506zm89.025-132.006c1.085-1.45 1.085-2.175 1.085-3.626 1.087-5.802 1.087-11.604 7.6-15.957 7.6-5.802 16.286-3.626 20.628-10.154 6.514 5.803 10.857 13.056 4.343 20.31-3.257 4.35-10.857 7.252-15.199 12.33h1.085c11.942-2.177 21.714.724 29.313 5.802 4.343 3.626 5.428 7.253 8.686 10.154 1.085 1.45 4.343 2.901 8.685 3.626-5.429 5.803-9.771 8.704-18.456 8.704-8.686 0-17.371-5.077-23.885-8.704-3.257-1.45-5.428-2.9-8.686-3.626h-1.085v1.45c1.085 6.528 7.599 13.056 13.028 18.133 6.514 5.077 14.114 9.43 21.713 12.33 5.428 2.176 11.942 2.901 18.457 2.901 20.627-.725 34.741-10.154 32.57-24.66h22.798c3.258 11.605 19.543 20.308 35.828 25.385 8.685 2.902 22.799 5.803 30.399 2.176l1.086-1.45 1.085-.726c0-4.35-2.171-9.428-2.171-13.78-1.086-4.352-1.086-8.704-1.086-13.78-5.429 1.45-9.771 2.9-16.285 2.175-7.6-1.45-11.942-5.077-17.37-7.978-3.258-1.45-7.6-2.902-13.028-3.627 7.599-5.077 15.199-10.155 24.969-11.605 5.429-.725 9.772.726 15.2 2.176 2.172 0 2.172-1.45 1.085-2.176-2.171-5.803-5.428-9.429-5.428-15.23 1.086-7.254 8.686-13.057 13.029-21.76 5.428 8.703 18.456 12.33 18.456 21.76 1.085 7.977-6.514 12.33-6.514 17.406 0 1.451 1.086 2.901 2.171 3.627 2.172.725 4.343.725 6.514.725 7.6 0 13.028-2.9 20.628-2.176 11.943 1.451 19.542 7.978 27.141 13.781-10.856 3.626-17.37 10.154-31.484 10.154-9.77 0-15.198-5.077-24.97-7.253-1.085 0-1.085.725-1.085 1.451 0 4.351 0 7.978 1.085 11.604q0 4.353 3.257 8.704c1.086 2.901 2.171 5.802 4.342 8.704 5.429 5.803 11.943 10.88 22.8 10.88 6.514-.726 13.028-.726 19.542-.726 5.428 0 10.857.725 14.114 1.45 10.857 3.627 14.113 12.331 15.199 21.035 34.741-1.45 35.827 21.033 24.971 34.09-7.6-8.705-18.456-20.31-34.742-20.31-7.6 0-15.2 2.176-20.628 6.528-2.171 1.451-4.342 4.352-5.428 6.528-3.258 6.528-1.085 12.33 5.428 16.682 2.171 1.45 3.257 1.45 6.514 1.45 6.514-.725 13.028-.725 18.457.726 14.114 3.626 24.97 13.055 32.57 22.484-4.342 0-9.771-.725-14.114 0-6.513.725-13.028 1.451-18.456.725q-4.887 0-9.771-2.176c-1.086-.725-1.086-.725-1.086 0h1.086c6.513 5.803 8.684 10.88 6.513 15.957-2.171 5.803-6.513 10.88-16.285 15.957-5.428-7.978-8.685-8.704-13.027-13.056-3.258-2.9-5.429-7.253-5.429-11.605-5.428 7.98-17.371 13.781-30.399 15.232 4.344-6.528 0-13.78 1.086-21.759 1.085-5.803 5.429-10.155 9.771-13.056 4.343-2.176 10.857-3.626 17.371-5.077l1.085-.725h-1.085v-.725c-4.343-4.352-7.599-10.155-7.599-15.957 1.085-7.979 7.599-13.056 14.112-18.858 1.087-1.45 3.258-2.9 4.344-4.352-3.257-1.45-6.515-1.45-9.772-1.45-10.857 0-21.713.725-33.655 0-9.772-.726-15.2-4.352-20.629-9.429-9.77-8.704-17.37-18.133-34.741-17.407-17.37.724-30.399 11.604-42.341 19.583l-26.056-1.45c-8.685-5.078-18.457-15.958-29.313-15.233-5.429.726-7.6 2.177-8.685 3.627-3.258 5.803 5.428 15.231 14.113 20.31l-18.456 5.801c-6.514-7.978-14.114-18.133-29.313-15.957-5.428.726-10.857 3.627-15.2 7.253-4.342 3.627-6.514 10.155-7.6 16.682-2.171 10.154-2.171 18.858 2.172 26.837 1.086 2.901 1.086 2.901 4.343 2.175 5.428-1.45 10.857-1.45 14.113 0 7.6 1.451 13.029 7.253 20.628 8.704-5.428 5.802-8.686 8.704-19.542 8.704-1.086 0-1.086-.726-2.171-.726-1.086.726 0 1.451 1.085 2.902 6.514 4.351 13.029 7.253 16.285 13.055 4.343 7.98-2.171 16.682 0 23.935-8.685-5.802-18.456-5.802-28.227-10.154-2.171-1.45-4.343-2.9-6.514-5.802-4.343-4.353-2.172-12.33-3.257-18.133 0-2.9-2.171-2.176-3.257 0-8.685 10.88-14.114 18.858-32.57 21.76 2.171-2.177 2.171-4.353 2.171-6.529-3.257-5.077-5.428-9.429-3.257-15.23 1.086-6.529 6.514-10.88 15.199-14.507 4.343-1.45 8.686-2.9 11.943-3.627h1.086v-2.175c-6.515-15.232-4.343-28.288 0-43.519 0-1.45 0-1.45-2.172-.725-30.398 13.055-36.913 32.64-39.084 54.398l-26.056-19.584c5.428-28.286 28.227-47.145 57.541-63.827-13.029-13.78-4.343-24.66 7.599-35.539 1.086 12.33 4.343 27.561 26.056 27.561 16.285-.725 18.456-13.055 14.114-21.034l-9.771-15.23c-1.085-.726-1.085-.726-3.257-1.45-10.857 0-20.628-3.628-24.97-10.156-5.429-8.703 0-18.857-7.6-28.286 16.285 1.45 26.056 5.077 32.57 15.23z"/><g fill-rule="evenodd"><path fill="#353833" d="M391.748 581.19c1.086-8.704 6.515-10.88 18.457-13.78 1.085-.727 2.17-1.452 2.17-2.177-1.085 0-1.085-.726-3.256-.726-14.114 3.627-19.542 7.253-21.713 16.682 0 1.451 1.085 2.176 2.17 2.176 0 0 1.086 0 2.172-2.176M437.347 592.794c-5.428-4.352-9.771-6.528-11.942-10.88-2.172-3.626-1.086-7.978-3.258-13.78-2.171-1.45-3.257-2.176-4.342-1.45-1.086 0-1.086.724 1.085 2.9 2.172 4.352 1.086 9.43 3.257 13.056 2.172 4.351 6.514 7.253 11.943 10.88 1.085 2.175 2.17 2.175 3.257 2.175 1.086-.725 1.086-1.45 0-2.9M422.147 565.958c7.599-.725 11.942.725 19.542.725 3.257 0 3.257-2.175 0-2.175-7.6 0-13.028-2.177-19.542-1.451-4.343.725-3.257 2.9 0 2.9M651.224 581.915c0-.726 1.085-.726 1.085-1.451 3.257-4.352 4.343-7.978 6.514-11.605 2.172-3.626 7.6-6.527 16.286-7.978l2.171 2.9c1.086 2.902 1.086 5.804 1.086 8.705 1.085 3.626 3.256 6.528 5.428 10.154 1.085 2.176 2.171 4.352 2.171 6.528 0 .725 1.085 1.45 2.171 1.45 0 0 1.087-.725 1.087-2.176 0-2.175-1.087-4.351-1.087-6.527-2.17-2.901-4.342-5.803-5.428-9.43-1.086-2.9-1.086-6.527-2.17-9.428l-2.172-2.176c6.513-.725 11.941 0 17.37 2.176 4.343 2.176 9.772 3.626 15.2 5.077 2.171 0 2.171 0 3.256-.725q0-1.089-3.256-2.176c-4.343-.725-8.686-2.901-14.114-4.352-6.515-2.901-14.114-2.901-21.713-2.176-10.857 1.45-16.286 5.077-19.543 9.429-2.17 2.9-3.257 7.253-6.514 10.88 0 .725 0 .725-1.085 1.45-1.086.725 0 1.45 0 2.176 1.085 0 2.171 0 3.257-.725M408.033 414.37c4.343 2.175 5.428 5.802 7.6 8.702 3.257 2.902 6.514 5.803 15.2 5.803 3.256 0 4.342-.725 4.342-.725 0-.725-1.086-1.45-4.342-1.45-5.429 0-9.772-2.176-13.029-5.803-2.171-2.9-3.257-5.802-7.599-7.978-3.258-1.45-3.258-1.45-4.343-.726 0 0-1.086.726 2.171 2.176M438.432 422.348c-1.086-4.352 2.171-7.253 5.428-10.155 3.258-2.175 5.429-5.077 7.6-8.703 0-2.176 0-2.901-1.086-2.901-1.085 0-2.171 0-3.256 2.176-1.087 2.901-3.258 5.802-6.515 7.978-4.342 3.626-6.514 6.528-6.514 11.605 0 1.45 1.086 2.176 2.172 2.176 1.085 0 2.171-.726 2.171-2.176M442.775 428.875c6.514 0 10.857 2.176 15.2 4.352 5.428 2.176 6.513 4.351 18.456 5.803 2.17.725 3.257 0 3.257-.726-1.086-.726-1.086-1.45-3.257-1.45-8.686-1.45-10.857-2.902-15.2-5.803-6.514-2.9-10.857-4.352-18.456-4.352-3.257 0-3.257.726-3.257 1.451s0 .725 3.257.725M598.026 433.228c3.257 1.45 6.515 2.9 10.857 2.9s7.598-2.175 11.942-2.175c7.6-.725 11.941 4.352 18.456 5.802 2.171.726 5.428.726 8.685.726 5.43 0 10.857-1.45 16.286 0 2.171.725 3.257 0 3.257-.726l-2.173-1.45c-5.428-1.45-10.856 0-17.37 0-2.17 0-5.428 0-7.599-.726-6.515-1.45-10.857-5.077-16.285-6.527 0-2.176 1.085-5.077 0-7.98 0-5.801-3.257-9.427-3.257-13.78 0-2.9 3.257-4.351 3.257-7.978 1.085-.725 0-1.45-1.086-1.45s-2.17.725-2.17 1.45c0 2.902-4.345 4.352-4.345 7.979 0 5.077 3.257 7.253 4.344 14.506 0 2.176 0 5.077-1.087 7.253-3.257.726-7.599 2.176-10.856 2.176q-4.887 0-9.77-2.176c-2.172 0-2.172 0-3.258.726 0 .724 0 1.45 2.171 1.45"/><path fill="#fff" d="M611.596 537.681c20.542 14.674 24.945 35.217 11.737 58.694 13.208 20.543 11.74 35.217 1.47 46.956 7.335 13.206 11.738 33.75-7.338 48.422 10.271 35.217-7.337 52.826-27.879 60.162-17.61 5.87-41.087-4.402-49.89-20.543-7.338 17.608-24.946 23.478-39.62 22.011-41.086-4.403-49.89-38.15-52.824-67.499-4.403-68.966 27.88-132.06 68.966-170.213-45.489-7.337-39.619-8.804-51.358-20.543-5.87-4.402-1.468-27.88 5.87-29.347-2.935-11.739 7.336-19.076 13.206-20.544-2.936 7.337 10.271 22.011 13.206 27.881 0-13.207 2.934-23.478 16.141-24.945-5.87-2.936 1.467 29.347 23.477 33.75-5.869 10.27-10.27 24.944-7.337 32.281 13.206-16.14 38.152-41.086 61.63-35.217 33.75 8.805 32.28 41.086 20.543 58.694"/><g fill="#353833"><path d="M494.207 487.792c-8.804-4.402-14.674-8.805-17.608-16.142 0-1.466-1.467-2.934-1.467-4.402-1.468-5.87 0-10.271 2.934-14.673 1.467-1.467 2.935-1.467 4.403-2.935 1.467 4.403 1.467 8.805 4.401 11.739 1.467 4.403 5.87 10.27 10.272 13.207 1.467 1.467 4.402 1.467 2.935-2.936-1.468-8.803 1.467-17.607 10.271-20.542 1.468 14.674 7.336 26.412 23.478 30.814-7.337 13.207-8.805 26.412-5.87 41.086 19.076-29.347 42.554-46.955 71.901-39.618 17.608 4.402 20.542 33.749 10.271 51.357-41.086-11.74-70.433 10.27-92.444 41.086-16.14 22.01-24.944 45.488-30.814 73.368 0 4.402 1.467 5.869 2.935 4.402 1.468 0 1.468-1.468 2.935-4.402 4.402-26.413 13.206-48.423 29.347-70.433 19.076-26.413 45.49-48.423 77.77-41.087 7.337 0 11.74 1.468 16.14 5.87 13.207 11.739 19.076 38.15 4.402 54.293 13.208 14.673 14.674 32.28 0 45.487 13.208 16.14 10.272 39.619-7.336 48.423 4.402 8.804 5.87 20.543 4.402 29.347-1.468 2.935-1.468 5.869-2.934 8.805l-1.468 1.467v1.467l-1.467 1.467v1.467h-1.468v1.468h-1.468v1.468h-1.466v1.467h-1.468c-8.803 7.336-19.076 11.739-29.347 11.739h-1.467c-14.673 0-26.412-8.805-33.749-22.01q-2.201-2.202-4.403 0c-10.27 16.14-16.14 22.01-36.683 20.542-35.217 0-49.89-38.151-51.358-61.63 0-16.14 1.467-33.748 4.403-49.89 4.401-24.944 11.738-49.89 24.944-71.9 10.271-17.607 24.945-35.215 39.618-49.89 2.935-1.467 1.468-2.934 1.468-4.401-1.468-1.467-2.934-1.467-4.402-1.467-11.739-1.468-27.88-2.936-39.618-10.272-7.337-4.402-11.739-8.804-11.739-17.608 0-5.87 1.467-10.272 7.336-14.674 0 2.934 1.468 4.402 2.935 7.337 2.935 5.869 10.272 11.739 19.076 16.14 2.934 1.468 5.87-2.934 1.467-4.401m19.076 27.879c-14.674-1.467-29.347-2.934-41.086-10.271-5.87-4.402-11.739-8.804-13.207-17.608-1.467-7.337 1.468-16.142 7.337-22.01 1.468-1.468 1.468-1.468 2.935-1.468 0-2.935 1.467-8.803 1.467-10.271 4.403-7.337 8.804-8.805 14.674-13.206 2.934 8.803 2.934 17.608 8.804 24.945v-1.468c2.935-13.206 10.272-17.608 20.543-20.543 2.934 22.01 4.402 29.347 26.413 35.216-5.87 10.272-10.27 17.609-10.27 30.815 14.672-19.076 32.28-32.282 52.822-32.282 14.674-1.467 27.881 2.935 33.75 14.674 4.402 13.206 4.402 29.347-2.934 44.02 8.803 5.87 14.673 16.14 17.608 24.946 2.934 11.738 1.468 24.944-4.403 35.216l-1.466 1.468q8.804 11.004 8.803 22.01c1.468 8.804-1.466 17.608-7.337 23.477 10.271 17.608 8.805 38.15-8.803 49.89 4.401 10.272 4.401 22.01 1.466 32.282-4.402 20.543-27.879 30.814-44.02 30.814-5.869 0-11.739 0-17.608-2.934-7.337-2.935-10.27-4.402-19.076-11.74-4.403 5.87-13.206 10.273-22.01 13.207-5.869 1.467-11.739 1.467-17.608 1.467-36.684-1.467-54.292-35.216-55.76-67.498 0-17.608 1.468-33.75 4.402-51.357 4.403-26.413 11.74-49.89 24.945-71.901 10.272-19.075 23.478-35.216 39.62-49.89"/><path d="m525.022 643.331 7.336-8.804 1.468 10.271c0 2.935 2.934 4.403 4.402 2.935 1.467 0 1.467-1.468 1.467-4.402l-2.935-14.674c-1.468-2.935-4.402-2.935-7.337 0l-8.804 11.74c-1.467 1.467-2.935 2.934-1.467 4.401s4.403 1.467 5.87-1.467M544.097 696.156l7.337-8.804v8.804c1.468 2.934 1.468 4.402 2.934 4.402 1.468 0 2.935-1.468 2.935-4.402l-1.467-14.674c0-4.402-2.934-4.402-5.87-1.467l-10.27 13.207c-1.468 1.467-2.936 4.4-1.468 4.4 1.467 2.936 2.935 1.468 5.87-1.466M555.837 649.2l7.337-8.804v8.805c0 2.934 1.466 4.402 2.934 4.402s2.935 0 2.935-2.935l-1.467-14.673c0-4.403-2.936-4.403-5.87-2.936l-8.803 11.74c-2.936 2.934-2.936 4.402-1.468 5.869s2.934 0 4.402-1.467M586.65 658.005l7.337-8.804 1.468 11.738c1.468 2.936 2.934 2.936 4.402 2.936 0 0 2.935-1.468 1.467-4.403l-2.935-14.673c0-2.935-4.402-2.935-5.869-1.468l-10.27 10.272c-1.469 1.467-1.469 4.402-1.469 5.869 2.935 1.467 4.403 0 5.87-1.467M586.65 700.558l4.402-7.337 1.468 7.337c1.467 2.934 2.935 4.402 4.403 2.934 0 0 1.466 0 1.466-2.934l-2.934-13.206c0-4.403-2.935-4.403-4.403-1.468l-10.27 10.272c-1.469 2.934-1.469 4.402 0 5.87s4.402 0 5.868-1.468M535.293 593.441l8.805-8.804 1.468 8.804c0 2.934 2.934 2.934 2.934 2.934 1.467 0 2.935-1.467 1.467-4.4l-2.935-13.208c0-2.934-2.934-2.934-5.87-1.467l-10.27 11.74c-1.468 1.467-1.468 4.401-1.468 5.868 1.468 1.467 4.403 0 5.869-1.467M592.52 603.712l5.87-8.804 1.467 10.272c1.466 2.934 2.934 2.934 4.402 2.934 0 0 1.467-1.467 1.467-4.402l-2.935-14.674c-1.468-2.934-2.934-2.934-5.869 0l-8.804 11.74c-1.468 1.467-1.468 2.934-1.468 4.402 1.468 1.467 4.402 0 5.87-1.468M567.576 597.844l5.869-7.338 1.468 7.337c0 2.934 2.934 4.402 2.934 4.402 1.467-1.468 2.935-2.935 1.467-5.87l-1.467-11.738c-1.468-2.935-4.402-2.935-5.87 0l-8.803 8.805c-1.468 2.934-1.468 4.402 0 5.869 0 0 2.934 0 4.402-1.467M505.946 694.689l8.804-8.804 4.402 10.27c1.467 2.936 2.935 2.936 4.403 2.936q2.199 0 0-4.402l-5.87-13.206c-1.467-2.935-4.402-2.935-7.337 0l-8.804 10.27q-2.202 2.203 0 4.403c1.467 1.467 2.935 0 4.402-1.467"/></g><path fill="#fff" d="m529.755 316.37 11.27-15.368 11.27 15.367 3.072 1.025h2.05l3.073 1.024 2.05 1.025 2.047 1.025 2.05 2.048 2.05 1.024 2.048 1.025 2.048 2.05 1.025 2.048 2.05 1.025 1.024 3.073 1.024 2.05 1.025 2.048 16.391 5.122-10.245 14.344 1.025 3.072 1.025 2.05v10.245l-1.025 2.05v2.048l-1.025 2.048-1.024 2.05-1.025 2.05-2.048 2.048-1.025 2.05-2.049 1.024 3.074 19.464-19.465-4.097-2.05 1.024-2.049 1.025-3.074 2.048h-3.072l-2.05 1.025H532.83l-3.074-1.025-2.049-1.025-3.073-1.023-2.049-2.049-17.417 6.146v-19.465l-2.049-1.025-1.024-2.048-2.049-2.049-1.025-2.049-1.024-2.05-1.024-2.049-1.025-2.048v-2.049l-1.025-2.049v-3.074l-1.024-2.048v-2.05l1.024-3.073v-4.098l-10.245-14.343 18.441-6.147v-2.049l2.05-3.074 1.023-2.048 2.05-2.049 2.05-1.025 1.023-2.049 2.05-1.025 2.048-1.024 2.05-2.048 2.048-1.025 2.05-1.025 2.048-1.024h3.073l2.05-1.025z"/><path fill="#353833" d="m530.78 327.639 10.245-14.344 10.245 14.344-10.245 8.196z"/><path fill="#00a263" d="m535.903 326.614 5.122-7.17 5.123 7.17-5.123 5.122z"/><path fill="#353833" d="m567.661 340.958 16.392 5.122-9.22 13.318-11.27-6.146z"/><path fill="#00a263" d="m569.71 345.055 9.221 2.05-5.122 8.195-6.148-3.074z"/><path fill="#353833" d="m570.735 379.887 2.049 17.417-17.416-4.098 1.025-13.319z"/><path fill="#00a263" d="m566.638 383.986 2.049 9.22-9.221-3.074v-6.146z"/><path fill="#353833" d="m527.707 394.23-16.392 4.099 1.025-16.392 13.318-1.025z"/><path fill="#00a263" d="m523.609 391.157-8.196 3.074v-9.22l7.172-1.025z"/><path fill="#353833" d="m506.192 360.423-10.245-14.342 15.367-5.123 6.148 12.294z"/><path fill="#00a263" d="m507.217 355.3-6.147-7.171 9.22-3.074 3.074 7.171z"/><path fill="#353833" d="M541.025 329.688c-3.074-4.098-4.099-6.147-9.22-6.147-6.147 0-9.22 2.049-14.343 5.122-5.123 4.099-8.197 6.147-9.22 12.295 0 5.122 1.023 7.17 4.097 10.245-4.098 1.024-8.196 3.072-10.245 8.195-2.049 5.122-1.025 8.196 1.025 14.343 1.024 5.123 3.073 8.196 8.195 11.269 4.098 2.05 6.148 2.05 10.245 1.025 0 3.074 0 6.147 3.074 9.22 5.122 5.122 9.22 6.147 16.392 6.147 6.146 0 11.27-1.025 16.391-5.122 4.1-3.074 5.123-6.147 4.1-10.245 3.071 0 6.145 0 9.22-2.05 4.096-2.048 6.146-5.121 8.195-10.244s2.05-9.221 0-14.343c-2.049-5.123-6.147-7.171-11.27-7.171 3.074-3.074 5.123-6.147 5.123-11.27-1.024-5.122-4.098-8.195-8.197-12.294-5.122-3.073-8.195-5.122-14.342-5.122-4.098 1.025-6.147 3.073-9.22 6.147"/><path fill="#fff" d="M554.343 381.937c-2.05-3.074-4.098-5.122-3.073-6.147 1.024-2.049 3.073 1.025 5.123 4.097 4.097 4.1 15.367 5.123 19.465-7.17 4.097-13.32-4.098-19.466-13.32-17.417-4.096 1.025-8.195 4.097-8.195 2.05-1.024-3.075 4.099-3.075 8.196-5.124 5.123-4.097 12.294-10.245 0-20.49-13.318-10.245-19.465-1.024-20.49 4.1 0 4.096 1.025 10.244-1.024 10.244-3.073 0-1.024-4.099-2.05-10.245 0-7.172-6.146-13.319-19.464-4.099-12.294 9.221-7.171 18.441 1.024 20.49 5.123 2.05 7.172 2.05 6.147 4.1 0 2.047-2.05 0-7.171-1.026-12.294-3.074-17.416 3.073-13.32 17.416 4.099 13.32 14.344 11.27 19.467 6.147 3.073-3.073 5.123-6.147 6.146-5.122 2.049 1.024-1.023 4.097-4.097 8.196-7.172 9.22 2.049 15.367 13.318 15.367s23.563-5.122 13.318-15.367"/><path fill="#353833" d="M541.025 369.643c4.098 0 8.195-4.098 8.195-9.22 0-4.098-4.097-8.197-8.195-8.197-5.122 0-9.22 4.1-9.22 8.196a9.183 9.183 0 0 0 9.22 9.22"/><path fill="#f2e79f" d="M541.025 365.545c3.073 0 5.122-2.049 5.122-5.122 0-2.049-2.049-5.123-5.122-5.123s-5.122 3.074-5.122 5.123c0 3.073 2.048 5.122 5.122 5.122"/><path fill="#353833" d="M376.968 784.959c6.565-1.094 10.942-1.094 16.413 3.283 5.47 3.283 7.659 7.659 4.376 13.13-3.282 4.376-7.66 6.565-12.035 8.753l-22.978-18.6c4.376-3.283 8.753-5.471 14.224-6.566m4.377-16.413c-5.471 1.094-10.942 3.282-16.413 4.376-4.377 2.19-8.753 4.377-13.13 4.377-6.565 0-8.753-1.094-14.224-4.377-4.377-3.282-8.754-3.282-10.942 1.094-3.283 3.283-1.094 6.566 2.188 9.848l39.39 30.637c-12.035 3.282-24.071 8.753-24.071 22.978-1.094 12.036 7.659 20.79 18.6 25.166 4.377 2.188 9.848 3.282 14.225 3.282 6.565 0 10.942-1.094 16.413-4.377 3.282-1.094 6.565-3.282 10.94-5.47 2.19-2.189 5.472-3.283 8.755-3.283 5.47 0 6.565 1.094 10.942 4.377 3.282 3.282 7.659 2.188 9.848-1.094 3.282-3.283 2.188-6.565-1.095-9.848l-32.825-25.166c8.753-3.283 14.224-6.565 18.6-15.319 3.283-7.659 3.283-15.318 0-21.883-3.282-7.659-8.753-10.942-15.318-13.13-7.66-3.283-13.13-3.283-21.883-2.189m17.507 68.934c-3.283 7.66-9.848 9.847-16.413 10.942-6.565 1.094-13.13-2.189-13.13-7.659 0-9.848 6.565-10.942 15.319-14.225z"/><path fill="#fff" d="M357.273 792.618c4.376-8.754 17.507-10.942 26.26-12.036 7.659 0 18.601 6.565 19.695 14.224 1.094 7.66-7.659 15.32-18.601 18.601zm35.013 27.354c12.036-4.376 25.167-8.753 25.167-26.26 0-12.036-9.848-20.789-25.167-21.883-7.659 0-18.6 2.188-30.637 6.564-8.753 3.283-18.601 3.283-22.977 0l-3.283-3.282c-5.47-3.282-8.753 2.188-4.376 5.471l44.861 35.014s-1.094 1.094-2.188 1.094c-16.413 3.282-26.261 9.847-26.261 20.79 0 15.318 15.319 24.071 29.543 25.165 13.13 0 20.789-8.753 29.543-12.036 5.471-2.188 13.13-2.188 17.507 2.19l2.188 2.187c4.377 3.283 8.753-2.188 4.377-6.565zm12.036 16.413c-4.377 12.036-15.318 16.413-26.26 16.413-2.188 0-6.565-1.094-8.753-4.377-2.189-2.188-4.377-4.377-4.377-7.659 0-12.037 8.754-14.225 20.789-18.6z"/><path fill="#353833" d="M683.338 833.102v8.754c-1.095 2.188-2.189 4.376-6.566 4.376-3.282 0-5.47-1.094-7.659-3.282-3.282-2.188-5.47-4.377-7.659-7.659-3.282-3.283-5.47-6.566-6.565-10.942-2.188-3.283-3.283-7.66-3.283-10.942 0-5.47 0-8.753 2.188-14.224q1.642-4.923 6.566-6.565c2.188-1.094 4.376-2.189 6.565-2.189 3.282 0 7.659 2.19 9.847 5.471 3.283 3.283 4.377 7.66 5.471 12.036zm14.223 0-1.093-26.26c0-4.377 0-7.659 2.188-10.942 3.283-4.376 8.754-6.565 14.225-7.659 4.376 0 7.659 1.094 12.035 5.471 3.283 3.283 4.377 6.565 5.471 10.942 0 6.564 0 10.941-2.188 17.506-1.094 5.471-4.377 10.942-7.659 16.413-3.283 4.377-5.471 7.66-10.942 7.66-2.188 0-4.376 0-6.566-1.095-3.281-3.282-4.376-6.565-5.471-12.036m53.616 15.32c-2.188-2.19-4.378-1.095-6.566-2.19-3.283-1.094-4.376-3.282-4.376-6.565 0-2.188 0-4.376 1.093-7.659 2.19-4.377 5.471-8.754 6.566-13.13 3.283-7.66 5.471-14.224 4.376-21.883 0-7.66-2.188-13.13-6.564-17.508-3.283-4.376-7.659-6.565-12.037-8.753-5.47-2.189-9.847-3.283-15.318-3.283-5.47 0-9.848 1.094-14.224 3.283-5.471 2.188-9.847 6.565-13.13 9.848-3.283-2.189-5.471-4.377-8.754-5.47-4.376-3.284-8.753-5.472-14.224-6.567s-9.847-1.094-15.318 1.095c-7.659 2.188-13.13 5.471-18.601 12.036-4.377 6.565-5.471 12.036-5.471 20.79 1.094 5.47 2.188 9.847 4.376 14.223 2.188 5.471 5.471 9.848 8.754 14.225 1.093 3.282 4.376 7.66 4.376 10.942 0 2.188-2.188 3.282-4.376 4.376s-4.377 1.095-6.566 2.19q-4.923 1.64-3.282 6.564c0 3.282 2.189 4.376 4.377 4.376h110.511c3.283 0 5.471-1.094 6.566-4.376 0-2.189 0-4.377-2.188-6.565"/><path fill="#fff" d="m687.714 833.102-2.188-26.26c0-8.753-7.659-19.695-18.6-19.695s-20.79 9.848-18.603 26.26c1.095 15.318 15.32 36.108 28.45 37.202 7.658 0 10.941-4.377 10.941-17.507m6.566 1.094-2.19-27.354c0-13.13 9.85-20.789 20.79-21.884 10.942-1.094 21.884 8.754 20.79 25.166 0 16.413-10.943 38.297-21.884 39.391-6.565 1.094-16.413-1.094-17.506-15.319m-56.899 21.884H746.8c4.378 0 3.283-5.47 0-5.47-5.47 0-10.942-4.378-10.942-10.943 0-12.036 13.131-21.884 13.131-39.39 0-18.6-12.036-27.355-28.449-28.449-13.13-2.188-21.883 6.565-29.542 13.13-6.566-3.282-15.319-14.224-32.826-13.13-12.036 1.094-26.26 12.036-26.26 26.261 1.094 20.79 17.507 33.92 18.601 43.767 0 6.565-8.753 8.753-13.13 8.753-3.282 1.094-3.282 5.471 0 5.471"/><path fill="#353833" d="M514.388 375.79c-1.024-3.074-3.074-6.147-2.049-9.22 0-2.05-3.073-3.074-4.098 0-1.024 2.049 1.025 8.195 5.123 10.245 1.024 1.024 2.048 0 1.024-1.025M518.486 340.958c3.073-3.074 5.122-5.122 8.196-6.147 2.048 0 2.048-3.074-1.024-3.074-3.074 0-8.196 4.099-9.22 8.196 0 1.025 2.048 1.025 2.048 1.025M553.319 333.785c3.074 1.025 6.146 3.074 7.17 6.147 1.026 1.025 4.099 0 3.075-2.048 0-3.074-6.148-7.172-10.245-6.148-2.05 0-1.025 2.05 0 2.05M570.735 364.52c-1.025 3.074-1.025 6.147-3.074 9.221-2.048 1.024 0 3.074 2.049 2.049 3.074-2.049 5.123-8.196 3.074-12.294-1.024-1.025-2.049 0-2.049 1.024M547.172 390.132c-4.098 1.025-7.171 1.025-10.245 0-2.05-1.024-3.074 2.05-1.024 3.074 2.049 2.048 8.195 2.048 12.294-1.024 1.024-1.025-1.025-2.05-1.025-2.05M515.54 789.522c0-5.858-4.749-10.606-10.606-10.606s-10.606 4.748-10.606 10.606 4.748 10.606 10.606 10.606 10.606-4.748 10.606-10.606M577.037 789.522c0-5.858-4.749-10.606-10.606-10.606s-10.606 4.748-10.606 10.606 4.748 10.606 10.606 10.606 10.606-4.748 10.606-10.606"/></g></g></svg>