<svg xmlns="http://www.w3.org/2000/svg" width="824.919" height="936.263" viewBox="0 0 824.919 936.263"><clipPath id="a"><path d="M0 1080h1080V0H0z"/></clipPath><clipPath id="b"><path d="M0 1080h1080V0H0z"/></clipPath><g clip-path="url(#a)" transform="matrix(1.33333 0 0 -1.33333 -305.253 1190.377)"><path d="M539.531 784.136c-48.267 0-87.409 15.663-87.409 34.98 0 19.273 39.142 34.91 87.409 34.91 48.237 0 87.422-15.637 87.422-34.91 0-19.317-39.185-34.98-87.422-34.98m-.203 107.057c-66.67 0-120.779-29.291-120.779-65.418 0-36.075 54.109-65.38 120.779-65.38 66.677 0 120.726 29.305 120.726 65.38 0 36.127-54.049 65.418-120.726 65.418"/><path fill="none" stroke="#fff" stroke-width=".305" d="M539.531 784.136c-48.267 0-87.409 15.663-87.409 34.98 0 19.273 39.142 34.91 87.409 34.91 48.237 0 87.422-15.637 87.422-34.91 0-19.317-39.185-34.98-87.422-34.98zm-.203 107.057c-66.67 0-120.779-29.291-120.779-65.418 0-36.075 54.109-65.38 120.779-65.38 66.677 0 120.726 29.305 120.726 65.38 0 36.127-54.049 65.418-120.726 65.418z"/><path d="M759.72 389.917c-52.506-62.402-131.166-102.1-219.157-102.1-87.096 0-165.009 38.862-217.558 100.22l-62.2-74.828c69.882-75.009 169.548-122.016 280.162-122.016 111.271 0 211.428 47.521 281.276 123.336z"/><path fill="none" stroke="#fff" stroke-width=".305" d="M759.72 389.917c-52.506-62.402-131.166-102.1-219.157-102.1-87.096 0-165.009 38.862-217.558 100.22l-62.2-74.828c69.882-75.009 169.548-122.016 280.162-122.016 111.271 0 211.428 47.521 281.276 123.336z"/><path d="M710.497 676.466V344.223c0-9.614-6.09-17.915-14.607-21.097l-154.27-59.809-154.31 59.809c-8.5 3.182-14.616 11.483-14.616 21.097l.011 332.243z"/><path fill="none" stroke="#fff" stroke-width=".305" d="M710.497 676.466V344.223c0-9.614-6.09-17.915-14.607-21.097l-154.27-59.809-154.31 59.809c-8.5 3.182-14.616 11.483-14.616 21.097l.011 332.243z"/><path fill="#fff" d="M380.724 419.989v204.75h321.649l.056-204.75z"/><path fill="#d71921" d="M702.429 439.192c-2.807-4.52-9.766-7.71-17.833-7.71-8.154 0-15.14 3.19-17.891 7.765-2.862-4.574-9.793-7.765-17.918-7.765-8.152 0-15.027 3.19-17.891 7.71-2.861-4.52-9.751-7.71-17.862-7.71-8.138 0-15.031 3.19-17.886 7.765h-.083c-2.807-4.574-9.725-7.765-17.834-7.765-8.125 0-15.015 3.19-17.82 7.71-2.862-4.52-9.864-7.71-17.92-7.71-8.145 0-15.054 3.19-17.882 7.765h.05c-2.881-4.574-9.773-7.765-17.865-7.765-8.147 0-15.096 3.19-17.927 7.71-2.834-4.52-9.796-7.71-17.901-7.71-8.075 0-15.012 3.19-17.844 7.765h-.07c-2.795-4.574-9.765-7.765-17.81-7.765-8.17 0-15.07 3.19-17.927 7.71v-.127c-2.845-4.546-9.756-7.583-17.788-7.583-8.216 0-15.11 3.19-17.914 7.765v.393l.11-90.496c0-9.181 5.789-16.995 13.92-20.043l146.976-57.046L688.482 329.1c8.138 3.048 13.947 10.862 13.947 20.043v90.429"/><path fill="#00adee" d="M702.429 448.64c-2.807-4.493-9.766-7.712-17.833-7.712-8.154 0-15.14 3.23-17.891 7.713-2.862-4.482-9.793-7.713-17.918-7.713-8.152 0-15.027 3.219-17.891 7.713-2.861-4.494-9.751-7.713-17.862-7.713-8.138 0-15.031 3.23-17.886 7.713h-.083c-2.807-4.482-9.725-7.713-17.834-7.713-8.125 0-15.015 3.219-17.82 7.713-2.862-4.494-9.864-7.713-17.92-7.713-8.145 0-15.054 3.23-17.882 7.713h.05c-2.881-4.482-9.773-7.713-17.865-7.713-8.147 0-15.096 3.219-17.927 7.713-2.834-4.494-9.796-7.713-17.901-7.713-8.075 0-15.012 3.23-17.844 7.713h-.07c-2.795-4.482-9.765-7.713-17.81-7.713-8.17 0-15.07 3.219-17.927 7.713v-.146c-2.845-4.53-9.756-7.567-17.788-7.567-8.216 0-15.11 3.23-17.914 7.713v11.216c2.804-4.523 9.698-7.791 17.914-7.791 8.032 0 14.943 3.208 17.788 7.748 2.858-4.54 9.758-7.748 17.928-7.748 8.044 0 15.014 3.268 17.809 7.79h.07c2.832-4.522 9.769-7.79 17.844-7.79 8.105 0 15.067 3.208 17.9 7.748 2.832-4.54 9.78-7.748 17.928-7.748 8.092 0 14.984 3.268 17.865 7.79h-.05c2.828-4.522 9.737-7.79 17.883-7.79 8.055 0 15.057 3.208 17.919 7.748 2.805-4.54 9.695-7.748 17.82-7.748 8.109 0 15.027 3.268 17.834 7.79h.083c2.855-4.522 9.748-7.79 17.886-7.79 8.11 0 15 3.208 17.862 7.748 2.864-4.54 9.739-7.748 17.89-7.748 8.126 0 15.057 3.268 17.919 7.79 2.75-4.522 9.737-7.79 17.89-7.79 8.068 0 15.027 3.208 17.834 7.748zM702.429 468.833c-2.807-4.5-9.766-7.66-17.833-7.66-8.154 0-15.14 3.186-17.891 7.66-2.862-4.474-9.793-7.66-17.918-7.66-8.152 0-15.027 3.16-17.891 7.66-2.861-4.5-9.751-7.66-17.862-7.66-8.138 0-15.031 3.186-17.886 7.66h-.083c-2.807-4.474-9.725-7.66-17.834-7.66-8.125 0-15.015 3.16-17.82 7.66-2.862-4.5-9.864-7.66-17.92-7.66-8.145 0-15.054 3.186-17.882 7.66h.05c-2.881-4.474-9.773-7.66-17.865-7.66-8.147 0-15.096 3.16-17.927 7.66-2.834-4.5-9.796-7.66-17.901-7.66-8.075 0-15.012 3.186-17.844 7.66h-.07c-2.795-4.474-9.765-7.66-17.81-7.66-8.17 0-15.07 3.16-17.927 7.66v-.099c-2.845-4.55-9.756-7.562-17.788-7.562-8.216 0-15.11 3.187-17.914 7.66v11.207c2.804-4.492 9.698-7.738 17.914-7.738 8.032 0 14.943 3.147 17.788 7.725 2.858-4.578 9.758-7.725 17.928-7.725 8.044 0 15.014 3.246 17.809 7.738h.07c2.832-4.492 9.769-7.738 17.844-7.738 8.105 0 15.067 3.147 17.9 7.725 2.832-4.578 9.78-7.725 17.928-7.725 8.092 0 14.984 3.246 17.865 7.738h-.05c2.828-4.492 9.737-7.738 17.883-7.738 8.055 0 15.057 3.147 17.919 7.725 2.805-4.578 9.695-7.725 17.82-7.725 8.109 0 15.027 3.246 17.834 7.738h.083c2.855-4.492 9.748-7.738 17.886-7.738 8.11 0 15 3.147 17.862 7.725 2.864-4.578 9.739-7.725 17.89-7.725 8.126 0 15.057 3.246 17.919 7.738 2.75-4.492 9.737-7.738 17.89-7.738 8.068 0 15.027 3.147 17.834 7.725z"/><path d="M565.164 336.126s15.77-24.677 7.477-17.7c-6.054 5.21-14.34 17.234-20.344 27.116l-32.363-12.572s-18.586-22.618-14.463-12.625c2.956 7.213 12.14 18.939 19.699 27.789l-22.165 26.765s-27.265 10.629-16.456 9.833c7.072-.55 21.812-5.847 32.448-10.151l18.473 29.399s1.725 29.247 4.315 18.727c1.783-7.225 1.218-22.85.338-34.405l33.865-8.242s28.334 7.435 19.077 1.747c-6.483-4.066-20.58-8.306-31.867-10.997z"/><path fill="none" stroke="#000" stroke-width=".186" d="M565.164 336.126s15.77-24.677 7.477-17.7c-6.054 5.21-14.34 17.234-20.344 27.116l-32.363-12.572s-18.586-22.618-14.463-12.625c2.956 7.213 12.14 18.939 19.699 27.789l-22.165 26.765s-27.265 10.629-16.456 9.833c7.072-.55 21.812-5.847 32.448-10.151l18.473 29.399s1.725 29.247 4.315 18.727c1.783-7.225 1.218-22.85.338-34.405l33.865-8.242s28.334 7.435 19.077 1.747c-6.483-4.066-20.58-8.306-31.867-10.997z"/><path fill="#fff" d="M539.37 342.655c.197-.463.557-.821.954-.821.39 0 .685.358.94.82.355.837.691 2.776.565 6.883 0 0 .21 13.812 10.522-1.003 28.877-41.665-12.263-41.911-12.263-41.911h.39s-41.155.246-12.224 41.91c10.311 14.816 10.45 1.004 10.45 1.004-.036-4.107.21-6.046.665-6.938z"/><path fill="none" stroke="#000" stroke-width=".186" d="M539.37 342.655c.197-.463.557-.821.954-.821.39 0 .685.358.94.82.355.837.691 2.776.565 6.883 0 0 .21 13.812 10.522-1.003 28.877-41.665-12.263-41.911-12.263-41.911h.39s-41.155.246-12.224 41.91c10.311 14.816 10.45 1.004 10.45 1.004-.036-4.107.21-6.046.665-6.938z"/><path fill="#fff" d="M518.21 359.343c-.372-.344-.539-.737-.389-1.08.102-.38.475-.668.99-.68l-.025.012c.962-.085 2.862.098 6.75 1.488 0 0 13.216 4.064 2.33-10.244-30.739-40.358-43.597-1.382-43.597-1.382v-.28s-12.387 39.2 36.131 24.569c17.326-5.17 4.163-9.653 4.163-9.653-3.996-1.18-5.68-2.042-6.353-2.75"/><path fill="none" stroke="#000" stroke-width=".186" d="M518.21 359.343c-.372-.344-.539-.737-.389-1.08.102-.38.475-.668.99-.68l-.025.012c.962-.085 2.862.098 6.75 1.488 0 0 13.216 4.064 2.33-10.244-30.739-40.358-43.597-1.382-43.597-1.382v-.28s-12.387 39.2 36.131 24.569c17.326-5.17 4.163-9.653 4.163-9.653-3.996-1.18-5.68-2.042-6.353-2.75z"/><path fill="#fff" d="M527.437 384.763c-.414.235-.863.235-1.193 0-.305-.224-.408-.639-.305-1.123v.03c.197-.959.99-2.748 3.592-5.973 0 0 7.907-11.29-9.13-5.355-47.828 16.694-14.748 41.045-14.748 41.045l-.235-.117s33.334 23.925 34.51-26.785c.397-18.07-7.924-6.938-7.924-6.938-2.304 3.357-3.715 4.728-4.567 5.216"/><path fill="none" stroke="#000" stroke-width=".186" d="M527.437 384.763c-.414.235-.863.235-1.193 0-.305-.224-.408-.639-.305-1.123v.03c.197-.959.99-2.748 3.592-5.973 0 0 7.907-11.29-9.13-5.355-47.828 16.694-14.748 41.045-14.748 41.045l-.235-.117s33.334 23.925 34.51-26.785c.397-18.07-7.924-6.938-7.924-6.938-2.304 3.357-3.715 4.728-4.567 5.216z"/><path fill="#fff" d="M554.576 383.725c.107.456 0 .941-.3 1.163-.296.152-.787.11-1.229-.125-.807-.4-2.23-1.733-4.582-5.174 0 0-8.267-11.057-7.902 6.96 1.164 50.69 34.55 26.754 34.55 26.754l-.24.168s33.095-24.35-14.83-41.058c-16.983-5.95-9.025 5.328-9.025 5.328 2.513 3.28 3.41 5.023 3.558 5.984"/><path fill="none" stroke="#000" stroke-width=".186" d="M554.576 383.725c.107.456 0 .941-.3 1.163-.296.152-.787.11-1.229-.125-.807-.4-2.23-1.733-4.582-5.174 0 0-8.267-11.057-7.902 6.96 1.164 50.69 34.55 26.754 34.55 26.754l-.24.168s33.095-24.35-14.83-41.058c-16.983-5.95-9.025 5.328-9.025 5.328 2.513 3.28 3.41 5.023 3.558 5.984z"/><path fill="#fff" d="M561.963 357.595c.464.014.9.288 1.011.67.175.34-.07.734-.449 1.078-.695.708-2.399 1.654-6.363 2.75 0 0-13.102 4.483 4.145 9.654 48.617 14.63 36.16-24.57 36.16-24.57l.07.28s-12.909-38.976-43.625 1.382c-10.957 14.308 2.255 10.244 2.255 10.244 3.927-1.39 5.878-1.573 6.796-1.5z"/><path fill="none" stroke="#000" stroke-width=".186" d="M561.963 357.595c.464.014.9.288 1.011.67.175.34-.07.734-.449 1.078-.695.708-2.399 1.654-6.363 2.75 0 0-13.102 4.483 4.145 9.654 48.617 14.63 36.16-24.57 36.16-24.57l.07.28s-12.909-38.976-43.625 1.382c-10.957 14.308 2.255 10.244 2.255 10.244 3.927-1.39 5.878-1.573 6.796-1.5z"/><path d="M512.103 404.309s-3.093-2.157-5.77-2.992c-2.676-.803-3.834-2.82-4.177-3.301 0 0-1.512-3.526-2.494-2.08-1.045 1.4 1.037 4.048 1.037 4.048.309.53 1.54 2.497 4.137 3.389 2.675.789 5.763 2.9 5.763 2.9s3.016 2.365 4.612 4.593c1.663 2.297 3.87 2.799 4.493 2.9 0 0 3.126 1.12 4.232-.251 1.016-1.433-2.768-1.723-2.768-1.723-.642-.234-2.872-.713-4.494-2.912-1.558-2.294-4.571-4.571-4.571-4.571M568.35 404.34s-2.935 2.305-4.52 4.582c-1.614 2.24-3.901 2.732-4.42 2.963 0 0-3.858.28-2.82 1.695 1.052 1.39 4.224.231 4.224.231.632-.088 2.87-.582 4.456-2.88 1.61-2.234 4.593-4.637 4.593-4.637s3.17-2.09 5.788-2.896c2.617-.833 3.797-2.79 4.09-3.275 0 0 2.106-2.733 1.11-4.159-1.025-1.446-2.484 2.093-2.484 2.093-.393.542-1.528 2.51-4.223 3.316-2.59.855-5.794 2.967-5.794 2.967M585.845 350.815s1.334 3.522 2.948 5.795c1.739 2.163 1.433 4.514 1.388 5.08 0 0-.843 3.758.814 3.176 1.628-.554 1.573-3.869 1.573-3.869 0-.638.258-2.957-1.384-5.197-1.711-2.2-3.01-5.783-3.01-5.783s-.966-3.647-.911-6.366c0-2.775-1.571-4.507-1.923-5.038 0 0-1.964-2.743-3.578-2.262-1.726.554 1.235 3.045 1.235 3.045.337.494 1.895 2.28 1.81 4.978 0 2.774 1.038 6.441 1.038 6.441M540.324 317.816s3.82-.155 6.402-1.053c2.638-.863 4.713.06 5.324.287 0 0 3.221 1.982 3.194.197 0-1.663-3.194-2.708-3.194-2.708-.61-.193-2.686-1.179-5.324-.249-2.583.887-6.402 1.07-6.402 1.07s-3.852-.183-6.437-1.07c-2.627-.93-4.687.056-5.347.25 0 0-3.226 1.044-3.226 2.707-.017 1.785 3.226-.197 3.226-.197.66-.228 2.72-1.15 5.347-.287 2.585.898 6.437 1.053 6.437 1.053M494.873 350.815s1.085-3.667 1.043-6.44c0-2.793 1.479-4.485 1.893-4.979 0 0 2.89-2.49 1.251-3.045-1.666-.48-3.634 2.262-3.634 2.262-.392.531-1.883 2.263-1.883 5.038.013 2.72-.989 6.366-.989 6.366s-1.29 3.582-2.984 5.783c-1.618 2.24-1.39 4.56-1.39 5.197 0 0 0 3.315 1.614 3.87 1.597.581.732-3.178.732-3.178-.052-.565-.262-2.916 1.445-5.079 1.65-2.273 2.902-5.795 2.902-5.795"/><path fill="#ffc10e" d="M540.089 374.977c-5.075 0-9.225-4.167-9.225-9.28 0-5.23 4.15-9.292 9.225-9.292 5.177 0 9.325 4.063 9.325 9.293 0 5.112-4.148 9.279-9.325 9.279"/><path fill="none" stroke="#ffca05" stroke-width=".074" d="M540.089 374.977c-5.075 0-9.225-4.167-9.225-9.28 0-5.23 4.15-9.292 9.225-9.292 5.177 0 9.325 4.063 9.325 9.293 0 5.112-4.148 9.279-9.325 9.279z"/><path d="m557.642 543.048 1.237-25.043 21.157 13.736 6.665-10.824-24.948-14.466v-5.196s29.03-16.315-6.355-15.679v-.219c-12.395-10.309-24.138-.083-24.138-.083-35.388-.62-6.384 15.61-6.384 15.61v5.258l-22.064 17.135 5.236 11.346 19.733-16.884 1.139 24.986z"/><path fill="#0db04b" d="M584.02 521.58c20.497-23.471 35.567 1.228 35.567 1.228 25.903 6.307 10.524 24.639 10.524 24.639 26.997 17.722-4.728 31.603-4.728 31.603-.21 23.552-20.248 21.797-20.248 21.797-20.917 18.291-40.913-2.023-40.913-2.023-31.392 26.13-55.196-4.01-55.196-4.01s-20.054 13.891-29.059-7.879c0 0-31.925.884-20-31.342 0 0-24.676-24.686 7.517-36.851 0 0 17.135-31.697 40.666-1.516 0 0 14.46-.849 12.178 19.508 0 0 18.34-7.619 35.686.849 0 0 5.543-12.477 17.484-5.496 0 0-1.867-8.034 9.667-9.658z"/><path fill="none" stroke="#000" stroke-width=".763" d="M584.02 521.58c20.497-23.471 35.567 1.228 35.567 1.228 25.903 6.307 10.524 24.639 10.524 24.639 26.997 17.722-4.728 31.603-4.728 31.603-.21 23.552-20.248 21.797-20.248 21.797-20.917 18.291-40.913-2.023-40.913-2.023-31.392 26.13-55.196-4.01-55.196-4.01s-20.054 13.891-29.059-7.879c0 0-31.925.884-20-31.342 0 0-24.676-24.686 7.517-36.851 0 0 17.135-31.697 40.666-1.516 0 0 14.46-.849 12.178 19.508 0 0 18.34-7.619 35.686.849 0 0 5.543-12.477 17.484-5.496 0 0-1.867-8.034 9.667-9.658z"/><g fill="#ffc10e"><path d="m309.476 319.482 1.522-1.305c-5.255-9.516-5.988-16.245-2.34-19.398 2.653-2.312 6.15-1.372 9.335 2.238 1.36 1.568 2.25 3.338 2.25 4.732 0 1.995-1.47 4.202-3.124 7.602-3.16 6.447-3.02 11.613 2.607 18.117 5.619 6.427 12.985 8.581 17.654 4.554 2.027-1.807 3.09-4.347 3.273-7.645l3.646 1.12 1.268-1.12-11.227-13.638-1.344 1.301c4.399 9.114 5.357 14.58 2.038 17.354-2.525 2.294-5.824 1.502-8.742-1.86-3.68-4.215-1.554-6.668 1.249-11.869 1.442-2.902 2.606-5.136 2.014-8.58-.554-3.049-2.4-6.6-5.347-10.055-6.131-6.97-13.108-9.046-18.065-4.76-2.438 2.195-3.575 4.772-3.414 8.738l-4.447-1.484-1.277 1.141zM337.99 276.15c3.98-2.734 9.917 1.805 18.175 13.591 8.254 11.896 10.435 18.95 6.444 21.803-3.936 2.704-9.816-1.8-18.086-13.692-8.241-11.82-10.538-18.918-6.532-21.703m13.597 38.656c5.118 2.425 9.366 2.315 13.162-.266 3.832-2.7 5.44-6.546 4.885-12.445-.442-5.172-2.858-11.078-6.938-16.954-4.08-5.865-8.047-9.629-13.104-12.01-5.414-2.506-10.038-2.534-13.64 0-3.707 2.563-5.238 6.56-4.732 12.591.48 5.733 2.62 10.81 6.74 16.681 4.123 5.94 8.856 10.183 13.626 12.403M392.987 291.756l-1.758.934c-1.557.817-2.196.196-3.44-2.151l-11.45-21.42c-4.122-7.691-4.302-12.266.14-14.57 1.995-1.04 4.09-.933 5.925 0 2.94 1.627 4.906 4.967 7.738 10.267l8.286 15.466c2.36 4.5 2.858 7.069-.169 8.634-.025.04-.19.107-.218.122l1.607 3.097 9.727-5.213-1.639-3.026c-3.05 1.093-4.633-.476-7.004-4.877l-8.52-15.926c-2.466-4.634-4.395-8.09-7.256-10.541-4.232-3.581-8.393-4.052-12.919-1.53-6.962 3.653-7.853 10.353-2.924 19.77l12.375 23.076c1.246 2.403 1.347 3.279-.154 4.09l-1.76.947 1.592 3.09 13.448-7.17zM430.353 275.097c-1.375.5-2.056-.083-3.025-2.459l-12.71-32.17c-1.036-2.445-1.036-3.33.558-3.996l1.903-.766-1.305-3.266-14.116 5.592 1.287 3.316 1.871-.75c1.602-.649 2.118 0 3.146 2.504l12.8 32.121c.92 2.424.92 3.258-.397 3.795-2.915 1.235-7.282-2.84-11.502-11.47l-1.929.666 7.285 16.638 24.503-9.702-6.135-17.063-1.803.662c2.856 9.202 2.484 15.197-.43 16.348M451.424 224.991c1.614-.499 2.102.224 2.794 2.806l4.092 15.178-10.226 2.75-4.036-15.143c-.724-2.565-.639-3.398.999-3.855l1.975-.579-.965-3.356-14.676 3.935.93 3.4 1.96-.467c1.644-.49 2.132.2 2.81 2.78l8.879 32.916c.736 2.595.694 3.538-.998 4.008l-1.949.493.95 3.357 14.641-3.997-.9-3.349-1.933.544c-1.648.488-2.137-.31-2.902-2.9l-3.643-13.668 10.263-2.747 3.637 13.68c.734 2.551.677 3.498-.999 3.953l-1.916.523.874 3.348 14.687-4.028-.866-3.326-2.011.552c-1.627.423-2.107-.34-2.829-2.922l-8.854-32.929c-.724-2.603-.65-3.437 1.034-3.85l1.898-.605-.867-3.328-14.785 3.932.996 3.437zM484.468 233.431l8.087-1.235-1.583 16.603zm5.796-16.274 2.012-.126c.846-.055 1.184.397 1.345 1.358.042.498.042 1.094 0 1.9l-.701 7.677-10.12 1.47-1.446-3.372c-.457-1.073-.83-2.392-.912-3.272-.474-2.987.615-4.105 3.53-4.762l-.492-3.398-11.246 1.662.508 3.413c2.536.293 4.22 3.01 6.37 8.09l14.608 34.714 2.96-.456 4.7-43.694c.225-2.067.75-2.886 2.22-3.16l-.512-3.484-13.294 1.968zM519.807 222.58c-.193-6.187.594-8.463 4.332-8.67l-.083-3.54-11.507.344.017 3.554c3.592.139 4.309 2.403 4.48 8.408l.709 28.929c.084 2.543-.186 3.565-1.92 3.665l-2.093.057.144 3.466 12.898-.334 5.592-28.912 6.539 28.639 12.722-.31-.126-3.51-2.005.122c-1.672.03-2.023-.817-2.078-3.465l-.813-34.132c-.085-2.68.208-3.53 1.893-3.53l2.056-.041-.092-3.517-14.918.343.125 3.497 1.73-.014c1.684-.042 2.07.764 2.158 3.403l.91 36.029-9.806-42.814-1.961.012-8.184 43.013zM570.144 235.813c.465-.107 1.074-.107 1.952 0 5.42.49 7.373 2.886 6.594 10.827-.715 7.725-2.778 10.033-7.472 9.601-2.561-.266-2.953-.789-2.681-4.468zm3.888-20.612 2.54.231.35-3.47-15.773-1.593-.336 3.54 2.161.207c1.726.193 1.895.972 1.67 3.662l-3.283 33.911c-.212 2.658-.59 3.48-2.309 3.352l-2.126-.227-.378 3.465 17.483 1.692c7.295.723 11.45-3.624 12.297-12.53.95-9.478-2.995-14.21-11.89-15.092-1.208-.153-2.484-.206-4.014-.28l1.362-13.638c.267-2.75.66-3.357 2.245-3.23M609.542 262.606c-1.404-.275-1.573-1.092-1.026-3.632l6.962-33.94c.56-2.607 1.008-3.288 2.706-2.937l1.938.372.674-3.484-14.832-3.038-.73 3.413 1.965.446c1.698.305 1.81 1.222 1.317 3.822l-7.03 33.877c-.532 2.508-1.004 3.26-2.407 2.964-3.117-.65-4.518-6.46-3.327-16.02l-1.93-.355-3.037 17.821 25.746 5.381 4.347-17.648-1.906-.373c-2.722 9.184-6.273 14.042-9.43 13.331M651.046 230.126c4.59 1.46 4.59 8.94.113 22.62-4.492 13.771-8.784 19.812-13.47 18.271-4.518-1.47-4.518-8.91-.056-22.643 4.518-13.723 8.839-19.802 13.413-18.248m-22.702 34.15c1.178 5.464 3.83 8.906 8.22 10.268 4.45 1.497 8.548.4 12.895-3.54 3.89-3.512 7.06-8.992 9.303-15.762 2.26-6.783 2.766-12.253 1.672-17.73-1.207-5.843-4.001-9.523-8.266-10.894-4.307-1.403-8.348-.197-12.838 3.87-4.252 3.773-7.001 8.533-9.218 15.378-2.246 6.855-2.821 13.215-1.768 18.41M675.223 239.576c3.06 1.998 2.665 4.249.21 9.546l-12.194 26.263-1.249.901c-1.263.947-2.188 1.571-3.648.849l-.448-.209-1.502 3.113 9.177 4.269 26.45-20.755-7.592 16.315c-2.72 5.854-4.278 7.342-7.899 5.68l-1.446 3.23 10.608 4.928 1.474-3.167c-2.976-1.678-2.737-3.859-.14-9.479l15.517-33.343-2.287-1.09-32.722 25.808 10.243-22.232c2.582-5.599 4.365-7.228 7.832-5.796l1.512-3.143-10.422-4.865zM735.53 304.91l-1.6-1.147c-7.045 7.618-11.324 8.948-16.347 5.494-1.92-1.32-2.287-1.87-.393-4.677l8.013-11.723c.166.085.377.183.505.316 2.96 2.01 2.665 5.01-.548 10.863l1.613 1.126 12.474-18.24-1.655-1.157c-4.265 5.21-6.918 6.412-9.835 4.467a5 5 0 0 0-.45-.332l9.022-13.249c1.53-2.22 2.175-2.705 3.607-1.737l2.37 1.628 1.978-2.915-13.246-9.054-1.962 2.92 1.67 1.164c1.473.916 1.204 1.792-.253 3.981l-19.252 28.194c-1.488 2.226-2.259 2.734-3.635 1.753l-1.726-1.14-1.964 2.844 21.568 14.743zM774.271 295.093c-2.625-2.236-5.965-2.945-9.85-2.208-5.979 1.175-12.11 5.33-17.765 11.957-4.404 5.108-7.253 10.518-8.419 15.72-1.332 5.815-.11 10.057 3.438 13.1 2.217 1.914 4.772 2.568 8.111 1.998l-.589 4.037 1.29 1.115 13.062-14.335-1.403-1.568c-8.474 7.24-14.522 9.405-17.862 6.56-4.026-3.498-1.333-10.02 8.196-21.117 9.57-11.238 15.406-14.775 19.896-10.95 3.367 2.915 2.652 8.633-2.344 16.834l2.428.484c6.412-9.614 6.99-17.219 1.811-21.628"/></g><path fill="#fff" d="m260.804 699.766 7.62-15.75-21.398-5.855 6.685-13.305 21.44 5.858 6.7-13.323-21.468-5.824 6.623-13.241 21.503 5.79 6.77-13.325-21.63-5.753 6.728-13.256 21.567 5.72 9.613-18.467c4.04 1.146 8.049 2.525 11.863 4.12l-50.167 100.164c-3.638-1.544-7.773-2.75-12.45-3.553M319.69 694.223c-1.498 7.096 14.65 15.586 27.607 26.018l-17.15 34.346c-6.78-3.705-14.315-9.506-21.84-17.968-2.01-2.07-3.784-4.251-5.493-6.423z"/><path fill="#d71921" d="M358.164 755.306c-4.177 5.672-14.876 6.437-28.017-.72l17.15-34.345c11.91 9.713 21.094 21.204 10.867 35.065M273.253 703.319l50.167-100.164c14.066 5.838 25.665 14.08 29.57 20.17l-21.593 45.957-10.71 22.823c-.568.722-.85 1.37-.997 2.118l-16.876 35.973c-8.443-10.506-15.746-20.97-29.561-26.877M260.804 699.766c-6.77-1.165-14.624-1.46-24.243-.667l10.465-20.938 21.398 5.855zM275.152 670.713l-21.44-5.858 6.67-13.289 21.47 5.824zM288.51 644.117l-21.504-5.792 6.643-13.287 21.63 5.752zM280.377 611.781l7.83-15.792c7.55-.414 15.55.838 23.35 3.045l-9.613 18.47z"/><path fill="#fff" d="m347.007 719.987 9.509-19.03c6.784 5.69 14.01 12.471 21.714 18.93l-17.845 31.878c6.433-12.403-2.336-22.822-13.378-31.778"/><path fill="#d71921" d="M320.686 692.105c.484-.723 1.204-1.362 2.182-2.011 9.597-6.788 20.865.137 33.648 10.864l-9.509 19.03c-14.197-11.442-32.176-20.391-26.32-27.883"/><path fill="none" stroke="#000" stroke-width=".609" d="M320.686 692.105c-10.793 13.863 59.882 32.756 37.478 63.2-6.33 8.644-27.652 6.009-49.857-18.686-17.178-18.952-24.755-41.487-71.746-37.52l51.646-103.11c26.042-1.358 57.872 16.473 64.783 27.403z"/><path fill="none" stroke="#000" stroke-width=".609" d="M378.23 719.886c-22.106-18.584-40.66-40.133-55.361-29.792-.98.648-1.698 1.287-2.183 2.011-10.337 13.308 54.432 31.3 39.699 59.661z"/><path fill="#fff" d="m815.62 699.766-7.647-15.75 21.33-5.855-6.61-13.305-21.484 5.858-6.664-13.323 21.47-5.824-6.609-13.241-21.512 5.79-6.735-13.325 21.565-5.753-6.692-13.256-21.579 5.72-9.598-18.467c-4.042 1.146-8.068 2.525-11.884 4.12l50.191 100.164c3.661-1.544 7.688-2.75 12.458-3.553M756.69 694.223c1.486 7.096-14.65 15.586-27.615 26.018l17.174 34.346c6.777-3.705 14.284-9.506 21.917-17.968 1.91-2.07 3.661-4.251 5.416-6.423z"/><path fill="#d71921" d="M718.201 755.306c4.18 5.672 14.888 6.437 28.049-.72l-17.174-34.345c-11.9 9.713-21.076 21.204-10.875 35.065M803.162 703.319l-50.19-100.164c-14.02 5.838-25.622 14.08-29.58 20.17l21.595 45.957 10.72 22.823c.576.722.856 1.37.983 2.118l16.893 35.973c8.503-10.506 15.73-20.97 29.579-26.877M815.62 699.766c6.71-1.165 14.635-1.46 24.248-.667l-10.566-20.938-21.329 5.855zM801.21 670.713l21.483-5.858-6.677-13.289-21.47 5.824zM787.895 644.117l21.51-5.792-6.68-13.287-21.566 5.752zM796.033 611.781l-7.871-15.792c-7.535-.414-15.574.838-23.307 3.045l9.598 18.47z"/><path fill="#fff" d="m729.37 719.987-9.528-19.03c-6.735 5.69-14.018 12.471-21.636 18.93l17.79 31.878c-6.44-12.403 2.374-22.822 13.374-31.778"/><path fill="#d71921" d="M755.707 692.105c-.534-.723-1.278-1.362-2.146-2.011-9.669-6.788-20.867.137-33.72 10.864l9.53 19.03c14.198-11.442 32.13-20.391 26.336-27.883"/><path fill="none" stroke="#000" stroke-width=".609" d="M755.707 692.105c10.762 13.863-59.859 32.756-37.506 63.2 6.383 8.644 27.698 6.009 49.965-18.686 17.105-18.952 24.682-41.487 71.702-37.52l-51.706-103.11c-26-1.358-57.839 16.473-64.813 27.403z"/><path fill="none" stroke="#000" stroke-width=".609" d="M698.206 719.886c22.072-18.584 40.62-40.133 55.355-29.792.868.648 1.612 1.287 2.146 2.011 10.356 13.308-54.427 31.3-39.71 59.661z"/><g fill="#fff"><path d="M602.75 723.324c-4.655-3.708-12.666-9.1-21.59-14.54v-71.307c10.066 6.11 20.327 12.67 30.008 17.9v73.929c-3.34-2.207-6.273-4.263-8.419-5.982M650.822 742.692c-.422 0-.828-.1-1.263-.1l-10.188-77.06c.407.015.828.116 1.264.116 8.349 0 16.095-2.806 23.39-6.927l22.829 70.019c-11.21 7.988-23.208 13.952-36.032 13.952M753.56 690.094c-9.556-6.69-20.738 0-33.38 10.587l-29.72-62.02c12.08-10.452 22.817-19.078 32.89-15.27l32.357 68.714c-.534-.723-1.278-1.362-2.146-2.011M322.869 690.094c-.98.649-1.698 1.288-2.182 2.01l32.304-68.712c10.169-3.81 20.875 4.817 32.949 15.27l-29.75 62.019c-12.691-10.587-23.79-17.276-33.321-10.587M538.205 690.259c-2.974 0-6.945 1.018-11.422 2.625v-71.755c4.14-1.448 7.974-2.321 11.422-2.321 3.414 0 7.264.873 11.363 2.32v71.755c-4.399-1.607-8.406-2.625-11.363-2.625M425.551 742.692c-12.795 0-24.805-5.964-35.978-13.952l22.844-70.02c7.24 4.122 14.985 6.928 23.374 6.928.377 0 .806-.101 1.198-.115l-10.162 77.06c-.428 0-.829.099-1.276.099M473.647 723.324c-2.153 1.719-4.985 3.775-8.398 5.982v-73.93c9.718-5.23 19.966-11.79 29.986-17.9v71.309c-8.98 5.44-16.986 10.83-21.588 14.539"/></g><path fill="#d71921" d="M495.235 708.785v-71.308c11.239-6.862 22.198-13.162 31.549-16.348v71.754c-9.351 3.356-21.131 9.597-31.55 15.902M426.827 742.593l10.162-77.06c7.973-.382 17.718-4.48 28.26-10.156v73.929c-9.659 6.117-23.598 12.874-38.422 13.287M356.19 700.68l29.75-62.018c8.1 6.998 16.792 14.69 26.478 20.058l-22.845 70.02c-12.094-8.608-23.234-19.574-33.383-28.06M549.568 692.883V621.13c9.393 3.186 20.33 9.486 31.591 16.348v71.308c-10.41-6.305-22.169-12.546-31.59-15.902M611.168 729.306v-73.93c10.524 5.677 20.26 9.775 28.203 10.157l10.187 77.06c-14.818-.413-28.72-7.17-38.39-13.287M686.854 728.74l-22.828-70.02c9.595-5.367 18.324-13.06 26.433-20.059l29.72 62.02c-10.116 8.485-21.23 19.45-33.325 28.06"/><path fill="none" stroke="#000" stroke-width=".609" d="M538.205 618.808c25.815 0 75.294 46.84 102.43 46.84 36.061 0 60.728-50.548 82.714-42.256l32.358 68.713c-.535-.723-1.278-1.362-2.147-2.011-24.26-17.097-58.792 52.598-102.738 52.598-20.458 0-39.556-12.762-48.073-19.368-12.75-10.144-50.032-33.065-64.544-33.065-14.444 0-51.852 22.92-64.559 33.065-8.51 6.606-27.614 19.368-48.095 19.368-43.866 0-78.437-69.695-102.683-52.598-.978.649-1.698 1.288-2.182 2.01l32.304-68.712c22.044-8.292 46.724 42.256 82.801 42.256 27.101 0 76.65-46.84 102.414-46.84z"/><path fill="#ffc10e" d="M539.531 784.136c-48.267 0-87.409 15.663-87.409 34.98 0 19.273 39.142 34.91 87.409 34.91 48.237 0 87.422-15.637 87.422-34.91 0-19.317-39.185-34.98-87.422-34.98m-.078 96.404c-59.373 0-107.349-24.475-107.349-54.765 0-30.241 47.976-54.762 107.349-54.762 59.245 0 107.342 24.52 107.342 54.762 0 30.29-48.097 54.765-107.342 54.765"/><path fill="none" stroke="#000" stroke-width="1.417" d="M539.531 784.136c-48.267 0-87.409 15.663-87.409 34.98 0 19.273 39.142 34.91 87.409 34.91 48.237 0 87.422-15.637 87.422-34.91 0-19.317-39.185-34.98-87.422-34.98zm-.078 96.404c-59.373 0-107.349-24.475-107.349-54.765 0-30.241 47.976-54.762 107.349-54.762 59.245 0 107.342 24.52 107.342 54.762 0 30.29-48.097 54.765-107.342 54.765z"/><path fill="#fff" d="M539.245 843.98c-46.494 0-84.081-37.713-84.081-84.125 0-46.493 37.587-84.125 84.08-84.125h-1.038c46.405 0 84.09 37.632 84.09 84.125 0 46.412-37.685 84.126-84.09 84.126z"/><path fill="none" stroke="#000" stroke-width=".609" d="M539.245 843.98c-46.494 0-84.081-37.713-84.081-84.125 0-46.493 37.587-84.125 84.08-84.125h-1.038c46.405 0 84.09 37.632 84.09 84.125 0 46.412-37.685 84.126-84.09 84.126z"/><path d="m525.254 690.3-17.301 29.39-31.701 5.17-7.962-10.071c.372-.512.565-1.034.938-1.511l1.378-1.971c10.618-14.972 25.915-26.345 43.87-31.884l3.243-.605zM503.6 771.484l13.597-41.944h43.027l13.597 41.944-35.153 25.45zM538.668 813.943v.056l26.157 17.108v8.46a83.5 83.5 0 0 1-26.121 4.386c-9.09-.071-17.848-1.621-26.114-4.385v-8.461zM490.186 784.831l.926 33.366-6.784 5.28c-3.58-3.04-6.885-6.36-9.84-9.97l-.36-.354c-9.559-11.716-15.958-26.035-18.133-41.753l7.493-3.302zM569.54 719.69l-17.3-29.389 7.493-11.484 3.13.59c18.226 5.583 33.885 17.278 44.502 32.607l.69 1.018c.391.596.743 1.245 1.106 1.757l-8.01 10.072zM587.277 784.831l26.656-16.733 7.493 3.302c-2.175 15.777-8.616 30.181-18.283 41.93l-.072.016c-2.956 3.687-6.38 7.03-9.957 10.13l-6.786-5.279z"/></g><g clip-path="url(#b)" transform="matrix(1.33333 0 0 -1.33333 -305.253 1190.377)"><g fill="#fff"><path d="M452.961 739.926s-6.172 17.428 0 40.665l13.797 3.63-3.268-44.295zM624.335 780.954s6.172-17.428 0-40.665l-13.797-3.631 3.268 44.296zM289.575 598.324h1.452c24.327 0 52.284 15.976 59.546 25.78l-31.588 67.532c-1.09 1.452-1.453 3.267-1.453 5.083.726 5.446 7.988 10.892 17.428 17.428 11.256 7.988 23.963 17.065 25.416 27.594.726 4.357-.726 8.714-3.994 13.071-1.452 2.178-4.357 3.631-7.988 3.631-8.714.363-23.237-5.447-38.486-22.51-2.905-3.269-5.447-6.537-7.988-9.805-12.708-15.975-24.327-30.86-61.724-28.683zm1.452-3.994h-3.9939999999999998l-53.736 107.472 3.63-.363c37.762-3.268 49.017 10.892 61.725 26.868 2.542 3.268 5.446 6.535 8.35 9.803 13.798 15.613 29.774 24.327 41.755 23.963 4.72-.363 8.714-2.178 11.256-5.446 3.994-5.446 5.446-10.529 4.72-15.975-1.816-12.345-15.25-21.785-27.231-30.136-7.262-5.446-15.25-10.892-15.613-14.523 0-.726 0-1.453.726-2.179l.363-.363 32.678-69.71-.726-1.09c-7.625-11.619-38.487-28.32-63.903-28.32"/><path d="M291.027 600.866c23.237 0 49.016 14.523 56.641 23.6l-31.225 66.081c-1.453 1.815-1.816 3.994-1.453 6.535 1.09 6.536 8.714 11.982 18.154 18.881 10.893 7.624 22.874 16.338 24.327 25.778.726 3.631-.363 7.262-3.268 11.256-1.452 1.815-4.357 2.541-6.172 2.541-7.988.363-21.785-5.083-36.671-21.784-2.905-3.268-5.447-6.536-7.988-9.441-11.982-15.249-24.327-30.498-59.546-29.772zm0-9.077h-5.446L228.94 704.707l7.988-.726c36.671-3.268 47.2 10.529 59.545 25.779 2.542 3.267 5.446 6.535 8.351 10.166 14.523 15.975 30.862 25.416 43.933 24.689 5.809-.363 10.166-2.541 13.071-6.172 4.357-5.809 6.172-11.982 5.083-18.154-2.179-13.071-15.976-23.237-27.957-31.951-5.81-3.994-14.16-10.166-14.524-13.071l.727-1.089 33.403-71.164-1.452-2.179c-8.714-12.707-40.665-29.046-66.081-29.046"/><path d="M364.37 741.015c-1.816-11.982-15.613-21.785-27.232-30.136-7.262-5.446-15.249-10.892-15.613-14.523 0-.726 0-1.452.727-2.178.363-.727.726-1.09 1.815-1.453 10.892-7.624 25.053 5.083 41.391 19.607 3.268 2.904 6.536 5.81 10.166 9.077zm-33.04-55.188c-3.269 0-6.537 1.09-9.44 3.267-1.09.727-2.18 1.453-2.543 2.542-1.089 1.452-1.815 3.268-1.452 5.083.726 5.446 7.987 10.893 17.428 17.428 14.886 10.53 31.224 22.511 23.6 37.397l3.631 1.816 18.517-33.404-1.453-1.089c-3.994-3.268-7.624-6.535-11.255-9.803-13.797-12.345-26.142-23.237-37.034-23.237"/><path d="M362.917 747.188q0-.544 0 0m2.178-12.708c-4.72-10.53-16.7-18.88-26.504-25.78-5.81-3.993-14.16-10.166-14.524-13.07.363-.727.726-.727 1.09-1.453 9.44-6.535 22.874 5.446 38.486 19.244l8.714 7.624zm-33.766-51.194c-3.994 0-7.625 1.089-10.892 3.63-1.453 1.09-2.542 1.815-3.268 3.267-1.453 1.817-2.179 4.358-1.816 6.9 1.09 6.535 8.714 11.982 18.154 18.88 17.428 12.345 29.047 22.148 22.875 34.13l-1.09 2.178 7.988 4.357 21.06-37.397-2.906-2.542c-3.994-3.267-7.625-6.535-11.255-9.803-14.524-12.708-26.868-23.6-38.85-23.6M725.998 624.103c7.262-9.803 36.308-26.505 61.36-25.779l49.743 98.758c-37.398-2.178-49.016 12.708-61.724 28.684-2.542 3.267-5.083 6.535-7.988 9.803-12.708 14.16-26.868 22.511-37.76 22.511h-1.09c-3.63-.363-6.535-1.453-8.35-3.63-3.268-4.358-4.357-8.715-3.994-13.072 1.815-10.529 14.16-19.606 25.415-27.594 9.077-6.535 16.339-11.982 17.428-17.428.363-1.815-.363-3.63-1.452-5.083zm59.545-29.773c-25.415 0-56.277 16.702-63.902 28.321l-.726 1.09.363 1.088 32.677 68.986c.726.726.726 1.452.726 2.178-.726 3.994-8.35 9.44-15.612 14.523-11.982 8.351-25.053 18.154-27.231 30.136-.726 5.446.726 10.892 4.72 15.975 2.178 3.268 6.172 5.084 11.255 5.447 11.982.726 27.958-8.35 41.755-23.964 2.904-3.267 5.809-6.535 8.35-9.803 12.708-16.338 23.964-30.136 61.724-26.868l3.63.363-53.735-107.472h-3.9939999999999998"/><path d="M728.902 624.466c7.988-8.714 33.767-23.6 56.641-23.6l46.837 93.675c-35.219-1.09-47.564 14.886-59.545 29.772-2.542 3.268-5.083 6.536-7.988 9.44-12.345 13.434-25.779 21.785-35.945 21.785h-.726c-2.179 0-4.72-.726-6.172-2.54-2.905-3.995-3.994-7.626-3.268-11.257 1.452-9.44 13.797-18.154 24.326-25.779 9.803-6.898 17.428-12.344 18.517-18.88.364-2.54-.363-4.72-1.815-6.898zm56.641-32.677c-25.416 0-57.367 16.338-65.718 29.41l-1.452 2.178 34.13 72.253c-.364 2.904-9.078 9.077-14.524 13.071-12.345 8.714-26.142 18.517-28.32 31.951-1.09 6.172.726 11.981 5.083 18.154 2.905 3.631 7.625 6.172 13.071 6.172 12.708.726 29.41-8.35 43.933-24.689 2.904-3.268 5.81-6.899 8.35-10.167 13.071-16.338 22.875-29.046 59.546-26.14l7.987.725-56.64-112.555h-2.542c-.726-.363-1.815-.363-2.904-.363"/><path d="M700.945 721.046c3.631-2.905 6.898-5.81 10.166-8.714 16.34-14.523 30.5-27.231 41.391-19.606.727.726 1.453 1.089 1.816 1.452.726.726.726 1.452.726 2.178-.726 3.994-8.35 9.44-15.612 14.524-11.619 8.35-25.416 18.154-27.232 30.135zm44.296-35.22c-11.256 0-23.237 10.894-37.034 23.238-3.63 3.268-7.262 6.536-11.256 9.803l-1.452 1.09 18.517 33.403 3.631-1.815c-7.625-14.887 9.077-26.868 23.6-37.398 9.077-6.535 16.34-11.981 17.428-17.427.363-1.816-.363-3.631-1.452-5.447-.727-1.09-1.816-1.815-2.542-2.541-2.905-1.816-6.172-2.905-9.44-2.905"/><path d="M704.213 721.408q4.358-3.811 8.714-7.624c15.612-13.797 29.046-26.142 38.486-19.607q1.09.544 1.09 1.09c0 3.267-8.714 9.44-14.16 13.434-9.804 6.898-21.785 15.612-26.505 25.778zm41.028-38.123c-11.982 0-24.326 10.892-38.85 23.6-3.994 3.268-7.624 6.536-11.255 9.803l-2.905 2.542 20.696 37.397 7.988-4.357-1.09-2.178c-6.172-11.982 5.446-21.785 22.874-34.13 9.804-6.898 17.428-12.345 18.518-19.243.363-2.542-.364-5.083-1.816-7.262-.726-1.089-2.178-2.178-2.905-2.904-3.63-1.816-7.26-3.268-11.255-3.268"/><path d="M435.896 668.036c14.16 0 34.13-12.345 53.373-24.326 18.154-11.256 36.671-22.511 49.016-22.511s30.862 11.618 49.016 22.51c19.243 11.982 39.212 24.327 53.372 24.327 19.244 0 35.22-13.797 49.38-25.78 11.981-10.528 22.511-19.605 31.951-16.7l29.046 61.36c-12.345-4.72-26.505 7.988-42.48 22.148-17.065 15.25-36.308 32.314-57.73 32.314-19.607 0-37.76-11.981-46.838-18.88-12.344-9.803-50.468-33.403-65.717-33.403-15.613 0-53.736 23.963-65.718 33.403-7.26 5.809-26.505 18.88-46.837 18.88-21.059 0-40.665-17.064-57.367-32.314-15.976-14.16-30.136-26.868-42.48-22.148l28.683-61.36c9.44-2.905 19.97 6.172 31.951 16.7 14.16 12.346 30.136 25.78 49.38 25.78m102.388-50.831c-13.434 0-31.588 11.255-51.195 23.237-18.517 11.618-38.123 23.6-51.194 23.6-17.79 0-33.04-13.071-46.837-25.052-13.434-11.62-25.053-21.785-37.035-17.065l-.726.363-32.677 69.348 3.631 1.816c.363-.363.726-1.09 1.452-1.453 10.892-7.624 25.053 5.083 41.391 19.607 17.428 15.612 37.398 33.403 60.272 33.403 20.695 0 39.94-12.345 49.38-19.97 11.98-9.802 49.741-32.677 63.175-32.677 13.797 0 50.831 22.51 63.176 32.678 9.44 7.26 28.683 19.969 49.38 19.969 22.873 0 42.842-17.791 60.27-33.403 16.34-14.524 30.5-27.231 41.391-19.607.726.727 1.453 1.09 1.816 1.453l3.631-2.18-32.678-69.347-.726-.363c-11.618-4.357-23.237 5.446-36.67 17.064-13.435 11.619-28.684 25.053-46.839 25.053-13.07 0-32.677-11.982-51.194-23.6-19.606-11.62-37.76-22.874-51.194-22.874"/><path d="M435.896 670.578c14.886 0 35.22-12.345 54.825-24.326 17.791-10.893 36.308-22.511 47.564-22.511 11.618 0 29.772 11.255 47.563 22.148 19.607 11.98 39.94 24.689 54.825 24.689 20.333 0 36.672-14.16 50.832-26.505 11.255-9.803 20.695-17.791 28.683-16.34l26.142 55.553c-12.345-.726-25.053 10.529-39.576 23.6-16.7 14.886-35.582 31.588-55.914 31.588-18.88 0-36.308-11.618-45.385-18.517-10.167-8.351-50.105-34.13-67.17-34.13-16.339 0-54.462 23.964-67.533 34.13-7.262 5.446-25.779 18.517-45.385 18.517-20.333 0-39.213-16.702-55.915-31.588-14.523-13.071-27.594-24.326-39.576-23.6l26.505-55.552c7.988-1.452 17.791 7.262 28.684 16.702 14.16 12.345 30.498 26.142 50.831 26.142m102.39-55.914c-14.16 0-32.679 11.618-52.285 23.6-18.517 11.255-37.76 23.237-50.105 23.237-17.065 0-31.95-13.071-45.022-24.326-14.16-12.345-26.142-22.874-39.576-17.791l-1.452 1.089-34.13 72.616 7.625 4.357 1.452-1.815s.363-.363 1.09-.727c9.077-6.535 22.874 5.447 38.486 19.244 17.791 15.975 38.124 34.129 61.724 34.129 21.422 0 41.028-12.708 50.831-20.332 13.434-10.893 49.38-31.951 61.724-31.951s47.926 21.058 61.724 31.95c9.803 7.625 29.41 20.333 50.831 20.333 23.6 0 43.933-18.154 62.087-34.13 15.612-13.797 29.046-25.779 38.123-19.607q1.09.546 1.09 1.09l1.452 1.816 7.261-4.357-34.129-72.616-1.816-.726c-13.07-5.083-25.415 5.446-39.212 17.79-13.07 11.256-27.958 24.327-45.022 24.327-12.345 0-31.588-11.62-50.106-23.237-19.969-12.345-38.486-23.963-52.646-23.963"/></g><path d="M370.894 349.251h336.213l1.826-88.592H372.72z"/><path d="M710.748 346.71v330.402H372.72V343.078c-18.517 13.434-34.856 28.684-49.742 45.748l-62.087-75.157c69.711-75.158 169.56-121.996 280.298-121.996 111.466 0 211.313 47.564 281.388 123.448l-62.45 75.521c-14.886-17.428-30.862-31.95-49.379-45.748z"/><path fill="#fff" d="M262.344 313.67c71.89-76.974 173.553-120.907 278.846-120.907 106.02 0 208.045 44.66 279.935 122.358l-61.36 73.706c-14.16-16.702-29.773-31.225-48.653-45.022l-1.452-1.09v333.31H373.81V340.9l-1.816 1.09c-18.154 13.07-34.492 28.32-49.016 45.021zM541.19 190.584c-106.02 0-208.408 44.66-281.024 122.358l-.727.726.727.726 62.812 75.884.727-1.089c14.16-16.339 30.135-31.588 47.926-44.296v333.308h340.207V346.71c18.517 13.797 33.403 27.594 47.564 44.296l.726 1.09.726-1.09 63.176-76.247-.726-.726c-72.616-78.425-175.368-123.447-282.114-123.447"/><path fill="#fff" d="M380.708 420.415v204.778h321.69l.363-204.778z"/><path fill="#d10a11" d="M702.76 439.658c-2.904-4.357-9.802-7.625-17.79-7.625s-15.25 3.268-17.791 7.625c-2.905-4.72-9.803-7.625-17.791-7.625s-14.886 3.268-17.791 7.625c-2.904-4.357-9.803-7.625-17.791-7.625s-14.886 3.268-17.791 7.625c-2.904-4.72-9.803-7.625-17.791-7.625s-14.886 3.268-17.791 7.625c-2.904-4.357-9.803-7.625-17.791-7.625s-14.886 3.268-17.791 7.625c-2.904-4.72-9.803-7.625-17.791-7.625s-15.25 3.268-17.791 7.625c-2.904-4.357-9.803-7.625-17.791-7.625s-14.886 3.268-17.79 7.625c-2.905-4.72-9.804-7.625-17.791-7.625-8.351 0-15.25 3.268-17.791 7.625-2.905-4.72-9.804-7.625-17.791-7.625-8.351 0-17.065 3.268-19.607 7.625v.363-90.407c0-9.077 7.625-17.065 15.613-19.969l147.047-57.004 147.048 57.004c7.988 2.904 12.334 10.892 12.334 19.97v90.406h.01"/><path fill="#009ee2" d="M702.76 449.098c-2.904-4.357-9.802-7.625-17.79-7.625s-15.25 3.268-17.791 7.625c-2.905-4.357-9.803-7.625-17.791-7.625s-14.886 3.268-17.791 7.625c-2.904-4.357-9.803-7.625-17.791-7.625s-14.886 3.268-17.791 7.625c-2.904-4.357-9.803-7.625-17.791-7.625s-14.886 3.268-17.791 7.625c-2.904-4.357-9.803-7.625-17.791-7.625s-14.886 3.268-17.791 7.625c-2.904-4.357-9.803-7.625-17.791-7.625s-15.25 3.268-17.791 7.625c-2.904-4.357-9.803-7.625-17.791-7.625s-14.886 3.268-17.79 7.625c-2.905-4.357-9.804-7.625-17.791-7.625-8.351 0-15.25 3.268-17.791 7.625-2.905-4.357-9.804-7.625-17.791-7.625-8.351 0-17.065 3.268-19.607 7.625v11.255c2.905-4.356 11.619-7.624 19.607-7.624s14.886 3.268 17.79 7.624c2.905-4.72 9.804-7.624 17.792-7.624 7.987 0 14.886 3.268 17.79 7.624 2.905-4.356 9.804-7.624 17.79-7.624 7.989 0 15.25 3.268 17.792 7.624 2.905-4.72 9.804-7.624 17.79-7.624 7.989 0 14.888 3.268 17.792 7.624 2.905-4.356 9.804-7.624 17.79-7.624 7.989 0 14.888 3.268 17.792 7.624 2.905-4.72 9.803-7.624 17.79-7.624s14.888 3.268 17.792 7.624c2.905-4.356 9.803-7.624 17.79-7.624s14.888 3.268 17.792 7.624c2.905-4.72 9.803-7.624 17.79-7.624s14.887 3.268 17.792 7.624c2.905-4.356 9.803-7.624 17.79-7.624s14.887 3.268 17.792 7.624zM702.76 469.43c-2.904-4.356-9.802-7.624-17.79-7.624s-15.25 3.268-17.791 7.625c-2.905-4.357-9.803-7.625-17.791-7.625s-14.886 3.268-17.791 7.625c-2.904-4.357-9.803-7.625-17.791-7.625s-14.886 3.268-17.791 7.625c-2.904-4.357-9.803-7.625-17.791-7.625s-14.886 3.268-17.791 7.625c-2.904-4.357-9.803-7.625-17.791-7.625s-14.886 3.268-17.791 7.625c-2.904-4.357-9.803-7.625-17.791-7.625s-15.25 3.268-17.791 7.625c-2.904-4.357-9.803-7.625-17.791-7.625s-14.886 3.268-17.79 7.625c-2.905-4.357-9.804-7.625-17.791-7.625-8.351 0-15.25 3.268-17.791 7.625-2.905-4.72-9.804-7.625-17.791-7.625-8.351 0-17.065 3.268-19.607 7.625v11.255c2.905-4.356 11.619-7.624 19.607-7.624s14.886 3.268 17.79 7.624c2.905-4.72 9.804-7.624 17.792-7.624 7.987 0 14.886 3.268 17.79 7.624 2.905-4.356 9.804-7.624 17.79-7.624 7.989 0 15.25 3.268 17.792 7.624 2.905-4.72 9.804-7.624 17.79-7.624 7.989 0 14.888 3.268 17.792 7.624 2.905-4.356 9.804-7.624 17.79-7.624 7.989 0 14.888 3.268 17.792 7.624 2.905-4.72 9.803-7.624 17.79-7.624s14.888 3.268 17.792 7.624c2.905-4.356 9.803-7.624 17.79-7.624s14.888 3.268 17.792 7.624c2.905-4.72 9.803-7.624 17.79-7.624s14.887 3.268 17.792 7.624c2.905-4.356 9.803-7.624 17.79-7.624s14.887 3.268 17.792 7.624z"/><path d="M565.153 336.543s15.612-24.69 7.625-17.79c-6.173 5.082-14.524 17.064-20.333 27.23l-32.314-12.708s-18.517-22.51-14.523-12.708c2.904 7.262 11.981 18.881 19.606 27.958l-22.148 26.868s-27.231 10.53-16.338 9.803c6.898-.726 21.784-5.81 32.314-10.166l18.517 29.41s1.815 29.41 4.357 18.88c1.815-7.262 1.089-22.875.363-34.493l33.766-8.35s28.321 7.26 19.244 1.814c-6.536-3.994-20.696-8.35-31.951-10.892z"/><path d="m552.808 346.71.363-.364c2.905-4.72 12.708-20.696 20.333-26.868.726-.726 1.09-.726 1.452-1.089-.363 2.178-5.083 10.53-9.803 17.791l-2.179 35.218h.363c11.256 2.542 25.416 6.9 31.588 10.893.727.363 1.09.726 1.453 1.09-1.816.362-11.619-1.453-19.97-3.995l-34.492 8.351v.363c.726 7.625 1.815 26.142-.364 34.13-.363.726-.363 1.452-.363 1.452-1.089-1.815-2.178-11.255-2.54-20.332l-18.88-29.773-.364.363c-5.447 2.18-23.964 9.44-32.315 10.166h-1.815c1.452-1.452 10.166-5.446 18.517-8.714h.363l22.511-27.23-.363-.364c-5.809-6.898-16.339-19.969-19.606-27.594-.363-.726-.363-1.452-.363-1.452 1.815 1.09 8.351 7.988 13.797 14.886l.363.363zm22.148-29.774c-.726 0-1.452.726-2.542 1.453-7.26 6.172-17.064 21.421-20.332 26.868l-31.588-12.345c-9.077-10.893-14.16-15.976-15.613-15.25-.726.364-.363 1.816 0 3.268 3.268 7.988 13.434 20.333 19.607 27.594l-21.785 26.142c-13.07 5.083-19.606 8.351-19.243 10.166.363.727 1.452 1.09 3.267.727 8.351-.727 26.142-7.625 32.315-10.167l18.154 28.684c.726 14.16 2.178 21.421 3.63 21.421.727 0 1.453-1.089 1.816-2.904 2.178-8.35 1.09-26.142.363-34.13l33.04-7.988c13.797 3.631 20.696 4.72 21.422 3.268.363-.726-.726-1.452-2.179-2.54-7.987-5.085-25.415-9.442-31.588-10.894l1.816-34.129c7.625-11.982 10.892-18.518 9.44-19.607.363.363 0 .363 0 .363"/><path fill="#fff" d="M539.374 343.079c.363-.363.726-.726 1.09-.726s.725.363 1.09.726c.362.726.725 2.905.725 6.898 0 0 .363 13.798 10.53-1.09 29.045-41.753-12.346-41.753-12.346-41.753h.363s-41.028.363-12.344 41.754c10.166 14.887 10.53 1.089 10.53 1.089-.364-3.993 0-6.172.362-6.898"/><path d="M535.744 355.06c-1.09 0-3.268-1.089-6.9-6.535-9.44-13.434-12.344-23.964-8.713-31.225 4.72-9.077 18.518-9.804 20.333-9.804s15.613.727 20.333 9.804c3.63 7.261.726 17.79-8.714 31.225-4.357 6.172-6.536 6.898-7.262 6.535-1.452-.363-1.815-3.994-1.815-5.083 0-3.268 0-5.809-.727-7.262-.363-.363-.726-1.089-1.452-1.089s-1.09.363-1.452 1.09c-.726 1.09-.726 3.267-.726 7.261 0 1.09-.363 4.72-1.816 5.083zm4.72-48.653h-.363c-2.542 0-16.34 1.09-21.06 10.53q-5.99 11.437 8.714 32.677c3.632 5.446 6.537 7.624 8.715 6.898 2.542-.726 2.905-5.809 2.905-6.535 0-3.63 0-5.809.726-6.536 0-.363.363-.363.363-.363l.363.363c.363.363.726 2.18.363 6.536 0 .726 0 5.446 2.905 6.535 2.178.726 5.083-1.452 8.714-6.898q14.705-21.24 8.714-32.677c-4.72-9.44-18.517-10.53-21.06-10.53"/><path fill="#fff" d="M518.316 359.78c-.363-.363-.363-.726-.363-1.089s.363-.726 1.089-.726c1.089 0 2.905 0 6.899 1.452 0 0 13.07 3.994 2.178-10.166-30.862-40.302-43.57-1.453-43.57-1.453v-.363s-12.344 39.213 36.309 24.69c17.427-5.083 3.993-9.803 3.993-9.803-3.993-1.09-5.81-1.816-6.535-2.542"/><path d="M484.912 348.162s5.083-14.523 15.612-16.34c7.988-1.451 17.065 4.72 27.232 17.792 4.72 6.173 4.357 8.35 3.993 9.077-1.089 1.453-4.357.726-5.446.363-3.268-1.09-5.446-1.815-6.898-1.452-.726 0-1.453.363-1.453 1.089-.363.363 0 1.09.726 1.816.727 1.089 2.905 1.815 6.536 2.904 1.09.364 4.357 1.816 4.357 3.63 0 1.09-1.089 2.906-8.35 5.084-15.977 4.72-26.869 4.357-32.315-1.452-7.988-7.625-4.72-20.696-3.994-22.511m17.791-17.791c-.726 0-1.452 0-2.542.363-10.529 1.816-15.612 14.886-16.338 17.065-.363.726-4.72 15.612 3.267 23.6 6.173 6.173 17.428 6.536 33.767 1.816 6.172-1.816 9.44-3.994 9.44-6.173 0-2.904-4.72-4.357-5.083-4.72-3.268-1.09-5.446-1.815-6.172-2.541l-.363-.363c0-.364.363-.364.363-.364.726 0 2.541 0 6.535 1.453.726 0 5.446 1.452 6.9-.726 1.451-1.816 0-5.447-3.995-10.53-9.44-12.708-18.154-18.88-25.779-18.88"/><path fill="#fff" d="M527.393 385.196q-.544.545-1.09 0c-.545-.545-.362-.726-.362-1.089.363-1.089 1.089-2.905 3.63-5.81 0 0 7.988-11.255-9.077-5.446-47.926 16.702-14.886 41.028-14.886 41.028h-.363s33.403 23.964 34.493-26.868c.363-18.154-7.988-6.898-7.988-6.898-1.815 3.268-3.268 4.72-4.357 5.083"/><path d="M505.97 413.516s-12.344-9.44-10.891-19.969c1.089-7.988 9.803-14.887 25.415-20.333 7.262-2.542 9.44-1.815 9.803-1.089 1.09 1.452-.726 4.357-1.452 5.446-2.178 2.542-3.268 4.72-3.631 6.172 0 .726 0 1.453.726 1.816.363.363 1.09.363 1.816 0 1.089-.726 2.904-2.542 4.72-5.446.726-1.09 3.268-3.63 4.72-2.905.726.363 2.178 1.815 2.178 9.803-.363 16.702-4.357 26.868-11.618 30.5-8.714 4.356-19.97-2.906-21.785-3.995m22.148-43.207c-1.815 0-4.357.727-7.988 1.816-15.975 5.446-25.052 12.708-26.142 21.06-1.452 10.528 9.44 19.605 10.893 20.694.363.363 13.07 9.44 23.237 4.357q11.438-5.99 11.982-31.588c0-6.535-.727-10.166-2.905-10.892-2.542-1.09-5.81 2.904-6.172 3.63-2.542 3.631-3.631 4.72-4.357 5.084h-.363v-.364c.363-.726 1.089-2.54 3.63-5.809.363-.363 3.268-4.72 1.453-6.898-.363-.363-1.453-1.09-3.268-1.09"/><path fill="#fff" d="M554.624 384.107c0 .363 0 1.089-.363 1.089h-1.09c-.725-.363-2.178-1.815-4.72-5.083 0 0-8.35-10.892-7.987 6.899 1.089 50.83 34.493 26.868 34.493 26.868h-.364s33.04-24.327-14.886-41.03c-17.065-5.808-9.077 5.448-9.077 5.448 2.905 3.267 3.994 5.083 3.994 5.809"/><path d="M555.35 384.107c-.363-1.09-1.452-3.268-3.631-6.172-.726-1.09-2.541-3.994-1.452-5.447.363-.726 2.54-1.452 9.803 1.09 15.613 5.446 24.326 12.344 25.416 20.332 1.452 10.167-9.803 18.88-10.53 19.607-1.452 1.089-13.071 8.35-22.148 3.993-7.261-3.63-10.892-13.797-11.255-30.498 0-7.625 1.452-9.44 2.178-9.44 1.453-.363 3.994 2.178 4.72 2.904 2.179 2.905 3.63 4.72 4.72 5.446.727.364 1.453.364 1.816 0 .363-.363.363-1.09.363-1.815m-2.905-13.434q-2.178 0-3.267 1.089c-1.816 2.179 1.089 6.173 1.452 6.899 2.54 3.63 3.268 5.083 3.63 5.809v.363h-.725c-.727-.363-1.816-1.452-4.357-5.083-.363-.363-3.268-4.357-6.173-3.631-2.178.726-3.267 4.357-2.904 10.893q.545 25.597 11.98 31.588c9.44 4.72 21.423-2.905 23.238-3.994 1.816-1.452 12.708-10.166 10.893-20.696-1.09-8.351-10.166-15.612-26.142-21.058-2.905-1.816-5.81-2.18-7.625-2.18"/><path fill="#fff" d="M562.248 357.965c.363 0 .726.363 1.09.726 0 .363 0 .726-.364 1.089-.726.727-2.54 1.816-6.535 2.905 0 0-13.07 4.357 3.994 9.803 48.652 14.523 36.308-24.69 36.308-24.69v.364s-13.07-38.85-43.57 1.452c-10.892 14.16 2.178 10.166 2.178 10.166 3.994-1.452 5.81-1.815 6.9-1.815"/><path d="M551.72 359.417c-1.09 0-1.816-.363-2.179-.726-.364-.726-.727-2.905 3.993-9.077 10.167-13.07 19.244-19.243 27.231-17.79 10.53 1.814 15.25 16.338 15.613 16.338.726 2.178 3.994 14.886-2.905 22.147-5.809 5.81-16.7 6.173-32.314 1.453-7.262-2.179-8.35-3.994-8.35-5.083 0-1.453 3.267-3.268 4.356-3.63 3.268-1.09 5.446-1.817 6.536-2.906.726-.726.726-1.452.726-1.815s-.363-.726-1.089-.726h-.727c-1.089 0-2.904 0-6.898 1.452-1.089 0-2.542.363-3.994.363m26.868-29.046c-7.988 0-16.339 6.172-25.779 18.517-3.994 5.083-5.446 8.714-3.994 10.53 1.453 2.178 6.536 1.088 6.9.725 3.267-1.089 5.082-1.452 6.171-1.452h.363c.363 0 .363 0 .363.363 0 0 0 .363-.363.363-.726.726-2.178 1.452-6.172 2.542-.726.363-5.446 1.815-5.083 4.72 0 2.178 3.268 4.357 9.44 6.172 16.34 5.083 27.594 4.357 33.766-1.815 7.988-7.988 3.268-22.874 3.268-23.6-.726-2.179-5.809-15.25-16.338-17.065zM512.143 404.802s-3.268-2.178-5.809-2.905-3.994-2.904-4.357-3.267c0 0-1.453-3.63-2.542-2.179s1.09 3.994 1.09 3.994c.363.363 1.452 2.542 3.993 3.268s5.81 2.904 5.81 2.904 2.904 2.542 4.72 4.72c1.815 2.18 3.994 2.905 4.357 2.905 0 0 3.267 1.09 4.357-.363 1.09-1.452-2.905-1.815-2.905-1.815-.726-.363-2.905-.727-4.357-2.905-1.089-2.179-4.357-4.357-4.357-4.357M568.42 404.802s-2.904 2.178-4.356 4.72c-1.452 2.18-3.994 2.905-4.357 2.905 0 0-3.994.363-2.905 1.815s4.357.363 4.357.363c.726 0 2.905-.726 4.357-2.904s4.72-4.72 4.72-4.72 3.268-2.179 5.81-2.905c2.54-.726 3.63-2.905 3.994-3.268 0 0 2.178-2.904 1.089-3.994-1.09-1.452-2.542 2.18-2.542 2.18-.363.362-1.452 2.54-4.357 3.266-2.541.364-5.81 2.542-5.81 2.542"/><path d="M585.849 351.43s1.452 3.63 2.905 5.808c1.815 2.18 1.452 4.357 1.452 5.083 0 0-.726 3.631.726 3.268 1.452-.726 1.452-3.994 1.452-3.994 0-.726.364-2.904-1.452-5.083-1.815-2.178-2.905-5.809-2.905-5.809s-1.09-3.63-1.09-6.536c0-2.904-1.451-4.357-1.814-5.083 0 0-1.816-2.904-3.631-2.178s1.089 2.904 1.089 2.904c.363.363 1.816 2.18 1.816 5.084.726 2.541 1.452 6.535 1.452 6.535M540.464 318.39s3.994 0 6.535-1.09c2.542-.726 4.72 0 5.447.363 0 0 3.267 1.815 3.267.363 0-1.815-3.267-2.542-3.267-2.542-.727-.363-2.542-1.089-5.447-.363-2.541.726-6.535 1.09-6.535 1.09s-3.994-.364-6.535-1.09c-2.542-1.089-4.721 0-5.447.363 0 0-3.267 1.09-3.267 2.542 0 1.815 3.267-.363 3.267-.363.726-.363 2.542-1.089 5.447-.363 2.54.726 6.535 1.09 6.535 1.09M495.078 351.43s1.09-3.632 1.09-6.536c0-2.905 1.452-4.357 1.815-5.084 0 0 2.904-2.54 1.09-2.904s-3.632 2.178-3.632 2.178c-.363.363-1.815 2.18-1.815 5.083 0 2.542-1.09 6.536-1.09 6.536s-1.452 3.631-2.904 5.81c-1.453 2.178-1.453 4.72-1.453 5.082 0 0 0 3.268 1.453 3.994 1.452.726.726-3.268.726-3.268 0-.726-.363-2.904 1.452-5.083 1.816-2.54 3.268-5.809 3.268-5.809"/><path fill="#fcc200" d="M540.1 375.393c-5.083 0-9.077-3.994-9.077-9.44 0-5.083 3.994-9.44 9.077-9.44s9.44 3.994 9.44 9.44-3.993 9.44-9.44 9.44"/><path fill="#ffcb00" d="M540.1 375.03c-5.083 0-9.077-3.994-9.077-9.077s3.994-9.077 9.077-9.077 9.077 3.994 9.077 9.077-3.994 9.077-9.077 9.077m0-18.517c-5.446 0-9.44 4.357-9.44 9.44s4.357 9.44 9.44 9.44c5.446 0 9.44-4.357 9.44-9.44.364-5.083-3.993-9.44-9.44-9.44"/><path d="m557.891 543.5 1.09-25.054 21.058 13.798 6.535-10.893-25.052-14.523v-5.083s29.046-16.339-6.536-15.613v-.363c-12.344-10.166-23.963 0-23.963 0-35.219-.726-6.535 15.613-6.535 15.613v5.083L502.34 523.53l5.083 11.255 19.606-17.065 1.09 25.053z"/><path fill="#13a438" d="M584.033 522.078c20.333-23.6 35.582 1.089 35.582 1.089 25.78 6.173 10.53 24.69 10.53 24.69 26.867 17.79-4.72 31.588-4.72 31.588-.364 23.6-20.333 21.785-20.333 21.785-21.059 18.154-41.028-2.18-41.028-2.18-31.225 26.143-55.189-3.993-55.189-3.993s-19.969 13.797-29.046-7.988c0 0-31.95.727-19.97-31.224 0 0-24.689-24.69 7.625-37.036 0 0 17.065-31.588 40.665-1.452 0 0 14.523-.726 12.345 19.606 0 0 18.517-7.624 35.582.726 0 0 5.446-12.344 17.428-5.446 0 0-1.816-7.987 9.803-9.803z"/><path d="M479.829 584.89c-1.452 0-12.345-.363-17.428-7.262q-4.902-7.08 0-20.695l.726-1.453-1.089-1.089s-10.166-10.166-7.988-19.606c1.089-5.446 6.173-9.803 14.523-13.07l.727-.364.363-.726s6.898-12.345 17.064-13.07q9.259-.546 19.607 11.981l.726 1.09h1.452s3.994 0 6.536 2.903c2.541 2.905 3.631 7.625 2.904 13.798l-.363 4.356 3.994-1.815s17.428-6.898 33.767.726l2.178 1.09 1.089-2.542s2.179-4.357 6.173-5.809c2.178-.727 5.083-.363 7.988 1.452l5.083 2.905-1.453-5.81s-.363-1.815.727-3.267c1.089-1.453 3.63-2.542 6.898-3.268h.726l1.453-1.452c5.809-6.536 11.618-9.44 17.064-9.078 8.714.727 14.524 10.167 14.524 10.167l.363.726 1.089.363c7.262 1.815 11.619 4.72 12.708 8.351 1.815 5.81-3.631 12.345-3.631 12.345l-1.815 2.178 2.541 1.452q10.348 6.536 9.803 13.071c-.726 6.9-10.166 12.345-14.16 14.16l-1.452.727v1.815q0 10.349-5.446 15.25c-5.084 4.72-11.982 3.993-11.982 3.993h-1.089l-.726.726c-18.881 16.34-36.672-1.089-37.398-1.815l-1.815-1.815-1.816 1.452q-13.615 11.437-27.231 9.803c-14.523-1.452-24.326-13.434-24.326-13.434l-1.452-1.815-1.816 1.452s-8.351 5.446-15.612 3.268c-3.994-1.089-7.262-4.72-9.44-10.166l-.727-1.453zm7.988-82.782h-1.453c-11.255 1.09-18.517 11.981-20.332 14.886-9.803 3.994-15.613 9.44-17.065 16.34-2.178 10.165 5.446 19.968 8.351 23.236q-4.902 15.25 1.089 23.963c5.446 7.625 15.976 9.077 19.97 9.077 2.904 6.172 6.898 10.166 12.344 11.62 7.262 2.177 14.524-1.09 18.154-2.906 3.631 3.631 13.071 12.345 26.142 13.797 9.803 1.09 19.97-2.178 29.41-9.803 5.446 4.72 23.237 16.702 41.754 1.452 2.542 0 9.44-.363 14.523-5.446 4.357-3.994 6.899-9.803 7.262-17.428 3.994-2.178 14.886-8.35 15.612-17.428q.545-8.714-9.803-16.338c1.816-3.268 4.72-9.077 2.905-14.887-1.815-5.446-6.899-9.077-15.249-11.255-1.816-2.905-8.351-10.893-17.791-11.619-7.262-.726-14.161 2.905-21.059 10.893l-.363.363c-4.357.726-7.625 2.541-9.44 5.083-.726 1.09-1.09 2.178-1.453 2.905-2.904-1.09-5.809-1.09-8.35-.364-3.994 1.09-6.536 4.357-7.988 6.173-12.708-5.446-25.779-2.905-31.951-1.089q0-9.26-4.357-14.16c-3.268-3.268-7.262-3.994-9.077-4.358-7.262-8.35-14.524-12.707-21.785-12.707"/><g fill="#fcc200"><path d="m309.544 319.841 1.452-1.452c-5.083-9.44-5.809-16.339-2.178-19.244 2.541-2.178 6.172-1.452 9.44 2.18 1.452 1.451 2.178 3.267 2.178 4.72 0 1.814-1.452 4.356-3.267 7.624-3.268 6.535-2.905 11.618 2.541 18.154s13.071 8.714 17.791 4.72q3.269-2.724 3.268-7.625l3.631 1.09 1.09-1.09-11.256-13.797-1.453 1.452c4.357 9.077 5.446 14.524 2.18 17.428-2.543 2.18-5.81 1.452-8.715-1.815-3.63-4.357-1.453-6.536 1.09-11.982 1.451-2.905 2.541-5.083 2.177-8.714-.726-2.904-2.54-6.535-5.446-10.166-6.172-6.899-13.07-9.077-18.154-4.72-2.54 2.178-3.63 4.72-3.268 8.714l-4.356-1.453-1.453 1.09zM338.228 276.635c3.994-2.905 9.803 1.815 18.154 13.434 8.35 11.982 10.529 18.88 6.535 21.785-3.993 2.54-9.803-1.816-18.154-13.797-8.35-11.62-10.53-18.517-6.535-21.422m13.434 38.487c5.083 2.54 9.44 2.178 13.07-.364 3.995-2.541 5.447-6.535 4.72-12.344-.362-5.083-2.904-11.256-6.898-17.065s-7.987-9.803-13.071-11.982c-5.446-2.541-10.166-2.541-13.797 0-3.63 2.542-5.083 6.536-4.72 12.708.363 5.809 2.542 10.892 6.899 16.702 4.357 6.172 9.077 10.166 13.797 12.345M393.053 292.247l-1.815 1.09c-1.453.725-2.18.362-3.268-2.179l-11.62-21.422c-3.993-7.625-4.356-12.345 0-14.523a5.58 5.58 0 0 1 5.81 0c2.905 1.452 5.084 5.083 7.625 10.166l8.35 15.613c2.543 4.356 2.906 6.898 0 8.713h-.362l1.452 3.268 9.804-5.083-1.816-2.905c-2.905 1.09-4.72-.363-6.898-4.72l-8.351-15.975c-2.542-4.72-4.357-7.988-7.262-10.53-4.357-3.63-8.351-3.993-13.071-1.452-6.898 3.631-7.988 10.53-2.904 19.607l12.344 23.237c1.09 2.541 1.453 3.267 0 3.994l-1.815 1.09 1.452 3.267 13.434-7.262zM430.45 275.546c-1.452.363-2.178 0-2.905-2.542l-12.707-32.314c-1.09-2.541-1.09-3.267.726-3.994l1.815-.726-1.452-3.267-14.16 5.446 1.452 3.267 1.815-.726c1.453-.726 2.179 0 3.268 2.542l12.708 31.95c1.089 2.543 1.089 3.269-.363 3.632-2.905 1.089-7.262-2.905-11.619-11.62l-1.815.727 7.261 16.702 24.327-9.803-6.173-17.065-1.815.726c2.905 9.803 2.542 15.976-.363 17.065M451.509 225.44c1.452-.363 2.178.363 2.905 2.905l3.994 15.25-10.167 2.904-3.994-15.25c-.726-2.54-.726-3.267 1.09-3.994l1.815-.726-1.09-3.267-14.522 3.993 1.089 3.268 1.815-.363c1.816-.363 2.179.363 2.905 2.905l8.714 33.04c.726 2.542.726 3.631-1.09 3.994l-1.815.363 1.089 3.268 14.524-3.994-.727-3.268-1.815.363c-1.815.363-2.178-.363-2.905-2.904l-3.63-13.797 10.166-2.905 3.63 13.797c.727 2.542.727 3.631-1.09 3.994l-1.814.363.726 3.268 14.523-3.994-.726-3.268-2.178.726c-1.453.363-2.18-.363-2.905-2.904l-8.714-33.04c-.726-2.542-.726-3.269 1.089-3.995l1.816-.726-.726-3.268-14.887 3.994 1.09 3.268zM484.55 233.791l7.987-1.089-1.453 16.701zm5.808-16.339h2.18c.725 0 1.088.363 1.451 1.453v1.815l-.726 7.625-10.166 1.452-1.453-3.268c-.363-1.089-.726-2.54-1.089-3.267-.363-2.905.726-3.994 3.631-4.72l-.363-3.268-11.256 1.815.363 3.268c2.542.363 4.357 2.905 6.536 7.988l14.523 34.856 2.905-.364 4.72-43.569c.363-2.179.726-2.905 2.178-3.268l-.363-3.63-13.434 1.815zM519.768 222.899c-.363-6.172.726-8.351 4.357-8.714v-3.631l-11.62.363v3.63c3.632 0 4.358 2.543 4.358 8.352l.726 29.047c0 2.54-.363 3.63-1.815 3.63h-2.178v3.63l13.07-.362 5.447-29.046 6.535 28.683 12.708-.363v-3.631h-2.18c-1.814 0-2.177-.726-2.177-3.631l-.726-34.13c0-2.541.363-3.63 1.815-3.63h2.179v-3.631l-14.887.363v3.63h1.816c1.815 0 2.178.727 2.178 3.269l1.09 35.945-9.804-42.844h-1.815l-8.351 43.933zM570.236 236.333h1.815c5.447.363 7.262 2.905 6.536 10.892-.726 7.625-2.905 10.167-7.625 9.44-2.54-.363-2.904-.726-2.54-4.356zm3.994-20.696 2.541.364.363-3.631-15.612-1.453-.363 3.63 2.178.364c1.816.363 1.816 1.09 1.816 3.63l-3.268 33.768c-.363 2.54-.726 3.63-2.178 3.267l-2.179-.363-.363 3.63 17.428 1.816c7.262.727 11.62-3.63 12.345-12.707 1.09-9.441-2.905-14.161-11.982-15.25-1.089 0-2.542-.363-3.994-.363l1.452-13.797c-.363-2.541 0-2.905 1.816-2.905M609.812 263.2c-1.452-.362-1.452-1.088-1.089-3.63l6.898-34.13c.726-2.541 1.09-3.267 2.542-2.904l1.815.363.726-3.631-14.886-2.904-.726 3.267 1.815.363c1.816.364 1.816 1.09 1.453 3.994l-6.899 33.767c-.363 2.54-1.089 3.268-2.541 2.905-3.268-.727-4.357-6.536-3.268-15.976l-1.816-.363-2.904 17.79 25.778 5.447 4.357-17.791-1.815-.363c-2.905 9.44-6.535 14.523-9.44 13.797M651.203 230.524c4.72 1.452 4.72 9.077 0 22.51-4.357 13.798-8.714 19.97-13.434 18.155-4.357-1.452-4.357-9.077 0-22.511s8.714-19.606 13.434-18.154m-22.874 34.13c1.09 5.446 3.994 9.077 8.351 10.166 4.357 1.452 8.714.363 13.071-3.631 3.994-3.631 6.898-9.077 9.44-15.612 2.178-6.9 2.904-12.345 1.815-17.791-1.089-5.81-3.994-9.44-8.35-10.893-4.358-1.452-8.352-.363-12.709 3.994-4.356 3.63-6.898 8.714-9.077 15.249-2.904 6.899-3.267 13.434-2.54 18.518M675.53 239.964c2.905 1.815 2.542 4.357.363 9.44l-12.345 26.142-1.09.726c-1.089 1.089-2.178 1.452-3.63.726l-.363-.363-1.453 3.268 9.077 4.357 26.505-20.696-7.625 16.339c-2.54 5.809-4.357 7.26-7.988 5.809l-1.452 3.268 10.53 5.083 1.452-3.268c-2.905-1.815-2.905-3.994 0-9.44l15.612-33.403-2.178-1.09-32.678 25.779 10.167-22.148c2.541-5.446 4.357-7.261 7.987-5.81l1.453-3.267-10.53-4.72zM735.801 305.318l-1.452-1.089c-6.899 7.624-11.256 9.077-16.339 5.446-1.815-1.452-2.178-1.815-.363-4.72l7.988-11.619.363.363c2.904 2.18 2.541 5.084-.726 10.893l1.452 1.09 12.345-18.155-1.816-1.089c-4.357 5.083-6.898 6.535-9.803 4.357l-.363-.363 9.077-13.07c1.452-2.18 2.179-2.543 3.631-1.817l2.541 1.453 1.816-2.905-13.071-9.077-1.816 2.905 1.816 1.09c1.452 1.088 1.089 1.814-.363 3.993l-19.244 28.32c-1.452 2.18-2.178 2.905-3.63 1.816l-1.816-1.09-1.815 2.905 21.422 14.886zM774.288 295.515q-3.813-3.268-9.803-2.178c-5.81 1.089-11.982 5.446-17.791 11.981-4.357 5.083-7.262 10.529-8.351 15.613-1.452 5.809 0 10.166 3.268 13.071 2.178 1.815 4.72 2.541 7.987 2.178l-.726 3.994 1.453 1.089 13.07-14.16-1.453-1.452c-8.35 7.261-14.523 9.44-17.79 6.535-3.995-3.631-1.453-10.166 8.35-21.058 9.44-11.256 15.25-14.887 19.97-10.893 3.267 2.905 2.541 8.714-2.179 16.702l2.542.363c6.172-9.803 6.898-17.428 1.452-21.785"/></g><path fill="#fff" d="m260.891 700.35 7.625-15.612-21.422-6.173 6.535-13.434 21.422 5.81 6.536-13.435-21.422-5.809 6.535-13.07 21.422 5.81 6.9-13.435-21.786-5.81 6.898-13.434 21.422 5.81 9.44-18.517c3.994 1.09 7.988 2.541 11.982 3.993l-49.742 100.937c-3.63-1.816-7.625-2.905-12.345-3.63M319.71 694.904c-1.452 7.262 14.523 15.612 27.594 26.142l-17.065 34.493c-6.898-3.631-14.16-9.441-21.784-17.791-2.179-2.18-3.63-4.357-5.447-6.536z"/><path fill="#d10a11" d="M358.197 755.901c-4.357 5.81-14.886 6.535-27.957-.726l17.065-34.493c11.981 9.803 21.058 21.422 10.892 35.22M273.236 703.98l50.105-100.21c14.16 5.81 25.78 14.16 29.41 20.333l-21.422 46.112-10.892 22.874c-.727.726-.727 1.452-1.09 2.178l-16.7 35.945c-8.352-10.892-15.614-21.422-29.41-27.231M260.891 700.35c-6.899-1.089-14.523-1.452-24.326-.726l10.53-21.059 21.421 5.81zM275.052 671.304l-21.423-5.81 6.9-13.433 21.421 5.809zM288.486 644.799l-21.422-5.81 6.535-13.433 21.785 5.809zM280.498 612.122l7.988-15.976c7.624-.363 15.612.727 23.237 2.905l-9.44 18.516z"/><path fill="#fff" d="m346.942 720.683 9.44-18.88c6.899 5.809 14.16 12.345 21.785 18.88l-17.791 31.95c6.535-12.707-2.18-23.236-13.434-31.95"/><path fill="#d10a11" d="M320.8 692.725q.545-1.089 2.178-2.178c9.44-6.899 20.696 0 33.767 10.892l-9.44 18.88c-14.523-11.255-32.314-20.332-26.505-27.594"/><path d="M289.575 598.324h1.452c24.327 0 52.284 15.976 59.546 25.78l-31.588 67.532c-1.09 1.452-1.453 3.267-1.453 5.083.726 5.446 7.988 10.892 17.428 17.428 11.256 7.988 23.963 17.065 25.416 27.594.726 4.357-.726 8.714-3.994 13.071-1.452 2.178-4.357 3.631-7.988 3.631-8.714.363-23.237-5.447-38.486-22.51-2.905-3.269-5.447-6.537-7.988-9.805-12.708-15.975-24.327-30.86-61.724-28.683zm1.452-3.994h-3.994l-53.736 107.472 3.63-.363c37.762-3.268 49.017 10.892 61.725 26.868 2.542 3.268 5.446 6.535 8.35 9.803 13.798 15.613 29.774 24.327 41.755 23.963 4.72-.363 8.714-2.178 11.256-5.446 3.994-5.446 5.446-10.529 4.72-15.975-1.816-12.345-15.25-21.785-27.231-30.136-7.262-5.446-15.25-10.892-15.613-14.523 0-.726 0-1.453.726-2.179l.363-.363 32.678-69.71-.726-1.09c-7.625-11.619-38.487-28.32-63.903-28.32"/><path d="M364.37 741.015c-1.816-11.982-15.613-21.785-27.232-30.136-7.262-5.446-15.249-10.892-15.613-14.523 0-.726 0-1.452.727-2.178.363-.727.726-1.09 1.815-1.453 10.892-7.624 25.053 5.083 41.391 19.607 3.268 2.904 6.536 5.81 10.166 9.077zm-33.04-55.188c-3.269 0-6.537 1.09-9.44 3.267-1.09.727-2.18 1.453-2.543 2.542-1.089 1.452-1.815 3.268-1.452 5.083.726 5.446 7.987 10.893 17.428 17.428 14.886 10.53 31.224 22.511 23.6 37.397l3.631 1.816 18.517-33.404-1.453-1.089c-3.994-3.268-7.624-6.535-11.255-9.803-13.797-12.345-26.142-23.237-37.034-23.237"/><path fill="#fff" d="m815.679 700.35-7.625-15.612 21.422-5.81-6.535-13.434-21.422 5.81-6.536-13.434 21.422-5.81-6.535-13.07-21.422 5.81-6.9-13.435 21.423-5.81-6.535-13.434-21.422 5.81-9.44-18.517c-3.994 1.09-7.988 2.541-11.982 3.993l49.742 100.574c3.63-1.816 7.625-2.905 12.345-3.63M756.86 694.904c1.452 7.262-14.523 15.612-27.594 26.142l17.065 34.493c6.898-3.631 14.16-9.441 21.784-17.791l5.447-6.536z"/><path fill="#d10a11" d="M718.373 755.901c4.357 5.81 14.886 6.535 27.957-.726l-17.065-34.493c-11.98 9.803-21.058 21.422-10.892 35.22M803.334 703.98l-50.105-100.21c-14.16 5.81-25.779 14.16-29.41 20.333l21.422 46.112 10.892 22.874c.727.726.727 1.452 1.09 2.178l17.064 35.945c7.988-10.892 15.25-21.422 29.047-27.231M815.679 700.35c6.535-1.089 14.523-1.452 24.326-.726l-10.53-21.059-21.421 5.81zM801.519 671.304l21.422-5.81-6.9-13.433-21.42 5.809zM788.085 644.799l21.422-5.81-6.536-13.433-21.784 5.809zM796.072 612.122l-7.988-15.976c-7.624-.363-15.612.727-23.237 2.905l9.44 18.516z"/><path fill="#fff" d="m729.629 720.683-9.44-18.88c-6.9 5.809-14.16 12.345-21.785 18.88l17.79 31.95c-6.534-12.707 2.18-23.236 13.435-31.95"/><path fill="#d10a11" d="M755.77 692.725c-.363-.726-1.452-1.452-2.179-2.178-9.803-6.899-20.695 0-33.766 10.892l9.44 18.88c14.523-11.255 32.314-20.332 26.505-27.594"/><path d="M725.998 624.103c7.262-9.803 36.308-26.505 61.36-25.779l49.743 98.758c-37.398-2.178-49.016 12.708-61.724 28.684-2.542 3.267-5.083 6.535-7.988 9.803-12.708 14.16-26.868 22.511-37.76 22.511h-1.09c-3.63-.363-6.535-1.453-8.35-3.63-3.268-4.358-4.357-8.715-3.994-13.072 1.815-10.529 14.16-19.606 25.415-27.594 9.077-6.535 16.339-11.982 17.428-17.428.363-1.815-.363-3.63-1.452-5.083zm59.545-29.773c-25.415 0-56.277 16.702-63.902 28.321l-.726 1.09.363 1.088 32.677 68.986c.726.726.726 1.452.726 2.178-.726 3.994-8.35 9.44-15.612 14.523-11.982 8.351-25.053 18.154-27.231 30.136-.726 5.446.726 10.892 4.72 15.975 2.178 3.268 6.172 5.084 11.255 5.447 11.982.726 27.958-8.35 41.755-23.964 2.904-3.267 5.809-6.535 8.35-9.803 12.708-16.338 23.964-30.136 61.724-26.868l3.63.363-53.735-107.472h-3.994"/><path d="M700.945 721.046c3.631-2.905 6.898-5.81 10.166-8.714 16.34-14.523 30.5-27.231 41.391-19.606.727.726 1.453 1.089 1.816 1.452.726.726.726 1.452.726 2.178-.726 3.994-8.35 9.44-15.612 14.524-11.619 8.35-25.416 18.154-27.232 30.135zm44.296-35.22c-11.256 0-23.237 10.894-37.034 23.238-3.63 3.268-7.262 6.536-11.256 9.803l-1.452 1.09 18.517 33.403 3.631-1.815c-7.625-14.887 9.077-26.868 23.6-37.398 9.077-6.535 16.34-11.981 17.428-17.427.363-1.816-.363-3.631-1.452-5.447-.727-1.09-1.816-1.815-2.542-2.541-2.905-1.816-6.172-2.905-9.44-2.905"/><path fill="#fff" d="M602.913 723.95c-4.72-3.63-12.708-9.077-21.422-14.523v-71.164c10.167 6.172 20.333 12.708 30.136 17.791v73.705c-3.63-2.178-6.535-4.357-8.714-5.809M650.84 743.194h-1.089l-10.167-76.973h1.09c8.351 0 15.975-2.905 23.237-6.9l22.874 70.076c-10.892 7.988-22.874 13.797-35.945 13.797M753.592 690.547c-9.44-6.535-20.696 0-33.403 10.529l-29.773-62.086c11.982-10.53 22.874-19.244 33.04-15.25l32.315 68.622c-.364-.363-1.09-1.09-2.18-1.815M322.978 690.547q-1.633 1.089-2.178 2.178l32.314-68.622c10.166-3.631 21.058 4.72 33.04 15.25l-29.773 62.086c-12.707-10.892-23.963-17.427-33.403-10.892M538.285 690.91c-2.905 0-6.899 1.089-11.255 2.542v-71.89c3.993-1.453 7.987-2.179 11.255-2.179s7.262.726 11.255 2.179v71.89c-4.356-1.816-8.35-2.542-11.255-2.542M425.73 743.194c-12.708 0-24.689-5.81-35.945-13.797l22.874-70.075c7.262 3.994 14.886 6.899 23.237 6.899h1.09l-10.167 76.973zM473.657 723.95c-2.178 1.815-5.083 3.631-8.351 5.81V655.69c9.803-5.083 19.97-11.619 30.136-17.79v71.526c-9.077 5.446-17.065 10.892-21.785 14.523"/><path fill="#d10a11" d="M495.442 709.427v-71.164c11.255-6.898 22.148-13.07 31.588-16.339v71.527c-9.44 3.268-21.422 9.441-31.588 15.976M426.82 743.194l10.165-76.973c7.988-.363 17.791-4.357 28.321-10.166v73.705c-9.44 6.172-23.6 13.07-38.487 13.434M356.382 701.076l29.773-62.087c7.987 6.9 16.7 14.523 26.504 19.97l-22.874 70.437c-12.344-8.714-23.237-19.606-33.403-28.32M549.54 693.452v-71.89c9.44 3.268 20.333 9.44 31.589 16.339v71.527c-10.166-6.536-22.148-12.708-31.588-15.976M611.264 729.76v-74.068c10.53 5.809 20.333 9.803 28.32 10.166l10.167 76.973c-14.887 0-28.684-6.9-38.487-13.071M687.148 729.397l-22.874-70.076c9.44-5.446 18.154-13.07 26.505-19.969l29.772 62.087c-10.166 8.351-21.42 19.243-33.403 27.957"/><path d="M435.896 668.036c14.16 0 34.13-12.345 53.373-24.326 18.154-11.256 36.671-22.511 49.016-22.511s30.862 11.618 49.016 22.51c19.243 11.982 39.212 24.327 53.372 24.327 19.244 0 35.22-13.797 49.38-25.78 11.981-10.528 22.511-19.605 31.951-16.7l29.046 61.36c-12.345-4.72-26.505 7.988-42.48 22.148-17.065 15.25-36.308 32.314-57.73 32.314-19.607 0-37.76-11.981-46.838-18.88-12.344-9.803-50.468-33.403-65.717-33.403-15.613 0-53.736 23.963-65.718 33.403-7.26 5.809-26.505 18.88-46.837 18.88-21.059 0-40.665-17.064-57.367-32.314-15.976-14.16-30.136-26.868-42.48-22.148l28.683-61.36c9.44-2.905 19.97 6.172 31.951 16.7 14.16 12.346 30.136 25.78 49.38 25.78m102.388-50.831c-13.434 0-31.588 11.255-51.195 23.237-18.517 11.618-38.123 23.6-51.194 23.6-17.79 0-33.04-13.071-46.837-25.052-13.434-11.62-25.053-21.785-37.035-17.065l-.726.363-32.677 69.348 3.631 1.816c.363-.363.726-1.09 1.452-1.453 10.892-7.624 25.053 5.083 41.391 19.607 17.428 15.612 37.398 33.403 60.272 33.403 20.695 0 39.94-12.345 49.38-19.97 11.98-9.802 49.741-32.677 63.175-32.677 13.797 0 50.831 22.51 63.176 32.678 9.44 7.26 28.683 19.969 49.38 19.969 22.873 0 42.842-17.791 60.27-33.403 16.34-14.524 30.5-27.231 41.391-19.607.726.727 1.453 1.09 1.816 1.453l3.631-2.18-32.678-69.347-.726-.363c-11.618-4.357-23.237 5.446-36.67 17.064-13.435 11.619-28.684 25.053-46.839 25.053-13.07 0-32.677-11.982-51.194-23.6-19.606-11.62-37.76-22.874-51.194-22.874M539.374 760.985c66.807 0 120.906 29.41 120.906 65.355 0 36.308-54.099 65.354-120.906 65.354s-120.906-29.41-120.906-65.354c.363-35.945 54.462-65.355 120.906-65.355"/><path fill="#fff" d="M539.374 890.604c-66.08 0-119.817-29.047-119.817-64.265 0-35.582 53.736-64.266 119.817-64.266s119.817 29.047 119.817 64.266c0 35.582-53.736 64.265-119.817 64.265m0-130.709c-67.17 0-121.632 29.773-121.632 66.444s54.462 66.443 121.632 66.443 121.632-29.772 121.632-66.443c.363-36.67-54.462-66.444-121.632-66.444"/><path fill="#fcc200" d="M539.737 771.514c59.182 0 107.472 24.69 107.472 54.825s-47.927 54.825-107.472 54.825-107.472-24.69-107.472-54.825 47.927-54.825 107.472-54.825"/><path fill="#fff" d="M539.737 784.585c48.29 0 87.502 15.612 87.502 34.856 0 19.243-39.212 34.855-87.502 34.855s-87.502-15.612-87.502-34.855c0-19.244 39.212-34.856 87.502-34.856"/><path d="M539.737 850.666c-49.016 0-83.509-16.34-83.509-30.863s34.13-30.862 83.51-30.862c49.015 0 83.508 16.34 83.508 30.862-.363 14.523-34.493 30.862-83.509 30.862m0-70.075c-51.194 0-91.496 17.065-91.496 39.213 0 21.785 40.302 38.85 91.496 38.85s91.496-17.065 91.496-38.85c0-22.148-40.302-39.213-91.496-39.213"/><path fill="#fff" d="M539.374 844.493c-46.474 0-84.235-37.76-84.235-84.235 0-46.474 37.761-84.234 84.235-84.234h-1.089c46.474 0 84.235 37.76 84.235 84.234 0 46.475-37.76 84.235-84.235 84.235z"/><path d="M539.011 842.678c-45.022-.363-81.693-37.034-81.693-82.42s36.671-81.692 81.693-82.056c45.022.364 81.693 37.035 81.693 82.057s-36.67 82.056-81.693 82.419m.363-168.47h-1.089c-46.838.727-84.96 39.213-84.96 86.05 0 46.838 38.122 85.688 84.96 86.05h1.09c46.837-.725 84.96-38.85 84.96-86.05s-38.123-85.323-84.96-86.05"/><path d="m525.214 690.91-17.428 29.41-31.588 5.083-7.625-10.167c.364-.363.727-1.089 1.09-1.452l1.452-1.815c10.53-14.887 25.78-26.505 43.933-31.951l3.268-.727zM503.792 771.877l13.434-41.754h43.207l13.434 41.754-35.219 25.779zM538.648 814.357l26.142 17.065v8.351q-12.526 4.356-26.142 4.357c-13.616.001-17.79-1.453-26.142-4.357v-8.35zM490.358 785.311l1.09 33.403-6.899 5.447c-3.63-2.905-6.899-6.536-9.803-9.804l-.364-.363c-9.44-11.618-15.975-26.141-18.154-41.754l7.625-3.268zM569.51 720.32l-17.428-29.41 7.625-11.618 3.268.725c18.154 5.446 33.766 17.428 44.658 32.677l.727 1.09c.363.726.726 1.09 1.089 1.815l-7.988 10.166zM587.301 785.311l26.505-16.702 7.625 3.268c-2.179 15.613-8.714 30.136-18.154 42.117-2.905 3.631-6.536 6.899-9.804 10.167l-6.898-5.447z"/></g></svg>