<svg xmlns="http://www.w3.org/2000/svg" width="796.157" height="933.333" viewBox="0 0 796.157 933.333"><clipPath id="a"><path d="M0 1080h1080V0H0z"/></clipPath><g clip-path="url(#a)" transform="matrix(1.33333 0 0 -1.33333 -321.922 1186.667)"><path fill="#fff" d="m836.14 402.33-57.83 48.335s-12.948 6.042-20.716.864c0 0 6.905 47.472 6.905 75.955 0 28.484-1.726 362.516-1.726 362.516H317.226S315.5 555.968 315.5 527.484c0-28.483 6.905-75.955 6.905-75.955-7.768 5.178-20.715-.864-20.715-.864l-57.83-48.335c-12.084-31.936 25.031-49.199 25.031-49.199l16.4 12.084c23.304 1.727 21.578-25.03 21.578-25.03l-12.084-10.358S371.991 190.87 539.222 190.01V190q.389.002.778.005c.26 0 .517-.005.778-.005v.01c167.23.86 244.436 139.817 244.436 139.817l-12.084 10.358s-1.726 26.757 21.58 25.03l16.398-12.084s37.115 17.263 25.031 49.2"/><path fill="#0d3980" d="m340.377 316.709 8.044-8.609c8.69 9.958 18.221 18.781 27.974 27.839l6.7-7.723 4.741 4.345c-8.145 6.941-15.039 14.921-23.202 23.43.101-3.366-2.147-3.84-3.095-5.524 2.232-2.685 5.51-4.234 7.224-7.2-8.799-9.796-18.28-18.587-28.386-26.558m247.451-92.682c-2.946 13.067-5.379 25.816-7.062 38.996l10.303 1.308-1.087 6.21c-10.4-2.293-20.642-3.889-31.565-5.487 1.636-2.206.418-4.467 2.061-6.093 3.274.46 6.262 2.204 9.77 1.752 3.032-12.706 4.784-25.585 6.481-38.504zm8.837 48.653 2.136-5.991c3.29.988 6.108 3.125 9.634 3.637 5.42-12.076 8.765-24.704 12.59-37.22l10.87 3.783a445 445 0 0 0-13.336 36.913c3.166 2.007 6.82 1.868 9.925 3.395l-2.137 5.892a334 334 0 0 0-29.682-10.409m112.367 76.316c-3.625-.984-6.217-2.564-8.575-5.053-5.934-6.264-5.94-13.775-2.786-19.136 3.55-6.035 10.715-6.72 16.394-4.889 3.272 1.055 6.463 2.401 9.783 3.257 3.88 1.001 7.601-2.077 7.646-6.005.057-4.85-5.439-9.05-10.157-7.848-1.474.375-2.707 1.719-4.852 1.05l7.06-8.672c5.22 2.458 8.954 5.947 11.52 10.553 2.635 4.733 3.315 9.668.261 14.576-3.009 4.836-6.96 7.703-13.074 7.198-4.43-.365-8.226-2.399-12.29-3.716-2.732-.885-5.348-1.537-7.552.923-1.835 2.049-2.019 4.397-.62 6.768 1.66 2.813 4.071 4.429 7.45 4.095 1.476-.145 2.927-.551 4.935-.946zm-35.762-83.873c-3.75-2.115-6.908-4.811-11.005-6.425l-7.563 13.651 11.413 5.861-3.212 5.196-10.692-6.357c-2.154 3.809-4.496 7.367-5.882 11.694l11.14 5.858-2.816 4.981-20.746-11.307c7.525-13.549 15.441-26.219 21.743-39.981 6.648 4.577 13.986 7.458 20.693 11.6zM431.846 295.43c-6.549-14.099-13.624-27.073-21.36-39.689l20.781-11.353 2.766 5.449c-3.79 2.136-7.908 3.096-11.294 5.927l7.242 13.698 10.922-6.457 2.871 5.287-11.399 5.809c1.702 3.105 3.317 5.915 4.794 8.795.954 1.861 1.625 2.225 3.83 1.069 3.033-1.593 5.591-4.571 9.478-4.469.596 1.845 2.082 3.008 2.13 4.833zm48.56-49.073c5.16-2.962 9.958-2.808 14.61-.328 5.614 2.993 7.2 8.348 7.341 14.129.132 5.39-3.435 8.423-8.137 9.825-5.818 1.735-11.794 2.944-17.833 4.413-3.166-14.835-6.855-29.265-11.274-43.674l10.868-2.897c1.118 6.127 2.274 12.121 4.424 18.532m226.344 37.108 9.453 7.484c-8.144 3.278-15.939 5.924-23.24 9.743 3.811 7.033 2.946 12.413-2.556 17.084-4.45 3.778-9.145 3.532-15.19-1.142-4.413-3.412-8.608-7.105-13.03-10.781 10.651-10.766 18.61-23.636 28.11-35.57 2.522 2.68 5.255 4.498 8.075 6.44l-11.788 14.605c7.355-1.223 13.632-4.594 20.166-7.863M509.26 241.86c.09-7.96 1.816-15.396 9.201-19.686 8.411-4.885 17.448-4.737 25.887-.225 8.802 4.705 10.756 13.343 10.537 22.486-.273 11.349-5.265 18.689-14.413 20.964-14.915 3.709-31.326-2.012-31.213-23.539m-115.306 83.258c-9.345-11.959-18.32-23.95-28.735-34.87l8.34-6.969 13.547 16.675c4.56-3.408 8.646-6.485 12.306-10.317l-13.706-16.353 8.484-6.87c8.734 12.502 18.63 23.616 28.751 35.155-3.526 1.732-5.825 4.491-8.71 6.693-3.635-4.656-6.823-9.409-11.012-13.548-4.512 2.879-8.332 6.248-12.21 10.001l11.374 13.537c-3.105 2.031-5.768 4.169-8.429 6.866M344.71 863.85v-5.894c0-108.313.06-216.627-.054-324.941-.02-19.286.485-38.502 3.51-57.577 3.72-23.454 9.976-46.092 21.185-67.225 12.472-23.513 27.894-44.772 47.215-63.121 23.014-21.855 49.383-37.975 80.527-45.15 52-11.978 100.447-3.648 144.252 27.382 33.747 23.906 58.174 55.726 75.04 93.198 14.561 32.357 18.902 66.95 18.953 102.067.165 111.909.031 223.819.013 335.728v5.521c-130.328.395-260.282.381-390.64.012m371.986-484.109c19.39-17.943 39.898-34.241 60.191-52.171-51.284-72.525-117.79-121.017-208.017-129.63-114.414-10.923-200.897 37.792-266.58 129.525l60.352 52.359c-19.897 30.864-30.97 64.38-35.41 100.288-2.266 18.304-2.635 36.629-2.61 55.044.16 114.356.081 228.713.081 343.07v5.348h429.49c.844-1.571.382-3.318.383-4.982.026-114.5-.085-229.001.124-343.501.038-20.73-.474-41.35-3.575-61.866-4.103-27.155-11.797-53.143-25.067-77.314-2.924-5.325-6.083-10.521-9.362-16.17"/><path fill="#ce3639" d="M789.379 369.396c-11.55 1.498-15.374-2.711-21.07-22.178-13.39 11.553-26.558 22.918-39.868 34.404 10.672 17.306 18.56 35.503 24.147 54.708 2.809 9.658 2.836 9.65 13.049 9.897 10.83.262 19.539-5.76 23.213-16.05 4.56-12.773.67-20.855-12.481-25.858-3.897-1.483-7.955-2.417-12.068-3.01-3.944-.57-7.923-.894-13.018-1.45zM291.294 369.564l37.324 29.802c-8.266.85-15.826 1.357-22.97 3.816-6.835 2.353-13.765 4.945-15.685 13.145-3.657 15.61 11.49 32.46 27.417 29.773 7.494-1.264 8.577-4.744 10.087-10.2 5.342-19.302 13.443-37.441 24.045-54.697l-39.88-34.454c-3.209 10.67-4.19 23.045-20.338 22.815"/><path fill="#0d3980" d="M283.713 430.917c-4.628-18.41.109-31.424 30.172-35.019l-45.83-35.964c-7.045 4.578-13.497 9.657-17.933 16.943-5.785 9.502-4.887 19.435 3.489 27.372 9.469 8.973 19.513 17.338 30.102 26.668M796.253 429.642c1.683.419 2.458-.523 3.311-1.273 8.52-7.497 17.128-14.894 25.524-22.526 8.833-8.03 10.89-17.911 5.6-27.092-4.483-7.778-10.82-13.8-18.89-18.34l-45.735 35.84c3.597.617 6.467.979 9.276 1.613 7.843 1.769 15.208 4.437 19.731 11.768 3.923 6.36 3.274 13.044 1.183 20.01"/><g fill="#fff"><path d="M475.788 368.193c.737-1.846.737-3.837.691-5.815-.222-9.596-.47-19.191-1.412-28.755-.129-1.312-1.01-3.06.59-3.926 4.927-2.666 9.837-5.424 15.385-7.081-.504 7.337-1.235 14.18-1.384 21.036-.237 10.896-.103 21.8-.082 32.702.004 1.997-.156 4.554-2.74 3.35-6.069-2.822-12.548-4.514-18.946-6.91 1.558-2.132 2.33-4.204 4.047-5.458 1.391.048 2.344 1.364 3.851.857m47.93 322.333c-3.075 17.805-3.139 35.399.124 53.067h-17.618c2.58-17.785 2.444-35.373.105-53.067zm19.737-.012h18.401c-4.396 14.845-1.435 29.809-2.489 44.66 4.947.469 8.884-1.387 13.12-2.82 2.045 3.684 3.864 7.272 5.275 11.458-14.908 0-29.272-.006-43.635.01-1.204 0-2.372-.02-2.794-1.4-1.112-3.635-2.168-7.287-3.49-11.754 6.19 2.496 11.631 4.509 18.038 4.57-1.177-15.01 1.887-29.971-2.426-44.724m40.673-338.286c1.544 0 2.945-.033 4.343.009 1.431.043 2.866.287 4.29.219 4.34-.207 6.782-2.285 7.278-6.421.501-4.184.104-8.33-1.653-12.224-2.638-5.846-8.01-7.053-12.949-2.945-.852.708-1.433 1.93-3.33.974-.41-4.171-1.978-8.35-4.388-12.635 3.627.374 6.795.514 9.893 1.056 8.774 1.534 17.072 4.17 22.838 11.604 7.966 10.267 5.258 23.55-5.973 28.178 4.47 2.854 6.225 6.734 4.635 11.768-1.75 5.545-5.91 8.262-11.345 9.32-4.204.819-8.305.117-12.288-1.26-6.243-2.158-7.526-6.204-3.7-12.585 1.287 1.832 2.315 3.68 3.71 5.192 2.338 2.534 5.366 3.487 8.577 2.002 3.21-1.485 3.086-4.527 2.627-7.467-.67-4.291-3.502-6.353-7.538-7.15-1.64-.323-3.45.04-5.027-1.171zm33.043 338.29c-3.696 8.006-2.233 15.995-2.608 23.832-.11 2.299.611 4.144 1.93 5.952 5.61 7.694 9.996 16.273 17.586 23.328h-17.398c-.622-6.8-5.475-11.321-8.463-17.52-3.522 6.218-8.835 10.699-9.903 17.52h-19.028c5.885-6.013 9.447-13.031 14.606-18.647 7.592-8.266 7.757-17.635 6.152-27.628-.359-2.233-1.129-4.4-1.773-6.837zm-119.236 51.58c-14.873 3.747-28.864 3.094-41.022-7.366-11.328-9.746-11.78-27.084-1.189-37.051 8.938-8.411 30.224-11.14 40.337-5.202.815.479 1.274 1.01 1.405 1.968.512 3.737 1.09 7.466 1.711 11.66-11.463-8.607-23.016-9.412-30.62-2.503-6.063 5.509-7.999 16.06-2.965 22.895 9.72 13.197 21.127 8.85 32.343 1.536zm74.27-364.591c-18.043 6.385-27.154.7-31.217-14.26-2.889-10.638-3.485-21.55-2.035-32.452 1.862-13.997 10.996-19.47 24.38-15 11.044 3.689 16.137 14.876 12.695 27.887-2.215 8.373-8.414 12.496-16.783 10.927-2.152-.404-4.179-1.478-6.53-2.342.351 5.823.488 11.45 3.273 16.51 2.768 5.026 7.763 5.514 11.712 1.363.831-.873 1.036-2.491 2.952-2.446 1.213 3.044.631 6.42 1.553 9.813m-47.274-25.803c6.775 4.73 8.993 10.99 6.8 18.592-1.735 6.016-7.025 9.456-14.728 9.577-9.815.155-15.83-3.18-18.117-10.042-2.347-7.041-.079-13.136 6.86-18.257-7.683-3.265-9.729-9.752-9.678-17.24.047-7.07 3.144-12.455 9.73-15.455 5.158-2.35 10.574-3.603 16.295-3.185 5.962.436 9.852 3.549 11.572 9.264 2.833 9.416-.734 20.49-8.734 26.746M468.298 760.94c-2.165 5.422-3.647 10.407-3.698 15.596-.165 16.825-.136 33.652-.156 50.477 0 .527.277 1.053.432 1.605 7.156.255 13.677-1.776 20.251-4.523l7.485 15.624h-70.209l-5.624-17.578c9.37 3.558 18.075 6.548 28.102 6.407-1.736-22.842 2.671-45.472-3.867-67.608zm-56.92 57.825 1.034.428c0 2.107.121 4.222-.02 6.319-1.022 15.192 3.153 12.828-13.438 14.695-11.613 1.307-23.034-.211-32.119-8.971-7.94-7.66-6.925-21.688 1.874-28.33 7.095-5.354 15.074-9.136 22.755-13.467 3.31-1.866 6.1-4.59 5.38-9.001-.645-3.951-4.528-7.208-9.276-7.81-2.979-.376-5.886-.14-8.806 1.023-5.98 2.38-10.46 6.675-15.046 11.43v-22.134c13.068-3.396 25.93-4.49 38.584.744 9.223 3.813 14.89 10.72 15.45 20.915.525 9.534-5.6 14.827-13.139 19.017-6.646 3.695-13.55 6.956-19.743 11.424-2.68 1.934-4.795 4.31-3.863 7.97.914 3.587 3.57 5.517 6.997 6.27 5.015 1.104 9.678-.167 14.062-2.64 3.586-2.021 6.668-4.681 9.313-7.882m302.846-12.594h-27.15v21.414c7.302.202 14.104-1.313 20.873-3.323l8.937 15.553h-54.017c5.704-12.902 3.745-26.261 3.643-39.36-.104-13.146 2.465-26.675-3.812-39.285.154-.073.402-.29.65-.291 16.671-.06 33.341-.101 50.012-.15 1.176-.003 2.361-.001 2.967 1.253 2.214 4.58 4.403 9.174 7.092 14.787-12.52-3.783-24.236-4.745-36.255-3.94v21.996c4.933.27 9.52.28 13.7-2.034 2.245-1.243 3.595-.666 4.938 1.366 2.522 3.816 5.24 7.5 8.422 12.014m-226.348-6.502c.007-24.196 16.175-39.807 41.191-39.774 24.568.033 41.061 16.057 41.24 40.067.163 22.185-18.453 40.48-41.233 40.522-23.098.042-41.204-17.896-41.198-40.815m140.022 39.997c-6.997-13.776-19.035-22.974-28.584-35.634-.164 12.789-.99 24.374 3.765 35.554h-26.45c4.151-26.293 4.202-52.276-.01-78.46h26.453c-5.513 13.327-3.476 26.83-3.898 41.325 8.616-10.366 16.428-19.864 24.363-29.257 2.947-3.49 5.251-7.137 4.895-11.991h30.292c-14.406 13.442-25.444 29.063-38.388 43.34 12.14 12.05 21.611 26.2 36.391 35.123zM575.622 674.68H503.77V392.87h71.853zm68.36-319.872c1.947 1.71 3.343 2.85 4.642 4.093 16.515 15.779 30.322 33.679 41.298 53.687 6.35 11.574 11.436 23.633 15.213 36.43 4.798 16.252 7.325 32.735 9.076 49.47 1.441 13.773.826 27.555.82 41.342-.032 66.46-.015 132.92-.015 199.38v5.033h-71.035zm-208.69.089v389.549h-71.004v-5.168c0-68.174.054-136.35-.047-204.523-.02-13.024-.308-26.027.914-39.031 1.124-11.961 3.08-23.73 5.716-35.46 6.735-29.98 21.033-56.078 40.047-79.83 7.225-9.023 14.917-17.64 24.374-25.537M344.71 863.85c130.36.369 260.313.383 390.641-.012v-5.521c.018-111.91.152-223.82-.012-335.728-.052-35.117-4.393-69.71-18.955-102.066-16.864-37.472-41.292-69.293-75.039-93.2-43.805-31.03-92.252-39.36-144.252-27.38-31.144 7.174-57.513 23.294-80.527 45.15-19.32 18.348-34.743 39.607-47.215 63.12-11.209 21.133-17.466 43.77-21.185 67.225-3.025 19.075-3.53 38.29-3.51 57.577.113 108.314.054 216.628.054 324.94zM393.954 325.118c2.66-2.697 5.324-4.835 8.429-6.866l-11.375-13.537c3.878-3.753 7.699-7.122 12.21-10.001 4.19 4.139 7.378 8.892 11.012 13.548 2.886-2.202 5.184-4.961 8.71-6.693-10.121-11.539-20.016-22.653-28.751-35.155l-8.483 6.87 13.705 16.353c-3.66 3.832-7.746 6.909-12.305 10.317l-13.548-16.675-8.34 6.969c10.414 10.92 19.39 22.911 28.736 34.87M543.936 242.238c-.037 4.853-.598 9.25-2.645 13.29-1.861 3.674-4.641 6.02-9.096 6.06-4.451.04-7.519-2.15-9.185-5.896-3.848-8.65-3.888-17.525-.027-26.183 1.67-3.743 4.837-5.98 9.189-5.96 4.19.018 6.977 2.348 8.891 5.78 2.291 4.106 2.797 8.66 2.873 12.908m-34.675-.377c-.114 21.527 16.296 27.247 31.212 23.538 9.148-2.274 14.139-9.614 14.412-20.964.22-9.142-1.735-17.78-10.536-22.486-8.439-4.512-17.477-4.66-25.887.226-7.385 4.29-9.111 11.726-9.201 19.686M682.773 296.298c5.43 4.692 5.798 8.142 1.836 12.85-3.55 4.218-6.369 4.256-11.6-.118zm23.978-12.833c-6.535 3.269-12.812 6.64-20.167 7.863l11.79-14.604c-2.82-1.943-5.555-3.761-8.078-6.441-9.5 11.934-17.457 24.804-28.109 35.57 4.422 3.676 8.618 7.369 13.03 10.78 6.045 4.675 10.74 4.92 15.191 1.143 5.501-4.67 6.366-10.051 2.554-17.084 7.302-3.818 15.097-6.464 23.241-9.743zM481.482 251.307c3.202-1.603 5.895-1.08 7.769 1.092 2.613 3.025 3.773 6.806 2.593 10.776-.825 2.778-3.233 3.723-6.337 3.749zm-1.075-4.95c-2.15-6.411-3.306-12.405-4.425-18.532l-10.868 2.897c4.42 14.409 8.109 28.839 11.275 43.674 6.039-1.47 12.015-2.678 17.833-4.413 4.702-1.402 8.268-4.435 8.137-9.825-.141-5.781-1.727-11.136-7.342-14.13-4.651-2.48-9.45-2.632-14.61.329M431.847 295.43l20.759-11.102c-.046-1.823-1.533-2.986-2.128-4.832-3.887-.102-6.445 2.877-9.48 4.469-2.203 1.157-2.874.793-3.828-1.068-1.477-2.881-3.092-5.69-4.794-8.795l11.399-5.81-2.872-5.287c-3.516 2.08-6.916 4.088-10.922 6.456l-7.242-13.697c3.387-2.832 7.505-3.792 11.294-5.927l-2.765-5.448c-6.87 3.751-13.715 7.491-20.782 11.352 7.737 12.616 14.812 25.59 21.36 39.69M673.272 265.123c1.003-1.71 1.93-3.285 3.072-5.23-6.707-4.141-14.045-7.022-20.693-11.6-6.302 13.763-14.218 26.433-21.743 39.983l20.746 11.306 2.814-4.981-11.138-5.858c1.386-4.327 3.728-7.885 5.882-11.694l10.692 6.357 3.212-5.196-11.413-5.861 7.563-13.651c4.096 1.614 7.254 4.31 11.005 6.425M709.033 348.996l5.143-7.845c-2.007.395-3.458.801-4.936.946-3.377.333-5.789-1.282-7.449-4.095-1.399-2.37-1.215-4.719.621-6.768 2.203-2.46 4.819-1.808 7.551-.923 4.065 1.317 7.861 3.351 12.29 3.716 6.114.505 10.065-2.363 13.074-7.198 3.054-4.909 2.374-9.843-.261-14.576-2.565-4.606-6.3-8.095-11.521-10.553l-7.059 8.672c2.146.67 3.379-.675 4.852-1.05 4.718-1.202 10.214 2.998 10.158 7.848-.046 3.928-3.767 7.005-7.646 6.005-3.321-.856-6.512-2.202-9.784-3.257-5.679-1.83-12.843-1.147-16.394 4.89-3.153 5.36-3.147 12.871 2.786 19.135 2.358 2.49 4.95 4.07 8.575 5.053M596.666 272.68a334 334 0 0 1 29.682 10.408l2.138-5.89c-3.106-1.528-6.76-1.39-9.926-3.396a445 445 0 0 1 13.335-36.913c-3.514-1.224-6.955-2.42-10.869-3.784-3.824 12.516-7.17 25.144-12.59 37.221-3.526-.512-6.345-2.65-9.634-3.637-.692 1.941-1.35 3.79-2.136 5.991M587.829 224.027l-11.1-1.818c-1.697 12.919-3.448 25.798-6.481 38.504-3.507.452-6.495-1.292-9.77-1.751-1.642 1.625-.424 3.886-2.06 6.092 10.923 1.599 21.164 3.195 31.565 5.487.41-2.35.742-4.242 1.087-6.21l-10.303-1.307c1.682-13.181 4.116-25.93 7.062-38.997M340.377 316.709c10.106 7.971 19.587 16.762 28.386 26.558-1.715 2.966-4.992 4.515-7.224 7.2.948 1.684 3.196 2.158 3.095 5.524 8.163-8.509 15.057-16.489 23.202-23.43l-4.74-4.345c-2.155 2.483-4.274 4.925-6.7 7.723-9.754-9.058-19.285-17.881-27.975-27.839z"/></g><g fill="#ce3639"><path d="M435.292 354.897c-9.456 7.897-17.148 16.513-24.373 25.538-19.015 23.751-33.313 49.85-40.048 79.83-2.635 11.73-4.591 23.498-5.716 35.46-1.222 13.003-.933 26.005-.914 39.03.1 68.174.047 136.348.047 204.523v5.167h71.004zM643.981 354.807v389.436h71.035v-5.034c0-66.46-.017-132.919.014-199.379.007-13.788.622-27.57-.819-41.343-1.75-16.734-4.278-33.218-9.076-49.469-3.777-12.798-8.863-24.857-15.213-36.43-10.976-20.008-24.783-37.908-41.298-53.688-1.299-1.24-2.695-2.38-4.643-4.093M575.622 392.871h-71.853V674.68h71.853zM627.897 839.666h28.83c-14.78-8.923-24.254-23.073-36.392-35.122 12.943-14.278 23.981-29.899 38.388-43.34h-30.292c.356 4.853-1.949 8.501-4.895 11.99-7.935 9.393-15.747 18.891-24.363 29.257.422-14.495-1.615-27.998 3.898-41.326h-26.455c4.214 26.184 4.162 52.168.012 78.46h26.45c-4.755-11.179-3.929-22.764-3.765-35.553 9.55 12.66 21.586 21.857 28.584 35.634M547.487 798.057c-.057 9.655-1.054 16.431-4.23 22.708-2.97 5.873-7.337 9.904-14.381 9.894-7.066-.01-11.565-4.052-14.25-10.025-5.886-13.099-5.911-26.443-.24-39.605 2.718-6.305 7.303-10.57 14.82-10.474 7.554.097 11.698 4.784 14.565 10.925 2.833 6.068 3.779 12.592 3.716 16.577m-59.611 1.611c-.007 22.92 18.1 40.858 41.198 40.815 22.78-.04 41.395-18.336 41.23-40.52-.176-24.012-16.67-40.036-41.238-40.068-25.016-.034-41.183 15.578-41.19 39.773M714.223 806.171c-3.182-4.513-5.9-8.199-8.422-12.014-1.343-2.032-2.693-2.609-4.938-1.366-4.182 2.313-8.767 2.305-13.7 2.033V772.83c12.02-.805 23.735.156 36.255 3.94-2.689-5.614-4.878-10.207-7.092-14.787-.606-1.255-1.79-1.256-2.967-1.253-16.67.048-33.34.09-50.012.15-.248 0-.496.218-.65.29 6.277 12.61 3.708 26.14 3.811 39.286.103 13.098 2.062 26.457-3.642 39.36h54.017c-3.08-5.363-5.949-10.354-8.937-15.553-6.769 2.01-13.57 3.524-20.874 3.322v-21.413zM411.377 818.765c-2.645 3.2-5.727 5.86-9.313 7.882-4.384 2.472-9.047 3.744-14.062 2.641-3.427-.754-6.083-2.684-6.997-6.27-.932-3.66 1.183-6.037 3.863-7.97 6.193-4.47 13.097-7.73 19.743-11.425 7.538-4.19 13.664-9.484 13.14-19.018-.561-10.193-6.228-17.1-15.45-20.914-12.656-5.233-25.517-4.14-38.585-.744v22.134c4.587-4.756 9.067-9.05 15.046-11.43 2.92-1.164 5.827-1.399 8.806-1.023 4.748.601 8.63 3.858 9.275 7.81.72 4.412-2.07 7.135-5.378 9.001-7.682 4.331-15.661 8.113-22.756 13.467-8.8 6.642-9.815 20.67-1.873 28.33 9.084 8.76 20.506 10.277 32.118 8.97 16.59-1.867 12.416.497 13.438-14.694.142-2.098.02-4.213.02-6.32zM468.299 760.94h-27.285c6.539 22.135 2.13 44.765 3.867 67.607-10.026.141-18.732-2.849-28.101-6.407 2.018 6.308 3.82 11.944 5.624 17.578h70.209l-7.486-15.623c-6.573 2.747-13.094 4.777-20.25 4.523-.155-.552-.433-1.079-.433-1.605.02-16.826-.01-33.653.157-50.477.05-5.189 1.533-10.175 3.698-15.597"/></g><path fill="#22479d" d="M520.843 364.18c-.356 2.103-.585 4.239-1.106 6.3-.493 1.95-1.795 3.182-3.955 3.323-2.097.137-3.739-.662-4.497-2.58-1.855-4.688-1.83-9.467-.063-14.182.667-1.781 2.187-2.571 4.065-2.605 2.127-.04 3.525 1.087 4.243 2.983.815 2.153 1.137 4.42 1.313 6.76m-11.238-29.314c-.204-2.658.208-5.768 1.225-8.775.697-2.063 2.073-3.407 4.405-3.438 2.187-.03 3.524 1.322 4.185 3.129 2.341 6.398 2.21 12.885.087 19.304-.616 1.86-2.079 3.098-4.212 3.08-2.118-.018-3.422-1.247-4.203-3.11-1.299-3.096-1.568-6.357-1.487-10.19m15.326 16.839c8-6.255 11.567-17.33 8.734-26.746-1.72-5.715-5.61-8.828-11.572-9.264-5.72-.418-11.137.835-16.296 3.185-6.585 3-9.682 8.385-9.729 15.456-.05 7.487 1.995 13.975 9.678 17.239-6.939 5.12-9.207 11.216-6.86 18.257 2.286 6.863 8.302 10.197 18.117 10.042 7.703-.121 12.993-3.561 14.728-9.576 2.193-7.601-.025-13.862-6.8-18.593M562.9 334.562c.236 2.903.08 6.057-.996 9.074-.657 1.844-1.799 3.337-4.037 3.246-1.974-.08-3.109-1.307-3.678-3.094-2.116-6.64-1.848-13.277.203-19.862.533-1.712 1.633-3.036 3.715-3.011 2.134.025 2.973 1.562 3.58 3.199 1.211 3.279 1.424 6.71 1.213 10.448m9.305 42.945c-.922-3.392-.34-6.77-1.553-9.813-1.917-.045-2.12 1.573-2.952 2.446-3.949 4.15-8.944 3.663-11.712-1.363-2.786-5.06-2.923-10.687-3.273-16.51 2.35.864 4.377 1.938 6.53 2.342 8.37 1.569 14.568-2.554 16.783-10.927 3.442-13.011-1.65-24.198-12.696-27.886-13.384-4.47-22.517 1.002-24.379 14.999-1.45 10.903-.854 21.814 2.035 32.454 4.062 14.959 13.174 20.643 31.217 14.258"/><path fill="#ce3639" d="M497.935 742.098v-14.063c-11.216 7.316-22.623 11.662-32.343-1.536-5.033-6.835-3.098-17.386 2.965-22.895 7.604-6.91 19.157-6.104 30.621 2.504-.622-4.195-1.2-7.924-1.711-11.661-.131-.957-.591-1.49-1.406-1.967-10.113-5.937-31.399-3.21-40.337 5.2-10.592 9.968-10.138 27.306 1.19 37.052 12.157 10.46 26.148 11.113 41.021 7.366M617.171 690.518h-18.898c.644 2.437 1.413 4.604 1.772 6.837 1.605 9.993 1.44 19.363-6.152 27.628-5.158 5.616-8.721 12.635-14.606 18.647h19.028c1.068-6.82 6.381-11.302 9.903-17.52 2.988 6.2 7.841 10.72 8.464 17.52h17.397c-7.59-7.055-11.976-15.634-17.587-23.328-1.318-1.808-2.039-3.652-1.929-5.952.375-7.837-1.088-15.826 2.608-23.832"/><path fill="#22479d" d="M584.128 352.228v6.465c1.577 1.21 3.386.847 5.028 1.17 4.036.796 6.866 2.858 7.537 7.15.459 2.94.584 5.981-2.626 7.466s-6.24.532-8.578-2.002c-1.395-1.51-2.423-3.36-3.71-5.19-3.826 6.38-2.542 10.427 3.7 12.585 3.983 1.375 8.084 2.077 12.288 1.26 5.435-1.06 9.595-3.777 11.346-9.322 1.589-5.033-.166-8.913-4.635-11.768 11.23-4.627 13.939-17.91 5.972-28.178-5.766-7.432-14.064-10.07-22.838-11.604-3.098-.54-6.266-.682-9.893-1.056 2.41 4.285 3.978 8.465 4.388 12.636 1.898.957 2.478-.266 3.33-.975 4.939-4.107 10.31-2.9 12.95 2.946 1.757 3.893 2.154 8.04 1.652 12.223-.495 4.136-2.938 6.215-7.28 6.421-1.422.068-2.857-.176-4.288-.219-1.398-.042-2.8-.009-4.343-.009"/><path fill="#ce3639" d="M543.456 690.513c4.313 14.754 1.248 29.716 2.425 44.725-6.407-.06-11.847-2.075-18.038-4.57 1.322 4.466 2.378 8.118 3.49 11.753.422 1.381 1.59 1.402 2.794 1.4 14.364-.016 28.728-.01 43.635-.01-1.411-4.185-3.23-7.774-5.274-11.457-4.237 1.433-8.174 3.288-13.12 2.82 1.054-14.85-1.907-29.815 2.489-44.66zM523.717 690.526H506.33c2.34 17.693 2.475 35.282-.105 53.067h17.618c-3.264-17.669-3.2-35.262-.125-53.067"/><path fill="#22479d" d="M475.788 368.193c-1.507.507-2.46-.81-3.85-.857-1.719 1.254-2.49 3.326-4.048 5.459 6.398 2.395 12.877 4.087 18.945 6.91 2.585 1.203 2.745-1.354 2.741-3.351-.02-10.901-.155-21.806.082-32.702.15-6.856.88-13.7 1.384-21.036-5.548 1.657-10.458 4.415-15.385 7.08-1.6.867-.719 2.615-.59 3.927.942 9.564 1.19 19.159 1.412 28.755.046 1.978.046 3.969-.69 5.815"/><path fill="#0d3980" d="M543.936 242.238c-.076-4.25-.582-8.802-2.873-12.908-1.914-3.432-4.701-5.762-8.891-5.781-4.352-.02-7.519 2.218-9.189 5.96-3.861 8.659-3.821 17.533.027 26.184 1.666 3.745 4.734 5.935 9.185 5.895 4.455-.04 7.235-2.386 9.096-6.06 2.047-4.04 2.608-8.437 2.645-13.29M682.773 296.298c-3.39 4.422-6.584 8.585-9.765 12.732 5.232 4.374 8.051 4.336 11.601.118 3.962-4.708 3.593-8.158-1.836-12.85M481.482 251.307l4.025 15.617c3.104-.026 5.512-.971 6.337-3.75 1.18-3.97.02-7.75-2.593-10.775-1.874-2.172-4.567-2.695-7.77-1.092"/><path fill="#fff" d="M547.487 798.057c.063-3.985-.883-10.509-3.716-16.577-2.867-6.14-7.011-10.828-14.565-10.925-7.517-.097-12.102 4.17-14.82 10.474-5.671 13.162-5.646 26.506.24 39.605 2.685 5.973 7.184 10.014 14.25 10.025 7.044.01 11.412-4.02 14.382-9.894 3.175-6.277 4.172-13.053 4.229-22.708M509.605 334.865c-.081 3.833.188 7.094 1.487 10.19.78 1.863 2.085 3.092 4.204 3.11 2.132.018 3.595-1.22 4.21-3.08 2.125-6.42 2.255-12.906-.086-19.304-.661-1.807-1.997-3.158-4.185-3.13-2.331.03-3.708 1.376-4.405 3.439-1.016 3.007-1.428 6.117-1.225 8.775M520.843 364.18c-.176-2.341-.498-4.608-1.313-6.761-.718-1.896-2.116-3.022-4.243-2.983-1.878.034-3.398.824-4.065 2.605-1.768 4.715-1.792 9.494.063 14.183.758 1.917 2.4 2.716 4.497 2.579 2.16-.141 3.462-1.373 3.955-3.322.521-2.062.75-4.198 1.106-6.301M562.9 334.562c.211-3.737-.002-7.17-1.214-10.448-.606-1.637-1.445-3.174-3.579-3.2-2.082-.024-3.182 1.3-3.715 3.012-2.05 6.585-2.319 13.222-.203 19.862.57 1.787 1.704 3.014 3.678 3.094 2.238.09 3.38-1.402 4.037-3.246 1.075-3.017 1.232-6.171.996-9.074"/></g></svg>