<svg xmlns="http://www.w3.org/2000/svg" width="393" height="393" fill="none" viewBox="0 0 393 393"><clipPath id="a"><path d="M0 0h393v393H0z"/></clipPath><clipPath id="b"><path d="M30 59h331v303.014H30z"/></clipPath><g clip-path="url(#a)"><circle cx="196.5" cy="196.5" r="196.5" fill="#fff"/><g fill="#000" clip-path="url(#b)"><path d="M153.049 216.13c-17.685 28.902-55.229 30.877-93.173 16.197 0 0 15.138-.43 28.472-7.698 11.733-6.41 12.878-9.987 24.467-24.094 33.194-40.492 63.298-58.72 94.089-29.56 0 0-27.7 2.403-53.855 45.155"/><path d="M193.312 241.083c-17.685 28.931-55.229 30.877-93.174 16.197 0 0 15.11-.43 28.473-7.726 11.704-6.382 12.877-9.959 24.438-24.095 33.195-40.463 63.299-58.691 94.089-29.532 0 0-27.7 2.376-53.826 45.156"/><path d="M324.344 199.762c1.603 16.34-8.585 31.048-41.837 50.593 0 0 51.08-43.096-11.561-73.4-39.06-18.915-68.563-35.226-79.037-59.492-7.239-16.741-.286-44.956 20.976-54.456 0 0 23.465-11.36 65.902 4.178 0 0 23.551 8.27 10.817 24.294 0 0 3.291 5.495 6.582 12.248 2.518 5.208.019 7.211-3.692 4.493-3.691-2.719-61.924-52.74-78.007-21.949 0 0-5.923 11.218 1.747 24.953 6.324 8.356 11.303 10.674 21.204 16.311 15.195 7.984 25.497 13.421 44.469 23.837 0 0 39.661 19.288 42.437 48.39"/><path d="M237.008 264.033c-17.684 28.931-55.228 30.877-93.173 16.197 0 0 15.109-.43 28.444-7.726 11.733-6.382 12.906-9.959 24.467-24.095 33.166-40.463 63.27-58.691 94.06-29.532 0 0-27.671 2.404-53.798 45.156M55.555 255.763c-.167-2.06-.343-3.147-1.203-4.922-.915-1.916-2.69-3.806-5.208-2.604-4.607 2.204 1.46 11.904-6.41 15.71-5.094 2.461-9.014-.486-11.36-5.236-.802-1.66-1.116-3.549-1.374-5.323l3.348-1.231c.085 1.401.372 3.777 1.26 5.494.944 1.946 3.376 4.149 6.152 2.776 5.35-2.576-1.116-12.047 6.324-15.653 4.235-2.06 8.127.208 10.244 4.464.744 1.574 1.375 3.577 1.603 5.466zM60.62 258.768l2.49 3.319-14.395 18.601.084.062 21.576-9.043L73.637 276l-14.794 18.114.062.062 22.034-8.499 2.433 3.205-26.184 9.329-2.947-3.92 15.109-18.429-.063-.019-22.062 9.186-3.062-4.035zM92.326 300.604l-12.62 6.468 8.042 6.867zm.916-3.891 3.033 2.575-8.842 27.271-3.148-2.69 2.318-6.782-9.844-8.441-6.438 3.29-3.034-2.604zM108.952 309.189l4.464 2.576-.573 24.18.062.063 10.731-18.372 3.291 1.888-13.335 22.806-4.206-2.403.573-24.753-.062-.019-10.99 18.744-3.29-1.89zM143.777 330.537c-1.515-1.402-2.375-2.089-4.206-2.805-2.004-.772-4.636-.944-5.637 1.633-1.832 4.693 9.243 7.697 6.066 15.796-2.031 5.265-6.925 5.78-11.904 3.863-1.746-.659-3.262-1.832-4.664-2.976l1.63-3.119c1.001.944 2.861 2.46 4.664 3.147 2.031.773 5.323.744 6.439-2.146 2.146-5.494-9.1-8.07-6.124-15.71 1.717-4.378 6.095-5.351 10.588-3.634 1.632.629 3.462 1.659 4.922 2.919zM152.792 329.249l14.479 3.462-.801 3.234-10.76-2.575-1.831 7.497 9.815 2.347-.773 3.233-9.815-2.375-2.031 8.47 10.76 2.576-.772 3.233-14.48-3.462zM184.183 338.292l-6.238 12.648 10.531.743zm-1.603-3.692 3.978.287 9.243 27.128-4.121-.316-2.203-6.811-12.992-.973-3.176 6.467-3.978-.316zM232.458 335.516c-1.831-.688-3.748-.831-5.666-.515-6.038 1.03-9.329 6.038-8.298 11.875 1.059 6.096 6.181 9.415 11.618 8.499 1.89-.342 4.321-1.231 5.465-2.26l.887 3.577c-1.86 1.173-4.292 1.688-5.838 1.945-8.269 1.402-14.708-2.918-16.139-11.188-1.372-8.013 3.548-14.337 11.561-15.682 2.004-.343 4.063-.401 6.067.104zM237.037 329.564l3.634-1.059 7.44 25.296-3.634 1.088zM253.949 327.418l-7.669 3.119-1.259-3.091 18.801-7.669 1.288 3.062-7.67 3.148 8.843 21.29-3.549 1.431zM282.364 326.903l-16.912-7.755 3.835-2.318 12.934 6.038.43-14.079 3.806-2.29-.831 18.429 5.781 9.443-3.263 1.946zM308.548 291.762l5.666 12.906 7.44-7.498zm-3.863-1.173 2.804-2.833 26.842 10.559-2.919 2.947-6.668-2.747-9.157 9.186 2.891 6.582-2.805 2.804zM317.877 275.995l8.213-11.389 2.718 1.945-5.981 8.328 6.296 4.464 5.752-7.955 2.747 1.916-5.752 7.984 9.844 6.983-2.203 3.061zM341.571 245.376a10.5 10.5 0 0 0-3.835 4.149c-2.833 5.408-.772 10.989 4.55 13.736 5.552 2.861 11.275.772 13.822-4.092.857-1.66 1.603-4.15 1.516-5.695l3.376 1.489c-.166 2.175-1.231 4.407-1.946 5.78-3.863 7.412-11.217 9.873-18.715 6.01-7.268-3.721-9.386-11.447-5.694-18.572.972-1.832 2.175-3.463 3.777-4.75z"/></g></g></svg>