<svg xmlns="http://www.w3.org/2000/svg" width="211" height="512" fill="none" viewBox="0 0 211 512"><clipPath id="a"><path d="M0 0h211v512H0z"/></clipPath><mask id="b" width="210" height="511" x="1" y="0" fill="#000" maskUnits="userSpaceOnUse"><path fill="#fff" d="M1 0h210v511H1z"/><path d="M24.56 400.934a5.776 5.776 0 0 0-5.376 2.15 19.81 19.81 0 0 0-4.744 14.814v-.006c.028 1.271.276 2.527.733 3.714a6.13 6.13 0 0 0 4.081 3.96 5.97 5.97 0 0 0 5.258-2.726 20.86 20.86 0 0 0 3.584-18.066 5.22 5.22 0 0 0-3.536-3.84m125.642 54.818c.887-3.54.432-7.282-1.278-10.507a10.79 10.79 0 0 0-6.85-5.23l-3.093-.652a281 281 0 0 1-13.436-3.018c-8.525-2.131-15.842 1.773-19.881 10.475a368 368 0 0 0 12.231 3.333 41 41 0 0 0 .781-5.289 2.444 2.444 0 0 1 4.26-1.475c.43.482.652 1.114.616 1.759a46 46 0 0 1-.907 6.161c.789.185 1.576.37 2.355.547q1.2.272 2.36.518c.698-3.429 1.141-6.346 1.152-6.402a2.442 2.442 0 0 1 4.83.733c-.037.233-.486 3.152-1.205 6.651 1.64.317 3.187.599 4.658.846.33-1.769.556-3.556.677-5.351a2.44 2.44 0 0 1 2.555-2.319 2.44 2.44 0 0 1 2.321 2.553 49 49 0 0 1-.717 5.852c3.381.459 6.222.708 8.571.815m-45.225 5.965a14.03 14.03 0 0 0 7.695 7.347 113 113 0 0 0 18.791 3.676c7.744.856 13.799-3.453 17.257-12.163-2.591-.148-5.37-.448-8.238-.851a25.2 25.2 0 0 1-2.113 5.05 2.443 2.443 0 0 1-4.471-.565 2.44 2.44 0 0 1 .228-1.85 19 19 0 0 0 1.472-3.402 198 198 0 0 1-4.546-.837 37 37 0 0 1-1.735 5.385 2.435 2.435 0 0 1-2.285 1.47 2.43 2.43 0 0 1-1.717-.749 2.45 2.45 0 0 1-.68-1.743c.006-.321.077-.638.206-.931a31.6 31.6 0 0 0 1.429-4.417c-.787-.177-1.576-.349-2.35-.523-.824-.188-1.659-.384-2.497-.58a46 46 0 0 1-1.592 4.368 2.438 2.438 0 1 1-4.492-1.897 42 42 0 0 0 1.329-3.633c-4.114-1.041-8.34-2.2-12.626-3.448a15.67 15.67 0 0 0 .935 10.293m54.323-62.14c-3.693-9.681-16.047-16.54-32.327-20.221-30.081-6.799-69.609 4.43-94.758 25.571.92 4.198.706 8.566-.62 12.654a410.4 410.4 0 0 0 69.343 27.836c5.849-13.427 17.056-15.987 25.791-13.805a272 272 0 0 0 13.224 2.97l3.233.684a15.69 15.69 0 0 1 9.983 7.567 19.25 19.25 0 0 1 1.995 12.925 8.9 8.9 0 0 0 4.882-1.1 80.56 80.56 0 0 0-.746-55.081m-28.374 78.011a116.3 116.3 0 0 1-19.849-3.917 18.869 18.869 0 0 1-10.531-9.898 19.9 19.9 0 0 1-1.836-7.61 22 22 0 0 1 .644-6.137 418.4 418.4 0 0 1-69.644-27.929 20 20 0 0 1-2.212 3.26 12.5 12.5 0 0 1-4.536 3.496 100.75 100.75 0 0 0 15.488 43.264c11.205 17.294 26.467 29.145 42.957 32.872 5.845 1.321 13.487 2.963 20.318 1.449a80.4 80.4 0 0 0 33.577-16.385 80.3 80.3 0 0 0 22.534-29.787 29 29 0 0 1-3.939.381c-5.784 16.907-17.945 17.497-22.971 16.941m-117.71-71.365a20.8 20.8 0 0 1 3.098-5.079 13.4 13.4 0 0 1 3.174-2.791 72.6 72.6 0 0 1 18.34-35.652 80.53 80.53 0 0 0-29.521 39.452 25.2 25.2 0 0 0 4.908 4.07m-1.553 4.736a46 46 0 0 1-4.868-3.869 80 80 0 0 0-2.725 24.312c.07 1.693.19 3.381.362 5.047a51.4 51.4 0 0 1 7.025-15.468 24 24 0 0 1 .206-10.022m6.431 18.345a7.83 7.83 0 0 1-4.479-3.182c-5.985 9.217-8.503 17.459-6.307 24.862a80.3 80.3 0 0 0 25.993 39.115A80.38 80.38 0 0 0 76.74 508c-31.373-9.52-54.586-42.183-58.646-78.696M56.725 49.371a52.2 52.2 0 0 0-1.353-12.15s7.217-.378 7.217-9.16c0-7.234-4.83-12.17-6.127-12.17-1.047 0-1.302 1.105-3.566 1.105-5.518 0-5.923-7.041-5.923-7.041q1.225-.045 2.518-.043c15.792 0 30.404 4.781 30.404 39.46a313 313 0 0 1-2.288 34.302 207 207 0 0 0-1.756 28.219s-27.498-3.236-27.498-23.908c0-13.42 8.372-16.686 8.372-38.614m43.733 229.066c0 27.139-11.584 49.205-18.278 55.895-20.734 20.722-37.847 5.632-38.032 26.427-9.409 8.516-16.178 21.465-19.5 36.255q.309.027.613.086a7.74 7.74 0 0 1 4.9 3.22c26.339-21.452 66.895-32.727 97.892-25.724a54.9 54.9 0 0 1 24.544 11.425 80.56 80.56 0 0 0-41.267-33.422c-4.087-1.462-11.342-3.139-11.342-16.376 0-24.707 27.05-5.498 44.868-32.41.876-1.323-.384-2.488-1.428-1.444-5.392 5.385-18.63 9.088-25.635 9.088a20.44 20.44 0 0 1-9.648-1.594 193 193 0 0 1 14.86-24.361c-16.541-16.534 11.301-107.43 84.984-107.43a230.5 230.5 0 0 0-4.938-49.763c-1.753.424-15.636 3.697-16.269.778-.559-2.581 10.225-8.184 13.936-10.024a82.7 82.7 0 0 0-7.226-18.515c-63.154 19.886-50.462 72.136-65.847 72.136-10.013 0-17.878-7.792-20.687-10.599-37.72-37.688-20.143-62.629-20.143-112.714C86.815 15.633 73.703 3 49.49 3 25.274 3 16.628 13.473 16.628 13.473s33.177 1.073 33.177 35.898c0 36.455-41.085 46.517-41.085 92.764 0 76.987 91.738 75.544 91.738 136.302"/></mask><g clip-path="url(#a)"><path fill="#fff" stroke="#000" d="M62.5 7 42 9.5l9 25v31L39 97l15.5 21H80l3.5-68L80 22z"/><circle cx="84" cy="428" r="84" fill="#fff"/><path fill="#132257" d="M24.56 400.934a5.776 5.776 0 0 0-5.376 2.15 19.81 19.81 0 0 0-4.744 14.814v-.006c.028 1.271.276 2.527.733 3.714a6.13 6.13 0 0 0 4.081 3.96 5.97 5.97 0 0 0 5.258-2.726 20.86 20.86 0 0 0 3.584-18.066 5.22 5.22 0 0 0-3.536-3.84m125.642 54.818c.887-3.54.432-7.282-1.278-10.507a10.79 10.79 0 0 0-6.85-5.23l-3.093-.652a281 281 0 0 1-13.436-3.018c-8.525-2.131-15.842 1.773-19.881 10.475a368 368 0 0 0 12.231 3.333 41 41 0 0 0 .781-5.289 2.444 2.444 0 0 1 4.26-1.475c.43.482.652 1.114.616 1.759a46 46 0 0 1-.907 6.161c.789.185 1.576.37 2.355.547q1.2.272 2.36.518c.698-3.429 1.141-6.346 1.152-6.402a2.442 2.442 0 0 1 4.83.733c-.037.233-.486 3.152-1.205 6.651 1.64.317 3.187.599 4.658.846.33-1.769.556-3.556.677-5.351a2.44 2.44 0 0 1 2.555-2.319 2.44 2.44 0 0 1 2.321 2.553 49 49 0 0 1-.717 5.852c3.381.459 6.222.708 8.571.815m-45.225 5.965a14.03 14.03 0 0 0 7.695 7.347 113 113 0 0 0 18.791 3.676c7.744.856 13.799-3.453 17.257-12.163-2.591-.148-5.37-.448-8.238-.851a25.2 25.2 0 0 1-2.113 5.05 2.443 2.443 0 0 1-4.471-.565 2.44 2.44 0 0 1 .228-1.85 19 19 0 0 0 1.472-3.402 198 198 0 0 1-4.546-.837 37 37 0 0 1-1.735 5.385 2.435 2.435 0 0 1-2.285 1.47 2.43 2.43 0 0 1-1.717-.749 2.45 2.45 0 0 1-.68-1.743c.006-.321.077-.638.206-.931a31.6 31.6 0 0 0 1.429-4.417c-.787-.177-1.576-.349-2.35-.523-.824-.188-1.659-.384-2.497-.58a46 46 0 0 1-1.592 4.368 2.438 2.438 0 1 1-4.492-1.897 42 42 0 0 0 1.329-3.633c-4.114-1.041-8.34-2.2-12.626-3.448a15.67 15.67 0 0 0 .935 10.293m54.323-62.14c-3.693-9.681-16.047-16.54-32.327-20.221-30.081-6.799-69.609 4.43-94.758 25.571.92 4.198.706 8.566-.62 12.654a410.4 410.4 0 0 0 69.343 27.836c5.849-13.427 17.056-15.987 25.791-13.805a272 272 0 0 0 13.224 2.97l3.233.684a15.69 15.69 0 0 1 9.983 7.567 19.25 19.25 0 0 1 1.995 12.925 8.9 8.9 0 0 0 4.882-1.1 80.56 80.56 0 0 0-.746-55.081m-28.374 78.011a116.3 116.3 0 0 1-19.849-3.917 18.869 18.869 0 0 1-10.531-9.898 19.9 19.9 0 0 1-1.836-7.61 22 22 0 0 1 .644-6.137 418.4 418.4 0 0 1-69.644-27.929 20 20 0 0 1-2.212 3.26 12.5 12.5 0 0 1-4.536 3.496 100.75 100.75 0 0 0 15.488 43.264c11.205 17.294 26.467 29.145 42.957 32.872 5.845 1.321 13.487 2.963 20.318 1.449a80.4 80.4 0 0 0 33.577-16.385 80.3 80.3 0 0 0 22.534-29.787 29 29 0 0 1-3.939.381c-5.784 16.907-17.945 17.497-22.971 16.941m-117.71-71.365a20.8 20.8 0 0 1 3.098-5.079 13.4 13.4 0 0 1 3.174-2.791 72.6 72.6 0 0 1 18.34-35.652 80.53 80.53 0 0 0-29.521 39.452 25.2 25.2 0 0 0 4.908 4.07m-1.553 4.736a46 46 0 0 1-4.868-3.869 80 80 0 0 0-2.725 24.312c.07 1.693.19 3.381.362 5.047a51.4 51.4 0 0 1 7.025-15.468 24 24 0 0 1 .206-10.022m6.431 18.345a7.83 7.83 0 0 1-4.479-3.182c-5.985 9.217-8.503 17.459-6.307 24.862a80.3 80.3 0 0 0 25.993 39.115A80.38 80.38 0 0 0 76.74 508c-31.373-9.52-54.586-42.183-58.646-78.696M56.725 49.371a52.2 52.2 0 0 0-1.353-12.15s7.217-.378 7.217-9.16c0-7.234-4.83-12.17-6.127-12.17-1.047 0-1.302 1.105-3.566 1.105-5.518 0-5.923-7.041-5.923-7.041q1.225-.045 2.518-.043c15.792 0 30.404 4.781 30.404 39.46a313 313 0 0 1-2.288 34.302 207 207 0 0 0-1.756 28.219s-27.498-3.236-27.498-23.908c0-13.42 8.372-16.686 8.372-38.614m43.733 229.066c0 27.139-11.584 49.205-18.278 55.895-20.734 20.722-37.847 5.632-38.032 26.427-9.409 8.516-16.178 21.465-19.5 36.255q.309.027.613.086a7.74 7.74 0 0 1 4.9 3.22c26.339-21.452 66.895-32.727 97.892-25.724a54.9 54.9 0 0 1 24.544 11.425 80.56 80.56 0 0 0-41.267-33.422c-4.087-1.462-11.342-3.139-11.342-16.376 0-24.707 27.05-5.498 44.868-32.41.876-1.323-.384-2.488-1.428-1.444-5.392 5.385-18.63 9.088-25.635 9.088a20.44 20.44 0 0 1-9.648-1.594 193 193 0 0 1 14.86-24.361c-16.541-16.534 11.301-107.43 84.984-107.43a230.5 230.5 0 0 0-4.938-49.763c-1.753.424-15.636 3.697-16.269.778-.559-2.581 10.225-8.184 13.936-10.024a82.7 82.7 0 0 0-7.226-18.515c-63.154 19.886-50.462 72.136-65.847 72.136-10.013 0-17.878-7.792-20.687-10.599-37.72-37.688-20.143-62.629-20.143-112.714C86.815 15.633 73.703 3 49.49 3 25.274 3 16.628 13.473 16.628 13.473s33.177 1.073 33.177 35.898c0 36.455-41.085 46.517-41.085 92.764 0 76.987 91.738 75.544 91.738 136.302"/><path stroke="#fff" stroke-width="6" d="M24.56 400.934a5.776 5.776 0 0 0-5.376 2.15 19.81 19.81 0 0 0-4.744 14.814v-.006c.028 1.271.276 2.527.733 3.714a6.13 6.13 0 0 0 4.081 3.96 5.97 5.97 0 0 0 5.258-2.726 20.86 20.86 0 0 0 3.584-18.066 5.22 5.22 0 0 0-3.536-3.84zm125.642 54.818c.887-3.54.432-7.282-1.278-10.507a10.79 10.79 0 0 0-6.85-5.23l-3.093-.652a281 281 0 0 1-13.436-3.018c-8.525-2.131-15.842 1.773-19.881 10.475a368 368 0 0 0 12.231 3.333 41 41 0 0 0 .781-5.289 2.444 2.444 0 0 1 4.26-1.475c.43.482.652 1.114.616 1.759a46 46 0 0 1-.907 6.161c.789.185 1.576.37 2.355.547q1.2.272 2.36.518c.698-3.429 1.141-6.346 1.152-6.402a2.442 2.442 0 0 1 4.83.733c-.037.233-.486 3.152-1.205 6.651 1.64.317 3.187.599 4.658.846.33-1.769.556-3.556.677-5.351a2.44 2.44 0 0 1 2.555-2.319 2.44 2.44 0 0 1 2.321 2.553 49 49 0 0 1-.717 5.852c3.381.459 6.222.708 8.571.815zm-45.225 5.965a14.03 14.03 0 0 0 7.695 7.347 113 113 0 0 0 18.791 3.676c7.744.856 13.799-3.453 17.257-12.163-2.591-.148-5.37-.448-8.238-.851a25.2 25.2 0 0 1-2.113 5.05 2.443 2.443 0 0 1-4.471-.565 2.44 2.44 0 0 1 .228-1.85 19 19 0 0 0 1.472-3.402 198 198 0 0 1-4.546-.837 37 37 0 0 1-1.735 5.385 2.435 2.435 0 0 1-2.285 1.47 2.43 2.43 0 0 1-1.717-.749 2.45 2.45 0 0 1-.68-1.743c.006-.321.077-.638.206-.931a31.6 31.6 0 0 0 1.429-4.417c-.787-.177-1.576-.349-2.35-.523-.824-.188-1.659-.384-2.497-.58a46 46 0 0 1-1.592 4.368 2.438 2.438 0 1 1-4.492-1.897 42 42 0 0 0 1.329-3.633c-4.114-1.041-8.34-2.2-12.626-3.448a15.67 15.67 0 0 0 .935 10.293zm54.323-62.14c-3.693-9.681-16.047-16.54-32.327-20.221-30.081-6.799-69.609 4.43-94.758 25.571.92 4.198.706 8.566-.62 12.654a410.4 410.4 0 0 0 69.343 27.836c5.849-13.427 17.056-15.987 25.791-13.805a272 272 0 0 0 13.224 2.97l3.233.684a15.69 15.69 0 0 1 9.983 7.567 19.25 19.25 0 0 1 1.995 12.925 8.9 8.9 0 0 0 4.882-1.1 80.56 80.56 0 0 0-.746-55.081zm-28.374 78.011a116.3 116.3 0 0 1-19.849-3.917 18.869 18.869 0 0 1-10.531-9.898 19.9 19.9 0 0 1-1.836-7.61 22 22 0 0 1 .644-6.137 418.4 418.4 0 0 1-69.644-27.929 20 20 0 0 1-2.212 3.26 12.5 12.5 0 0 1-4.536 3.496 100.75 100.75 0 0 0 15.488 43.264c11.205 17.294 26.467 29.145 42.957 32.872 5.845 1.321 13.487 2.963 20.318 1.449a80.4 80.4 0 0 0 33.577-16.385 80.3 80.3 0 0 0 22.534-29.787 29 29 0 0 1-3.939.381c-5.784 16.907-17.945 17.497-22.971 16.941zm-117.71-71.365a20.8 20.8 0 0 1 3.098-5.079 13.4 13.4 0 0 1 3.174-2.791 72.6 72.6 0 0 1 18.34-35.652 80.53 80.53 0 0 0-29.521 39.452 25.2 25.2 0 0 0 4.908 4.07zm-1.553 4.736a46 46 0 0 1-4.868-3.869 80 80 0 0 0-2.725 24.312c.07 1.693.19 3.381.362 5.047a51.4 51.4 0 0 1 7.025-15.468 24 24 0 0 1 .206-10.022zm6.431 18.345a7.83 7.83 0 0 1-4.479-3.182c-5.985 9.217-8.503 17.459-6.307 24.862a80.3 80.3 0 0 0 25.993 39.115A80.38 80.38 0 0 0 76.74 508c-31.373-9.52-54.586-42.183-58.646-78.696zM56.725 49.371a52.2 52.2 0 0 0-1.353-12.15s7.217-.378 7.217-9.16c0-7.234-4.83-12.17-6.127-12.17-1.047 0-1.302 1.105-3.566 1.105-5.518 0-5.923-7.041-5.923-7.041q1.225-.045 2.518-.043c15.792 0 30.404 4.781 30.404 39.46a313 313 0 0 1-2.288 34.302 207 207 0 0 0-1.756 28.219s-27.498-3.236-27.498-23.908c0-13.42 8.372-16.686 8.372-38.614zm43.733 229.066c0 27.139-11.584 49.205-18.278 55.895-20.734 20.722-37.847 5.632-38.032 26.427-9.409 8.516-16.178 21.465-19.5 36.255q.309.027.613.086a7.74 7.74 0 0 1 4.9 3.22c26.339-21.452 66.895-32.727 97.892-25.724a54.9 54.9 0 0 1 24.544 11.425 80.56 80.56 0 0 0-41.267-33.422c-4.087-1.462-11.342-3.139-11.342-16.376 0-24.707 27.05-5.498 44.868-32.41.876-1.323-.384-2.488-1.428-1.444-5.392 5.385-18.63 9.088-25.635 9.088a20.44 20.44 0 0 1-9.648-1.594 193 193 0 0 1 14.86-24.361c-16.541-16.534 11.301-107.43 84.984-107.43a230.5 230.5 0 0 0-4.938-49.763c-1.753.424-15.636 3.697-16.269.778-.559-2.581 10.225-8.184 13.936-10.024a82.7 82.7 0 0 0-7.226-18.515c-63.154 19.886-50.462 72.136-65.847 72.136-10.013 0-17.878-7.792-20.687-10.599-37.72-37.688-20.143-62.629-20.143-112.714C86.815 15.633 73.703 3 49.49 3 25.274 3 16.628 13.473 16.628 13.473s33.177 1.073 33.177 35.898c0 36.455-41.085 46.517-41.085 92.764 0 76.987 91.738 75.544 91.738 136.302z" mask="url(#b)"/></g></svg>