<svg xmlns="http://www.w3.org/2000/svg" width="780.969" height="933.333" viewBox="0 0 780.969 933.333"><clipPath id="a"><path d="M0 1080h1080V0H0z"/></clipPath><clipPath id="b"><path d="m388.019 602.174-31.259 1.72 29.679-16.928 8.998-12.215 17.273-62.306s16.777-97.987 125.998-98.474c26.821-.119 25.408 3.177 25.408 3.177l2.101.847s15.794 5.946 16.028 6.779c.232.828 9.956 11.094 9.956 11.094l38.04 26.633-81.116 7.635-40.926 16.382-18.843 20.512-8.367 15.15-4.475 15.777-9.891 48.747-20.017 20.017-17.06 2.973-24.307-2.309-8.306 4.741-27.075 13.317z"/></clipPath><linearGradient id="c" x1="0" x2="1" y1="0" y2="0" gradientTransform="scale(306.56375 -306.56375)rotate(22.059 5.29 1.933)" gradientUnits="userSpaceOnUse" spreadMethod="pad"><stop offset="0" stop-color="#fff"/><stop offset=".271" stop-color="#fff"/><stop offset=".612" stop-color="#e4c79d"/><stop offset="1" stop-color="#e4c79d"/></linearGradient><clipPath id="d"><path d="M0 1080h1080V0H0z"/></clipPath><g clip-path="url(#a)" transform="matrix(1.33333 0 0 -1.33333 -329.515 1186.667)"><path fill="#fff" d="m258.51 866.073-11.373-2.182V522.016c-.015-2.633.058-66.246 35.737-139.27 20.957-42.894 49.91-80.074 86.05-110.513 44.967-37.87 101.13-65.24 166.926-81.354l1.33-.326 2.347-.553 3.002.48 1.633.4c65.797 16.112 121.957 43.483 166.923 81.351 36.142 30.445 65.094 67.625 86.045 110.514 35.593 72.858 35.746 136.653 35.733 139.332v341.816l-11.36 2.178c-1.27.242-127.678 23.93-281.49 23.93-153.729 0-280.243-23.688-281.503-23.928"/><path fill="#002e6e" d="M820.107 858.79c-1.243.236-126.078 23.797-280.095 23.797-154.028 0-278.874-23.56-280.12-23.797l-5.342-1.025V522.016c-.014-2.578.1-64.618 34.985-136.017 20.5-41.959 48.817-78.326 84.165-108.096 44.084-37.125 99.233-63.984 163.913-79.822l1.335-.328.854-.202 1.259.202 1.339.328c64.682 15.838 119.827 42.697 163.909 79.822 35.346 29.77 63.663 66.137 84.16 108.096 34.882 71.4 34.993 133.441 34.984 136.048v335.718z"/><path fill="#fff" d="M697.707 288.115c-.873-.736-1.784-1.445-2.665-2.173v366.34H630.32V244.09c-17.777-8.922-36.697-16.694-56.75-23.243v431.436h-69.51V221.65c-20.654 6.874-40.12 15.03-58.335 24.443v406.19h-64.726V289.24a314.5 314.5 0 0 0-56.738 63.356v299.686H267.9v194.379c25.572 4.453 137.906 22.576 272.112 22.576 134.169 0 246.533-18.126 272.088-22.576v-194.38h-58.726v-303.18c-15.78-22.661-34.397-43.071-55.667-60.987"/><g fill="#002e6e"><path d="m348.098 717.502-15.714 40.873-16.002-40.873zm-23.066 62.158h15.713l43.967-100.472h-20.757l-9.515 22.99h-44.256l-9.227-22.99H280.63zM391.774 779.66h18.164v-84.296h43.39v-16.175h-61.554zM480.431 694.514h16.721c9.371 0 22.344 1.56 22.344 14.759 0 10.502-6.918 14.192-21.622 14.192h-17.443zm0 44.277h16.578c12.108 0 18.163 5.108 18.163 12.63 0 8.657-6.055 12.915-19.749 12.915h-14.992zm-18.166 40.869h39.788c15.426 0 31.284-6.952 31.284-25.26 0-11.351-7.209-18.872-17.732-21.995v-.285c12.83-1.417 22.056-11.351 22.056-24.266 0-21.855-19.317-28.666-38.634-28.666h-36.762zM546.597 779.66h18.167V679.189h-18.167zM628.479 692.811c21.191 0 35.176 15.894 35.176 37.322 0 20.01-13.985 35.904-35.176 35.904-21.046 0-35.031-15.894-35.031-35.904 0-21.428 13.985-37.322 35.031-37.322m-.145 89.406c31.86.567 54.351-20.438 54.351-52.65 0-31.364-22.491-52.366-54.351-52.934-31.426 0-53.913 21.004-53.913 52.366 0 32.214 22.487 53.218 53.913 53.218M692.771 779.66h24.073l49.448-74.644.29-.284h-.29l.29.284v74.644h18.162V679.189h-23.067l-50.452 77.057h-.289v-77.057h-18.165zM282.44 833.387h7.817l7.533-28.44h.115l9.005 28.44h7.024l8.835-28.44h.114l7.875 28.44h7.25l-11.67-39.481h-6.796l-9.29 30.056h-.114l-9.289-30.056h-6.569zM343.898 833.387h26.567v-6.357h-19.43v-9.703h18.41v-6.357h-18.41v-10.707h20.448v-6.357h-27.585zM399.58 824.91c-1.53 2.12-4.248 3.122-7.024 3.122-3.286 0-6.57-1.448-6.57-5.074 0-7.918 19.031-3.401 19.031-17.453 0-8.477-6.798-12.603-14.67-12.603-4.985 0-9.857 1.507-13.142 5.354l5.381 5.13c1.757-2.62 4.76-4.126 7.93-4.126 3.286 0 7.024 1.785 7.024 5.409 0 8.643-19.033 3.679-19.033 17.787 0 8.142 7.365 11.934 14.785 11.934 4.191 0 8.383-1.171 11.498-4.071zM422.066 827.03h-12.29v6.356h31.72v-6.357h-12.293v-33.124h-7.137zM473.102 799.927h6.57c3.683 0 8.78.616 8.78 5.802 0 4.124-2.718 5.575-8.495 5.575h-6.855zm0 17.4h6.516c4.756 0 7.134 2.006 7.134 4.961 0 3.402-2.378 5.074-7.76 5.074h-5.89zm-7.137 16.06H481.6c6.06 0 12.29-2.733 12.29-9.927 0-4.462-2.832-7.416-6.967-8.643v-.113c5.043-.556 8.667-4.458 8.667-9.535 0-8.586-7.59-11.264-15.181-11.264h-14.444zM515.925 816.657c4.021 0 8.724.334 8.724 5.463 0 4.685-4.42 5.242-8.1 5.242h-6.177v-10.705zm-12.689 16.73h13.935c7.702 0 14.954-2.455 14.954-11.32 0-5.688-3.342-9.87-9.29-10.707l10.65-17.455h-8.612l-9.289 16.73h-5.212v-16.73h-7.136zM558.01 799.26c8.328 0 13.823 6.244 13.823 14.665 0 7.863-5.495 14.107-13.823 14.107-8.268 0-13.763-6.244-13.763-14.107 0-8.421 5.495-14.665 13.763-14.665m-.058 35.13c12.521.222 21.357-8.03 21.357-20.688 0-12.324-8.836-20.577-21.357-20.8-12.348 0-21.183 8.253-21.183 20.579 0 12.657 8.835 20.909 21.183 20.909M585.993 833.387h10.875l10.708-27.658 10.82 27.657h10.76v-39.48h-6.797v32.79h-.116l-12.177-32.79h-4.985l-12.178 32.79h-.114v-32.79h-6.796zM635.217 833.387h7.817l7.534-28.44h.113l9.007 28.44h7.023l8.836-28.44h.115l7.875 28.44h7.249l-11.672-39.481h-6.795l-9.29 30.056h-.113l-9.29-30.056h-6.572zM696.221 833.386h7.138v-39.481h-7.138zM739.67 824.13c-2.948 3.067-5.665 3.902-8.441 3.902-8.27 0-13.766-6.244-13.766-14.107 0-8.42 5.495-14.665 13.765-14.665 3.23 0 6.345 1.45 9.005 4.795l5.891-4.127c-3.622-4.907-9.062-7.026-14.953-7.026-12.348 0-21.185 8.254-21.185 20.579 0 12.657 8.837 20.909 21.185 20.909 5.438 0 10.083-1.728 14.048-6.245zM752.356 833.387h7.138v-15.725h18.75v15.724h7.138v-39.48h-7.138v17.398h-18.75v-17.398h-7.138z"/></g><path fill="#fff" d="M609.076 420.577c-2.554-4.091-6.621-6.24-6.698-6.281-8.9-3.798-15.72-8.383-21.007-13.218 2.062 3.086 4.084 5.87 5.98 8.138 0 0 3.446 3.731 4.23 4.385 2.45 2.502 10.24 9.066 16.816 9.37l.366.015.392.072c.025.005.774.137 2.14.247zm-74.734-62.435a17.5 17.5 0 0 1-3.62 9.165c1.624 1.502 8.985 8.296 16.799 15.102-2.635-7.683-5.596-15.922-7.592-20.259l-1.628-3.537a49 49 0 0 0-3.96-.471m-26.764 15.988c-2.972 11.024-8.503 31.541-34.243 45.147l-.1.053-.103.047c-3.852 1.783-8.744 4.571-9.927 5.959l-5.344 6.274c15.26-10.603 35.06-18.797 60.905-21.834 3.292-.579 13.97-2.433 22.95-3.739-6.537-6.291-16.706-16.884-25.188-29.306l-1.875-2.746a16.9 16.9 0 0 1-6.37-2.213 48 48 0 0 0-.705 2.358m151.094-57.373-.226 1.193c-.796 3.061-3.72 11.934-8.334 17.586 12.007 1.777 26.667 6.142 33.43 16.311l1.682 2.533-1.81 2.417c-7.53 9.922-22.823 13.875-34.84 15.441 4.475 5.989 6.326 13.404 6.573 14.466l1.286 5.954s-3.473-.885-6.48-.855c-.535-.072-2.406-.004-3.681.102-5.467.734-12.83.036-14.263-.115-4.853-.477-9.071-1.698-12.735-3.175 1.387 4.593 2.128 9.245 2.128 12.416 0 .558-.021 1.069-.06 1.52-.327 3.764-4.235 16.174-4.946 18.366l-1.383 2.542c4.376.034 11.052-.386 19.565-2.367 1.988-.604 29.176-8.945 58.49-22.862 1.103-.583 31.656-16.323 54.007-3.754 0 0 2.839 2.375 3.908 5.04l-16.663 8.666s11.465-1.469 18.663 1.332c-2.796 12.131-12.131 16.532-12.131 16.532 7.466-.936 12.13 1.731 12.13 1.731-.667 1.866-2 4.399-2 4.399-.463.566-7.28 13.025-28.83 22.172.384.649.589 1.354.714 2.107l-.081-.63c.183.532.403 1.164.403 1.975 0 3.68-4.506 13.591-37.266 28.953l-.183.098-.187.085c-.905.408-21.81 9.777-37.581 13.535-9.132 7.471-77.634 61.635-163.806 79.475-3.418 4.872-13.215 18.679-18.208 24.056-1.802 2.381-18.25 23.15-43.598 22.816-.392.007-12.137.011-23.056-5.283-2.8-.1-5.208 1.277-5.234 1.292-13.32 7.41-23.573 12.548-23.673 12.598l-.55.276-.568.251c-5.293 1.269-7.626-1.931-8.207-2.91-1.995-3.357-.448-6.246.112-7.334l.042-.025c1.292-2.492 5.906-8.696 10.2-14.288-9.115.709-14.083.381-16.9-.401l.039.034c-.084-.017-.138-.056-.22-.074-.036-.01-.067-.022-.103-.033-3.076-.708-4.437-2.69-4.954-3.855a6.6 6.6 0 0 1-.577-2.715c0-1.967.84-3.543 1.187-4.107l-.133.23c.443-.814 1.795-3.289 9.599-6.841 8.147-3.755 21.142-11.588 22.288-12.283 6.22-4.285 12.026-22.436 14.225-32.893l.05-.223c5.325-20.874 10.547-37.087 11.846-41.505 5.237-17.541 16.636-50.891 48.306-73.829l-.395-10.169c-.12-3.059-.51-11.582-.884-14.234l-.001-.006c-.127-.905-.194-2.029-.194-3.31 0-2.945.41-6.702 1.206-10.45-3.207 1.558-6.912 2.886-11.163 3.589-.283.049-7.785 1.34-13.28.881-1.29-.034-2.85.006-3.292.089-2.426.196-6.173 2.205-6.173 2.205l.689-6.913c.165-1.081 1.455-8.666 5.312-14.912-11.274-.934-25.688-4.067-33.295-13.623l-1.751-2.201 1.368-2.481c5.737-10.714 19.15-15.805 29.98-18.218-4.655-5.406-7.16-12.284-7.508-13.289l-1.49-4.946s4.16-.234 6.673-.706c.467.001 1.416-.201 2.668-.462 5.313-1.399 12.912-1.441 13.238-1.441 4.853-.049 9.608.813 13.345 2.004a23.6 23.6 0 0 1-.232-3.162c0-2.694.388-5.261.707-7.355l.383-3.299c-.08-2.822-.642-11.01-1.143-13.915l.236-8.949 5.45 4.931c1.474 1.205 7.078 3.391 11.423 4.721 8.12 2.596 14.006 5.976 18.543 9.747-.82-3.92-1.396-8.094-1.396-12.744 0-2.622.152-5.365.48-8.236.46-3.116.779-6.849.779-9.43 0-1.181-.067-2.122-.218-2.654l-.914-8.943 7.406 4.226c2.668 1.793 10.122 6.704 12.53 7.896 2.788 1.379 7.258 4.719 11.158 8.76.523-3.482 1.499-7.217 3.346-11.052.117-.249 3.32-7.038 6.878-11.216.75-.994 1.594-2.249 1.78-2.654 1.409-2.553 2.588-5.85 2.588-5.85l4.348 4.012c.823.753 6.555 6.206 9.59 12.958 7.24-8.566 18.192-18.464 30.63-19.139l2.713-.149 1.258 2.431c2.224 4.152 3.1 8.723 3.1 13.352 0 7.492-2.313 15.081-4.92 21.342 7.224-.708 14.555 1.101 15.61 1.388l7.067 1.945s1.856-.357 1.485.009c2.382-1.107 2.248-1.022 4.872-1.962 3.8-1.246 10.06-3.708 11.763-5.147l6.917-4.195.095 7.845c-.257 2.82-.88 10.386-.88 13.715q.001.355.014.64.006.235.007.49c0 3.086-.962 8.209-2.852 13.246 3.714-1.239 7.944-2.192 12.742-2.405.319-.017 8.5-.415 14.227.673 1.447.2 2.058.398 2.552.355 0 0 4.186.564 7.419.224"/><path fill="#fff" d="M404.464 581.725c30.856-10.671 4.9 7.786 4.924 7.285 10.38-8.52-4.924-7.285-4.924-7.285"/><path fill="none" stroke="#fff" stroke-width="6.623" d="M404.464 581.725c30.856-10.671 4.9 7.786 4.924 7.285 10.38-8.52-4.924-7.285-4.924-7.285z"/><path fill="#fff" d="M417.482 591.207s-.431 6.568 6.811 7.267c7.257.698 11.627-4.21 12.957-6.584 1.338-2.39 2.95-6.88 3.682-9.709 0 0 1.098-2.984-1.648-1.607-2.746 1.387-6.38 3.653-14.93 4.21-6.549.428-6.872 6.423-6.872 6.423"/><path fill="none" stroke="#fff" stroke-width="6.623" d="M417.482 591.207s-.431 6.568 6.811 7.267c7.257.698 11.627-4.21 12.957-6.584 1.338-2.39 2.95-6.88 3.682-9.709 0 0 1.098-2.984-1.648-1.607-2.746 1.387-6.38 3.653-14.93 4.21-6.549.428-6.872 6.423-6.872 6.423z"/><path fill="#fff" d="M426.74 591.986c.073-1.38-.93-2.567-2.241-2.63-1.307-.066-2.423 1.015-2.495 2.39-.073 1.394.916 2.573 2.23 2.64 1.308.065 2.434-1.009 2.506-2.4"/><path fill="none" stroke="#fff" stroke-width="6.623" d="M426.74 591.986c.073-1.38-.93-2.567-2.241-2.63-1.307-.066-2.423 1.015-2.495 2.39-.073 1.394.916 2.573 2.23 2.64 1.308.065 2.434-1.009 2.506-2.4z"/><path fill="#fff" d="M603.695 480.858c33.66-5.076 22.725 10.148 22.481 10.365 17.734-4.295 19.27-11.646 19.512-11.853-21.666-8.762-41.993 1.488-41.993 1.488"/><path fill="none" stroke="#fff" stroke-width="6.623" d="M603.695 480.858c33.66-5.076 22.725 10.148 22.481 10.365 17.734-4.295 19.27-11.646 19.512-11.853-21.666-8.762-41.993 1.488-41.993 1.488z"/><path fill="#fff" d="M435.855 547.103c1.283-3.021 1.307-5.876.065-6.378-1.234-.513-3.285 1.526-4.576 4.535-1.277 3.022-1.313 5.871-.065 6.384 1.241.506 3.292-1.524 4.576-4.542"/><path fill="none" stroke="#fff" stroke-width="6.623" d="M435.855 547.103c1.283-3.021 1.307-5.876.065-6.378-1.234-.513-3.285 1.526-4.576 4.535-1.277 3.022-1.313 5.871-.065 6.384 1.241.506 3.292-1.524 4.576-4.542z"/><path fill="#fff" d="M447.288 527.934c2.237-3.133 3.04-6.344 1.805-7.183-1.236-.845-4.052 1.01-6.272 4.131-2.224 3.122-3.034 6.338-1.804 7.181 1.241.842 4.047-1.01 6.271-4.129"/><path fill="none" stroke="#fff" stroke-width="6.623" d="M447.288 527.934c2.237-3.133 3.04-6.344 1.805-7.183-1.236-.845-4.052 1.01-6.272 4.131-2.224 3.122-3.034 6.338-1.804 7.181 1.241.842 4.047-1.01 6.271-4.129z"/><path fill="#fff" d="M461.672 507.697c3.059-4.125 4.293-8.332 2.77-9.413-1.522-1.069-5.215 1.389-8.261 5.516-3.047 4.123-4.281 8.341-2.764 9.416 1.516 1.07 5.216-1.401 8.255-5.519"/><path fill="none" stroke="#fff" stroke-width="6.623" d="M461.672 507.697c3.059-4.125 4.293-8.332 2.77-9.413-1.522-1.069-5.215 1.389-8.261 5.516-3.047 4.123-4.281 8.341-2.764 9.416 1.516 1.07 5.216-1.401 8.255-5.519z"/><path fill="#fff" d="M479.15 486.225c3.045-4.116 4.287-8.324 2.766-9.401-1.52-1.072-5.218 1.39-8.264 5.515-3.046 4.129-4.288 8.338-2.759 9.41 1.518 1.074 5.217-1.393 8.257-5.524"/><path fill="none" stroke="#fff" stroke-width="6.623" d="M479.15 486.225c3.045-4.116 4.287-8.324 2.766-9.401-1.52-1.072-5.218 1.39-8.264 5.515-3.046 4.129-4.288 8.338-2.759 9.41 1.518 1.074 5.217-1.393 8.257-5.524z"/><path fill="#fff" d="M505.676 442.658c5.546-2.79 9.21-6.672 8.172-8.63-1.037-1.967-6.38-1.286-11.925 1.526-5.559 2.81-9.217 6.676-8.179 8.636 1.037 1.973 6.38 1.282 11.931-1.532"/><path fill="none" stroke="#fff" stroke-width="6.623" d="M505.676 442.658c5.546-2.79 9.21-6.672 8.172-8.63-1.037-1.967-6.38-1.286-11.925 1.526-5.559 2.81-9.217 6.676-8.179 8.636 1.037 1.973 6.38 1.282 11.931-1.532z"/><path fill="#fff" d="M502.427 467.83c4.88-3.805 7.699-8.307 6.289-10.03-1.415-1.733-6.518-.037-11.4 3.775-4.884 3.812-7.708 8.3-6.288 10.035 1.404 1.728 6.51.045 11.399-3.78"/><path fill="none" stroke="#fff" stroke-width="6.623" d="M502.427 467.83c4.88-3.805 7.699-8.307 6.289-10.03-1.415-1.733-6.518-.037-11.4 3.775-4.884 3.812-7.708 8.3-6.288 10.035 1.404 1.728 6.51.045 11.399-3.78z"/><path fill="#fff" d="M530.637 452.403c5.463-2.956 9.03-6.913 7.932-8.854-1.092-1.93-6.41-1.106-11.883 1.846-5.47 2.954-9.03 6.919-7.933 8.849 1.085 1.943 6.41 1.109 11.884-1.841"/><path fill="none" stroke="#fff" stroke-width="6.623" d="M530.637 452.403c5.463-2.956 9.03-6.913 7.932-8.854-1.092-1.93-6.41-1.106-11.883 1.846-5.47 2.954-9.03 6.919-7.933 8.849 1.085 1.943 6.41 1.109 11.884-1.841z"/></g><g clip-path="url(#b)" transform="matrix(1.33333 0 0 -1.33333 -329.515 1186.667)"><path fill="url(#c)" d="m388.019 602.174-31.259 1.72 29.679-16.928 8.998-12.215 17.273-62.306s16.777-97.987 125.998-98.474c26.821-.119 25.408 3.177 25.408 3.177l2.101.847s15.794 5.946 16.028 6.779c.232.828 9.956 11.094 9.956 11.094l38.04 26.633-81.116 7.635-40.926 16.382-18.843 20.512-8.367 15.15-4.475 15.777-9.891 48.747-20.017 20.017-17.06 2.973-24.307-2.309-8.306 4.741-27.075 13.317z"/></g><g clip-path="url(#d)" transform="matrix(1.33333 0 0 -1.33333 -329.515 1186.667)"><path fill="#815e2f" d="M404.464 581.725c30.856-10.671 4.9 7.786 4.924 7.285 10.38-8.52-4.924-7.285-4.924-7.285"/><path fill="#3b170b" d="M417.482 591.207s-.431 6.568 6.811 7.267c7.257.698 11.627-4.21 12.957-6.584 1.338-2.39 2.95-6.88 3.682-9.709 0 0 1.098-2.984-1.648-1.607-2.746 1.387-6.38 3.653-14.93 4.21-6.549.428-6.872 6.423-6.872 6.423"/><path fill="#fff" d="M426.74 591.986c.073-1.38-.93-2.567-2.241-2.63-1.307-.066-2.423 1.015-2.495 2.39-.073 1.394.916 2.573 2.23 2.64 1.308.065 2.434-1.009 2.506-2.4"/><g fill="#3b170b"><path d="M429.251 528.083c1.594-3.758 1.644-7.338.096-7.962-1.565-.63-4.113 1.91-5.72 5.685-1.607 3.771-1.643 7.336-.096 7.964 1.553.634 4.113-1.907 5.72-5.687M435.855 547.103c1.283-3.021 1.307-5.876.065-6.378-1.234-.513-3.285 1.526-4.576 4.535-1.277 3.022-1.313 5.871-.065 6.384 1.241.506 3.292-1.524 4.576-4.542M447.288 527.934c2.237-3.133 3.04-6.344 1.805-7.183-1.236-.845-4.052 1.01-6.272 4.131-2.224 3.122-3.034 6.338-1.804 7.181 1.241.842 4.047-1.01 6.271-4.129M440.722 503.564c2.519-4.457 3.207-8.77 1.576-9.656-1.648-.885-5.013 1.998-7.518 6.457-2.512 4.457-3.208 8.794-1.565 9.662 1.63.892 5-2.004 7.507-6.463M461.672 507.697c3.059-4.125 4.293-8.332 2.77-9.413-1.522-1.069-5.215 1.389-8.261 5.516-3.047 4.123-4.281 8.341-2.764 9.416 1.516 1.07 5.216-1.401 8.255-5.519M479.15 486.225c3.045-4.116 4.287-8.324 2.766-9.401-1.52-1.072-5.218 1.39-8.264 5.515-3.046 4.129-4.288 8.338-2.759 9.41 1.518 1.074 5.217-1.393 8.257-5.524M436.005 475.47c2.865-4.81 4.143-9.293 2.854-10.034-1.283-.727-4.648 2.565-7.515 7.383-2.859 4.808-4.136 9.314-2.847 10.039 1.296.737 4.658-2.573 7.508-7.387M454.873 451.935c4.048-3.895 6.374-8.036 5.192-9.207-1.206-1.174-5.444 1.028-9.504 4.934-4.052 3.909-6.368 8.036-5.172 9.209 1.18 1.185 5.436-1.033 9.484-4.936M479.216 434.374c5.06-2.547 8.525-5.81 7.746-7.28-.778-1.474-5.504-.597-10.558 1.968-5.043 2.552-8.526 5.814-7.74 7.285.773 1.462 5.508.6 10.552-1.973M505.676 442.658c5.546-2.79 9.21-6.672 8.172-8.63-1.037-1.967-6.38-1.286-11.925 1.526-5.559 2.81-9.217 6.676-8.179 8.636 1.037 1.973 6.38 1.282 11.931-1.532M456.143 480.117c4.048-4.661 5.925-9.607 4.203-11.035-1.726-1.428-6.397 1.19-10.445 5.859-4.035 4.66-5.924 9.586-4.197 11.024 1.715 1.435 6.392-1.196 10.439-5.848M478.024 457.93c4.808-3.922 7.531-8.473 6.084-10.162-1.438-1.703-6.512.087-11.312 4.003-4.815 3.907-7.539 8.449-6.087 10.152 1.445 1.709 6.512-.096 11.315-3.993M502.427 467.83c4.88-3.805 7.699-8.307 6.289-10.03-1.415-1.733-6.518-.037-11.4 3.775-4.884 3.812-7.708 8.3-6.288 10.035 1.404 1.728 6.51.045 11.399-3.78M530.637 452.403c5.463-2.956 9.03-6.913 7.932-8.854-1.092-1.93-6.41-1.106-11.883 1.846-5.47 2.954-9.03 6.919-7.933 8.849 1.085 1.943 6.41 1.109 11.884-1.841M535.602 433.64c5.372-1.034 9.424-3.344 9.045-5.155-.387-1.813-5.038-2.443-10.409-1.4-5.38 1.041-9.423 3.346-9.044 5.155.38 1.813 5.042 2.436 10.408 1.4M509.142 424.533c5.438-.739 9.642-2.739 9.396-4.45-.253-1.705-4.852-2.488-10.29-1.743-5.425.753-9.63 2.747-9.383 4.45.245 1.72 4.85 2.501 10.277 1.743M560.111 438.599c4.797-.928 8.466-2.843 8.172-4.286s-4.431-1.852-9.236-.928c-4.81.921-8.479 2.852-8.179 4.282.279 1.449 4.429 1.864 9.243.932M423.64 501.306c1.643-4.227 2.027-8.006.86-8.432-1.172-.434-3.443 2.64-5.08 6.86-1.645 4.224-2.034 8.008-.87 8.442 1.17.432 3.453-2.637 5.09-6.87"/></g><path fill="#00a562" d="M631.88 368.967c1.803 1.915 9.18 1.754 9.18 1.754 7.12 4.869 9.923 16.949 9.923 16.949-.977-.366-5.108-.021-5.108-.021-5.36.762-13.437-.11-13.437-.11-15.873-1.563-25.088-11.553-25.088-11.553 1.183 4.359 5.067 7.027 5.067 7.027 3.574 6.202 4.653 15.305 4.668 19.168.02 5.077-4.385 16.136-4.385 16.136-3.277-5.253-8.39-7.832-8.39-7.832-25.211-10.652-32.555-27.195-37.38-40.56-1.617-4.465-3.401-7.585-5.063-9.782a62.4 62.4 0 0 0 13.997-2.966c20.634 1.445 52.364 2.013 84.526-3.812 0 0-41.592 2.64-74.987-.285a74 74 0 0 0 9.69-6.085l.27-.204.235-.234c2.673-2.32 6.774-4.73 8.589-6.064l8.05-4.118-7.513-4.308c-2.448-1.225-9.348-4.758-11.842-6.346-2.507-1.603-7.572-3.541-13.038-4.761a39.5 39.5 0 0 0 7.658-8.21c.179-.246 4.02-5.717 5.963-10.416 4.154-2.588 8.956-4.963 14.638-6.992 0 0 9.948-3.258 13.085-5.908 0 0-1.013 11.118-.884 14.89.139 3.813-1.934 12.88-5.933 18.88 0 0-4.044 2.443-5.536 6.729 0 0 9.87-9.456 25.825-10.158 0 0 8.127-.413 13.414.63 0 0 4.1.57 5.114.257 0 0-3.618 11.916-11.048 16.38 0 0-6.8-.284-8.734 1.517 0 0 35.65-.775 46.577 15.655h.03c-11.993 15.796-48.133 14.753-48.133 14.753"/><path fill="#00a562" d="M583.95 310.242c-8.324 11.974-21.384 14.692-21.384 14.692 4.474 1.08 8.571-.782 8.571-.782 7.181.045 16.128 3.142 19.401 5.234 3.237 2.062 13.221 6.83 13.221 6.83-3.835 1.034-11.252 7.278-11.252 7.278-20.587 15.217-38.785 13.363-52.994 10.979a52 52 0 0 0-5.319-.627 17.34 17.34 0 0 0-4.92-9.69 17 17 0 0 0-3.23-2.516c11.015-28.757 40.924-68.785 40.924-68.785-22.07 23.356-37.512 50.133-45.917 66.753a18 18 0 0 0-2.394-.43c1.211-2.42 2.036-4.997 2.036-7.72 0-9.7-7.888-17.592-17.587-17.592-3.414 0-6.594.997-9.295 2.69-3.45-7.972-5.397-17.69-3.985-30.023 0 0 1.486-10.017.424-13.742 0 0 9.828 6.602 13.025 8.179 3.524 1.748 10.822 7.583 14.527 13.576 0 0 .462 4.399 3.706 7.59 0 0-4.3-12.338 2.008-25.433 0 0 3.135-6.691 6.403-10.448 0 0 2.297-3.02 2.453-3.97 0 0 9.223 8.463 10.044 16.504 0 0-3.705 5.625-2.903 8.01 0 0 16.556-28.505 36.198-29.574l-.026.036c9.116 17.005-8.8 44.166-8.8 44.166 2.517-.545 5.557-5.961 5.557-5.961 7.5-3.422 19.673-.02 19.673-.02-.745.607-2.23 4.09-2.23 4.09-1.656 4.643-5.936 10.706-5.936 10.706M485.529 331.459c0 2.814.899 5.47 2.22 7.98-9.023.732-16.163 8.228-16.163 17.437 0 .692.05 1.367.127 2.037-27.396 2.865-55.676 2.573-55.676 2.573 20.2 2.748 40.049 2.627 56.658 1.48 2.484 6.699 8.92 11.496 16.472 11.496 5.562 0 10.648-2.8 13.946-7.257a19 19 0 0 0 1.598 1.798 50 50 0 0 0-1.258 4.016c-3.664 13.59-9.45 30.5-32.115 42.48 0 0-8.856 4.095-11.386 7.066 0 0-.438-11.216-.924-14.663-.533-3.827.227-13.002 3.155-19.387 0 0 3.434-2.875 4.267-7.293 0 0-7.924 10.473-22.501 12.884 0 0-7.405 1.292-12.412.828 0 0-3.85-.122-4.723.295 0 0 1.862-12.212 8.153-17.452 0 0 6.83-.242 8.37-2.247 0 0-33.343 2.98-45.388-12.144l.04-.004c9.098-16.986 42.093-18.112 42.093-18.112-1.89-1.702-8.166-1.053-8.166-1.053-7.125-4.063-11.182-15.76-11.182-15.76.94.255 4.705-.534 4.705-.534 4.833-1.326 12.358-1.347 12.358-1.347 14.791-.154 24.486 8.76 24.486 8.76-1.63-4.206-5.523-6.426-5.523-6.426-4.052-5.782-.383-16.279-.519-20.395-.049-1.47.148-3.43-2.414-12.646 3.045 2.486 12.874 5.496 12.874 5.496 13.026 4.164 19.953 10.373 24.497 17.19-3.477 3.215-5.67 7.804-5.67 12.903"/><path fill="#a9383a" d="M474.79 356.876c0-7.928 6.448-14.379 14.376-14.379l.522.052 4.275.504-2.306-2.997c-1.914-2.545-2.925-5.518-2.925-8.598 0-7.934 6.448-14.387 14.374-14.387 7.93 0 14.382 6.453 14.382 14.387 0 2.954-.913 5.81-2.643 8.26l-2.039 2.888 3.881-.413c8.081-.019 14.53 6.432 14.53 14.357 0 7.93-6.449 14.383-14.378 14.383-5.12 0-9.743-2.682-12.367-7.172l-1.422-2.43-1.363 2.46c-2.552 4.605-7.349 7.466-12.52 7.466-7.929 0-14.378-6.45-14.378-14.38"/><g fill="#fff"><path d="M485.608 361.288c-1.773-2.43-4.188-3.654-5.389-2.746-1.204.897-.738 3.606 1.021 6.036 1.777 2.422 4.182 3.66 5.396 2.75 1.204-.907.743-3.614-1.028-6.04M512.933 360.79c-1.771-2.43-4.187-3.654-5.39-2.746-1.198.9-.74 3.606 1.023 6.036 1.778 2.422 4.183 3.66 5.394 2.754 1.204-.91.749-3.614-1.027-6.044M499.734 336.515c-1.773-2.43-4.191-3.654-5.391-2.746-1.203.9-.74 3.608 1.02 6.034 1.778 2.426 4.185 3.661 5.396 2.754 1.203-.909.75-3.614-1.025-6.042"/></g><path fill="#7a593a" d="M749.383 410.715s-2.42 12.259-23.281 20.103c0 0 11.156-3.456 23.547-1.575 0 0-9.743 12.553-32.173 21.338 0 0-30.904 12.078-34.352 13.489 0 0 23.624-5.865 31.004-7.281 0 0 3.768-1.098 3.61.786 0 0 .396 7.142-34.38 24.492 0 0-22.293 10.047-37.836 13.5 0 0-73.16 61.388-164.533 79.598 0 0-13.501 19.468-19.155 25.434 0 0-15.543 21.194-39.406 20.88 0 0-11.633.117-21.8-5.203-5.085-.63-9.316 1.977-9.316 1.977-13.21 7.345-23.307 12.398-23.307 12.398-3.923.94-2.04-2.511-2.04-2.511 2.196-4.234 17.41-23.372 17.41-23.372-23.528 2.98-27.827 1.012-27.827 1.012-2.508-.471-1.1-2.747-1.1-2.747.943-1.726 7.126-4.538 7.126-4.538 8.89-4.098 23.057-12.706 23.057-12.706 10.35-7.058 16.47-36.233 16.47-36.233 5.96-23.373 12.389-40.618 12.389-40.618 1.097-1.724-.688 6.642-.688 6.642-.627 2.04-2.353 8.47-2.353 8.47-2.678 11.272-5.897 26.604-5.897 26.604-4.706 26.98-14.117 35.763-14.117 35.763-3.607 4.548-28.214 16.066-28.214 16.066 6.907.784 33.389-3.832 33.389-3.832l-19.92 23.059 13.332-7.686c3.765-2.197 7.53-3.451 7.53-3.451s1.449-1.176 2.665-5.96c0 0 .628-4.394 7.216-4.394 0 0 5.804.47 11.294 2.197 0 0 12.234 2.982 24.156-2.04 0 0 11.137-3.293 14.275-9.096 0 0 1.725-2.825-1.57-3.294 0 0-7.217-1.1-11.137.94l.314-.783s18.509-5.648 16.313-25.725c0 0-.784-8.628-1.098-11.61 0 0-3.607-18.664 10.195-29.958 0 0-2.822 8 1.883 16.784 0 0 .94-38.586 40.468-58.351 0 0 49.253-27.135 102.898-19.763 0 0-28.078-8.313-58.82-2.664 0 0-13.31 2.289-15.978 2.917 0 0-16.178 2.884-22.923 3.04 0 0-.471-.47.94-.782 0 0 21.02-7.844 44.077-13.333 0 0 16.473-4.393 20.078-5.648 0 0 6.432-1.412 4.548-5.647 0 0-11.452-22.117-68.077-22.117 0 0 12.22-2.366 23.358-3.937 0 0 7.396-.998 10.21-3.277 0 0-17.723-15.06-30.902-34.35 0 0 4.707-1.41 5.805-2.824 0 0 20.393 18.98 31.686 27.45 0 0-9.097-28.551-13.647-38.432 0 0 7.215.63 8 .63 0 0 22.566 45.849 34.978 56.779 0 0 10.199 10.512 20.393 10.98 0 0 10.352 2.04 27.76-2.037 0 0 28.39-8.468 59.447-23.215 0 0 29.02-15.217 49.099-3.922 0 0-29.961 15.372-35.45 18.352 0 0 17.79-8.024 40.377-6.768"/><path fill="#fff" d="M483.167 536.505s7.414-6.676 12.721-1.305c.122.179 2.686-14.09 12.39-23.955 0 0-15.76.936-25.11 25.26M572.214 498.339c5.695-3.55 12.195-13.131 12.644-13.11-14.236-.715-35.052 9.735-35.052 9.735 10.241-6.47 15.621-21.076 15.391-21.091-33.21.813-59.5 23.602-59.5 23.602l.904.264c22.083-12.634 36.34-12.367 36.315-11.92-5.759 13.454-15.539 24.234-15.779 24.223 32.23-12.801 43.121-5.271 43.351-5.259 2.41 6.651-2.399 14.979-2.173 14.988 5.57-9.627 38.15-20.396 38.847-20.576-17.71-4.497-34.967-.633-34.948-.856M603.695 480.858c33.66-5.076 22.725 10.148 22.481 10.365 17.734-4.295 19.27-11.646 19.512-11.853-21.666-8.762-41.993 1.488-41.993 1.488"/></g></svg>