<svg width="116" height="150" viewBox="0 0 116 150" fill="none" xmlns="http://www.w3.org/2000/svg">
<path d="M76.2754 0C76.6239 4.69323 76.9824 9.38607 77.2783 14.083C80.609 10.6436 84.5391 8.52219 88.6475 6.14941C86.4394 13.7751 83.5307 21.8626 83.0234 29.8438L82.7949 33.4355C86.5263 35.0798 90.1598 37.2554 93.6338 40.0234C94.0726 42.7033 95.4246 48.7561 97.3223 51.5273C99.7561 54.3757 101.316 57.6114 101.114 61.2539C102.385 62.7427 105.556 66.7657 108.076 70.9443C118.525 84.8429 115.667 107.278 110.473 119.965C108.727 118.09 106.356 115.718 106.326 115.688C104.066 133.413 89.6097 145.349 81.9424 150C81.3085 146.602 79.5518 142.08 79.5518 142.08C69.12 151.13 45.4923 152.008 32.0439 142.959C33.6706 135.666 35.8083 121.965 33.5479 114.428C29.9051 120.713 19.9776 129.763 16.709 131.649C11.6841 125.364 8.98779 107.556 10.9961 94.6113C6.48867 96.1112 1.03235 97.451 1 97.459C1.37429 88.4095 5.06248 75.4881 11.6299 66.0264C7.39475 65.3865 5.78036 65.066 5.77246 65.0645C10.7711 55.605 18.8506 46.9721 28.5186 40.5654V37.5547C28.5185 32.2603 26.0536 25.8186 22.6914 20.3115L18.124 12.8291C22.8641 14.6817 27.733 16.2919 32.0908 18.9717L30.2871 5.50781L47.0254 17.5195L52.7461 0.236328L62.3252 15.5117L76.2754 0Z" fill="white"/>
<path d="M101.123 61.0049C101.121 61.0877 101.119 61.1707 101.114 61.2539C102.385 62.7427 105.556 66.7657 108.076 70.9443C108.152 71.0455 108.225 71.1489 108.3 71.251C107.308 69.8944 106.194 68.6144 104.944 67.4316H104.937C111.977 77.3596 113.864 102.118 108.831 111.42C108.831 111.42 105.562 108.029 103.302 105.761C102.294 123.859 92.4963 138.185 84.8291 142.462C84.8123 142.397 83.562 137.541 82.5684 134.674C67.738 147.748 45.9968 146.235 37.5732 140.828C40.4674 127.128 39.0773 108.907 35.3125 103.5C34.8085 105.256 24.1239 120.972 18.2207 124.867C13.8222 115.817 14.0744 95.206 16.8389 88.165C16.8389 88.165 10.179 90.0523 6.03223 91.3047C7.04027 84.8975 11.814 70.3186 20.4893 62.7734C20.4893 62.7734 16.0896 61.8945 13.4473 61.8945C16.8914 55.7547 21.5275 50.3555 27.0029 45.9033C26.4913 50.554 28.0647 55.6174 32.5625 57.7939C25.5067 43.6741 35.9917 36.1592 44.1094 43.2148C43.277 41.1379 41.9101 39.1369 40.1768 37.793C50.0432 33.3486 61.2466 31.4939 72.541 33.0059C74.6945 33.6325 77.9933 38.4425 78.2227 38.8018C78.2837 37.2745 78.2006 35.2278 78.0479 34.0059C83.3093 35.2277 88.548 37.2057 93.6338 40.0234C94.0726 42.7033 95.4246 48.7561 97.3223 51.5273C93.2336 46.7423 86.6764 43.0504 81.8506 40.3594C81.5907 42.6428 79.6279 46.1709 79.6279 46.1709L79.6357 46.1855C76.3747 43.3752 67.6914 38.8086 67.6914 38.8086C59.7954 38.4117 51.8914 44.4209 49.5391 46.5059C50.5797 47.4781 51.9376 48.5191 51.9521 48.5303C47.4467 50.0348 44.1165 53.8152 42.9404 54.9912C44.7514 55.7717 47.9839 55.7773 48.0342 55.7773C51.4326 72.8834 68.211 63.155 77.8027 67.7217C74.2187 63.8097 68.2887 58.4053 68.2715 58.3896C61.544 58.8478 57.4506 58.5113 52.6016 54.6016C57.1067 51.2036 61.3522 50.1643 62.2617 50.1641C63.1705 50.1641 68.9899 53.2344 70.6855 54.4717C72.1213 53.1658 74.7333 52.3787 76.1689 51.9893C74.2753 54.0127 73.8165 56.8153 74.2744 57.8008C77.0847 60.4125 80.6749 64.3304 82.6299 66.4229C86.876 64.3994 94.1838 64.0098 98.2998 66.4229C94.9814 62.3891 89.7211 58.4165 89.6855 58.3896C89.099 56.6302 85.7848 52.4699 85.7676 52.4482C89.5509 54.2712 91.4457 55.9033 91.4502 55.9072C92.9517 53.9563 95.2898 53.2294 95.2988 53.2266C97.124 55.4489 97.2535 57.2059 97.3223 57.7939C97.3897 58.3778 95.712 59.0897 95.6885 59.0996L100.454 64.582C100.872 63.3483 101.085 62.156 101.123 61.0049ZM88.2041 90.999C88.1513 91.053 81.0879 98.254 75.3438 98.4824C77.3522 102.072 79.0483 105.05 79.7051 106.119C83.3325 105.378 88.5861 101.812 88.9756 101.025C89.4261 104.378 89.777 108.098 89.8916 109.839C91.7855 108.113 93.4504 106.218 94.9014 104.21C96.8325 101.164 97.3448 97.9588 97.3682 97.582C97.4063 96.6809 96.5204 94.466 94.3135 90.999H88.2041ZM115.07 92.5957C115.078 92.7441 115.083 92.8926 115.089 93.041C115.082 92.8864 115.076 92.7317 115.068 92.5771L115.07 92.5957ZM99.8125 71.5166C98.2775 72.6697 96.5586 74.2049 94.3135 74.877V83.6211C96.9021 85.7745 99.3003 89.6076 100.637 92.4941C102.859 84.9264 102.591 77.2134 99.8193 71.5166H99.8125ZM82.6904 70.9443C77.7799 71.1279 67.4623 77.8552 65.5303 79.8789C65.9657 81.2231 68.7837 86.5613 71.8154 92.1055C77.5582 92.1435 86.9749 86.9275 89.5791 83.1855V74.8848C87.6241 74.3578 85.3632 73.1589 82.6904 70.9443ZM73.8389 7.13184C73.8429 7.18606 74.5957 17.331 74.71 21.8018C75.2296 20.6407 81.1705 13.998 83.79 12.3711C83.0336 13.4807 80.4149 23.0313 80.0635 28.5596C66.791 24.5962 44.9503 25.5287 32.8994 34.4404V34.4326C32.2654 31.7518 28.0719 21.6801 25.2158 18.7705C26.9107 19.4118 33.3073 23.3725 35.9893 25.8164L34.1279 11.9043L48.5693 22.2676L53.5791 7.13184L61.9033 20.4043C61.9201 20.3854 64.3964 17.6027 67.0889 14.5898C70.2349 11.0691 73.6761 7.23398 73.8389 7.13184ZM101.129 60.4941C101.131 60.6548 101.128 60.8162 101.124 60.9785C101.129 60.8162 101.131 60.6548 101.129 60.4941Z" fill="#34173D"/>
</svg>
