<svg width="24" height="24" viewBox="0 0 24 24" fill="none" xmlns="http://www.w3.org/2000/svg">
  <path
    d="M21.8435 13.8094C16.4228 12.724 15.2761 11.5774 14.1907 6.15656C14.149 5.94788 13.851 5.94788 13.8093 6.15656C12.7239 11.5772 11.5773 12.724 6.15641 13.8094C5.94778 13.8511 5.94778 14.1491 6.15641 14.1908C11.5771 15.2762 12.7239 16.4228 13.8093 21.8437C13.851 22.0524 14.149 22.0524 14.1907 21.8437C15.2761 16.423 16.4227 15.2762 21.8435 14.1908C22.0521 14.1491 22.0521 13.8511 21.8435 13.8094Z"
    fill="currentColor" />
  <path
    d="M9.92176 5.90468C7.21143 5.36197 6.63806 4.78868 6.09534 2.07824C6.0745 1.97392 5.9255 1.97392 5.90466 2.07824C5.36194 4.7886 4.78866 5.36197 2.07824 5.90468C1.97392 5.92553 1.97392 6.07453 2.07824 6.09537C4.78857 6.63809 5.36194 7.21138 5.90466 9.92186C5.9255 10.0262 6.0745 10.0262 6.09534 9.92186C6.63806 7.21147 7.21134 6.63809 9.92176 6.09537C10.0261 6.07453 10.0261 5.92553 9.92176 5.90468Z"
    fill="currentColor" />
  <path
    d="M21.8435 13.8094C16.4228 12.724 15.2761 11.5774 14.1907 6.15656C14.149 5.94788 13.851 5.94788 13.8093 6.15656C12.7239 11.5772 11.5773 12.724 6.15641 13.8094C5.94778 13.8511 5.94778 14.1491 6.15641 14.1908C11.5771 15.2762 12.7239 16.4228 13.8093 21.8437C13.851 22.0524 14.149 22.0524 14.1907 21.8437C15.2761 16.423 16.4227 15.2762 21.8435 14.1908C22.0521 14.1491 22.0521 13.8511 21.8435 13.8094Z"
    stroke="currentColor" stroke-width="2" stroke-linecap="round" stroke-linejoin="round" />
  <path
    d="M9.92176 5.90468C7.21143 5.36197 6.63806 4.78868 6.09534 2.07824C6.0745 1.97392 5.9255 1.97392 5.90466 2.07824C5.36194 4.7886 4.78866 5.36197 2.07824 5.90468C1.97392 5.92553 1.97392 6.07453 2.07824 6.09537C4.78857 6.63809 5.36194 7.21138 5.90466 9.92186C5.9255 10.0262 6.0745 10.0262 6.09534 9.92186C6.63806 7.21147 7.21134 6.63809 9.92176 6.09537C10.0261 6.07453 10.0261 5.92553 9.92176 5.90468Z"
    stroke="currentColor" stroke-width="2" stroke-linecap="round" stroke-linejoin="round" />
</svg>
